<svg height="24" viewBox="0 0 24 24" width="24" xmlns="http://www.w3.org/2000/svg"><path d="m24 12.492c0 1.474-.057 3.06-.198 4.732 0 .652-.029.907-.029 1.02v1.502c0 .255-.198.482-.481.482h-2.097c-.255 0-.51-.227-.51-.482v-1.473h-2.777l-1.077-1.587c-.17-.227-.283-.34-.397-.368-.255-.114-1.756-.17-4.42-.17-1.36 0-2.437 0-3.145.028s-1.162.057-1.303.113c-.085.029-.227.17-.369.369l-1.105 1.615h-2.862v1.473c0 .255-.198.482-.453.482h-2.097c-.283 0-.538-.227-.538-.482v-1.926c-.029-.481-.085-1.218-.114-2.266-.028-1.05-.028-2.014-.028-2.948v-.624c0-.34.028-.538.057-.595.056-.255.283-.651.708-1.218l.567-.765c.028-.114.085-.227.17-.284.056-.226.311-.538.425-.765-.539 0-.879-.056-.879-.226 0-1.162.397-1.332 1.927-1.445 2.125-3.344 2.749-3.514 3.23-3.514l1.446-.085c1.955-.057 3.343-.085 4.193-.085.822 0 2.267.028 4.364.085l1.615.085c.283 0 .623.227 1.077.623.481.397 1.161 1.389 2.125 2.862 1.388.114 1.955.199 1.955 1.445 0 .17-.17.199-.907.227.057.085.227.34.454.765l.198.283.567.765c.396.567.623.992.708 1.219-.028.312 0 .68 0 1.133zm-19.041-.85-1.785-1.076c-.057 0-.085 0-.114-.029-.113-.028-.226-.056-.283-.056-.794 0-.992.396-.992 1.133 0 1.303.198 1.36.624 1.445l2.975.538zm17.284.51-.028-.595v-.283c0-.227-.453-.793-.992-.793-.057 0-.17.028-.283.056-.029.029-.057.029-.085.029l-1.785 1.076-.425 1.955 2.975-.538.255-.085c.198-.085.312-.227.34-.34.028-.085.028-.227.028-.482zm-9.435-.028h5.497c0-.085-.057-.198-.227-.34l-.198-.085-5.894-.34-5.894.34c-.057 0-.113.028-.17.057-.085.056-.17.17-.198.311v.057h5.44c-.113.113-.227.283-.283.482h-5.1l.17.481 4.986.312c.085.17.227.312.369.482l-5.1-.312c.113.17.254.283.368.368.226.114 1.105.284 2.663.454 1.559.17 2.465.226 2.749.226.283 0 1.19-.085 2.748-.255 1.559-.17 2.437-.311 2.664-.396.17-.085.283-.227.397-.369l-5.1.312c.17-.113.283-.283.368-.482l4.987-.311s.056-.17.17-.482h-5.1c-.086-.227-.17-.397-.312-.51zm2.946 5.214.114.17.85 1.275h-9.464l.878-1.275.114-.17c.085-.085.198-.114.283-.227h6.914c.085.085.226.113.311.227z" fill="#fff"/></svg>