<svg fill="none" height="12" viewBox="0 0 12 12" width="12" xmlns="http://www.w3.org/2000/svg"><path d="m11.539 5.516h-6.593c-.1-.364-.312-.684-.604-.912-.291-.228-.647-.351-1.013-.351s-.721.123-1.013.351-.504.548-.604.912h-1.252c-.122 0-.239.05-.325.14-.087.089-.135.21-.135.336 0 .127.048.248.135.337.086.09.203.14.325.14h1.252c.1.363.312.684.604.912s.647.351 1.013.351.722-.123 1.013-.351c.292-.228.504-.549.604-.912h6.593c.122 0 .24-.05.325-.14.087-.09.135-.21.135-.337 0-.126-.048-.247-.135-.336-.086-.09-.203-.14-.325-.14zm-8.21 1.264c-.15 0-.298-.046-.423-.132-.125-.087-.223-.21-.28-.354-.059-.144-.074-.302-.044-.455.029-.153.101-.293.208-.403.106-.11.242-.186.39-.216.147-.03.3-.015.44.045.139.06.258.16.341.29.084.13.129.282.129.437 0 .21-.08.41-.223.557-.143.148-.336.23-.538.231zm8.21-5.53h-.89c-.103-.361-.315-.678-.606-.903-.29-.225-.643-.347-1.007-.347s-.717.122-1.008.347c-.29.225-.503.542-.605.902h-6.96c-.123 0-.24.05-.326.14-.086.089-.135.21-.135.336 0 .063.012.125.035.183.023.057.057.11.1.154s.093.08.15.103c.055.024.115.036.175.036h6.954c.098.367.31.69.602.92.293.23.65.355 1.018.355s.725-.125 1.018-.355c.292-.23.504-.553.602-.92h.884c.122 0 .239-.05.325-.139.086-.09.135-.21.135-.337 0-.062-.012-.124-.035-.182s-.057-.11-.1-.155c-.043-.044-.094-.079-.15-.103s-.115-.036-.176-.036zm-2.504 1.276c-.15 0-.297-.046-.422-.133-.125-.086-.223-.21-.28-.353-.058-.144-.073-.302-.044-.455.03-.152.102-.293.208-.403.107-.11.242-.185.39-.215.147-.03.3-.015.44.045.138.06.257.16.34.29.084.129.129.281.129.437 0 .208-.08.408-.222.556-.143.147-.336.23-.537.23h-.002zm2.504 7.257h-2.155c-.1-.364-.312-.684-.604-.912s-.648-.352-1.013-.352c-.366 0-.722.124-1.014.352s-.504.548-.604.912h-5.687c-.122 0-.239.05-.325.14-.086.089-.135.21-.135.336s.049.248.135.337c.086.09.203.14.325.14h5.688c.1.363.312.684.604.912s.648.351 1.014.351c.365 0 .721-.123 1.013-.351s.504-.549.604-.913h2.155c.122 0 .24-.05.325-.14.087-.088.135-.21.135-.336s-.048-.247-.135-.337c-.086-.089-.203-.139-.325-.139zm-3.772 1.263c-.151 0-.298-.046-.424-.132-.125-.087-.223-.21-.28-.354-.058-.144-.073-.302-.044-.455.03-.153.102-.293.208-.404.107-.11.243-.185.39-.215.148-.03.301-.015.44.045.14.06.259.16.342.29.084.13.128.282.128.438 0 .209-.08.409-.223.556-.142.148-.336.23-.537.231z" fill="#fff" opacity=".4"/></svg>