<?xml version="1.0" encoding="UTF-8"?>
<svg width="292px" height="104px" viewBox="0 0 292 104" version="1.1" xmlns="http://www.w3.org/2000/svg" xmlns:xlink="http://www.w3.org/1999/xlink">
    <title>eqa-title-mob</title>
    <g id="页面-1" stroke="none" stroke-width="1" fill="none" fill-rule="evenodd">
        <g id="eqa-title-mob" transform="translate(0.500000, 0.000000)" fill="#FFFFFF" fill-rule="nonzero">
            <g id="编组">
                <path d="M11.8,14 C12.6,10 13.2,6.8 13.5,4.6 L13.9,1.7 L14,0.6 C14,0.6 14,0.5 14.1,0.5 C14.1,0.5 14.3,0.6 14.6,0.7 L18.1,2.5 C18.3,2.6 18.5,2.8 18.5,3 C18.5,3.2 18.4,3.3 18.2,3.4 L17.2,4.2 C16.5,7.6 15.8,10.8 15.1,13.8 L23.8,13.4 L24.7,12.1 C24.9,11.8 25,11.7 25.1,11.7 C25.2,11.7 25.3,11.8 25.4,11.9 L28.4,14.7 C28.6,14.9 28.7,15.1 28.7,15.2 C28.7,15.3 28.6,15.5 28.4,15.6 L27.3,16.4 C27.1,19.1 26.7,22.8 26.2,27.6 C25.7,32.3 24.9,35.5 23.8,37.2 C22.7,38.9 21.7,39.9 20.7,40.3 C19.8,40.7 19.1,40.9 18.8,41 L18.2,41.1 C18,41.1 18,41.1 17.9,41.1 C17.9,41.1 17.8,40.9 17.7,40.6 L17.4,39.5 C17.3,39.1 17,38.6 16.7,38.1 C16.3,37.5 16,37.1 15.7,36.8 L14.6,35.9 C14.4,35.8 14.4,35.6 14.4,35.5 C14.4,35.4 14.5,35.3 14.6,35.2 C14.7,35.1 14.8,35.1 14.9,35.2 L16.6,35.9 C17.2,36.2 17.8,36.3 18.4,36.3 C19,36.3 19.6,36.1 20.3,35.7 C21,35.3 21.5,33.9 22,31.5 C22.5,29.1 22.8,26.7 23.1,24.3 C23.4,21.9 23.6,20.2 23.6,19.4 L23.9,15 L14.7,15.4 C13.7,19.3 12.3,23.4 10.7,27.6 C9,31.8 5.9,35.9 1.3,39.7 L0.4,40.4 C0.2,40.5 0.1,40.6 0.1,40.5 C0.1,40.4 0,40.3 0,40.2 C0,40.1 0,40 0.1,39.8 L1,38.8 C1.3,38.5 1.9,37.6 3,36.1 C4.1,34.6 5.3,32.4 6.8,29.6 C8.2,26.8 9.8,22 11.6,15.4 L1.1,15.9 C1,15.9 0.9,15.9 0.8,15.8 C0.7,15.7 0.6,15.5 0.6,15.3 C0.6,15.1 0.6,14.9 0.7,14.8 C0.8,14.7 0.9,14.7 1.2,14.7 L11.8,14 Z M4.1,2.5 C4.1,2.5 4.2,2.5 4.1,2.5 C4.3,2.4 4.6,2.6 5.2,2.9 C5.8,3.3 6.7,3.9 7.7,4.9 C8.7,5.9 9.3,7 9.3,8.4 C9.3,9.8 9.1,10.7 8.7,11.3 C8.3,11.9 7.8,12.1 7.4,12.1 C6.9,12.1 6.5,11.9 6.3,11.4 C6.1,10.9 5.9,10.6 5.9,10.2 C5.9,9.9 5.8,9.1 5.8,8 C5.8,6.9 5.6,6 5.4,5.3 C5.2,4.6 4.9,4 4.6,3.6 C4.3,3.2 4.1,2.9 4.1,2.7 C4,2.8 4,2.7 4.1,2.5 Z M14.6,19.1 C14.6,19.1 14.7,19.1 14.6,19.1 C14.8,19 14.8,19 14.9,19.1 C15,19.1 15.3,19.3 15.8,19.6 C16.3,19.9 17.1,20.6 18.2,21.6 C19.3,22.6 19.8,23.8 19.8,25.1 C19.8,26.4 19.6,27.4 19.2,28 C18.8,28.6 18.3,28.8 17.9,28.8 C17.4,28.8 17,28.6 16.7,28.1 C16.5,27.7 16.3,27.3 16.3,27 C16.3,26.7 16.2,25.9 16.2,24.8 C16.2,23.7 16,22.7 15.8,22 C15.6,21.3 15.3,20.7 15,20.3 C14.7,19.9 14.5,19.7 14.5,19.6 C14.5,19.5 14.5,19.4 14.5,19.4 C14.5,19.3 14.5,19.2 14.6,19.1 Z" id="形状"></path>
                <path d="M36.4,15.7 C34.8,18.9 33.7,21 33,22 L32.5,22.7 C32.4,22.9 32.3,22.9 32.2,22.8 C32.1,22.7 32.1,22.6 32.1,22.5 C32.1,22.4 32.1,22.3 32.2,22.2 L32.6,21.1 C33.4,19.2 34.2,16.5 35.1,13 C36,9.5 36.6,7.1 36.9,5.6 C37.2,4.1 37.4,2.9 37.5,1.9 L37.7,0.6 L37.8,0.1 C37.8,0.1 37.8,0 37.9,0 C37.9,0 38.1,0.1 38.4,0.2 L41.8,2.2 C42,2.3 42,2.4 42,2.6 C42,2.7 41.9,2.9 41.8,3 L40.9,3.6 C40.1,6.1 39.2,8.5 38.4,10.9 L39.7,11.7 C39.8,11.8 39.9,11.9 40,11.9 C40.1,12 40.1,12 40.1,12.1 C40.1,12.1 40.1,12.2 40,12.3 C39.9,12.4 39.9,12.5 39.8,12.6 L39.2,13.4 L39.2,35.2 L39.3,39.9 C39.2,40.1 39.2,40.3 39.1,40.5 C39,40.7 38.7,40.8 38.1,41 C37.6,41.2 37.2,41.2 36.9,41.2 C36.7,41.2 36.5,41.1 36.5,41 C36.4,40.9 36.4,40.7 36.3,40.5 L36.5,34.9 L36.5,19.1 L36.4,15.7 Z M47.4,22.7 C46,26.3 44.9,28.8 44.1,30.1 C43.3,31.4 42.6,32.7 41.8,34 L41.1,35.2 C41,35.4 40.8,35.5 40.8,35.4 C40.7,35.3 40.7,35.2 40.7,35.1 C40.7,35 40.7,34.9 40.8,34.7 L41.4,33.3 C41.6,32.7 42,31.7 42.5,30.2 C43,28.7 43.4,27.2 43.7,25.6 C44,24 44.3,22.9 44.4,22.2 L44.8,20 L44.8,19.5 C44.8,19.5 44.9,19.5 45.1,19.6 L48.2,21.6 C48.4,21.7 48.5,21.9 48.5,22.1 C48.5,22.3 48.4,22.4 48.2,22.5 L47.4,22.7 Z M56.5,11.1 L46.5,11.1 C46.4,11.3 46.3,11.4 46.3,11.5 L45,14.4 C44.2,16.2 43.4,17.8 42.4,19.4 L41.6,20.7 C41.5,20.9 41.3,21 41.3,20.9 C41.2,20.8 41.2,20.7 41.2,20.7 C41.2,20.6 41.2,20.6 41.3,20.4 L41.9,18.7 C43.2,14.6 44.1,11 44.6,8.1 C45.1,5.2 45.3,3.4 45.4,2.8 L45.5,1.4 L45.6,0.7 C45.6,0.7 45.6,0.6 45.7,0.6 C45.7,0.6 46,0.7 46.4,0.9 L49.5,2.6 C49.6,2.7 49.7,2.7 49.8,2.8 C49.9,2.9 49.9,2.9 49.9,3.1 C49.9,3.2 49.8,3.3 49.7,3.4 L48.9,4.1 C48.3,6.3 47.7,8.2 47.1,9.9 L56.7,9.9 L57.7,8.4 C57.8,8.3 57.9,8.2 57.9,8.2 C58,8.2 58,8.3 58.2,8.4 L61,11.7 C61.2,12 61.3,12.2 61.3,12.5 C61.3,12.7 61.2,12.9 61.1,13 C61,13.1 60.7,13.2 60.1,13.2 C59.6,13.2 59,13.4 58.4,13.9 C57.8,14.4 57.2,15.2 56.5,16.4 L55.9,17.6 C55.7,17.9 55.6,18 55.5,17.9 C55.4,17.8 55.4,17.7 55.4,17.6 C55.4,17.5 55.4,17.5 55.4,17.4 C55.4,17.3 55.4,17.3 55.4,17.2 L55.7,15.8 C55.6,15.4 55.9,13.8 56.5,11.1 Z M52.3,16.4 L52.3,37.5 C52.3,37.9 52.2,38.4 52.1,38.9 C52,39.4 51.5,39.9 50.9,40.1 C50.2,40.4 49.8,40.5 49.6,40.6 L49.1,40.7 C48.9,40.7 48.8,40.7 48.7,40.7 C48.6,40.7 48.6,40.6 48.6,40.5 L48.3,39.5 C48.2,39 47.9,38.6 47.5,38.1 C47.1,37.6 46.8,37.3 46.4,37.1 L45.2,36.5 C45,36.4 45,36.3 45,36.1 C45,36 45,35.9 45.1,35.8 C45.2,35.7 45.2,35.7 45.3,35.7 L46.5,35.9 C47.6,36.1 48.3,36.2 48.7,36.1 C49.1,36.1 49.4,36 49.5,35.7 C49.7,35.5 49.7,35.2 49.7,35 L49.7,18.3 L49.6,13.2 C49.7,13.2 49.7,13.2 49.7,13.1 C49.7,13.1 49.9,13.1 50.1,13.2 L53.4,14.4 C53.6,14.5 53.7,14.6 53.7,14.8 C53.7,15 53.6,15.1 53.5,15.3 L52.3,16.4 Z M53.9,21.3 C54,21.3 54,21.2 54,21.2 C54,21.2 54.3,21.3 54.7,21.7 C55.1,22 55.9,22.7 57.1,23.9 C58.3,25.1 59.2,26.4 59.8,28 C60.4,29.6 60.8,31 60.7,32.2 C60.7,33 60.5,33.7 60.2,34.3 C59.9,34.9 59.5,35.2 58.9,35.1 C58.3,35.1 57.9,34.8 57.7,34.2 C57.4,33.6 57.2,32.6 57.1,31.2 C57,29.8 56.7,28.5 56.4,27.3 C56.1,26.1 55.8,25.3 55.6,24.8 C55.4,24.3 55.1,23.7 54.7,23 C54.3,22.3 54.1,21.9 53.9,21.8 C53.7,21.7 53.7,21.6 53.7,21.5 C53.7,21.4 53.8,21.4 53.9,21.3 Z" id="形状"></path>
                <path d="M69,40.6 L69.6,39.8 C69.7,39.7 69.8,39.4 70.1,38.9 C70.4,38.4 70.6,38.1 70.7,37.8 C70.8,37.5 70.9,37.1 71.1,36.5 C71.3,35.9 71.3,35.4 71.2,35.1 C71.1,34.8 71,34.6 70.9,34.6 C70.8,34.6 70.7,34.6 70.5,34.7 C70.3,34.8 70.1,34.8 69.9,34.8 C69.3,34.8 68.9,34.5 68.5,34 C68.1,33.5 68,32.8 68,32 C68,31.2 68.2,30.5 68.6,29.9 C69,29.3 69.5,29 70.2,29 C71,29 71.6,29.4 72,30.2 C72.4,30.9 72.7,31.7 72.7,32.6 C72.8,33.4 72.7,34.2 72.6,35 C72.4,36.1 72.2,37.1 71.8,38 C71.4,38.9 71,39.5 70.7,39.9 C70.4,40.3 70,40.7 69.7,41 C69.4,41.4 69.1,41.5 68.9,41.5 C68.7,41.4 68.6,41.3 68.6,41.2 C68.8,40.9 68.9,40.8 69,40.6 Z" id="路径"></path>
                <g id="。" transform="translate(198.000000, 29.000000)">
                    <path d="M3.54785156,0 C4.12207031,0 4.68945312,0.215332031 5.25,0.645996094 C5.81054688,1.07666016 6.25488281,1.69873047 6.58300781,2.51220703 C6.91113281,3.32568359 7.07519531,4.16992188 7.07519531,5.04492188 C7.06152344,5.9609375 6.90087891,6.80859375 6.59326172,7.58789062 C6.28564453,8.3671875 5.85498047,8.98242188 5.30126953,9.43359375 C4.74755859,9.88476562 4.16308594,10.1035156 3.54785156,10.0898438 C2.90527344,10.0898438 2.30712891,9.86425781 1.75341797,9.41308594 C1.19970703,8.96191406 0.769042969,8.35351562 0.461425781,7.58789062 C0.153808594,6.82226563 0,5.98144531 0,5.06542969 C0,4.14941406 0.157226562,3.30175781 0.471679688,2.52246094 C0.799804688,1.70214844 1.24755859,1.08007812 1.81494141,0.65625 C2.38232422,0.232421875 2.95996094,0.013671875 3.54785156,0 Z M3.52734375,1.90722656 C3.15820312,1.90722656 2.79589844,2.03710938 2.44042969,2.296875 C2.08496094,2.55664062 1.8046875,2.93945312 1.59960938,3.4453125 C1.39453125,3.95117188 1.29882812,4.47753906 1.3125,5.02441406 C1.3125,5.58496094 1.41162109,6.10791016 1.60986328,6.59326172 C1.80810547,7.07861328 2.07470703,7.46142578 2.40966797,7.74169922 C2.74462891,8.02197266 3.1171875,8.15527344 3.52734375,8.14160156 C3.92382812,8.14160156 4.28955078,8.00488281 4.62451172,7.73144531 C4.95947266,7.45800781 5.22265625,7.08203125 5.4140625,6.60351562 C5.60546875,6.125 5.70117188,5.60205078 5.70117188,5.03466797 C5.70117188,4.46728516 5.60546875,3.94433594 5.4140625,3.46582031 C5.20898438,2.95996094 4.93212891,2.57714844 4.58349609,2.31738281 C4.23486328,2.05761719 3.8828125,1.92089844 3.52734375,1.90722656 Z"></path>
                </g>
                <path d="M107.9,6.8 L108.7,5.2 C109,4.6 109.2,4.3 109.2,4.3 C109.3,4.3 109.5,4.5 109.9,5 L111.3,6.8 C111.6,7.2 111.7,7.4 111.7,7.5 C111.7,7.6 111.6,7.7 111.6,7.7 C111.5,7.8 111.4,7.8 111.3,7.8 L108.5,7.8 L108.5,7.8 L107,7.8 L109.5,9.7 C109.7,9.9 109.9,10 109.9,10.1 C109.9,10.2 109.9,10.3 109.9,10.4 C109.9,10.5 109.8,10.6 109.6,10.7 L108.7,11.1 C107.7,13.3 107,15 106.5,16.2 L108.4,16.2 L109.2,14.7 C109.5,14.2 109.6,14 109.6,13.9 C109.6,13.9 109.7,13.9 109.8,13.9 C109.9,13.9 110,14.1 110.3,14.4 L111.7,16.2 C112,16.6 112.2,16.9 112.2,17 C112.2,17.1 112.1,17.2 112.1,17.3 C112,17.4 111.9,17.4 111.7,17.4 L106.5,17.4 C106.4,17.5 106.4,17.6 106.3,17.6 C106.3,17.7 106.1,17.8 105.9,18 L105.9,22.7 L107.3,22.7 L108.3,20.9 C108.5,20.6 108.6,20.4 108.7,20.4 C108.8,20.4 109,20.6 109.3,21 L111,23.1 C111.1,23.3 111.2,23.4 111.2,23.5 C111.2,23.6 111.2,23.7 111.1,23.7 C111,23.8 111,23.8 110.9,23.8 L105.9,23.8 L105.9,36.2 C105.9,36.8 105.8,37.4 105.6,37.8 C105.4,38.2 105.2,38.5 104.9,38.7 C104.6,38.9 104.2,39.1 103.7,39.3 C103.2,39.5 102.8,39.6 102.6,39.6 C102.5,39.6 102.5,39.6 102.5,39.6 C102.5,39.6 102.4,39.5 102.4,39.4 C102.4,39.3 102.4,39.1 102.4,38.9 C102.4,38.6 102.3,38.3 102.2,37.8 C102.1,37.3 101.8,36.9 101.2,36.5 L100.3,35.9 C100.1,35.8 100,35.6 100,35.4 C100,35.2 100.1,35.1 100.3,35.1 L101.3,35.2 C101.5,35.2 101.7,35.3 101.9,35.3 C102.1,35.3 102.2,35.3 102.3,35.3 L102.8,35.3 C103.2,35.3 103.4,35.2 103.4,34.9 L103.4,24.3 L97.5,24.3 L97.3,24.2 C97.1,24 97,23.8 97,23.5 C97,23.2 97.1,23 97.5,23 L103.4,23 L103.4,17.7 L97.1,17.7 L96.9,17.7 C96.8,17.7 96.7,17.6 96.7,17.5 C96.6,17.4 96.6,17.2 96.6,16.9 C96.6,16.6 96.7,16.4 97,16.4 L105.3,16.4 C105.5,15.4 105.8,14.1 106.1,12.5 C106.4,10.9 106.6,9.8 106.6,9.2 L106.7,8 L97.6,8 C97.3,8 97.2,7.8 97.2,7.4 C97.2,7 97.3,6.8 97.6,6.8 L107.9,6.8 L107.9,6.8 Z M101.6,28.2 C101.1,29.5 100.7,30.3 100.5,30.8 C100.3,31.3 99.8,32.2 99.1,33.6 C98.4,35 97.9,35.8 97.7,36.1 L97,37.1 C96.9,37.3 96.8,37.4 96.7,37.4 L96.6,37.4 C96.6,37.4 96.6,37.3 96.6,37.2 C96.6,37.1 96.6,36.9 96.7,36.7 L97,35.7 C97.1,35.6 97.2,35.1 97.4,34.2 C97.6,33.4 97.8,32.8 97.9,32.6 C98,32.4 98.1,31.7 98.4,30.5 C98.7,29.3 98.9,28.4 99,27.9 L99.2,26.5 L99.3,25.4 C99.3,25.3 99.4,25.3 99.4,25.3 L99.8,25.6 L102,27 C102.2,27.2 102.4,27.3 102.4,27.4 C102.4,27.4 102.4,27.5 102.3,27.6 C102.3,27.7 102.2,27.7 102.2,27.8 L101.6,28.2 Z M100,10.6 L99.7,9.8 C99.7,9.8 99.7,9.7 99.7,9.6 C99.7,9.5 99.7,9.4 99.7,9.4 C99.7,9.3 99.8,9.2 99.9,9.2 C100,9.2 100.6,9.7 101.6,10.6 C102.6,11.5 103.1,12.7 103.1,14 C103.1,14.6 102.9,15.1 102.6,15.6 C102.3,16.1 101.9,16.3 101.5,16.3 C100.9,16.3 100.5,16.1 100.4,15.5 C100.3,14.9 100.3,14.5 100.3,14 C100.3,13.5 100.3,13.2 100.3,12.9 C100.3,11.8 100.2,11.1 100,10.6 Z M101.7,1.2 L101.4,0.7 C101.3,0.6 101.3,0.6 101.3,0.5 C101.3,0.4 101.3,0.4 101.3,0.3 C101.3,0.2 101.4,0.1 101.5,0.1 C101.6,0.1 101.9,0.2 102.5,0.4 C103.1,0.6 103.7,0.9 104.4,1.3 C105.1,1.7 105.5,2.3 105.6,3.1 C105.7,3.8 105.8,4.3 105.8,4.4 C105.8,4.5 105.8,4.7 105.7,4.9 C105.6,5.3 105.4,5.7 105.2,6.1 C104.9,6.5 104.6,6.7 104.1,6.7 C103.6,6.7 103.2,6.5 103,6.2 C102.8,5.8 102.7,5.4 102.6,5 L102.5,3.6 C102.5,3.2 102.4,2.9 102.3,2.6 C102.2,2.3 102,1.8 101.7,1.2 Z M121.2,15.6 L122,14 C122.3,13.4 122.5,13.1 122.5,13 C122.5,13 122.6,13 122.7,13 C122.8,13.1 123,13.3 123.4,13.8 L125,15.8 C125.1,16 125.2,16.1 125.3,16.2 C125.3,16.3 125.3,16.3 125.3,16.4 C125.3,16.6 125.2,16.8 125,16.8 L121.4,16.8 C121.3,17 121.2,17.2 121.1,17.3 C121,17.4 120.9,17.4 120.8,17.5 L120.8,36.7 L120.9,39.5 C120.8,40 120.5,40.4 120.1,40.6 C119.7,40.8 119.3,40.9 119,40.9 C118.6,40.9 118.3,40.8 118.2,40.6 C118.1,40.4 118,40.2 118,39.9 L118.1,35.3 L118.1,16.7 L115,16.7 C114.9,18.7 114.9,20.4 114.8,21.9 C114.7,23.4 114.6,24.7 114.5,26 C114.4,27.3 114,28.7 113.5,30.4 C113,32.1 112.2,33.6 111.2,34.9 C110.2,36.2 109.4,37.2 108.8,37.9 C108.2,38.6 107.7,39 107.4,39.3 L106.7,39.9 C106.6,40 106.5,40.1 106.4,40 C106.3,40 106.3,40 106.3,39.9 C106.3,39.8 106.3,39.8 106.3,39.8 C106.3,39.8 106.3,39.7 106.3,39.6 C106.3,39.5 106.4,39.4 106.5,39.3 L107.1,38.6 C108.5,36.9 109.6,35.1 110.5,33.2 C111.4,31.3 111.8,29.3 112.1,27.2 C112.3,25.1 112.5,23.2 112.5,21.4 C112.6,19.6 112.6,17.5 112.6,15 C112.6,13.4 112.6,11.8 112.5,10.2 C112.4,8.6 112.4,7.8 112.4,7.6 L112.4,6.7 L112.2,3.5 L112.3,3.4 C112.3,3.4 112.6,3.5 113,3.9 L115.2,5.5 C117,4.5 118.5,3.5 119.6,2.5 L120.4,1.8 L120.9,1.2 C121,1.2 121.1,1.2 121.1,1.2 L121.7,1.9 L123.5,4 C123.8,4.4 124,4.6 124,4.7 C124,4.9 123.9,5 123.7,5 L122.7,5.2 L118.5,6.1 L115.1,6.7 C115.1,8.4 115.1,9.6 115.1,10.4 L115.1,12.9 L115.1,15.4 L121.2,15.4 L121.2,15.6 L121.2,15.6 Z M107.1,27.7 L106.8,27.2 C106.7,26.9 106.6,26.7 106.6,26.6 C106.6,26.5 106.7,26.4 106.7,26.4 C106.7,26.4 106.7,26.4 106.8,26.4 C107,26.4 107.5,26.7 108.2,27.4 C108.9,28.1 109.5,28.7 109.8,29.3 C110.2,29.9 110.3,30.6 110.3,31.3 C110.3,31.8 110.2,32.3 109.9,32.8 C109.6,33.3 109.3,33.5 108.8,33.5 C108.3,33.5 108,33.3 107.8,32.9 C107.7,32.5 107.6,32 107.6,31.6 L107.6,30.2 C107.7,29.2 107.5,28.4 107.1,27.7 Z" id="形状"></path>
                <path d="M133.5,13.9 L133.5,7.3 L133.4,2.3 L133.5,2.2 L133.8,2.3 L137.1,3.6 C137.2,3.6 137.2,3.7 137.3,3.8 C137.4,3.9 137.4,4 137.4,4.1 C137.4,4.2 137.3,4.3 137.2,4.4 L136.4,5.3 L136.4,13.7 L140.2,13.7 L140.2,5.7 L140.1,0.4 C140.2,0.3 140.2,0.3 140.2,0.2 L140.6,0.4 L143.6,1.4 C143.6,1.4 143.6,1.4 143.7,1.5 C143.8,1.6 143.8,1.6 143.8,1.6 C143.8,1.6 143.8,1.7 143.8,1.8 C143.8,1.9 143.7,2 143.6,2.1 L142.8,3.1 L142.8,13.6 L147.7,13.6 L147.7,5.3 L147.6,0.7 C147.7,0.6 147.7,0.5 147.8,0.5 L148.2,0.7 L151.2,1.8 C151.3,1.8 151.4,1.9 151.4,2 C151.5,2.1 151.5,2.2 151.4,2.2 C151.4,2.3 151.3,2.4 151.2,2.5 L150.4,3.5 L150.4,13.6 L152.8,13.6 L154.5,10.8 C154.6,10.7 154.6,10.6 154.7,10.6 C154.7,10.6 154.8,10.7 154.9,10.8 L157.3,14.1 C157.3,14.2 157.4,14.3 157.4,14.4 C157.4,14.5 157.5,14.6 157.5,14.6 C157.5,14.7 157.4,14.8 157.3,14.8 L153.7,14.8 L150.4,14.8 L150.4,26.8 L150.5,30 C150.5,30.2 150.4,30.3 150.3,30.5 C150.2,30.7 149.9,30.8 149.5,31 C149,31.2 148.6,31.2 148.3,31.2 C148,31.2 147.8,31.1 147.8,31 C147.8,30.9 147.7,30.7 147.7,30.4 L147.7,28 L142.8,28 L142.8,30.4 C142.8,30.6 142.8,30.8 142.7,31 C142.6,31.2 142.4,31.4 142,31.5 C141.6,31.6 141.2,31.7 140.9,31.7 C140.5,31.7 140.3,31.7 140.3,31.6 C140.2,31.5 140.2,31.3 140.1,31.1 L140.2,26.1 L140.2,14.6 L136.4,14.6 L136.4,36.8 L152.1,36.7 L153.8,34 C154,33.7 154.1,33.6 154.2,33.6 C154.3,33.6 154.4,33.7 154.6,34 L156.8,37.3 C156.8,37.3 156.9,37.5 157,37.7 C157.1,37.9 157,38 156.8,38 L136.5,38 L135.5,39.4 C135.2,39.8 135,40 135,40 C135,40 134.9,39.9 134.7,39.7 L132.9,37.3 C132.8,37.1 132.7,37 132.7,36.9 C132.7,36.8 132.8,36.6 132.9,36.5 L133.5,35.9 L133.5,14.6 L128.7,14.6 C128.4,14.6 128.3,14.4 128.3,14 C128.3,13.6 128.4,13.4 128.7,13.4 L133.5,13.4 L133.5,13.9 L133.5,13.9 Z M147.9,27.1 L147.9,15.1 L143,15.1 L143,27.1 L147.9,27.1 Z" id="形状"></path>
                <path d="M168,11 L169.2,11.8 C169.5,12 169.7,12.2 169.6,12.3 C169.6,12.4 169.5,12.6 169.3,12.8 L168.5,13.7 L168.5,34.6 L168.6,39 C168.5,39.4 168.4,39.6 168.3,39.8 C168.2,40 167.8,40.2 167.3,40.3 C166.8,40.4 166.4,40.5 166.3,40.5 C166,40.5 165.9,40.4 165.8,40.3 C165.7,40.2 165.7,40 165.7,39.7 L165.9,34.2 L165.9,16 C165.1,17.5 164.5,18.8 164,19.6 C163.5,20.5 162.9,21.6 162,22.9 L161,24.5 C160.9,24.7 160.8,24.7 160.8,24.6 C160.8,24.5 160.7,24.4 160.7,24.3 C160.7,24.2 160.7,24.1 160.8,24 L161.6,22.3 C162,21.4 162.4,20.4 162.8,19.1 C163.2,17.9 163.8,15.9 164.6,13.1 C165.4,10.3 165.9,8 166.3,6.1 L167,2.5 L167.4,0.6 C167.5,0.3 167.5,0.1 167.5,0.1 L167.5,0.1 L167.7,0.2 L171.7,2.6 C171.8,2.7 171.9,2.8 171.9,3 C171.9,3.2 171.8,3.3 171.5,3.4 L170.3,3.9 L168,11 Z M179.6,15.1 L184.8,14.4 L186,12 C186.1,11.7 186.2,11.5 186.3,11.2 C186.4,11 186.5,10.8 186.5,10.8 C186.5,10.8 186.6,10.9 186.8,11.1 L189.4,14.2 C189.4,14.3 189.5,14.4 189.5,14.5 C189.6,14.6 189.6,14.7 189.6,14.7 C189.6,14.8 189.6,14.8 189.5,14.9 C189.4,15 189.4,15 189.3,15 L179.5,16.4 C179.5,16.9 179.6,18.2 179.8,20.3 C180,22.4 180.4,24.5 181.1,26.6 C181.8,28.7 182.5,30.4 183.2,31.8 C183.9,33.2 184.6,34.1 185.3,34.5 C185.9,35 186.4,35.2 186.6,35.1 C187,35.1 187.2,34.8 187.4,34.2 C187.6,33.6 187.9,32.7 188.3,31.3 L189.1,28.8 C189.2,28.5 189.3,28.4 189.4,28.4 C189.5,28.4 189.6,28.4 189.6,28.6 C189.6,28.7 189.7,28.8 189.6,28.9 C189.6,29 189.6,29.1 189.6,29.1 L189.3,31.9 C189.1,33.3 189.1,34.3 189.1,34.9 C189.1,35.5 189.2,36 189.2,36.3 L189.6,37.6 C189.7,37.9 189.7,38.1 189.7,38.3 C189.7,38.8 189.5,39.2 189.2,39.5 C188.9,39.8 188.5,40 188,40 C187.3,40 186.5,39.8 185.6,39.2 C184.7,38.7 183.4,37.3 181.7,35.2 C180.1,33.1 178.9,30.4 178.3,27.2 C177.7,24 177.1,20.5 176.6,16.6 L169.9,17.6 C169.5,17.7 169.4,17.5 169.4,17.1 C169.4,16.7 169.6,16.4 170,16.4 L176.5,15.5 C176.5,15.3 176.4,14.9 176.4,14.3 C176.4,13.7 176.3,12.9 176.2,11.9 L175.8,5.4 L175.5,2.2 L175.3,0.5 C175.4,0.4 175.5,0.4 175.6,0.4 L179.5,1.3 C179.7,1.4 179.9,1.5 179.9,1.7 C179.9,1.9 179.9,2.1 179.7,2.2 L178.7,3.5 C178.7,4.3 178.7,5.2 178.7,6.1 C178.7,7.1 178.7,8.1 178.8,9.1 L179.1,13.6 C179.1,13.9 179.1,14.1 179.1,14.2 L179.2,14.9 L179.6,14.9 L179.6,15.1 Z M180.6,4 C181.4,4 182.2,4.2 182.9,4.4 C183.6,4.6 184.3,5.1 185,5.7 C185.7,6.3 186,7.4 185.9,8.8 C185.8,10.3 185.2,11 184.2,11 C183.6,11 183.2,10.7 183,10.2 C182.8,9.7 182.6,8.9 182.3,7.8 C182.1,6.7 181.6,5.9 180.9,5.2 L180.5,4.8 C180.3,4.6 180.1,4.4 180.2,4.2 C180.3,4 180.3,4 180.6,4 Z" id="形状"></path>
            </g>
            <g id="编组" transform="translate(0.000000, 57.100000)">
                <g transform="translate(66.800000, 2.100000)">
                    <path d="M21.3,27.3 L20.4,36 L3.04040088e-23,36 L3.04040088e-23,34.8 C2.9,34.6 3.4,34.2 3.4,30.6 L3.4,6 C3.4,2.4 2.9,1.9 3.04040088e-23,1.8 L3.04040088e-23,0.6 L19.3,0.6 L20,8.8 L18.9,8.8 C17.9,3.5 16.9,2.1 12.7,2.1 L7.4,2.1 L7.4,16.9 L13.5,16.9 C15.3,16.9 15.8,15.9 15.9,12.6 L17,12.6 L17,22.7 L15.9,22.7 C15.8,19.4 15.3,18.4 13.5,18.4 L7.4,18.4 L7.4,32.4 C7.4,33.9 7.7,34.5 10,34.5 L13.8,34.5 C18.1,34.5 18.9,33 20.2,27.3 L21.3,27.3 L21.3,27.3 Z" id="路径"></path>
                    <path d="M47.9,42.6 C48.2,42.6 48.5,42.6 48.8,42.5 L48.8,43.7 C47.7,44 46.3,44.2 45,44.2 C42.6,44.2 40.5,43.7 39.1,41.2 L38.4,39.9 C37.3,38 36.5,36.8 34.5,36.1 C29.1,34.6 25,28.5 25,18.2 C25,6.3 30.6,0 37.3,0 C44,0 49.6,6.3 49.6,18.2 C49.6,29.9 44.2,36.2 37.7,36.4 C39.8,36.7 41.7,37.8 42.9,39.5 L43.6,40.6 C44.5,42 45.9,42.6 47.9,42.6 Z M37.3,35.1 C42.7,35.1 45.3,28.7 45.3,18.2 C45.3,7.8 42.7,1.3 37.3,1.3 C31.9,1.3 29.3,7.7 29.3,18.2 C29.2,28.7 31.8,35.1 37.3,35.1 Z" id="形状"></path>
                    <path d="M77.4,34.9 L77.4,36.1 C75.1,35.9 74.1,35.8 72.4,35.8 C70.8,35.8 69.4,35.9 66.8,36.1 L66.8,34.9 C69.7,34.6 70.4,34.4 69.2,30.6 L67.6,25.2 L57.4,25.2 L55.9,30.6 C54.8,34.4 55.4,34.6 58.3,34.9 L58.3,36.1 C56.9,35.9 55.2,35.8 54,35.8 C52.8,35.8 51.8,36 50.4,36.1 L50.4,34.9 C52.9,34.6 53.4,34.1 54.4,30.6 L63,0.1 L63.6,0.1 L73.5,30.7 C74.7,34.4 75,34.6 77.4,34.9 Z M67.1,23.7 L62.3,8.1 L57.8,23.7 L67.1,23.7 Z" id="形状"></path>
                </g>
                <g id="路径" transform="translate(214.300000, 2.200000)">
                    <path d="M19.1,26.7 C19.1,31.9 15,36.4 9.3,36.4 C6.3,36.4 3.6,35.1 2.1,33.2 L0.7,36.7 L-3.91919855e-23,36.7 L-3.91919855e-23,24.6 L1.1,24.6 C2,31.2 4.3,35.1 9.2,35.1 C13.3,35.1 15.7,32.7 15.7,28.8 C15.7,24.8 13.6,22.6 10.2,20.6 L6.3,18.3 C2.7,16.2 0.4,13.5 0.4,8.9 C0.4,3.2 4.7,-3.04040088e-23 9,-3.04040088e-23 C12,-3.04040088e-23 14.4,1.7 15.6,3.6 L16.7,-3.04040088e-23 L17.4,-3.04040088e-23 L17.4,10.6 L16.4,10.6 C15.6,5.5 13.2,1.4 9.2,1.4 C5.7,1.4 3.6,3.8 3.6,7.5 C3.6,10.9 5.5,12.7 8.5,14.5 L13.1,17.2 C16.9,19.3 19.1,22.1 19.1,26.7 Z"></path>
                    <path d="M40.7,1.5 L40.7,0.3 C42.2,0.5 43.6,0.6 44.9,0.6 C46.2,0.6 47.6,0.4 49.1,0.3 L49.1,1.5 C46.2,1.8 45.7,2.2 45.7,6.1 L45.7,26.1 C45.7,32.9 42.1,36.4 36,36.4 C29.6,36.4 25.7,32.6 25.7,26.4 L25.7,6.1 C25.7,2.2 25.2,1.9 22.3,1.5 L22.3,0.3 C25.5,0.6 26,0.6 27.8,0.6 C29.6,0.6 30,0.5 33.3,0.3 L33.3,1.5 C30.4,1.8 29.9,2.2 29.9,6.1 L29.9,25.9 C29.9,31.8 32.6,34.3 36.8,34.3 C41.7,34.3 44.3,31.8 44.3,25.9 L44.3,6.1 C44.2,2.2 43.6,1.8 40.7,1.5 Z"></path>
                    <path d="M77.2,0.3 L77.2,1.5 C74.7,1.8 74,2.3 73,5.8 L64.3,36.3 L63.7,36.3 L54.2,5.7 C53,1.9 52.5,1.7 50.1,1.4 L50.1,0.2 C52.3,0.4 53.4,0.5 55.1,0.5 C56.8,0.5 58.2,0.4 60.9,0.2 L60.9,1.4 C57.8,1.7 57.5,2 58.6,5.7 L65.2,27.9 L71.7,5.7 C72.8,2 72.5,1.7 69.4,1.4 L69.4,0.2 C70.9,0.4 72.5,0.5 73.8,0.5 C74.6,0.7 75.9,0.6 77.2,0.3 Z"></path>
                </g>
                <g id="形状">
                    <path d="M9.2,14 C7.8,15.8 6.5,17.3 5.3,18.5 C4.1,19.8 3.1,20.7 2.3,21.2 C1.5,21.7 1.1,22.1 1.1,22.1 L0.5,22.6 C0.4,22.7 0.3,22.7 0.2,22.7 C0.1,22.7 0,22.7 0,22.6 C0,22.6 0,22.5 0,22.4 C0,22.3 0.1,22.2 0.2,22.1 L0.8,21.4 C2,19.9 3.3,18.2 4.6,16.3 C5.9,14.4 7.2,12 8.7,9.1 C10.1,6.2 11.1,4 11.8,2.2 L12.2,1.2 L12.5,0.3 C12.5,0.3 12.5,0.2 12.6,0.2 L13.4,0.7 L16.7,2.8 C16.8,2.9 16.9,3 17,3.1 C17,3.2 17.1,3.3 17.1,3.4 C17.1,3.5 17,3.7 16.8,3.8 L15.7,4.4 L15.5,4.7 C16.7,7.5 17.9,9.6 19,10.9 C20.2,12.2 21.2,13.2 22.1,13.9 C23,14.6 23.9,15.3 24.9,15.9 C25.9,16.5 26.9,17 27.9,17.3 L28.9,17.6 L29.7,17.8 C29.9,17.9 30,17.9 30,18 C30,18.1 30,18.1 30,18.2 C30,18.3 29.9,18.4 29.9,18.5 L29.4,18.8 C28.9,19.1 28.6,19.3 28.3,19.5 C28,19.7 27.8,20 27.5,20.5 C27.2,20.9 27,21.3 26.9,21.6 C26.8,22 26.7,22.2 26.7,22.3 C26.7,22.4 26.6,22.4 26.5,22.4 C26.2,22.4 25.3,21.7 23.6,20.4 C21.9,19.1 20.5,17.6 19.5,15.9 C18.5,14.3 17.6,12.7 16.9,11.1 C16.2,9.6 15.7,8.1 15.4,6.9 L15,5.4 C12.5,9.5 10.6,12.3 9.2,14 Z M16.2,20.8 C16.1,20.9 16.1,21 16,21.2 C15.9,21.4 15.7,21.6 15.5,21.8 L15.5,28.5 L18.6,28.5 L19.8,26.5 C20,26.1 20.2,25.9 20.3,25.9 C20.4,25.9 20.6,26.1 21,26.5 L23.1,28.8 C23.3,29.1 23.5,29.3 23.4,29.5 C23.3,29.7 23.2,29.7 23,29.7 L15.5,29.7 L15.5,37.9 L22.4,37.9 L24,35.5 L24.3,35.1 C24.4,34.8 24.6,34.7 24.6,34.7 C24.7,34.7 24.9,35 25.3,35.4 L27.6,38 C27.8,38.2 27.9,38.4 27.9,38.4 C27.9,38.5 27.9,38.6 28,38.7 C28,38.8 27.8,38.9 27.5,38.9 L25.8,38.9 L1.5,38.9 C1.2,38.9 1.1,38.7 1.1,38.3 C1.1,37.9 1.2,37.7 1.5,37.7 L12.5,37.7 L12.5,29.5 L5.8,29.5 L5.7,29.5 C5.6,29.5 5.5,29.4 5.5,29.3 C5.4,29.2 5.4,29 5.4,28.7 C5.4,28.4 5.5,28.2 5.7,28.2 L12.5,28.2 L12.5,20.6 L5.7,20.6 C5.5,20.6 5.3,20.4 5.3,20 C5.3,19.6 5.4,19.4 5.7,19.4 L17,19.4 L18.2,17.5 C18.5,17.1 18.6,16.9 18.7,16.9 C18.7,16.9 18.9,17.1 19.3,17.5 L21.4,19.7 C21.6,20 21.7,20.2 21.7,20.3 C21.7,20.5 21.5,20.6 21.3,20.6 L19.3,20.6 L16.2,20.6 L16.2,20.8 L16.2,20.8 Z"></path>
                    <path d="M43.9,6.7 L44.7,5.1 C45,4.5 45.2,4.2 45.2,4.2 C45.3,4.2 45.5,4.4 45.9,4.9 L47.3,6.7 C47.6,7.1 47.7,7.3 47.7,7.4 C47.7,7.5 47.6,7.6 47.6,7.6 C47.5,7.7 47.4,7.7 47.3,7.7 L44.5,7.7 L44.5,7.7 L43,7.7 L45.5,9.6 C45.7,9.8 45.9,9.9 45.9,10 C45.9,10.1 45.9,10.2 45.9,10.3 C45.9,10.4 45.8,10.5 45.6,10.6 L44.7,11 C43.7,13.2 43,14.9 42.5,16.1 L44.4,16.1 L45.2,14.6 C45.5,14.1 45.6,13.9 45.6,13.8 C45.6,13.8 45.7,13.8 45.8,13.8 C45.9,13.8 46,14 46.3,14.3 L47.7,16.1 C48,16.5 48.2,16.8 48.2,16.9 C48.2,17 48.1,17.1 48.1,17.2 C48,17.3 47.9,17.3 47.7,17.3 L42.5,17.3 C42.4,17.4 42.4,17.5 42.3,17.5 C42.3,17.6 42.1,17.7 41.9,17.9 L41.9,22.6 L43.3,22.6 L44.3,20.8 C44.5,20.5 44.6,20.3 44.7,20.3 C44.8,20.3 45,20.5 45.3,20.9 L47,23 C47.1,23.2 47.2,23.3 47.2,23.4 C47.2,23.5 47.2,23.6 47.1,23.6 C47,23.7 47,23.7 46.9,23.7 L41.9,23.7 L41.9,36.1 C41.9,36.7 41.8,37.3 41.6,37.7 C41.4,38.1 41.2,38.4 40.9,38.6 C40.6,38.8 40.2,39 39.7,39.2 C39.2,39.4 38.8,39.5 38.6,39.5 C38.5,39.5 38.5,39.5 38.5,39.5 C38.5,39.5 38.4,39.4 38.4,39.3 C38.4,39.2 38.4,39 38.4,38.8 C38.4,38.5 38.3,38.2 38.2,37.7 C38.1,37.2 37.8,36.8 37.2,36.4 L36.3,35.8 C36.1,35.7 36,35.5 36,35.3 C36,35.1 36.1,35 36.3,35 L37.3,35.1 C37.5,35.1 37.7,35.2 37.9,35.2 C38.1,35.2 38.2,35.2 38.3,35.2 L38.8,35.2 C39.2,35.2 39.4,35.1 39.4,34.8 L39.4,24.2 L33.5,24.2 L33.3,24.1 C33.1,23.9 33,23.7 33,23.4 C33,23.1 33.1,22.9 33.5,22.9 L39.4,22.9 L39.4,17.6 L33.1,17.6 L32.9,17.6 C32.8,17.6 32.7,17.5 32.7,17.4 C32.6,17.3 32.6,17.1 32.6,16.8 C32.6,16.5 32.7,16.3 33,16.3 L41.3,16.3 C41.5,15.3 41.8,14 42.1,12.4 C42.4,10.8 42.6,9.7 42.6,9.1 L42.7,7.9 L33.6,7.9 C33.3,7.9 33.2,7.7 33.2,7.3 C33.2,6.9 33.3,6.7 33.6,6.7 L43.9,6.7 L43.9,6.7 Z M37.6,28.1 C37.1,29.4 36.7,30.2 36.5,30.7 C36.3,31.2 35.8,32.1 35.1,33.5 C34.4,34.9 33.9,35.7 33.7,36 L33,37 C32.9,37.2 32.8,37.3 32.7,37.3 L32.6,37.3 C32.6,37.3 32.6,37.2 32.6,37.1 C32.6,37 32.6,36.8 32.7,36.6 L33,35.6 C33.1,35.5 33.2,35 33.4,34.1 C33.6,33.3 33.8,32.7 33.9,32.5 C34,32.3 34.1,31.6 34.4,30.4 C34.7,29.2 34.9,28.3 35,27.8 L35.2,26.4 L35.3,25.3 C35.3,25.2 35.4,25.2 35.4,25.2 L35.8,25.5 L38,26.9 C38.2,27.1 38.4,27.2 38.4,27.3 C38.4,27.3 38.4,27.4 38.3,27.5 C38.3,27.6 38.2,27.6 38.2,27.7 L37.6,28.1 Z M36,10.5 L35.7,9.7 C35.7,9.7 35.7,9.6 35.7,9.5 C35.7,9.4 35.7,9.3 35.7,9.3 C35.7,9.2 35.8,9.1 35.9,9.1 C36,9.1 36.6,9.6 37.6,10.5 C38.6,11.4 39.1,12.6 39.1,13.9 C39.1,14.5 38.9,15 38.6,15.5 C38.3,16 37.9,16.2 37.5,16.2 C36.9,16.2 36.5,16 36.4,15.4 C36.3,14.8 36.3,14.4 36.3,13.9 C36.3,13.4 36.3,13.1 36.3,12.8 C36.3,11.7 36.2,11 36,10.5 Z M37.7,1.1 L37.4,0.6 C37.3,0.5 37.3,0.5 37.3,0.4 C37.3,0.3 37.3,0.3 37.3,0.2 C37.3,0.1 37.4,0 37.5,0 C37.6,0 37.9,0.1 38.5,0.3 C39.1,0.5 39.7,0.8 40.4,1.2 C41.1,1.6 41.5,2.2 41.6,3 C41.7,3.7 41.8,4.2 41.8,4.3 C41.8,4.4 41.8,4.6 41.7,4.8 C41.6,5.2 41.4,5.6 41.2,6 C40.9,6.4 40.6,6.6 40.1,6.6 C39.6,6.6 39.2,6.4 39,6.1 C38.8,5.7 38.7,5.3 38.6,4.9 L38.5,3.5 C38.5,3.1 38.4,2.8 38.3,2.5 C38.2,2.2 38,1.7 37.7,1.1 Z M57.2,15.5 L58,13.9 C58.3,13.3 58.5,13 58.5,12.9 C58.5,12.9 58.6,12.9 58.7,12.9 C58.8,13 59,13.2 59.4,13.7 L61,15.7 C61.1,15.9 61.2,16 61.3,16.1 C61.3,16.2 61.3,16.2 61.3,16.3 C61.3,16.5 61.2,16.7 61,16.7 L57.4,16.7 C57.3,16.9 57.2,17.1 57.1,17.2 C57,17.3 56.9,17.3 56.8,17.4 L56.8,36.6 L56.9,39.4 C56.8,39.9 56.5,40.3 56.1,40.5 C55.7,40.7 55.3,40.8 55,40.8 C54.6,40.8 54.3,40.7 54.2,40.5 C54.1,40.3 54,40.1 54,39.8 L54.1,35.2 L54.1,16.6 L51,16.6 C50.9,18.6 50.9,20.3 50.8,21.8 C50.7,23.3 50.6,24.6 50.5,25.9 C50.4,27.2 50,28.6 49.5,30.3 C49,32 48.2,33.5 47.2,34.8 C46.2,36.1 45.4,37.1 44.8,37.8 C44.2,38.5 43.7,38.9 43.4,39.2 L42.7,39.8 C42.6,39.9 42.5,40 42.4,39.9 C42.3,39.9 42.3,39.9 42.3,39.8 C42.3,39.7 42.3,39.7 42.3,39.7 C42.3,39.7 42.3,39.6 42.3,39.5 C42.3,39.4 42.4,39.3 42.5,39.2 L43.1,38.5 C44.5,36.8 45.6,35 46.5,33.1 C47.4,31.2 47.8,29.2 48.1,27.1 C48.3,25 48.5,23.1 48.5,21.3 C48.6,19.5 48.6,17.4 48.6,14.9 C48.6,13.3 48.6,11.7 48.5,10.1 C48.4,8.5 48.4,7.7 48.4,7.5 L48.4,6.6 L48.2,3.4 L48.3,3.3 C48.3,3.3 48.6,3.4 49,3.8 L51.2,5.4 C53,4.4 54.5,3.4 55.6,2.4 L56.4,1.7 L56.9,1.1 C57,1.1 57.1,1.1 57.1,1.1 L57.7,1.8 L59.5,3.9 C59.8,4.3 60,4.5 60,4.6 C60,4.8 59.9,4.9 59.7,4.9 L58.7,5.1 L54.5,6 L51.1,6.6 C51.1,8.3 51.1,9.5 51.1,10.3 L51.1,12.8 L51.1,15.3 L57.2,15.3 L57.2,15.5 L57.2,15.5 Z M43.1,27.6 L42.8,27.1 C42.7,26.8 42.6,26.6 42.6,26.5 C42.6,26.4 42.7,26.3 42.7,26.3 C42.7,26.3 42.7,26.3 42.8,26.3 C43,26.3 43.5,26.6 44.2,27.3 C44.9,28 45.5,28.6 45.8,29.2 C46.2,29.8 46.3,30.5 46.3,31.2 C46.3,31.7 46.2,32.2 45.9,32.7 C45.6,33.2 45.3,33.4 44.8,33.4 C44.3,33.4 44,33.2 43.8,32.8 C43.7,32.4 43.6,31.9 43.6,31.5 L43.6,30.1 C43.7,29.1 43.5,28.3 43.1,27.6 Z"></path>
                    <path d="M152,15.3 L156.7,15.7 C157,15.1 157.2,14.4 157.5,13.7 C157.8,13 158,12.5 158.1,12.1 L158.5,10.9 L158.6,10.5 L158.7,10.4 C158.7,10.4 158.8,10.5 159,10.6 L161.4,12.9 C161.5,13 161.6,13.1 161.6,13.2 C161.6,13.3 161.7,13.3 161.7,13.4 C161.7,13.5 161.6,13.6 161.4,13.6 L160.5,13.9 C158.1,18.1 155.7,22 153.4,25.8 L157.8,25.2 L159.5,24.9 C159.8,24.9 159.9,24.9 159.9,25.1 C159.9,25.3 159.8,25.5 159.5,25.6 L158.1,26.2 C157.6,26.4 156.8,26.8 155.6,27.5 C154.4,28.1 153.6,28.6 153.2,28.8 L152.1,29.5 C151.7,29.7 151.5,29.8 151.5,29.8 C151.5,29.8 151.4,29.7 151.4,29.5 L150.5,26.5 C150.4,26.2 150.3,26 150.4,26 C150.5,26 150.4,25.9 150.5,25.9 L150.8,25.8 L151.3,25.6 C151.5,25.5 151.7,25.4 151.9,25.2 C152.1,25 152.5,24.4 153.1,23.3 C153.7,22.2 154.8,20 156.4,16.6 C155,16.9 153.8,17.3 152.6,17.7 L151,18.3 L150.5,18.5 C150.5,18.5 150.4,18.3 150.3,17.8 L149.6,15.3 C149.6,15.1 149.5,15 149.5,15 C149.5,15 149.6,14.9 149.7,14.9 L150.3,14.6 C150.8,14.4 151.3,13.5 151.9,12 C152.5,10.5 153,9 153.5,7.4 C154,5.8 154.3,4.8 154.5,4.2 L155,2.4 L155.1,1.9 C155.2,1.8 155.3,1.9 155.5,2 L158.4,3.8 C158.5,3.9 158.5,3.9 158.6,4 C158.7,4.1 158.7,4.1 158.7,4.2 C158.7,4.3 158.7,4.3 158.6,4.4 C158.5,4.5 158.4,4.6 158.3,4.6 L157.5,5 L152,15.3 Z M151.9,34.8 C155.2,33.7 157.9,32.8 159.8,32 L160.9,31.6 C161,31.6 161.1,31.6 161.2,31.6 C161.3,31.6 161.3,31.7 161.3,31.9 C161.3,32.1 161.2,32.1 161.1,32.2 L160.1,32.9 L156.5,35.6 C154.8,36.9 153.8,37.7 153.4,38 L152.1,39.1 C151.9,39.3 151.7,39.4 151.7,39.4 C151.7,39.4 151.6,39.3 151.6,39.1 L150.6,35.9 C150.5,35.5 150.4,35.2 150.4,35.2 L150.4,35.1 L150.7,35 L151.9,34.8 Z M166.7,9 L166.7,4.6 L166.6,0.6 C166.6,0.6 166.6,0.5 166.7,0.5 C166.8,0.5 166.9,0.5 167.2,0.6 L170.1,1.4 C170.3,1.5 170.4,1.6 170.4,1.7 C170.4,1.8 170.3,2 170.2,2.1 L169.4,2.9 L169.4,9 L172.9,9 L174.2,6.7 C174.3,6.5 174.4,6.4 174.4,6.4 C174.4,6.4 174.5,6.5 174.7,6.7 L177.2,9.7 C177.3,9.8 177.3,9.9 177.3,10 C177.3,10.1 177.3,10.1 177.3,10.2 C177.3,10.3 177.2,10.3 177,10.3 L173.5,10.3 L173.5,10.3 L169.3,10.3 L169.3,25.7 L172.9,25.7 L172.9,18.7 L172.8,14.4 L172.9,14.3 L173.4,14.5 L176.2,15.4 C176.5,15.5 176.6,15.6 176.5,15.7 C176.4,15.8 176.4,15.9 176.3,16 L175.6,16.7 L175.6,24.8 L175.7,27.9 C175.6,28.2 175.6,28.4 175.4,28.6 C175.3,28.7 174.9,28.9 174.3,29.2 C173.7,29.4 173.3,29.4 173.1,29.1 C172.9,28.8 172.9,28.5 172.9,28.1 L172.9,26.8 L169.3,26.8 L169.3,35.2 C169.3,35.7 169.4,36.2 169.6,36.7 C169.8,37.2 170.5,37.4 171.7,37.3 C173.3,37.3 174.3,37.1 174.7,37 C175.1,36.9 175.4,36.6 175.6,36.3 C175.8,36 176,35.6 176.2,35 L176.8,32.7 L177.3,30.9 C177.4,30.7 177.4,30.6 177.5,30.6 C177.6,30.6 177.6,30.6 177.7,30.7 C177.7,30.8 177.7,30.8 177.7,30.9 C177.7,31 177.7,31 177.7,31.1 L177.4,33.1 C177.3,34.1 177.2,34.9 177.2,35.3 C177.2,35.7 177.3,36.2 177.5,36.6 L178,37.6 C178.1,37.8 178.1,38 178.1,38.2 C178.1,38.4 178,38.7 177.9,39.1 C177.8,39.5 177.3,39.9 176.5,40.2 C175.7,40.5 174.2,40.7 171.8,40.7 C170.4,40.7 169.2,40.5 168.1,40.1 C167,39.7 166.5,38.5 166.5,36.7 L166.5,26.8 L163.2,26.8 L162.3,28.8 C162.2,29 162.2,29 162.1,29 L161.9,28.8 L160.1,26.9 C160,26.8 159.9,26.6 159.9,26.5 L159.9,26.5 L159.9,26.4 L160.1,26.2 L160.7,25.5 L160.7,18.6 L160.6,14.7 C160.6,14.7 160.6,14.7 160.7,14.7 L161.1,14.9 L163.8,15.8 C163.9,15.9 164,16 164,16.1 C164,16.2 163.9,16.4 163.8,16.6 L163.1,17.4 L163.1,25.7 L166.4,25.7 L166.4,10.3 L159.8,10.3 C159.6,10.3 159.4,10.1 159.4,9.7 C159.4,9.3 159.5,9.1 159.8,9.1 L166.7,9 L166.7,9 Z"></path>
                    <path d="M202.2,25.6 L195.6,25.6 L195.6,33.6 C195.6,33.9 195.6,34.2 195.6,34.4 C195.6,34.6 195.9,34.9 196.3,35.3 C196.7,35.7 198.2,35.9 200.7,35.9 C203.4,35.9 205.1,35.6 205.7,35 C206.3,34.4 206.7,33.8 206.9,33.2 C207.1,32.6 207.4,31.8 207.6,30.8 L208.2,28.2 C208.2,28 208.3,27.9 208.4,27.9 C208.5,27.9 208.6,28 208.6,28.1 C208.6,28.2 208.6,28.3 208.6,28.3 L208.3,31.2 C208.2,31.9 208.2,32.5 208.2,32.9 C208.2,33.3 208.3,33.7 208.4,34 C208.5,34.3 208.6,34.6 208.8,34.8 C209,35 209.1,35.2 209.1,35.4 C209.2,35.6 209.2,35.8 209.2,36 C209.2,36.3 209.2,36.5 209,36.8 C208.3,38.6 205.8,39.5 201.5,39.5 C200.8,39.5 199.9,39.5 198.8,39.4 C197.8,39.3 196.7,39.2 195.5,39 C194.4,38.8 193.6,38.3 193.2,37.5 C192.8,36.7 192.6,35.8 192.6,34.8 L192.6,25.4 L186.4,25.4 L186.4,29.1 C186.4,29.4 186.2,29.7 185.8,30 C185.4,30.3 185,30.4 184.6,30.3 C184.3,30.3 184,30.2 183.9,30 C183.8,29.8 183.7,29.6 183.6,29.3 L183.8,24.7 L183.8,10.4 L183.6,6.4 C183.7,6.3 183.7,6.3 183.7,6.2 C183.7,6.1 183.9,6.3 184.3,6.5 L186.6,8.2 L192.6,8.2 L192.6,6.1 L192.4,0.7 C192.5,0.6 192.6,0.6 192.7,0.5 L193.3,0.7 L195.9,1.4 C196.1,1.5 196.2,1.5 196.3,1.6 C196.4,1.7 196.4,1.8 196.4,1.9 C196.4,2 196.3,2.2 196.1,2.5 L195.3,3.4 L195.3,8.5 L201.7,8.5 L202.5,7 C202.6,6.8 202.7,6.6 202.8,6.6 C202.9,6.6 203.1,6.8 203.5,7.1 L205.4,8.9 C205.6,9 205.6,9.1 205.7,9.2 L205.7,9.3 C205.7,9.3 205.6,9.5 205.3,9.8 L204.7,10.7 L204.7,23.7 L204.8,27.1 C204.5,28.1 204,28.7 203.1,28.7 C202.2,28.7 201.8,28.4 201.8,27.8 L202.2,25.6 Z M192.9,16.5 L192.9,9.8 L186.7,9.8 L186.7,16.5 L192.9,16.5 Z M192.9,24.4 L192.9,17.7 L186.7,17.7 L186.7,24.4 L192.9,24.4 Z M202.2,16.5 L202.2,9.8 L195.6,9.8 L195.6,16.5 L202.2,16.5 Z M202.2,24.4 L202.2,17.7 L195.6,17.7 L195.6,24.4 L202.2,24.4 Z"></path>
                </g>
            </g>
        </g>
    </g>
</svg>