<svg width="252" height="87" viewBox="0 0 252 87" fill="none" xmlns="http://www.w3.org/2000/svg">
<path d="M1.75195 20.7178C1.58724 20.7028 1.48242 20.6055 1.4375 20.4258C1.3776 19.8118 1.50488 19.5049 1.81934 19.5049H7.7041V12.2275C5.42806 12.512 4.17773 12.6618 3.95312 12.6768L2.69531 12.7891C2.59049 12.804 2.50065 12.7816 2.42578 12.7217C2.36589 12.6468 2.34342 12.5719 2.3584 12.4971C2.3584 12.3623 2.45573 12.2575 2.65039 12.1826L3.93066 11.7109C4.96387 11.3366 6.18424 10.805 7.5918 10.1162C8.99935 9.42741 10.055 8.81348 10.7588 8.27441L11.7695 7.48828L12.2861 7.08398C12.4209 7.20378 12.5482 7.33854 12.668 7.48828L15.0713 10.8799C15.1312 10.9847 15.1536 11.097 15.1387 11.2168C15.1237 11.3366 15.0563 11.3965 14.9365 11.3965L13.8135 11.4863C12.8402 11.5762 11.8818 11.7109 10.9385 11.8906C10.7288 12.2799 10.4967 12.5869 10.2422 12.8115V19.5049H11.5L12.5332 17.6406C12.653 17.416 12.7578 17.3037 12.8477 17.3037C12.9375 17.2887 13.0648 17.3711 13.2295 17.5508L15.1836 19.707C15.4531 20.0065 15.5879 20.2311 15.5879 20.3809C15.5729 20.6055 15.4307 20.7178 15.1611 20.7178H10.2422V25.1875C11.0807 25.3672 11.9417 25.6068 12.8252 25.9062C13.7087 26.1908 14.3076 26.7223 14.6221 27.501C14.9515 28.2796 15.1162 28.8861 15.1162 29.3203C15.1162 29.7546 15.0563 30.1514 14.9365 30.5107C14.637 31.3643 14.1579 31.7985 13.499 31.8135C13.1995 31.8285 12.93 31.7236 12.6904 31.499C12.4658 31.2744 12.3011 31.0199 12.1963 30.7354C12.0915 30.4359 11.9717 29.8743 11.8369 29.0508C11.7171 28.2122 11.5524 27.5908 11.3428 27.1865C11.1331 26.7673 10.7663 26.3779 10.2422 26.0186V41.1572L10.3994 46.0312C10.3844 46.3906 10.3096 46.7425 10.1748 47.0869C10.055 47.4463 9.64323 47.641 8.93945 47.6709C8.23568 47.7008 7.83887 47.626 7.74902 47.4463C7.67415 47.2816 7.62174 47.0345 7.5918 46.7051L7.77148 40.4609V30.1514C6.64844 32.2028 5.83236 33.6403 5.32324 34.4639L3.77344 36.8896C3.30924 37.6383 3.00228 38.1175 2.85254 38.3271L1.86426 39.6973C1.71452 39.9069 1.60221 39.9668 1.52734 39.877C1.46745 39.7871 1.4375 39.7122 1.4375 39.6523C1.4375 39.5775 1.46745 39.4727 1.52734 39.3379L2.33594 37.4961C2.44076 37.2266 2.73275 36.4928 3.21191 35.2949C3.70605 34.082 4.05794 33.1986 4.26758 32.6445C4.47721 32.0905 4.93392 30.6904 5.6377 28.4443C6.34147 26.1833 6.88053 24.2666 7.25488 22.6943L7.5918 21.1895L7.7041 20.7178H1.75195ZM22.9775 30.3535V13.373L22.8652 7.26367C22.9401 7.23372 23.1048 7.26367 23.3594 7.35352L26.0996 8.40918C26.3242 8.514 26.459 8.59635 26.5039 8.65625C26.5638 8.71615 26.5938 8.79102 26.5938 8.88086C26.5938 8.9707 26.5114 9.10547 26.3467 9.28516L25.583 10.0713L25.6055 29.4102L26.5713 29.0283L27.2676 26.4004C27.3574 26.0111 27.4248 25.8014 27.4697 25.7715C27.5146 25.7266 27.7018 25.8164 28.0312 26.041L30.2773 27.6582C30.5169 27.8379 30.6592 27.9577 30.7041 28.0176C30.749 28.0775 30.7715 28.1374 30.7715 28.1973C30.7865 28.2422 30.764 28.3171 30.7041 28.4219C30.6442 28.5117 30.5544 28.5791 30.4346 28.624L25.6055 30.623L25.583 41.6514L25.6953 46.0986C25.5306 46.6826 25.1263 47.0944 24.4824 47.334C23.8385 47.5736 23.4118 47.5661 23.2021 47.3115C23.0075 47.0719 22.8727 46.8398 22.7979 46.6152L22.9775 40.3936V31.5664L12.5332 35.4521C12.4434 35.4821 12.391 35.5046 12.376 35.5195C12.361 35.5195 12.3161 35.4971 12.2412 35.4521C12.1663 35.4072 12.1139 35.3473 12.084 35.2725C12.054 35.1976 12.054 35.0254 12.084 34.7559C12.1139 34.4863 12.2113 34.3216 12.376 34.2617L22.9775 30.3535ZM17.0928 13.3281L16.5986 12.7217C16.5088 12.6318 16.4564 12.5645 16.4414 12.5195C16.4414 12.4746 16.4489 12.4372 16.4639 12.4072C16.4788 12.2126 16.5762 12.1227 16.7559 12.1377C17.6243 12.2275 18.5602 12.5869 19.5635 13.2158C20.5817 13.8447 21.0908 14.6458 21.0908 15.6191C21.1058 16.5775 20.9785 17.2962 20.709 17.7754C20.3646 18.3743 19.9378 18.6663 19.4287 18.6514C19.0094 18.6514 18.68 18.4717 18.4404 18.1123C18.2158 17.738 18.0736 17.3561 18.0137 16.9668C17.9688 16.5775 17.9313 16.1582 17.9014 15.709C17.8714 15.2598 17.819 14.8704 17.7441 14.541C17.6842 14.1966 17.4671 13.7923 17.0928 13.3281ZM16.6885 22.9639L16.1719 22.3799C16.0671 22.29 16.0146 22.1777 16.0146 22.043C16.0296 21.9082 16.127 21.8184 16.3066 21.7734C16.4414 21.7435 17.2126 21.9906 18.6201 22.5146C20.0277 23.0238 20.724 24.1243 20.709 25.8164C20.694 26.4303 20.5293 26.9993 20.2148 27.5234C19.9154 28.0475 19.526 28.3096 19.0469 28.3096C18.6126 28.3245 18.2757 28.1449 18.0361 27.7705C17.8115 27.3812 17.6693 26.9993 17.6094 26.625C17.5495 26.2357 17.5046 25.8164 17.4746 25.3672C17.4447 24.918 17.4072 24.5736 17.3623 24.334C17.3174 24.0944 17.2201 23.8398 17.0703 23.5703C16.9206 23.3008 16.7933 23.0986 16.6885 22.9639ZM53.8389 24.6709H56.2871L56.9385 23.3906C57.193 22.8965 57.3577 22.6794 57.4326 22.7393C57.5075 22.7992 57.5973 22.874 57.7021 22.9639L60.0605 25.3896C60.0905 25.4346 60.1279 25.5094 60.1729 25.6143C60.2178 25.7191 60.2477 25.8164 60.2627 25.9062C60.2777 25.9961 60.2103 26.1009 60.0605 26.2207L59.1172 26.9619C58.1139 30.1813 57.3053 32.5098 56.6914 33.9473C56.0775 35.3698 55.2988 36.8672 54.3555 38.4395C55.4785 39.4128 56.3994 40.1165 57.1182 40.5508C57.8519 40.9701 58.6605 41.3594 59.5439 41.7188C60.4424 42.0931 61.2061 42.3402 61.835 42.46L62.8008 42.6621C62.9505 42.707 63.0179 42.7969 63.0029 42.9316C63.0029 43.0814 62.9355 43.2012 62.8008 43.291L62.4189 43.5381L61.79 43.8975C61.5654 44.0472 61.2285 44.3467 60.7793 44.7959C60.3301 45.2451 59.9932 45.7318 59.7686 46.2559C59.5439 46.7949 59.3867 47.0495 59.2969 47.0195C59.2669 47.0195 59.1921 46.9746 59.0723 46.8848C58.9674 46.7949 58.5632 46.488 57.8594 45.9639C57.1706 45.4548 56.2721 44.6986 55.1641 43.6953C54.071 42.707 53.1576 41.7562 52.4238 40.8428C50.6419 42.6846 48.9424 44.0622 47.3252 44.9756C45.723 45.904 44.4202 46.5104 43.417 46.7949L42.3389 47.1094C42.1891 47.1543 42.0993 47.1243 42.0693 47.0195C42.0394 46.9297 42.0319 46.8623 42.0469 46.8174C42.0469 46.6826 42.0768 46.5928 42.1367 46.5479L43.417 45.874C45.3936 44.8258 46.9733 43.6354 48.1562 42.3027C49.3542 40.985 50.3574 39.7572 51.166 38.6191C50.2077 36.8223 49.5488 35.1003 49.1895 33.4531C48.8301 31.806 48.5605 30.4658 48.3809 29.4326C48.2161 28.3994 48.1038 27.6357 48.0439 27.1416C47.984 26.6325 47.9316 26.2132 47.8867 25.8838H46.0225C45.7529 25.8838 45.5957 25.6816 45.5508 25.2773C45.5208 24.873 45.6781 24.6709 46.0225 24.6709H51.0986V17.7979H46.6064C46.3519 17.7979 46.2171 17.5957 46.2021 17.1914C46.1872 16.7871 46.3219 16.585 46.6064 16.585H51.0986V11.2168L51.0088 7.95996C51.0387 7.88509 51.0687 7.83268 51.0986 7.80273L51.5254 7.9375L54.7822 8.81348C54.932 8.8584 55.0143 8.95573 55.0293 9.10547C55.0443 9.24023 54.9619 9.40495 54.7822 9.59961L53.8389 10.5205V16.585H57.1855L58.4883 14.0693C58.5931 13.8896 58.668 13.8073 58.7129 13.8223C58.7728 13.8223 58.8776 13.9046 59.0273 14.0693L61.251 16.7646C61.3408 16.8844 61.4232 17.0267 61.498 17.1914C61.5729 17.3561 61.6029 17.4984 61.5879 17.6182C61.5879 17.738 61.5205 17.7979 61.3857 17.7979H60.0605H53.8389V24.6709ZM56.04 25.8838H48.4707C48.5156 26.1084 48.5755 26.4229 48.6504 26.8271C48.7402 27.2165 48.9199 27.8978 49.1895 28.8711C49.459 29.8294 49.8184 30.945 50.2676 32.2178C50.7168 33.4756 51.4655 34.8307 52.5137 36.2832C53.2174 34.9505 53.749 33.7751 54.1084 32.7568C54.4827 31.7236 54.8346 30.6081 55.1641 29.4102C55.4935 28.2122 55.7031 27.3887 55.793 26.9395C55.8978 26.4753 55.9801 26.1234 56.04 25.8838ZM38.7676 17.3711V11.8682L38.6104 8.00488C38.6553 7.85514 38.6927 7.77279 38.7227 7.75781C38.7526 7.72786 38.9473 7.77279 39.3066 7.89258L42.1367 8.8584C42.2565 8.90332 42.3314 8.96322 42.3613 9.03809C42.3913 9.09798 42.4062 9.1429 42.4062 9.17285C42.4062 9.18783 42.3538 9.30013 42.249 9.50977L41.373 10.6104V17.3711H42.249L42.9902 15.8438C43.2298 15.3197 43.387 15.0426 43.4619 15.0127C43.5368 14.9827 43.6641 15.0726 43.8438 15.2822L45.3262 17.124C45.7754 17.708 45.985 18.1048 45.9551 18.3145C45.9251 18.5241 45.8128 18.6289 45.6182 18.6289H41.373V25.6592C42.8255 24.9255 43.8512 24.3714 44.4502 23.9971L45.3936 23.4131C45.4535 23.3831 45.5283 23.3757 45.6182 23.3906C45.723 23.3906 45.7754 23.4655 45.7754 23.6152C45.7904 23.75 45.738 23.8773 45.6182 23.9971L45.0342 24.5811C44.585 25.0452 43.3646 26.1608 41.373 27.9277V44.4365C41.373 44.8708 41.1484 45.32 40.6992 45.7842C40.265 46.2484 39.696 46.6152 38.9922 46.8848C38.3034 47.1693 37.9141 47.2441 37.8242 47.1094C37.7943 47.0794 37.7718 46.9297 37.7568 46.6602C37.7568 46.4056 37.6595 45.9639 37.4648 45.335C37.2702 44.721 36.8359 44.2269 36.1621 43.8525L35.3984 43.4482C35.3086 43.4033 35.2412 43.3285 35.1963 43.2236C35.1514 43.1338 35.1289 43.0215 35.1289 42.8867C35.1439 42.752 35.2337 42.6921 35.3984 42.707L36.1621 42.7969C36.5514 42.8568 37.1729 42.8717 38.0264 42.8418C38.5205 42.8418 38.7676 42.5423 38.7676 41.9434V30.2861C38.513 30.5257 38.3258 30.6979 38.2061 30.8027L37.1055 31.7686C37.0605 31.8285 36.7461 32.1354 36.1621 32.6895L35.5332 33.2959L35.0615 33.8125C35.0016 33.8574 34.9417 33.8424 34.8818 33.7676L34.6123 32.8467L33.7812 29.9941C33.6315 29.515 33.5566 29.2529 33.5566 29.208C33.5566 29.1631 33.6839 29.0882 33.9385 28.9834L34.8145 28.6689C35.7129 28.3545 37.0306 27.7855 38.7676 26.9619V18.6289H33.8711C33.6165 18.6289 33.4668 18.4193 33.4219 18C33.377 17.5807 33.5267 17.3711 33.8711 17.3711H38.7676ZM75.5361 22.1104H78.6582L79.4219 20.8076C79.5716 20.5381 79.6914 20.4033 79.7812 20.4033C79.8711 20.3883 80.0283 20.4932 80.2529 20.7178L82.2744 22.7842C82.529 23.0537 82.6562 23.2783 82.6562 23.458C82.6413 23.5628 82.5365 23.7201 82.3418 23.9297L81.668 24.626C81.623 25.8089 81.5781 26.8721 81.5332 27.8154C81.5033 28.7438 81.4434 29.762 81.3535 30.8701C81.2637 31.9782 81.054 32.929 80.7246 33.7227C80.3952 34.5013 79.8561 35.0853 79.1074 35.4746C78.3737 35.849 77.7523 36.0286 77.2432 36.0137C77.1383 36.0137 77.0635 35.9987 77.0186 35.9688C76.9886 35.9238 76.9587 35.8639 76.9287 35.7891C76.9137 35.6992 76.8688 35.4596 76.7939 35.0703C76.734 34.666 76.5993 34.2393 76.3896 33.79C76.195 33.3408 75.9479 32.9964 75.6484 32.7568L74.7725 32.1055C74.5628 31.9557 74.4655 31.7985 74.4805 31.6338C74.4805 31.5439 74.5179 31.4766 74.5928 31.4316C74.6826 31.3717 74.7799 31.3493 74.8848 31.3643L76.0752 31.7012C76.5394 31.8359 76.9811 31.9033 77.4004 31.9033C77.8945 31.9183 78.2165 31.776 78.3662 31.4766C78.516 31.1621 78.6208 30.7878 78.6807 30.3535C78.7406 29.9043 78.8005 29.1631 78.8604 28.1299C78.9202 27.0817 78.9577 26.1908 78.9727 25.457C79.0026 24.7083 79.0176 24.1618 79.0176 23.8174V23.3232H72.7061V39.3604C72.7061 40.124 72.7135 40.5882 72.7285 40.7529C72.7435 40.9176 72.8184 41.0824 72.9531 41.2471C73.0879 41.4118 73.4772 41.5615 74.1211 41.6963C74.765 41.846 75.5736 41.9134 76.5469 41.8984C78.4785 41.8835 79.654 41.6214 80.0732 41.1123C80.4925 40.6032 80.8145 40.0941 81.0391 39.585C81.2637 39.0609 81.4434 38.5592 81.5781 38.0801L82.3193 35.3174C82.3942 35.0179 82.484 34.8757 82.5889 34.8906C82.6937 34.8906 82.7686 34.9355 82.8135 35.0254C82.8734 35.1003 82.9033 35.1826 82.9033 35.2725L82.8809 35.3623L82.4766 38.5967C82.4167 38.971 82.3867 39.3454 82.3867 39.7197C82.4017 40.0791 82.4616 40.3636 82.5664 40.5732C82.6712 40.7679 82.8285 41.0449 83.0381 41.4043C83.2627 41.7786 83.375 42.1156 83.375 42.415C83.36 42.8193 83.1729 43.291 82.8135 43.8301C82.4541 44.3841 81.7653 44.8034 80.7471 45.0879C79.7438 45.3874 78.3363 45.5221 76.5244 45.4922C75.2217 45.4772 74.0762 45.32 73.0879 45.0205C72.0996 44.721 71.4258 44.3991 71.0664 44.0547C70.707 43.7103 70.4749 43.3809 70.3701 43.0664C70.2803 42.752 70.2054 42.4076 70.1455 42.0332C70.1006 41.6589 70.0781 41.2171 70.0781 40.708V21.0771C68.2812 22.9788 67.3678 23.9447 67.3379 23.9746L66.3271 24.9404C66.2223 25.0452 66.1175 25.0977 66.0127 25.0977C65.9229 25.0827 65.8704 25.0527 65.8555 25.0078C65.8555 24.9629 65.8555 24.9105 65.8555 24.8506V24.7383C65.8555 24.6634 65.9079 24.5511 66.0127 24.4014L66.8662 23.1436C67.8695 21.6611 68.9551 19.7669 70.123 17.4609C71.306 15.1549 72.0771 13.5902 72.4365 12.7666C72.8109 11.9281 73.1852 10.9922 73.5596 9.95898L74.2559 7.9375L74.5254 7.06152C74.5853 6.98665 74.6377 6.94922 74.6826 6.94922C74.7425 6.93424 74.8923 6.98665 75.1318 7.10645L78.2314 8.76855C78.486 8.91829 78.6133 9.10547 78.6133 9.33008C78.6283 9.53971 78.5309 9.70443 78.3213 9.82422L77.4229 10.3857L76.6592 11.3291C77.9769 11.8831 79.2197 12.5195 80.3877 13.2383C81.5706 13.9421 82.514 14.833 83.2178 15.9111C83.9215 16.9893 84.2585 18.0674 84.2285 19.1455C84.2135 19.6846 84.0788 20.2311 83.8242 20.7852C83.5697 21.3392 83.1878 21.6087 82.6787 21.5938C82.3343 21.5938 82.0124 21.3916 81.7129 20.9873C81.4134 20.568 81.099 19.8717 80.7695 18.8984C80.4401 17.9102 80.1481 17.139 79.8936 16.585C79.654 16.0309 79.2422 15.3421 78.6582 14.5186C78.0892 13.695 77.3031 12.8115 76.2998 11.8682C76.1501 12.0628 75.4912 13.0661 74.3232 14.8779C73.1553 16.6898 71.9049 18.5166 70.5723 20.3584C71.3359 20.8825 72.1071 21.459 72.8857 22.0879L75.5361 22.1104ZM87.9795 15.3496V30.7129L88.1816 36.5977C88.1367 36.8971 88.0693 37.1292 87.9795 37.2939C87.9046 37.4437 87.6501 37.6084 87.2158 37.7881C86.7816 37.9678 86.4447 38.0426 86.2051 38.0127C85.7858 37.9977 85.5013 37.7656 85.3516 37.3164L85.5537 30.8926V17.0117L85.3066 12.2275C85.3815 12.1976 85.4414 12.1901 85.4863 12.2051C85.5312 12.2051 85.7484 12.2725 86.1377 12.4072L88.7656 13.3955C88.9603 13.4854 89.0576 13.6276 89.0576 13.8223C89.0426 13.957 88.9528 14.1292 88.7881 14.3389L87.9795 15.3496ZM91.5283 41.8086V14.249C91.5283 10.236 91.5059 8.22949 91.4609 8.22949C91.416 8.21452 91.5807 8.27441 91.9551 8.40918L94.9873 9.59961C95.1071 9.65951 95.1969 9.73438 95.2568 9.82422C95.3317 9.91406 95.3691 10.0189 95.3691 10.1387C95.3691 10.2585 95.2269 10.4831 94.9424 10.8125L94.1113 11.7783V44.9307C94.1113 45.2301 94.029 45.627 93.8643 46.1211C93.6995 46.6152 93.2279 47.057 92.4492 47.4463C91.6706 47.8356 91.1315 48.0527 90.832 48.0977C90.5475 48.1576 90.3828 48.1501 90.3379 48.0752C90.3229 48.0602 90.3079 48.0153 90.293 47.9404C90.278 47.8805 90.2406 47.626 90.1807 47.1768C90.1357 46.7275 90.0085 46.3158 89.7988 45.9414C89.6042 45.5671 89.3421 45.2376 89.0127 44.9531C88.6982 44.6686 88.4062 44.4665 88.1367 44.3467L87.0811 43.8975C86.8714 43.8226 86.7741 43.6878 86.7891 43.4932C86.7891 43.4183 86.819 43.3434 86.8789 43.2686C86.9538 43.1937 87.0586 43.1562 87.1934 43.1562L88.4062 43.2461C89.5592 43.3359 90.2181 43.3809 90.3828 43.3809C90.6823 43.3958 90.9443 43.321 91.1689 43.1562C91.4085 42.9915 91.5283 42.5423 91.5283 41.8086ZM109.699 13.665L110.508 12.0928C110.807 11.5088 110.979 11.2243 111.024 11.2393C111.084 11.2393 111.309 11.4788 111.698 11.958L113.113 13.7549C113.398 14.1442 113.54 14.3913 113.54 14.4961C113.54 14.5859 113.495 14.6683 113.405 14.7432C113.33 14.818 113.233 14.8555 113.113 14.8555H110.283V14.9004H108.756L111.294 16.832C111.534 17.0117 111.668 17.139 111.698 17.2139C111.728 17.2738 111.736 17.3636 111.721 17.4834C111.721 17.5882 111.608 17.693 111.384 17.7979L110.508 18.2471C109.549 20.4333 108.808 22.1178 108.284 23.3008H110.171L110.979 21.7959C111.234 21.3317 111.384 21.0846 111.429 21.0547C111.474 21.0098 111.526 21.0173 111.586 21.0771C111.646 21.137 111.796 21.3092 112.035 21.5938L113.405 23.3457C113.735 23.7799 113.899 24.057 113.899 24.1768C113.899 24.2666 113.854 24.3564 113.765 24.4463C113.675 24.5212 113.555 24.5586 113.405 24.5586H108.239C108.164 24.6484 108.104 24.7308 108.06 24.8057C108.015 24.8805 107.88 25.0078 107.655 25.1875V29.8818H109.115L110.126 28.1299C110.306 27.8154 110.433 27.6582 110.508 27.6582C110.583 27.6432 110.792 27.8454 111.137 28.2646L112.799 30.376C112.934 30.5557 113.001 30.7054 113.001 30.8252C113.001 30.915 112.964 30.9974 112.889 31.0723C112.829 31.1322 112.761 31.1621 112.687 31.1621H107.655V43.0439C107.655 43.6878 107.558 44.2044 107.363 44.5938C107.184 44.998 106.951 45.2826 106.667 45.4473C106.382 45.627 105.971 45.8366 105.432 46.0762C104.893 46.3158 104.533 46.4206 104.354 46.3906C104.294 46.3906 104.241 46.3757 104.196 46.3457C104.166 46.3158 104.144 46.2559 104.129 46.166C104.114 46.0762 104.099 45.904 104.084 45.6494C104.069 45.3949 104.009 45.0205 103.904 44.5264C103.814 44.0472 103.478 43.613 102.894 43.2236L102.04 42.6621C101.845 42.5423 101.748 42.3851 101.748 42.1904C101.748 41.9808 101.868 41.8835 102.107 41.8984L103.096 42.0332C103.32 42.0781 103.515 42.1081 103.68 42.123C103.859 42.153 103.987 42.168 104.062 42.168H104.556C104.945 42.2129 105.14 42.0632 105.14 41.7188V31.1621H99.2998L99.0752 31.0723C98.8955 30.9076 98.7832 30.668 98.7383 30.3535C98.7083 30.0391 98.8656 29.8818 99.21 29.8818H105.14V24.5586H98.873L98.6934 24.5137C98.6035 24.4688 98.5286 24.4163 98.4688 24.3564C98.4089 24.2816 98.3714 24.0869 98.3564 23.7725C98.3415 23.458 98.4912 23.3008 98.8057 23.3008H107.094C107.333 22.2826 107.595 20.9723 107.88 19.3701C108.164 17.7529 108.337 16.6598 108.396 16.0908L108.531 14.9004H99.4346C99.18 14.9004 99.0303 14.6982 98.9854 14.2939C98.9404 13.8747 99.0902 13.665 99.4346 13.665H109.699ZM116.819 22.4922H123.019L123.805 20.875C124.104 20.2611 124.276 19.9391 124.321 19.9092C124.366 19.8643 124.426 19.8717 124.501 19.9316C124.576 19.9915 124.808 20.2611 125.197 20.7402L126.747 22.7617C126.897 22.9714 126.987 23.1136 127.017 23.1885C127.047 23.2484 127.062 23.3083 127.062 23.3682C127.047 23.6077 126.942 23.7275 126.747 23.7275H123.198C123.078 23.9671 122.981 24.1243 122.906 24.1992C122.831 24.2591 122.727 24.319 122.592 24.3789V43.6279L122.682 46.4355C122.562 46.9746 122.3 47.349 121.896 47.5586C121.491 47.7832 121.117 47.888 120.772 47.873C120.368 47.873 120.106 47.7832 119.986 47.6035C119.882 47.4238 119.814 47.2067 119.784 46.9521L119.919 42.3477V23.7275H116.819C116.759 25.6891 116.7 27.4186 116.64 28.916C116.595 30.3984 116.49 31.7461 116.325 32.959C116.175 34.1719 115.846 35.6318 115.337 37.3389C114.828 39.0459 114.072 40.5583 113.068 41.876C112.08 43.2087 111.279 44.2119 110.665 44.8857C110.066 45.5745 109.609 46.0462 109.295 46.3008L108.599 46.8623C108.464 46.9671 108.352 47.012 108.262 46.9971C108.187 46.9971 108.134 46.9746 108.104 46.9297C108.09 46.8848 108.082 46.8398 108.082 46.7949C108.082 46.75 108.082 46.6901 108.082 46.6152C108.097 46.5553 108.164 46.4505 108.284 46.3008L108.868 45.6045C110.276 43.9124 111.391 42.1156 112.215 40.2139C113.053 38.3122 113.577 36.3281 113.787 34.2617C113.997 32.1803 114.132 30.2637 114.191 28.5117C114.251 26.7448 114.289 24.6185 114.304 22.1328C114.304 20.5306 114.274 18.9434 114.214 17.3711C114.169 15.7988 114.146 14.9303 114.146 14.7656V13.8447L113.944 10.6777C113.989 10.6478 114.019 10.6253 114.034 10.6104C114.064 10.5954 114.311 10.7526 114.775 11.082L117.021 12.6992C118.863 11.681 120.346 10.6777 121.469 9.68945L122.232 9.01562L122.749 8.40918C122.824 8.37923 122.899 8.37923 122.974 8.40918L123.535 9.15039L125.332 11.2168C125.646 11.5911 125.804 11.8382 125.804 11.958C125.804 12.1377 125.699 12.2425 125.489 12.2725L124.523 12.4297L120.278 13.2832L116.887 13.8447C116.872 15.5068 116.864 16.7422 116.864 17.5508L116.842 20.0215L116.819 22.4922ZM103.388 35.0703C102.864 36.3431 102.489 37.2191 102.265 37.6982C102.055 38.1624 101.591 39.0833 100.872 40.4609C100.168 41.8236 99.7041 42.6696 99.4795 42.999L98.8057 44.0098C98.6709 44.2044 98.5661 44.3018 98.4912 44.3018C98.4613 44.3167 98.4313 44.3092 98.4014 44.2793C98.3864 44.2493 98.3789 44.1745 98.3789 44.0547C98.3789 43.9499 98.4089 43.7926 98.4688 43.583L98.8057 42.6172C98.8656 42.4674 99.0153 41.9808 99.2549 41.1572C99.5094 40.3337 99.6667 39.8021 99.7266 39.5625C99.7865 39.3229 99.9587 38.6191 100.243 37.4512C100.528 36.2682 100.715 35.3848 100.805 34.8008L100.984 33.4082L101.074 32.3525C101.104 32.2926 101.134 32.2477 101.164 32.2178L101.591 32.5098L103.792 33.9248C104.032 34.0895 104.151 34.2243 104.151 34.3291C104.151 34.374 104.129 34.4414 104.084 34.5312C104.039 34.6211 103.994 34.681 103.949 34.7109L103.388 35.0703ZM101.815 17.416L101.523 16.6523C101.493 16.6224 101.479 16.5625 101.479 16.4727C101.479 16.3678 101.479 16.3005 101.479 16.2705C101.508 16.1208 101.576 16.0459 101.681 16.0459C101.815 16.0609 102.392 16.5251 103.41 17.4385C104.428 18.3519 104.923 19.4899 104.893 20.8525C104.863 21.4215 104.705 21.9531 104.421 22.4473C104.136 22.9264 103.755 23.166 103.275 23.166C102.646 23.181 102.295 22.9189 102.22 22.3799C102.145 21.8408 102.107 21.3392 102.107 20.875C102.122 20.3958 102.13 20.014 102.13 19.7295C102.115 18.6813 102.01 17.9102 101.815 17.416ZM103.522 8.09473L103.163 7.55566C103.118 7.48079 103.088 7.40592 103.073 7.33105C103.073 7.25618 103.081 7.19629 103.096 7.15137C103.141 7.04655 103.223 6.98665 103.343 6.97168C103.433 6.97168 103.762 7.06152 104.331 7.24121C104.915 7.4209 105.559 7.72786 106.263 8.16211C106.966 8.58138 107.371 9.16536 107.476 9.91406C107.595 10.6478 107.655 11.0895 107.655 11.2393C107.655 11.374 107.633 11.5537 107.588 11.7783C107.498 12.1676 107.326 12.5719 107.071 12.9912C106.817 13.3955 106.435 13.5902 105.926 13.5752C105.402 13.5752 105.035 13.3955 104.825 13.0361C104.616 12.6618 104.488 12.2425 104.443 11.7783L104.309 10.3408C104.279 9.98145 104.219 9.64453 104.129 9.33008C104.039 9.01562 103.837 8.60384 103.522 8.09473ZM108.913 34.5312L108.666 34.0146C108.516 33.7451 108.456 33.5505 108.486 33.4307C108.531 33.3109 108.554 33.2435 108.554 33.2285C108.569 33.2135 108.606 33.1986 108.666 33.1836C108.876 33.1836 109.34 33.513 110.059 34.1719C110.792 34.8158 111.339 35.4596 111.698 36.1035C112.073 36.7324 112.252 37.3913 112.237 38.0801C112.222 38.6042 112.08 39.0983 111.811 39.5625C111.556 40.0267 111.204 40.2588 110.755 40.2588C110.261 40.2738 109.946 40.0716 109.812 39.6523C109.677 39.2181 109.609 38.7764 109.609 38.3271L109.564 36.957C109.505 36.0586 109.287 35.25 108.913 34.5312Z" fill="white"/>
<path d="M4.62 71.1338V75.4878H3.724V71.1338H4.62ZM2.142 71.6518V75.1658H1.316V71.6518H2.142ZM7.49 72.8978C7.10733 73.5698 6.678 74.1438 6.202 74.6198L5.558 74.0318C5.978 73.6211 6.33733 73.1638 6.636 72.6598C6.93467 72.1464 7.18667 71.5864 7.392 70.9798L8.176 71.1758C8.12933 71.3438 8.078 71.5024 8.022 71.6518C7.97533 71.8011 7.924 71.9504 7.868 72.0998H11.522V72.8978H7.49ZM8.722 73.3318C9.086 73.5558 9.43133 73.8031 9.758 74.0738C10.0847 74.3444 10.402 74.6384 10.71 74.9558L10.164 75.5718C9.86533 75.2264 9.54333 74.9138 9.198 74.6338C8.85267 74.3538 8.498 74.0924 8.134 73.8498L8.722 73.3318ZM3.22 77.1118C2.884 77.2424 2.548 77.3684 2.212 77.4898C1.876 77.6018 1.52133 77.7138 1.148 77.8258L0.686 77.0838C2.90733 76.4584 4.634 75.6464 5.866 74.6478H6.594C7.61133 75.5624 9.32867 76.3604 11.746 77.0418L11.27 77.8258C10.8967 77.7044 10.542 77.5878 10.206 77.4758C9.87933 77.3638 9.55733 77.2424 9.24 77.1118V77.6438H6.664V78.6518H10.948V79.4358H6.664V81.2558H8.134C8.274 80.9944 8.4 80.7284 8.512 80.4578C8.624 80.1871 8.73133 79.8978 8.834 79.5898L9.73 79.9118C9.51533 80.4064 9.28667 80.8544 9.044 81.2558H11.326V82.0538H1.078V81.2558H3.318C3.234 81.0318 3.14067 80.8124 3.038 80.5978C2.94467 80.3831 2.83733 80.1684 2.716 79.9538L3.57 79.6458C3.682 79.8604 3.78933 80.1078 3.892 80.3878C3.99467 80.6584 4.102 80.9478 4.214 81.2558H5.754V79.4358H1.428V78.6518H5.754V77.6438H3.22V77.1118ZM8.75 76.9018C7.714 76.4444 6.874 75.9358 6.23 75.3758C5.85667 75.6651 5.46467 75.9404 5.054 76.2018C4.64333 76.4538 4.19533 76.6871 3.71 76.9018H8.75ZM21.7661 74.1018V76.3838H15.4661V74.1018H21.7661ZM20.8841 74.7598H16.3621V75.7258H20.8841V74.7598ZM19.0921 70.9938V72.4778H20.5481C20.6881 72.2538 20.8187 72.0298 20.9401 71.8058C21.0614 71.5724 21.1734 71.3344 21.2761 71.0918L22.1581 71.3998C22.0554 71.5958 21.9481 71.7871 21.8361 71.9738C21.7334 72.1511 21.6261 72.3191 21.5141 72.4778H23.7821V74.9558H22.8861V73.2618H14.3181V74.9978H13.4361V72.4778H15.7461C15.6527 72.2911 15.5454 72.1091 15.4241 71.9318C15.3121 71.7544 15.1907 71.5818 15.0601 71.4138L15.9141 71.1058C16.0541 71.3018 16.1894 71.5164 16.3201 71.7498C16.4507 71.9738 16.5767 72.2164 16.6981 72.4778H18.1541V70.9938H19.0921ZM22.4941 80.4158H21.5841V77.8958H15.6481V80.5558H14.7661V77.0978H22.4941V80.4158ZM19.3301 80.3178C20.1607 80.5044 20.9494 80.7191 21.6961 80.9618C22.4427 81.1951 23.1474 81.4471 23.8101 81.7178L23.3061 82.4878C21.8874 81.8531 20.4221 81.3584 18.9101 81.0038L19.3301 80.3178ZM19.1761 78.4558C18.9987 79.8558 18.6161 80.7938 18.0281 81.2698C17.3841 81.8764 15.9467 82.2544 13.7161 82.4038L13.3521 81.6058C15.3401 81.5124 16.6467 81.2231 17.2721 80.7378C17.8507 80.2711 18.1867 79.4824 18.2801 78.3718L19.1761 78.4558ZM27.0401 73.4438V71.0078H27.8941V73.4438H29.1261V74.1438C29.4901 73.7238 29.8261 73.2478 30.1341 72.7158C30.4421 72.1838 30.7128 71.5864 30.9461 70.9238L31.8281 71.1058C31.7721 71.2551 31.7161 71.4044 31.6601 71.5538C31.6041 71.7031 31.5435 71.8478 31.4781 71.9878H36.4481V72.8278H31.0861C30.9835 73.0051 30.8808 73.1778 30.7781 73.3458C30.6848 73.5138 30.5868 73.6818 30.4841 73.8498H35.9861L35.8881 76.7618H36.7841V77.5878H35.8461C35.8275 78.0638 35.8088 78.4884 35.7901 78.8618C35.7808 79.2258 35.7668 79.5478 35.7481 79.8278H36.6161V80.5978H35.7061C35.6781 80.9058 35.6455 81.1111 35.6081 81.2138C35.4961 81.6151 35.2815 81.9138 34.9641 82.1098C34.6935 82.2778 34.2455 82.3618 33.6201 82.3618C33.4895 82.3618 33.3448 82.3618 33.1861 82.3618C33.0275 82.3711 32.8641 82.3758 32.6961 82.3758L32.4161 81.5638C32.6215 81.5731 32.8128 81.5824 32.9901 81.5918C33.1768 81.6011 33.3495 81.6058 33.5081 81.6058C33.6575 81.6058 33.7928 81.5964 33.9141 81.5778C34.0355 81.5591 34.1568 81.5358 34.2781 81.5078C34.5021 81.4144 34.6701 81.2278 34.7821 80.9478C34.7915 80.9104 34.8055 80.7938 34.8241 80.5978H29.6301C29.7235 80.0938 29.8028 79.5944 29.8681 79.0998C29.9428 78.6051 30.0128 78.1011 30.0781 77.5878H29.2661V77.4198L28.8881 77.9798C28.7108 77.5691 28.5381 77.2051 28.3701 76.8878C28.2115 76.5704 28.0528 76.2811 27.8941 76.0198V82.3478H27.0401V76.2438C26.8535 76.8224 26.6435 77.3731 26.4101 77.8958C26.1861 78.4184 25.9341 78.9224 25.6541 79.4078L25.2761 78.4418C25.6868 77.8351 26.0321 77.1864 26.3121 76.4958C26.6015 75.8051 26.8348 75.0724 27.0121 74.2978H25.5001V73.4438H27.0401ZM30.9321 77.5878C30.8855 77.9984 30.8341 78.3904 30.7781 78.7638C30.7315 79.1371 30.6755 79.4918 30.6101 79.8278H34.9081C34.9268 79.5478 34.9408 79.2258 34.9501 78.8618C34.9595 78.4884 34.9735 78.0638 34.9921 77.5878H30.9321ZM35.0341 76.7618C35.0528 76.4351 35.0621 76.0944 35.0621 75.7398C35.0715 75.3758 35.0855 75.0071 35.1041 74.6338H31.1141C31.0955 74.9978 31.0768 75.3618 31.0581 75.7258C31.0395 76.0804 31.0208 76.4258 31.0021 76.7618H35.0341ZM30.1481 76.7618C30.1948 76.3138 30.2275 75.8658 30.2461 75.4178C30.2741 74.9698 30.2975 74.5171 30.3161 74.0598C30.2041 74.2184 30.0921 74.3631 29.9801 74.4938C29.8775 74.6244 29.7655 74.7504 29.6441 74.8718L29.1261 74.2418V74.2978H27.8941V75.0538C28.1088 75.3524 28.3281 75.6698 28.5521 76.0058C28.7761 76.3324 29.0141 76.6778 29.2661 77.0418V76.7618H30.1481ZM32.5001 74.8718C32.7895 75.0771 33.0555 75.2824 33.2981 75.4878C33.5408 75.6931 33.7648 75.8984 33.9701 76.1038L33.4241 76.6498C33.0601 76.2671 32.5748 75.8518 31.9681 75.4038L32.5001 74.8718ZM32.3601 77.7418C32.6495 77.9658 32.9108 78.1898 33.1441 78.4138C33.3868 78.6284 33.6061 78.8524 33.8021 79.0858L33.2281 79.6458C33.0508 79.4311 32.8455 79.2118 32.6121 78.9878C32.3881 78.7638 32.1221 78.5351 31.8141 78.3018L32.3601 77.7418ZM45.9922 77.5458C45.5815 77.2564 45.2642 76.9811 45.0402 76.7198H41.8342C41.5449 77.0278 41.2275 77.3031 40.8822 77.5458H45.9922ZM45.9502 76.7198C46.6502 77.2611 47.6629 77.6904 48.9882 78.0078L48.6242 78.7638C48.2975 78.6611 47.9802 78.5491 47.6722 78.4278C47.3735 78.3064 47.1029 78.1851 46.8602 78.0638V80.4578H45.9922V78.2738H41.0222V80.4578H40.1542V77.9938C39.8835 78.1431 39.5942 78.2831 39.2862 78.4138C38.9782 78.5444 38.6562 78.6704 38.3202 78.7918L37.8722 78.0358C39.2162 77.6904 40.2242 77.2518 40.8962 76.7198H38.2082V75.9918H41.5682V75.2638H39.9862V74.6058H41.5682V73.8498H39.7482V73.1778H41.5682V72.4638H39.2862V73.7238H38.4042V71.7218H43.0382C42.9729 71.5911 42.8982 71.4698 42.8142 71.3578C42.7302 71.2364 42.6462 71.1244 42.5622 71.0218L43.5002 70.8538C43.5935 70.9844 43.6729 71.1198 43.7382 71.2598C43.8129 71.3998 43.8875 71.5538 43.9622 71.7218H48.4842V73.7238H47.6302V72.4638H45.3062V73.1778H47.1542V73.8498H45.3062V74.6058H46.9162V75.2638H45.3062V75.9918H48.7362V76.7198H45.9502ZM42.4502 72.4638V73.1778H44.4382V72.4638H42.4502ZM44.4382 75.9918V75.2638H42.4502V75.9918H44.4382ZM44.4382 73.8498H42.4502V74.6058H44.4382V73.8498ZM44.2562 80.2898C45.5909 80.6911 46.8415 81.1811 48.0082 81.7598L47.5462 82.4738C46.9489 82.1564 46.3375 81.8671 45.7122 81.6058C45.0869 81.3444 44.4522 81.1204 43.8082 80.9338L44.2562 80.2898ZM43.7942 78.7358C43.6449 80.0611 43.3229 80.9431 42.8282 81.3818C42.2869 81.9418 41.0455 82.2964 39.1042 82.4458L38.7682 81.6898C40.4482 81.6151 41.5589 81.3444 42.1002 80.8778C42.6042 80.4391 42.8935 79.7018 42.9682 78.6658L43.7942 78.7358ZM57.9863 71.0778C57.9676 71.2271 57.9536 71.3671 57.9443 71.4978C57.9349 71.6284 57.9209 71.7591 57.9023 71.8898H61.1363V72.6738H57.7903C57.7529 72.8324 57.7203 72.9911 57.6923 73.1498C57.6643 73.2991 57.6363 73.4484 57.6083 73.5978H60.8283V76.5798H54.3183V73.5978H56.7403C56.7869 73.4391 56.8196 73.2851 56.8383 73.1358C56.8663 72.9771 56.8896 72.8231 56.9083 72.6738H54.0103V71.8898H57.0203C57.0389 71.7311 57.0576 71.5724 57.0763 71.4138C57.0949 71.2458 57.1183 71.0918 57.1463 70.9518L57.9863 71.0778ZM61.0803 77.4198V78.2458H54.0383V77.4198H61.0803ZM60.0583 74.3538H58.8403V75.8238H60.0583V74.3538ZM58.1403 74.3538H56.9923V75.8238H58.1403V74.3538ZM56.2783 74.3538H55.0883V75.8238H56.2783V74.3538ZM53.5483 71.3158C52.8949 72.6971 51.8636 73.9244 50.4543 74.9978L50.1883 74.1158C51.3456 73.2104 52.1949 72.1558 52.7363 70.9518L53.5483 71.3158ZM53.8003 74.4798C53.5203 75.0678 53.1609 75.6464 52.7223 76.2158V82.3898H51.8683V77.1678C51.6536 77.3731 51.4343 77.5691 51.2103 77.7558C50.9956 77.9331 50.7623 78.1151 50.5103 78.3018L50.2723 77.4478C51.5416 76.4864 52.4609 75.3758 53.0303 74.1158L53.8003 74.4798ZM60.4923 78.7358C60.7163 79.1464 60.9216 79.5664 61.1083 79.9958C61.2949 80.4158 61.4723 80.8544 61.6403 81.3118L60.8983 81.6478C60.7209 81.1344 60.5343 80.6584 60.3383 80.2198C60.1516 79.7811 59.9509 79.3751 59.7363 79.0018L60.4923 78.7358ZM54.9203 79.1838C54.7056 80.2384 54.3789 81.1764 53.9403 81.9978L53.2123 81.5358C53.6136 80.7984 53.9216 79.9631 54.1363 79.0298L54.9203 79.1838ZM56.6423 82.2918C55.9329 82.2918 55.5783 81.9371 55.5783 81.2278V78.9738H56.4183V81.0318C56.4183 81.3491 56.5769 81.5078 56.8943 81.5078H58.5323C58.7376 81.5078 58.8776 81.4564 58.9523 81.3538C59.0456 81.2418 59.1156 80.8871 59.1623 80.2898L59.9323 80.5558C59.8763 81.3771 59.7456 81.8764 59.5403 82.0538C59.3723 82.2124 59.0876 82.2918 58.6863 82.2918H56.6423ZM57.7623 78.5678C58.0236 78.8478 58.2523 79.1138 58.4483 79.3658C58.6443 79.6178 58.8169 79.8511 58.9663 80.0658L58.3083 80.5278C58.0096 80.0424 57.6176 79.5244 57.1323 78.9738L57.7623 78.5678ZM73.6343 71.9458C73.0743 72.1791 72.491 72.3704 71.8843 72.5198C71.2776 72.6598 70.6383 72.7484 69.9663 72.7858V75.0258H73.8163V75.8798H72.5283V82.3338H71.6463V75.8798H69.9663V76.9018C69.901 79.1511 69.383 80.9664 68.4123 82.3478L67.7963 81.6898C68.6363 80.5418 69.0843 78.9458 69.1403 76.9018V72.0578C70.6523 71.9924 72.015 71.6938 73.2283 71.1618L73.6343 71.9458ZM64.5343 71.0778V72.4358H66.7743V71.0918H67.6423V72.4358H68.4683V73.2338H67.6423V78.4418H68.4543V79.2818H62.7563V78.4418H63.6663V73.2338H62.8543V72.4358H63.6663V71.0778H64.5343ZM66.7743 78.4418V77.2098H64.5343V78.4418H66.7743ZM64.5343 73.2338V74.4798H66.7743V73.2338H64.5343ZM66.7743 76.4398V75.2358H64.5343V76.4398H66.7743ZM66.6063 79.6458C66.8303 79.9444 67.031 80.2291 67.2083 80.4998C67.395 80.7611 67.549 81.0038 67.6703 81.2278L67.0123 81.7038C66.7323 81.1904 66.3823 80.6444 65.9623 80.0658L66.6063 79.6458ZM64.9963 80.0098C64.7536 80.4578 64.497 80.8778 64.2263 81.2698C63.9556 81.6618 63.657 82.0258 63.3303 82.3618L62.5883 81.8438C63.223 81.2371 63.7783 80.4998 64.2543 79.6318L64.9963 80.0098ZM75.0444 78.5538V77.4618H78.4324V78.5538H75.0444ZM84.7921 75.5158V74.0318H85.6461V75.5158H88.5021V76.3138H85.6461V77.8678H84.7921V76.3138H82.0341V75.5158H84.7921ZM84.0781 72.2818C84.1901 72.0671 84.2928 71.8571 84.3861 71.6518C84.4794 71.4464 84.5681 71.2318 84.6521 71.0078L85.5481 71.1198C85.4081 71.5211 85.2494 71.9084 85.0721 72.2818H90.3781V73.1078H86.9761C87.8068 74.1998 89.0948 75.0538 90.8401 75.6698L90.4481 76.4818C88.3668 75.6138 86.8921 74.4891 86.0241 73.1078H84.5821C83.5741 74.5544 82.0761 75.6604 80.0881 76.4258L79.6541 75.6558C81.3528 74.9931 82.6314 74.1438 83.4901 73.1078H80.1021V72.2818H84.0781ZM82.4821 78.5958C82.5101 78.3531 82.5241 78.1058 82.5241 77.8538V77.1818H83.3781V77.8538C83.3781 78.1151 83.3641 78.3624 83.3361 78.5958H87.0321V77.1818H87.9001V78.5958H90.7001V79.4218H87.9001V82.3478H87.0321V79.4218H83.2101C83.1448 79.6924 83.0654 79.9444 82.9721 80.1778C82.8881 80.4111 82.7854 80.6258 82.6641 80.8218C82.2068 81.5311 81.4928 82.0724 80.5221 82.4458L80.0601 81.7178C80.9654 81.3631 81.6048 80.8824 81.9781 80.2758C82.1181 80.0144 82.2301 79.7298 82.3141 79.4218H79.7381V78.5958H82.4821ZM102.736 73.0938C102.736 74.4284 102.722 75.4971 102.694 76.2998C102.666 77.1024 102.629 77.6438 102.582 77.9238C102.479 78.4651 102.055 78.7358 101.308 78.7358H101.238L100.986 77.9238C101.089 77.9238 101.177 77.9284 101.252 77.9378C101.327 77.9471 101.406 77.9518 101.49 77.9518C101.667 77.9518 101.784 77.7978 101.84 77.4898C101.859 77.3311 101.877 76.9858 101.896 76.4538C101.915 75.9218 101.924 75.1844 101.924 74.2418L100.524 74.6618V79.7718H99.6842V74.9418L98.3822 75.3338V80.8498C98.3822 81.2044 98.5688 81.3818 98.9422 81.3818H101.658C101.938 81.3818 102.139 81.2931 102.26 81.1158C102.4 80.9104 102.503 80.2851 102.568 79.2398L103.366 79.4918C103.263 80.7798 103.095 81.5638 102.862 81.8438C102.638 82.0864 102.293 82.2078 101.826 82.2078H98.6622C97.9155 82.2078 97.5422 81.8111 97.5422 81.0178V75.5858L96.5902 75.8798V75.0118L97.5422 74.7178V72.1838H98.3822V74.4518L99.6842 74.0458V71.0498H100.524V73.7798L102.736 73.0938ZM92.0962 72.4078V71.5678H96.1142L95.5262 76.6778H96.4502C96.4502 78.1058 96.4128 79.2258 96.3382 80.0378C96.2728 80.8498 96.1842 81.3631 96.0722 81.5778C95.8108 82.0071 95.2742 82.2218 94.4622 82.2218C94.3128 82.2218 94.1542 82.2218 93.9862 82.2218C93.8275 82.2218 93.6642 82.2124 93.4962 82.1938L93.2582 81.3958C93.5008 81.4144 93.7062 81.4331 93.8742 81.4518C94.0422 81.4611 94.1775 81.4658 94.2802 81.4658C94.9055 81.4658 95.2835 81.2791 95.4142 80.9058C95.5262 80.4858 95.5822 79.3518 95.5822 77.5038H92.2922L92.8662 73.2758L93.6922 73.3178L93.2022 76.6778H94.6582L95.2042 72.4078H92.0962ZM94.9382 79.4218C94.0608 79.6924 93.0388 79.9211 91.8722 80.1078L91.7602 79.2398C92.3668 79.1558 92.9362 79.0624 93.4682 78.9598C94.0002 78.8571 94.4902 78.7404 94.9382 78.6098V79.4218ZM108.836 81.6058H107.968V80.9058H105.714V81.9838H104.846V73.1638H106.008C106.242 72.4731 106.414 71.7498 106.526 70.9938L107.436 71.1198C107.352 71.4931 107.264 71.8478 107.17 72.1838C107.077 72.5198 106.965 72.8464 106.834 73.1638H108.836V81.6058ZM107.968 80.0798V77.3638H105.714V80.0798H107.968ZM107.968 76.5518V74.0038H105.714V76.5518H107.968ZM111.006 76.0478C111.454 76.5518 111.842 77.0324 112.168 77.4898C112.504 77.9471 112.789 78.3624 113.022 78.7358L112.322 79.2398C111.8 78.4091 111.118 77.4898 110.278 76.4818L111.006 76.0478ZM115.248 73.1778C115.248 77.3031 115.188 79.8464 115.066 80.8078C114.936 81.7598 114.357 82.2358 113.33 82.2358C113.078 82.2358 112.658 82.2218 112.07 82.1938L111.846 81.3678C112.117 81.3864 112.364 81.3958 112.588 81.3958C112.812 81.3958 113.022 81.3958 113.218 81.3958C113.788 81.3958 114.124 81.0831 114.226 80.4578C114.264 80.1031 114.292 79.3938 114.31 78.3298C114.338 77.2658 114.362 75.8331 114.38 74.0318H110.978C110.614 74.8158 110.194 75.5204 109.718 76.1458L109.2 75.4458C109.639 74.8391 109.998 74.1624 110.278 73.4158C110.568 72.6691 110.801 71.8571 110.978 70.9798L111.846 71.0918C111.762 71.4651 111.678 71.8244 111.594 72.1698C111.51 72.5058 111.417 72.8418 111.314 73.1778H115.248ZM120.256 72.2538C120.07 71.8151 119.869 71.4324 119.654 71.1058L120.606 70.9658C120.7 71.1618 120.793 71.3671 120.886 71.5818C120.989 71.7871 121.087 72.0111 121.18 72.2538H123.77C123.994 71.8338 124.153 71.3951 124.246 70.9378L125.212 71.0498C125.072 71.4978 124.904 71.8991 124.708 72.2538H127.466V73.0798H122.902V74.2698H126.808V75.0398H122.902V76.2578H127.872V77.0838H117.022V76.2578H121.992V75.0398H118.128V74.2698H121.992V73.0798H117.414V72.2538H120.256ZM123 77.5038C122.963 77.6531 122.93 77.8071 122.902 77.9658C122.874 78.1244 122.837 78.2691 122.79 78.3998H127.592V79.2398H123.252C124.111 80.3971 125.763 81.1764 128.208 81.5778L127.746 82.4318C125.002 81.8811 123.224 80.8591 122.412 79.3658C122.142 79.8884 121.787 80.3458 121.348 80.7378C120.546 81.4751 119.127 82.0491 117.092 82.4598L116.728 81.5918C118.539 81.2558 119.836 80.7704 120.62 80.1358C120.919 79.8931 121.18 79.5944 121.404 79.2398H117.316V78.3998H121.824C121.936 78.0824 122.016 77.7464 122.062 77.3918L123 77.5038ZM140.104 76.2998H139.222V74.3818H130.5V76.2998H129.618V73.5278H136.73C137.01 73.1264 137.262 72.7111 137.486 72.2818C137.72 71.8524 137.939 71.4044 138.144 70.9378L139.054 71.2738C138.84 71.7124 138.62 72.1184 138.396 72.4918C138.172 72.8651 137.939 73.2104 137.696 73.5278H140.104V76.2998ZM138.214 75.4458V76.2298C137.813 76.4911 137.379 76.7478 136.912 76.9998C136.455 77.2518 135.974 77.4991 135.47 77.7418V78.3858H140.202V79.2398H135.47V81.3398C135.47 82.0024 135.12 82.3338 134.42 82.3338H132.824L132.628 81.5218C132.852 81.5311 133.086 81.5404 133.328 81.5498C133.571 81.5498 133.828 81.5498 134.098 81.5498C134.406 81.5498 134.56 81.3724 134.56 81.0178V79.2398H129.534V78.3858H134.56V77.3638C135.083 77.1304 135.54 76.9204 135.932 76.7338C136.324 76.5471 136.66 76.3791 136.94 76.2298H131.522V75.4458H138.214ZM131.368 71.1198C131.592 71.4184 131.812 71.7311 132.026 72.0578C132.25 72.3751 132.46 72.7064 132.656 73.0518L131.886 73.4718C131.672 73.0984 131.457 72.7484 131.242 72.4218C131.028 72.0951 130.804 71.7918 130.57 71.5118L131.368 71.1198ZM134.392 70.8678C134.607 71.1851 134.808 71.5164 134.994 71.8618C135.181 72.2071 135.372 72.5618 135.568 72.9258L134.77 73.3318C134.406 72.5758 134.014 71.8944 133.594 71.2878L134.392 70.8678ZM142.48 72.5338V71.7638H146.722C146.666 71.6238 146.61 71.4931 146.554 71.3718C146.498 71.2504 146.438 71.1384 146.372 71.0358L147.324 70.8958C147.38 71.0264 147.441 71.1618 147.506 71.3018C147.581 71.4418 147.651 71.5958 147.716 71.7638H152.07V72.5338H150.054L149.564 73.5138H152.658V74.2978H141.878V73.5138H144.86L144.454 72.5338H142.48ZM148.64 73.5138L149.116 72.5338H145.392L145.784 73.5138H148.64ZM151.23 75.0258V78.6938H143.292V75.0258H151.23ZM150.376 77.1958H144.174V78.0078H150.376V77.1958ZM150.376 76.5378V75.7398H144.174V76.5378H150.376ZM143.67 79.4638C143.362 80.4531 142.961 81.3071 142.466 82.0258L141.696 81.5498C142.21 80.8684 142.578 80.1171 142.802 79.2958L143.67 79.4638ZM145.938 82.1938C145.108 82.1938 144.692 81.8064 144.692 81.0318V79.4078H145.602V80.8498C145.602 81.2044 145.803 81.3818 146.204 81.3818H148.808C149.079 81.3818 149.266 81.3304 149.368 81.2278C149.508 81.1158 149.611 80.7424 149.676 80.1078L150.516 80.3878C150.423 81.2371 150.255 81.7551 150.012 81.9418C149.788 82.1098 149.443 82.1938 148.976 82.1938H145.938ZM147.408 78.9458C147.95 79.4778 148.351 79.9491 148.612 80.3598L147.884 80.8638C147.726 80.6398 147.544 80.4064 147.338 80.1638C147.133 79.9211 146.904 79.6738 146.652 79.4218L147.408 78.9458ZM151.3 79.1698C152.028 80.0284 152.57 80.7518 152.924 81.3398L152.182 81.8718C151.79 81.1998 151.254 80.4531 150.572 79.6318L151.3 79.1698ZM162.286 78.7778C162.193 78.8151 162.095 78.8571 161.992 78.9038C161.89 78.9411 161.796 78.9784 161.712 79.0158V80.9758H160.9V79.3098C160.023 79.6271 159.09 79.9118 158.1 80.1638L157.918 79.4078C158.068 79.3704 158.217 79.3378 158.366 79.3098C158.516 79.2818 158.665 79.2398 158.814 79.1838V72.2538H158.142V71.4698H162.272V72.2538H161.712V78.2458L162.286 77.9798V78.7778ZM160.9 76.9718H159.612V78.9878C159.836 78.9131 160.056 78.8431 160.27 78.7778C160.485 78.7031 160.695 78.6284 160.9 78.5538V76.9718ZM160.9 76.2578V74.6758H159.612V76.2578H160.9ZM160.9 73.9618V72.2538H159.612V73.9618H160.9ZM155.888 72.6738V71.0078H156.742V72.6738H158.114V73.4998H156.742V75.3058H158.338V76.1178H157.064V77.8678H158.296V78.6378H157.064V80.9198C157.12 80.9384 157.176 80.9618 157.232 80.9898C157.288 81.0178 157.34 81.0411 157.386 81.0598C158.124 81.3024 159.771 81.4238 162.328 81.4238C163.654 81.4144 164.634 81.4004 165.268 81.3818L165.114 82.2498H162.552C159.519 82.2498 157.629 82.0724 156.882 81.7178C156.229 81.4098 155.66 80.8778 155.174 80.1218C155.006 80.9338 154.801 81.7131 154.558 82.4598L153.9 81.8998C154.395 80.4064 154.666 78.7498 154.712 76.9298L155.44 77.0138C155.422 77.7418 155.375 78.4324 155.3 79.0858C155.599 79.6178 155.916 80.0284 156.252 80.3178V76.1178H154.25V75.3058H155.888V73.4998H154.446V72.6738H155.888ZM165.128 72.3798V72.9818C165.044 74.6618 164.769 76.1411 164.302 77.4198C164.47 77.8958 164.643 78.3718 164.82 78.8478C165.007 79.3238 165.18 79.8044 165.338 80.2898L164.666 80.5978C164.536 80.2244 164.405 79.8511 164.274 79.4778C164.144 79.0951 164.013 78.7311 163.882 78.3858C163.668 78.8244 163.42 79.2304 163.14 79.6038C162.87 79.9771 162.58 80.3364 162.272 80.6818L161.768 80.0938C162.478 79.3191 163.038 78.4091 163.448 77.3638C163.224 76.8224 163 76.3091 162.776 75.8238C162.562 75.3291 162.333 74.8484 162.09 74.3818L162.776 74.1438C162.963 74.4984 163.14 74.8578 163.308 75.2218C163.486 75.5858 163.658 75.9498 163.826 76.3138C163.966 75.8284 164.074 75.3244 164.148 74.8018C164.232 74.2791 164.298 73.7331 164.344 73.1638H162.202V72.3798H165.128ZM170.067 71.0218L169.899 72.6598H176.731V73.5138H169.815L169.591 75.5298H176.717C176.717 78.9271 176.493 80.9058 176.045 81.4658C175.597 81.9791 174.668 82.2358 173.259 82.2358C173.035 82.2358 172.806 82.2311 172.573 82.2218C172.339 82.2218 172.097 82.2171 171.845 82.2078L171.621 81.3818C171.966 81.4004 172.255 81.4191 172.489 81.4378C172.722 81.4471 172.913 81.4518 173.063 81.4518C174.369 81.4518 175.149 81.2138 175.401 80.7378C175.671 80.2431 175.807 78.7918 175.807 76.3838H168.569L169.185 70.9658L170.067 71.0218ZM174.365 78.3858V79.2678H167.127V78.3858H174.365ZM187.549 71.2038C187.418 71.4558 187.283 71.6938 187.143 71.9178C187.012 72.1418 186.867 72.3564 186.709 72.5618H190.055V73.4158H178.953V72.5618H182.355C182.233 72.2911 182.107 72.0438 181.977 71.8198C181.846 71.5864 181.701 71.3624 181.543 71.1478L182.481 70.9938C182.621 71.2271 182.756 71.4744 182.887 71.7358C183.027 71.9878 183.167 72.2631 183.307 72.5618H185.715C186.097 72.0204 186.419 71.4744 186.681 70.9238L187.549 71.2038ZM182.285 82.3198L182.033 81.4238L182.971 81.4658C183.297 81.4658 183.461 81.2604 183.461 80.8498V79.6878H180.703V82.4038H179.835V74.4378H184.343V81.0458C184.343 81.8951 183.983 82.3198 183.265 82.3198H182.285ZM183.461 78.9038V77.4898H180.703V78.9038H183.461ZM183.461 76.6918V75.2778H180.703V76.6918H183.461ZM186.443 82.2918L186.261 81.4098C186.522 81.4378 186.779 81.4611 187.031 81.4798C187.283 81.4891 187.53 81.4938 187.773 81.4938C188.118 81.4938 188.291 81.2978 188.291 80.9058V74.0738H189.201V81.1298C189.201 81.9044 188.832 82.2918 188.095 82.2918H186.443ZM186.597 75.0118V80.3738H185.715V75.0118H186.597ZM201.447 82.3618H200.565V81.8298H196.505V82.3618H195.623V77.0978H201.447V82.3618ZM200.565 80.9478V77.9518H196.505V80.9478H200.565ZM200.761 71.5818V74.8718C200.761 75.1984 200.938 75.3618 201.293 75.3618H202.595V76.2158H201.027C200.261 76.2158 199.879 75.8424 199.879 75.0958V72.4358H197.121C197.121 73.3504 197.004 74.1298 196.771 74.7738C196.463 75.4551 195.977 76.0898 195.315 76.6778L194.615 76.0898C195.287 75.4458 195.73 74.8484 195.945 74.2978C196.159 73.7098 196.267 72.8044 196.267 71.5818H200.761ZM192.445 71.2738C193.369 71.9178 194.129 72.5571 194.727 73.1918L194.083 73.8358C193.803 73.5184 193.471 73.2011 193.089 72.8838C192.715 72.5664 192.286 72.2351 191.801 71.8898L192.445 71.2738ZM191.941 74.2418C192.809 74.8484 193.551 75.4738 194.167 76.1178L193.551 76.7618C193.271 76.4538 192.944 76.1458 192.571 75.8378C192.207 75.5298 191.787 75.2031 191.311 74.8578L191.941 74.2418ZM194.405 77.9238C193.807 79.4824 193.145 80.9478 192.417 82.3198L191.521 81.9278C191.922 81.2278 192.295 80.5184 192.641 79.7998C192.986 79.0718 193.313 78.3391 193.621 77.6018L194.405 77.9238ZM215.079 78.6098L213.805 78.8058V82.3478H212.909V78.9598L209.031 79.5758L208.905 78.7078L212.909 78.0638V71.0498H213.805V77.9238L214.925 77.7278L215.079 78.6098ZM210.081 71.6938C210.538 72.0204 210.949 72.3424 211.313 72.6598C211.677 72.9678 212.013 73.2898 212.321 73.6258L211.733 74.2278C211.163 73.6118 210.398 72.9678 209.437 72.2958L210.081 71.6938ZM209.717 74.5498C210.165 74.8858 210.58 75.2218 210.963 75.5578C211.345 75.8844 211.691 76.2158 211.999 76.5518L211.383 77.1958C210.832 76.5611 210.062 75.8798 209.073 75.1518L209.717 74.5498ZM205.965 74.3538V72.5198C205.666 72.5664 205.363 72.6084 205.055 72.6458C204.747 72.6738 204.429 72.7064 204.103 72.7438L203.935 71.9038C205.549 71.7824 206.982 71.5258 208.233 71.1338L208.541 71.9878C208.009 72.1371 207.444 72.2678 206.847 72.3798V74.3538H208.569V75.2078H206.847V75.8238C207.192 76.1038 207.542 76.4024 207.897 76.7198C208.261 77.0371 208.625 77.3638 208.989 77.6998L208.471 78.4698C208.144 78.0871 207.845 77.7464 207.575 77.4478C207.313 77.1491 207.071 76.8924 206.847 76.6778V82.3478H205.965V76.5518C205.461 77.7838 204.789 78.8898 203.949 79.8698L203.571 78.8618C204.103 78.3298 204.555 77.7604 204.929 77.1538C205.302 76.5471 205.61 75.8984 205.853 75.2078H203.921V74.3538H205.965ZM216.475 82.2498L216.293 81.3958C216.451 81.4144 216.605 81.4331 216.755 81.4518C216.913 81.4611 217.067 81.4658 217.217 81.4658C217.562 81.4658 217.735 81.2791 217.735 80.9058V77.9518C217.483 78.0358 217.231 78.1291 216.979 78.2318C216.736 78.3251 216.479 78.4138 216.209 78.4978L215.985 77.6298C216.283 77.5551 216.577 77.4711 216.867 77.3778C217.156 77.2844 217.445 77.1864 217.735 77.0838V74.1438H216.223V73.2758H217.735V71.0218H218.589V73.2758H219.905V74.1438H218.589V76.7198C218.822 76.5984 219.046 76.4818 219.261 76.3698C219.485 76.2578 219.709 76.1411 219.933 76.0198V76.8878C219.709 77.0184 219.485 77.1398 219.261 77.2518C219.037 77.3544 218.813 77.4618 218.589 77.5738V81.1298C218.589 81.8764 218.225 82.2498 217.497 82.2498H216.475ZM223.335 72.7998V71.0358H224.203V72.7998H227.199V73.6678H224.203V75.6838H226.723V76.4818C226.284 77.8538 225.561 79.0158 224.553 79.9678C225.355 80.6024 226.354 81.1671 227.549 81.6618L227.087 82.3898C225.845 81.8484 224.795 81.2278 223.937 80.5278C223.451 80.9104 222.915 81.2604 222.327 81.5778C221.748 81.8951 221.104 82.1798 220.395 82.4318L219.989 81.6758C220.651 81.4611 221.258 81.2138 221.809 80.9338C222.359 80.6444 222.859 80.3178 223.307 79.9538C222.271 78.9458 221.589 77.8071 221.263 76.5378H220.591V75.6838H223.335V73.6678H220.353V72.7998H223.335ZM222.089 76.5378C222.247 77.0791 222.476 77.5924 222.775 78.0778C223.083 78.5538 223.461 79.0111 223.909 79.4498C224.347 79.0298 224.721 78.5771 225.029 78.0918C225.337 77.6064 225.598 77.0884 225.813 76.5378H222.089Z" fill="white"/>
</svg>
