<?xml version="1.0" encoding="UTF-8"?>
<svg width="237px" height="45px" viewBox="0 0 237 45" version="1.1" xmlns="http://www.w3.org/2000/svg" xmlns:xlink="http://www.w3.org/1999/xlink">
    <title>限时购车新方案</title>
    <g id="页面-1" stroke="none" stroke-width="1" fill="none" fill-rule="evenodd">
        <g id="m" transform="translate(0.488281, 0.130371)" fill="#FFFFFF" fill-rule="nonzero">
            <path d="M1.02880859,43.5449219 C1.39567057,43.5608724 1.73063151,43.4651693 2.03369141,43.2578125 C2.3367513,43.0504557 2.54012044,42.8590495 2.64379883,42.6835938 C2.74747721,42.508138 2.83919271,42.2449544 2.91894531,41.894043 L2.91894531,41.894043 L2.79931641,36.1040039 L2.79931641,4.80908203 L6.31640625,4.80908203 C6.14095052,6.05322266 5.93359375,7.44889323 5.69433594,8.99609375 C5.45507812,10.5432943 5.11214193,12.8242188 4.66552734,15.8388672 L4.66552734,15.8388672 L5.359375,17.3222656 C5.7421875,18.1676432 6.13696289,19.3758952 6.54370117,20.9470215 C6.95043945,22.5181478 7.16178385,24.0773112 7.17773438,25.6245117 C7.17773438,26.2625326 7.1019694,26.9563802 6.95043945,27.7060547 C6.79890951,28.4557292 6.44401042,28.9302572 5.88574219,29.1296387 C5.32747396,29.3290202 4.96858724,29.4287109 4.80908203,29.4287109 L4.80908203,29.4287109 L3.97167969,29.4287109 C3.86002604,29.4287109 3.76831055,29.4725749 3.6965332,29.5603027 C3.62475586,29.6480306 3.58886719,29.7397461 3.58886719,29.8354492 C3.58886719,29.9152018 3.6167806,30.0069173 3.67260742,30.1105957 C3.72843424,30.2142741 3.81217448,30.2900391 3.92382812,30.3378906 L3.92382812,30.3378906 L4.80908203,30.7685547 C5.12809245,30.9280599 5.37931315,31.2430827 5.56274414,31.713623 C5.74617513,32.1841634 5.86580404,32.598877 5.92163086,32.9577637 C5.97745768,33.3166504 6.03727214,33.5399577 6.10107422,33.6276855 C6.1648763,33.7154134 6.23665365,33.7672526 6.31640625,33.7832031 C6.4280599,33.8151042 6.83878581,33.5718587 7.54858398,33.0534668 C8.25838216,32.5350749 8.85253906,31.8292643 9.33105469,30.9360352 C9.80957031,30.042806 10.0568034,28.878418 10.0727539,27.4428711 C10.0727539,26.6931966 9.94514974,25.5806478 9.68994141,24.1052246 C9.43473307,22.6298014 8.78076172,20.9510091 7.72802734,19.0688477 L7.72802734,19.0688477 L6.17285156,16.5805664 C6.0452474,16.3891602 5.86181641,16.078125 5.62255859,15.6474609 L5.62255859,15.6474609 L6.55566406,12.7524414 C6.66731771,12.3855794 7.46484375,10.1525065 8.94824219,6.05322266 L8.94824219,6.05322266 L9.953125,5.16796875 C10.0966797,5.02441406 10.168457,4.91276042 10.168457,4.83300781 C10.168457,4.75325521 10.1445312,4.66951497 10.0966797,4.58178711 C10.0488281,4.49405924 9.92919922,4.33854167 9.73779297,4.11523438 L9.73779297,4.11523438 L7.94335937,2.10546875 C7.65625,1.78645833 7.47281901,1.62296549 7.39306641,1.61499023 C7.3133138,1.60701497 7.17773438,1.77050781 6.98632812,2.10546875 L6.98632812,2.10546875 L6.26855469,3.46923828 L2.79931641,3.46923828 L1.02880859,1.74658203 C0.454589844,1.1883138 0.151529948,0.921142578 0.119628906,0.945068359 C0.0877278646,0.968994141 0.0478515625,1.00488281 0,1.05273438 L0,1.05273438 L0.143554688,7.68017578 L0.143554688,34.5966797 L0,42.659668 C0.0797526042,42.8989258 0.18343099,43.1062826 0.311035156,43.2817383 C0.438639323,43.457194 0.677897135,43.5449219 1.02880859,43.5449219 Z M11.9509277,43.0783691 C12.0067546,43.1182454 12.1064453,43.0983073 12.25,43.0185547 L12.25,43.0185547 L13.1831055,41.7504883 L14.3793945,40.4824219 L16.1020508,38.7358398 L16.1020508,38.7358398 L16.4422455,38.3956451 C17.1924184,37.6454722 17.6372884,37.2006022 17.7768555,37.0610352 L17.7768555,37.0610352 L19.5473633,35.4580078 C19.7547201,35.2666016 19.8623861,35.0393066 19.8703613,34.776123 C19.8783366,34.5129395 19.7387695,34.4371745 19.4516602,34.5488281 L19.4516602,34.5488281 L14.0205078,36.7978516 L14.0205078,21.1264648 L16.9394531,21.1264648 C16.9873047,21.9239909 17.0511068,22.7015788 17.1308594,23.4592285 C17.210612,24.2168783 17.4618327,25.664388 17.8845215,27.8017578 C18.3072103,29.9391276 18.8575033,31.7375488 19.5354004,33.1970215 C20.2132975,34.6564941 20.9071452,35.9365234 21.6169434,37.0371094 C22.3267415,38.1376953 23.1561686,39.2382812 24.1052246,40.3388672 C25.0542806,41.4394531 25.6484375,41.9817708 25.8876953,41.9658203 C26.0152995,41.9658203 26.1947428,41.7823893 26.4260254,41.4155273 C26.6573079,41.0486654 26.9484049,40.6698405 27.2993164,40.2790527 C27.6502279,39.888265 28.144694,39.5891927 28.7827148,39.3818359 L28.7827148,39.3818359 L29.644043,39.1186523 C29.7875977,39.0867513 29.8673503,38.9511719 29.8833008,38.7119141 C29.8833008,38.5205078 29.827474,38.3929036 29.7158203,38.3291016 L29.7158203,38.3291016 L28.8544922,37.8984375 C27.9931641,37.483724 26.904541,36.7300618 25.588623,35.6374512 C24.2727051,34.5448405 23.3037109,33.5878092 22.6816406,32.7663574 C22.0595703,31.9449056 21.5172526,31.1673177 21.0546875,30.4335938 L21.0546875,30.4335938 L22.8012695,29.4047852 L25.0742188,28.0888672 C25.4410807,27.8815104 25.9833984,27.5385742 26.7011719,27.0600586 L26.7011719,27.0600586 L27.8017578,27.2036133 C28.1048177,27.2514648 28.2643229,27.1079102 28.2802734,26.7729492 C28.2802734,26.5336914 28.1526693,26.2545573 27.8974609,25.9355469 L27.8974609,25.9355469 L25.6962891,23.2797852 C25.4410807,22.9926758 25.3015137,22.8451335 25.2775879,22.8371582 C25.2536621,22.8291829 25.1699219,22.9448242 25.0263672,23.184082 L25.0263672,23.184082 L24.0693359,24.715332 C23.2399089,26.0551758 22.0914714,27.7140299 20.6240234,29.6918945 L20.6240234,29.6918945 L19.7148438,27.7060547 C19.5234375,27.3391927 19.2642415,26.6174316 18.9372559,25.5407715 C18.6102702,24.4641113 18.406901,23.7423503 18.3271484,23.3754883 C18.2473958,23.0086263 18.0958659,22.2589518 17.8725586,21.1264648 L17.8725586,21.1264648 L22.4663086,21.1264648 L22.4663086,22.0595703 C22.4663086,22.171224 22.526123,22.3068034 22.645752,22.4663086 C22.7653809,22.6258138 22.9926758,22.7055664 23.3276367,22.7055664 C23.6466471,22.7215169 24.057373,22.6298014 24.5598145,22.4304199 C25.0622559,22.2310384 25.4012044,21.7804362 25.5766602,21.0786133 L25.5766602,21.0786133 L25.4331055,17.3461914 L25.4331055,6.67529297 L26.1508789,5.81396484 C26.3741862,5.52685547 26.4858398,5.33146159 26.4858398,5.2277832 C26.4858398,5.12410482 26.4659017,5.02840169 26.4260254,4.94067383 C26.3861491,4.85294596 26.2944336,4.73730469 26.1508789,4.59375 L26.1508789,4.59375 L23.734375,2.58398438 C23.4791667,2.3766276 23.3196615,2.26896159 23.2558594,2.26098633 C23.1920573,2.25301107 23.1043294,2.36067708 22.9926758,2.58398438 L22.9926758,2.58398438 L22.1074219,4.35449219 L14.3793945,4.35449219 L11.6757812,2.24902344 C11.452474,2.07356771 11.3208822,1.98982747 11.2810059,1.99780273 C11.2411296,2.00577799 11.1813151,2.05761719 11.1015625,2.15332031 L11.1015625,2.15332031 L11.2211914,11.1494141 L11.2211914,35.4580078 C11.2211914,36.0322266 11.1972656,36.5027669 11.1494141,36.8696289 C11.1015625,37.2364909 11.0138346,37.5076497 10.8862305,37.6831055 L10.8862305,37.6831055 L10.3598633,38.2573242 C10.3279622,38.3211263 10.3040365,38.3849284 10.2880859,38.4487305 C10.2721354,38.5125326 10.3837891,38.8714193 10.6230469,39.5253906 L10.6230469,39.5253906 L11.6279297,42.324707 C11.7874349,42.7872721 11.8951009,43.0384928 11.9509277,43.0783691 Z M22.4663086,11.9868164 L14.0205078,11.9868164 L14.0205078,5.69433594 L22.4663086,5.69433594 L22.4663086,11.9868164 Z M22.4663086,19.8105469 L14.0205078,19.8105469 L14.0205078,13.3027344 L22.4663086,13.3027344 L22.4663086,19.8105469 Z M53.7851562,43.4013672 C53.8649089,43.5449219 53.9845378,43.5688477 54.144043,43.4731445 C54.3035482,43.3774414 54.5667318,43.3016764 54.9335937,43.2458496 C55.3004557,43.1900228 55.9025879,42.9786784 56.7399902,42.6118164 C57.5773926,42.2449544 57.9960937,41.5909831 57.9960937,40.6499023 L57.9960937,40.6499023 L57.9960937,14.6186523 L63.9057617,14.6186523 C64.0652669,14.6186523 64.1529948,14.5588379 64.1689453,14.439209 C64.1848958,14.3195801 64.1729329,14.2119141 64.1330566,14.1162109 C64.0931803,14.0205078 64.0493164,13.9327799 64.0014648,13.8530273 L64.0014648,13.8530273 L61.3217773,10.6708984 C61.1303711,10.4635417 60.990804,10.3359375 60.9030762,10.2880859 C60.8153483,10.2402344 60.6040039,10.5273438 60.269043,11.1494141 L60.269043,11.1494141 L59.0966797,13.3745117 L57.9960937,13.3745117 L57.9960937,3.56494141 L58.9291992,2.44042969 C59.0568034,2.28092448 59.1245931,2.13736979 59.1325684,2.00976562 C59.1405436,1.88216146 59.0249023,1.77050781 58.7856445,1.67480469 L58.7856445,1.67480469 L55.3642578,0.526367188 C55.0452474,0.430664062 54.8538411,0.398763021 54.7900391,0.430664062 L54.7900391,0.430664062 L54.9575195,5.28759766 L54.9575195,13.3745117 L45.5068359,13.3745117 C45.2516276,13.3745117 45.1280111,13.5260417 45.1359863,13.8291016 C45.1439616,14.1321615 45.2356771,14.3953451 45.4111328,14.6186523 L45.4111328,14.6186523 L54.9575195,14.6186523 L54.9575195,37.6113281 C54.9575195,37.9622396 54.9136556,38.2373861 54.8259277,38.4367676 C54.7381999,38.6361491 54.3474121,38.723877 53.6535645,38.6999512 C52.9597168,38.6760254 52.3097331,38.5922852 51.7036133,38.4487305 L51.7036133,38.4487305 L50.8422852,38.2573242 C50.6508789,38.2254232 50.5352376,38.2613118 50.4953613,38.3649902 C50.455485,38.4686686 50.4395345,38.5444336 50.4475098,38.5922852 C50.455485,38.6401367 50.4754232,38.7079264 50.5073242,38.7956543 C50.5392253,38.8833822 50.5950521,38.9431966 50.6748047,38.9750977 L50.6748047,38.9750977 L51.4882812,39.4296875 C52.9238281,40.2272135 53.6535645,41.0765788 53.6774902,41.9777832 C53.701416,42.8789876 53.7373047,43.3535156 53.7851562,43.4013672 Z M35.21875,38.5803223 C35.7132161,38.572347 36.092041,38.4925944 36.3552246,38.3410645 C36.6184082,38.1895345 36.7858887,38.0340169 36.857666,37.8745117 C36.9294434,37.7150065 36.965332,37.4996745 36.965332,37.2285156 L36.965332,37.2285156 L36.965332,33.137207 L41.7026367,33.137207 L41.7026367,35.1230469 C41.7026367,35.4261068 41.7385254,35.6813151 41.8103027,35.8886719 C41.8820801,36.0960286 42.1971029,36.1957194 42.7553711,36.1877441 C43.3136393,36.1797689 43.7323405,36.0561523 44.0114746,35.8168945 C44.2906087,35.5776367 44.4580892,35.3862305 44.513916,35.2426758 C44.5697428,35.0991211 44.6136068,34.8997396 44.6455078,34.6445312 L44.6455078,34.6445312 L44.4780273,29.1176758 L44.4780273,8.08691406 L45.3154297,7.01025391 C45.4589844,6.8507487 45.5427246,6.70719401 45.5666504,6.57958984 C45.5905762,6.45198568 45.4669596,6.23665365 45.1958008,5.93359375 L45.1958008,5.93359375 L43.1381836,3.80419922 C43.0105794,3.69254557 42.9029134,3.60880534 42.8151855,3.55297852 C42.7274577,3.49715169 42.5400391,3.76432292 42.2529297,4.35449219 L42.2529297,4.35449219 L41.5351562,5.83789063 L37.0610352,5.83789063 L34.9316406,4.49804688 C34.5807292,4.27473958 34.4012858,4.15909831 34.3933105,4.15112305 C34.3894604,4.14727292 34.3865396,4.49192555 34.3845482,5.18508095 L34.3837516,5.50348445 C34.3836283,5.56010785 34.3835098,5.61850932 34.383396,5.67868887 L34.3827701,6.06110309 C34.3826753,6.12839494 34.3825852,6.19746487 34.3824998,6.26831287 L34.3818597,6.95395293 C34.3818028,7.03546938 34.3817507,7.11876391 34.3817033,7.20383652 L34.3813477,32.4912109 L34.237793,37.6591797 C34.2537435,37.8346354 34.2976074,38.0340169 34.3693848,38.2573242 C34.4411621,38.4806315 34.7242839,38.5882975 35.21875,38.5803223 Z M41.7026367,18.7578125 L36.965332,18.7578125 L36.965332,7.12988281 L41.7026367,7.12988281 L41.7026367,18.7578125 Z M49.4545898,28.5913086 C50.2042643,28.6072591 50.7226562,28.2563477 51.0097656,27.5385742 C51.296875,26.8208008 51.4364421,25.9634603 51.4284668,24.9665527 C51.4204915,23.9696452 51.1732585,23.0086263 50.6867676,22.0834961 C50.2002767,21.1583659 49.5343424,20.305013 48.6889648,19.5234375 C47.8435872,18.741862 47.3650716,18.343099 47.253418,18.3271484 C47.0939128,18.3271484 47.0221354,18.4388021 47.0380859,18.6621094 C47.0380859,18.7578125 47.0500488,18.8535156 47.0739746,18.9492188 C47.0979004,19.0449219 47.1936035,19.2443034 47.361084,19.5473633 C47.5285645,19.8504232 47.6681315,20.273112 47.7797852,20.8154297 C47.8914388,21.3577474 47.9552409,21.8761393 47.9711914,22.3706055 C47.9871419,22.8650716 48.0030924,23.1920573 48.019043,23.3515625 C48.019043,23.7184245 47.9871419,24.2687174 47.9233398,25.0024414 C47.8595378,25.7361654 47.8276367,26.1987305 47.8276367,26.3901367 C47.8595378,26.9005534 47.9951172,27.3950195 48.234375,27.8735352 C48.4736328,28.3520508 48.8803711,28.5913086 49.4545898,28.5913086 Z M41.7026367,31.8452148 L36.965332,31.8452148 L36.965332,20.0498047 L41.7026367,20.0498047 L41.7026367,31.8452148 Z M92.0424805,44.0952148 C92.3614909,44.1111654 92.8719076,43.9396973 93.5737305,43.5808105 C94.2755534,43.2219238 94.8457845,42.767334 95.2844238,42.217041 C95.7230632,41.666748 96.0819499,40.9370117 96.361084,40.027832 C96.6402181,39.1186523 96.8435872,37.7947591 96.9711914,36.0561523 C97.0987956,34.3175456 97.1825358,32.7464193 97.2224121,31.3427734 C97.2622884,29.9391276 97.2981771,28.037028 97.3300781,25.6364746 C97.3619792,23.2359212 97.3859049,21.1184896 97.4018555,19.2841797 C97.4018555,19.0130208 97.3978678,18.4786784 97.3898926,17.6811523 C97.3881836,17.5102539 97.3870239,17.3184814 97.3864136,17.105835 L97.3862305,16.4052734 C97.3875326,15.726888 97.3927409,14.9000651 97.4018555,13.9248047 L97.4018555,13.9248047 L98.1196289,13.0395508 C98.2631836,12.8640951 98.3509115,12.7085775 98.3828125,12.572998 C98.4147135,12.4374186 98.3030599,12.2340495 98.0478516,11.9628906 L98.0478516,11.9628906 L95.7749023,9.54638672 C95.6153971,9.40283203 95.5077311,9.34301758 95.4519043,9.36694336 C95.3960775,9.39086914 95.304362,9.54638672 95.1767578,9.83349609 L95.1767578,9.83349609 L94.2675781,11.699707 L86.1567383,11.699707 L86.3481445,11.2451172 L86.8266602,10.0966797 C86.8426107,10.0545247 86.8607585,10.0056559 86.8811035,9.95007324 L86.9487305,9.76318359 C87.2456055,8.93505859 87.8588867,7.14013672 88.7885742,4.37841797 L88.7885742,4.37841797 L89.6499023,3.4453125 C89.7775065,3.30175781 89.8492839,3.16617839 89.8652344,3.03857422 C89.8811849,2.91097005 89.8014323,2.79931641 89.6259766,2.70361328 L89.6259766,2.70361328 L86.1567383,1.05273438 L85.7739258,0.837402344 C85.7260742,0.853352865 85.6861979,0.885253906 85.6542969,0.933105469 L85.6542969,0.933105469 L85.5825195,1.86621094 L85.4150391,3.39746094 C85.3671875,3.78027344 85.2236328,4.62565104 84.984375,5.93359375 C84.7451172,7.24153646 84.5537109,8.27832031 84.4101562,9.04394531 C84.2666016,9.80957031 84.0393066,10.7825521 83.7282715,11.9628906 C83.4172363,13.1432292 83.086263,14.2836914 82.7353516,15.3842773 C82.3844401,16.4848633 82.0734049,17.3621419 81.8022461,18.0161133 L81.8022461,18.0161133 L81.2280273,19.4755859 C81.1801758,19.5872396 81.1642253,19.722819 81.1801758,19.8823242 C81.1961263,20.0418294 81.2599284,20.1295573 81.371582,20.1455078 C81.4832357,20.1614583 81.5869141,20.089681 81.6826172,19.9301758 L81.6826172,19.9301758 L82.1611328,19.1884766 C83.3414714,17.4020182 84.1629232,16.0063477 84.6254883,15.0014648 C85.0880534,13.996582 85.3990885,13.3346354 85.5585938,13.015625 L85.5585938,13.015625 L94.5546875,13.015625 L94.5786133,17.3222656 L94.5786133,17.3222656 L94.5786133,21.652832 C94.5626628,24.7631836 94.5267741,27.6821289 94.4709473,30.409668 C94.4151204,33.137207 94.2675781,35.0751953 94.0283203,36.2236328 C93.7890625,37.3720703 93.5577799,38.0898438 93.3344727,38.3769531 C93.1111654,38.6640625 92.7283529,38.9033203 92.1860352,39.0947266 C91.6437174,39.2861328 90.9179688,39.2701823 90.0087891,39.046875 L90.0087891,39.046875 L88.7885742,38.7597656 C88.6928711,38.7438151 88.6131185,38.7717285 88.5493164,38.8435059 C88.4855143,38.9152832 88.4536133,38.9990234 88.4536133,39.0947266 C88.4536133,39.3020833 88.5333659,39.445638 88.6928711,39.5253906 L88.6928711,39.5253906 L89.6499023,40.0756836 C90.0327148,40.2989909 90.3876139,40.5861003 90.7145996,40.9370117 C91.0415853,41.2879232 91.3087565,41.7584635 91.5161133,42.3486328 C91.7234701,42.9388021 91.8351237,43.3694661 91.8510742,43.640625 C91.8670247,43.9117839 91.8909505,44.0553385 91.9228516,44.0712891 C91.9547526,44.0872396 91.9946289,44.0952148 92.0424805,44.0952148 Z M70.2939453,31.3547363 C70.6608073,31.3467611 71.0236816,31.282959 71.3825684,31.1633301 C71.7414551,31.0437012 71.9488118,30.9001465 72.0046387,30.732666 C72.0604655,30.5651855 72.0963542,30.3937174 72.1123047,30.2182617 C72.1244271,30.0849154 72.131943,29.283625 72.1348523,27.8143906 L72.135618,27.3282188 C72.1357201,27.2434896 72.1358094,27.1569102 72.1358859,27.0684805 L72.1362305,5.93359375 L78.2133789,5.93359375 L78.2133789,27.1318359 L78.1416016,29.7158203 C78.1575521,30.0507812 78.2173665,30.3219401 78.3210449,30.5292969 C78.4247233,30.7366536 78.7158203,30.840332 79.1943359,30.840332 C79.656901,30.8562826 80.0397135,30.7526042 80.3427734,30.5292969 C80.6458333,30.3059896 80.8252767,30.1225586 80.8811035,29.9790039 C80.9369303,29.8354492 80.9887695,29.6520182 81.0366211,29.4287109 L81.0366211,29.4287109 L80.8930664,24.4282227 L80.8930664,6.98632812 L81.6826172,6.07714844 C81.7942708,5.94954427 81.84611,5.8219401 81.8381348,5.69433594 C81.8301595,5.56673177 81.7862956,5.45507812 81.706543,5.359375 L81.706543,5.359375 L79.6489258,3.08642578 C79.4256185,2.86311849 79.2820638,2.7594401 79.2182617,2.77539062 C79.1544596,2.79134115 78.9790039,3.05452474 78.6918945,3.56494141 L78.6918945,3.56494141 L78.1176758,4.61767578 L72.2080078,4.61767578 L69.9111328,3.08642578 C69.671875,2.92692057 69.5482585,2.8511556 69.5402832,2.85913086 C69.5323079,2.86710612 69.5123698,2.87906901 69.4804688,2.89501953 L69.4804688,2.89501953 L69.5761719,7.51269531 L69.5761719,26.3422852 L69.4804688,30.5053711 C69.5123698,30.7286784 69.564209,30.9280599 69.6359863,31.1035156 C69.7077637,31.2789714 69.9270833,31.3627116 70.2939453,31.3547363 Z M68.0568848,42.9348145 C68.0808105,43.197998 68.2682292,43.1461589 68.6191406,42.7792969 L68.6191406,42.7792969 L69.5283203,41.8222656 C71.0117188,40.2431641 72.1800944,38.7677409 73.0334473,37.3959961 C73.8868001,36.0242513 74.4450684,34.8877767 74.708252,33.9865723 C74.9714355,33.0853678 75.1827799,32.3157552 75.3422852,31.6777344 C76.5704753,32.921875 77.3640137,34.0663249 77.7229004,35.111084 C78.0817871,36.1558431 78.3609212,37.041097 78.5603027,37.7668457 C78.7596842,38.4925944 78.9191895,39.0109863 79.0388184,39.3220215 C79.1584473,39.6330566 79.2820638,39.8683268 79.409668,40.027832 C79.6648763,40.362793 80.0277507,40.5262858 80.498291,40.5183105 C80.9688314,40.5103353 81.3117676,40.2431641 81.5270996,39.7167969 C81.7424316,39.1904297 81.8580729,38.7198893 81.8740234,38.3051758 C81.9059245,37.4757487 81.7185059,36.6702474 81.3117676,35.8886719 C80.9050293,35.1070964 80.358724,34.3614095 79.6728516,33.6516113 C78.9869792,32.9418132 77.5992839,32.0605469 75.5097656,31.0078125 L75.5097656,31.0078125 L75.7250977,29.7158203 C75.8048503,29.2213542 75.904541,28.0968424 76.0241699,26.3422852 C76.1437988,24.5877279 76.2155762,23.1800944 76.239502,22.1193848 C76.2634277,21.0586751 76.2793783,19.615153 76.2873535,17.7888184 C76.2953288,15.9624837 76.3232422,14.0284831 76.3710938,11.9868164 L76.3710938,11.9868164 L76.9453125,11.269043 C77.0250651,11.1733398 77.0729167,11.085612 77.0888672,11.0058594 L77.0888672,11.0058594 L77.0888672,10.9101563 C77.0888672,10.8623047 77.0848796,10.8144531 77.0769043,10.7666016 C77.068929,10.71875 77.0091146,10.6708984 76.8974609,10.6230469 L76.8974609,10.6230469 L74.0981445,9.78564453 C73.8748372,9.72184245 73.7472331,9.69791667 73.715332,9.71386719 C73.683431,9.72981771 73.6515299,9.76171875 73.6196289,9.80957031 L73.6196289,9.80957031 L73.6914062,10.934082 L73.8110352,13.0874023 C73.8340039,13.6616211 73.8466367,14.8249883 73.8489336,16.5775039 L73.8489336,17.8331289 C73.8485508,18.1688555 73.8478809,18.5209473 73.8469238,18.8894043 C73.8389486,21.9598796 73.8190104,24.057373 73.7871094,25.1818848 C73.7552083,26.3063965 73.6276042,28.0131022 73.4042969,30.302002 C73.1809896,32.5909017 72.6386719,34.6604818 71.7773438,36.5107422 C70.9160156,38.3610026 70.0068359,39.9161784 69.0498047,41.1762695 L69.0498047,41.1762695 L68.1884766,42.324707 C68.0768229,42.4682617 68.032959,42.6716309 68.0568848,42.9348145 Z M91.3007812,33.5321509 C91.6995443,33.5240072 92.0424805,33.396403 92.3295898,33.1491699 C92.6166992,32.9019368 92.8200684,32.5669759 92.9396973,32.1442871 C93.0593262,31.7215983 93.1271159,31.3108724 93.1430664,30.9121094 C93.1430664,28.7747396 92.3933919,27.0520833 90.894043,25.7441406 C89.394694,24.4361979 88.5572917,23.7742513 88.3818359,23.7583008 C88.2542318,23.7583008 88.1944173,23.81014 88.2023926,23.9138184 C88.2103678,24.0174967 88.2223307,24.101237 88.2382812,24.1650391 C88.2542318,24.2288411 88.3499349,24.4162598 88.5253906,24.7272949 C88.7008464,25.0383301 88.920166,25.524821 89.1833496,26.1867676 C89.4465332,26.8487142 89.6897786,27.6901042 89.9130859,28.7109375 L89.9130859,28.7109375 L84.0512695,29.2851562 C85.566569,26.03125 87.0340169,22.785319 88.4536133,19.5473633 L88.4536133,19.5473633 L89.3388672,18.9970703 C89.4824219,18.9173177 89.5661621,18.8016764 89.5900879,18.6501465 C89.6140137,18.4986165 89.5222982,18.3510742 89.3149414,18.2075195 L89.3149414,18.2075195 L86.6591797,16.5327148 L86.0610352,16.1738281 C86.0291341,16.1578776 86.009196,16.1459147 86.0012207,16.1377918 C85.9932454,16.1299642 85.933431,16.444987 85.8217773,17.0830078 L85.8217773,17.0830078 L85.6064453,18.2075195 C85.5266927,18.6700846 85.3193359,19.6231283 84.984375,21.0666504 C84.6494141,22.5101725 84.2666016,23.9816081 83.8359375,25.480957 C83.4052734,26.980306 83.0902507,27.929362 82.8908691,28.328125 C82.6914876,28.726888 82.5200195,28.9820964 82.3764648,29.09375 L82.3764648,29.09375 L81.8022461,29.4765625 C81.706543,29.5722656 81.6507161,29.6599935 81.6347656,29.7397461 L81.6347656,29.7397461 L81.8500977,30.3618164 L82.7353516,33.1132812 C82.7832031,33.320638 82.8629557,33.3724772 82.9746094,33.2687988 C83.086263,33.1651204 83.2218424,33.0574544 83.3813477,32.9458008 L83.3813477,32.9458008 L84.3144531,32.3237305 C85.3671875,31.6538086 87.2732747,30.7845052 90.0327148,29.7158203 L90.0327148,29.7158203 L90.0327148,31.1274414 C90.0327148,31.8452148 90.1204427,32.371582 90.2958984,32.706543 C90.5670573,33.2648112 90.9020182,33.5399577 91.3007812,33.5321509 Z M118.001953,44.825325 C118.560221,44.8169759 119.002848,44.697347 119.329834,44.4660645 C119.65682,44.2347819 119.848226,44.0473633 119.904053,43.9038086 C119.95988,43.7602539 120.003743,43.5847982 120.035645,43.3774414 L120.035645,43.3774414 L119.916016,39.3100586 L119.916016,32.1083984 L128.553223,32.1083984 L128.553223,32.0605469 L132.500977,32.0605469 C132.724284,32.0605469 132.83195,31.9927572 132.823975,31.8571777 C132.815999,31.7215983 132.784098,31.5780436 132.728271,31.4265137 C132.672445,31.2749837 132.580729,31.1114909 132.453125,30.9360352 L132.453125,30.9360352 L130.012695,27.8974609 C129.885091,27.7539062 129.7854,27.6861165 129.713623,27.6940918 C129.641846,27.7020671 129.502279,27.8894857 129.294922,28.2563477 L129.294922,28.2563477 L127.883301,30.7924805 L119.916016,30.7924805 L119.916016,23.3037109 L129.294922,23.2558594 C129.502279,23.2558594 129.601969,23.1402181 129.593994,22.9089355 C129.586019,22.677653 129.486328,22.4344076 129.294922,22.1791992 L129.294922,22.1791992 L127.141602,19.5473633 C126.870443,19.2124023 126.663086,19.0010579 126.519531,18.9133301 C126.375977,18.8256022 126.144694,19.0927734 125.825684,19.7148438 L125.825684,19.7148438 L124.65332,22.0117188 L119.916016,22.0117188 L119.916016,15.862793 L120.681641,15.2885742 C120.873047,15.1450195 120.976725,14.9775391 120.992676,14.7861328 C121.008626,14.5947266 120.904948,14.4431966 120.681641,14.331543 L120.681641,14.331543 L117.379883,12.9199219 L116.99707,12.7524414 C116.917318,12.7843424 116.84554,12.8481445 116.781738,12.9438477 L116.781738,12.9438477 L116.877441,17.0351562 L116.877441,22.0117188 L110.178223,22.0117188 L115.035156,10.0488281 L129.749512,10.0488281 L129.749512,10.0249023 L130.969727,10.0249023 C131.161133,10.0249023 131.260824,9.9132487 131.268799,9.68994141 C131.276774,9.46663411 131.185059,9.2273763 130.993652,8.97216797 L130.993652,8.97216797 L128.361816,5.93359375 C128.090658,5.64648437 127.923177,5.51888021 127.859375,5.55078125 C127.795573,5.58268229 127.612142,5.86979167 127.309082,6.41210938 L127.309082,6.41210938 L126.041016,8.75683594 L115.537598,8.75683594 L117.379883,4.16308594 L118.504395,3.42138672 C118.711751,3.29378255 118.819417,3.14624023 118.827393,2.97875977 C118.835368,2.8112793 118.775553,2.6796875 118.647949,2.58398438 L118.647949,2.58398438 L115.322266,0.430664062 L114.700195,0 C114.668294,0.0159505208 114.652344,0.0319010417 114.652344,0.0478515625 L114.652344,0.0478515625 L114.437012,1.1484375 L114.078125,2.58398438 C113.854818,3.42936198 113.491943,4.64160156 112.989502,6.22070312 C112.487061,7.79980469 112.219889,8.64518229 112.187988,8.75683594 L112.187988,8.75683594 L103.813965,8.75683594 C103.510905,8.75683594 103.36735,8.97216797 103.383301,9.40283203 C103.399251,9.83349609 103.542806,10.0488281 103.813965,10.0488281 L103.813965,10.0488281 L111.709473,10.0488281 C111.230957,11.4205729 110.816243,12.5530599 110.465332,13.4462891 C110.114421,14.3395182 109.600016,15.6115723 108.922119,17.2624512 C108.244222,18.9133301 107.801595,19.9222005 107.594238,20.2890625 C107.386882,20.6559245 107.147624,20.9031576 106.876465,21.0307617 C106.397949,21.2700195 106.162679,21.4175618 106.170654,21.4733887 C106.17863,21.5292155 106.27832,21.7086589 106.469727,22.0117188 L106.469727,22.0117188 L108.216309,24.9067383 C108.296061,25.082194 108.407715,25.082194 108.55127,24.9067383 L108.55127,24.9067383 L109.771484,23.3037109 L116.877441,23.3037109 L116.877441,30.7924805 L102.641602,30.7924805 C102.370443,30.7924805 102.234863,31.0795898 102.234863,31.6538086 L102.234863,31.6538086 L102.306641,31.9169922 C102.306641,31.9488932 102.362467,31.9887695 102.474121,32.0366211 L102.474121,32.0366211 L102.641602,32.1083984 L116.877441,32.1083984 L116.877441,39.4775391 L116.781738,43.4970703 C116.797689,43.8958333 116.865479,44.2188314 116.985107,44.4660645 C117.104736,44.7132975 117.443685,44.8329264 118.001953,44.825325 Z M144.655273,7.65625 C145.213542,7.67220052 145.624268,7.46085612 145.887451,7.0222168 C146.150635,6.58357747 146.338053,6.15690104 146.449707,5.7421875 C146.497559,5.50292969 146.517497,5.30753581 146.509521,5.15600586 C146.501546,5.00447591 146.441732,4.53393555 146.330078,3.74438477 C146.218424,2.95483398 145.783773,2.33276367 145.026123,1.87817383 C144.268473,1.42358398 143.586589,1.10058594 142.980469,0.909179688 C142.374349,0.717773438 142.023438,0.622070312 141.927734,0.622070312 C141.78418,0.638020833 141.696452,0.701822917 141.664551,0.813476562 C141.6486,0.861328125 141.640625,0.925130208 141.640625,1.00488281 C141.640625,1.08463542 141.672526,1.16438802 141.736328,1.24414062 L141.736328,1.24414062 L142.095215,1.81835938 C142.430176,2.36067708 142.645508,2.79931641 142.741211,3.13427734 C142.836914,3.46923828 142.908691,3.828125 142.956543,4.2109375 L142.956543,4.2109375 L143.100098,5.7421875 C143.147949,6.23665365 143.279541,6.6792806 143.494873,7.07006836 C143.710205,7.46085612 144.097005,7.65625 144.655273,7.65625 Z M160.494141,44.190918 C160.845052,44.2068685 161.23584,44.0992025 161.666504,43.8679199 C162.097168,43.6366374 162.384277,43.2338867 162.527832,42.659668 L162.527832,42.659668 L162.408203,39.6689453 L162.408203,19.1645508 C162.551758,19.1007487 162.663411,19.032959 162.743164,18.9611816 C162.822917,18.8894043 162.93457,18.7259115 163.078125,18.4707031 L163.078125,18.4707031 L166.858398,18.4707031 C167.049805,18.4707031 167.153483,18.343099 167.169434,18.0878906 C167.169434,18.0240885 167.157471,17.9562988 167.133545,17.8845215 C167.109619,17.8127441 167.017904,17.6652018 166.858398,17.4418945 L166.858398,17.4418945 L165.20752,15.2885742 C164.792806,14.7781576 164.545573,14.4910482 164.46582,14.4272461 C164.386068,14.363444 164.322266,14.3514811 164.274414,14.3913574 C164.226562,14.4312337 164.043132,14.7781576 163.724121,15.4321289 L163.724121,15.4321289 L162.886719,17.1547852 L156.259277,17.1547852 L156.283203,14.5229492 L156.331055,11.8911133 L156.331055,11.8911133 L156.331543,11.4941406 C156.333496,10.6445312 156.341309,9.4609375 156.35498,7.94335938 L156.35498,7.94335938 L159.943848,7.34521484 L164.46582,6.43603516 L165.518555,6.26855469 C165.725911,6.23665365 165.837565,6.125 165.853516,5.93359375 C165.853516,5.80598958 165.686035,5.54280599 165.351074,5.14404297 L165.351074,5.14404297 L163.413086,2.94287109 L162.838867,2.15332031 C162.743164,2.12141927 162.655436,2.12141927 162.575684,2.15332031 L162.575684,2.15332031 L162.049316,2.79931641 L161.23584,3.51708984 C160.039551,4.56982422 158.460449,5.63850911 156.498535,6.72314453 L156.498535,6.72314453 L154.082031,5.00048828 C153.603516,4.64957682 153.352295,4.48209635 153.328369,4.49804688 C153.304443,4.5139974 153.268555,4.53792318 153.220703,4.56982422 L153.220703,4.56982422 L153.412109,7.94335938 L153.412368,8.96050046 C153.415297,9.20487819 153.443124,10.117947 153.49585,11.699707 C153.551676,13.3745117 153.57959,15.0652669 153.57959,16.7719727 C153.57959,19.4197591 153.547689,21.6807454 153.483887,23.5549316 C153.420085,25.4291178 153.272542,27.4707845 153.04126,29.6799316 C152.809977,31.8890788 152.255697,34.0065104 151.378418,36.0322266 C150.501139,38.0579427 149.30485,39.9720052 147.789551,41.7744141 L147.789551,41.7744141 L147.16748,42.5161133 C147.055827,42.6756185 146.992025,42.7912598 146.976074,42.8630371 C146.960124,42.9348145 146.956136,42.9946289 146.964111,43.0424805 C146.972087,43.090332 146.988037,43.1381836 147.011963,43.1860352 C147.035889,43.2338867 147.087728,43.2618001 147.16748,43.2697754 C147.247233,43.2777507 147.358887,43.2259115 147.502441,43.1142578 L147.502441,43.1142578 L148.244141,42.5161133 C148.595052,42.2449544 149.093506,41.7465007 149.739502,41.020752 C150.385498,40.2950033 151.238851,39.2263184 152.299561,37.8146973 C153.36027,36.4030762 154.161784,34.7880859 154.704102,32.9697266 C155.246419,31.1513672 155.601318,29.5961914 155.768799,28.3041992 C155.936279,27.012207 156.047933,25.5726725 156.10376,23.9855957 C156.159587,22.3985189 156.211426,20.5602214 156.259277,18.4707031 L156.259277,18.4707031 L159.561035,18.4707031 L159.561035,38.3051758 L159.441406,43.2099609 C159.473307,43.4811198 159.549072,43.7124023 159.668701,43.9038086 C159.78833,44.0952148 160.063477,44.190918 160.494141,44.190918 Z M142.980469,42.6118164 C143.187826,42.6437174 143.574626,42.5320638 144.140869,42.2768555 C144.707113,42.0216471 145.141764,41.8023275 145.444824,41.6188965 C145.747884,41.4354655 146.003092,41.1324056 146.210449,40.7097168 C146.417806,40.287028 146.521484,39.7327474 146.521484,39.046875 L146.521484,39.046875 L146.521484,26.3901367 L151.856934,26.3901367 C151.952637,26.3901367 152.032389,26.354248 152.096191,26.2824707 C152.159993,26.2106934 152.19987,26.1269531 152.21582,26.03125 C152.21582,25.9036458 152.144043,25.7441406 152.000488,25.5527344 L152.000488,25.5527344 L150.22998,23.3037109 C149.863118,22.8570964 149.635824,22.6377767 149.548096,22.645752 C149.460368,22.6537272 149.320801,22.8251953 149.129395,23.1601562 L149.129395,23.1601562 L148.052734,25.0263672 L146.521484,25.0263672 L146.521484,20.0258789 C146.760742,19.8344727 146.904297,19.6988932 146.952148,19.6191406 C147,19.539388 147.063802,19.4516602 147.143555,19.355957 L147.143555,19.355957 L152.646484,19.355957 C152.80599,19.355957 152.929606,19.3120931 153.017334,19.2243652 C153.105062,19.1366374 153.156901,19.0449219 153.172852,18.9492188 C153.172852,18.8216146 152.997396,18.5265299 152.646484,18.0639648 L152.646484,18.0639648 L151.187012,16.1977539 C150.931803,15.894694 150.768311,15.711263 150.696533,15.6474609 C150.624756,15.5836589 150.568929,15.571696 150.529053,15.6115723 C150.489176,15.6514486 150.333659,15.9186198 150.0625,16.4130859 L150.0625,16.4130859 L149.177246,18.0161133 L147.16748,18.0161133 C147.741699,16.7560221 148.539225,14.9615885 149.560059,12.6328125 L149.560059,12.6328125 L150.493164,12.1542969 C150.732422,12.0426432 150.856038,11.927002 150.864014,11.807373 C150.871989,11.6877441 150.856038,11.592041 150.816162,11.5202637 C150.776286,11.4484863 150.636719,11.3168945 150.397461,11.1254883 L150.397461,11.1254883 L147.693848,9.06787109 L149.296875,9.06787109 L149.296875,9.02001953 L152.311523,9.02001953 C152.455078,9.02001953 152.566732,8.98014323 152.646484,8.90039063 C152.726237,8.82063802 152.774089,8.73291016 152.790039,8.63720703 C152.790039,8.52555339 152.630534,8.26236979 152.311523,7.84765625 L152.311523,7.84765625 L150.804199,5.93359375 C150.389486,5.42317708 150.154215,5.16398112 150.098389,5.15585443 C150.042562,5.1480306 149.863118,5.45507813 149.560059,6.07714844 L149.560059,6.07714844 L148.69873,7.75195313 L137.740723,7.75195313 C137.373861,7.75195313 137.214355,7.97127279 137.262207,8.40991211 C137.310059,8.84855143 137.469564,9.06787109 137.740723,9.06787109 L137.740723,9.06787109 L147.45459,9.06787109 L147.311035,10.3359375 C147.247233,10.9420573 147.059814,12.1024577 146.748779,13.8171387 C146.437744,15.5318197 146.154622,16.9314779 145.899414,18.0161133 L145.899414,18.0161133 L137.070801,18.0161133 C136.75179,18.0161133 136.596273,18.1835938 136.604248,18.5185547 C136.612223,18.8535156 136.6521,19.0568848 136.723877,19.1286621 C136.795654,19.2004395 136.879395,19.2602539 136.975098,19.3081055 L136.975098,19.3081055 L137.166504,19.355957 L143.817871,19.355957 L143.817871,25.0263672 L137.501465,25.0263672 C137.134603,25.0263672 136.97111,25.1938477 137.010986,25.5288086 C137.050863,25.8637695 137.174479,26.1189779 137.381836,26.2944336 L137.381836,26.2944336 L137.621094,26.3901367 L143.817871,26.3901367 L143.817871,37.6352539 C143.817871,38.0021159 143.610514,38.1616211 143.195801,38.1137695 L143.195801,38.1137695 L142.693359,38.1137695 C142.613607,38.1137695 142.482015,38.1018066 142.298584,38.0778809 C142.115153,38.0539551 141.903809,38.0180664 141.664551,37.9702148 L141.664551,37.9702148 L140.587891,37.8266602 C140.348633,37.8107096 140.229004,37.914388 140.229004,38.1376953 C140.213053,38.3450521 140.308757,38.5125326 140.516113,38.6401367 L140.516113,38.6401367 L141.449219,39.2382812 C142.055339,39.6529948 142.414225,40.1195475 142.525879,40.6379395 C142.637533,41.1563314 142.697347,41.5511068 142.705322,41.8222656 C142.713298,42.0934245 142.729248,42.2768555 142.753174,42.3725586 C142.7771,42.4682617 142.805013,42.5320638 142.836914,42.5639648 C142.868815,42.5958659 142.916667,42.6118164 142.980469,42.6118164 Z M141.855957,17.8725586 C142.366374,17.8725586 142.773112,17.6133626 143.076172,17.0949707 C143.379232,16.5765788 143.538737,16.0143229 143.554688,15.4082031 C143.586589,13.9567057 143.060221,12.7444661 141.975586,11.7714844 C140.890951,10.7985026 140.284831,10.3040365 140.157227,10.2880859 C140.029622,10.2880859 139.957845,10.3678385 139.941895,10.5273438 C139.925944,10.5592448 139.921956,10.6270345 139.929932,10.7307129 C139.937907,10.8343913 139.94987,10.902181 139.96582,10.934082 L139.96582,10.934082 L140.300781,11.7475586 C140.492188,12.2739258 140.603841,13.0953776 140.635742,14.2119141 C140.635742,14.514974 140.631755,14.9177246 140.623779,15.420166 C140.615804,15.9226074 140.651693,16.4609375 140.731445,17.0351562 C140.811198,17.609375 141.186035,17.8885091 141.855957,17.8725586 Z M136.727865,40.394694 L136.759766,40.3867188 C136.839518,40.3867188 136.951172,40.2830404 137.094727,40.0756836 L137.094727,40.0756836 L137.8125,38.9990234 C138.051758,38.648112 138.546224,37.7429199 139.295898,36.2834473 C140.045573,34.8239746 140.540039,33.8430176 140.779297,33.3405762 C141.018555,32.8381348 141.417318,31.9090169 141.975586,30.5532227 L141.975586,30.5532227 L142.549805,30.1704102 C142.613607,30.1385091 142.665446,30.074707 142.705322,29.9790039 C142.745199,29.8833008 142.773112,29.8115234 142.789062,29.7636719 C142.789062,29.6520182 142.661458,29.5084635 142.40625,29.3330078 L142.40625,29.3330078 L140.037598,27.8256836 L139.606934,27.5146484 C139.559082,27.5465495 139.527181,27.594401 139.51123,27.6582031 L139.51123,27.6582031 L139.415527,28.7827148 L139.200195,30.2661133 C139.120443,30.8881836 138.929036,31.8252767 138.625977,33.0773926 C138.322917,34.3295085 138.135498,35.0831706 138.063721,35.3383789 C137.991943,35.5935872 137.824463,36.1598307 137.561279,37.0371094 C137.298096,37.914388 137.142578,38.4327799 137.094727,38.5922852 L137.094727,38.5922852 L136.73584,39.6210938 C136.656087,39.844401 136.616211,40.0158691 136.616211,40.135498 C136.616211,40.255127 136.632161,40.3308919 136.664062,40.362793 C136.695964,40.394694 136.727865,40.4026693 136.759766,40.3867188 L136.727865,40.394694 Z M149.823242,36.0800781 C150.285807,36.0800781 150.660645,35.8328451 150.947754,35.3383789 C151.234863,34.8439128 151.386393,34.3175456 151.402344,33.7592773 C151.402344,33.0255534 151.20695,32.3197428 150.816162,31.6418457 C150.425374,30.9639486 149.84318,30.2780762 149.06958,29.5842285 C148.29598,28.8903809 147.797526,28.543457 147.574219,28.543457 C147.526367,28.5594076 147.494466,28.5753581 147.478516,28.5913086 C147.462565,28.6072591 147.434652,28.6790365 147.394775,28.8066406 C147.354899,28.9342448 147.414714,29.1416016 147.574219,29.4287109 L147.574219,29.4287109 L147.861328,29.9790039 C148.260091,30.7446289 148.491374,31.605957 148.555176,32.5629883 L148.555176,32.5629883 L148.579102,34.0224609 C148.595052,34.5009766 148.670817,34.9675293 148.806396,35.4221191 C148.941976,35.876709 149.280924,36.0960286 149.823242,36.0800781 Z M185.664062,9.59423828 C186.254232,9.6101888 186.760661,9.3190918 187.18335,8.72094727 C187.606038,8.12280273 187.82137,7.41699219 187.829346,6.60351562 C187.837321,5.79003906 187.618001,4.91276042 187.171387,3.97167969 C186.724772,3.03059896 185.947184,2.30485026 184.838623,1.79443359 C183.730062,1.28401693 182.960449,1.02083333 182.529785,1.00488281 C182.290527,1.00488281 182.166911,1.07666016 182.158936,1.22021484 C182.15096,1.36376953 182.178874,1.47542318 182.242676,1.55517578 L182.242676,1.55517578 L182.697266,2.15332031 C183.080078,2.69563802 183.351237,3.21004232 183.510742,3.6965332 C183.670247,4.18302409 183.757975,4.64957682 183.773926,5.09619141 L183.773926,5.09619141 L183.702148,7.41699219 C183.765951,7.9593099 183.957357,8.45776367 184.276367,8.91235352 C184.595378,9.36694336 185.057943,9.59423828 185.664062,9.59423828 Z M188.630859,44.0473633 C188.726562,44.0633138 188.997721,43.9995117 189.444336,43.855957 C189.890951,43.7124023 190.433268,43.4811198 191.071289,43.1621094 C191.70931,42.843099 192.31543,42.2449544 192.889648,41.3676758 C193.463867,40.4903971 193.902507,39.4695638 194.205566,38.3051758 C194.508626,37.1407878 194.783773,35.7570801 195.031006,34.1540527 C195.278239,32.5510254 195.457682,31.2630208 195.569336,30.2900391 C195.68099,29.3170573 195.800618,28.112793 195.928223,26.6772461 C196.055827,25.2416992 196.175456,23.949707 196.287109,22.8012695 L196.287109,22.8012695 L197.220215,22.0595703 C197.443522,21.8841146 197.551188,21.7445475 197.543213,21.6408691 C197.535238,21.5371908 197.519287,21.4574382 197.495361,21.4016113 C197.471436,21.3457845 197.347819,21.1902669 197.124512,20.9350586 L197.124512,20.9350586 L194.731934,18.3032227 C194.492676,18.0639648 194.361084,17.9403483 194.337158,17.932373 C194.313232,17.9243978 194.285319,17.9243978 194.253418,17.932373 C194.221517,17.9403483 194.085938,18.159668 193.84668,18.590332 L193.84668,18.590332 L193.081055,19.9541016 L184.65918,19.9541016 L184.82666,18.3989258 C185.002116,16.4529622 185.185547,14.5867513 185.376953,12.800293 C185.680013,12.3536784 185.855469,12.0984701 185.90332,12.034668 C185.951172,11.9708659 186.078776,11.8352865 186.286133,11.6279297 L186.286133,11.6279297 L200.545898,11.6279297 C201.040365,11.6279297 201.311523,11.5003255 201.359375,11.2451172 C201.359375,11.085612 201.263672,10.8862305 201.072266,10.6469727 L201.072266,10.6469727 L198.751465,7.96728516 C198.209147,7.34521484 197.922038,7.03816732 197.890137,7.04599115 C197.858236,7.05411784 197.69873,7.32926432 197.411621,7.87158203 L197.411621,7.87158203 L196.143555,10.3598633 L172.145996,10.3598633 C171.842936,10.3598633 171.695394,10.5712077 171.703369,10.9938965 C171.711344,11.4165853 171.858887,11.6279297 172.145996,11.6279297 L172.145996,11.6279297 L182.075195,11.6279297 C182.027344,12.7444661 181.971517,13.8330892 181.907715,14.8937988 C181.843913,15.9545085 181.732259,17.3262533 181.572754,19.0090332 C181.413249,20.6918132 181.245768,22.1433105 181.070312,23.3635254 C180.894857,24.5837402 180.627686,25.9754232 180.268799,27.5385742 C179.909912,29.1017253 179.471273,30.5332845 178.952881,31.833252 C178.434489,33.1332194 177.617025,34.7202962 176.500488,36.5944824 C175.383952,38.4686686 174.255452,39.9002279 173.11499,40.8891602 C171.974528,41.8780924 171.380371,42.3964844 171.33252,42.4443359 L171.33252,42.4443359 L170.925781,42.8510742 C170.830078,42.9467773 170.782227,43.0105794 170.782227,43.0424805 L170.782227,43.0424805 L170.782227,43.2937012 C170.782227,43.3335775 170.818115,43.3734538 170.889893,43.4133301 C170.96167,43.4532064 171.04541,43.4412435 171.141113,43.3774414 L171.141113,43.3774414 L171.858887,42.9467773 C172.87972,42.3406576 173.95638,41.5550944 175.088867,40.5900879 C176.221354,39.6250814 177.409668,38.4128418 178.653809,36.9533691 C179.897949,35.4938965 180.874919,33.9347331 181.584717,32.2758789 C182.294515,30.6170247 182.864746,28.9820964 183.29541,27.3710938 C183.726074,25.7600911 184.140788,23.7184245 184.539551,21.2460938 L184.539551,21.2460938 L193.200684,21.2460938 C193.075073,23.1860758 192.973887,24.6925278 192.897125,25.7654495 L192.865723,26.1987305 C192.78597,27.2833659 192.650391,28.5554199 192.458984,30.0148926 C192.267578,31.4743652 191.960531,33.2089844 191.537842,35.21875 C191.115153,37.2285156 190.668538,38.3849284 190.197998,38.6879883 C189.727458,38.9910482 189.205078,39.1425781 188.630859,39.1425781 C188.008789,39.1585286 187.410645,39.0708008 186.836426,38.8793945 L186.836426,38.8793945 L185.831543,38.5205078 L185.28125,38.3291016 C185.185547,38.313151 185.097819,38.3410645 185.018066,38.4128418 C184.938314,38.4846191 184.898438,38.5843099 184.898438,38.7119141 C184.882487,38.8554688 184.930339,38.9591471 185.041992,39.0229492 L185.041992,39.0229492 L185.592285,39.4057617 L186.310059,39.8603516 C186.948079,40.2750651 187.43457,40.7575684 187.769531,41.3078613 C188.104492,41.8581543 188.279948,42.4204102 188.295898,42.9946289 C188.311849,43.5688477 188.351725,43.8878581 188.415527,43.9516602 C188.479329,44.0154622 188.551107,44.0473633 188.630859,44.0473633 Z M220.296631,7.23754883 C220.830973,7.22957357 221.265625,6.95841471 221.600586,6.42407227 C221.935547,5.88972982 222.118978,5.33544922 222.150879,4.76123047 C222.230632,2.70361328 221.524821,1.44352214 220.033447,0.980957031 C218.542074,0.518391927 217.724609,0.287109375 217.581055,0.287109375 C217.198242,0.319010417 217.006836,0.398763021 217.006836,0.526367188 C217.006836,0.653971354 217.070638,0.797526042 217.198242,0.95703125 C217.533203,1.40364583 217.764486,1.72664388 217.89209,1.92602539 C218.019694,2.1254069 218.139323,2.40852865 218.250977,2.77539062 C218.36263,3.1422526 218.442383,3.64070638 218.490234,4.27075195 C218.538086,4.90079753 218.593913,5.37133789 218.657715,5.68237305 C218.721517,5.9934082 218.841146,6.27652995 219.016602,6.53173828 C219.335612,7.01025391 219.762288,7.24552409 220.296631,7.23754883 Z M227.426514,13.7094727 C227.48234,13.7892253 227.645833,13.6536458 227.916992,13.3027344 L227.916992,13.3027344 L228.515137,12.5371094 C229.121257,11.7714844 229.699463,11.2810059 230.249756,11.0656738 C230.800049,10.8503418 231.358317,10.6988118 231.924561,10.611084 C232.490804,10.5233561 232.873617,10.4635417 233.072998,10.4316406 C233.27238,10.3997396 233.388021,10.276123 233.419922,10.060791 C233.451823,9.84545898 233.308268,9.5304362 232.989258,9.11572266 L232.989258,9.11572266 L230.788086,6.48388672 C230.229818,5.82991536 229.898844,5.49894206 229.795166,5.4909668 C229.691488,5.48299154 229.480143,5.75813802 229.161133,6.31640625 L229.161133,6.31640625 L228.539062,7.39306641 L211.049316,7.39306641 C210.937663,6.94645182 210.845947,6.52775065 210.77417,6.13696289 C210.702393,5.74617513 210.642578,5.45507813 210.594727,5.26367188 C210.467122,4.92871094 210.351481,4.77319336 210.247803,4.79711914 C210.144124,4.82104492 210.060384,4.94466146 209.996582,5.16796875 L209.996582,5.16796875 L209.709473,6.31640625 C209.518066,7.08203125 209.103353,7.72802734 208.465332,8.25439453 L208.465332,8.25439453 L207.436523,9.06787109 C206.926107,9.59423828 206.662923,10.2561849 206.646973,11.0537109 C206.631022,11.8990885 206.830404,12.5251465 207.245117,12.9318848 C207.659831,13.338623 208.08252,13.5419922 208.513184,13.5419922 C209.103353,13.5579427 209.665609,13.2269694 210.199951,12.5490723 C210.734294,11.8711751 211.013428,11.2371419 211.037354,10.6469727 C211.061279,10.0568034 211.069255,9.66202799 211.061279,9.46264648 C211.053304,9.26326497 211.057292,9.00406901 211.073242,8.68505859 L211.073242,8.68505859 L228.61084,8.68505859 L227.414551,12.8242188 C227.350749,13.047526 227.322835,13.230957 227.330811,13.3745117 C227.338786,13.5180664 227.370687,13.6297201 227.426514,13.7094727 Z M220.069336,44.8608398 C221.074219,44.8767904 221.652425,44.7053223 221.803955,44.3464355 C221.955485,43.9875488 222.055176,43.7044271 222.103027,43.4970703 L222.103027,43.4970703 L221.983398,38.6401367 L221.983398,30.9360352 L222.19873,30.9360352 C222.629395,32.371582 222.952393,33.3924154 223.167725,33.9985352 C223.383057,34.6046549 223.690104,35.2426758 224.088867,35.9125977 C224.48763,36.5825195 225.317057,37.6472168 226.577148,39.1066895 C227.83724,40.5661621 229.053467,41.602946 230.22583,42.217041 C231.398193,42.8311361 232.040202,43.1302083 232.151855,43.1142578 C232.247559,43.1142578 232.335286,43.0544434 232.415039,42.9348145 C232.494792,42.8151855 232.66626,42.4961751 232.929443,41.9777832 C233.192627,41.4593913 233.42391,41.0686035 233.623291,40.8054199 C233.822673,40.5422363 234.057943,40.3229167 234.329102,40.1474609 L234.329102,40.1474609 L235.262207,39.5253906 C235.485514,39.3818359 235.59318,39.230306 235.585205,39.0708008 C235.57723,38.9112956 235.437663,38.8076172 235.166504,38.7597656 L235.166504,38.7597656 L234.209473,38.6401367 C233.858561,38.6082357 233.045085,38.4088542 231.769043,38.0419922 C230.493001,37.6751302 229.009603,36.9533691 227.318848,35.876709 C225.628092,34.8000488 224.559408,33.870931 224.112793,33.0893555 C223.666178,32.3077799 223.267415,31.5900065 222.916504,30.9360352 L222.916504,30.9360352 L234.831543,30.9360352 C234.911296,30.9360352 234.979085,30.8961589 235.034912,30.8164062 C235.090739,30.7366536 235.114665,30.6608887 235.106689,30.5891113 C235.098714,30.517334 235.066813,30.4256185 235.010986,30.3139648 C234.95516,30.2023112 234.823568,30.0188802 234.616211,29.7636719 L234.616211,29.7636719 L232.726074,27.6821289 C232.359212,27.2993164 232.131917,27.1118978 232.044189,27.119873 C231.956462,27.1278483 231.816895,27.3152669 231.625488,27.6821289 L231.625488,27.6821289 L230.500977,29.644043 L221.983398,29.644043 L221.983398,27.777832 L222.605469,26.9643555 C222.669271,26.8846029 222.753011,26.7530111 222.856689,26.5695801 C222.960368,26.3861491 223.016195,26.2744954 223.02417,26.2346191 C223.032145,26.1947428 222.996257,26.1349284 222.916504,26.0551758 C222.836751,25.9754232 222.63737,25.8797201 222.318359,25.7680664 L222.318359,25.7680664 L219.447266,24.8349609 L221.433105,23.4472656 C222.836751,24.1490885 223.837646,24.7073568 224.435791,25.1220703 C225.033936,25.5367839 225.667969,26.0551758 226.337891,26.6772461 L226.337891,26.6772461 L227.821289,28.112793 C228.953776,29.2133789 229.783203,29.1336263 230.30957,27.8735352 C230.453125,27.5385742 230.524902,27.1517741 230.524902,26.7131348 C230.524902,26.2744954 230.345459,25.7321777 229.986572,25.0861816 C229.627686,24.4401855 228.961751,23.8300781 227.98877,23.2558594 C227.015788,22.6816406 225.524414,22.0914714 223.514648,21.4853516 C224.567383,20.2252604 225.620117,18.8854167 226.672852,17.4658203 L226.672852,17.4658203 L227.127441,17.3461914 C227.462402,17.2664388 227.625895,17.1627604 227.61792,17.0351562 C227.609945,16.9075521 227.582031,16.8038737 227.53418,16.7241211 C227.486328,16.6443685 227.414551,16.5566406 227.318848,16.4609375 L227.318848,16.4609375 L226.768555,16.0063477 L232.367188,16.0063477 L232.367188,15.9824219 L234.44873,15.9824219 C234.879395,15.9824219 235.0389,15.862793 234.927246,15.6235352 C234.815592,15.3842773 234.656087,15.1450195 234.44873,14.9057617 L234.44873,14.9057617 L232.91748,13.1113281 C232.438965,12.5530599 232.151855,12.2699382 232.056152,12.2619629 C231.960449,12.2539876 231.737142,12.5371094 231.38623,13.1113281 L231.38623,13.1113281 L230.405273,14.7143555 L217.748535,14.7143555 L219.231934,12.0585938 L220.093262,11.6040039 C220.236816,11.5242513 220.356445,11.4205729 220.452148,11.2929688 C220.547852,11.1653646 220.595703,11.0736491 220.595703,11.0178223 C220.595703,10.9619954 220.56779,10.8862305 220.511963,10.7905273 C220.456136,10.6948242 220.292643,10.5672201 220.021484,10.4077148 L220.021484,10.4077148 L217.533203,9.02001953 C217.182292,8.8445638 216.990885,8.75284831 216.958984,8.74487305 C216.927083,8.73689779 216.879232,8.82861328 216.81543,9.02001953 L216.81543,9.02001953 L216.049805,11.1254883 C215.714844,12.034668 215.164551,13.230957 214.398926,14.7143555 L214.398926,14.7143555 L205.546387,14.7143555 C205.195475,14.7143555 205.039958,14.9296875 205.079834,15.3603516 C205.11971,15.7910156 205.275228,16.0063477 205.546387,16.0063477 L205.546387,16.0063477 L213.800781,16.0063477 L213.035156,17.3461914 L211.575684,19.6430664 C211.495931,19.8185221 211.460042,20.0418294 211.468018,20.3129883 C211.475993,20.5841471 211.667399,20.74764 212.042236,20.8034668 C212.417074,20.8592936 212.748047,20.8951823 213.035156,20.9111328 C213.322266,20.9270833 213.657227,20.9430339 214.040039,20.9589844 C216.177409,21.5332031 217.644857,21.987793 218.442383,22.3227539 C216.576172,23.8859049 214.725911,25.0263672 212.891602,25.7441406 C211.057292,26.4619141 209.805176,26.9005534 209.135254,27.0600586 L209.135254,27.0600586 L207.747559,27.4189453 L206.766602,27.6342773 C206.591146,27.745931 206.503418,27.8735352 206.503418,28.0170898 C206.487467,28.2563477 206.678874,28.3839518 207.077637,28.3999023 L207.077637,28.3999023 L207.532227,28.3520508 L208.824219,28.2324219 C209.430339,28.1845703 210.351481,28.0290527 211.587646,27.7658691 C212.823812,27.5026855 214.032064,27.1836751 215.212402,26.8088379 C216.392741,26.4340007 217.684733,25.8398438 219.088379,25.0263672 L219.088379,25.0263672 L219.088379,25.2416992 L219.231934,27.9213867 L219.231934,29.644043 L205.929199,29.644043 C205.578288,29.644043 205.42277,29.859375 205.462646,30.2900391 C205.502523,30.7207031 205.65804,30.9360352 205.929199,30.9360352 L205.929199,30.9360352 L217.4375,30.9360352 C216.783529,32.0206706 215.655029,33.5678711 214.052002,35.5776367 C212.448975,37.5874023 210.140137,39.6769206 207.125488,41.8461914 L207.125488,41.8461914 L206.048828,42.6357422 L205.402832,43.0185547 C205.275228,43.1142578 205.203451,43.1940104 205.1875,43.2578125 C205.171549,43.3216146 205.163574,43.4013672 205.163574,43.4970703 C205.147624,43.5449219 205.147624,43.6007487 205.163574,43.6645508 C205.179525,43.7283529 205.267253,43.7522786 205.426758,43.7363281 C205.554362,43.7363281 205.761719,43.672526 206.048828,43.5449219 L206.048828,43.5449219 L207.34082,42.9707031 C208.537109,42.4443359 210.180013,41.4912923 212.269531,40.1115723 C214.359049,38.7318522 216.67985,36.7420247 219.231934,34.1420898 L219.231934,34.1420898 L219.231934,39.1904297 L219.088379,44.0712891 C219.200033,44.3902995 219.319661,44.6016439 219.447266,44.7053223 C219.57487,44.8090007 219.782227,44.8608398 220.069336,44.8608398 Z M220.141113,20.671875 C219.806152,20.639974 217.923991,20.4166667 214.494629,20.0019531 L214.494629,20.0019531 L217.006836,16.0063477 L223.5625,16.0063477 C222.717122,17.6492513 221.57666,19.2044271 220.141113,20.671875 Z" id="限时购车新方案"></path>
        </g>
    </g>
</svg>