<svg width="108" height="115" viewBox="0 0 108 115" fill="none" xmlns="http://www.w3.org/2000/svg">
<g opacity="0.7">
<path d="M22.8333 82.3806H53.1667L57.6667 100.355C58.1667 102.685 58.5 104.682 58.5 106.013C58.5 109.009 56.3333 110.34 50.5 111.006V115C58 114.001 61.8333 113.669 66.8333 113.669C71.6667 113.669 75.5 114.001 83 115V111.006C74.6667 110.174 73.1667 108.842 70.8333 101.187L43.1667 0L12.5 99.356C9.33333 109.175 8.16667 110.34 0 111.006V115C5.5 114.334 8.5 114.168 12.6667 114.168C16.8333 114.168 20 114.334 25.3333 115V111.006C18.8333 110.507 16.6667 109.342 16.6667 106.013C16.6667 104.349 17.3333 101.187 18.1667 98.0246L22.8333 82.3806ZM24.3333 77.2214L39.1667 27.7931L51.8333 77.2214H24.3333Z" fill="white"/>
<path d="M98.2715 93.1172H96.6309C96.4759 93.1172 96.3848 92.9941 96.3574 92.748C96.3301 92.502 96.4212 92.3789 96.6309 92.3789H103.098L103.617 91.4629C103.663 91.39 103.695 91.349 103.713 91.3398C103.74 91.3216 103.795 91.3535 103.877 91.4355L105.271 92.8711C105.326 92.9349 105.363 92.985 105.381 93.0215C105.399 93.0488 105.408 93.0898 105.408 93.1445C105.408 93.1901 105.367 93.2402 105.285 93.2949L104.738 93.7324C104.337 95.209 104.032 96.321 103.822 97.0684C103.613 97.8158 103.38 98.5905 103.125 99.3926H104.615L105.012 98.668C105.066 98.5677 105.112 98.5176 105.148 98.5176C105.194 98.5085 105.271 98.554 105.381 98.6543L106.734 100.076C106.798 100.149 106.83 100.195 106.83 100.213C106.839 100.222 106.848 100.236 106.857 100.254C106.867 100.272 106.871 100.295 106.871 100.322C106.871 100.34 106.853 100.372 106.816 100.418L106.338 100.896C105.49 104.196 104.852 106.279 104.424 107.145L103.439 109.25C103.768 109.669 104.114 110.075 104.479 110.467C104.843 110.859 105.276 111.196 105.777 111.479C106.279 111.77 106.657 111.952 106.912 112.025L107.514 112.217C107.614 112.253 107.664 112.317 107.664 112.408C107.673 112.508 107.623 112.581 107.514 112.627L106.98 112.859C106.443 113.105 106.046 113.397 105.791 113.734L105.381 114.309C105.299 114.409 105.249 114.459 105.23 114.459C105.212 114.468 105.171 114.436 105.107 114.363L104.834 114.09C104.05 113.288 103.239 112.199 102.4 110.822C101.963 111.26 101.361 111.829 100.596 112.531C99.8301 113.233 98.6816 113.844 97.1504 114.363L96.4668 114.596C96.4303 114.614 96.3984 114.614 96.3711 114.596C96.3529 114.596 96.3392 114.577 96.3301 114.541C96.321 114.514 96.3118 114.473 96.3027 114.418C96.3027 114.363 96.3438 114.309 96.4258 114.254L97.0137 113.912C98.6178 112.992 100.163 111.442 101.648 109.264C101.293 108.316 100.947 107.29 100.609 106.188C100.272 105.085 100.053 103.927 99.9531 102.715L99.7207 100.254C99.6387 101.977 99.5293 103.558 99.3926 104.998C99.2559 106.429 98.9141 107.874 98.3672 109.332C97.8294 110.781 97.1504 111.925 96.3301 112.764C95.5189 113.602 94.9447 114.145 94.6074 114.391L94.1152 114.76C93.9876 114.851 93.9056 114.86 93.8691 114.787C93.8418 114.723 93.8281 114.664 93.8281 114.609C93.8372 114.555 93.8691 114.495 93.9238 114.432L94.4434 113.857C94.8991 113.356 95.4141 112.659 95.9883 111.766C96.5716 110.872 97.0547 109.487 97.4375 107.609C97.8203 105.723 98.0391 103.959 98.0938 102.318C98.1484 100.669 98.1895 98.9414 98.2168 97.1367C98.2441 95.3229 98.2578 94.4023 98.2578 94.375L98.2715 93.1172ZM103.084 93.1172H100.309C100.263 93.2174 100.222 93.2949 100.186 93.3496C100.158 93.4043 100.062 93.4818 99.8984 93.582C99.8711 94.4388 99.8574 95.0859 99.8574 95.5234C99.8574 95.9518 99.8711 96.7129 99.8984 97.8066C99.9349 98.9004 100.108 100.281 100.418 101.949C100.737 103.617 101.211 105.103 101.84 106.406L102.441 107.719C102.624 107.29 102.824 106.812 103.043 106.283C103.262 105.745 103.503 104.957 103.768 103.918C104.032 102.879 104.219 102.036 104.328 101.389C104.438 100.732 104.51 100.318 104.547 100.145H102.893L102.496 100.883C102.414 101.029 102.359 101.106 102.332 101.115C102.305 101.115 102.277 101.092 102.25 101.047L101.197 99.6523C101.17 99.6159 101.152 99.584 101.143 99.5566C101.133 99.5293 101.129 99.4974 101.129 99.4609C101.129 99.4154 101.152 99.3698 101.197 99.3242L101.457 99.1055C101.539 99.0417 101.598 98.9733 101.635 98.9004C101.671 98.8184 101.73 98.6178 101.812 98.2988L101.977 97.6426L103.084 93.1172ZM91.4355 97.957L94.1426 98.6133C94.3613 98.194 94.5026 97.9069 94.5664 97.752C94.6302 97.5879 94.7624 97.2552 94.9629 96.7539L95.4824 95.4141L95.5508 95.209C95.569 95.1816 95.6237 95.2135 95.7148 95.3047L97.4375 97.0137C97.5378 97.1139 97.5879 97.2005 97.5879 97.2734C97.5788 97.401 97.4967 97.4785 97.3418 97.5059L96.8223 97.6016C95.5645 99.625 94.7897 100.833 94.498 101.225L92.2832 104.314C93.1035 104.251 93.8783 104.191 94.6074 104.137C95.3457 104.082 95.8652 104.036 96.166 104L97.1641 103.891C97.2917 103.882 97.3555 103.932 97.3555 104.041C97.3646 104.15 97.3145 104.223 97.2051 104.26L96.248 104.629C94.1882 105.422 92.8346 105.973 92.1875 106.283L91.2715 106.721C91.071 106.821 90.9661 106.867 90.957 106.857C90.9479 106.848 90.9206 106.762 90.875 106.598L90.3008 104.67C90.2643 104.551 90.2507 104.474 90.2598 104.438C90.2689 104.365 90.2962 104.319 90.3418 104.301L90.6699 104.178C90.834 104.123 91.0527 103.986 91.3262 103.768C91.6087 103.549 92.2103 102.546 93.1309 100.76L93.9102 99.1875C92.9805 99.3242 92.1419 99.4974 91.3945 99.707L90.7656 99.8848L90.5879 99.9395C90.5514 99.9303 90.5241 99.8893 90.5059 99.8164L90.0273 97.875C90.0091 97.793 90 97.7292 90 97.6836C90 97.638 90.0501 97.5879 90.1504 97.5332L90.3965 97.4102C90.752 97.237 91.1986 96.4987 91.7363 95.1953C92.2741 93.8828 92.7389 92.5612 93.1309 91.2305L93.377 90.3828L93.4453 90.041C93.4544 90.0228 93.4635 90.0091 93.4727 90L93.623 90.123L95.4277 91.5176C95.5462 91.6178 95.6055 91.7227 95.6055 91.832C95.5964 91.9323 95.5508 91.9915 95.4688 92.0098L94.8672 92.2012C93.7188 94.179 92.5749 96.0977 91.4355 97.957ZM91.1348 110.057C93.5866 109.182 95.2181 108.576 96.0293 108.238L96.7266 107.951C96.7721 107.933 96.8223 107.938 96.877 107.965C96.9316 107.983 96.9544 108.038 96.9453 108.129C96.9362 108.22 96.8952 108.293 96.8223 108.348L96.2207 108.84C93.7962 110.781 92.4154 111.898 92.0781 112.189L91.2715 112.9C91.1257 113.037 91.0436 113.101 91.0254 113.092C91.0163 113.083 90.9935 113.019 90.957 112.9L90.3555 110.836L90.2324 110.426C90.2233 110.38 90.2324 110.339 90.2598 110.303L90.4102 110.275L91.1348 110.057Z" fill="white"/>
</g>
</svg>
