<svg width="91" height="115" viewBox="0 0 91 115" fill="none" xmlns="http://www.w3.org/2000/svg">
<path d="M0 0V4.31035C9.46835 5.17242 10.8456 6.55173 10.8456 15.6897V99.4828C10.8456 108.448 9.46835 109.828 0 110.862V115H34.2582C43.038 115 48.3747 113.966 53.0228 111.207C62.1468 105.862 68 94.4828 68 82.069C68 67.2414 60.5975 56.7241 47.5139 53.6207C58.1873 48.7931 63.6962 40 63.6962 27.931C63.6962 20.6897 61.2861 13.6207 57.3266 8.44828C52.8506 2.75863 45.7924 0 35.6354 0H0ZM23.5848 52.2414V5.34483H33.0532C37.8734 5.34483 41.6608 6.55173 44.0709 8.44828C47.8582 11.7241 50.2684 19.3104 50.2684 28.4483C50.2684 35.1724 49.0633 40.5172 46.8253 44.6552C43.7266 50.1724 39.4228 52.2414 30.8152 52.2414H23.5848ZM23.5848 57.5862H34.4304C40.2835 57.5862 44.7595 58.7931 47.5139 61.2069C51.8177 65 54.5722 73.4483 54.5722 82.4138C54.5722 99.6552 47.3418 109.655 34.9468 109.655H31.8481C24.962 109.655 23.5848 108.103 23.5848 100.862V57.5862Z" fill="white"/>
<path d="M81.2715 93.1172H79.6309C79.4759 93.1172 79.3848 92.9941 79.3574 92.748C79.3301 92.502 79.4212 92.3789 79.6309 92.3789H86.0977L86.6172 91.4629C86.6628 91.39 86.6947 91.349 86.7129 91.3398C86.7402 91.3216 86.7949 91.3535 86.877 91.4355L88.2715 92.8711C88.3262 92.9349 88.3626 92.985 88.3809 93.0215C88.3991 93.0488 88.4082 93.0898 88.4082 93.1445C88.4082 93.1901 88.3672 93.2402 88.2852 93.2949L87.7383 93.7324C87.3372 95.209 87.0319 96.321 86.8223 97.0684C86.6126 97.8158 86.3802 98.5905 86.125 99.3926H87.6152L88.0117 98.668C88.0664 98.5677 88.112 98.5176 88.1484 98.5176C88.194 98.5085 88.2715 98.554 88.3809 98.6543L89.7344 100.076C89.7982 100.149 89.8301 100.195 89.8301 100.213C89.8392 100.222 89.8483 100.236 89.8574 100.254C89.8665 100.272 89.8711 100.295 89.8711 100.322C89.8711 100.34 89.8529 100.372 89.8164 100.418L89.3379 100.896C88.4902 104.196 87.8522 106.279 87.4238 107.145L86.4395 109.25C86.7676 109.669 87.1139 110.075 87.4785 110.467C87.8431 110.859 88.276 111.196 88.7773 111.479C89.2786 111.77 89.6569 111.952 89.9121 112.025L90.5137 112.217C90.6139 112.253 90.6641 112.317 90.6641 112.408C90.6732 112.508 90.623 112.581 90.5137 112.627L89.9805 112.859C89.4427 113.105 89.0462 113.397 88.791 113.734L88.3809 114.309C88.2988 114.409 88.2487 114.459 88.2305 114.459C88.2122 114.468 88.1712 114.436 88.1074 114.363L87.834 114.09C87.0501 113.288 86.2389 112.199 85.4004 110.822C84.9629 111.26 84.3613 111.829 83.5957 112.531C82.8301 113.233 81.6816 113.844 80.1504 114.363L79.4668 114.596C79.4303 114.614 79.3984 114.614 79.3711 114.596C79.3529 114.596 79.3392 114.577 79.3301 114.541C79.321 114.514 79.3118 114.473 79.3027 114.418C79.3027 114.363 79.3438 114.309 79.4258 114.254L80.0137 113.912C81.6178 112.992 83.1628 111.442 84.6484 109.264C84.293 108.316 83.9466 107.29 83.6094 106.188C83.2721 105.085 83.0534 103.927 82.9531 102.715L82.7207 100.254C82.6387 101.977 82.5293 103.558 82.3926 104.998C82.2559 106.429 81.9141 107.874 81.3672 109.332C80.8294 110.781 80.1504 111.925 79.3301 112.764C78.5189 113.602 77.9447 114.145 77.6074 114.391L77.1152 114.76C76.9876 114.851 76.9056 114.86 76.8691 114.787C76.8418 114.723 76.8281 114.664 76.8281 114.609C76.8372 114.555 76.8691 114.495 76.9238 114.432L77.4434 113.857C77.8991 113.356 78.4141 112.659 78.9883 111.766C79.5716 110.872 80.0547 109.487 80.4375 107.609C80.8203 105.723 81.0391 103.959 81.0938 102.318C81.1484 100.669 81.1895 98.9414 81.2168 97.1367C81.2441 95.3229 81.2578 94.4023 81.2578 94.375L81.2715 93.1172ZM86.084 93.1172H83.3086C83.263 93.2174 83.222 93.2949 83.1855 93.3496C83.1582 93.4043 83.0625 93.4818 82.8984 93.582C82.8711 94.4388 82.8574 95.0859 82.8574 95.5234C82.8574 95.9518 82.8711 96.7129 82.8984 97.8066C82.9349 98.9004 83.1081 100.281 83.418 101.949C83.737 103.617 84.2109 105.103 84.8398 106.406L85.4414 107.719C85.6237 107.29 85.8242 106.812 86.043 106.283C86.2617 105.745 86.5033 104.957 86.7676 103.918C87.0319 102.879 87.2188 102.036 87.3281 101.389C87.4375 100.732 87.5104 100.318 87.5469 100.145H85.8926L85.4961 100.883C85.4141 101.029 85.3594 101.106 85.332 101.115C85.3047 101.115 85.2773 101.092 85.25 101.047L84.1973 99.6523C84.1699 99.6159 84.1517 99.584 84.1426 99.5566C84.1335 99.5293 84.1289 99.4974 84.1289 99.4609C84.1289 99.4154 84.1517 99.3698 84.1973 99.3242L84.457 99.1055C84.5391 99.0417 84.5983 98.9733 84.6348 98.9004C84.6712 98.8184 84.7305 98.6178 84.8125 98.2988L84.9766 97.6426L86.084 93.1172ZM74.4355 97.957L77.1426 98.6133C77.3613 98.194 77.5026 97.9069 77.5664 97.752C77.6302 97.5879 77.7624 97.2552 77.9629 96.7539L78.4824 95.4141L78.5508 95.209C78.569 95.1816 78.6237 95.2135 78.7148 95.3047L80.4375 97.0137C80.5378 97.1139 80.5879 97.2005 80.5879 97.2734C80.5788 97.401 80.4967 97.4785 80.3418 97.5059L79.8223 97.6016C78.5645 99.625 77.7897 100.833 77.498 101.225L75.2832 104.314C76.1035 104.251 76.8783 104.191 77.6074 104.137C78.3457 104.082 78.8652 104.036 79.166 104L80.1641 103.891C80.2917 103.882 80.3555 103.932 80.3555 104.041C80.3646 104.15 80.3145 104.223 80.2051 104.26L79.248 104.629C77.1882 105.422 75.8346 105.973 75.1875 106.283L74.2715 106.721C74.071 106.821 73.9661 106.867 73.957 106.857C73.9479 106.848 73.9206 106.762 73.875 106.598L73.3008 104.67C73.2643 104.551 73.2507 104.474 73.2598 104.438C73.2689 104.365 73.2962 104.319 73.3418 104.301L73.6699 104.178C73.834 104.123 74.0527 103.986 74.3262 103.768C74.6087 103.549 75.2103 102.546 76.1309 100.76L76.9102 99.1875C75.9805 99.3242 75.1419 99.4974 74.3945 99.707L73.7656 99.8848L73.5879 99.9395C73.5514 99.9303 73.5241 99.8893 73.5059 99.8164L73.0273 97.875C73.0091 97.793 73 97.7292 73 97.6836C73 97.638 73.0501 97.5879 73.1504 97.5332L73.3965 97.4102C73.752 97.237 74.1986 96.4987 74.7363 95.1953C75.2741 93.8828 75.7389 92.5612 76.1309 91.2305L76.377 90.3828L76.4453 90.041C76.4544 90.0228 76.4635 90.0091 76.4727 90L76.623 90.123L78.4277 91.5176C78.5462 91.6178 78.6055 91.7227 78.6055 91.832C78.5964 91.9323 78.5508 91.9915 78.4688 92.0098L77.8672 92.2012C76.7188 94.179 75.5749 96.0977 74.4355 97.957ZM74.1348 110.057C76.5866 109.182 78.2181 108.576 79.0293 108.238L79.7266 107.951C79.7721 107.933 79.8223 107.938 79.877 107.965C79.9316 107.983 79.9544 108.038 79.9453 108.129C79.9362 108.22 79.8952 108.293 79.8223 108.348L79.2207 108.84C76.7962 110.781 75.4154 111.898 75.0781 112.189L74.2715 112.9C74.1257 113.037 74.0436 113.101 74.0254 113.092C74.0163 113.083 73.9935 113.019 73.957 112.9L73.3555 110.836L73.2324 110.426C73.2233 110.38 73.2324 110.339 73.2598 110.303L73.4102 110.275L74.1348 110.057Z" fill="white"/>
</svg>
