<svg width="145" height="219" viewBox="0 0 145 219" fill="none" xmlns="http://www.w3.org/2000/svg">
<g opacity="0.7">
<path d="M113.83 143.679C111.933 182.289 96.1234 204.759 71.4602 204.759C41.7378 204.759 24.9794 169.947 24.9794 109.184C24.9794 45.5723 41.7378 10.1272 71.7763 10.1272C94.2262 10.1272 107.823 26.9003 114.779 62.6618H121.103V0.632938H116.044L107.506 18.3555C97.072 5.38004 85.3727 0 68.6144 0C26.8766 0 0 43.0405 0 109.816C0 175.327 26.8766 219 67.3496 219C100.234 219 121.419 190.517 123 143.679H113.83Z" fill="white"/>
<path d="M135.271 197.117H133.631C133.476 197.117 133.385 196.994 133.357 196.748C133.33 196.502 133.421 196.379 133.631 196.379H140.098L140.617 195.463C140.663 195.39 140.695 195.349 140.713 195.34C140.74 195.322 140.795 195.354 140.877 195.436L142.271 196.871C142.326 196.935 142.363 196.985 142.381 197.021C142.399 197.049 142.408 197.09 142.408 197.145C142.408 197.19 142.367 197.24 142.285 197.295L141.738 197.732C141.337 199.209 141.032 200.321 140.822 201.068C140.613 201.816 140.38 202.59 140.125 203.393H141.615L142.012 202.668C142.066 202.568 142.112 202.518 142.148 202.518C142.194 202.508 142.271 202.554 142.381 202.654L143.734 204.076C143.798 204.149 143.83 204.195 143.83 204.213C143.839 204.222 143.848 204.236 143.857 204.254C143.867 204.272 143.871 204.295 143.871 204.322C143.871 204.34 143.853 204.372 143.816 204.418L143.338 204.896C142.49 208.196 141.852 210.279 141.424 211.145L140.439 213.25C140.768 213.669 141.114 214.075 141.479 214.467C141.843 214.859 142.276 215.196 142.777 215.479C143.279 215.77 143.657 215.952 143.912 216.025L144.514 216.217C144.614 216.253 144.664 216.317 144.664 216.408C144.673 216.508 144.623 216.581 144.514 216.627L143.98 216.859C143.443 217.105 143.046 217.397 142.791 217.734L142.381 218.309C142.299 218.409 142.249 218.459 142.23 218.459C142.212 218.468 142.171 218.436 142.107 218.363L141.834 218.09C141.05 217.288 140.239 216.199 139.4 214.822C138.963 215.26 138.361 215.829 137.596 216.531C136.83 217.233 135.682 217.844 134.15 218.363L133.467 218.596C133.43 218.614 133.398 218.614 133.371 218.596C133.353 218.596 133.339 218.577 133.33 218.541C133.321 218.514 133.312 218.473 133.303 218.418C133.303 218.363 133.344 218.309 133.426 218.254L134.014 217.912C135.618 216.992 137.163 215.442 138.648 213.264C138.293 212.316 137.947 211.29 137.609 210.188C137.272 209.085 137.053 207.927 136.953 206.715L136.721 204.254C136.639 205.977 136.529 207.558 136.393 208.998C136.256 210.429 135.914 211.874 135.367 213.332C134.829 214.781 134.15 215.925 133.33 216.764C132.519 217.602 131.945 218.145 131.607 218.391L131.115 218.76C130.988 218.851 130.906 218.86 130.869 218.787C130.842 218.723 130.828 218.664 130.828 218.609C130.837 218.555 130.869 218.495 130.924 218.432L131.443 217.857C131.899 217.356 132.414 216.659 132.988 215.766C133.572 214.872 134.055 213.487 134.438 211.609C134.82 209.723 135.039 207.959 135.094 206.318C135.148 204.669 135.189 202.941 135.217 201.137C135.244 199.323 135.258 198.402 135.258 198.375L135.271 197.117ZM140.084 197.117H137.309C137.263 197.217 137.222 197.295 137.186 197.35C137.158 197.404 137.062 197.482 136.898 197.582C136.871 198.439 136.857 199.086 136.857 199.523C136.857 199.952 136.871 200.713 136.898 201.807C136.935 202.9 137.108 204.281 137.418 205.949C137.737 207.617 138.211 209.103 138.84 210.406L139.441 211.719C139.624 211.29 139.824 210.812 140.043 210.283C140.262 209.745 140.503 208.957 140.768 207.918C141.032 206.879 141.219 206.036 141.328 205.389C141.438 204.732 141.51 204.318 141.547 204.145H139.893L139.496 204.883C139.414 205.029 139.359 205.106 139.332 205.115C139.305 205.115 139.277 205.092 139.25 205.047L138.197 203.652C138.17 203.616 138.152 203.584 138.143 203.557C138.133 203.529 138.129 203.497 138.129 203.461C138.129 203.415 138.152 203.37 138.197 203.324L138.457 203.105C138.539 203.042 138.598 202.973 138.635 202.9C138.671 202.818 138.73 202.618 138.812 202.299L138.977 201.643L140.084 197.117ZM128.436 201.957L131.143 202.613C131.361 202.194 131.503 201.907 131.566 201.752C131.63 201.588 131.762 201.255 131.963 200.754L132.482 199.414L132.551 199.209C132.569 199.182 132.624 199.214 132.715 199.305L134.438 201.014C134.538 201.114 134.588 201.201 134.588 201.273C134.579 201.401 134.497 201.479 134.342 201.506L133.822 201.602C132.564 203.625 131.79 204.833 131.498 205.225L129.283 208.314C130.104 208.251 130.878 208.191 131.607 208.137C132.346 208.082 132.865 208.036 133.166 208L134.164 207.891C134.292 207.882 134.355 207.932 134.355 208.041C134.365 208.15 134.314 208.223 134.205 208.26L133.248 208.629C131.188 209.422 129.835 209.973 129.188 210.283L128.271 210.721C128.071 210.821 127.966 210.867 127.957 210.857C127.948 210.848 127.921 210.762 127.875 210.598L127.301 208.67C127.264 208.551 127.251 208.474 127.26 208.438C127.269 208.365 127.296 208.319 127.342 208.301L127.67 208.178C127.834 208.123 128.053 207.986 128.326 207.768C128.609 207.549 129.21 206.546 130.131 204.76L130.91 203.188C129.98 203.324 129.142 203.497 128.395 203.707L127.766 203.885L127.588 203.939C127.551 203.93 127.524 203.889 127.506 203.816L127.027 201.875C127.009 201.793 127 201.729 127 201.684C127 201.638 127.05 201.588 127.15 201.533L127.396 201.41C127.752 201.237 128.199 200.499 128.736 199.195C129.274 197.883 129.739 196.561 130.131 195.23L130.377 194.383L130.445 194.041C130.454 194.023 130.464 194.009 130.473 194L130.623 194.123L132.428 195.518C132.546 195.618 132.605 195.723 132.605 195.832C132.596 195.932 132.551 195.992 132.469 196.01L131.867 196.201C130.719 198.179 129.575 200.098 128.436 201.957ZM128.135 214.057C130.587 213.182 132.218 212.576 133.029 212.238L133.727 211.951C133.772 211.933 133.822 211.938 133.877 211.965C133.932 211.983 133.954 212.038 133.945 212.129C133.936 212.22 133.895 212.293 133.822 212.348L133.221 212.84C130.796 214.781 129.415 215.898 129.078 216.189L128.271 216.9C128.126 217.037 128.044 217.101 128.025 217.092C128.016 217.083 127.993 217.019 127.957 216.9L127.355 214.836L127.232 214.426C127.223 214.38 127.232 214.339 127.26 214.303L127.41 214.275L128.135 214.057Z" fill="white"/>
</g>
</svg>
