<svg width="102" height="138" viewBox="0 0 102 138" fill="none" xmlns="http://www.w3.org/2000/svg">
<g opacity="0.7">
<path d="M77.1981 104.69H73.267C68.7153 126 64.1636 131.586 51.1291 131.586H39.7498C31.267 131.586 28.9912 129.103 28.9912 119.379V69.5172H51.1291C58.7843 69.5172 60.8532 73.0345 61.4739 86.6897H65.6119V46.1379H61.4739C60.8532 60.2069 59.1981 63.1034 51.9567 63.1034H28.9912V6.41379H52.1636C63.5429 6.41379 67.267 11.1724 71.405 31.0345H75.336L72.4394 0H0.439453V5.17242C11.8188 6.2069 13.4739 7.86207 13.4739 18.8276V119.172C13.4739 130.138 11.8188 131.793 0.439453 132.828V138H73.267L77.1981 104.69Z" fill="white"/>
<path d="M92.219 116.134H90.5694C90.4136 116.134 90.3219 116.01 90.2944 115.763C90.267 115.516 90.3586 115.392 90.5694 115.392H97.0715L97.5938 114.471C97.6396 114.398 97.6717 114.356 97.69 114.347C97.7175 114.329 97.7725 114.361 97.855 114.443L99.2571 115.887C99.3121 115.951 99.3488 116.001 99.3671 116.038C99.3854 116.065 99.3946 116.107 99.3946 116.162C99.3946 116.208 99.3534 116.258 99.2709 116.313L98.721 116.753C98.3178 118.237 98.0108 119.355 97.8 120.107C97.5892 120.858 97.3555 121.637 97.0989 122.444H98.5973L98.996 121.715C99.0509 121.614 99.0968 121.564 99.1334 121.564C99.1792 121.555 99.2571 121.601 99.3671 121.702L100.728 123.131C100.792 123.204 100.824 123.25 100.824 123.269C100.833 123.278 100.843 123.292 100.852 123.31C100.861 123.328 100.865 123.351 100.865 123.379C100.865 123.397 100.847 123.429 100.81 123.475L100.329 123.956C99.4771 127.273 98.8356 129.367 98.4049 130.238L97.4151 132.355C97.745 132.777 98.0933 133.184 98.4598 133.578C98.8264 133.973 99.2617 134.312 99.7658 134.596C100.27 134.889 100.65 135.072 100.907 135.146L101.512 135.338C101.612 135.375 101.663 135.439 101.663 135.53C101.672 135.631 101.622 135.705 101.512 135.75L100.975 135.984C100.435 136.232 100.036 136.525 99.7795 136.864L99.3671 137.441C99.2846 137.542 99.2342 137.592 99.2159 137.592C99.1976 137.602 99.1563 137.57 99.0922 137.496L98.8173 137.221C98.0291 136.415 97.2135 135.32 96.3704 133.936C95.9305 134.376 95.3257 134.949 94.5558 135.654C93.786 136.36 92.6313 136.974 91.0917 137.496L90.4044 137.73C90.3678 137.748 90.3357 137.748 90.3082 137.73C90.2899 137.73 90.2761 137.712 90.267 137.675C90.2578 137.647 90.2486 137.606 90.2395 137.551C90.2395 137.496 90.2807 137.441 90.3632 137.386L90.9543 137.043C92.5672 136.117 94.1205 134.559 95.6143 132.369C95.2569 131.416 94.9087 130.385 94.5696 129.276C94.2305 128.167 94.0106 127.003 93.9098 125.784L93.6761 123.31C93.5936 125.042 93.4836 126.632 93.3462 128.08C93.2087 129.519 92.865 130.971 92.3152 132.437C91.7745 133.895 91.0917 135.045 90.267 135.888C89.4513 136.731 88.874 137.276 88.5349 137.524L88.04 137.895C87.9117 137.986 87.8292 137.996 87.7926 137.922C87.7651 137.858 87.7514 137.799 87.7514 137.744C87.7605 137.689 87.7926 137.629 87.8476 137.565L88.3699 136.988C88.8282 136.484 89.3459 135.782 89.9233 134.884C90.5098 133.986 90.9955 132.593 91.3804 130.705C91.7653 128.808 91.9853 127.035 92.0402 125.386C92.0952 123.727 92.1365 121.99 92.164 120.176C92.1915 118.352 92.2052 117.426 92.2052 117.399L92.219 116.134ZM97.0577 116.134H94.2672C94.2214 116.235 94.1801 116.313 94.1435 116.368C94.116 116.423 94.0197 116.501 93.8548 116.602C93.8273 117.463 93.8135 118.114 93.8135 118.554C93.8135 118.984 93.8273 119.75 93.8548 120.849C93.8914 121.949 94.0656 123.337 94.3771 125.014C94.6979 126.691 95.1744 128.185 95.8068 129.496L96.4116 130.815C96.5949 130.385 96.7965 129.904 97.0165 129.372C97.2364 128.831 97.4793 128.039 97.745 126.994C98.0108 125.949 98.1987 125.101 98.3086 124.451C98.4186 123.791 98.4919 123.374 98.5286 123.2H96.8653L96.4666 123.942C96.3841 124.089 96.3291 124.167 96.3016 124.176C96.2742 124.176 96.2467 124.153 96.2192 124.107L95.1607 122.705C95.1332 122.668 95.1149 122.636 95.1057 122.609C95.0965 122.581 95.092 122.549 95.092 122.513C95.092 122.467 95.1149 122.421 95.1607 122.375L95.4219 122.155C95.5044 122.091 95.5639 122.022 95.6006 121.949C95.6372 121.866 95.6968 121.665 95.7793 121.344L95.9442 120.684L97.0577 116.134ZM85.3457 121L88.0675 121.66C88.2875 121.239 88.4295 120.95 88.4937 120.794C88.5578 120.629 88.6907 120.295 88.8923 119.791L89.4147 118.444L89.4834 118.237C89.5017 118.21 89.5567 118.242 89.6484 118.334L91.3804 120.052C91.4812 120.153 91.5316 120.24 91.5316 120.313C91.5225 120.441 91.44 120.519 91.2842 120.547L90.7618 120.643C89.4972 122.678 88.7182 123.892 88.4249 124.286L86.198 127.393C87.0228 127.328 87.8018 127.269 88.5349 127.214C89.2772 127.159 89.7996 127.113 90.102 127.076L91.1055 126.966C91.2338 126.957 91.2979 127.008 91.2979 127.118C91.3071 127.228 91.2567 127.301 91.1467 127.338L90.1845 127.709C88.1133 128.506 86.7524 129.06 86.1018 129.372L85.1808 129.812C84.9791 129.913 84.8738 129.959 84.8646 129.949C84.8554 129.94 84.8279 129.853 84.7821 129.688L84.2048 127.75C84.1681 127.631 84.1544 127.553 84.1635 127.516C84.1727 127.443 84.2002 127.397 84.246 127.379L84.5759 127.255C84.7409 127.2 84.9608 127.063 85.2358 126.843C85.5198 126.623 86.1247 125.615 87.0503 123.818L87.8338 122.238C86.8991 122.375 86.056 122.549 85.3045 122.76L84.6721 122.939L84.4934 122.994C84.4568 122.985 84.4293 122.943 84.411 122.87L83.9298 120.918C83.9115 120.835 83.9023 120.771 83.9023 120.726C83.9023 120.68 83.9527 120.629 84.0536 120.574L84.301 120.451C84.6584 120.276 85.1074 119.534 85.6481 118.224C86.1888 116.904 86.6562 115.575 87.0503 114.237L87.2977 113.385L87.3665 113.041C87.3756 113.023 87.3848 113.009 87.3939 113L87.5452 113.124L89.3597 114.526C89.4788 114.627 89.5384 114.732 89.5384 114.842C89.5292 114.943 89.4834 115.002 89.4009 115.021L88.7961 115.213C87.6414 117.202 86.4913 119.131 85.3457 121ZM85.0433 133.166C87.5085 132.286 89.1489 131.677 89.9645 131.338L90.6656 131.049C90.7114 131.031 90.7618 131.035 90.8168 131.063C90.8718 131.081 90.8947 131.136 90.8855 131.228C90.8764 131.319 90.8351 131.393 90.7618 131.448L90.157 131.943C87.7193 133.895 86.3309 135.017 85.9918 135.311L85.1808 136.025C85.0341 136.163 84.9517 136.227 84.9333 136.218C84.9242 136.209 84.9013 136.144 84.8646 136.025L84.2598 133.95L84.136 133.537C84.1269 133.491 84.136 133.45 84.1635 133.413L84.3147 133.386L85.0433 133.166Z" fill="white"/>
</g>
</svg>
