<svg width="128" height="219" viewBox="0 0 128 219" fill="none" xmlns="http://www.w3.org/2000/svg">
<path d="M0.613281 150.622V219H5.3399L14.1629 199.148C26.137 211.753 38.4262 217.109 53.8665 217.109C83.8018 217.109 104.599 192.846 104.599 158.184C104.599 129.194 95.4608 115.645 61.4291 94.5324C28.973 74.3655 22.3557 66.4878 22.3557 47.8964C22.3557 27.0993 35.9054 10.7137 53.5514 10.7137C72.773 10.7137 84.432 25.5237 90.1039 57.9799H96.4061V0H91.6795L84.432 17.3309C75.609 6.30215 65.5255 1.26042 51.6608 1.26042C22.9859 1.26042 3.13415 23.6331 3.13415 56.0892C3.13415 83.5036 12.9025 96.423 50.4003 118.796C77.1845 134.866 85.0622 145.58 85.0622 166.377C85.0622 190.325 70.8823 207.341 50.7154 207.341C26.7672 207.341 11.6421 187.804 6.91544 150.622H0.613281Z" fill="black"/>
<path d="M118.271 197.117H116.631C116.476 197.117 116.385 196.994 116.357 196.748C116.33 196.502 116.421 196.379 116.631 196.379H123.098L123.617 195.463C123.663 195.39 123.695 195.349 123.713 195.34C123.74 195.322 123.795 195.354 123.877 195.436L125.271 196.871C125.326 196.935 125.363 196.985 125.381 197.021C125.399 197.049 125.408 197.09 125.408 197.145C125.408 197.19 125.367 197.24 125.285 197.295L124.738 197.732C124.337 199.209 124.032 200.321 123.822 201.068C123.613 201.816 123.38 202.59 123.125 203.393H124.615L125.012 202.668C125.066 202.568 125.112 202.518 125.148 202.518C125.194 202.508 125.271 202.554 125.381 202.654L126.734 204.076C126.798 204.149 126.83 204.195 126.83 204.213C126.839 204.222 126.848 204.236 126.857 204.254C126.867 204.272 126.871 204.295 126.871 204.322C126.871 204.34 126.853 204.372 126.816 204.418L126.338 204.896C125.49 208.196 124.852 210.279 124.424 211.145L123.439 213.25C123.768 213.669 124.114 214.075 124.479 214.467C124.843 214.859 125.276 215.196 125.777 215.479C126.279 215.77 126.657 215.952 126.912 216.025L127.514 216.217C127.614 216.253 127.664 216.317 127.664 216.408C127.673 216.508 127.623 216.581 127.514 216.627L126.98 216.859C126.443 217.105 126.046 217.397 125.791 217.734L125.381 218.309C125.299 218.409 125.249 218.459 125.23 218.459C125.212 218.468 125.171 218.436 125.107 218.363L124.834 218.09C124.05 217.288 123.239 216.199 122.4 214.822C121.963 215.26 121.361 215.829 120.596 216.531C119.83 217.233 118.682 217.844 117.15 218.363L116.467 218.596C116.43 218.614 116.398 218.614 116.371 218.596C116.353 218.596 116.339 218.577 116.33 218.541C116.321 218.514 116.312 218.473 116.303 218.418C116.303 218.363 116.344 218.309 116.426 218.254L117.014 217.912C118.618 216.992 120.163 215.442 121.648 213.264C121.293 212.316 120.947 211.29 120.609 210.188C120.272 209.085 120.053 207.927 119.953 206.715L119.721 204.254C119.639 205.977 119.529 207.558 119.393 208.998C119.256 210.429 118.914 211.874 118.367 213.332C117.829 214.781 117.15 215.925 116.33 216.764C115.519 217.602 114.945 218.145 114.607 218.391L114.115 218.76C113.988 218.851 113.906 218.86 113.869 218.787C113.842 218.723 113.828 218.664 113.828 218.609C113.837 218.555 113.869 218.495 113.924 218.432L114.443 217.857C114.899 217.356 115.414 216.659 115.988 215.766C116.572 214.872 117.055 213.487 117.438 211.609C117.82 209.723 118.039 207.959 118.094 206.318C118.148 204.669 118.189 202.941 118.217 201.137C118.244 199.323 118.258 198.402 118.258 198.375L118.271 197.117ZM123.084 197.117H120.309C120.263 197.217 120.222 197.295 120.186 197.35C120.158 197.404 120.062 197.482 119.898 197.582C119.871 198.439 119.857 199.086 119.857 199.523C119.857 199.952 119.871 200.713 119.898 201.807C119.935 202.9 120.108 204.281 120.418 205.949C120.737 207.617 121.211 209.103 121.84 210.406L122.441 211.719C122.624 211.29 122.824 210.812 123.043 210.283C123.262 209.745 123.503 208.957 123.768 207.918C124.032 206.879 124.219 206.036 124.328 205.389C124.438 204.732 124.51 204.318 124.547 204.145H122.893L122.496 204.883C122.414 205.029 122.359 205.106 122.332 205.115C122.305 205.115 122.277 205.092 122.25 205.047L121.197 203.652C121.17 203.616 121.152 203.584 121.143 203.557C121.133 203.529 121.129 203.497 121.129 203.461C121.129 203.415 121.152 203.37 121.197 203.324L121.457 203.105C121.539 203.042 121.598 202.973 121.635 202.9C121.671 202.818 121.73 202.618 121.812 202.299L121.977 201.643L123.084 197.117ZM111.436 201.957L114.143 202.613C114.361 202.194 114.503 201.907 114.566 201.752C114.63 201.588 114.762 201.255 114.963 200.754L115.482 199.414L115.551 199.209C115.569 199.182 115.624 199.214 115.715 199.305L117.438 201.014C117.538 201.114 117.588 201.201 117.588 201.273C117.579 201.401 117.497 201.479 117.342 201.506L116.822 201.602C115.564 203.625 114.79 204.833 114.498 205.225L112.283 208.314C113.104 208.251 113.878 208.191 114.607 208.137C115.346 208.082 115.865 208.036 116.166 208L117.164 207.891C117.292 207.882 117.355 207.932 117.355 208.041C117.365 208.15 117.314 208.223 117.205 208.26L116.248 208.629C114.188 209.422 112.835 209.973 112.188 210.283L111.271 210.721C111.071 210.821 110.966 210.867 110.957 210.857C110.948 210.848 110.921 210.762 110.875 210.598L110.301 208.67C110.264 208.551 110.251 208.474 110.26 208.438C110.269 208.365 110.296 208.319 110.342 208.301L110.67 208.178C110.834 208.123 111.053 207.986 111.326 207.768C111.609 207.549 112.21 206.546 113.131 204.76L113.91 203.188C112.98 203.324 112.142 203.497 111.395 203.707L110.766 203.885L110.588 203.939C110.551 203.93 110.524 203.889 110.506 203.816L110.027 201.875C110.009 201.793 110 201.729 110 201.684C110 201.638 110.05 201.588 110.15 201.533L110.396 201.41C110.752 201.237 111.199 200.499 111.736 199.195C112.274 197.883 112.739 196.561 113.131 195.23L113.377 194.383L113.445 194.041C113.454 194.023 113.464 194.009 113.473 194L113.623 194.123L115.428 195.518C115.546 195.618 115.605 195.723 115.605 195.832C115.596 195.932 115.551 195.992 115.469 196.01L114.867 196.201C113.719 198.179 112.575 200.098 111.436 201.957ZM111.135 214.057C113.587 213.182 115.218 212.576 116.029 212.238L116.727 211.951C116.772 211.933 116.822 211.938 116.877 211.965C116.932 211.983 116.954 212.038 116.945 212.129C116.936 212.22 116.895 212.293 116.822 212.348L116.221 212.84C113.796 214.781 112.415 215.898 112.078 216.189L111.271 216.9C111.126 217.037 111.044 217.101 111.025 217.092C111.016 217.083 110.993 217.019 110.957 216.9L110.355 214.836L110.232 214.426C110.223 214.38 110.232 214.339 110.26 214.303L110.41 214.275L111.135 214.057Z" fill="black"/>
</svg>
