<svg xmlns="http://www.w3.org/2000/svg" width="268" height="137" fill="none" viewBox="0 0 268 137">
    <path fill="#fff" d="M53.8 107.2L30 17.4c-.8-3.2-1.2-5.6-1.2-6.8 0-3.2 3.2-5 10-5.8V0C31.2 1 27 1.4 19.4 1.4 11.8 1.4 7.6 1 0 0v4.8c9.8 1 11.6 2.6 14.4 12.4l33 119.2h3.8l34-119.8c2.6-8.6 5.6-11 14.2-11.8V0C93.2.8 89.8 1 84 1c-5.6 0-8.8-.2-14.6-1v4.8c7.8.6 10.6 2.2 10.6 6 0 1.4-.8 5-1.8 9l-24.4 87.4zM132.102 36.2c-8 2.6-15.4 4.2-24.6 5.2v3.4c9.6.2 10.6 1.4 10.6 11.8v63.2c0 8.6-1.6 10.2-10.8 10.8v4c8.6-1 12.8-1.2 17.8-1.2 5.2 0 9.2.2 18 1.2v-4c-9.4-.6-11-2.2-11-10.8V36.2zm-7.4-34.2c-5.6 0-9.8 4.2-9.8 9.6 0 5.6 4.2 9.8 9.6 9.8 5.4 0 9.8-4.4 9.8-9.8 0-5.2-4.4-9.6-9.6-9.6zM196.981 124c-4.4 2.8-7.4 4-10.2 4-3 0-5.6-1.4-7-4-1.8-3.2-2.2-6-2.2-18.2V47h18v-7.4h-18V11h-4.4c-3 20.2-9.2 29.6-19.4 29.8V47h9.8l-.6 57v2.8c0 10.6 1 16.4 3.6 20.8 2.8 5.4 8.2 8.2 15 8.2 5 0 9.2-1.6 15.4-5.8v-6zM237.386 37.2c-19 0-32 20.4-32 49.6 0 29.2 12.8 49.4 31 49.4 18.4 0 31.4-20.8 31.4-49.6 0-15.6-4.4-31.2-11.2-39.6-5.2-6.6-11.6-9.8-19.2-9.8zm-.6 5.2c10.8 0 16.2 15.2 16.2 44.8 0 28.4-5.8 43.8-16.6 43.8s-16.2-14.8-16.2-43.8c0-29.2 5.8-44.8 16.6-44.8z"/>
</svg>
