<svg xmlns="http://www.w3.org/2000/svg" width="106" height="139" fill="none" viewBox="0 0 106 139">
    <path fill="#fff" d="M53.8 107.2L30 17.4c-.8-3.2-1.2-5.6-1.2-6.8 0-3.2 3.2-5 10-5.8V0C31.2 1 27 1.4 19.4 1.4 11.8 1.4 7.6 1 0 0v4.8c9.8 1 11.6 2.6 14.4 12.4l33 119.2h3.8l34-119.8c2.6-8.6 5.6-11 14.2-11.8V0C93.2.8 89.8 1 84 1c-5.6 0-8.8-.2-14.6-1v4.8c7.8.6 10.6 2.2 10.6 6 0 1.4-.8 5-1.8 9l-24.4 87.4zM96.52 116.678h-1.641c-.155 0-.246-.123-.273-.369-.028-.247.063-.37.273-.37h6.467l.519-.916c.046-.072.078-.113.096-.123.027-.018.082.014.164.096l1.395 1.436c.054.063.091.114.109.15.018.027.027.068.027.123 0 .046-.041.096-.123.15l-.547.438c-.401 1.477-.706 2.589-.916 3.336-.209.747-.442 1.522-.697 2.324h1.49l.397-.724c.054-.101.1-.151.136-.151.046-.009.124.037.233.137l1.353 1.422c.064.073.096.118.096.136.009.01.018.023.027.041.01.019.014.041.014.069 0 .018-.018.05-.055.096l-.478.478c-.848 3.3-1.486 5.382-1.914 6.248l-.984 2.106c.328.419.674.824 1.039 1.216.364.392.797.73 1.298 1.012.502.292.88.474 1.135.547l.602.191c.1.037.15.101.15.192.009.1-.041.173-.15.219l-.533.232c-.538.246-.935.538-1.19.875l-.41.574c-.082.1-.132.151-.15.151-.019.009-.06-.023-.124-.096l-.273-.274c-.784-.802-1.595-1.891-2.434-3.267-.437.437-1.039 1.007-1.804 1.709-.766.702-1.914 1.312-3.446 1.832l-.683.232c-.037.018-.069.018-.096 0-.018 0-.032-.018-.04-.054-.01-.028-.02-.069-.028-.123 0-.055.04-.11.123-.165l.588-.341c1.604-.921 3.149-2.47 4.635-4.649-.356-.948-.702-1.973-1.04-3.076-.337-1.103-.556-2.26-.656-3.473l-.232-2.461c-.082 1.723-.192 3.304-.328 4.745-.137 1.431-.479 2.875-1.026 4.334-.537 1.449-1.217 2.593-2.037 3.431-.811.839-1.385 1.381-1.722 1.627l-.493.369c-.127.091-.21.101-.246.028-.027-.064-.04-.123-.04-.178.008-.055.04-.114.095-.178l.52-.574c.455-.501.97-1.199 1.544-2.092.584-.893 1.067-2.278 1.45-4.156.382-1.887.601-3.65.656-5.291.055-1.65.096-3.377.123-5.182l.04-2.761.014-1.258zm4.812 0h-2.775c-.046.1-.087.177-.123.232-.028.055-.123.132-.287.233-.028.856-.041 1.503-.041 1.941 0 .428.013 1.189.04 2.283.037 1.094.21 2.475.52 4.143.319 1.668.793 3.153 1.422 4.457l.601 1.312c.183-.428.383-.907.602-1.435.219-.538.46-1.326.725-2.365.264-1.04.451-1.883.56-2.53.11-.656.182-1.071.219-1.244h-1.654l-.397.738c-.082.146-.137.224-.164.233-.027 0-.055-.023-.082-.069l-1.053-1.394c-.027-.037-.045-.068-.054-.096-.01-.027-.014-.059-.014-.096 0-.045.023-.091.068-.136l.26-.219c.082-.064.141-.132.178-.205.036-.082.096-.283.178-.602l.164-.656 1.107-4.525zm-11.648 4.84l2.707.656c.218-.419.36-.707.423-.862.064-.164.196-.496.397-.998l.52-1.339.068-.205c.018-.028.073.004.164.095l1.723 1.709c.1.1.15.187.15.26-.01.128-.091.205-.246.232l-.52.096c-1.257 2.024-2.032 3.231-2.324 3.623l-2.215 3.09c.82-.064 1.595-.123 2.325-.178.738-.054 1.257-.1 1.558-.136l.998-.11c.128-.009.191.041.191.151.01.109-.04.182-.15.218l-.957.369c-2.06.793-3.413 1.345-4.06 1.655l-.917.437c-.2.101-.305.146-.314.137-.009-.009-.036-.096-.082-.26l-.574-1.928c-.037-.118-.05-.195-.041-.232.009-.073.036-.118.082-.137l.328-.123c.164-.054.383-.191.656-.41.283-.219.884-1.221 1.805-3.008l.78-1.572c-.93.137-1.769.31-2.516.52l-.63.177-.177.055c-.037-.009-.064-.05-.082-.123l-.479-1.941c-.018-.082-.027-.146-.027-.192 0-.045.05-.096.15-.15l.246-.123c.356-.173.803-.912 1.34-2.215.538-1.313 1.003-2.634 1.395-3.965l.246-.848.068-.341c.01-.019.019-.032.028-.041l.15.123 1.805 1.394c.118.1.177.205.177.315-.009.1-.054.159-.136.177l-.602.192c-1.148 1.978-2.292 3.896-3.431 5.756zm-.301 12.099c2.452-.875 4.083-1.481 4.894-1.818l.698-.287c.045-.019.095-.014.15.013.055.019.078.073.068.164-.009.092-.05.165-.123.219l-.601.492c-2.425 1.942-3.806 3.058-4.143 3.35l-.806.711c-.146.137-.228.2-.247.191-.009-.009-.031-.073-.068-.191l-.602-2.065-.122-.41c-.01-.045 0-.086.027-.123l.15-.027.725-.219z"/>
</svg>
