<svg width="43" height="45" viewBox="0 0 43 45" fill="none" xmlns="http://www.w3.org/2000/svg">
<path d="M8.84276 32.1408H20.5901L22.3328 39.1534C22.5264 40.0624 22.6555 40.8416 22.6555 41.361C22.6555 42.5298 21.8164 43.0492 19.5573 43.309V44.8673C22.4619 44.4777 23.9464 44.3479 25.8828 44.3479C27.7546 44.3479 29.2392 44.4777 32.1437 44.8673V43.309C28.9165 42.9843 28.3356 42.4649 27.4319 39.478L16.7173 0L4.84093 38.7638C3.61456 42.5947 3.16274 43.0492 0 43.309V44.8673C2.13001 44.6076 3.29183 44.5427 4.90547 44.5427C6.51911 44.5427 7.74548 44.6076 9.81094 44.8673V43.309C7.29366 43.1142 6.45457 42.6597 6.45457 41.361C6.45457 40.7117 6.71275 39.478 7.03548 38.2444L8.84276 32.1408ZM9.42367 30.128L15.1682 10.8435L20.0737 30.128H9.42367Z" fill="white"/>
<path d="M37.9481 34.4879H37.165C37.0911 34.4879 37.0476 34.4292 37.0345 34.3117C37.0215 34.1942 37.065 34.1355 37.165 34.1355H40.2518L40.4998 33.6983C40.5215 33.6635 40.5367 33.6439 40.5454 33.6395C40.5585 33.6308 40.5846 33.6461 40.6238 33.6852L41.2894 34.3704C41.3155 34.4009 41.3329 34.4248 41.3416 34.4422C41.3503 34.4553 41.3547 34.4748 41.3547 34.5009C41.3547 34.5227 41.3351 34.5466 41.2959 34.5727L41.0349 34.7816C40.8435 35.4864 40.6977 36.0171 40.5977 36.3739C40.4976 36.7306 40.3866 37.1004 40.2648 37.4833H40.9762L41.1654 37.1374C41.1915 37.0895 41.2133 37.0656 41.2307 37.0656C41.2524 37.0613 41.2894 37.083 41.3416 37.1309L41.9877 37.8096C42.0181 37.8444 42.0333 37.8661 42.0333 37.8748C42.0377 37.8792 42.042 37.8857 42.0464 37.8944C42.0507 37.9031 42.0529 37.914 42.0529 37.927C42.0529 37.9357 42.0442 37.951 42.0268 37.9727L41.7984 38.2011C41.3938 39.776 41.0893 40.7701 40.8848 41.1834L40.4149 42.1884C40.5715 42.3885 40.7369 42.5821 40.9109 42.7692C41.0849 42.9563 41.2916 43.1173 41.5308 43.2521C41.7701 43.3914 41.9507 43.4784 42.0725 43.5132L42.3596 43.6045C42.4075 43.6219 42.4314 43.6524 42.4314 43.6959C42.4358 43.7438 42.4118 43.7786 42.3596 43.8003L42.1051 43.9112C41.8484 44.0287 41.6592 44.1679 41.5374 44.3289L41.3416 44.603C41.3024 44.6508 41.2785 44.6748 41.2698 44.6748C41.2611 44.6791 41.2415 44.6639 41.2111 44.6291L41.0806 44.4986C40.7064 44.1157 40.3192 43.5958 39.919 42.9389C39.7101 43.1477 39.423 43.4196 39.0575 43.7546C38.6921 44.0896 38.1439 44.3811 37.413 44.6291L37.0867 44.74C37.0693 44.7487 37.0541 44.7487 37.0411 44.74C37.0324 44.74 37.0258 44.7313 37.0215 44.7139C37.0171 44.7009 37.0128 44.6813 37.0084 44.6552C37.0084 44.6291 37.028 44.603 37.0672 44.5769L37.3478 44.4137C38.1135 43.9743 38.8509 43.2347 39.56 42.1949C39.3904 41.7425 39.225 41.253 39.0641 40.7266C38.9031 40.2002 38.7987 39.6477 38.7508 39.0691L38.6399 37.8944C38.6007 38.7167 38.5485 39.4715 38.4833 40.1589C38.418 40.8419 38.2549 41.5315 37.9938 42.2276C37.7371 42.9193 37.413 43.4653 37.0215 43.8656C36.6343 44.2658 36.3602 44.5247 36.1992 44.6421L35.9643 44.8183C35.9034 44.8619 35.8642 44.8662 35.8468 44.8314C35.8338 44.8009 35.8272 44.7727 35.8272 44.7466C35.8316 44.7205 35.8468 44.6922 35.8729 44.6617L36.1209 44.3876C36.3384 44.1484 36.5842 43.8155 36.8583 43.3892C37.1368 42.9628 37.3673 42.3015 37.5501 41.4053C37.7328 40.5047 37.8372 39.6629 37.8633 38.8798C37.8894 38.0924 37.909 37.2679 37.922 36.4065C37.9351 35.5407 37.9416 35.1013 37.9416 35.0883L37.9481 34.4879ZM40.2453 34.4879H38.9205C38.8988 34.5358 38.8792 34.5727 38.8618 34.5988C38.8487 34.6249 38.803 34.6619 38.7247 34.7098C38.7117 35.1187 38.7051 35.4276 38.7051 35.6365C38.7051 35.8409 38.7117 36.2042 38.7247 36.7263C38.7421 37.2483 38.8248 37.9075 38.9727 38.7036C39.125 39.4998 39.3512 40.2089 39.6514 40.831L39.9385 41.4575C40.0255 41.253 40.1213 41.0246 40.2257 40.7723C40.3301 40.5156 40.4454 40.1393 40.5715 39.6433C40.6977 39.1474 40.7869 38.7449 40.8391 38.436C40.8913 38.1228 40.9261 37.9249 40.9435 37.8422H40.1539L39.9646 38.1946C39.9255 38.2642 39.8994 38.3012 39.8863 38.3055C39.8733 38.3055 39.8602 38.2947 39.8472 38.2729L39.3447 37.6073C39.3316 37.5899 39.3229 37.5746 39.3186 37.5616C39.3142 37.5485 39.3121 37.5333 39.3121 37.5159C39.3121 37.4941 39.3229 37.4724 39.3447 37.4506L39.4687 37.3462C39.5078 37.3158 39.5361 37.2831 39.5535 37.2483C39.5709 37.2092 39.5992 37.1135 39.6383 36.9612L39.7167 36.648L40.2453 34.4879ZM34.6852 36.7981L35.9773 37.1113C36.0818 36.9112 36.1492 36.7741 36.1796 36.7002C36.2101 36.6219 36.2732 36.4631 36.3689 36.2238L36.6169 35.5842L36.6495 35.4864C36.6582 35.4733 36.6843 35.4885 36.7278 35.532L37.5501 36.3478C37.5979 36.3956 37.6219 36.437 37.6219 36.4718C37.6175 36.5327 37.5784 36.5696 37.5044 36.5827L37.2564 36.6284C36.656 37.5942 36.2862 38.1707 36.147 38.3577L35.0898 39.8326C35.4814 39.8021 35.8512 39.7738 36.1992 39.7477C36.5516 39.7216 36.7996 39.6999 36.9432 39.6825L37.4196 39.6303C37.4805 39.6259 37.5109 39.6499 37.5109 39.7021C37.5153 39.7543 37.4913 39.7891 37.4391 39.8065L36.9823 39.9827C35.9991 40.3612 35.353 40.6244 35.0441 40.7723L34.6069 40.9811C34.5112 41.029 34.4612 41.0507 34.4568 41.0464C34.4525 41.042 34.4394 41.0007 34.4177 40.9224L34.1436 40.0023C34.1262 39.9457 34.1196 39.9087 34.124 39.8913C34.1283 39.8565 34.1414 39.8348 34.1631 39.8261L34.3198 39.7673C34.3981 39.7412 34.5025 39.676 34.633 39.5715C34.7679 39.4671 35.055 38.9886 35.4944 38.1359L35.8664 37.3854C35.4226 37.4506 35.0224 37.5333 34.6656 37.6334L34.3654 37.7182L34.2806 37.7443C34.2632 37.74 34.2502 37.7204 34.2415 37.6856L34.0131 36.7589C34.0044 36.7197 34 36.6893 34 36.6675C34 36.6458 34.0239 36.6219 34.0718 36.5958L34.1893 36.537C34.3589 36.4544 34.5721 36.102 34.8288 35.4798C35.0855 34.8533 35.3073 34.2225 35.4944 33.5873L35.6119 33.1827L35.6445 33.0196C35.6489 33.0109 35.6532 33.0044 35.6576 33L35.7294 33.0587L36.5908 33.7244C36.6473 33.7722 36.6756 33.8223 36.6756 33.8745C36.6713 33.9223 36.6495 33.9506 36.6103 33.9593L36.3232 34.0507C35.775 34.9947 35.229 35.9105 34.6852 36.7981ZM34.5416 42.5734C35.712 42.1558 36.4907 41.8665 36.8779 41.7055L37.2107 41.5685C37.2325 41.5598 37.2564 41.5619 37.2825 41.575C37.3086 41.5837 37.3195 41.6098 37.3151 41.6533C37.3108 41.6968 37.2912 41.7316 37.2564 41.7577L36.9693 41.9926C35.812 42.9193 35.1529 43.4523 34.9919 43.5915L34.6069 43.9308C34.5373 43.9961 34.4981 44.0265 34.4894 44.0222C34.4851 44.0178 34.4742 43.9874 34.4568 43.9308L34.1697 42.9454L34.1109 42.7496C34.1066 42.7279 34.1109 42.7083 34.124 42.6909L34.1958 42.6779L34.5416 42.5734Z" fill="white"/>
</svg>
