<svg width="40" height="45" viewBox="0 0 40 45" fill="none" xmlns="http://www.w3.org/2000/svg">
<path d="M0 0V1.68666C3.71064 2.02399 4.25037 2.56372 4.25037 6.13943V38.928C4.25037 42.4363 3.71064 42.976 0 43.3808V45H13.4258C16.8666 45 18.958 44.5952 20.7796 43.5157C24.3553 41.4243 26.6492 36.9715 26.6492 32.1139C26.6492 26.3118 23.7481 22.1964 18.6207 20.982C22.8036 19.093 24.9625 15.6522 24.9625 10.9295C24.9625 8.09595 24.018 5.32984 22.4663 3.30585C20.7121 1.07946 17.946 0 13.9655 0H0ZM9.24288 20.4423V2.09146H12.9535C14.8426 2.09146 16.3268 2.56372 17.2714 3.30585C18.7556 4.58771 19.7001 7.55622 19.7001 11.1319C19.7001 13.7631 19.2279 15.8546 18.3508 17.4738C17.1364 19.6327 15.4498 20.4423 12.0765 20.4423H9.24288ZM9.24288 22.5337H13.4933C15.7871 22.5337 17.5412 23.006 18.6207 23.9505C20.3073 25.4348 21.3868 28.7406 21.3868 32.2489C21.3868 38.9955 18.5532 42.9085 13.6957 42.9085H12.4813C9.78261 42.9085 9.24288 42.3013 9.24288 39.4678V22.5337Z" fill="white"/>
<path d="M34.9489 34.1223H34.1583C34.0836 34.1223 34.0397 34.063 34.0265 33.9444C34.0134 33.8258 34.0573 33.7665 34.1583 33.7665H37.2747L37.525 33.3251C37.547 33.2899 37.5624 33.2702 37.5712 33.2658C37.5843 33.257 37.6107 33.2724 37.6502 33.3119L38.3222 34.0037C38.3486 34.0344 38.3662 34.0586 38.375 34.0762C38.3837 34.0894 38.3881 34.1091 38.3881 34.1355C38.3881 34.1574 38.3684 34.1816 38.3288 34.2079L38.0653 34.4188C37.872 35.1303 37.7249 35.6662 37.6239 36.0264C37.5228 36.3865 37.4108 36.7599 37.2879 37.1464H38.006L38.1971 36.7972C38.2234 36.7489 38.2454 36.7248 38.263 36.7248C38.2849 36.7204 38.3222 36.7423 38.375 36.7906L39.0272 37.4758C39.058 37.511 39.0733 37.5329 39.0733 37.5417C39.0777 37.5461 39.0821 37.5527 39.0865 37.5615C39.0909 37.5703 39.0931 37.5813 39.0931 37.5944C39.0931 37.6032 39.0843 37.6186 39.0667 37.6406L38.8362 37.8712C38.4277 39.4612 38.1202 40.4648 37.9138 40.8821L37.4394 41.8967C37.5975 42.0988 37.7644 42.2942 37.9401 42.4831C38.1158 42.672 38.3244 42.8345 38.566 42.9707C38.8076 43.1112 38.9899 43.1991 39.1129 43.2342L39.4028 43.3264C39.4511 43.344 39.4752 43.3747 39.4752 43.4187C39.4796 43.467 39.4555 43.5021 39.4028 43.5241L39.1458 43.6361C38.8867 43.7547 38.6956 43.8952 38.5726 44.0578L38.375 44.3345C38.3354 44.3828 38.3113 44.4069 38.3025 44.4069C38.2937 44.4113 38.2739 44.396 38.2432 44.3608L38.1114 44.2291C37.7337 43.8425 37.3428 43.3176 36.9387 42.6544C36.7278 42.8652 36.4379 43.1398 36.069 43.478C35.7 43.8162 35.1466 44.1105 34.4087 44.3608L34.0793 44.4728C34.0617 44.4816 34.0463 44.4816 34.0331 44.4728C34.0243 44.4728 34.0178 44.464 34.0134 44.4465C34.009 44.4333 34.0046 44.4135 34.0002 44.3872C34.0002 44.3608 34.02 44.3345 34.0595 44.3081L34.3428 44.1434C35.1158 43.6998 35.8603 42.9531 36.5763 41.9033C36.405 41.4465 36.2381 40.9524 36.0756 40.4209C35.9131 39.8894 35.8076 39.3316 35.7593 38.7474L35.6473 37.5615C35.6078 38.3916 35.5551 39.1537 35.4892 39.8477C35.4233 40.5373 35.2586 41.2335 34.9951 41.9363C34.7359 42.6346 34.4087 43.1859 34.0134 43.59C33.6224 43.9941 33.3457 44.2554 33.1832 44.374L32.946 44.5519C32.8845 44.5958 32.845 44.6002 32.8274 44.5651C32.8143 44.5343 32.8077 44.5058 32.8077 44.4794C32.8121 44.4531 32.8274 44.4245 32.8538 44.3938L33.1042 44.1171C33.3238 43.8755 33.5719 43.5395 33.8487 43.109C34.1298 42.6786 34.3626 42.0109 34.547 41.1061C34.7315 40.1969 34.8369 39.347 34.8633 38.5564C34.8896 37.7613 34.9094 36.929 34.9226 36.0593C34.9358 35.1852 34.9423 34.7416 34.9423 34.7284L34.9489 34.1223ZM37.2681 34.1223H35.9306C35.9087 34.1706 35.8889 34.2079 35.8713 34.2343C35.8581 34.2607 35.812 34.298 35.733 34.3463C35.7198 34.7592 35.7132 35.071 35.7132 35.2819C35.7132 35.4883 35.7198 35.8551 35.733 36.3822C35.7505 36.9092 35.834 37.5747 35.9833 38.3785C36.1371 39.1823 36.3655 39.8982 36.6685 40.5263L36.9584 41.1588C37.0463 40.9524 37.1429 40.7218 37.2483 40.467C37.3537 40.2079 37.4701 39.8279 37.5975 39.3272C37.7249 38.8265 37.8149 38.4202 37.8676 38.1083C37.9203 37.7921 37.9555 37.5922 37.9731 37.5088H37.1758L36.9848 37.8646C36.9453 37.9348 36.9189 37.9722 36.9057 37.9766C36.8925 37.9766 36.8794 37.9656 36.8662 37.9436L36.3589 37.2716C36.3457 37.254 36.3369 37.2387 36.3325 37.2255C36.3281 37.2123 36.3259 37.1969 36.3259 37.1794C36.3259 37.1574 36.3369 37.1354 36.3589 37.1135L36.4841 37.0081C36.5236 36.9773 36.5521 36.9444 36.5697 36.9092C36.5873 36.8697 36.6158 36.7731 36.6554 36.6193L36.7344 36.3031L37.2681 34.1223ZM31.6547 36.4546L32.9592 36.7709C33.0646 36.5688 33.1327 36.4305 33.1635 36.3558C33.1942 36.2767 33.2579 36.1164 33.3545 35.8748L33.6049 35.2292L33.6378 35.1303C33.6466 35.1172 33.673 35.1325 33.7169 35.1765L34.547 36C34.5954 36.0483 34.6195 36.0901 34.6195 36.1252C34.6151 36.1867 34.5756 36.224 34.5009 36.2372L34.2506 36.2833C33.6444 37.2584 33.2711 37.8404 33.1305 38.0293L32.0632 39.5183C32.4585 39.4875 32.8318 39.459 33.1832 39.4326C33.539 39.4063 33.7894 39.3843 33.9343 39.3667L34.4153 39.314C34.4768 39.3096 34.5075 39.3338 34.5075 39.3865C34.5119 39.4392 34.4877 39.4744 34.435 39.4919L33.9738 39.6698C32.9812 40.0519 32.3289 40.3177 32.0171 40.467L31.5756 40.6779C31.479 40.7262 31.4285 40.7481 31.4241 40.7437C31.4197 40.7393 31.4065 40.6976 31.3846 40.6186L31.1078 39.6896C31.0903 39.6325 31.0837 39.5951 31.0881 39.5776C31.0925 39.5424 31.1056 39.5205 31.1276 39.5117L31.2857 39.4524C31.3648 39.426 31.4702 39.3602 31.602 39.2547C31.7381 39.1493 32.028 38.6662 32.4717 37.8053L32.8472 37.0476C32.3992 37.1135 31.9951 37.1969 31.6349 37.298L31.3318 37.3836L31.2462 37.41C31.2286 37.4056 31.2154 37.3858 31.2067 37.3507L30.9761 36.4151C30.9673 36.3756 30.9629 36.3448 30.9629 36.3229C30.9629 36.3009 30.987 36.2767 31.0354 36.2504L31.154 36.1911C31.3253 36.1076 31.5405 35.7519 31.7996 35.1237C32.0588 34.4913 32.2828 33.8544 32.4717 33.2131L32.5903 32.8046L32.6232 32.6399C32.6276 32.6311 32.632 32.6245 32.6364 32.6201L32.7088 32.6794L33.5785 33.3514C33.6356 33.3998 33.6642 33.4503 33.6642 33.503C33.6598 33.5513 33.6378 33.5798 33.5983 33.5886L33.3084 33.6809C32.755 34.634 32.2037 35.5586 31.6547 36.4546ZM31.5097 42.2854C32.6913 41.8638 33.4775 41.5717 33.8684 41.4092L34.2044 41.2708C34.2264 41.262 34.2506 41.2642 34.2769 41.2774C34.3033 41.2862 34.3142 41.3125 34.3098 41.3565C34.3055 41.4004 34.2857 41.4355 34.2506 41.4619L33.9607 41.6991C32.7923 42.6346 32.1269 43.1727 31.9643 43.3133L31.5756 43.6559C31.5053 43.7217 31.4658 43.7525 31.457 43.7481C31.4526 43.7437 31.4417 43.713 31.4241 43.6559L31.1342 42.661L31.0749 42.4633C31.0705 42.4414 31.0749 42.4216 31.0881 42.404L31.1605 42.3909L31.5097 42.2854Z" fill="white"/>
</svg>
