<svg width="35" height="45" viewBox="0 0 35 45" fill="none" xmlns="http://www.w3.org/2000/svg">
<path d="M23.2124 29.2735C22.8256 37.1399 19.6016 41.7179 14.5722 41.7179C8.51122 41.7179 5.09384 34.6252 5.09384 22.2452C5.09384 9.28497 8.51122 2.06333 14.6367 2.06333C19.2147 2.06333 21.9873 5.48071 23.4059 12.7668H24.6954V0.128956H23.6638L21.9229 3.73978C19.795 1.09614 17.4093 0 13.9919 0C5.48071 0 0 8.76914 0 22.3742C0 35.7214 5.48071 44.6194 13.734 44.6194C20.4398 44.6194 24.7599 38.8163 25.0823 29.2735H23.2124Z" fill="white"/>
<path d="M30.6025 34.9972H29.8469C29.7755 34.9972 29.7336 34.9405 29.721 34.8272C29.7084 34.7138 29.7504 34.6572 29.8469 34.6572H32.8253L33.0646 34.2353C33.0855 34.2017 33.1002 34.1828 33.1086 34.1786C33.1212 34.1702 33.1464 34.1849 33.1842 34.2227L33.8265 34.8838C33.8517 34.9132 33.8684 34.9363 33.8768 34.9531C33.8852 34.9657 33.8894 34.9846 33.8894 35.0098C33.8894 35.0308 33.8705 35.0539 33.8328 35.079L33.5809 35.2805C33.3962 35.9606 33.2556 36.4727 33.159 36.817C33.0625 37.1612 32.9554 37.518 32.8379 37.8874H33.5242L33.7068 37.5537C33.732 37.5075 33.753 37.4844 33.7698 37.4844C33.7908 37.4802 33.8265 37.5012 33.8768 37.5474L34.5002 38.2022C34.5296 38.2358 34.5443 38.2568 34.5443 38.2652C34.5485 38.2694 34.5527 38.2757 34.5569 38.2841C34.5611 38.2925 34.5632 38.303 34.5632 38.3156C34.5632 38.324 34.5548 38.3387 34.538 38.3597L34.3176 38.5801C33.9272 40.0997 33.6334 41.0589 33.4361 41.4577L32.9827 42.4274C33.1338 42.6205 33.2933 42.8073 33.4613 42.9878C33.6292 43.1683 33.8286 43.3236 34.0594 43.4538C34.2903 43.5881 34.4645 43.672 34.5821 43.7056L34.8591 43.7938C34.9053 43.8106 34.9284 43.84 34.9284 43.8819C34.9326 43.9281 34.9095 43.9617 34.8591 43.9827L34.6136 44.0897C34.3659 44.2031 34.1833 44.3374 34.0657 44.4927L33.8768 44.7572C33.8391 44.8034 33.816 44.8265 33.8076 44.8265C33.7992 44.8307 33.7803 44.816 33.7509 44.7824L33.625 44.6564C33.264 44.287 32.8903 43.7854 32.5041 43.1515C32.3026 43.353 32.0256 43.6154 31.673 43.9386C31.3204 44.2618 30.7914 44.5431 30.0862 44.7824L29.7713 44.8894C29.7546 44.8978 29.7399 44.8978 29.7273 44.8894C29.7189 44.8894 29.7126 44.881 29.7084 44.8642C29.7042 44.8516 29.7 44.8328 29.6958 44.8076C29.6958 44.7824 29.7147 44.7572 29.7525 44.732L30.0232 44.5746C30.762 44.1506 31.4736 43.437 32.1578 42.4337C31.9941 41.9971 31.8346 41.5248 31.6793 41.0169C31.5239 40.509 31.4232 39.9758 31.377 39.4175L31.27 38.2841C31.2322 39.0775 31.1818 39.8058 31.1189 40.4691C31.0559 41.1281 30.8985 41.7935 30.6466 42.4652C30.3989 43.1326 30.0862 43.6595 29.7084 44.0457C29.3348 44.4319 29.0703 44.6816 28.915 44.795L28.6883 44.965C28.6295 45.007 28.5917 45.0112 28.575 44.9776C28.5624 44.9482 28.5561 44.9209 28.5561 44.8957C28.5603 44.8705 28.575 44.8432 28.6001 44.8139L28.8394 44.5494C29.0493 44.3185 29.2865 43.9974 29.551 43.586C29.8196 43.1746 30.0421 42.5365 30.2184 41.6718C30.3947 40.8028 30.4955 39.9905 30.5207 39.2349C30.5458 38.4751 30.5647 37.6796 30.5773 36.8484C30.5899 36.0131 30.5962 35.5891 30.5962 35.5765L30.6025 34.9972ZM32.819 34.9972H31.5407C31.5197 35.0434 31.5009 35.079 31.4841 35.1042C31.4715 35.1294 31.4274 35.1651 31.3518 35.2113C31.3392 35.6059 31.3329 35.9039 31.3329 36.1054C31.3329 36.3027 31.3392 36.6532 31.3518 37.157C31.3686 37.6607 31.4484 38.2967 31.5911 39.0649C31.738 39.8331 31.9563 40.5174 32.246 41.1177L32.523 41.7221C32.607 41.5248 32.6993 41.3045 32.8001 41.061C32.9008 40.8133 33.0121 40.4502 33.1338 39.9716C33.2556 39.4931 33.3416 39.1048 33.392 38.8067C33.4424 38.5045 33.4759 38.3135 33.4927 38.2337H32.7308L32.5482 38.5738C32.5104 38.6409 32.4853 38.6766 32.4727 38.6808C32.4601 38.6808 32.4475 38.6703 32.4349 38.6493L31.95 38.007C31.9374 37.9903 31.929 37.9756 31.9248 37.963C31.9206 37.9504 31.9185 37.9357 31.9185 37.9189C31.9185 37.8979 31.929 37.8769 31.95 37.8559L32.0697 37.7552C32.1074 37.7258 32.1347 37.6943 32.1515 37.6607C32.1683 37.6229 32.1956 37.5306 32.2334 37.3837L32.3089 37.0814L32.819 34.9972ZM27.4541 37.2262L28.7009 37.5285C28.8016 37.3354 28.8667 37.2032 28.8961 37.1318C28.9255 37.0562 28.9863 36.903 29.0787 36.6721L29.318 36.055L29.3495 35.9606C29.3579 35.948 29.383 35.9627 29.425 36.0047L30.2184 36.7918C30.2646 36.8379 30.2877 36.8778 30.2877 36.9114C30.2835 36.9702 30.2457 37.0059 30.1743 37.0185L29.9351 37.0625C29.3558 37.9945 28.9989 38.5507 28.8646 38.7312L27.8445 40.1542C28.2223 40.1249 28.5792 40.0976 28.915 40.0724C29.255 40.0472 29.4943 40.0262 29.6328 40.0094L30.0925 39.959C30.1512 39.9548 30.1806 39.9779 30.1806 40.0283C30.1848 40.0787 30.1617 40.1123 30.1114 40.1291L29.6706 40.2991C28.7219 40.6643 28.0985 40.9183 27.8005 41.061L27.3786 41.2625C27.2862 41.3087 27.2379 41.3296 27.2337 41.3254C27.2295 41.3212 27.217 41.2814 27.196 41.2058L26.9315 40.318C26.9147 40.2634 26.9084 40.2277 26.9126 40.2109C26.9168 40.1773 26.9294 40.1563 26.9504 40.1479L27.1015 40.0913C27.1771 40.0661 27.2778 40.0031 27.4038 39.9024C27.5339 39.8016 27.8109 39.3399 28.2349 38.5171L28.5938 37.793C28.1657 37.8559 27.7795 37.9357 27.4352 38.0322L27.1456 38.1141L27.0637 38.1393C27.0469 38.1351 27.0343 38.1162 27.0259 38.0826L26.8056 37.1885C26.7972 37.1507 26.793 37.1213 26.793 37.1003C26.793 37.0793 26.8161 37.0562 26.8622 37.031L26.9756 36.9744C27.1393 36.8946 27.345 36.5546 27.5927 35.9543C27.8403 35.3498 28.0544 34.7411 28.2349 34.1282L28.3483 33.7378L28.3798 33.5804C28.384 33.572 28.3882 33.5657 28.3923 33.5615L28.4616 33.6182L29.2928 34.2605C29.3474 34.3066 29.3746 34.3549 29.3746 34.4053C29.3704 34.4515 29.3495 34.4788 29.3117 34.4871L29.0346 34.5753C28.5057 35.4862 27.9789 36.3699 27.4541 37.2262ZM27.3156 42.7989C28.4448 42.3959 29.1962 42.1167 29.5698 41.9614L29.891 41.8292C29.912 41.8208 29.9351 41.8229 29.9602 41.8355C29.9854 41.8439 29.9959 41.8691 29.9917 41.911C29.9875 41.953 29.9686 41.9866 29.9351 42.0118L29.658 42.2385C28.5414 43.1326 27.9054 43.6469 27.7501 43.7812L27.3786 44.1086C27.3114 44.1716 27.2736 44.201 27.2652 44.1968C27.261 44.1926 27.2505 44.1632 27.2337 44.1086L26.9567 43.1578L26.9 42.9689C26.8958 42.9479 26.9 42.929 26.9126 42.9122L26.9819 42.8996L27.3156 42.7989Z" fill="white"/>
</svg>
