<svg width="38" height="45" viewBox="0 0 38 45" fill="none" xmlns="http://www.w3.org/2000/svg">
<path d="M24.792 33.8134H23.5224C22.0522 40.6964 20.5821 42.5006 16.3721 42.5006H12.6967C9.95691 42.5006 9.22183 41.6987 9.22183 38.558V22.4532H16.3721C18.8446 22.4532 19.5129 23.5892 19.7133 27.9996H21.0498V14.9019H19.7133C19.5129 19.446 18.9783 20.3816 16.6394 20.3816H9.22183V2.07157H16.7062C20.3816 2.07157 21.5844 3.60854 22.9209 10.0237H24.1906L23.2551 0H0V1.67062C3.67537 2.00475 4.20997 2.53935 4.20997 6.08106V38.4911C4.20997 42.0328 3.67537 42.5674 0 42.9016V44.5722H23.5224L24.792 33.8134Z" fill="white"/>
<path d="M33.3886 34.6334H32.6055C32.5315 34.6334 32.488 34.5747 32.475 34.4572C32.4619 34.3397 32.5054 34.281 32.6055 34.281H35.6922L35.9402 33.8438C35.9619 33.809 35.9772 33.7894 35.9859 33.785C35.9989 33.7763 36.025 33.7916 36.0642 33.8307L36.7298 34.5159C36.7559 34.5464 36.7733 34.5703 36.782 34.5877C36.7907 34.6008 36.7951 34.6204 36.7951 34.6465C36.7951 34.6682 36.7755 34.6921 36.7363 34.7182L36.4753 34.9271C36.2839 35.6319 36.1381 36.1626 36.0381 36.5194C35.938 36.8761 35.8271 37.2459 35.7053 37.6288H36.4166L36.6058 37.2829C36.6319 37.2351 36.6537 37.2111 36.6711 37.2111C36.6928 37.2068 36.7298 37.2285 36.782 37.2764L37.4281 37.9551C37.4585 37.9899 37.4738 38.0116 37.4738 38.0203C37.4781 38.0247 37.4825 38.0312 37.4868 38.0399C37.4912 38.0486 37.4933 38.0595 37.4933 38.0725C37.4933 38.0812 37.4846 38.0965 37.4672 38.1182L37.2388 38.3466C36.8342 39.9215 36.5297 40.9156 36.3252 41.3289L35.8554 42.3339C36.012 42.5341 36.1773 42.7277 36.3513 42.9147C36.5253 43.1018 36.732 43.2628 36.9713 43.3976C37.2106 43.5369 37.3911 43.6239 37.5129 43.6587L37.8001 43.75C37.8479 43.7674 37.8718 43.7979 37.8718 43.8414C37.8762 43.8893 37.8523 43.9241 37.8001 43.9458L37.5456 44.0568C37.2889 44.1742 37.0996 44.3134 36.9778 44.4744L36.782 44.7485C36.7429 44.7964 36.7189 44.8203 36.7102 44.8203C36.7015 44.8246 36.682 44.8094 36.6515 44.7746L36.521 44.6441C36.1468 44.2612 35.7596 43.7413 35.3594 43.0844C35.1506 43.2932 34.8634 43.5651 34.498 43.9001C34.1325 44.2351 33.5844 44.5266 32.8535 44.7746L32.5272 44.8855C32.5098 44.8942 32.4945 44.8942 32.4815 44.8855C32.4728 44.8855 32.4663 44.8768 32.4619 44.8594C32.4576 44.8464 32.4532 44.8268 32.4489 44.8007C32.4489 44.7746 32.4684 44.7485 32.5076 44.7224L32.7882 44.5592C33.5539 44.1198 34.2913 43.3802 35.0005 42.3405C34.8308 41.888 34.6655 41.3986 34.5045 40.8721C34.3435 40.3457 34.2391 39.7932 34.1913 39.2146L34.0803 38.0399C34.0412 38.8622 33.989 39.617 33.9237 40.3044C33.8584 40.9874 33.6953 41.677 33.4343 42.3731C33.1776 43.0648 32.8535 43.6108 32.4619 44.0111C32.0747 44.4113 31.8006 44.6702 31.6396 44.7877L31.4047 44.9639C31.3438 45.0074 31.3047 45.0117 31.2872 44.9769C31.2742 44.9465 31.2677 44.9182 31.2677 44.8921C31.272 44.866 31.2872 44.8377 31.3134 44.8072L31.5613 44.5331C31.7789 44.2939 32.0247 43.961 32.2988 43.5347C32.5772 43.1083 32.8078 42.447 32.9905 41.5508C33.1732 40.6503 33.2776 39.8084 33.3037 39.0253C33.3298 38.2379 33.3494 37.4134 33.3625 36.552C33.3755 35.6862 33.3821 35.2468 33.3821 35.2338L33.3886 34.6334ZM35.6857 34.6334H34.3609C34.3392 34.6813 34.3196 34.7182 34.3022 34.7443C34.2891 34.7704 34.2435 34.8074 34.1652 34.8553C34.1521 35.2642 34.1456 35.5731 34.1456 35.782C34.1456 35.9864 34.1521 36.3497 34.1652 36.8718C34.1826 37.3938 34.2652 38.053 34.4131 38.8491C34.5654 39.6453 34.7916 40.3544 35.0918 40.9765L35.379 41.603C35.466 41.3986 35.5617 41.1701 35.6661 40.9178C35.7705 40.6611 35.8858 40.2848 36.012 39.7888C36.1381 39.2929 36.2273 38.8904 36.2795 38.5816C36.3317 38.2683 36.3665 38.0704 36.384 37.9877H35.5943L35.4051 38.3401C35.3659 38.4097 35.3398 38.4467 35.3268 38.451C35.3137 38.451 35.3007 38.4402 35.2876 38.4184L34.7851 37.7528C34.7721 37.7354 34.7634 37.7201 34.759 37.7071C34.7547 37.694 34.7525 37.6788 34.7525 37.6614C34.7525 37.6397 34.7634 37.6179 34.7851 37.5961L34.9091 37.4917C34.9483 37.4613 34.9765 37.4287 34.9939 37.3938C35.0113 37.3547 35.0396 37.259 35.0788 37.1067L35.1571 36.7935L35.6857 34.6334ZM30.1256 36.9436L31.4178 37.2568C31.5222 37.0567 31.5896 36.9196 31.6201 36.8457C31.6505 36.7674 31.7136 36.6086 31.8093 36.3693L32.0573 35.7298L32.0899 35.6319C32.0986 35.6188 32.1247 35.634 32.1682 35.6775L32.9905 36.4933C33.0384 36.5411 33.0623 36.5825 33.0623 36.6173C33.0579 36.6782 33.0188 36.7152 32.9448 36.7282L32.6968 36.7739C32.0965 37.7397 31.7267 38.3162 31.5874 38.5032L30.5302 39.9781C30.9218 39.9476 31.2916 39.9194 31.6396 39.8933C31.992 39.8672 32.24 39.8454 32.3836 39.828L32.86 39.7758C32.9209 39.7714 32.9513 39.7954 32.9513 39.8476C32.9557 39.8998 32.9318 39.9346 32.8796 39.952L32.4228 40.1282C31.4395 40.5067 30.7935 40.7699 30.4846 40.9178L30.0473 41.1266C29.9516 41.1745 29.9016 41.1963 29.8972 41.1919C29.8929 41.1876 29.8798 41.1462 29.8581 41.0679L29.584 40.1478C29.5666 40.0912 29.5601 40.0542 29.5644 40.0368C29.5688 40.002 29.5818 39.9803 29.6036 39.9716L29.7602 39.9128C29.8385 39.8867 29.9429 39.8215 30.0734 39.7171C30.2083 39.6126 30.4954 39.1341 30.9349 38.2814L31.3068 37.5309C30.8631 37.5961 30.4628 37.6788 30.1061 37.7789L29.8059 37.8637L29.721 37.8898C29.7036 37.8855 29.6906 37.8659 29.6819 37.8311L29.4535 36.9044C29.4448 36.8653 29.4404 36.8348 29.4404 36.813C29.4404 36.7913 29.4644 36.7674 29.5122 36.7413L29.6297 36.6825C29.7994 36.5999 30.0125 36.2475 30.2692 35.6253C30.5259 34.9989 30.7478 34.368 30.9349 33.7328L31.0523 33.3282L31.0849 33.1651C31.0893 33.1564 31.0936 33.1499 31.098 33.1455L31.1698 33.2042L32.0312 33.8699C32.0878 33.9177 32.116 33.9678 32.116 34.02C32.1117 34.0678 32.0899 34.0961 32.0508 34.1048L31.7636 34.1962C31.2155 35.1402 30.6695 36.056 30.1256 36.9436ZM29.9821 42.719C31.1524 42.3013 31.9311 42.012 32.3183 41.851L32.6512 41.714C32.6729 41.7053 32.6968 41.7074 32.7229 41.7205C32.749 41.7292 32.7599 41.7553 32.7556 41.7988C32.7512 41.8423 32.7316 41.8771 32.6968 41.9032L32.4097 42.1382C31.2524 43.0648 30.5933 43.5978 30.4324 43.737L30.0473 44.0763C29.9777 44.1416 29.9386 44.172 29.9299 44.1677C29.9255 44.1633 29.9146 44.1329 29.8972 44.0763L29.6101 43.0909L29.5514 42.8952C29.547 42.8734 29.5514 42.8538 29.5644 42.8364L29.6362 42.8234L29.9821 42.719Z" fill="white"/>
</svg>
