<svg width="33" height="45" viewBox="0 0 33 45" fill="none" xmlns="http://www.w3.org/2000/svg">
<path d="M0 30.9496V45H0.971223L2.78417 40.9209C5.2446 43.5108 7.76978 44.6115 10.9424 44.6115C17.0935 44.6115 21.3669 39.6259 21.3669 32.5036C21.3669 26.5468 19.4892 23.7626 12.4964 19.4245C5.82734 15.2806 4.46763 13.6619 4.46763 9.84173C4.46763 5.56834 7.2518 2.20144 10.8777 2.20144C14.8273 2.20144 17.223 5.2446 18.3885 11.9137H19.6835V0H18.7122L17.223 3.56115C15.4101 1.29496 13.3381 0.258989 10.4892 0.258989C4.59712 0.258989 0.517986 4.85611 0.517986 11.5252C0.517986 17.1583 2.52518 19.8129 10.2302 24.4101C15.7338 27.7122 17.3525 29.9137 17.3525 34.187C17.3525 39.1079 14.4389 42.6043 10.295 42.6043C5.3741 42.6043 2.26619 38.5899 1.29496 30.9496H0Z" fill="white"/>
<path d="M28.3626 34.3987H27.6038C27.5321 34.3987 27.49 34.3418 27.4773 34.228C27.4647 34.1142 27.5068 34.0572 27.6038 34.0572H30.5946L30.8349 33.6336C30.856 33.5999 30.8707 33.5809 30.8791 33.5767C30.8918 33.5683 30.9171 33.583 30.955 33.621L31.6 34.2849C31.6253 34.3144 31.6421 34.3376 31.6506 34.3544C31.659 34.3671 31.6632 34.386 31.6632 34.4113C31.6632 34.4324 31.6442 34.4556 31.6063 34.4809L31.3534 34.6832C31.1679 35.3661 31.0267 35.8804 30.9297 36.2261C30.8328 36.5717 30.7253 36.93 30.6073 37.301H31.2965L31.4798 36.9659C31.5051 36.9195 31.5262 36.8963 31.5431 36.8963C31.5641 36.8921 31.6 36.9132 31.6506 36.9595L32.2765 37.6171C32.3061 37.6509 32.3208 37.6719 32.3208 37.6804C32.325 37.6846 32.3292 37.6909 32.3335 37.6993C32.3377 37.7078 32.3398 37.7183 32.3398 37.7309C32.3398 37.7394 32.3313 37.7541 32.3145 37.7752L32.0932 37.9965C31.7011 39.5225 31.4061 40.4857 31.2079 40.8862L30.7527 41.8599C30.9044 42.0538 31.0646 42.2414 31.2332 42.4227C31.4019 42.6039 31.6021 42.7599 31.8339 42.8906C32.0658 43.0255 32.2407 43.1098 32.3587 43.1435L32.637 43.232C32.6833 43.2489 32.7065 43.2784 32.7065 43.3205C32.7107 43.3669 32.6875 43.4006 32.637 43.4217L32.3904 43.5292C32.1417 43.643 31.9583 43.7779 31.8403 43.9339L31.6506 44.1994C31.6126 44.2458 31.5894 44.269 31.581 44.269C31.5726 44.2732 31.5536 44.2585 31.5241 44.2247L31.3976 44.0983C31.0351 43.7273 30.6599 43.2236 30.2721 42.5871C30.0698 42.7894 29.7916 43.0529 29.4375 43.3774C29.0834 43.702 28.5523 43.9845 27.8441 44.2247L27.5279 44.3322C27.5111 44.3407 27.4963 44.3407 27.4837 44.3322C27.4752 44.3322 27.4689 44.3238 27.4647 44.3069C27.4605 44.2943 27.4563 44.2753 27.452 44.25C27.452 44.2247 27.471 44.1994 27.509 44.1742L27.7808 44.0161C28.5227 43.5903 29.2373 42.8737 29.9244 41.8662C29.76 41.4278 29.5998 40.9536 29.4438 40.4435C29.2878 39.9335 29.1867 39.3981 29.1403 38.8375L29.0328 37.6993C28.9949 38.496 28.9443 39.2274 28.8811 39.8934C28.8178 40.5553 28.6597 41.2234 28.4068 41.8978C28.1581 42.5681 27.8441 43.0971 27.4647 43.4849C27.0895 43.8728 26.824 44.1236 26.668 44.2374L26.4404 44.4081C26.3813 44.4503 26.3434 44.4545 26.3265 44.4208C26.3139 44.3912 26.3076 44.3638 26.3076 44.3386C26.3118 44.3133 26.3265 44.2859 26.3518 44.2564L26.5921 43.9908C26.8029 43.7589 27.041 43.4365 27.3066 43.0234C27.5764 42.6102 27.7998 41.9695 27.9769 41.1011C28.1539 40.2286 28.2551 39.4129 28.2804 38.6541C28.3057 37.8911 28.3246 37.0923 28.3373 36.2577C28.3499 35.4188 28.3562 34.9931 28.3562 34.9804L28.3626 34.3987ZM30.5883 34.3987H29.3047C29.2836 34.4451 29.2647 34.4809 29.2478 34.5062C29.2351 34.5315 29.1909 34.5673 29.115 34.6137C29.1024 35.0099 29.096 35.3092 29.096 35.5116C29.096 35.7097 29.1024 36.0617 29.115 36.5675C29.1319 37.0733 29.212 37.712 29.3553 38.4834C29.5028 39.2548 29.722 39.9419 30.0129 40.5447L30.2911 41.1517C30.3754 40.9536 30.4681 40.7323 30.5693 40.4878C30.6705 40.2391 30.7822 39.8745 30.9044 39.3939C31.0267 38.9134 31.1131 38.5234 31.1637 38.2241C31.2143 37.9206 31.248 37.7288 31.2649 37.6487H30.4998L30.3164 37.9902C30.2785 38.0576 30.2532 38.0935 30.2405 38.0977C30.2279 38.0977 30.2152 38.0871 30.2026 38.0661L29.7157 37.4211C29.7031 37.4043 29.6946 37.3895 29.6904 37.3769C29.6862 37.3642 29.6841 37.3495 29.6841 37.3326C29.6841 37.3115 29.6946 37.2904 29.7157 37.2694L29.8358 37.1682C29.8738 37.1387 29.9012 37.1071 29.918 37.0733C29.9349 37.0354 29.9623 36.9427 30.0002 36.7951L30.0761 36.4916L30.5883 34.3987ZM25.201 36.6371L26.453 36.9406C26.5542 36.7467 26.6195 36.6139 26.649 36.5422C26.6785 36.4663 26.7396 36.3125 26.8324 36.0806L27.0727 35.461L27.1043 35.3661C27.1127 35.3535 27.138 35.3682 27.1802 35.4104L27.9769 36.2008C28.0232 36.2471 28.0464 36.2872 28.0464 36.3209C28.0422 36.3799 28.0043 36.4157 27.9326 36.4284L27.6923 36.4727C27.1106 37.4085 26.7523 37.967 26.6174 38.1483L25.5931 39.5773C25.9724 39.5478 26.3308 39.5204 26.668 39.4951C27.0094 39.4698 27.2497 39.4487 27.3888 39.4319L27.8504 39.3813C27.9094 39.3771 27.9389 39.4002 27.9389 39.4508C27.9431 39.5014 27.92 39.5351 27.8694 39.552L27.4268 39.7227C26.4741 40.0895 25.8481 40.3445 25.5488 40.4878L25.1252 40.6901C25.0324 40.7365 24.9839 40.7576 24.9797 40.7534C24.9755 40.7492 24.9629 40.7091 24.9418 40.6332L24.6762 39.7417C24.6594 39.6869 24.653 39.6511 24.6572 39.6342C24.6615 39.6005 24.6741 39.5794 24.6952 39.571L24.8469 39.5141C24.9228 39.4888 25.024 39.4255 25.1504 39.3244C25.2811 39.2232 25.5593 38.7595 25.9851 37.9333L26.3455 37.2061C25.9155 37.2694 25.5277 37.3495 25.1821 37.4464L24.8912 37.5286L24.809 37.5539C24.7921 37.5497 24.7795 37.5307 24.7711 37.497L24.5498 36.5991C24.5413 36.5612 24.5371 36.5317 24.5371 36.5106C24.5371 36.4895 24.5603 36.4663 24.6067 36.441L24.7205 36.3841C24.8849 36.304 25.0914 35.9626 25.3401 35.3598C25.5888 34.7528 25.8038 34.1416 25.9851 33.5261L26.0989 33.1341L26.1305 32.976C26.1347 32.9676 26.139 32.9612 26.1432 32.957L26.2127 33.0139L27.0474 33.6589C27.1022 33.7053 27.1296 33.7537 27.1296 33.8043C27.1254 33.8507 27.1043 33.8781 27.0663 33.8865L26.7881 33.975C26.257 34.8898 25.728 35.7771 25.201 36.6371ZM25.0619 42.233C26.1959 41.8283 26.9504 41.548 27.3256 41.392L27.6481 41.2592C27.6691 41.2508 27.6923 41.2529 27.7176 41.2655C27.7429 41.274 27.7534 41.2993 27.7492 41.3414C27.745 41.3836 27.726 41.4173 27.6923 41.4426L27.4141 41.6702C26.2928 42.5681 25.6542 43.0845 25.4982 43.2194L25.1252 43.5482C25.0577 43.6114 25.0198 43.6409 25.0113 43.6367C25.0071 43.6325 24.9966 43.603 24.9797 43.5482L24.7015 42.5934L24.6446 42.4037C24.6404 42.3826 24.6446 42.3636 24.6572 42.3468L24.7268 42.3341L25.0619 42.233Z" fill="white"/>
</svg>
