<?xml version="1.0" encoding="UTF-8"?>
<svg width="288px" height="104px" viewBox="0 0 288 104" version="1.1" xmlns="http://www.w3.org/2000/svg" xmlns:xlink="http://www.w3.org/1999/xlink">
    <title>title-mob-eqb</title>
    <g id="页面-1" stroke="none" stroke-width="1" fill="none" fill-rule="evenodd">
        <g id="title-mob-eqb" transform="translate(0.500000, 0.300000)" fill="#FFFFFF" fill-rule="nonzero">
            <g id="编组">
                <path d="M11.8,14 C12.6,10 13.2,6.8 13.5,4.6 L13.9,1.7 L14,0.6 C14,0.6 14,0.5 14.1,0.5 C14.1,0.5 14.3,0.6 14.6,0.7 L18.1,2.5 C18.3,2.6 18.5,2.8 18.5,3 C18.5,3.2 18.4,3.3 18.2,3.4 L17.2,4.2 C16.5,7.6 15.8,10.8 15.1,13.8 L23.8,13.4 L24.7,12.1 C24.9,11.8 25,11.7 25.1,11.7 C25.2,11.7 25.3,11.8 25.4,11.9 L28.4,14.7 C28.6,14.9 28.7,15.1 28.7,15.2 C28.7,15.3 28.6,15.5 28.4,15.6 L27.3,16.4 C27.1,19.1 26.7,22.8 26.2,27.6 C25.7,32.3 24.9,35.5 23.8,37.2 C22.7,38.9 21.7,39.9 20.7,40.3 C19.8,40.7 19.1,40.9 18.8,41 L18.2,41.1 C18,41.1 18,41.1 17.9,41.1 C17.9,41.1 17.8,40.9 17.7,40.6 L17.4,39.5 C17.3,39.1 17,38.6 16.7,38.1 C16.3,37.5 16,37.1 15.7,36.8 L14.6,35.9 C14.4,35.8 14.4,35.6 14.4,35.5 C14.4,35.4 14.5,35.3 14.6,35.2 C14.7,35.1 14.8,35.1 14.9,35.2 L16.6,35.9 C17.2,36.2 17.8,36.3 18.4,36.3 C19,36.3 19.6,36.1 20.3,35.7 C21,35.3 21.5,33.9 22,31.5 C22.5,29.1 22.8,26.7 23.1,24.3 C23.4,21.9 23.6,20.2 23.6,19.4 L23.9,15 L14.7,15.4 C13.7,19.3 12.3,23.4 10.7,27.6 C9,31.8 5.9,35.9 1.3,39.7 L0.4,40.4 C0.2,40.5 0.1,40.6 0.1,40.5 C0.1,40.4 0,40.3 0,40.2 C0,40.1 0,40 0.1,39.8 L1,38.8 C1.3,38.5 1.9,37.6 3,36.1 C4.1,34.6 5.3,32.4 6.8,29.6 C8.2,26.8 9.8,22 11.6,15.4 L1.1,15.9 C1,15.9 0.9,15.9 0.8,15.8 C0.7,15.7 0.6,15.5 0.6,15.3 C0.6,15.1 0.6,14.9 0.7,14.8 C0.8,14.7 0.9,14.7 1.2,14.7 L11.8,14 Z M4.1,2.6 C4.1,2.6 4.2,2.6 4.2,2.5 C4.3,2.5 4.6,2.7 5.2,3 C5.8,3.4 6.7,4 7.7,5 C8.7,6 9.3,7.1 9.3,8.5 C9.3,9.9 9.1,10.8 8.7,11.4 C8.3,12 7.8,12.2 7.4,12.2 C6.9,12.2 6.5,12 6.3,11.5 C6.1,11 5.9,10.7 5.9,10.3 C5.9,10 5.8,9.2 5.8,8.1 C5.8,7 5.6,6.1 5.4,5.4 C5.2,4.7 4.9,4.1 4.6,3.7 C4.3,3.3 4.1,3 4.1,2.8 C3.9,2.9 4,2.8 4.1,2.6 Z M14.6,19.2 C14.6,19.2 14.7,19.2 14.7,19.1 C14.8,19.1 14.8,19.1 14.9,19.2 C15,19.2 15.3,19.4 15.8,19.7 C16.3,20 17.1,20.7 18.2,21.7 C19.3,22.7 19.8,23.9 19.8,25.2 C19.8,26.5 19.6,27.5 19.2,28.1 C18.8,28.7 18.3,28.9 17.9,28.9 C17.4,28.9 17,28.7 16.7,28.2 C16.5,27.8 16.3,27.4 16.3,27.1 C16.3,26.8 16.2,26 16.2,24.9 C16.2,23.8 16,22.8 15.8,22.1 C15.6,21.4 15.3,20.8 15,20.4 C14.7,20 14.5,19.8 14.5,19.7 C14.5,19.6 14.5,19.5 14.5,19.5 C14.5,19.3 14.5,19.2 14.6,19.2 Z" id="形状"></path>
                <path d="M36.4,15.8 C34.8,19 33.7,21.1 33,22.1 L32.5,22.8 C32.4,23 32.3,23 32.2,22.9 C32.1,22.8 32.1,22.7 32.1,22.6 C32.1,22.5 32.1,22.4 32.2,22.3 L32.6,21.2 C33.4,19.3 34.2,16.6 35.1,13.1 C36,9.6 36.6,7.2 36.9,5.7 C37.2,4.2 37.4,3 37.5,2 L37.7,0.7 L37.8,0.2 C37.8,0.2 37.8,0.1 37.9,0.1 C37.9,0.1 38.1,0.2 38.4,0.3 L41.8,2.3 C42,2.4 42,2.5 42,2.7 C42,2.8 41.9,3 41.8,3.1 L40.9,3.7 C40.1,6.2 39.2,8.6 38.4,11 L39.7,11.8 C39.8,11.9 39.9,12 40,12 C40.1,12.1 40.1,12.1 40.1,12.2 C40.1,12.2 40.1,12.3 40,12.4 C39.9,12.5 39.9,12.6 39.8,12.7 L39.2,13.5 L39.2,35.4 L39.3,40.1 C39.2,40.3 39.2,40.5 39.1,40.7 C39,40.9 38.7,41 38.1,41.2 C37.6,41.4 37.2,41.4 36.9,41.4 C36.7,41.4 36.5,41.3 36.5,41.2 C36.4,41.1 36.4,40.9 36.3,40.7 L36.5,35.1 L36.5,19.3 L36.4,15.8 Z M47.3,22.8 C45.9,26.4 44.8,28.9 44,30.2 C43.2,31.5 42.5,32.8 41.7,34.1 L41,35.3 C40.9,35.5 40.7,35.6 40.7,35.5 C40.6,35.4 40.6,35.3 40.6,35.2 C40.6,35.1 40.6,35 40.7,34.8 L41.3,33.4 C41.5,32.8 41.9,31.8 42.4,30.3 C42.9,28.8 43.3,27.3 43.6,25.7 C43.9,24.1 44.2,23 44.3,22.3 L44.7,20.1 L44.7,19.6 C44.7,19.6 44.8,19.6 45,19.7 L48.1,21.7 C48.3,21.8 48.4,22 48.4,22.2 C48.4,22.4 48.3,22.5 48.1,22.6 L47.3,22.8 Z M56.4,11.2 L46.4,11.2 C46.3,11.4 46.2,11.5 46.2,11.6 L44.9,14.5 C44.1,16.3 43.3,17.9 42.3,19.5 L41.5,20.8 C41.4,21 41.2,21.1 41.2,21 C41.1,20.9 41.1,20.8 41.1,20.8 C41.1,20.7 41.1,20.7 41.2,20.5 L41.8,18.8 C43.1,14.7 44,11.1 44.5,8.2 C45,5.3 45.2,3.5 45.3,2.9 L45.4,1.5 L45.5,0.8 C45.5,0.8 45.5,0.7 45.6,0.7 C45.6,0.7 45.9,0.8 46.3,1 L49.4,2.7 C49.5,2.8 49.6,2.8 49.7,2.9 C49.8,3 49.8,3 49.8,3.2 C49.8,3.3 49.7,3.4 49.6,3.5 L48.8,4.2 C48.2,6.4 47.6,8.3 47,10 L56.6,10 L57.6,8.5 C57.7,8.4 57.8,8.3 57.8,8.3 C57.9,8.3 57.9,8.4 58.1,8.5 L60.9,11.8 C61.1,12.1 61.2,12.3 61.2,12.6 C61.2,12.8 61.1,13 61,13.1 C60.9,13.2 60.6,13.3 60,13.3 C59.5,13.3 58.9,13.5 58.3,14 C57.7,14.5 57.1,15.3 56.4,16.5 L55.8,17.7 C55.6,18 55.5,18.1 55.4,18 C55.3,17.9 55.3,17.8 55.3,17.7 C55.3,17.6 55.3,17.6 55.3,17.5 C55.3,17.4 55.3,17.4 55.3,17.3 L55.6,15.9 C55.6,15.5 55.9,13.9 56.4,11.2 Z M52.3,16.5 L52.3,37.6 C52.3,38 52.2,38.5 52.1,39 C52,39.5 51.5,40 50.9,40.2 C50.2,40.5 49.8,40.6 49.6,40.7 L49.1,40.8 C48.9,40.8 48.8,40.8 48.7,40.8 C48.6,40.8 48.6,40.7 48.6,40.6 L48.3,39.6 C48.2,39.1 47.9,38.7 47.5,38.2 C47.1,37.7 46.8,37.4 46.4,37.2 L45.2,36.6 C45,36.5 45,36.4 45,36.2 C45,36.1 45,36 45.1,35.9 C45.2,35.8 45.2,35.8 45.3,35.8 L46.5,36 C47.6,36.2 48.3,36.3 48.7,36.2 C49.1,36.2 49.4,36.1 49.5,35.8 C49.7,35.6 49.7,35.3 49.7,35.1 L49.7,18.4 L49.6,13.3 C49.7,13.3 49.7,13.3 49.7,13.2 C49.7,13.2 49.9,13.2 50.1,13.3 L53.4,14.5 C53.6,14.6 53.7,14.7 53.7,14.9 C53.7,15.1 53.6,15.2 53.5,15.4 L52.3,16.5 Z M53.9,21.4 C54,21.4 54,21.3 54,21.3 C54,21.3 54.3,21.4 54.7,21.8 C55.1,22.1 55.9,22.8 57.1,24 C58.3,25.1 59.2,26.5 59.8,28.1 C60.4,29.7 60.8,31.1 60.7,32.3 C60.7,33.1 60.5,33.8 60.2,34.4 C59.9,35 59.5,35.3 58.9,35.2 C58.3,35.2 57.9,34.9 57.7,34.3 C57.4,33.7 57.2,32.7 57.1,31.3 C57,29.9 56.7,28.6 56.4,27.4 C56.1,26.2 55.8,25.4 55.6,24.9 C55.4,24.4 55.1,23.8 54.7,23.1 C54.3,22.4 54.1,22 53.9,21.9 C53.7,21.8 53.7,21.7 53.7,21.6 C53.7,21.5 53.8,21.5 53.9,21.4 Z" id="形状"></path>
                <path d="M69,40.6 L69.6,39.8 C69.7,39.7 69.8,39.4 70.1,38.9 C70.4,38.4 70.6,38.1 70.7,37.8 C70.8,37.5 70.9,37.1 71.1,36.5 C71.3,35.9 71.3,35.4 71.2,35.1 C71.1,34.8 71,34.6 70.9,34.6 C70.8,34.6 70.7,34.6 70.5,34.7 C70.3,34.8 70.1,34.8 69.9,34.8 C69.3,34.8 68.9,34.5 68.5,34 C68.1,33.5 68,32.8 68,32 C68,31.2 68.2,30.5 68.6,29.9 C69,29.3 69.5,29 70.2,29 C71,29 71.6,29.4 72,30.2 C72.4,30.9 72.7,31.7 72.7,32.6 C72.8,33.4 72.7,34.2 72.6,35 C72.4,36.1 72.2,37.1 71.8,38 C71.4,38.9 71,39.5 70.7,39.9 C70.4,40.3 70,40.7 69.7,41 C69.4,41.4 69.1,41.5 68.9,41.5 C68.7,41.4 68.6,41.3 68.6,41.2 C68.8,40.9 68.9,40.8 69,40.6 Z" id="路径"></path>
                <g id="。备份" transform="translate(198.000000, 29.000000)">
                    <path d="M3.54785156,0 C4.12207031,0 4.68945312,0.215332031 5.25,0.645996094 C5.81054688,1.07666016 6.25488281,1.69873047 6.58300781,2.51220703 C6.91113281,3.32568359 7.07519531,4.16992188 7.07519531,5.04492188 C7.06152344,5.9609375 6.90087891,6.80859375 6.59326172,7.58789062 C6.28564453,8.3671875 5.85498047,8.98242188 5.30126953,9.43359375 C4.74755859,9.88476562 4.16308594,10.1035156 3.54785156,10.0898438 C2.90527344,10.0898438 2.30712891,9.86425781 1.75341797,9.41308594 C1.19970703,8.96191406 0.769042969,8.35351562 0.461425781,7.58789062 C0.153808594,6.82226563 0,5.98144531 0,5.06542969 C0,4.14941406 0.157226562,3.30175781 0.471679688,2.52246094 C0.799804688,1.70214844 1.24755859,1.08007812 1.81494141,0.65625 C2.38232422,0.232421875 2.95996094,0.013671875 3.54785156,0 Z M3.52734375,1.90722656 C3.15820312,1.90722656 2.79589844,2.03710938 2.44042969,2.296875 C2.08496094,2.55664062 1.8046875,2.93945312 1.59960938,3.4453125 C1.39453125,3.95117188 1.29882812,4.47753906 1.3125,5.02441406 C1.3125,5.58496094 1.41162109,6.10791016 1.60986328,6.59326172 C1.80810547,7.07861328 2.07470703,7.46142578 2.40966797,7.74169922 C2.74462891,8.02197266 3.1171875,8.15527344 3.52734375,8.14160156 C3.92382812,8.14160156 4.28955078,8.00488281 4.62451172,7.73144531 C4.95947266,7.45800781 5.22265625,7.08203125 5.4140625,6.60351562 C5.60546875,6.125 5.70117188,5.60205078 5.70117188,5.03466797 C5.70117188,4.46728516 5.60546875,3.94433594 5.4140625,3.46582031 C5.20898438,2.95996094 4.93212891,2.57714844 4.58349609,2.31738281 C4.23486328,2.05761719 3.8828125,1.92089844 3.52734375,1.90722656 Z" id="。"></path>
                </g>
                <path d="M107.9,6.9 L108.7,5.3 C109,4.7 109.2,4.4 109.2,4.4 C109.3,4.4 109.5,4.6 109.9,5.1 L111.3,6.9 C111.6,7.3 111.7,7.5 111.7,7.6 C111.7,7.7 111.6,7.8 111.6,7.8 C111.5,7.9 111.4,7.9 111.3,7.9 L108.5,7.9 L108.5,7.9 L107,7.9 L109.5,9.8 C109.7,10 109.9,10.1 109.9,10.2 C109.9,10.3 109.9,10.4 109.9,10.5 C109.9,10.6 109.8,10.7 109.6,10.8 L108.7,11.2 C107.7,13.4 107,15.1 106.5,16.3 L108.4,16.3 L109.2,14.8 C109.5,14.3 109.6,14.1 109.6,14 C109.6,14 109.7,14 109.8,14 C109.9,14 110,14.2 110.3,14.5 L111.7,16.3 C112,16.7 112.2,17 112.2,17.1 C112.2,17.2 112.1,17.3 112.1,17.4 C112,17.5 111.9,17.5 111.7,17.5 L106.5,17.5 C106.4,17.6 106.4,17.7 106.3,17.7 C106.3,17.8 106.1,17.9 105.9,18.1 L105.9,22.8 L107.3,22.8 L108.3,21 C108.5,20.7 108.6,20.5 108.7,20.5 C108.8,20.5 109,20.7 109.3,21.1 L111,23.2 C111.1,23.4 111.2,23.5 111.2,23.6 C111.2,23.7 111.2,23.8 111.1,23.8 C111,23.9 111,23.9 110.9,23.9 L105.9,23.9 L105.9,35.8 C105.9,36.4 105.8,37 105.6,37.4 C105.4,37.8 105.2,38.1 104.9,38.3 C104.6,38.5 104.2,38.7 103.7,38.9 C103.2,39.1 102.8,39.2 102.6,39.2 C102.5,39.2 102.5,39.2 102.5,39.2 C102.5,39.2 102.4,39.1 102.4,39 C102.4,38.9 102.4,38.7 102.4,38.5 C102.4,38.2 102.3,37.9 102.2,37.4 C102.1,36.9 101.8,36.5 101.2,36.1 L100.3,35.5 C100.1,35.4 100,35.2 100,35 C100,34.8 100.1,34.7 100.3,34.7 L101.3,34.8 C101.5,34.8 101.7,34.9 101.9,34.9 C102.1,34.9 102.2,34.9 102.3,34.9 L102.8,34.9 C103.2,34.9 103.4,34.8 103.4,34.5 L103.4,23.9 L97.5,23.9 L97.3,23.8 C97.1,23.6 97,23.4 97,23.1 C97,22.8 97.1,22.6 97.5,22.6 L103.4,22.6 L103.4,17.3 L97.1,17.3 L96.9,17.3 C96.8,17.3 96.7,17.2 96.7,17.1 C96.6,17 96.6,16.8 96.6,16.5 C96.6,16.2 96.7,16 97,16 L105.3,16 C105.5,15 105.8,13.7 106.1,12.1 C106.4,10.5 106.6,9.4 106.6,8.8 L106.7,7.6 L97.6,7.6 C97.3,7.6 97.2,7.4 97.2,7 C97.2,6.6 97.3,6.4 97.6,6.4 L107.9,6.4 L107.9,6.9 Z M101.6,28.3 C101.1,29.6 100.7,30.4 100.5,30.9 C100.3,31.4 99.8,32.3 99.1,33.7 C98.4,35.1 97.9,35.9 97.7,36.2 L97,37.2 C96.9,37.4 96.8,37.5 96.7,37.5 C96.7,37.5 96.6,37.5 96.6,37.5 C96.6,37.5 96.6,37.4 96.6,37.3 C96.6,37.2 96.6,37 96.7,36.8 L97,35.8 C97.1,35.7 97.2,35.2 97.4,34.3 C97.6,33.5 97.8,32.9 97.9,32.7 C98,32.5 98.1,31.8 98.4,30.6 C98.7,29.4 98.9,28.5 99,28 L99.2,26.6 L99.3,25.5 C99.3,25.4 99.4,25.4 99.4,25.4 L99.8,25.7 L102,27.1 C102.2,27.3 102.4,27.4 102.4,27.5 C102.4,27.5 102.4,27.6 102.3,27.7 C102.3,27.8 102.2,27.8 102.2,27.9 L101.6,28.3 Z M100,10.6 L99.7,9.8 C99.7,9.8 99.7,9.7 99.7,9.6 C99.7,9.5 99.7,9.4 99.7,9.4 C99.7,9.3 99.8,9.2 99.9,9.2 C100,9.2 100.6,9.7 101.6,10.6 C102.6,11.5 103.1,12.7 103.1,14 C103.1,14.6 102.9,15.1 102.6,15.6 C102.3,16.1 101.9,16.3 101.5,16.3 C100.9,16.3 100.5,16.1 100.4,15.5 C100.3,14.9 100.3,14.5 100.3,14 C100.3,13.5 100.3,13.2 100.3,12.9 C100.3,11.9 100.2,11.1 100,10.6 Z M101.7,1.3 L101.4,0.8 C101.3,0.7 101.3,0.7 101.3,0.6 C101.3,0.5 101.3,0.5 101.3,0.4 C101.3,0.3 101.4,0.2 101.5,0.2 C101.6,0.2 101.9,0.3 102.5,0.5 C103.1,0.7 103.7,1 104.4,1.4 C105.1,1.8 105.5,2.4 105.6,3.2 C105.7,3.9 105.8,4.4 105.8,4.5 C105.8,4.6 105.8,4.8 105.7,5 C105.6,5.4 105.4,5.8 105.2,6.2 C104.9,6.6 104.6,6.8 104.1,6.8 C103.6,6.8 103.2,6.6 103,6.3 C102.8,5.9 102.7,5.5 102.6,5.1 L102.5,3.7 C102.5,3.3 102.4,3 102.3,2.7 C102.2,2.4 102,1.8 101.7,1.3 Z M121.2,15.7 L122,14.1 C122.3,13.5 122.5,13.2 122.5,13.1 C122.5,13.1 122.6,13.1 122.7,13.1 C122.8,13.2 123,13.4 123.4,13.9 L125,15.9 C125.1,16.1 125.2,16.2 125.3,16.3 C125.3,16.4 125.3,16.4 125.3,16.5 C125.3,16.7 125.2,16.9 125,16.9 L121.4,16.9 C121.3,17.1 121.2,17.3 121.1,17.4 C121,17.5 120.9,17.5 120.8,17.6 L120.8,36.8 L120.9,39.6 C120.8,40.1 120.5,40.5 120.1,40.7 C119.7,40.9 119.3,41 119,41 C118.6,41 118.3,40.9 118.2,40.7 C118.1,40.5 118,40.3 118,40 L118.1,35.4 L118.1,16.8 L115,16.8 C114.9,18.8 114.9,20.5 114.8,22 C114.7,23.5 114.6,24.8 114.5,26.1 C114.4,27.4 114,28.8 113.5,30.5 C113,32.2 112.2,33.7 111.2,35 C110.2,36.3 109.4,37.3 108.8,38 C108.2,38.7 107.7,39.1 107.4,39.4 L106.7,40 C106.6,40.1 106.5,40.2 106.4,40.1 C106.3,40.1 106.3,40.1 106.3,40 C106.3,39.9 106.3,39.9 106.3,39.9 C106.3,39.9 106.3,39.8 106.3,39.7 C106.3,39.6 106.4,39.5 106.5,39.4 L107.1,38.7 C108.5,37 109.6,35.2 110.5,33.3 C111.4,31.4 111.8,29.4 112.1,27.3 C112.3,25.2 112.5,23.3 112.5,21.5 C112.6,19.7 112.6,17.6 112.6,15.1 C112.6,13.5 112.6,11.9 112.5,10.3 C112.4,8.7 112.4,7.9 112.4,7.7 L112.4,6.8 L112.2,3.6 C112.2,3.6 112.3,3.5 112.3,3.5 C112.3,3.5 112.6,3.6 113,4 L115.2,5.6 C117,4.6 118.5,3.6 119.6,2.6 L120.4,1.9 L120.9,1.3 C121,1.3 121.1,1.3 121.1,1.3 L121.7,2 L123.5,4.1 C123.8,4.5 124,4.7 124,4.8 C124,5 123.9,5.1 123.7,5.1 L122.7,5.3 L118.5,6.2 L115.1,6.8 C115.1,8.5 115.1,9.7 115.1,10.5 L115.1,13 L115.1,15.5 L121.2,15.5 L121.2,15.7 Z M107.1,27.8 L106.8,27.3 C106.7,27 106.6,26.8 106.6,26.7 C106.6,26.6 106.7,26.5 106.7,26.5 C106.7,26.5 106.7,26.5 106.8,26.5 C107,26.5 107.5,26.8 108.2,27.5 C108.9,28.2 109.5,28.8 109.8,29.4 C110.2,30 110.3,30.7 110.3,31.4 C110.3,31.9 110.2,32.4 109.9,32.9 C109.6,33.4 109.3,33.6 108.8,33.6 C108.3,33.6 108,33.4 107.8,33 C107.7,32.6 107.6,32.1 107.6,31.7 L107.6,30.3 C107.7,29.3 107.5,28.5 107.1,27.8 Z" id="形状"></path>
                <path d="M129.3,27.2 L128.7,26.9 C128.6,26.8 128.5,26.7 128.5,26.5 C128.5,26.3 128.6,26.1 128.7,26.1 L129.1,26.1 L129.9,26.1 C130.5,26.1 131,26 131.3,25.6 C131.6,25.2 132.2,23.6 133.3,20.8 C134.4,18 135.2,15.7 135.8,14.1 C136.4,12.5 137,10.9 137.5,9.3 L138,7.8 C138.1,7.5 138.2,7.3 138.3,7.3 C138.4,7.3 138.5,7.4 138.5,7.6 C138.5,7.8 138.5,7.9 138.5,8 L138.1,9.8 C138,10.2 137.8,11.1 137.4,12.5 C137,13.9 136.4,16.4 135.6,20 C134.7,23.7 134.2,25.8 134.1,26.4 C134,27 133.9,27.4 133.9,27.7 C133.9,28 133.9,28.2 133.9,28.4 C133.9,29.1 134,29.7 134.1,30.4 C134.2,31.1 134.4,31.9 134.7,32.8 C135,33.8 135.2,34.5 135.1,34.9 C135.1,35.5 134.9,36.1 134.5,36.7 C134.1,37.3 133.6,37.6 132.9,37.6 C132.7,37.6 132.5,37.6 132.3,37.5 C132.1,37.4 131.9,37.3 131.7,37.1 C131.5,36.9 131.4,36.6 131.2,36.3 C131.1,36 131,35.5 131,34.8 L131.1,31.6 C131.1,30.3 130.9,29.3 130.6,28.6 C130.3,28 129.8,27.5 129.3,27.2 Z M130.1,4.8 C130.1,4.8 130.1,4.7 130.1,4.7 C130.1,4.6 130.2,4.6 130.5,4.6 C130.6,4.6 130.7,4.6 130.9,4.7 L131.6,4.9 C132.1,5 132.9,5.5 134,6.2 C135.1,6.9 135.7,7.9 135.7,9.2 C135.7,10.4 135.5,11.3 135.1,11.8 C134.7,12.3 134.3,12.5 133.8,12.5 C133,12.5 132.5,11.9 132.2,10.6 L132.1,8.8 C132,8.2 131.9,7.7 131.8,7.3 C131.7,6.9 131.5,6.6 131.3,6.4 C131.1,6.2 130.9,5.9 130.7,5.6 L130.3,5.2 L130.1,4.8 Z M146.7,14.6 L146.5,17.5 C146.6,18.3 146.9,19.4 147.2,20.8 C147.5,22.2 148,23.8 148.8,25.6 C149.6,27.4 150.2,28.7 150.7,29.5 C151.2,30.3 152,31.4 153.1,32.8 C154.2,34.2 155.4,35.1 156.7,35.5 L157.4,35.7 C157.7,35.8 157.8,35.9 157.8,36.1 C157.8,36.3 157.7,36.4 157.4,36.4 L156.9,36.5 C156.3,36.6 155.8,36.9 155.4,37.3 C155,37.7 154.7,38.2 154.5,38.7 C154.3,39.2 154.2,39.5 154.1,39.6 C154,39.7 154,39.7 153.9,39.7 C153.8,39.7 153.4,39.3 152.7,38.6 C152,37.8 151.4,37.1 150.9,36.4 C150.4,35.7 149.8,34.6 149.3,33.2 C148.7,31.8 148.3,30.7 148,29.7 C147.7,28.7 147.4,27.6 147.2,26.2 C147,24.8 146.8,23.7 146.7,22.9 L146.4,20.9 C146.2,21.9 146,23.1 145.8,24.4 C145.6,25.7 145.1,27.5 144.4,29.8 C143.7,32.1 142.5,34 140.7,35.8 C138.9,37.5 137.6,38.7 136.7,39.4 C135.8,40.1 135.2,40.5 134.9,40.7 L133.9,41.3 C133.8,41.3 133.7,41.4 133.6,41.4 C133.5,41.4 133.4,41.4 133.4,41.3 C133.4,41.2 133.4,41.2 133.4,41.1 C133.4,41 133.5,40.9 133.6,40.8 L134.1,40.4 C134.9,39.7 136,38.5 137.3,37 C138.6,35.4 139.8,33.7 140.7,31.8 C141.7,29.9 142.3,27.8 142.6,25.6 C142.9,23.3 143.2,21.4 143.3,19.7 C143.4,18 143.5,16.8 143.5,16 L143.5,14.2 L143.5,13.1 L143.5,12.3 C143.5,12.2 143.6,12.2 143.7,12.2 C143.8,12.2 144,12.2 144.4,12.4 L147,13.4 C147.4,13.5 147.6,13.7 147.6,13.8 C147.6,13.9 147.6,14 147.6,14.1 C147.6,14.2 147.5,14.3 147.4,14.4 L146.7,14.6 Z M151.3,10.4 L142.1,10.4 C140.7,13.6 139.8,15.6 139.5,16.3 C139.2,17 138.7,18 138,19.3 L137.5,20.1 C137.2,20.6 137.1,20.7 137,20.7 C136.9,20.6 136.9,20.5 136.9,20.4 C136.9,20.3 136.9,20.2 137,20.1 L137.4,18.9 L137.9,17.5 C138.3,16.4 138.8,14.7 139.4,12.3 C140,10 140.5,7.8 140.8,5.9 C141.1,4 141.3,2.7 141.3,2.1 L141.4,0.7 L141.4,0 C141.4,0 141.6,0 142,0.2 L145.1,1.8 C145.4,2 145.6,2.2 145.6,2.3 C145.6,2.4 145.5,2.6 145.4,2.7 L144.6,3.5 L142.6,9.2 L151.4,9.2 L152.2,7.8 C152.4,7.5 152.5,7.4 152.7,7.4 C152.9,7.4 153.1,7.5 153.3,7.8 L155.7,10.8 C155.9,11.1 156.1,11.4 156.1,11.5 C156.1,11.7 156.2,11.8 156.2,11.9 C156.2,12 156.2,12.1 156.1,12.3 C156,12.4 155.8,12.6 155.6,12.6 L154.2,12.9 C153.1,13.2 151.9,14.4 150.7,16.3 L150.1,17.3 C150,17.5 149.9,17.6 149.8,17.5 C149.7,17.5 149.6,17.4 149.6,17.3 C149.6,17.2 149.6,17.1 149.6,17.1 C149.6,17.1 149.6,17 149.7,16.8 L150,15.8 C150,15.4 150.5,13.5 151.3,10.4 Z" id="形状"></path>
                <path d="M162.3,15.9 C162.2,15.9 162,15.8 162,15.7 C161.9,15.6 161.9,15.4 161.9,15.1 C161.9,14.8 162,14.6 162.3,14.6 L184.6,14.6 L186.3,11.7 C186.4,11.6 186.5,11.5 186.6,11.5 C186.7,11.5 186.8,11.6 187,11.9 L189.2,14.8 C189.4,15.1 189.5,15.3 189.5,15.5 C189.5,15.6 189.4,15.7 189.4,15.8 C189.3,15.9 189.2,15.9 189.1,15.9 L178.8,15.9 L181.1,17.2 C181.3,17.3 181.4,17.4 181.4,17.5 C181.5,17.6 181.5,17.7 181.5,17.8 C181.5,17.9 181.4,18.1 181.2,18.3 L180.5,19 L180.5,34.4 C180.5,35.1 180.6,35.6 180.7,35.9 C180.8,36.2 181.5,36.4 182.6,36.4 C184.1,36.4 185.2,36.2 185.7,36 C186.2,35.7 186.7,35.3 187,34.6 C187.3,33.9 187.6,33.2 187.9,32.4 L189,29.1 C189.1,28.8 189.2,28.7 189.4,28.7 C189.5,28.7 189.5,28.8 189.6,28.9 C189.7,29 189.7,29.1 189.6,29.2 C189.6,29.3 189.6,29.3 189.6,29.4 L188.9,33 C188.8,33.3 188.8,33.7 188.8,34.2 C188.8,34.7 188.9,35.1 189,35.4 C189,35.5 189.2,35.7 189.4,36.1 C189.6,36.4 189.7,36.7 189.8,36.8 C189.8,37 189.8,37.1 189.9,37.2 C189.9,37.3 189.9,37.5 189.8,37.7 C189.6,38.5 188.9,39.2 187.8,39.8 C186.7,40.4 185.1,40.6 183.2,40.6 C181.4,40.6 180.2,40.4 179.3,40.1 C178.5,39.7 178,39.3 177.9,38.7 C177.8,38.1 177.7,37.5 177.7,36.7 L177.7,16.1 L171.9,16.1 L174,17.2 C174.3,17.4 174.5,17.6 174.5,17.8 C174.5,18 174.4,18.1 174.2,18.3 L173.4,19 C173.3,20 173.3,21.1 173.2,22.2 C173.1,23.3 173,24.5 172.9,25.9 C172.8,27.3 172.5,28.7 172.2,30.2 C171.8,31.7 171.1,33.3 170,34.9 C168.9,36.5 166.5,38.1 162.9,39.8 L161.6,40.4 C161.5,40.4 161.4,40.4 161.3,40.4 C161.2,40.3 161.2,40.2 161.2,40.1 C161.2,40 161.3,39.8 161.4,39.7 L162.7,38.8 C163.1,38.5 164,37.8 165.2,36.8 C166.4,35.8 167.4,34.5 168.2,32.9 C168.9,31.4 169.4,29.9 169.7,28.4 C170,27 170.2,25.3 170.3,23.4 C170.4,21.5 170.5,19.9 170.5,18.5 L170.5,17.6 L170.5,16.2 L162.3,16.2 L162.3,15.9 Z M181,4.5 L182.7,1.8 C182.8,1.6 183,1.5 183.1,1.4 C183.2,1.4 183.3,1.5 183.5,1.7 L185.8,4.5 C186,4.7 186,4.9 186.1,5 C186.1,5.1 186.1,5.2 186.1,5.2 C186.1,5.3 186.1,5.3 186.1,5.3 C186.1,5.5 185.9,5.6 185.6,5.6 L165.3,5.6 C165.1,5.6 165,5.4 164.9,5 C164.9,4.6 165,4.4 165.3,4.4 L181,4.4 L181,4.5 Z" id="形状"></path>
            </g>
            <g id="编组" transform="translate(0.000000, 57.200000)">
                <g transform="translate(64.800000, 2.100000)">
                    <path d="M21.3,27.2 L20.4,35.9 L-3.04040088e-23,35.9 L-3.04040088e-23,34.7 C2.9,34.5 3.4,34.1 3.4,30.5 L3.4,5.9 C3.4,2.3 2.9,1.8 -3.04040088e-23,1.7 L-3.04040088e-23,0.5 L19.3,0.5 L20,8.7 L18.9,8.7 C17.9,3.4 16.9,2 12.7,2 L7.4,2 L7.4,16.9 L13.5,16.9 C15.3,16.9 15.8,15.9 15.9,12.6 L17,12.6 L17,22.7 L15.9,22.7 C15.8,19.4 15.3,18.4 13.5,18.4 L7.4,18.4 L7.4,32.4 C7.4,33.9 7.7,34.5 10,34.5 L13.8,34.5 C18.1,34.5 18.9,33 20.2,27.3 L21.3,27.3 L21.3,27.2 Z" id="路径"></path>
                    <path d="M47.9,42.6 C48.2,42.6 48.5,42.6 48.8,42.5 L48.8,43.7 C47.7,44 46.3,44.2 45,44.2 C42.6,44.2 40.5,43.7 39.1,41.2 L38.4,39.9 C37.3,38 36.5,36.8 34.5,36.1 C29.1,34.6 25,28.5 25,18.2 C25,6.3 30.6,0 37.3,0 C44,0 49.6,6.3 49.6,18.2 C49.6,29.9 44.2,36.2 37.7,36.4 C39.8,36.7 41.7,37.8 42.9,39.5 L43.6,40.6 C44.5,42 46,42.6 47.9,42.6 Z M37.3,35.1 C42.7,35.1 45.3,28.7 45.3,18.2 C45.3,7.8 42.7,1.3 37.3,1.3 C31.9,1.3 29.3,7.7 29.3,18.2 C29.3,28.7 31.9,35.1 37.3,35.1 Z" id="形状"></path>
                    <path d="M75.2,26.4 C75.2,32.2 70.7,35.9 65.2,35.9 L53,35.9 L53,34.7 C55.9,34.5 56.4,34.1 56.4,30.5 L56.4,5.9 C56.4,2.3 55.9,1.8 53,1.7 L53,0.5 L63.7,0.5 C69.8,0.5 73.7,3.8 73.7,9 C73.7,13 71.1,16 67.4,17.2 C71.8,18 75.2,21.4 75.2,26.4 Z M60.5,2 L60.5,16.9 L62.9,16.9 C67.4,16.9 69.3,14 69.3,9.4 C69.3,4.8 67.3,2 62.9,2 L60.5,2 Z M70.9,26.4 C70.9,21.5 69,18.4 64.6,18.4 L60.4,18.4 L60.4,32.3 C60.4,33.8 60.7,34.4 63,34.4 L64.6,34.4 C69,34.4 70.9,31.4 70.9,26.4 Z" id="形状"></path>
                </g>
                <g id="路径" transform="translate(209.900000, 2.200000)">
                    <path d="M19.1,26.7 C19.1,31.9 15,36.4 9.3,36.4 C6.3,36.4 3.6,35.1 2.1,33.2 L0.7,36.7 L-3.91919855e-23,36.7 L-3.91919855e-23,24.6 L1.1,24.6 C2,31.2 4.3,35.1 9.2,35.1 C13.3,35.1 15.7,32.7 15.7,28.8 C15.7,24.8 13.6,22.6 10.2,20.6 L6.3,18.3 C2.7,16.2 0.4,13.5 0.4,8.9 C0.4,3.2 4.7,0 9,0 C12,0 14.4,1.7 15.6,3.6 L16.7,0 L17.4,0 L17.4,10.6 L16.4,10.6 C15.6,5.5 13.2,1.4 9.2,1.4 C5.7,1.4 3.6,3.8 3.6,7.5 C3.6,10.9 5.5,12.7 8.5,14.5 L13.1,17.2 C16.9,19.3 19.1,22.1 19.1,26.7 Z"></path>
                    <path d="M40.7,1.5 L40.7,0.3 C42.2,0.5 43.6,0.6 44.9,0.6 C46.2,0.6 47.6,0.4 49.1,0.3 L49.1,1.5 C46.2,1.8 45.7,2.2 45.7,6.1 L45.7,26.1 C45.7,32.9 42.1,36.4 36,36.4 C29.6,36.4 25.7,32.6 25.7,26.4 L25.7,6.1 C25.7,2.2 25.2,1.9 22.3,1.5 L22.3,0.3 C25.5,0.6 26,0.6 27.8,0.6 C29.6,0.6 30,0.5 33.3,0.3 L33.3,1.5 C30.4,1.8 29.9,2.2 29.9,6.1 L29.9,25.9 C29.9,31.8 32.6,34.3 36.8,34.3 C41.7,34.3 44.3,31.8 44.3,25.9 L44.3,6.1 C44.2,2.2 43.6,1.8 40.7,1.5 Z"></path>
                    <path d="M77.2,0.3 L77.2,1.5 C74.7,1.8 74,2.3 73,5.8 L64.3,36.3 L63.6,36.3 L54.1,5.7 C52.9,1.9 52.4,1.7 50,1.4 L50,0.2 C52.2,0.4 53.3,0.5 55,0.5 C56.7,0.5 58.1,0.4 60.8,0.2 L60.8,1.4 C57.7,1.7 57.4,2 58.5,5.7 L65.1,27.9 L71.6,5.7 C72.7,2 72.4,1.7 69.3,1.4 L69.3,0.2 C70.8,0.4 72.4,0.5 73.7,0.5 C74.6,0.6 75.9,0.5 77.2,0.3 Z"></path>
                </g>
                <g id="形状">
                    <path d="M9.2,14 C7.8,15.8 6.5,17.3 5.3,18.5 C4.1,19.8 3.1,20.7 2.3,21.2 C1.5,21.7 1.1,22.1 1.1,22.1 L0.5,22.6 C0.4,22.7 0.3,22.7 0.2,22.7 C0.1,22.7 0,22.7 0,22.6 C0,22.6 0,22.5 0,22.4 C0,22.3 0.1,22.2 0.2,22.1 L0.8,21.4 C2,19.9 3.3,18.2 4.6,16.3 C5.9,14.4 7.2,12 8.7,9.1 C10.1,6.2 11.1,4 11.8,2.2 L12.2,1.2 L12.5,0.3 C12.5,0.3 12.5,0.2 12.6,0.2 L13.4,0.7 L16.7,2.8 C16.8,2.9 16.9,3 17,3.1 C17,3.2 17.1,3.3 17.1,3.4 C17.1,3.5 17,3.7 16.8,3.8 L15.7,4.4 L15.5,4.7 C16.7,7.5 17.9,9.6 19,10.9 C20.2,12.2 21.2,13.2 22.1,13.9 C23,14.6 23.9,15.3 24.9,15.9 C25.9,16.5 26.9,17 27.9,17.3 L28.9,17.6 L29.7,17.8 C29.9,17.9 30,17.9 30,18 C30,18.1 30,18.1 30,18.2 C30,18.3 29.9,18.4 29.9,18.5 L29.4,18.8 C28.9,19.1 28.6,19.3 28.3,19.5 C28,19.7 27.8,20 27.5,20.5 C27.2,20.9 27,21.3 26.9,21.6 C26.8,22 26.7,22.2 26.7,22.3 C26.7,22.4 26.6,22.4 26.5,22.4 C26.2,22.4 25.3,21.7 23.6,20.4 C21.9,19.1 20.5,17.6 19.5,15.9 C18.5,14.3 17.6,12.7 16.9,11.1 C16.2,9.6 15.7,8.1 15.4,6.9 L15,5.4 C12.4,9.5 10.6,12.3 9.2,14 Z M16.2,20.8 C16.1,20.9 16.1,21 16,21.2 C15.9,21.4 15.7,21.6 15.5,21.8 L15.5,28.5 L18.6,28.5 L19.8,26.5 C20,26.1 20.2,25.9 20.3,25.9 C20.4,25.9 20.6,26.1 21,26.5 L23.1,28.8 C23.3,29.1 23.5,29.3 23.4,29.5 C23.3,29.7 23.2,29.7 23,29.7 L15.5,29.7 L15.5,37.9 L22.4,37.9 L24,35.5 L24.3,35.1 C24.4,34.8 24.6,34.7 24.6,34.7 C24.7,34.7 24.9,35 25.3,35.4 L27.6,38 C27.8,38.2 27.9,38.4 27.9,38.4 C27.9,38.5 27.9,38.6 28,38.7 C28,38.8 27.8,38.9 27.5,38.9 L25.8,38.9 L1.4,38.9 C1.1,38.9 1,38.7 1,38.3 C1,37.9 1.1,37.7 1.4,37.7 L12.4,37.7 L12.4,29.5 L5.7,29.5 L5.6,29.5 C5.5,29.5 5.4,29.4 5.4,29.3 C5.3,29.2 5.3,29 5.3,28.7 C5.3,28.4 5.4,28.2 5.6,28.2 L12.5,28.2 L12.5,20.6 L5.7,20.6 C5.5,20.6 5.3,20.4 5.3,20 C5.3,19.6 5.4,19.4 5.7,19.4 L17,19.4 L18.2,17.5 C18.5,17.1 18.6,16.9 18.7,16.9 C18.7,16.9 18.9,17.1 19.3,17.5 L21.4,19.7 C21.6,20 21.7,20.2 21.7,20.3 C21.7,20.5 21.5,20.6 21.3,20.6 L19.3,20.6 L16.2,20.6 L16.2,20.8 Z"></path>
                    <path d="M43.9,6.7 L44.7,5.1 C45,4.5 45.2,4.2 45.2,4.2 C45.3,4.2 45.5,4.4 45.9,4.9 L47.3,6.7 C47.6,7.1 47.7,7.3 47.7,7.4 C47.7,7.5 47.6,7.6 47.6,7.6 C47.5,7.7 47.4,7.7 47.3,7.7 L44.5,7.7 L44.5,7.7 L43,7.7 L45.5,9.6 C45.7,9.8 45.9,9.9 45.9,10 C45.9,10.1 45.9,10.2 45.9,10.3 C45.9,10.4 45.8,10.5 45.6,10.6 L44.7,11 C43.7,13.2 43,14.9 42.5,16.1 L44.4,16.1 L45.2,14.6 C45.5,14.1 45.6,13.9 45.6,13.8 C45.6,13.8 45.7,13.8 45.8,13.8 C45.9,13.8 46,14 46.3,14.3 L47.7,16.1 C48,16.5 48.2,16.8 48.2,16.9 C48.2,17 48.1,17.1 48.1,17.2 C48,17.3 47.9,17.3 47.7,17.3 L42.5,17.3 C42.4,17.4 42.4,17.5 42.3,17.5 C42.3,17.6 42.1,17.7 41.9,17.9 L41.9,22.6 L43.3,22.6 L44.3,20.8 C44.5,20.5 44.6,20.3 44.7,20.3 C44.8,20.3 45,20.5 45.3,20.9 L47,23 C47.1,23.2 47.2,23.3 47.2,23.4 C47.2,23.5 47.2,23.6 47.1,23.6 C47,23.7 47,23.7 46.9,23.7 L41.9,23.7 L41.9,35.6 C41.9,36.2 41.8,36.8 41.6,37.2 C41.4,37.6 41.2,37.9 40.9,38.1 C40.6,38.3 40.2,38.5 39.7,38.7 C39.2,38.9 38.8,39 38.6,39 C38.5,39 38.5,39 38.5,39 C38.5,39 38.4,38.9 38.4,38.8 C38.4,38.7 38.4,38.5 38.4,38.3 C38.4,38 38.3,37.7 38.2,37.2 C38.1,36.7 37.8,36.3 37.2,35.9 L36.3,35.3 C36.1,35.2 36,35 36,34.8 C36,34.6 36.1,34.5 36.3,34.5 L37.3,34.6 C37.5,34.6 37.7,34.7 37.9,34.7 C38.1,34.7 38.2,34.7 38.3,34.7 L38.8,34.7 C39.2,34.7 39.4,34.6 39.4,34.3 L39.4,23.7 L33.5,23.7 L33.3,23.6 C33.1,23.4 33,23.2 33,22.9 C33,22.6 33.1,22.4 33.5,22.4 L39.4,22.4 L39.4,17.1 L33.1,17.1 L32.9,17.1 C32.8,17.1 32.7,17 32.7,16.9 C32.6,16.8 32.6,16.6 32.6,16.3 C32.6,16 32.7,15.8 33,15.8 L41.3,15.8 C41.5,14.8 41.8,13.5 42.1,11.9 C42.4,10.3 42.6,9.2 42.6,8.6 L42.7,7.4 L33.6,7.4 C33.3,7.4 33.2,7.2 33.2,6.8 C33.2,6.4 33.3,6.2 33.6,6.2 L43.9,6.2 L43.9,6.7 Z M37.6,28.1 C37.1,29.4 36.7,30.2 36.5,30.7 C36.3,31.2 35.8,32.1 35.1,33.5 C34.4,34.9 33.9,35.7 33.7,36 L33,37 C32.9,37.2 32.8,37.3 32.7,37.3 C32.7,37.3 32.6,37.3 32.6,37.3 C32.6,37.3 32.6,37.2 32.6,37.1 C32.6,37 32.6,36.8 32.7,36.6 L33,35.6 C33.1,35.5 33.2,35 33.4,34.1 C33.6,33.3 33.8,32.7 33.9,32.5 C34,32.3 34.1,31.6 34.4,30.4 C34.7,29.2 34.9,28.3 35,27.8 L35.2,26.4 L35.3,25.3 C35.3,25.2 35.4,25.2 35.4,25.2 L35.8,25.5 L38,26.9 C38.2,27.1 38.4,27.2 38.4,27.3 C38.4,27.3 38.4,27.4 38.3,27.5 C38.3,27.6 38.2,27.6 38.2,27.7 L37.6,28.1 Z M36,10.4 L35.7,9.6 C35.7,9.6 35.7,9.5 35.7,9.4 C35.7,9.3 35.7,9.2 35.7,9.2 C35.7,9.1 35.8,9 35.9,9 C36,9 36.6,9.5 37.6,10.4 C38.6,11.3 39.1,12.5 39.1,13.8 C39.1,14.4 38.9,14.9 38.6,15.4 C38.3,15.9 37.9,16.1 37.5,16.1 C36.9,16.1 36.5,15.9 36.4,15.3 C36.3,14.7 36.3,14.3 36.3,13.8 C36.3,13.3 36.3,13 36.3,12.7 C36.3,11.7 36.2,10.9 36,10.4 Z M37.7,1.1 L37.4,0.6 C37.3,0.5 37.3,0.5 37.3,0.4 C37.3,0.3 37.3,0.3 37.3,0.2 C37.3,0.1 37.4,3.04040088e-23 37.5,3.04040088e-23 C37.6,3.04040088e-23 37.9,0.1 38.5,0.3 C39.1,0.5 39.7,0.8 40.4,1.2 C41.1,1.6 41.5,2.2 41.6,3 C41.7,3.7 41.8,4.2 41.8,4.3 C41.8,4.4 41.8,4.6 41.7,4.8 C41.6,5.2 41.4,5.6 41.2,6 C40.9,6.4 40.6,6.6 40.1,6.6 C39.6,6.6 39.2,6.4 39,6.1 C38.8,5.7 38.7,5.3 38.6,4.9 L38.5,3.5 C38.5,3.1 38.4,2.8 38.3,2.5 C38.2,2.2 38,1.6 37.7,1.1 Z M57.2,15.5 L58,13.9 C58.3,13.3 58.5,13 58.5,12.9 C58.5,12.9 58.6,12.9 58.7,12.9 C58.8,13 59,13.2 59.4,13.7 L61,15.7 C61.1,15.9 61.2,16 61.3,16.1 C61.3,16.2 61.3,16.2 61.3,16.3 C61.3,16.5 61.2,16.7 61,16.7 L57.4,16.7 C57.3,16.9 57.2,17.1 57.1,17.2 C57,17.3 56.9,17.3 56.8,17.4 L56.8,36.6 L56.9,39.4 C56.8,39.9 56.5,40.3 56.1,40.5 C55.7,40.7 55.3,40.8 55,40.8 C54.6,40.8 54.3,40.7 54.2,40.5 C54.1,40.3 54,40.1 54,39.8 L54.1,35.2 L54.1,16.6 L51,16.6 C50.9,18.6 50.9,20.3 50.8,21.8 C50.7,23.3 50.6,24.6 50.5,25.9 C50.4,27.2 50,28.6 49.5,30.3 C49,32 48.2,33.5 47.2,34.8 C46.2,36.1 45.4,37.1 44.8,37.8 C44.2,38.5 43.7,38.9 43.4,39.2 L42.7,39.8 C42.6,39.9 42.5,40 42.4,39.9 C42.3,39.9 42.3,39.9 42.3,39.8 C42.3,39.7 42.3,39.7 42.3,39.7 C42.3,39.7 42.3,39.6 42.3,39.5 C42.3,39.4 42.4,39.3 42.5,39.2 L43.1,38.5 C44.5,36.8 45.6,35 46.5,33.1 C47.4,31.2 47.8,29.2 48.1,27.1 C48.3,25 48.5,23.1 48.5,21.3 C48.6,19.5 48.6,17.4 48.6,14.9 C48.6,13.3 48.6,11.7 48.5,10.1 C48.4,8.5 48.4,7.7 48.4,7.5 L48.4,6.6 L48.2,3.4 C48.2,3.4 48.3,3.3 48.3,3.3 C48.3,3.3 48.6,3.4 49,3.8 L51.2,5.4 C53,4.4 54.5,3.4 55.6,2.4 L56.4,1.7 L56.9,1.1 C57,1.1 57.1,1.1 57.1,1.1 L57.7,1.8 L59.5,3.9 C59.8,4.3 60,4.5 60,4.6 C60,4.8 59.9,4.9 59.7,4.9 L58.7,5.1 L54.5,6 L51.1,6.6 C51.1,8.3 51.1,9.5 51.1,10.3 L51.1,12.8 L51.1,15.3 L57.2,15.3 L57.2,15.5 Z M43.1,27.6 L42.8,27.1 C42.7,26.8 42.6,26.6 42.6,26.5 C42.6,26.4 42.7,26.3 42.7,26.3 C42.7,26.3 42.7,26.3 42.8,26.3 C43,26.3 43.5,26.6 44.2,27.3 C44.9,28 45.5,28.6 45.8,29.2 C46.2,29.8 46.3,30.5 46.3,31.2 C46.3,31.7 46.2,32.2 45.9,32.7 C45.6,33.2 45.3,33.4 44.8,33.4 C44.3,33.4 44,33.2 43.8,32.8 C43.7,32.4 43.6,31.9 43.6,31.5 L43.6,30.1 C43.7,29.1 43.5,28.3 43.1,27.6 Z"></path>
                    <path d="M147.6,15.3 L152.3,15.7 C152.6,15.1 152.8,14.4 153.1,13.7 C153.4,13 153.6,12.5 153.7,12.1 L154.1,10.9 L154.2,10.5 C154.2,10.5 154.3,10.4 154.3,10.4 C154.3,10.4 154.4,10.5 154.6,10.6 L157,12.9 C157.1,13 157.2,13.1 157.2,13.2 C157.2,13.3 157.3,13.3 157.3,13.4 C157.3,13.5 157.2,13.6 157,13.6 L156.1,13.9 C153.7,18.1 151.3,22 149,25.8 L153.4,25.2 L155.1,24.9 C155.4,24.9 155.5,24.9 155.5,25.1 C155.5,25.3 155.4,25.5 155.1,25.6 L153.7,26.2 C153.2,26.4 152.4,26.8 151.2,27.5 C150,28.1 149.2,28.6 148.8,28.8 L147.7,29.5 C147.3,29.7 147.1,29.8 147.1,29.8 C147.1,29.8 147,29.7 147,29.5 L146.1,26.5 C146,26.2 145.9,26 146,26 C146,26 146,25.9 146.1,25.9 L146.4,25.8 L146.9,25.6 C147.1,25.5 147.3,25.4 147.5,25.2 C147.7,25 148.1,24.4 148.7,23.3 C149.3,22.2 150.4,20 152,16.6 C150.6,16.9 149.4,17.3 148.2,17.7 L146.6,18.3 L146.1,18.5 C146.1,18.5 146,18.3 145.9,17.8 L145.2,15.3 C145.2,15.1 145.1,15 145.1,15 C145.1,15 145.2,14.9 145.3,14.9 L145.9,14.6 C146.4,14.4 146.9,13.5 147.5,12 C148.1,10.5 148.6,9 149.1,7.4 C149.6,5.8 149.9,4.8 150.1,4.2 L150.6,2.4 L150.7,1.9 C150.8,1.8 150.9,1.9 151.1,2 L154,3.8 C154.1,3.9 154.1,3.9 154.2,4 C154.3,4.1 154.3,4.1 154.3,4.2 C154.3,4.3 154.3,4.3 154.2,4.4 C154.1,4.5 154,4.6 153.9,4.6 L153.1,5 L147.6,15.3 Z M147.5,34.8 C150.8,33.7 153.5,32.8 155.4,32 L156.5,31.6 C156.6,31.6 156.7,31.6 156.8,31.6 C156.9,31.6 156.9,31.7 156.9,31.9 C156.9,32 156.8,32.1 156.7,32.2 L155.7,32.9 L152.1,35.6 C150.4,36.9 149.4,37.7 149,38 L147.7,39.1 C147.5,39.3 147.3,39.4 147.3,39.4 C147.3,39.4 147.2,39.3 147.2,39.1 L146.2,35.9 C146.1,35.5 146,35.2 146,35.2 C146,35.2 146,35.1 146,35.1 L146.3,35 L147.5,34.8 Z M162.3,9 L162.3,4.6 L162.2,0.6 C162.2,0.6 162.2,0.5 162.3,0.5 C162.3,0.5 162.5,0.5 162.8,0.6 L165.7,1.4 C165.9,1.5 166,1.6 166,1.7 C166,1.8 165.9,2 165.8,2.1 L165,2.9 L165,9 L168.5,9 L169.8,6.7 C169.9,6.5 170,6.4 170,6.4 C170,6.4 170.1,6.5 170.3,6.7 L172.8,9.7 C172.9,9.8 172.9,9.9 172.9,10 C172.9,10.1 172.9,10.1 172.9,10.2 C172.9,10.3 172.8,10.3 172.6,10.3 L169.3,10.3 L169.3,10.3 L165.1,10.3 L165.1,25.7 L168.7,25.7 L168.7,18.7 L168.6,14.4 C168.6,14.4 168.7,14.3 168.7,14.3 L169.2,14.5 L172,15.4 C172.3,15.5 172.4,15.6 172.3,15.7 C172.2,15.8 172.2,15.9 172.1,16 L171.4,16.7 L171.4,24.8 L171.5,27.9 C171.4,28.2 171.3,28.4 171.2,28.6 C171.1,28.7 170.7,28.9 170.1,29.2 C169.5,29.5 169.1,29.4 168.9,29.1 C168.7,28.8 168.7,28.5 168.7,28.1 L168.7,26.8 L165.1,26.8 L165.1,35.2 C165.1,35.7 165.2,36.2 165.4,36.7 C165.6,37.2 166.3,37.4 167.5,37.3 C169.1,37.3 170.1,37.1 170.5,37 C170.9,36.9 171.2,36.6 171.4,36.3 C171.6,36 171.8,35.6 172,35 L172.6,32.7 L173.1,30.9 C173.2,30.7 173.2,30.6 173.3,30.6 C173.4,30.6 173.4,30.6 173.5,30.7 C173.5,30.8 173.5,30.8 173.5,30.9 C173.5,31 173.5,31 173.5,31.1 L173.2,33.1 C173.1,34.1 173,34.9 173,35.3 C173,35.8 173.1,36.2 173.3,36.6 L173.8,37.6 C173.9,37.8 173.9,38 173.9,38.2 C173.9,38.4 173.8,38.7 173.7,39.1 C173.6,39.5 173.1,39.9 172.3,40.2 C171.5,40.5 170,40.7 167.6,40.7 C166.2,40.7 165,40.5 163.9,40.1 C162.8,39.7 162.3,38.5 162.3,36.7 L162.3,26.8 L159,26.8 L158.1,28.8 C158,29 158,29 157.9,29 L157.7,28.8 L155.9,26.9 C155.8,26.8 155.7,26.6 155.7,26.5 L155.7,26.5 L155.7,26.4 L155.9,26.2 L156.5,25.5 L156.5,18.6 L156.4,14.7 C156.4,14.7 156.4,14.7 156.5,14.7 L156.9,14.9 L159.6,15.8 C159.7,15.9 159.8,16 159.8,16.1 C159.8,16.2 159.7,16.4 159.6,16.6 L158.9,17.4 L158.9,25.7 L162.2,25.7 L162.2,10.3 L155.6,10.3 C155.4,10.3 155.2,10.1 155.2,9.7 C155.2,9.3 155.3,9.1 155.6,9.1 L162.3,9.1 L162.3,9 Z"></path>
                    <path d="M197.8,25.6 L191.2,25.6 L191.2,33.6 C191.2,33.9 191.2,34.2 191.2,34.4 C191.2,34.6 191.5,34.9 191.9,35.3 C192.3,35.7 193.8,35.9 196.3,35.9 C199,35.9 200.7,35.6 201.3,35 C201.9,34.4 202.3,33.8 202.5,33.2 C202.7,32.6 203,31.8 203.2,30.8 L203.8,28.2 C203.8,28 203.9,27.9 204,27.9 C204.1,27.9 204.2,28 204.2,28.1 C204.2,28.2 204.2,28.3 204.2,28.3 L203.9,31.2 C203.8,31.9 203.8,32.5 203.8,32.9 C203.8,33.3 203.9,33.7 204,34 C204.1,34.3 204.2,34.6 204.4,34.8 C204.6,35 204.7,35.2 204.7,35.4 C204.8,35.6 204.8,35.8 204.8,36 C204.8,36.2 204.8,36.5 204.7,36.8 C204,38.6 201.5,39.5 197.2,39.5 C196.5,39.5 195.6,39.5 194.5,39.4 C193.5,39.3 192.4,39.2 191.2,39 C190.1,38.8 189.3,38.3 188.9,37.5 C188.5,36.7 188.3,35.8 188.3,34.8 L188.3,25.4 L182.1,25.4 L182.1,29.1 C182.1,29.4 181.9,29.7 181.5,30 C181.1,30.3 180.7,30.4 180.3,30.3 C180,30.3 179.7,30.2 179.6,30 C179.5,29.8 179.4,29.6 179.3,29.3 L179.5,24.7 L179.5,10.4 L179.3,6.4 C179.4,6.3 179.4,6.3 179.4,6.2 C179.4,6.2 179.6,6.3 179.9,6.5 L182.2,8.2 L188.2,8.2 L188.2,6 L188,0.6 C188.1,0.5 188.2,0.5 188.3,0.4 L188.9,0.6 L191.5,1.3 C191.7,1.4 191.8,1.4 191.9,1.5 C192,1.6 192,1.7 192,1.8 C192,1.9 191.9,2.1 191.7,2.4 L190.9,3.3 L190.9,8.4 L197.3,8.4 L198.1,6.9 C198.2,6.7 198.3,6.5 198.4,6.5 C198.5,6.5 198.7,6.7 199.1,7 L201,8.8 C201.2,8.9 201.2,9 201.3,9.1 C201.3,9.1 201.3,9.2 201.3,9.2 C201.3,9.2 201.2,9.4 200.9,9.7 L200.3,10.6 L200.3,23.6 L200.4,27 C200.1,28 199.6,28.6 198.7,28.6 C197.8,28.6 197.4,28.3 197.4,27.7 L197.8,25.6 Z M188.5,16.5 L188.5,9.8 L182.3,9.8 L182.3,16.5 L188.5,16.5 Z M188.5,24.4 L188.5,17.7 L182.3,17.7 L182.3,24.4 L188.5,24.4 Z M197.8,16.5 L197.8,9.8 L191.2,9.8 L191.2,16.5 L197.8,16.5 Z M197.8,24.4 L197.8,17.7 L191.2,17.7 L191.2,24.4 L197.8,24.4 Z"></path>
                </g>
            </g>
        </g>
    </g>
</svg>