<?xml version="1.0" encoding="UTF-8"?>
<svg width="172px" height="105px" viewBox="0 0 172 105" version="1.1" xmlns="http://www.w3.org/2000/svg" xmlns:xlink="http://www.w3.org/1999/xlink">
    <title>mob-2</title>
    <g id="页面-1" stroke="none" stroke-width="1" fill="none" fill-rule="evenodd">
        <g id="mob-2" transform="translate(0.800000, 0.900000)" fill="#FFFFFF" fill-rule="nonzero">
            <g id="编组" transform="translate(0.400000, 0.000000)">
                <path d="M11.8,13.9 C12.6,9.9 13.2,6.7 13.5,4.5 L13.9,1.6 L14,0.5 C14,0.5 14,0.4 14.1,0.4 C14.1,0.4 14.3,0.5 14.6,0.6 L18.1,2.4 C18.3,2.5 18.5,2.7 18.5,2.9 C18.5,3.1 18.4,3.2 18.2,3.3 L17.2,4.1 C16.5,7.5 15.8,10.7 15.1,13.7 L23.8,13.3 L24.7,12 C24.9,11.7 25,11.6 25.1,11.6 C25.2,11.6 25.3,11.7 25.4,11.8 L28.4,14.6 C28.6,14.8 28.7,15 28.7,15.1 C28.7,15.2 28.6,15.4 28.4,15.5 L27.3,16.3 C27.1,19 26.7,22.7 26.2,27.5 C25.7,32.2 24.9,35.4 23.8,37.1 C22.7,38.8 21.7,39.8 20.7,40.2 C19.8,40.6 19.1,40.8 18.8,40.9 L18.2,41 C18,41 18,41 17.9,41 C17.9,41 17.8,40.8 17.7,40.5 L17.4,39.4 C17.3,39 17,38.5 16.7,38 C16.3,37.4 16,37 15.7,36.7 L14.6,35.8 C14.4,35.7 14.4,35.5 14.4,35.4 C14.4,35.3 14.5,35.2 14.6,35.1 C14.7,35 14.8,35 14.9,35.1 L16.6,35.8 C17.2,36.1 17.8,36.2 18.4,36.2 C19,36.2 19.6,36 20.3,35.6 C21,35.2 21.5,33.8 22,31.4 C22.5,29 22.8,26.6 23.1,24.2 C23.4,21.8 23.6,20.1 23.6,19.3 L23.9,14.9 L14.7,15.3 C13.7,19.2 12.3,23.3 10.7,27.5 C9,31.7 5.9,35.8 1.3,39.6 L0.4,40.3 C0.2,40.4 0.1,40.5 0.1,40.4 C-1.42108547e-14,40.3 -1.42108547e-14,40.2 -1.42108547e-14,40.1 C-1.42108547e-14,40 -1.42108547e-14,39.9 0.1,39.7 L1,38.7 C1.3,38.4 1.9,37.5 3,36 C4.1,34.5 5.3,32.3 6.8,29.5 C8.2,26.7 9.8,21.9 11.6,15.3 L1.1,15.8 C1,15.8 0.9,15.8 0.8,15.7 C0.7,15.6 0.6,15.4 0.6,15.2 C0.6,15 0.6,14.8 0.7,14.7 C0.8,14.6 0.9,14.6 1.2,14.6 L11.8,13.9 Z M4.1,2.5 C4.1,2.5 4.2,2.5 4.2,2.4 C4.3,2.4 4.6,2.6 5.2,2.9 C5.8,3.2 6.7,3.9 7.7,4.9 C8.8,5.9 9.3,7 9.3,8.4 C9.3,9.8 9.1,10.7 8.7,11.3 C8.3,11.9 7.8,12.1 7.4,12.1 C6.9,12.1 6.5,11.9 6.3,11.4 C6.1,11 5.9,10.6 5.9,10.2 C5.9,9.9 5.8,9.1 5.8,8 C5.8,6.9 5.6,6 5.4,5.3 C5.2,4.6 4.9,4 4.6,3.6 C4.3,3.2 4.1,2.9 4.1,2.7 C3.9,2.8 4,2.6 4.1,2.5 Z M14.6,19 C14.6,19 14.7,19 14.7,18.9 C14.7,18.8 14.8,18.9 14.9,19 C15,19 15.3,19.2 15.8,19.5 C16.3,19.8 17.1,20.5 18.2,21.5 C19.3,22.5 19.8,23.7 19.8,25 C19.8,26.3 19.6,27.3 19.2,27.9 C18.8,28.5 18.3,28.7 17.9,28.7 C17.4,28.7 17,28.5 16.7,28 C16.5,27.6 16.3,27.2 16.3,26.9 C16.3,26.6 16.2,25.8 16.2,24.7 C16.2,23.6 16,22.6 15.8,21.9 C15.6,21.2 15.3,20.6 15,20.2 C14.7,19.8 14.5,19.6 14.5,19.5 C14.5,19.4 14.5,19.3 14.5,19.3 C14.4,19.2 14.5,19.1 14.6,19 Z" id="形状"></path>
                <path d="M36.4,15.7 C34.8,18.9 33.7,21 33,22 L32.5,22.7 C32.4,22.9 32.3,22.9 32.2,22.8 C32.1,22.7 32.1,22.6 32.1,22.5 C32.1,22.4 32.1,22.3 32.2,22.2 L32.6,21.1 C33.4,19.2 34.2,16.5 35.1,13 C36,9.5 36.6,7.1 36.9,5.6 C37.2,4.1 37.4,2.9 37.5,1.9 L37.7,0.6 L37.8,0.1 C37.8,0.1 37.8,0 37.9,0 C37.9,0 38.1,0.1 38.4,0.2 L41.8,2.2 C42,2.3 42,2.4 42,2.6 C42,2.7 41.9,2.9 41.8,3 L40.9,3.6 C40.1,6.1 39.2,8.5 38.4,10.9 L39.7,11.7 C39.8,11.8 39.9,11.9 40,11.9 C40.1,12 40.1,12 40.1,12.1 C40.1,12.1 40.1,12.2 40,12.3 C39.9,12.4 39.9,12.5 39.8,12.6 L39.2,13.4 L39.2,35.3 L39.3,40 C39.2,40.2 39.2,40.4 39.1,40.6 C39,40.8 38.7,40.9 38.1,41.1 C37.6,41.3 37.2,41.3 36.9,41.3 C36.7,41.3 36.5,41.2 36.5,41.1 C36.4,41 36.4,40.8 36.3,40.6 L36.5,35 L36.5,19.2 L36.4,15.7 Z M47.3,22.7 C45.9,26.3 44.8,28.8 44,30.1 C43.2,31.4 42.5,32.7 41.7,34 L41,35.2 C40.9,35.4 40.7,35.5 40.7,35.4 C40.6,35.3 40.6,35.2 40.6,35.1 C40.6,35 40.6,34.9 40.7,34.7 L41.3,33.3 C41.5,32.7 41.9,31.7 42.4,30.2 C42.9,28.7 43.3,27.2 43.6,25.6 C43.9,24 44.2,22.9 44.3,22.2 L44.7,20 L44.7,19.5 C44.7,19.5 44.8,19.5 45,19.6 L48.1,21.6 C48.3,21.7 48.4,21.9 48.4,22.1 C48.4,22.3 48.3,22.4 48.1,22.5 L47.3,22.7 Z M56.4,11.1 L46.4,11.1 C46.3,11.3 46.2,11.4 46.2,11.5 L44.9,14.4 C44.1,16.2 43.3,17.8 42.3,19.4 L41.5,20.7 C41.4,20.9 41.2,21 41.2,20.9 C41.1,20.8 41.1,20.7 41.1,20.7 C41.1,20.6 41.1,20.6 41.2,20.4 L41.8,18.7 C43.1,14.6 44,11 44.5,8.1 C45,5.2 45.2,3.4 45.3,2.8 L45.4,1.4 L45.5,0.7 C45.5,0.7 45.5,0.6 45.6,0.6 C45.6,0.6 45.9,0.7 46.3,0.9 L49.4,2.6 C49.5,2.7 49.6,2.7 49.7,2.8 C49.8,2.9 49.8,2.9 49.8,3.1 C49.8,3.2 49.7,3.3 49.6,3.4 L48.8,4.1 C48.2,6.3 47.6,8.2 47,9.9 L56.6,9.9 L57.6,8.4 C57.7,8.3 57.8,8.2 57.8,8.2 C57.9,8.2 57.9,8.3 58.1,8.4 L60.9,11.7 C61.1,12 61.2,12.2 61.2,12.5 C61.2,12.8 61.1,12.9 61,13 C60.9,13.1 60.6,13.2 60,13.2 C59.5,13.2 58.9,13.4 58.3,13.9 C57.7,14.4 57.1,15.2 56.4,16.4 L55.8,17.6 C55.6,17.9 55.5,18 55.4,17.9 C55.3,17.8 55.3,17.7 55.3,17.6 C55.3,17.5 55.3,17.5 55.3,17.4 C55.3,17.3 55.3,17.3 55.3,17.2 L55.6,15.8 C55.6,15.3 55.9,13.8 56.4,11.1 Z M52.2,16.4 L52.2,37.5 C52.2,37.9 52.1,38.4 52,38.9 C51.9,39.4 51.4,39.9 50.8,40.1 C50.1,40.4 49.7,40.5 49.5,40.6 L49,40.7 C48.8,40.7 48.7,40.7 48.6,40.7 C48.5,40.7 48.5,40.6 48.5,40.5 L48.2,39.5 C48.1,39 47.8,38.6 47.4,38.1 C47,37.6 46.7,37.3 46.3,37.1 L45.1,36.5 C44.9,36.4 44.9,36.3 44.9,36.1 C44.9,36 44.9,35.9 45,35.8 C45.1,35.7 45.1,35.7 45.2,35.7 L46.4,35.9 C47.5,36.1 48.2,36.2 48.6,36.1 C49,36.1 49.3,36 49.4,35.7 C49.6,35.5 49.6,35.2 49.6,35 L49.6,18.3 L49.5,13.2 C49.6,13.2 49.6,13.2 49.6,13.1 C49.6,13.1 49.8,13.1 50,13.2 L53.3,14.4 C53.5,14.5 53.6,14.6 53.6,14.8 C53.6,15 53.5,15.1 53.4,15.3 L52.2,16.4 Z M53.9,21.2 C54,21.2 54,21.1 54,21.1 C54,21.1 54.3,21.2 54.7,21.6 C55.1,21.9 55.9,22.6 57.1,23.8 C58.3,25 59.2,26.3 59.8,27.9 C60.4,29.5 60.8,30.9 60.7,32.1 C60.7,32.9 60.5,33.6 60.2,34.2 C59.9,34.8 59.5,35 58.9,35 C58.3,35 57.9,34.7 57.7,34.1 C57.4,33.5 57.2,32.5 57.1,31.1 C57,29.7 56.7,28.4 56.4,27.2 C56.1,26 55.8,25.2 55.6,24.7 C55.4,24.2 55.1,23.6 54.7,22.9 C54.3,22.2 54.1,21.8 53.9,21.7 C53.7,21.6 53.7,21.5 53.7,21.4 C53.7,21.3 53.8,21.4 53.9,21.2 Z" id="形状"></path>
                <path d="M68.9,40.2 L69.5,39.4 C69.6,39.3 69.7,39 70,38.5 C70.3,38 70.5,37.7 70.6,37.4 C70.7,37.1 70.8,36.7 71,36.1 C71.2,35.5 71.2,35 71.1,34.7 C71,34.4 70.9,34.2 70.8,34.2 C70.7,34.2 70.6,34.2 70.4,34.3 C70.2,34.4 70,34.4 69.8,34.4 C69.2,34.4 68.8,34.1 68.4,33.6 C68,33.1 67.9,32.4 67.9,31.6 C67.9,30.8 68.1,30.1 68.5,29.5 C68.9,28.9 69.4,28.6 70.1,28.6 C70.9,28.6 71.5,29 71.9,29.8 C72.3,30.5 72.6,31.3 72.6,32.2 C72.7,33 72.6,33.8 72.5,34.6 C72.3,35.7 72.1,36.7 71.7,37.6 C71.3,38.5 70.9,39.1 70.6,39.5 C70.3,39.9 69.9,40.3 69.6,40.6 C69.3,41 69,41.1 68.8,41.1 C68.6,41 68.5,40.9 68.5,40.8 C68.7,40.5 68.7,40.3 68.9,40.2 Z" id="路径"></path>
                <path d="M101.3,13.9 L101.3,7.3 L101.2,2.3 C101.2,2.3 101.3,2.2 101.3,2.2 L101.6,2.3 L104.9,3.6 C105,3.6 105,3.7 105.1,3.8 C105.2,3.9 105.2,4 105.2,4.1 C105.2,4.2 105.1,4.3 105,4.4 L104.2,5.3 L104.2,13.7 L108,13.7 L108,5.7 L107.9,0.4 C108,0.3 108,0.3 108,0.2 L108.4,0.4 L111.4,1.4 C111.4,1.4 111.4,1.4 111.5,1.5 C111.6,1.6 111.6,1.6 111.6,1.6 C111.6,1.6 111.6,1.7 111.6,1.8 C111.6,1.9 111.5,2 111.4,2.1 L110.6,3.1 L110.6,13.6 L115.5,13.6 L115.5,5.3 L115.4,0.7 C115.5,0.6 115.5,0.5 115.6,0.5 L116,0.7 L119,1.8 C119.1,1.8 119.2,1.9 119.2,2 C119.3,2.1 119.3,2.2 119.2,2.2 C119.1,2.2 119.1,2.4 119,2.5 L118.2,3.5 L118.2,13.6 L120.6,13.6 L122.3,10.8 C122.4,10.7 122.4,10.6 122.5,10.6 C122.5,10.6 122.6,10.7 122.7,10.8 L125.1,14.1 C125.1,14.2 125.2,14.3 125.2,14.4 C125.3,14.5 125.3,14.6 125.3,14.6 C125.3,14.8 125.2,14.8 125.1,14.8 L121.5,14.8 L118.2,14.8 L118.2,26.8 L118.3,30 C118.3,30.2 118.2,30.3 118.1,30.5 C118,30.7 117.7,30.8 117.3,31 C116.8,31.2 116.4,31.2 116.1,31.2 C115.8,31.2 115.6,31.1 115.6,31 C115.6,30.9 115.5,30.7 115.5,30.4 L115.5,28 L110.6,28 L110.6,30.4 C110.6,30.6 110.6,30.8 110.5,31 C110.4,31.2 110.2,31.4 109.8,31.5 C109.4,31.6 109,31.7 108.7,31.7 C108.4,31.7 108.1,31.7 108.1,31.6 C108.1,31.5 108,31.3 107.9,31.1 L108,26.1 L108,15.1 L104.2,15.1 L104.2,37.3 L119.9,37.2 L121.6,34.5 C121.8,34.2 121.9,34.1 122,34.1 C122.1,34.1 122.2,34.2 122.4,34.5 L124.6,37.8 C124.6,37.8 124.7,38 124.8,38.2 C124.9,38.4 124.8,38.5 124.6,38.5 L104.5,38.5 L103.5,39.9 C103.2,40.3 103,40.5 103,40.5 C103,40.5 102.9,40.4 102.7,40.2 L100.9,37.8 C100.8,37.6 100.7,37.5 100.7,37.4 C100.7,37.3 100.8,37.1 100.9,37 L101.5,36.4 L101.5,15.1 L96.7,15.1 C96.4,15.1 96.3,14.9 96.3,14.5 C96.3,14.1 96.4,13.9 96.7,13.9 L101.3,13.9 L101.3,13.9 Z M115.6,27.1 L115.6,15.1 L110.7,15.1 L110.7,27.1 L115.6,27.1 Z" id="形状"></path>
                <path d="M135,15.4 L135,16.6 C135,17.1 134.8,17.4 134.5,17.7 C134.1,17.9 133.7,18.1 133.3,18.1 C133,18.1 132.8,18.1 132.7,18 C132.6,17.9 132.5,17.7 132.4,17.6 L132.5,12.5 L132.5,4.9 L132.4,0.9 C132.5,0.8 132.5,0.8 132.5,0.8 C132.5,0.8 132.8,0.9 133.2,1.2 L135,2.5 L149,2.5 L149.8,1 C149.9,0.8 150,0.7 150.1,0.7 C150.2,0.7 150.3,0.8 150.6,1 L152.6,2.7 C152.9,2.9 153,3.1 153,3.3 C153,3.4 152.9,3.6 152.8,3.7 L152.1,4.5 L152.1,12.9 L152.3,16 C152.3,16.3 152.2,16.5 152.1,16.7 C152,16.9 151.8,17.1 151.4,17.3 C151,17.5 150.6,17.7 150.1,17.7 C149.6,17.7 149.3,17.4 149.3,16.8 L149.3,15.5 L143.4,15.5 L144.4,16.5 C144.5,16.6 144.5,16.7 144.6,16.8 C144.6,16.9 144.7,17 144.7,17 C144.7,17.1 144.7,17.1 144.6,17.2 C144.6,17.3 144.5,17.3 144.4,17.3 L143.9,17.3 C145.2,19.3 146.9,20.9 149.2,22 C151.4,23.1 153.9,23.6 156.7,23.6 L157.4,23.6 C157.5,23.6 157.5,23.6 157.6,23.7 C157.7,23.8 157.7,23.8 157.7,23.9 C157.7,24 157.6,24.1 157.5,24.2 L157.1,24.5 C156.4,25 156,25.6 155.7,26.2 C155.4,26.8 155.2,27.3 155.2,27.6 C155.1,28 155.1,28.2 155,28.3 C155,28.4 154.9,28.4 154.9,28.4 C154.6,28.4 154,28.1 152.9,27.6 C151.8,27.1 150.7,26.4 149.4,25.5 C149.1,25.8 148.9,26 148.7,26.3 L148.7,36.8 L148.8,39.8 C148.6,40.7 148.1,41.2 147.4,41.2 C146.7,41.2 146.2,41.1 146.1,41 C146,40.9 145.9,40.7 145.8,40.5 L145.9,36.5 L145.9,27.5 L145.7,24 C145.8,24 146,24 146.2,24 L148.4,24.8 C147.5,24 146.7,23.2 146.2,22.5 C145.7,21.8 145.2,21 144.7,20.2 C144.2,19.4 143.8,18.4 143.3,17.3 C141.3,19.6 139.2,21.7 137.1,23.5 L140,24.7 C140.2,24.8 140.3,24.9 140.3,24.9 C140.4,25 140.4,25.1 140.4,25.1 C140.4,25.2 140.3,25.3 140.1,25.5 L139.6,25.9 C139.6,26.5 139.5,27.6 139.4,29.2 C139.3,30.8 139.1,32.2 138.8,33.3 C138.5,34.4 138.1,35.4 137.5,36.3 C136.9,37.2 136.1,38 135,38.7 C133.9,39.5 132.8,40.1 131.8,40.5 L130.9,40.9 C130.8,41 130.7,41 130.6,41 C130.5,41 130.4,41 130.4,40.9 C130.4,40.8 130.4,40.8 130.4,40.8 C130.4,40.8 130.4,40.7 130.5,40.6 C130.6,40.5 130.6,40.4 130.7,40.4 L131.7,39.7 C133.7,38.3 135,36.9 135.6,35.4 C136.1,33.9 136.5,32.7 136.6,31.7 C136.7,30.7 136.8,29.5 136.9,28.2 C137,26.8 137,26 137,25.9 L136.9,23.7 C134.8,25.4 132.5,26.9 130,28.2 L129,28.7 C128.9,28.8 128.8,28.8 128.7,28.8 C128.6,28.8 128.6,28.8 128.6,28.7 C128.6,28.6 128.6,28.6 128.6,28.6 L128.6,28.5 C128.6,28.4 128.7,28.3 128.8,28.2 L129.9,27.4 C131,26.6 131.7,26 132.1,25.7 C132.5,25.4 133.2,24.7 134.3,23.5 C135.4,22.3 136.6,21 137.7,19.6 C138.8,18.2 139.5,17.2 139.8,16.7 L140.4,15.7 L140.6,15.3 L135,15.3 L135,15.4 Z M140.7,8.4 L140.7,3.5 L135,3.5 L135,8.4 L140.7,8.4 Z M140.7,14.3 L140.7,9.6 L135,9.6 L135,14.3 L140.7,14.3 Z M149.2,8.4 L149.2,3.5 L143.6,3.5 C143.5,3.6 143.4,3.8 143.3,3.9 L143.3,8.4 L149.2,8.4 Z M149.2,14.3 L149.2,9.6 L143.3,9.6 L143.3,14.3 L149.2,14.3 Z" id="形状"></path>
                <path d="M166.9,29.9 C167.5,29.9 168.2,30.1 168.8,30.6 C169.4,31.1 169.9,31.8 170.3,32.6 C170.7,33.5 170.8,34.4 170.8,35.4 C170.8,36.4 170.6,37.3 170.3,38.2 C170,39.1 169.5,39.7 168.9,40.2 C168.3,40.7 167.7,40.9 167,40.9 C166.3,40.9 165.7,40.7 165,40.2 C164.4,39.7 163.9,39 163.6,38.2 C163.3,37.4 163.1,36.4 163.1,35.4 C163.1,34.4 163.3,33.5 163.6,32.6 C164,31.7 164.4,31 165.1,30.6 C165.8,30.2 166.2,29.9 166.9,29.9 Z M166.8,32 C166.4,32 166,32.1 165.6,32.4 C165.2,32.7 164.9,33.1 164.7,33.7 C164.5,34.3 164.4,34.8 164.4,35.4 C164.4,36 164.5,36.6 164.7,37.1 C164.9,37.6 165.2,38.1 165.6,38.4 C166,38.7 166.4,38.9 166.8,38.8 C167.2,38.8 167.6,38.6 168,38.4 C168.4,38.1 168.7,37.7 168.9,37.2 C169.1,36.7 169.2,36.1 169.2,35.5 C169.2,34.9 169.1,34.3 168.9,33.8 C168.7,33.2 168.4,32.8 168,32.5 C167.6,32.2 167.2,32 166.8,32 Z" id="形状"></path>
            </g>
            <g id="编组" transform="translate(68.300000, 59.200000)">
                <path d="M21.3,27.2 L20.4,35.9 L0,35.9 L0,34.7 C2.9,34.5 3.4,34.1 3.4,30.5 L3.4,5.9 C3.4,2.3 2.9,1.8 0,1.7 L0,0.5 L19.3,0.5 L20,8.7 L18.9,8.7 C17.9,3.4 16.9,2 12.7,2 L7.4,2 L7.4,16.8 L13.5,16.8 C15.3,16.8 15.8,15.8 15.9,12.5 L17,12.5 L17,22.6 L15.9,22.6 C15.8,19.3 15.3,18.3 13.5,18.3 L7.4,18.3 L7.4,32.3 C7.4,33.8 7.7,34.4 10,34.4 L13.8,34.4 C18.1,34.4 18.9,32.9 20.2,27.2 L21.3,27.2 Z" id="路径"></path>
                <path d="M47.8,42.6 C48.1,42.6 48.4,42.6 48.7,42.5 L48.7,43.7 C47.6,44 46.2,44.2 44.9,44.2 C42.5,44.2 40.4,43.7 39,41.2 L38.3,39.9 C37.2,38 36.4,36.8 34.4,36.1 C29,34.6 24.9,28.5 24.9,18.2 C24.9,6.3 30.5,0 37.2,0 C43.9,0 49.5,6.3 49.5,18.2 C49.5,29.9 44.1,36.2 37.6,36.4 C39.7,36.7 41.6,37.8 42.8,39.5 L43.5,40.6 C44.4,42 45.9,42.6 47.8,42.6 Z M37.2,35.1 C42.6,35.1 45.2,28.7 45.2,18.2 C45.2,7.8 42.6,1.3 37.2,1.3 C31.8,1.3 29.2,7.7 29.2,18.2 C29.2,28.7 31.8,35.1 37.2,35.1 Z" id="形状"></path>
                <path d="M73.2,26.7 C73.2,31.9 69.1,36.4 63.4,36.4 C60.4,36.4 57.7,35.1 56.2,33.2 L54.8,36.7 L54.1,36.7 L54.1,24.6 L55.2,24.6 C56.1,31.2 58.4,35.1 63.3,35.1 C67.4,35.1 69.8,32.7 69.8,28.8 C69.8,24.8 67.7,22.6 64.3,20.6 L60.4,18.3 C56.8,16.2 54.5,13.5 54.5,8.9 C54.5,3.2 58.8,2.84217094e-14 63.1,2.84217094e-14 C66.1,2.84217094e-14 68.5,1.7 69.7,3.6 L70.8,2.84217094e-14 L71.5,2.84217094e-14 L71.5,10.6 L70.5,10.6 C69.7,5.5 67.3,1.4 63.3,1.4 C59.8,1.4 57.7,3.8 57.7,7.5 C57.7,10.9 59.6,12.7 62.6,14.5 L67.2,17.2 C70.9,19.4 73.2,22.1 73.2,26.7 Z" id="路径"></path>
            </g>
            <g id="编组" transform="translate(0.000000, 57.100000)">
                <path d="M9.2,14 C7.8,15.8 6.5,17.3 5.3,18.5 C4.1,19.8 3.1,20.7 2.3,21.2 C1.5,21.7 1.1,22.1 1.1,22.1 L0.5,22.6 C0.4,22.7 0.3,22.7 0.2,22.7 C0.1,22.7 0,22.7 0,22.6 C0,22.6 0,22.5 0,22.4 C0,22.3 0.1,22.2 0.2,22.1 L0.8,21.4 C2,19.9 3.3,18.2 4.6,16.3 C5.9,14.4 7.2,12 8.7,9.1 C10.1,6.2 11.1,4 11.8,2.2 L12.2,1.2 L12.5,0.3 C12.5,0.3 12.5,0.2 12.6,0.2 L13.4,0.7 L16.7,2.8 C16.8,2.9 16.9,3 17,3.1 C17,3.2 17.1,3.3 17.1,3.4 C17.1,3.5 17,3.7 16.8,3.8 L15.7,4.4 L15.5,4.7 C16.7,7.5 17.9,9.6 19,10.9 C20.2,12.2 21.2,13.2 22.1,13.9 C23,14.6 23.9,15.3 24.9,15.9 C25.9,16.5 26.9,17 27.9,17.3 L28.9,17.6 L29.7,17.8 C29.9,17.9 30,17.9 30,18 C30,18.1 30,18.1 30,18.2 C30,18.3 29.9,18.4 29.9,18.5 L29.4,18.8 C28.9,19.1 28.6,19.3 28.3,19.5 C28,19.7 27.8,20 27.5,20.5 C27.2,20.9 27,21.3 26.9,21.6 C26.8,21.9 26.7,22.2 26.7,22.3 C26.7,22.4 26.6,22.4 26.5,22.4 C26.2,22.4 25.3,21.7 23.6,20.4 C21.9,19.1 20.5,17.6 19.5,15.9 C18.5,14.3 17.6,12.7 16.9,11.1 C16.2,9.6 15.7,8.1 15.4,6.9 L15,5.4 C12.4,9.5 10.6,12.2 9.2,14 Z M16.2,20.8 C16.1,20.9 16.1,21 16,21.2 C15.9,21.4 15.7,21.6 15.5,21.8 L15.5,28.5 L18.6,28.5 L19.8,26.5 C20,26.1 20.2,25.9 20.3,25.9 C20.4,25.9 20.6,26.1 21,26.5 L23.1,28.8 C23.3,29.1 23.5,29.3 23.4,29.5 C23.4,29.7 23.2,29.7 23,29.7 L15.6,29.7 L15.6,37.9 L22.5,37.9 L24.1,35.5 L24.4,35.1 C24.5,34.8 24.7,34.7 24.7,34.7 C24.7,34.7 25,35 25.4,35.4 L27.7,38 C27.9,38.2 28,38.4 28,38.4 C28,38.5 28,38.6 28.1,38.7 C28.1,38.8 27.9,38.9 27.6,38.9 L25.9,38.9 L1.4,38.9 C1.1,38.9 1,38.7 1,38.3 C1,37.9 1.1,37.7 1.4,37.7 L12.4,37.7 L12.4,29.5 L5.7,29.5 L5.6,29.5 C5.5,29.5 5.4,29.4 5.4,29.3 C5.3,29.2 5.3,29 5.3,28.7 C5.3,28.4 5.4,28.2 5.6,28.2 L12.5,28.2 L12.5,20.6 L5.7,20.6 C5.5,20.6 5.3,20.4 5.3,20 C5.3,19.6 5.4,19.4 5.7,19.4 L17,19.4 L18.2,17.5 C18.5,17.1 18.6,16.9 18.7,16.9 C18.7,16.9 18.9,17.1 19.3,17.5 L21.4,19.7 C21.6,20 21.7,20.2 21.7,20.3 C21.7,20.5 21.5,20.6 21.3,20.6 L19.3,20.6 L16.2,20.6 L16.2,20.8 Z" id="形状"></path>
                <path d="M43.9,6.7 L44.7,5.1 C45,4.5 45.2,4.2 45.2,4.2 C45.2,4.2 45.5,4.4 45.9,4.9 L47.3,6.7 C47.6,7.1 47.7,7.3 47.7,7.4 C47.7,7.5 47.6,7.6 47.6,7.6 C47.5,7.7 47.4,7.7 47.3,7.7 L44.5,7.7 L44.5,7.7 L43,7.7 L45.5,9.6 C45.7,9.8 45.9,9.9 45.9,10 C45.9,10.1 45.9,10.2 45.9,10.3 C45.9,10.4 45.8,10.5 45.6,10.6 L44.7,11 C43.7,13.2 43,14.9 42.5,16.1 L44.4,16.1 L45.2,14.6 C45.5,14.1 45.6,13.9 45.6,13.8 C45.6,13.8 45.7,13.8 45.8,13.8 C45.9,13.8 46,14 46.3,14.3 L47.7,16.1 C48,16.5 48.2,16.8 48.2,16.9 C48.2,17 48.1,17.1 48.1,17.2 C48.1,17.3 47.9,17.3 47.7,17.3 L42.5,17.3 C42.4,17.4 42.4,17.5 42.3,17.5 C42.3,17.6 42.1,17.7 41.9,17.9 L41.9,22.6 L43.3,22.6 L44.3,20.8 C44.5,20.5 44.6,20.3 44.7,20.3 C44.8,20.3 45,20.5 45.3,20.9 L47,23 C47.1,23.2 47.2,23.3 47.2,23.4 C47.2,23.5 47.2,23.6 47.1,23.6 C47,23.7 47,23.7 46.9,23.7 L41.9,23.7 L41.9,35.6 C41.9,36.2 41.8,36.8 41.6,37.2 C41.4,37.6 41.2,37.9 40.9,38.1 C40.6,38.3 40.2,38.5 39.7,38.7 C39.2,38.9 38.8,39 38.6,39 C38.5,39 38.5,39 38.5,39 C38.5,39 38.4,38.9 38.4,38.8 C38.4,38.7 38.4,38.5 38.4,38.3 C38.4,38 38.3,37.7 38.2,37.2 C38.1,36.7 37.8,36.3 37.2,35.9 L36.3,35.3 C36.1,35.2 36,35 36,34.8 C36,34.6 36.1,34.5 36.3,34.5 L37.3,34.6 C37.5,34.6 37.7,34.7 37.9,34.7 C38.1,34.7 38.2,34.7 38.3,34.7 L38.8,34.7 C39.2,34.7 39.4,34.6 39.4,34.3 L39.4,23.7 L33.6,23.7 L33.4,23.6 C33.2,23.4 33.1,23.2 33.1,22.9 C33.1,22.6 33.2,22.4 33.6,22.4 L39.5,22.4 L39.5,17.1 L33.2,17.1 L33,17.1 C32.9,17.1 32.8,17 32.8,16.9 C32.7,16.8 32.7,16.6 32.7,16.3 C32.7,16 32.8,15.8 33.1,15.8 L41.4,15.8 C41.6,14.8 41.9,13.5 42.2,11.9 C42.5,10.3 42.7,9.2 42.7,8.6 L42.8,7.4 L33.7,7.4 C33.4,7.4 33.3,7.2 33.3,6.8 C33.3,6.4 33.4,6.2 33.7,6.2 L43.9,6.2 L43.9,6.7 Z M37.5,28.1 C37,29.4 36.6,30.2 36.4,30.7 C36.2,31.2 35.7,32.1 35,33.5 C34.3,34.9 33.8,35.7 33.6,36 L32.9,37 C32.8,37.2 32.7,37.3 32.6,37.3 C32.6,37.3 32.5,37.3 32.5,37.3 C32.5,37.3 32.5,37.2 32.5,37.1 C32.5,37 32.5,36.8 32.6,36.6 L32.9,35.6 C33,35.4 33.1,35 33.3,34.1 C33.5,33.3 33.7,32.7 33.8,32.5 C33.9,32.3 34,31.6 34.3,30.4 C34.6,29.2 34.8,28.3 34.9,27.8 L35.1,26.4 L35.2,25.3 C35.2,25.2 35.3,25.2 35.3,25.2 L35.7,25.5 L37.9,26.9 C38.1,27.1 38.3,27.2 38.3,27.3 C38.3,27.3 38.3,27.4 38.2,27.5 C38.2,27.6 38.1,27.7 38.1,27.7 L37.5,28.1 Z M36,10.4 L35.7,9.6 C35.7,9.6 35.7,9.5 35.7,9.4 C35.7,9.3 35.7,9.2 35.7,9.2 C35.7,9.1 35.8,9 35.9,9 C36,9 36.6,9.5 37.6,10.4 C38.6,11.3 39.1,12.5 39.1,13.8 C39.1,14.4 38.9,14.9 38.6,15.4 C38.3,15.9 37.9,16.1 37.5,16.1 C36.9,16.1 36.5,15.9 36.4,15.3 C36.3,14.7 36.3,14.3 36.3,13.8 C36.3,13.3 36.3,13 36.3,12.7 C36.3,11.7 36.2,10.9 36,10.4 Z M37.7,1.1 L37.4,0.6 C37.3,0.5 37.3,0.5 37.3,0.4 C37.3,0.3 37.3,0.3 37.3,0.2 C37.3,0.1 37.4,0 37.5,0 C37.6,0 37.9,0.1 38.5,0.3 C39.1,0.5 39.7,0.8 40.4,1.2 C41.1,1.6 41.5,2.2 41.6,3 C41.7,3.7 41.8,4.2 41.8,4.3 C41.8,4.4 41.8,4.6 41.7,4.8 C41.6,5.2 41.4,5.6 41.2,6 C41,6.4 40.6,6.6 40.1,6.6 C39.6,6.6 39.2,6.4 39,6.1 C38.8,5.7 38.7,5.3 38.6,4.9 L38.5,3.5 C38.5,3.1 38.4,2.8 38.3,2.5 C38.2,2.2 38,1.6 37.7,1.1 Z M57.2,15.5 L58,13.9 C58.3,13.3 58.5,13 58.5,12.9 C58.5,12.9 58.6,12.9 58.7,12.9 C58.8,13 59,13.2 59.4,13.7 L61,15.7 C61.1,15.9 61.2,16 61.3,16.1 C61.3,16.2 61.3,16.2 61.3,16.3 C61.3,16.5 61.2,16.7 61,16.7 L57.4,16.7 C57.3,16.9 57.2,17.1 57.1,17.2 C57,17.3 56.9,17.3 56.8,17.4 L56.8,36.6 L56.9,39.4 C56.8,39.9 56.5,40.3 56.1,40.5 C55.7,40.7 55.3,40.8 55,40.8 C54.6,40.8 54.3,40.7 54.2,40.5 C54.1,40.3 54,40.1 54,39.8 L54.1,35.2 L54.1,16.6 L51,16.6 C50.9,18.6 50.9,20.3 50.8,21.8 C50.7,23.3 50.6,24.6 50.5,25.9 C50.4,27.2 50,28.6 49.5,30.3 C49,32 48.2,33.5 47.2,34.8 C46.2,36.1 45.4,37.1 44.8,37.8 C44.2,38.5 43.7,38.9 43.4,39.2 L42.7,39.8 C42.6,39.9 42.5,40 42.4,39.9 C42.3,39.8 42.3,39.9 42.3,39.8 C42.3,39.7 42.3,39.7 42.3,39.7 C42.3,39.7 42.3,39.6 42.3,39.5 C42.3,39.4 42.4,39.3 42.5,39.2 L43.1,38.5 C44.5,36.8 45.6,35 46.5,33.1 C47.4,31.2 47.8,29.2 48.1,27.1 C48.3,25 48.5,23.1 48.5,21.3 C48.6,19.5 48.6,17.4 48.6,14.9 C48.6,13.3 48.6,11.7 48.5,10.1 C48.4,8.5 48.4,7.7 48.4,7.5 L48.4,6.6 L48.2,3.4 C48.2,3.4 48.3,3.3 48.3,3.3 C48.3,3.3 48.6,3.4 49,3.8 L51.2,5.4 C53,4.4 54.5,3.4 55.6,2.4 L56.4,1.7 L56.9,1.1 C57,1.1 57.1,1.1 57.1,1.1 L57.7,1.8 L59.5,3.9 C59.8,4.3 60,4.5 60,4.6 C60,4.8 59.9,4.9 59.7,4.9 L58.7,5.1 L54.5,6 L51.1,6.6 C51.1,8.3 51.1,9.5 51.1,10.3 L51.1,12.8 L51.1,15.3 L57.2,15.3 L57.2,15.5 Z M43.1,27.5 L42.8,27 C42.7,26.7 42.6,26.5 42.6,26.4 C42.6,26.3 42.7,26.2 42.7,26.2 C42.7,26.2 42.7,26.2 42.8,26.2 C43,26.2 43.5,26.5 44.2,27.2 C44.9,27.9 45.5,28.5 45.8,29.1 C46.2,29.7 46.3,30.4 46.3,31.1 C46.3,31.6 46.2,32.1 45.9,32.6 C45.6,33.1 45.3,33.3 44.8,33.3 C44.3,33.3 44,33.1 43.8,32.7 C43.7,32.3 43.6,31.8 43.6,31.4 L43.6,30 C43.7,29.1 43.4,28.3 43.1,27.5 Z" id="形状"></path>
            </g>
        </g>
    </g>
</svg>