<?xml version="1.0" encoding="UTF-8"?>
<svg width="238px" height="108px" viewBox="0 0 238 108" version="1.1" xmlns="http://www.w3.org/2000/svg" xmlns:xlink="http://www.w3.org/1999/xlink">
    <title>mob</title>
    <g id="页面-1" stroke="none" stroke-width="1" fill="none" fill-rule="evenodd">
        <g id="mob" transform="translate(0.100000, 0.000000)" fill="#FFFFFF" fill-rule="nonzero">
            <rect id="矩形_1_" opacity="0.6" x="0.2" y="62.9" width="20" height="1"></rect>
            <g id="Group">
                <path d="M9.5,32.6 C7,36.2 4.4,39.1 1.7,41.3 L0.5,42.2 C0.3,42.4 0.1,42.4 0.1,42.3 C5.52335955e-15,42.2 5.52335955e-15,42.1 5.52335955e-15,42 C5.52335955e-15,41.9 0.1,41.7 0.2,41.6 L1.6,40 C3.3,38.1 4.6,36.2 5.6,34.5 C6.6,32.8 7.5,31 8.4,29.3 C9.3,27.6 10,26.2 10.4,25.2 C10.9,24.2 11.5,22.8 12.1,21.2 C12.8,19.6 13.2,18.5 13.3,18 L14.1,15.5 C13.3,11.4 12.8,8.8 12.6,7.7 C12.4,6.6 12.2,5.8 12.2,5.3 C12.1,4.8 12,4.3 11.8,3.9 C11.6,3.4 11.5,3 11.3,2.7 C11.1,2.3 11.1,2.1 11.1,2 L11.1,1.9 L11.1,1.8 C11.1,1.7 11.2,1.6 11.3,1.6 C11.4,1.5 11.6,1.5 11.7,1.5 L15.1,2 C15.4,2.1 15.6,2.2 15.7,2.3 C15.8,2.4 15.8,2.5 15.8,2.6 C15.8,2.7 15.8,2.8 15.7,3 C15.6,3.2 15.6,3.3 15.5,3.4 L14.6,4.6 C14.7,5.5 14.9,6.4 15,7.3 C15.1,8.1 15.6,10.2 16.3,13.4 C17,16.6 18,19.8 19.2,22.9 C20.4,26 22,28.9 24,31.7 C26,34.5 28.2,36.4 30.4,37.4 L31.3,37.8 C31.4,37.9 31.5,38 31.5,38.2 C31.5,38.4 31.4,38.5 31.3,38.6 L30.6,38.8 C30.2,38.9 29.8,39.1 29.4,39.5 C29,39.8 28.6,40.2 28.3,40.7 C28,41.2 27.8,41.6 27.6,41.9 C27.5,42.3 27.3,42.4 27.2,42.4 C26.8,42.4 25.9,41.6 24.5,39.8 C23.1,38 22,36.5 21.3,35.3 C20.5,34.1 19.7,32.5 18.9,30.4 C18,28.4 17.4,26.8 17,25.6 L15.9,22.2 C14.1,25.6 12,29 9.5,32.6 Z" id="Path"></path>
                <path d="M63.3,9.6 L63.3,9.6 L41.5,9.6 C41.5,11.4 41.5,14 41.5,17.3 C41.5,20.6 41.4,23.8 41.2,27 C41,30.2 40.5,32.9 39.8,35.3 C39,37.6 38,39.7 36.8,41.6 L35.8,43.1 C35.3,43.9 35,44.2 34.8,44.2 C34.7,44.2 34.6,44.2 34.6,44.1 C34.6,44 34.6,43.9 34.6,43.9 C34.6,43.8 34.7,43.5 34.9,43.2 C35.1,42.9 35.2,42.6 35.3,42.4 L36,40.7 C36.3,39.9 36.7,38.9 37,37.8 C37.3,36.7 37.6,35.4 37.8,33.9 C38,32.4 38.2,30.7 38.3,28.9 C38.4,27.1 38.4,25.1 38.4,22.8 L38.3,16.8 C38.3,14.5 38.2,13 38.2,12.1 L37.9,6.8 C37.9,6.8 37.9,6.7 37.9,6.6 C37.9,6.5 37.9,6.4 38,6.4 C38,6.4 38.3,6.4 38.6,6.6 L41.9,8.3 L60.4,8.3 L61.6,6.3 C61.9,5.8 62.1,5.5 62.3,5.5 C62.4,5.5 62.7,5.8 63.2,6.3 L65,8.5 C65.4,9 65.6,9.3 65.6,9.4 C65.6,9.5 65.5,9.6 65.4,9.6 L63.3,9.6 L63.3,9.6 Z M51.2,41.7 L51.2,34.3 L43.6,34.3 L43.4,34.3 C43.2,34.3 43.1,34.2 43,34.1 C43,34 42.9,33.8 42.9,33.5 C42.9,33.2 43,33 43.4,33 L51.3,33 L51.3,15 L51.2,10.8 C51.3,10.7 51.3,10.6 51.4,10.5 L51.7,10.6 L54.5,11.5 C54.9,11.6 55.1,11.8 55.2,11.8 C55.3,11.9 55.3,11.9 55.3,12 C55.3,12 55.3,12.1 55.3,12.2 C55.3,12.3 55.1,12.5 54.8,12.9 L54.1,13.8 L54.1,33 L58.6,33 L59.6,31.2 C59.9,30.6 60.1,30.4 60.2,30.4 C60.3,30.4 60.5,30.6 60.9,31 L62.7,33 C63.1,33.4 63.3,33.8 63.3,34 C63.3,34.3 63.2,34.4 62.9,34.4 L54.1,34.4 L54.1,41.8 L61.1,41.8 L62.2,39.8 C62.6,39.1 62.8,38.7 62.9,38.7 C63,38.7 63.3,39 63.8,39.6 L65.5,41.7 C65.9,42.3 66.2,42.6 66.1,42.9 C66.1,43 65.9,43.1 65.7,43.1 L39.7,43.1 C39.5,43.1 39.4,43 39.3,42.9 C39.2,42.8 39.2,42.6 39.1,42.3 C39.1,42 39.2,41.8 39.6,41.8 L51.2,41.7 L51.2,41.7 Z M46.6,21.5 C47.9,22.4 48.9,23.3 49.6,24 C50.2,24.7 50.6,25.5 50.6,26.2 C50.6,27 50.5,27.7 50.3,28.3 C50.1,28.9 49.6,29.2 49.1,29.2 C48.8,29.2 48.6,29.1 48.3,28.8 C48,28.6 47.9,28.2 47.8,27.8 C47.7,27.4 47.7,26.8 47.6,26 C47.5,25.2 47.4,24.5 47.3,24.1 C47.2,23.6 47,23.3 46.9,23.1 L46.4,22.4 C45.9,23.8 45.5,25.1 45,26.4 C44.5,27.7 43.9,28.9 43.2,30.1 L42.4,31.5 C42.1,32 41.9,32.2 41.8,32.2 C41.7,32.2 41.7,32.2 41.6,32.1 C41.6,32 41.6,32 41.5,31.9 C41.5,31.8 41.5,31.7 41.6,31.6 L41.9,30.7 L42.5,28.9 C42.7,28.3 43,27.1 43.4,25.3 C43.8,23.5 44.1,21.7 44.4,19.9 C44.7,18.1 44.8,16.9 44.9,16.2 L44.9,14 C44.9,13.8 44.9,13.7 45,13.6 C45,13.6 45.2,13.6 45.4,13.7 L48.1,14.9 C48.6,15.1 48.8,15.3 48.9,15.3 C49,15.4 49,15.5 49,15.6 C49,15.7 48.9,15.9 48.5,16.2 L47.9,16.8 L46.6,21.5 Z M48.3,0.7 C48.3,0.5 48.4,0.5 48.7,0.4 C48.7,0.4 48.8,0.4 49,0.4 L49.6,0.5 C49.9,0.6 50.7,1 52,1.6 C53.3,2.3 53.9,3.5 53.9,5.3 C53.9,5.7 53.8,6.3 53.5,7.1 C53.3,7.9 52.7,8.2 51.8,8.2 C51.4,8.2 51,8.1 50.7,7.8 C50.4,7.5 50.2,7.2 50.1,6.9 C50,6.6 49.9,6 49.8,5.2 C49.7,4.4 49.6,3.7 49.4,3.3 C49.2,2.9 49.1,2.4 48.8,2 L48.2,1.2 C48.4,1 48.3,0.9 48.3,0.7 Z M61.2,17 L59.8,22 C62.2,22.8 63.7,23.8 64.2,24.8 C64.7,25.9 65,26.7 65,27.2 C65,27.7 64.9,28.2 64.7,28.7 C64.5,29.2 64.2,29.5 63.8,29.7 C63.4,29.9 63,29.9 62.7,29.8 C62.3,29.6 62.1,29.4 62,29 C61.9,28.7 61.7,28 61.5,27 C61.3,26 61.1,25.3 60.9,24.7 C60.7,24.2 60.5,23.8 60.3,23.6 L59.6,22.7 C59.1,24.1 58.6,25.3 58,26.4 C57.5,27.5 57.1,28.2 56.8,28.7 L55.7,30.5 C55.6,30.6 55.5,30.8 55.2,31.1 C54.9,31.4 54.8,31.5 54.7,31.5 L54.6,31.5 C54.6,31.5 54.6,31.4 54.6,31.3 C54.6,31.2 54.7,31 54.8,30.5 C55,30.1 55.1,29.9 55.1,29.8 L55.7,27.8 C56,26.8 56.3,25.7 56.6,24.6 C56.9,23.5 57.2,22 57.5,20.1 C57.8,18.2 58,16.9 58.1,16.2 L58.3,13.8 C58.3,13.8 58.3,13.7 58.4,13.6 C58.5,13.5 58.5,13.5 58.7,13.6 L61.6,15.1 C61.8,15.2 62,15.3 62.1,15.4 C62.2,15.5 62.2,15.6 62.2,15.6 C62.2,15.7 62.2,15.8 62.1,15.9 C62,16 61.9,16.1 61.8,16.2 L61.2,17 Z" id="Shape"></path>
                <path d="M74,17 C72.3,20.4 71.1,22.7 70.4,23.8 L69.9,24.6 C69.8,24.8 69.7,24.8 69.6,24.7 C69.5,24.6 69.5,24.5 69.5,24.4 C69.5,24.3 69.5,24.2 69.6,24 L70.1,22.9 C71,20.8 71.9,17.9 72.8,14.2 C73.8,10.5 74.4,7.8 74.7,6.2 C75,4.6 75.2,3.3 75.4,2.2 L75.6,0.8 L75.7,0.2 C75.7,0.2 75.7,0.1 75.8,0.1 C75.8,0.1 76,0.2 76.3,0.3 L79.9,2.4 C80.1,2.5 80.2,2.6 80.1,2.8 C80.1,2.9 80,3.1 79.9,3.2 L78.8,4 C77.9,6.7 77,9.2 76.1,11.8 L77.5,12.7 C77.6,12.8 77.7,12.9 77.8,13 C77.9,13 77.9,13.1 77.9,13.1 C77.9,13.1 77.9,13.2 77.8,13.4 C77.7,13.5 77.7,13.6 77.6,13.7 L76.9,14.5 L76.9,38 L77.1,43 C77,43.2 77,43.4 76.9,43.6 C76.8,43.8 76.5,44 75.9,44.1 C75.3,44.3 74.9,44.4 74.6,44.3 C74.4,44.3 74.2,44.2 74.1,44.1 C74,44.1 73.9,44 73.9,43.7 L74.1,37.7 L74.1,20.8 L74,17 Z M85.7,24.5 C84.2,28.4 83,31 82.2,32.4 C81.4,33.8 80.6,35.2 79.8,36.5 L79,37.8 C78.8,38.1 78.7,38.1 78.6,38 C78.5,37.9 78.5,37.8 78.5,37.7 C78.5,37.6 78.5,37.5 78.6,37.3 L79.2,35.8 C79.4,35.2 79.8,34.1 80.3,32.5 C80.8,30.9 81.3,29.3 81.6,27.6 C82,25.9 82.2,24.7 82.3,23.9 L82.7,21.5 L82.8,20.9 C82.8,20.9 83,20.9 83.2,21 L86.6,23.1 C86.8,23.3 86.9,23.4 86.9,23.6 C86.9,23.8 86.8,23.9 86.6,24 L85.7,24.5 Z M95.5,12.1 L84.7,12.1 C84.6,12.3 84.5,12.5 84.5,12.6 L83.2,15.7 C82.4,17.6 81.4,19.4 80.5,21.1 L79.7,22.5 C79.5,22.8 79.4,22.8 79.4,22.7 C79.3,22.6 79.3,22.5 79.3,22.4 C79.3,22.3 79.3,22.3 79.4,22.1 L80,20.3 C81.4,15.8 82.4,12.1 82.9,8.9 C83.4,5.8 83.7,3.9 83.8,3.2 L84,1.7 L83.8,1 L83.9,0.9 C83.9,0.9 84.2,1 84.6,1.2 L87.9,3 C88,3.1 88.1,3.2 88.2,3.2 C88.3,3.3 88.3,3.4 88.3,3.5 C88.3,3.6 88.2,3.7 88.1,3.8 L87.2,4.5 C86.5,6.8 85.9,8.9 85.2,10.8 L95.5,10.8 L96.5,9.2 C96.6,9.1 96.7,9 96.7,9 C96.8,9 96.9,9.1 97,9.2 L100,12.8 C100.2,13.1 100.4,13.4 100.3,13.6 C100.3,13.8 100.2,14 100.1,14.2 C100,14.3 99.6,14.4 99.1,14.4 C98.6,14.4 98,14.7 97.3,15.1 C96.6,15.6 96,16.5 95.3,17.8 L94.6,19.1 C94.4,19.4 94.3,19.5 94.2,19.4 C94.1,19.3 94.1,19.2 94.1,19.1 C94.1,19 94.1,19 94.1,18.9 C94.1,18.8 94.1,18.8 94.1,18.7 L94.5,17.2 C94.5,16.7 94.9,15 95.5,12.1 Z M91,17.8 L91,40.4 C91,40.8 90.9,41.3 90.8,41.9 C90.6,42.5 90.2,42.9 89.5,43.2 C88.8,43.5 88.3,43.7 88.1,43.7 L87.6,43.8 C87.4,43.8 87.2,43.9 87.2,43.8 C87.1,43.8 87.1,43.7 87.1,43.5 L86.8,42.4 C86.6,41.9 86.4,41.4 86,40.9 C85.6,40.4 85.2,40.1 84.8,39.9 L83.5,39.2 C83.3,39.1 83.3,39 83.3,38.8 C83.3,38.7 83.3,38.6 83.4,38.5 C83.5,38.4 83.5,38.4 83.6,38.4 L84.9,38.6 C86.1,38.8 86.9,38.9 87.2,38.8 C87.6,38.8 87.9,38.7 88.1,38.4 C88.3,38.2 88.4,37.9 88.4,37.6 L88.4,19.8 L87.9,14.3 C88,14.3 88,14.2 88.1,14.2 C88.1,14.2 88.3,14.2 88.6,14.3 L92.1,15.6 C92.3,15.7 92.4,15.8 92.4,16 C92.4,16.2 92.3,16.3 92.2,16.5 L91,17.8 Z M92.7,23 C92.8,23 92.8,22.9 92.8,22.9 C92.8,22.9 93.1,23.1 93.6,23.4 C94.1,23.7 94.9,24.5 96.2,25.7 C97.4,26.9 98.4,28.4 99.1,30.1 C99.8,31.8 100.1,33.3 100.1,34.6 C100.1,35.5 99.9,36.3 99.5,36.9 C99.2,37.5 98.7,37.8 98.2,37.8 C97.6,37.8 97.2,37.5 96.9,36.9 C96.6,36.3 96.4,35.2 96.2,33.7 C96,32.1 95.8,30.8 95.5,29.5 C95.2,28.3 94.9,27.4 94.6,26.8 C94.4,26.3 94,25.6 93.6,24.9 C93.2,24.2 92.9,23.8 92.8,23.6 C92.7,23.5 92.6,23.3 92.6,23.2 C92.6,23.2 92.6,23.1 92.7,23 Z" id="Shape_1_"></path>
                <path d="M114.2,35.5 L108.3,35.5 L108.3,40.2 C108.3,40.5 108.2,40.9 108,41.3 C107.8,41.7 107.4,41.9 106.8,41.9 C106.2,41.9 105.9,41.8 105.8,41.7 C105.7,41.5 105.6,41.3 105.5,41.1 L105.7,35.1 L105.7,16.1 L105.5,8.2 C105.6,8.2 105.6,8.1 105.7,8.1 C105.8,8.1 106,8.2 106.4,8.5 L108.4,9.9 L109.3,9.9 C109.4,8.6 109.5,7.4 109.6,6.5 C109.7,5.6 109.8,4.6 109.8,3.5 L109.9,1 L110,0.1 L110.1,0 C110.1,0 110.3,0 110.6,0.2 L113.6,1.8 C113.9,1.9 114,2.1 114.1,2.1 C114.2,2.2 114.2,2.3 114.2,2.4 C114.2,2.5 114,2.7 113.7,2.9 L112.9,3.3 C112.6,4.2 112.3,4.8 112.2,5.2 L111.2,8 L110.5,9.9 L113.9,9.9 L114.8,8.2 C114.9,8 115,7.9 115.1,7.9 C115.2,7.9 115.3,8 115.6,8.2 L117.7,10.2 C117.8,10.3 117.9,10.4 118,10.5 C118,10.6 118.1,10.7 118.1,10.7 C118.1,10.8 118,10.9 117.9,11.1 L117.2,12 L117.2,35 L117.3,38.7 C117.2,39.2 116.9,39.7 116.4,39.9 C115.9,40.2 115.5,40.3 115.1,40.3 C114.7,40.3 114.5,40.2 114.4,40 C114.3,39.8 114.3,39.5 114.3,39.1 L114.2,35.5 L114.2,35.5 Z M114.2,21.4 L114.2,11.2 L108.3,11.2 L108.3,21.4 L114.2,21.4 Z M114.2,34.2 L114.2,22.7 L108.3,22.7 L108.3,34.2 L114.2,34.2 Z M122,11.7 C121.7,12.5 121.3,13.7 120.7,15.4 C120.1,17.1 119.7,18.2 119.4,18.7 L118.7,20.4 L118.1,21.9 C118,22.2 117.9,22.3 117.7,22.3 C117.6,22.3 117.6,22.3 117.6,22.3 C117.6,22.3 117.6,22.2 117.5,22.2 C117.5,22.1 117.5,22 117.6,21.7 L118,19.9 C118.3,18.7 118.5,17.9 118.5,17.6 C118.6,17.3 118.8,16.3 119.1,14.6 C119.4,12.9 119.7,11.7 119.8,10.9 L120.4,6.9 C120.7,5.3 120.8,4.3 120.9,3.9 L121.2,1.3 C121.2,0.8 121.3,0.5 121.3,0.5 C121.3,0.5 121.4,0.5 121.6,0.6 L125.2,2.4 C125.4,2.5 125.6,2.7 125.6,2.9 C125.6,3.1 125.5,3.3 125.2,3.4 L124.4,4 C124.1,4.8 124,5.5 123.8,5.9 L123,8.6 C122.8,9.3 122.6,10 122.3,10.6 L129.8,10.6 L130.4,9.4 C130.6,9 130.7,8.8 130.8,8.8 C130.9,8.8 131,8.9 131.3,9.1 L133.7,11.2 C133.8,11.3 133.9,11.4 133.9,11.5 C133.9,11.6 134,11.7 134,11.7 C134,11.8 134,11.8 134,11.9 C134,12 133.9,12.1 133.7,12.2 L133,13.1 C133,14.3 133,15.2 133,15.8 C133,16.4 133,16.8 133,17 C133,18.8 133,21.1 132.9,23.8 C132.8,26.6 132.8,29 132.7,31.2 C132.6,33.4 132.4,35.4 132.1,37.2 C131.8,39 131.3,40.4 130.6,41.4 C129.9,42.3 129,43 127.9,43.5 C126.8,44 126.1,44.2 125.8,44.2 C125.7,44.2 125.6,44.2 125.6,44.2 C125.6,44.2 125.5,44.1 125.5,44 C125.5,43.9 125.4,43.7 125.4,43.3 C125.4,42.9 125.2,42.4 125,41.6 C124.8,40.9 124.4,40.3 123.8,39.8 L122.5,38.9 C122.3,38.8 122.2,38.6 122.3,38.4 C122.3,38.2 122.5,38.1 122.7,38.2 L124.4,38.7 C125.2,38.9 125.9,39 126.4,39 C127.4,39 128.1,38.6 128.6,37.9 C129,37.1 129.3,36.1 129.5,34.7 C129.7,33.4 129.8,31.8 129.9,30.1 C130,28.4 130,26.4 130.1,24.2 C130.1,22 130.2,19.7 130.2,17.5 C130.2,15.3 130.2,14 130.2,13.8 L130.2,12 L122,12 L122,11.7 L122,11.7 Z M121.1,21.7 L120.4,20.6 C120.3,20.4 120.2,20.3 120.2,20.2 C120.2,20.1 120.3,20 120.5,20 C120.9,20 121.6,20.4 122.7,21 C123.8,21.7 124.6,22.5 125,23.5 C125.5,24.5 125.7,25.4 125.7,26.3 C125.7,27.2 125.5,27.9 125.1,28.5 C124.7,29.1 124.2,29.4 123.7,29.4 C123.1,29.4 122.7,29.1 122.5,28.6 C122.3,28.1 122.2,27.5 122.1,26.8 L122.1,25.7 C122.2,24.1 121.8,22.7 121.1,21.7 Z" id="Shape_2_"></path>
                <path d="M145.7,5.6 C145.1,6.9 144.5,8.2 144,9.3 C143.5,10.4 143,11.3 142.6,12.1 C142.2,12.9 141.5,14.1 140.6,15.5 C139.7,17 139.2,17.8 139,18.1 L138.2,19.2 C138.1,19.3 138,19.4 137.9,19.4 C137.8,19.4 137.8,19.4 137.7,19.3 C137.6,19.2 137.7,19.2 137.7,19.1 C137.7,19 137.7,18.9 137.8,18.7 L138.2,17.9 L139.3,15.2 C140.3,12.7 141.2,10.2 141.9,7.8 C142.6,5.4 143,3.7 143.2,2.9 L143.7,0.9 L143.8,0.2 C143.8,0.2 144,0.3 144.3,0.4 L147.2,2.1 C147.4,2.2 147.5,2.3 147.5,2.4 C147.5,2.5 147.6,2.6 147.6,2.7 C147.6,2.8 147.5,2.9 147.2,3.1 L146.5,3.5 L145.9,4.7 C147.8,5.2 149.2,5.8 150.1,6.4 C150.9,7 151.5,7.6 151.8,8.3 C152.1,8.9 152.2,9.5 152.2,10 C152.2,10.2 152.2,10.5 152.1,10.8 C152,11.1 152,11.3 151.9,11.6 C151.8,11.8 151.5,12.1 151.1,12.4 C150.7,12.7 150.2,12.5 149.7,12 C149.5,11.8 149.3,11.4 149.1,10.9 L148.4,8.9 C148.1,8.2 147.8,7.6 147.4,7.1 C147,6.6 146.5,6.2 145.7,5.6 Z M147.1,16.1 L146.9,16.6 L146.9,21.5 L149.5,21.5 L150.6,19.6 C150.7,19.4 150.8,19.2 150.9,19.2 C151,19.2 151.1,19.3 151.4,19.6 L153.2,21.8 C153.4,22.1 153.6,22.3 153.6,22.5 C153.6,22.6 153.5,22.7 153.5,22.8 C153.4,22.9 153.3,22.9 153.3,22.9 L151.6,22.9 L151.6,22.9 L146.9,22.9 L146.9,28 L148.6,28 L149.4,26.6 C149.5,26.4 149.6,26.2 149.7,26.3 C149.8,26.3 149.9,26.4 150.2,26.6 L152.1,28.1 C152.2,28.2 152.3,28.3 152.3,28.4 C152.4,28.5 152.4,28.5 152.4,28.6 C152.4,28.6 152.3,28.7 152.3,28.9 C152.2,29.1 152.2,29.1 152.1,29.2 L151.6,29.8 L151.6,37.9 L151.7,40.8 C151.6,41.4 151.3,41.7 150.9,42 C150.5,42.2 150.1,42.3 149.9,42.3 C149.6,42.3 149.4,42.2 149.3,42 C149.2,41.8 149.1,41.6 149.1,41.5 L149.1,39.3 L143.4,39.3 L143.4,41.4 C143.4,41.7 143.4,41.9 143.3,42 C143.2,42.2 143.1,42.4 142.7,42.6 C142.4,42.9 142,43 141.5,42.9 C141.2,42.9 141,42.8 140.9,42.6 C140.8,42.4 140.7,42.2 140.7,41.9 L140.8,38.4 L140.8,31 L140.6,26.6 L140.7,26.5 C140.8,26.5 141,26.6 141.4,26.9 L143,27.9 L144.5,27.9 L144.5,22.6 L139.1,22.6 L138.9,22.6 C138.8,22.6 138.7,22.5 138.7,22.5 L138.6,22.2 C138.6,21.7 138.8,21.4 139,21.4 L144.4,21.4 L144.4,16.1 L141.4,16.1 C141.1,16.1 141,15.9 141,15.4 C141,15 141.1,14.7 141.4,14.7 L148.3,14.7 L149.1,13.4 C149.3,13.1 149.4,12.9 149.5,12.9 C149.6,12.9 149.7,13 150,13.3 L151.8,15.2 C152,15.4 152,15.6 152,15.8 C152,16 151.9,16.1 151.7,16.1 L149.6,16.1 L149.6,16.1 L147.1,16.1 L147.1,16.1 Z M148.8,29.3 L143.1,29.3 L143.1,37.9 L148.8,37.9 L148.8,29.3 Z M161.8,5.4 L152.1,5.4 C151.8,5.4 151.7,5.2 151.6,4.8 C151.5,4.4 151.7,4.2 152.1,4 L152.2,4 L162.1,4 L162.9,2.5 C163,2.3 163.2,2.1 163.3,2.1 C163.4,2.1 163.6,2.2 163.8,2.5 L166.2,5.2 C166.7,5.7 166.9,6.2 166.9,6.5 C166.9,6.7 166.8,6.9 166.7,7 C166.6,7.1 166.2,7.2 165.7,7.2 C165.2,7.3 164.5,7.6 163.9,8.2 C163.2,8.8 162,10 160.4,11.7 C160.7,12.2 161,12.6 161.1,13 C161.3,13.4 161.4,13.9 161.4,14.5 C161.4,14.9 161.3,15.4 161.1,15.9 C160.9,16.4 160.7,16.8 160.3,17 C159.9,17.2 159.6,17.4 159.3,17.3 C159.1,17.3 158.9,17.2 158.6,17.1 C158.3,17 158.2,16.7 158.1,16.3 C158,15.9 157.8,15.3 157.6,14.2 C157.4,13.2 157.1,12.3 156.7,11.6 C156.3,10.9 156,10.4 155.7,10.1 L154.9,9.5 C154.8,9.4 154.7,9.3 154.7,9.2 C154.7,9.1 154.7,9 154.7,9 C154.7,8.9 154.8,8.8 155,8.8 C155.2,8.8 155.4,8.9 155.8,9 L157.1,9.5 C157.7,9.8 158.6,10.3 159.6,11 C160.8,8.2 161.6,6.3 161.8,5.4 Z M164.9,18.8 L161.6,18.8 L161.2,19.5 L161.2,41.2 C161.2,41.7 160.9,42.3 160.4,42.8 C159.8,43.3 159.2,43.7 158.6,44 C157.9,44.2 157.5,44.4 157.3,44.3 C157.2,44.3 157.2,44.3 157.2,44.3 C157.2,44.3 157.2,44.2 157.1,44.2 C157.1,44.1 157,43.7 157,42.8 C156.9,41.9 156.4,41.2 155.4,40.7 L154.2,40 C154.1,40 154.1,39.9 154,39.8 C154,39.7 153.9,39.6 153.9,39.4 C153.9,39.2 154,39.2 154.3,39.2 L155.6,39.4 C156.1,39.5 156.7,39.6 157.3,39.6 C157.8,39.6 158.1,39.5 158.2,39.3 C158.3,39.1 158.4,38.8 158.4,38.3 L158.4,18.8 L152.5,18.8 C152.2,18.8 152.1,18.6 152,18.1 C151.9,17.7 152.1,17.4 152.5,17.4 L165,17.4 L165.8,16 C165.9,15.8 166,15.7 166.1,15.7 C166.2,15.7 166.4,15.9 166.7,16.2 L169.4,19 C169.5,19.1 169.6,19.3 169.7,19.5 C169.8,19.7 169.8,19.8 169.8,20 C169.8,20.4 169.7,20.6 169.5,20.7 C169.3,20.8 168.9,20.9 168.3,21 C167.7,21.1 167.2,21.3 166.7,21.6 C166.2,21.9 165.7,22.5 165.2,23.3 L164,25.2 C163.9,25.3 163.8,25.4 163.7,25.4 C163.6,25.4 163.5,25.4 163.5,25.3 C163.5,25.2 163.5,25.1 163.5,25.1 C163.5,25.1 163.5,25 163.5,24.9 L164.9,18.8 Z" id="Shape_3_"></path>
                <path d="M178.1,21.1 L173,21.1 C172.7,21.1 172.6,20.9 172.6,20.5 C172.6,20.1 172.8,19.9 173.2,19.8 L173.4,19.8 L177.9,19.8 L178.6,18.7 C178.9,18.3 179.1,18.1 179.2,18.1 C179.3,18.1 179.5,18.2 179.9,18.6 L181.2,19.9 C181.5,20.2 181.7,20.4 181.8,20.6 C181.9,20.7 181.9,20.8 181.9,21 C181.9,21.1 181.8,21.3 181.5,21.7 L180.8,22.6 L180.8,37.1 C182.3,38.1 183.6,38.9 184.8,39.4 C186,39.9 188.3,40.2 191.8,40.2 C195.4,40.2 198.9,39.8 202.4,38.9 L203.5,38.6 C203.8,38.5 204,38.6 204,38.7 C204,38.9 203.9,39 203.8,39.2 L203,40.2 C202.7,40.6 202.5,41 202.3,41.4 C202.1,41.9 202,42.3 202,42.8 C202,43.3 201.9,43.5 201.8,43.6 C201.7,43.7 201.7,43.8 201.6,43.8 C201.5,43.8 200.7,43.9 199.2,44 C197.7,44.1 196,44.1 194,44.1 C193.2,44.1 191.8,44.1 189.9,44 C188,43.9 186.5,43.5 185.2,42.9 C184,42.3 183,41.6 182.3,40.9 L180.4,39 C179.8,38.5 179.2,38.2 178.7,38.2 C178.2,38.2 177.6,38.5 176.9,39.3 C176.2,40 175.7,40.7 175.3,41.4 L174.4,43 C174.3,43.3 174.2,43.4 174.1,43.4 C174.1,43.4 174,43.4 173.9,43.1 L172.8,39.1 C172.7,38.9 172.7,38.8 172.7,38.7 C172.7,38.6 172.7,38.6 172.7,38.6 C172.7,38.6 172.8,38.5 173,38.4 L174.6,37.6 L176.6,36.8 L177.9,36.2 L177.9,21.1 L178.1,21.1 Z M175.2,3.2 C175,3 175,2.8 175,2.7 C175,2.6 175.1,2.5 175.4,2.4 C175.5,2.4 175.5,2.4 175.6,2.4 C175.7,2.4 175.9,2.5 176.3,2.6 C176.7,2.7 177.3,3 178.2,3.4 C179.1,3.8 179.8,4.5 180.2,5.4 C180.6,6.3 180.8,7.1 180.8,7.7 C180.8,8.4 180.6,9 180.2,9.6 C179.8,10.2 179.3,10.5 178.7,10.5 C178.3,10.5 178,10.4 177.7,10.1 C177.4,9.8 177.2,9.5 177.1,9.2 C177,8.9 176.9,8.3 176.9,7.4 C176.8,6.5 176.7,5.8 176.5,5.1 C176.1,4.6 175.7,4 175.2,3.2 Z M187.2,33.5 L187.2,36.9 C187.2,37.4 186.9,37.8 186.4,37.9 C185.9,38.1 185.5,38.1 185.2,38.1 C185,38.1 184.8,38 184.7,37.9 C184.6,37.8 184.5,37.6 184.4,37.3 L184.5,32.5 L184.5,25.2 L184.4,21 C184.5,20.8 184.5,20.7 184.6,20.7 C184.7,20.7 184.8,20.7 184.9,20.8 L187.4,22.2 L190.1,22.2 L190.1,15.1 L180.7,15.1 L180.5,15.1 C180.3,15.1 180.2,15 180.1,15 C180,14.9 180,14.7 180,14.4 C180,14.1 180.1,13.9 180.5,13.9 L190.1,13.9 L190.1,7.4 C188.3,7.7 186.8,7.9 185.7,8 C184.5,8.1 183.9,8.2 183.8,8.2 L182.3,8.4 C181.7,8.5 181.4,8.4 181.4,8 C181.4,7.9 181.5,7.8 181.7,7.7 L182.5,7.5 L183.9,7.1 C186.7,6.2 189.2,5.3 191.3,4.2 C193.4,3.1 194.8,2.4 195.2,2 L196.7,0.9 C196.8,0.8 196.9,0.8 197,0.8 C197.1,0.8 197.3,1 197.6,1.4 L199.8,4.1 C200.1,4.5 200.2,4.7 200.2,4.8 C200.2,4.9 200.2,5 200.1,5.1 L197.2,5.7 L192.4,7 L193.3,7.5 C193.4,7.6 193.5,7.6 193.6,7.7 C193.7,7.8 193.7,7.9 193.7,7.9 C193.7,7.9 193.6,8.1 193.5,8.2 C193.4,8.4 193.3,8.5 193.3,8.5 L192.7,9.2 L192.7,13.8 L198.3,13.8 L199.4,11.9 C199.8,11.2 200,10.9 200.1,10.9 C200.2,10.9 200.4,11.1 200.8,11.5 L202.7,13.9 C203,14.3 203.2,14.6 203.2,14.8 C203.2,15 203.1,15.2 202.8,15.2 L192.9,15.2 L192.9,22.3 L196.1,22.3 L196.9,21 C197.1,20.6 197.3,20.5 197.3,20.5 C197.4,20.5 197.6,20.6 197.9,21 L199.4,22.4 C199.7,22.7 199.9,22.9 200,23 C200.1,23.1 200.1,23.2 200.1,23.3 C200.1,23.4 200,23.6 199.7,24 L199,24.9 L199,31.6 L199.1,36.1 C198.8,36.9 198.1,37.3 197.2,37.2 C196.7,37.2 196.5,37.1 196.4,36.9 C196.3,36.7 196.3,36.5 196.3,36.2 L196.3,33.6 L187.2,33.5 L187.2,33.5 Z M187.2,23.6 L187.2,32.2 L196.4,32.2 L196.4,23.6 L187.2,23.6 Z" id="Shape_4_"></path>
                <path d="M231.2,3.7 L232.7,1.2 C232.9,0.9 233,0.7 233.1,0.7 C233.1,0.7 233.2,0.9 233.5,1.3 L235.9,4.5 C236,4.6 236,4.7 236,4.8 L236,4.9 C236,5 236,5 235.9,5.1 C235.9,5.2 235.8,5.2 235.5,5.2 L212.6,5.2 L212.6,39.9 L232.4,39.9 L234.2,36.9 C234.3,36.7 234.5,36.6 234.5,36.6 C234.6,36.6 234.7,36.7 234.9,36.9 L237.5,40.5 C237.6,40.6 237.7,40.8 237.7,40.9 C237.7,41.1 237.6,41.1 237.4,41.1 L212.7,41.1 L211.7,42.8 C211.5,43.2 211.3,43.4 211.3,43.4 C211.3,43.4 211.2,43.3 211,43.1 L208.6,40.7 C208.5,40.6 208.5,40.6 208.4,40.5 C208.4,40.4 208.4,40.3 208.4,40.2 C208.4,40.1 208.5,40 208.6,39.8 L209.5,38.7 L209.5,8 L209.4,1.1 L209.5,1 C209.5,1 209.8,1.2 210.2,1.5 L212.7,3.7 L231.2,3.7 L231.2,3.7 Z M226.3,15 C226.7,13.8 227.1,12.5 227.4,11.3 L228,8.9 L228.2,8.2 L228.3,8.1 C228.3,8.1 228.4,8.2 228.7,8.3 L232.1,11.2 C232.3,11.4 232.4,11.5 232.3,11.7 C232.3,11.9 232.1,12 231.9,12.1 L231.1,12.5 C229.8,15.6 228.5,18.7 227.2,21.7 C227.9,22.7 229.1,24.3 230.8,26.6 C232.4,28.9 233.1,31 232.9,33 C232.7,35 232.2,35.9 231.4,35.9 C230.7,35.8 230.2,35.5 229.9,35 C229.7,34.4 229.2,33.2 228.5,31.3 C227.8,29.4 226.8,27.3 225.5,25.1 C224.8,26.2 223.8,27.9 222.4,30.1 C221,32.3 218.9,34.5 216.1,36.6 L215.2,37.3 C214.9,37.5 214.8,37.5 214.8,37.4 C214.8,37.3 214.8,37.2 214.8,37.1 C214.8,37 214.9,36.9 215,36.8 L215.8,36 C218.4,33.4 220.6,29.9 222.4,25.7 L223.9,22.2 C223.1,21 222.5,20.1 222,19.3 C221.5,18.5 220.9,17.7 220.3,16.8 C219.7,15.9 219.1,15.2 218.6,14.6 C218.1,14 217.7,13.6 217.6,13.4 C217.5,13.2 217.3,13.1 217.2,12.9 C217.1,12.8 217,12.6 217,12.6 C217,12.5 217,12.4 216.9,12.3 C216.9,12.2 217,12.1 217.1,12.1 C217.3,12.1 218.3,13 220.4,14.8 C222.4,16.6 223.5,17.6 223.6,17.7 L225.2,19.4 C225.4,17.6 225.9,16.2 226.3,15 Z" id="Shape_5_"></path>
            </g>
            <path d="M3.6,93.1 L3.6,84.3 L3.5,80.9 L3.6,80.8 L3.9,80.9 L5.9,81.6 C6,81.6 6.1,81.7 6.1,81.7 C6.1,81.8 6.2,81.8 6.2,81.9 C6.2,82 6.1,82.1 6,82.3 L5.3,83.1 L5.3,90.2 C7.1,88.8 8.5,87.5 9.6,86.4 C10.6,85.3 11.4,84.5 11.8,84 L12.5,83 L12.7,82.7 L12.7,82.7 C12.7,82.7 12.8,82.8 12.9,82.9 L14.7,85.1 C14.8,85.2 14.8,85.3 14.8,85.4 C14.8,85.5 14.7,85.6 14.5,85.6 L13.9,85.7 C10.4,88 8.2,89.4 7.3,89.8 L5.2,90.8 L5.2,93 L14,93 L15.3,91.1 C15.4,91 15.4,90.9 15.5,90.9 C15.5,90.9 15.6,90.9 15.6,91 L17.2,93.2 C17.3,93.3 17.3,93.5 17.3,93.5 C17.3,93.6 17.2,93.7 17.1,93.7 L15.1,93.7 L8.9,93.7 C8.9,93.8 9,94 9,94.3 C9.1,94.5 9.2,95 9.4,95.6 C9.6,96.3 10.2,97.2 11.1,98.5 C12,99.8 12.8,100.7 13.5,101.2 C14.1,101.8 14.8,102.2 15.4,102.6 C16,103 16.4,103.2 16.7,103.3 L17.3,103.5 C17.4,103.5 17.5,103.6 17.5,103.8 C17.5,103.9 17.4,104 17.3,104 L16.7,104.1 C16.5,104.1 16.2,104.3 15.8,104.5 C15.5,104.7 15.2,104.9 15,105.2 L14.7,105.5 L14.5,105.8 C14.4,105.8 14.4,105.8 14.3,105.7 L13.9,105.3 C12.8,104.3 11.9,103.2 11.1,102 C10.3,100.7 9.8,99.6 9.5,98.6 C9.2,97.6 9,96.7 8.8,95.9 C8.7,95.1 8.6,94.4 8.5,93.8 L5.3,93.8 L5.3,102.6 C7,101.8 8.2,101.1 8.8,100.7 L9.7,100.1 C9.8,100.1 9.8,100.1 9.9,100.1 C9.9,100.1 10,100.2 10,100.3 C10,100.4 10,100.4 9.9,100.5 L9.1,101.4 C9.1,101.4 8.6,101.9 7.7,102.9 C6.7,103.9 5.9,104.8 5.3,105.5 L4.5,106.5 L4.2,106.9 C4.2,106.9 4.1,106.8 4,106.6 L3,104.3 C2.9,104.2 2.9,104.1 2.9,104.1 C2.9,104.1 2.9,104.1 2.9,104 L2.9,104 C2.9,104 3,104 3,103.9 C3.1,103.8 3.1,103.7 3.2,103.6 C3.3,103.5 3.3,103.3 3.4,103.2 C3.4,103.1 3.5,102.7 3.5,102 L3.5,93.9 L0.3,93.9 C0.2,93.9 0.1,93.8 0.1,93.5 C0.1,93.3 0.2,93.1 0.3,93.1 L3.6,93.1 L3.6,93.1 Z" id="Path_1_"></path>
            <path d="M25.9,86 L26.6,84.6 C26.7,84.4 26.7,84.4 26.8,84.3 C26.8,84.3 26.9,84.3 27,84.4 L28.3,86.1 C28.4,86.2 28.4,86.4 28.4,86.5 C28.4,86.6 28.3,86.7 28.2,86.7 L26.6,86.7 L23.3,86.7 C23.2,87.3 22.9,88.4 22.5,89.8 C22.1,91.2 21.9,92.2 21.7,92.8 L23.6,92.8 L23.6,90.8 L23.6,88.1 C23.6,88.1 23.8,88.1 24,88.2 L25.7,88.8 C25.8,88.8 25.8,88.9 25.8,88.9 L25.8,89 C25.8,89 25.8,89.1 25.7,89.1 L25.2,89.6 L25.2,92.6 L25.7,92.6 L26.2,91.5 C26.3,91.3 26.4,91.2 26.6,91.4 L27.6,92.9 C27.7,93.1 27.8,93.2 27.7,93.3 C27.6,93.4 27.6,93.4 27.5,93.4 L25.1,93.4 L25.1,98.1 C25.5,98 25.9,97.8 26.1,97.8 L27,97.5 L27.5,97.3 C27.6,97.3 27.6,97.3 27.7,97.5 C27.7,97.6 27.7,97.7 27.6,97.8 L27.3,98.2 C27.2,98.2 26.6,98.7 25.2,99.6 L25.2,103.9 L25.3,106.3 C25.3,106.4 25.3,106.5 25.2,106.6 C25.2,106.7 25,106.8 24.9,106.9 C24.7,107 24.5,107 24.2,107 C23.9,107 23.8,107 23.7,106.9 C23.6,106.8 23.6,106.7 23.6,106.5 L23.7,103.6 L23.7,100.6 C22.9,101.1 22.3,101.5 21.8,101.8 L21.2,102.2 L20.8,102.5 L20.7,102.5 C20.7,102.5 20.6,102.4 20.6,102.1 L20.2,100.7 L19.9,99.7 L19.9,99.7 C19.9,99.7 20,99.7 20.3,99.6 L21,99.5 C21.8,99.3 22.7,99.1 23.7,98.8 L23.7,93.6 L21.6,93.6 L21,94.8 C20.9,95 20.9,95 20.9,95 C20.9,95 20.8,94.9 20.7,94.8 L19.8,93.4 C19.7,93.3 19.7,93.3 19.7,93.2 L19.7,93.1 C19.7,93.1 19.8,93 19.9,92.9 C20,92.8 20.2,92.6 20.3,92.2 C20.4,91.8 20.7,90.9 21,89.4 C21.4,87.9 21.6,87.1 21.6,86.9 L21.7,86.6 L19.9,86.6 C19.7,86.6 19.7,86.5 19.6,86.2 C19.6,85.9 19.7,85.8 19.9,85.8 L21.9,85.8 C22.2,84.4 22.4,83.1 22.6,82 L22.7,81 L22.8,80.2 L22.8,80.2 L23.1,80.4 L24.9,81.3 C25,81.4 25.1,81.4 25.1,81.5 L25.1,81.6 C25.1,81.6 25.1,81.7 25,81.7 L24.4,82.2 C24.2,83 24,83.8 23.9,84.3 C23.8,84.9 23.6,85.4 23.5,85.8 L25.9,85.8 L25.9,86 L25.9,86 Z M35.1,104.3 L29.4,104.3 L29.4,105.9 C29.4,106.2 29.2,106.5 28.8,106.6 C28.4,106.7 28.1,106.7 28.1,106.6 C28,106.5 28,106.3 27.9,106.2 L28,102.9 L28,89.9 L27.9,87.5 C28,87.4 28,87.4 28.1,87.5 L29.6,88.7 L31.5,88.7 L31.5,83.7 L31.4,81.3 C31.4,81.2 31.5,81.2 31.5,81.2 L31.8,81.3 L33.5,81.9 C33.6,81.9 33.6,82 33.6,82.1 C33.6,82.2 33.6,82.3 33.5,82.4 L33,83 L33,88.8 L35,88.8 L35.5,87.8 C35.6,87.6 35.7,87.5 35.7,87.5 C35.7,87.5 35.8,87.6 36,87.7 L37.2,89 C37.4,89.2 37.4,89.3 37.4,89.5 C37.4,89.6 37.3,89.7 37.3,89.8 L36.8,90.3 L36.8,102.8 L36.9,105.5 C36.9,105.6 36.8,105.8 36.8,106 C36.7,106.2 36.5,106.3 36,106.4 C35.6,106.4 35.3,106.4 35.3,106.3 C35.2,106.2 35.2,106.1 35.2,105.9 L35.1,104.3 L35.1,104.3 Z M31.5,95.5 L31.5,89.3 L29.4,89.3 L29.4,95.5 L31.5,95.5 Z M31.5,103.5 L31.5,96.3 L29.4,96.3 L29.4,103.5 L31.5,103.5 Z M35.1,95.5 L35.1,89.3 L33,89.3 L33,95.5 L35.1,95.5 Z M35.1,103.5 L35.1,96.3 L33,96.3 L33,103.5 L35.1,103.5 Z" id="Shape_8_"></path>
            <path d="M44.1,94.8 L44.7,94.8 L45.4,93.6 C45.5,93.5 45.5,93.5 45.5,93.5 C45.5,93.5 45.6,93.5 45.6,93.6 L46.7,95.3 C46.7,95.4 46.8,95.4 46.8,95.5 C46.8,95.6 46.7,95.6 46.7,95.6 L44.1,95.6 L44.1,101.7 L46.6,101.1 C46.7,101.1 46.8,101.1 46.8,101.2 C46.8,101.3 46.8,101.4 46.7,101.4 L46,101.8 C44.2,103 42.5,104 41,104.9 L40.2,105.4 C40.1,105.5 40,105.5 40,105.5 C40,105.5 39.9,105.3 39.9,105.1 L39.5,102.9 L39.5,102.8 C39.5,102.7 39.5,102.7 39.5,102.7 C39.5,102.7 39.6,102.7 39.6,102.6 L40.2,102.5 L40.2,95.9 L40.2,93.5 C40.2,93.5 40.3,93.5 40.3,93.4 C40.3,93.4 40.4,93.4 40.5,93.5 L41.9,94 C42,94 42,94.1 42,94.1 L42,94.2 C42,94.3 42,94.3 41.9,94.4 L41.6,94.8 L41.6,102.3 L42.8,102.1 L42.8,90 L41.9,90 L41.9,90.9 C41.9,91 41.9,91.1 41.8,91.2 C41.8,91.3 41.6,91.4 41.4,91.5 C41.2,91.6 41,91.6 40.9,91.6 C40.7,91.6 40.6,91.6 40.6,91.5 C40.6,91.4 40.5,91.3 40.5,91.2 L40.6,88.4 L40.6,84.1 L40.6,81.8 C40.6,81.8 40.7,81.8 40.9,81.9 L42.1,82.9 L44.6,82.9 L45.1,82 C45.2,81.9 45.2,81.9 45.2,81.8 C45.2,81.8 45.3,81.8 45.3,81.9 L46.7,83.2 L46.8,83.3 C46.8,83.3 46.8,83.3 46.8,83.4 L46.8,83.5 C46.8,83.5 46.8,83.6 46.7,83.7 L46.2,84.3 L46.2,88.6 L46.2,90.2 C46.2,90.4 46.1,90.5 46.1,90.6 C46.1,90.7 45.9,90.8 45.6,90.9 C45.3,91 45.1,91 45,91 C44.8,91 44.6,90.8 44.6,90.6 L44.6,90 L44.1,90 L44.1,94.8 L44.1,94.8 Z M44.5,89.2 L44.5,83.7 L41.8,83.7 L41.8,89.2 L44.5,89.2 Z M53.5,97.1 L49,97.1 L49,104.4 L54.5,104.4 L55.2,103.1 C55.3,103 55.3,102.9 55.3,102.9 C55.3,102.9 55.4,102.9 55.5,103 L56.9,104.9 C56.9,104.9 56.9,105 57,105 L57,105.1 C57,105.1 57,105.2 56.9,105.2 L49.1,105.2 L48.4,106.4 C48.3,106.5 48.3,106.5 48.2,106.4 L47,105 C46.9,104.9 46.9,104.8 46.9,104.7 C46.9,104.6 46.9,104.5 47,104.4 L47.5,103.8 L47.5,84.8 L47.4,81.8 C47.4,81.8 47.4,81.7 47.5,81.7 L47.8,82 L49.1,83.1 L53.9,83.1 L54.7,81.6 C54.7,81.5 54.8,81.5 54.8,81.4 C54.8,81.4 54.9,81.4 55,81.5 L56.5,83.5 L56.5,83.6 L56.5,83.7 L56.5,83.7 C56.5,83.8 56.5,83.8 56.4,83.8 L49,83.8 L49,88.9 L53.4,88.9 L53.9,87.9 C53.9,87.9 53.9,87.9 53.9,87.8 C53.9,87.7 54,87.7 54.1,87.8 L55.7,89.3 C55.8,89.4 55.8,89.4 55.8,89.4 L55.8,89.5 C55.8,89.6 55.8,89.6 55.7,89.7 L55.2,90.3 L55.2,96 L55.3,97.9 C55.3,98.1 55.2,98.2 55.1,98.4 C55,98.5 54.9,98.7 54.6,98.8 C54.4,98.9 54.1,99 53.9,98.9 C53.7,98.9 53.6,98.9 53.5,98.8 C53.4,98.7 53.4,98.6 53.4,98.4 L53.5,97.1 L53.5,97.1 Z M53.5,96.3 L53.5,89.9 L49,89.9 L49,96.3 L53.5,96.3 Z" id="Shape_9_"></path>
            <path d="M75.2,89.4 L77.9,90.1 C78.1,89.7 78.3,89.4 78.3,89.2 C78.4,89 78.5,88.7 78.7,88.2 L79.2,86.8 L79.3,86.6 C79.3,86.6 79.4,86.6 79.5,86.7 L81.2,88.5 C81.3,88.6 81.3,88.7 81.3,88.8 C81.3,88.9 81.2,89 81.1,89 L80.6,89.1 C79.3,91.2 78.5,92.5 78.3,92.9 L76.1,96.1 C76.9,96 77.7,96 78.4,95.9 C79.1,95.8 79.7,95.8 80,95.8 L81,95.7 C81.1,95.7 81.2,95.7 81.2,95.9 C81.2,96 81.2,96.1 81,96.1 L80,96.5 C77.9,97.3 76.6,97.9 75.9,98.2 L75,98.7 C74.8,98.8 74.7,98.9 74.7,98.8 C74.7,98.8 74.7,98.7 74.6,98.5 L74,96.5 C74,96.4 73.9,96.3 74,96.3 C74,96.2 74,96.2 74.1,96.2 L74.4,96.1 C74.6,96 74.8,95.9 75.1,95.7 C75.4,95.5 76,94.4 76.9,92.5 L77.7,90.8 C76.8,90.9 75.9,91.1 75.2,91.3 L74.6,91.5 L74.4,91.6 L74.3,91.5 L73.8,89.5 C73.8,89.4 73.8,89.3 73.8,89.3 C73.8,89.3 73.9,89.2 74,89.1 L74.3,89 C74.7,88.8 75.1,88 75.6,86.7 C76.1,85.3 76.6,83.9 77,82.5 L77.3,81.6 L77.3,81 L77.3,81 L77.4,81.1 L79.2,82.6 C79.3,82.7 79.4,82.8 79.4,82.9 C79.4,83 79.3,83.1 79.3,83.1 L78.7,83.3 C77.5,85.4 76.4,87.4 75.2,89.4 Z M74.9,102.1 C77.4,101.2 79,100.5 79.8,100.2 L80.5,99.9 C80.6,99.9 80.6,99.9 80.7,99.9 C80.8,99.9 80.8,100 80.8,100.1 C80.8,100.2 80.8,100.3 80.7,100.3 L80.1,100.8 C77.7,102.8 76.3,104 75.9,104.3 L75.1,105 C74.9,105.1 74.9,105.2 74.8,105.2 C74.8,105.2 74.8,105.1 74.7,105 L74.1,102.8 L74,102.4 L74,102.3 L74.2,102.3 L74.9,102.1 Z M80.5,84.3 C80.3,84.3 80.3,84.2 80.2,83.9 C80.2,83.6 80.3,83.5 80.5,83.5 L87,83.5 L87.5,82.5 C87.5,82.4 87.6,82.4 87.6,82.4 C87.6,82.4 87.7,82.4 87.8,82.5 L89.2,84 C89.3,84.1 89.3,84.1 89.3,84.2 L89.3,84.3 C89.3,84.4 89.3,84.4 89.2,84.5 L88.6,85 C88.2,86.6 87.9,87.7 87.7,88.5 C87.5,89.3 87.3,90.1 87,90.9 L88.5,90.9 L88.9,90.1 C89,90 89,89.9 89,89.9 C89,89.9 89.1,89.9 89.2,90.1 L90.6,91.6 C90.7,91.7 90.7,91.7 90.7,91.7 C90.7,91.7 90.7,91.7 90.7,91.8 C90.7,91.8 90.7,91.8 90.7,91.9 C90.7,91.9 90.7,92 90.6,92 L90.1,92.5 C89.3,96 88.6,98.2 88.2,99.1 L87.2,101.3 C87.5,101.7 87.9,102.2 88.2,102.6 C88.6,103 89,103.4 89.5,103.7 C90,104 90.4,104.2 90.6,104.3 L91.2,104.5 C91.3,104.5 91.4,104.6 91.4,104.7 C91.4,104.8 91.4,104.9 91.2,104.9 L90.7,105.1 C90.2,105.4 89.8,105.7 89.5,106 L89.1,106.6 C89,106.7 89,106.8 89,106.8 C89,106.8 88.9,106.8 88.9,106.7 L88.6,106.4 C87.8,105.6 87,104.4 86.1,103 C85.7,103.5 85.1,104.1 84.3,104.8 C83.5,105.5 82.4,106.2 80.8,106.7 L80.1,106.9 L80,106.9 C80,106.9 80,106.9 80,106.8 L80,106.7 C80,106.6 80,106.6 80.1,106.5 L80.7,106.1 C82.3,105.1 83.9,103.5 85.3,101.2 C84.9,100.2 84.6,99.1 84.3,98 C84,96.8 83.7,95.6 83.6,94.3 L83.4,91.7 C83.3,93.5 83.2,95.2 83.1,96.7 C83,98.2 82.6,99.7 82.1,101.3 C81.6,102.8 80.9,104 80.1,104.9 C79.3,105.8 78.7,106.4 78.4,106.6 L77.9,107 C77.8,107.1 77.7,107.1 77.7,107 C77.7,106.9 77.7,106.9 77.7,106.8 C77.7,106.7 77.7,106.7 77.8,106.6 L78.3,106 C78.8,105.5 79.3,104.7 79.9,103.8 C80.5,102.9 81,101.4 81.4,99.4 C81.8,97.4 82,95.6 82.1,93.8 C82.2,92.1 82.2,90.3 82.2,88.4 C82.2,86.5 82.2,85.5 82.2,85.5 L82.2,84.2 L80.5,84.2 L80.5,84.3 L80.5,84.3 Z M87,84.3 L84.2,84.3 C84.2,84.4 84.1,84.5 84.1,84.5 C84.1,84.6 84,84.6 83.8,84.7 C83.8,85.6 83.8,86.3 83.8,86.7 C83.8,87.2 83.8,88 83.8,89.1 C83.8,90.3 84,91.7 84.3,93.5 C84.6,95.3 85.1,96.8 85.7,98.2 L86.3,99.6 C86.5,99.1 86.7,98.6 86.9,98.1 C87.1,97.5 87.4,96.7 87.6,95.6 C87.9,94.5 88.1,93.6 88.2,92.9 C88.3,92.2 88.4,91.8 88.4,91.6 L86.7,91.6 L86.3,92.4 C86.2,92.6 86.2,92.6 86.1,92.6 C86.1,92.6 86,92.6 86,92.5 L84.9,91 L84.8,90.9 L84.8,90.8 C84.8,90.8 84.8,90.7 84.9,90.7 L85.2,90.5 C85.3,90.4 85.3,90.4 85.4,90.3 C85.4,90.2 85.5,90 85.6,89.7 L85.8,89 L87,84.3 Z" id="Shape_10_"></path>
            <path d="M138.7,85.4 L139.1,83.2 L139.4,81.2 L139.5,80.6 C139.5,80.6 139.6,80.6 139.8,80.7 L141.6,81.6 C141.7,81.7 141.7,81.7 141.8,81.8 C141.8,81.9 141.8,82 141.6,82.1 L141.1,82.5 L140.4,85.4 L142.4,85.4 L142.9,84.4 C143,84.2 143.1,84.1 143.1,84.1 C143.1,84.1 143.2,84.1 143.3,84.2 L144.5,85.7 C144.6,85.8 144.6,85.9 144.6,86 C144.6,86.1 144.5,86.2 144.5,86.2 L140.3,86.2 L138.8,92.3 L140.5,92.3 L140.5,90.3 L140.4,87.9 L140.5,87.8 L140.8,87.9 L142.3,88.5 C142.4,88.6 142.5,88.6 142.5,88.7 C142.5,88.8 142.4,88.9 142.4,89 L141.9,89.5 L141.9,92.2 L142.4,92.2 L143,91 C143.1,90.8 143.2,90.8 143.2,90.7 C143.3,90.7 143.3,90.7 143.4,90.8 L144.5,92.4 C144.6,92.5 144.6,92.6 144.6,92.7 C144.6,92.8 144.6,92.8 144.5,92.8 L141.9,92.8 L141.9,98 C142.3,97.9 142.5,97.7 142.7,97.7 L144.4,97 L145,96.8 C145.1,96.8 145.2,96.8 145.2,96.9 C145.2,97 145.2,97.1 145.1,97.2 L144.5,97.6 C144.4,97.7 143.5,98.3 141.8,99.4 L141.8,103.4 L141.9,106 C141.7,106.4 141.4,106.7 141.1,106.7 C140.7,106.7 140.5,106.7 140.4,106.6 C140.3,106.5 140.3,106.4 140.3,106.2 L140.4,103.7 L140.4,100.3 C140.2,100.5 139.6,100.9 138.7,101.5 L138,102 L137.6,102.3 L137.5,102.3 L137.5,102.3 L137.5,102.2 L136.9,99.5 L136.9,99.3 C136.9,99.3 136.9,99.2 137,99.2 L137.4,99.1 L138.1,99 C138.7,98.9 139.5,98.7 140.6,98.4 L140.6,92.7 L138.8,92.7 L138.5,93.4 C138.4,93.7 138.3,93.9 138.3,94 C138.3,94 138.3,94.1 138.2,94.1 C138.2,94.1 138.1,94 138,93.9 L137,92.7 C136.9,92.6 136.9,92.6 136.9,92.5 C136.9,92.5 137,92.4 137.1,92.3 C137.2,92.2 137.3,92 137.4,91.7 C137.5,91.4 137.6,91.1 137.6,91 L138,89.5 C138.1,89.2 138.4,88 138.8,85.9 L136.9,85.9 L136.8,85.9 C136.7,85.8 136.6,85.6 136.6,85.4 C136.6,85.2 136.7,85.1 136.8,85.1 L138.7,85.1 L138.7,85.4 Z M147.2,95.6 C147.2,96.3 147.2,96.9 147.1,97.4 C147.1,97.9 147,98.5 146.9,99.2 C146.8,99.9 146.6,100.8 146.4,101.8 C146.1,102.8 145.7,103.7 144.9,104.4 C144.2,105.2 143.6,105.7 143.3,105.9 L142.6,106.4 C142.4,106.5 142.4,106.5 142.3,106.4 C142.3,106.3 142.3,106.2 142.4,106.1 L143,105.4 C143.6,104.8 144.1,103.9 144.5,102.9 C144.9,101.9 145.2,100.8 145.3,99.9 C145.4,98.9 145.4,98.1 145.5,97.5 C145.5,96.9 145.5,96.4 145.5,96.2 C145.5,95.9 145.5,95.7 145.5,95.5 L145.5,94.6 L145.5,94.1 C145.5,94.1 145.5,94.1 145.6,94 C145.6,94 145.7,94 145.9,94.1 L147.6,94.7 C147.7,94.7 147.7,94.8 147.7,94.8 L147.7,94.9 L147.7,95 C147.7,95.1 147.7,95.1 147.6,95.1 L147.2,95.6 Z M151.4,87.9 L152.2,86.5 C152.3,86.3 152.4,86.2 152.4,86.2 C152.4,86.2 152.5,86.3 152.6,86.4 L153.8,88.1 C153.9,88.3 154,88.4 154,88.6 C154,88.7 153.9,88.8 153.8,88.8 L152.2,88.8 L149.4,88.8 C149.5,89.2 149.6,89.5 149.7,89.6 C149.7,89.7 149.9,90.1 150.3,90.7 C150.6,91.4 151.2,92 151.9,92.6 C152.6,93.2 153.3,93.7 154,93.9 L154.6,94.1 C154.7,94.1 154.7,94.2 154.7,94.3 C154.7,94.4 154.7,94.5 154.6,94.5 L154.2,94.7 C153.8,94.9 153.6,95.1 153.4,95.5 L153.1,96.1 C153,96.3 152.9,96.4 152.9,96.3 C152.8,96.3 152.5,96 152,95.6 C151.6,95.1 151.2,94.7 151,94.3 C150.8,93.9 150.5,93.5 150.3,92.9 C150,92.4 149.8,91.8 149.7,91.3 C149.5,90.8 149.4,90.2 149.3,89.7 C149.2,89.2 149.2,88.8 149.1,88.7 L148.2,88.7 C148.1,88.9 148,89.2 147.9,89.4 L147.3,90.8 C146.8,91.8 146.2,92.8 145.4,93.9 C144.6,94.9 144,95.7 143.4,96.3 L142.9,96.8 C142.8,96.9 142.7,96.9 142.7,96.8 C142.7,96.7 142.7,96.5 142.8,96.4 L143.3,95.8 C143.5,95.5 143.8,95.2 144,94.8 C144.3,94.4 144.6,93.8 145,93 C145.4,92.2 145.7,91.5 145.8,91.1 C146,90.7 146.1,90.2 146.2,89.9 C146.3,89.5 146.4,89.2 146.5,89 L143,89 C142.9,89 142.8,88.9 142.8,88.6 C142.8,88.3 142.9,88.2 143,88.2 L146.7,88.2 C146.7,88.1 146.8,87.9 146.8,87.7 C146.9,87.5 146.9,87.2 147,86.9 C147.1,86.6 147.2,85.9 147.4,84.9 C145.9,85.2 145,85.3 144.6,85.3 L144.2,85.3 C144.1,85.3 144,85.2 144,85.1 C144,85 144.1,84.9 144.1,84.9 L144.8,84.7 C145.2,84.6 145.6,84.5 145.8,84.4 C146,84.3 146.7,84 147.7,83.5 C148.7,83 149.4,82.7 149.8,82.4 L150.7,81.8 C150.8,81.8 150.9,81.7 150.9,81.6 C151,81.5 151.1,81.4 151.1,81.4 C151.1,81.4 151.2,81.5 151.4,81.8 L152.6,83.4 C152.8,83.6 152.9,83.8 152.8,83.9 C152.8,84 152.7,84 152.6,84 L151.9,84.1 C151.5,84.2 151,84.3 150.4,84.4 C149.8,84.5 149.2,84.6 148.6,84.7 L149.5,85.3 L149.6,85.4 C149.6,85.5 149.6,85.5 149.5,85.6 L149.1,85.9 C148.9,86.5 148.7,87 148.6,87.3 C148.5,87.6 148.4,87.9 148.3,88.2 L151.4,88.2 L151.4,87.9 L151.4,87.9 Z M151.1,96 L151.1,103.8 L151.2,106.1 C151.2,106.2 151.1,106.4 151.1,106.6 C151,106.8 150.8,106.9 150.4,107 C150,107 149.8,107 149.7,106.9 C149.6,106.8 149.6,106.7 149.6,106.5 L149.7,104.5 L149.7,97 L149.6,94.5 L149.7,94.4 L150,94.5 L151.5,95.1 C151.6,95.1 151.7,95.2 151.6,95.3 C151.6,95.4 151.6,95.5 151.5,95.6 L151.1,96 Z" id="Shape_11_"></path>
            <path d="M164.9,98.8 L164.9,94.3 L160.8,94.3 L160.1,95.3 C160,95.4 160,95.4 159.9,95.3 L158.9,93.6 C158.8,93.4 158.7,93.3 158.7,93.3 C158.7,93.3 158.8,93.2 159.1,93 C159.3,92.9 159.4,92.8 159.5,92.6 C159.6,92.4 159.9,91.8 160.3,90.8 C160.7,89.8 161,89 161.2,88.5 C161.4,88 161.6,87.3 161.9,86.5 L157.4,86.5 C157.2,86.5 157.2,86.4 157.1,86.1 C157.1,85.8 157.2,85.7 157.4,85.7 L162.2,85.7 C162.2,85.6 162.4,85.1 162.7,84.2 C163,83.3 163.2,82.5 163.3,82 L163.5,81.1 L163.6,80.4 L163.6,80.4 L163.9,80.7 L165.8,82 C165.9,82.1 165.9,82.1 165.9,82.2 C165.9,82.3 165.8,82.4 165.7,82.5 L165,82.9 L164,85.7 L170,85.7 L170.7,84.3 C170.9,84 171,83.8 171,83.8 C171,83.8 171.1,83.9 171.3,84 L172.8,85.8 C172.9,86 173,86.1 173,86.2 C173,86.3 172.9,86.4 172.8,86.4 L172.1,86.4 L172.1,86.4 L163.6,86.4 L160.8,93.6 L164.7,93.6 L164.7,90.6 L164.6,88.1 C164.6,88 164.7,88 164.7,88 L164.9,88.1 L166.8,88.9 C166.9,89 167,89.1 167,89.2 C167,89.3 166.9,89.4 166.8,89.5 L166.4,89.8 L166.4,93.5 L169.1,93.5 L169.8,92.1 C170,91.7 170.1,91.6 170.2,91.6 C170.3,91.7 170.4,91.8 170.6,92 L171.8,93.6 C171.9,93.8 172,93.9 172,94 C172,94.1 171.9,94.2 171.8,94.2 L166.4,94.2 L166.4,98.7 L171,98.7 L171.8,97.2 C171.9,97 172,96.9 172,96.9 C172,96.9 172.1,96.9 172.2,97 L173.6,98.8 C173.7,98.9 173.7,99 173.8,99.1 C173.8,99.2 173.8,99.3 173.9,99.4 C173.9,99.5 173.8,99.5 173.7,99.5 L171.4,99.5 L171.4,99.5 L166.4,99.5 L166.4,103.8 L166.5,106.2 C166.5,106.3 166.5,106.4 166.4,106.5 C166.4,106.6 166.3,106.7 166.1,106.8 C165.9,106.9 165.7,107 165.3,107 C165,107 164.8,106.9 164.7,106.8 C164.6,106.7 164.6,106.5 164.6,106.2 L164.7,103.8 L164.7,99.4 L156.5,99.4 L156.4,99.4 C156.3,99.4 156.3,99.3 156.3,99.3 L156.3,99.1 C156.3,98.8 156.4,98.6 156.5,98.6 L164.9,98.6 L164.9,98.8 L164.9,98.8 Z" id="Path_2_"></path>
            <path d="M69.9,98 L70.7,98 C70.6,99.7 70.4,101.2 70,102.4 C69.6,103.6 68.9,104.5 68.1,105.2 C67.4,105.8 66.5,106.1 65.6,106.1 C64.4,106.1 63.3,105.6 62.3,104.5 C61.3,103.4 60.6,101.8 60.1,99.6 C59.8,98 59.6,96.3 59.6,94.4 C59.6,91 60.1,88.1 61.2,85.9 C61.7,84.8 62.5,83.9 63.3,83.3 C64,82.8 64.8,82.6 65.7,82.6 C67.1,82.6 68.3,83.3 69.3,84.7 L70.1,82.7 L70.5,82.7 L70.5,89.4 L70,89.4 C69.4,85.6 68,83.7 66,83.7 C64.5,83.7 63.4,84.7 62.7,86.7 C62,88.7 61.7,91.2 61.7,94.3 C61.7,97.2 62,99.6 62.6,101.5 C63.3,103.6 64.4,104.7 66,104.7 C67,104.7 67.8,104.2 68.5,103.3 C69.4,102 69.8,100.3 69.9,98 Z" id="Path_3_"></path>
            <g id="Group_00000079480175096545380230000000378111590032981918_" transform="translate(93.473401, 81.000000)">
                <path d="M3.42659863,11.5 L0.326598632,11.5 C0.126598632,11.5 0.126598632,11.4 0.0265986324,11.1 C-0.0734013676,10.8 0.126598632,10.7 0.326598632,10.7 L3.32659863,10.7 L3.82659863,10 L4.02659863,9.7 C4.12659863,9.7 4.12659863,9.6 4.22659863,9.7 C4.32659863,9.8 4.42659863,9.8 4.62659863,10 L5.42659863,10.8 C5.62659863,11 5.82659863,11.2 5.82659863,11.2 C5.82659863,11.2 5.82659863,11.3 5.82659863,11.4 C5.82659863,11.5 5.72659863,11.6 5.52659863,11.8 L5.02659863,12.4 L5.02659863,21.2 C5.62659863,21.7 6.32659863,22.1 6.92659863,22.4 C7.52659863,22.7 8.22659863,22.9 9.02659863,23 C9.82659863,23.1 10.9265986,23.2 12.3265986,23.2 C14.9265986,23.2 16.8265986,23 18.2265986,22.5 L18.9265986,22.3 C19.1265986,22.3 19.1265986,22.3 19.1265986,22.4 C19.1265986,22.5 19.0265986,22.6 18.9265986,22.8 L18.5265986,23.3 C18.4265986,23.5 18.3265986,23.7 18.2265986,23.9 C18.1265986,24.1 18.1265986,24.3 18.1265986,24.4 C18.1265986,24.5 18.0265986,24.7 18.0265986,25 C18.0265986,25.3 17.9265986,25.5 17.8265986,25.6 C17.7265986,25.7 17.0265986,25.8 15.7265986,25.8 C15.6265986,25.8 15.3265986,25.8 14.9265986,25.8 C14.5265986,25.8 13.9265986,25.8 13.2265986,25.8 C12.5265986,25.8 11.7265986,25.8 10.6265986,25.7 C9.52659863,25.6 8.62659863,25.4 7.82659863,25 C7.02659863,24.6 6.42659863,24.2 6.02659863,23.8 L4.92659863,22.7 C4.52659863,22.4 4.22659863,22.2 3.92659863,22.2 C3.62659863,22.2 3.22659863,22.4 2.82659863,22.9 C2.42659863,23.4 2.12659863,23.7 1.92659863,24.1 L1.42659863,25 C1.32659863,25.2 1.22659863,25.2 1.22659863,25.2 C1.22659863,25.2 1.12659863,25.1 1.12659863,24.9 L0.526598632,22.9 L0.426598632,22.5 C0.426598632,22.5 0.526598632,22.4 0.726598632,22.3 L1.42659863,22 C2.12659863,21.6 2.92659863,21.4 3.62659863,21.3 L3.62659863,11.5 L3.42659863,11.5 Z M2.02659863,1.1 C1.92659863,1 1.82659863,0.9 1.92659863,0.8 C2.02659863,0.7 2.02659863,0.7 2.12659863,0.6 C3.02659863,0.8 3.82659863,1.3 4.52659863,1.9 C5.22659863,2.5 5.52659863,3.3 5.42659863,4.3 C5.42659863,4.7 5.32659863,5 5.02659863,5.4 C4.82659863,5.8 4.52659863,5.9 4.12659863,5.9 C3.82659863,5.9 3.62659863,5.8 3.42659863,5.6 C3.22659863,5.4 3.12659863,5.2 3.12659863,5 C3.12659863,4.8 3.02659863,4.4 2.92659863,3.8 C2.82659863,3.2 2.72659863,2.7 2.62659863,2.4 C2.52659863,1.9 2.32659863,1.5 2.02659863,1.1 Z M11.2265986,9.8 L12.4265986,10.6 C12.6265986,10.7 12.7265986,10.8 12.7265986,10.9 C12.7265986,11 12.7265986,11 12.7265986,11.1 C12.7265986,11.2 12.6265986,11.3 12.4265986,11.4 L12.0265986,11.6 C11.6265986,12.3 11.1265986,13.1 10.6265986,14 C10.1265986,14.8 9.22659863,16.1 8.02659863,17.8 C10.4265986,17.7 12.8265986,17.6 15.2265986,17.4 C14.7265986,16 14.2265986,14.9 13.7265986,14.3 L13.2265986,13.6 C13.1265986,13.5 13.1265986,13.4 13.1265986,13.4 C13.1265986,13.4 13.2265986,13.3 13.3265986,13.3 C13.4265986,13.3 13.8265986,13.6 14.5265986,14.1 C15.2265986,14.6 15.8265986,15.2 16.4265986,15.9 C17.0265986,16.6 17.3265986,17.1 17.5265986,17.7 C17.7265986,18.3 17.8265986,18.8 17.8265986,19.1 C17.8265986,19.5 17.7265986,19.9 17.5265986,20.4 C17.3265986,20.9 17.0265986,21.1 16.6265986,21.1 C16.3265986,21.1 16.1265986,21 15.9265986,20.7 C15.7265986,20.4 15.6265986,20.1 15.5265986,19.7 L15.4265986,18.8 L15.3265986,18.1 L13.6265986,18.6 C11.7265986,19.1 10.5265986,19.5 9.82659863,19.8 L7.32659863,20.8 C7.22659863,20.8 7.12659863,20.7 7.02659863,20.5 L6.22659863,18.4 C6.12659863,18.1 6.02659863,18 6.02659863,17.9 C6.02659863,17.9 6.02659863,17.8 6.12659863,17.8 L6.52659863,17.6 C6.72659863,17.5 7.02659863,17.3 7.22659863,17 C7.52659863,16.7 7.82659863,16.1 8.32659863,15 C8.82659863,13.9 9.22659863,13 9.52659863,12.3 C9.82659863,11.6 10.1265986,10.8 10.3265986,10 L5.22659863,10 C5.02659863,10 5.02659863,9.9 4.92659863,9.6 C4.92659863,9.3 5.02659863,9.2 5.22659863,9.2 L15.6265986,9.2 L16.2265986,8.2 C16.4265986,7.8 16.6265986,7.6 16.7265986,7.6 C16.8265986,7.6 17.0265986,7.7 17.2265986,8 L18.2265986,9.1 C18.5265986,9.4 18.7265986,9.6 18.7265986,9.7 C18.7265986,9.8 18.7265986,9.8 18.7265986,9.8 C18.7265986,9.8 18.7265986,9.9 18.6265986,9.9 L18.5265986,10 L16.8265986,10 L11.2265986,10 L11.2265986,9.8 L11.2265986,9.8 Z M14.2265986,2.9 L14.9265986,1.7 C15.1265986,1.4 15.2265986,1.2 15.2265986,1.2 C15.2265986,1.2 15.4265986,1.4 15.7265986,1.7 L16.9265986,2.9 C17.2265986,3.2 17.3265986,3.4 17.3265986,3.5 C17.3265986,3.6 17.2265986,3.7 17.1265986,3.7 L15.1265986,3.7 L6.32659863,3.7 C6.12659863,3.7 6.12659863,3.6 6.12659863,3.3 C6.12659863,3 6.22659863,2.9 6.32659863,2.9 L14.2265986,2.9 L14.2265986,2.9 Z" id="Shape_00000106110458768721020940000002605034052182974363_"></path>
                <path d="M25.1265986,11.1 L21.2265986,11.1 C21.1265986,11.1 21.0265986,11 21.0265986,10.7 C21.0265986,10.4 21.1265986,10.3 21.2265986,10.3 L28.8265986,10.3 L29.7265986,8.8 C29.8265986,8.6 29.9265986,8.4 30.0265986,8.4 C30.1265986,8.4 30.2265986,8.5 30.3265986,8.7 L31.5265986,10.2 C31.6265986,10.3 31.7265986,10.4 31.7265986,10.5 C31.7265986,10.6 31.8265986,10.7 31.8265986,10.7 C31.8265986,10.8 31.8265986,10.8 31.7265986,10.9 C31.6265986,11 31.6265986,11 31.5265986,11 L26.1265986,11 L27.3265986,11.6 C27.5265986,11.7 27.6265986,11.9 27.6265986,12 C27.6265986,12.1 27.5265986,12.2 27.3265986,12.3 L26.8265986,12.5 C26.3265986,13.8 25.8265986,14.9 25.3265986,15.8 C24.8265986,16.7 24.3265986,17.8 23.5265986,19.2 C25.2265986,19.1 26.9265986,18.9 28.6265986,18.6 C28.5265986,18.3 28.5265986,18 28.4265986,17.8 C28.3265986,17.6 28.2265986,17.3 28.0265986,16.8 C27.8265986,16.3 27.6265986,16 27.5265986,15.7 L27.0265986,14.8 C27.0265986,14.8 26.9265986,14.7 26.9265986,14.6 C26.9265986,14.5 26.9265986,14.5 26.9265986,14.4 C26.9265986,14.3 27.0265986,14.3 27.1265986,14.3 C27.3265986,14.3 27.6265986,14.5 28.1265986,14.8 C28.6265986,15.2 29.1265986,15.6 29.5265986,16 C29.9265986,16.5 30.2265986,16.9 30.5265986,17.3 C30.7265986,17.7 30.9265986,18.1 30.9265986,18.5 C30.9265986,18.9 31.0265986,19.3 31.0265986,19.6 C31.0265986,19.9 30.9265986,20.3 30.8265986,20.6 C30.6265986,21.1 30.2265986,21.4 29.8265986,21.4 C29.5265986,21.4 29.2265986,21.3 29.1265986,21 C28.9265986,20.7 28.8265986,20.3 28.8265986,20 L28.7265986,19.1 C26.6265986,20.1 24.9265986,20.9 23.8265986,21.5 L23.0265986,21.9 L22.6265986,22.2 L22.5265986,22.2 C22.5265986,22.2 22.4265986,22 22.3265986,21.7 L21.7265986,20 C21.6265986,19.8 21.6265986,19.7 21.6265986,19.7 L21.6265986,19.6 C21.6265986,19.6 21.7265986,19.5 21.8265986,19.4 L22.2265986,19.1 C22.3265986,19 22.6265986,18.7 23.0265986,18.1 C23.4265986,17.5 23.8265986,16.4 24.2265986,14.8 C24.6265986,13.2 24.9265986,12.2 25.1265986,11.1 Z M28.2265986,4.3 L28.9265986,2.9 C29.0265986,2.7 29.1265986,2.6 29.1265986,2.6 C29.2265986,2.6 29.3265986,2.7 29.5265986,2.9 L30.7265986,4.3 C30.8265986,4.4 30.9265986,4.5 30.9265986,4.6 C30.9265986,4.7 31.0265986,4.8 31.0265986,4.8 C31.0265986,4.9 31.0265986,4.9 30.9265986,5 C30.8265986,5.1 30.7265986,5.1 30.6265986,5.1 L29.2265986,5.1 L29.2265986,5.1 L22.1265986,5.1 C21.9265986,5.1 21.8265986,5 21.8265986,4.7 C21.8265986,4.4 21.9265986,4.3 22.1265986,4.3 L28.2265986,4.3 L28.2265986,4.3 Z M29.9265986,7.4 L30.0265986,7.4 L33.0265986,7.2 C33.0265986,6.4 33.0265986,5.6 33.0265986,4.9 C33.0265986,4.2 33.0265986,3.6 33.0265986,3 L32.9265986,1.4 L32.8265986,0.1 L32.9265986,0 C32.9265986,0 33.1265986,0 33.3265986,0.1 L35.2265986,0.6 C35.3265986,0.6 35.4265986,0.7 35.4265986,0.7 L35.5265986,0.8 L35.5265986,0.9 L35.5265986,1 L35.3265986,1.3 L34.7265986,2.1 C34.7265986,3.5 34.7265986,4.4 34.7265986,4.6 L34.7265986,7.1 L37.1265986,7 L37.6265986,6 C37.7265986,5.8 37.8265986,5.7 37.9265986,5.7 C38.0265986,5.7 38.1265986,5.7 38.2265986,5.9 L39.7265986,7.4 C39.7265986,7.4 39.8265986,7.5 39.8265986,7.6 C39.9265986,7.7 39.9265986,7.7 39.9265986,7.8 L39.9265986,7.9 L39.9265986,8 C39.9265986,8 39.8265986,8.1 39.7265986,8.2 L39.0265986,8.9 C39.0265986,10.3 39.0265986,11.4 38.9265986,12.2 C38.8265986,13 38.9265986,14.5 38.8265986,16.5 C38.7265986,18.5 38.7265986,20 38.6265986,21.1 C38.5265986,22.2 38.3265986,23.1 38.1265986,23.8 C37.9265986,24.5 37.6265986,25 37.3265986,25.4 C37.0265986,25.8 36.7265986,26 36.4265986,26.2 C36.1265986,26.4 35.9265986,26.5 35.8265986,26.5 C35.8265986,26.5 35.7265986,26.5 35.7265986,26.4 C35.7265986,26.4 35.6265986,26.3 35.6265986,26.2 L35.4265986,25.4 C35.2265986,24.8 34.9265986,24.3 34.3265986,24.1 L33.5265986,23.7 C33.4265986,23.7 33.4265986,23.6 33.3265986,23.5 C33.3265986,23.4 33.2265986,23.4 33.3265986,23.3 C33.3265986,23.2 33.4265986,23.1 33.6265986,23.1 L34.6265986,23.2 C35.3265986,23.2 35.7265986,23.2 36.0265986,22.9 C36.2265986,22.7 36.5265986,22.3 36.6265986,21.6 C36.7265986,20.9 36.9265986,19.8 36.9265986,18.1 L37.1265986,14 C37.1265986,13.4 37.1265986,12.4 37.2265986,11 C37.3265986,9.6 37.2265986,8.9 37.2265986,8.9 L37.2265986,7.8 L34.6265986,8 C34.6265986,8.1 34.6265986,8.3 34.6265986,8.3 L34.6265986,9.9 C34.5265986,13.4 34.2265986,16 33.8265986,17.6 C33.4265986,19.2 32.9265986,20.5 32.4265986,21.4 C31.9265986,22.3 31.2265986,23.2 30.5265986,23.9 C29.8265986,24.6 29.1265986,25.3 28.4265986,25.9 L27.8265986,26.4 C27.7265986,26.5 27.6265986,26.5 27.6265986,26.5 L27.5265986,26.5 C27.5265986,26.5 27.5265986,26.4 27.5265986,26.3 C27.5265986,26.2 27.5265986,26.1 27.6265986,26 L28.3265986,25.2 C29.9265986,23.3 30.9265986,21.8 31.4265986,20.5 C31.8265986,19.2 32.2265986,18 32.4265986,16.8 C32.6265986,15.6 32.7265986,14.4 32.8265986,13.3 C32.9265986,12.2 32.9265986,11 33.0265986,9.9 L33.0265986,9 L33.0265986,8.1 L29.9265986,8.3 C29.8265986,8.3 29.7265986,8.2 29.7265986,8 C29.7265986,7.8 29.7265986,7.5 29.9265986,7.4 Z" id="Shape_00000023278620485190419620000009276950332239941822_"></path>
            </g>
        </g>
    </g>
</svg>