<svg width="252" height="87" viewBox="0 0 252 87" fill="none" xmlns="http://www.w3.org/2000/svg">
<path d="M12.3086 14.6309H6.73828C6.76823 15.0651 6.79069 15.417 6.80566 15.6865C6.82064 15.9411 6.82812 16.293 6.82812 16.7422C6.8431 17.1914 6.77572 17.723 6.62598 18.3369C6.46126 18.9958 6.20671 19.5723 5.8623 20.0664C5.53288 20.5456 5.07617 20.7926 4.49219 20.8076C3.9082 20.8076 3.46647 20.5605 3.16699 20.0664C2.86751 19.5723 2.71029 19.0407 2.69531 18.4717C2.69531 17.8877 2.85254 17.3337 3.16699 16.8096C3.21191 16.7497 3.53385 16.3529 4.13281 15.6191C4.74674 14.8704 5.12858 13.8672 5.27832 12.6094L5.41309 11.5312C5.44303 11.1868 5.51042 11.0221 5.61523 11.0371C5.72005 11.0371 5.81738 11.1195 5.90723 11.2842C6.01204 11.4339 6.10938 11.7334 6.19922 12.1826C6.30404 12.6318 6.36393 12.8789 6.37891 12.9238L6.53613 13.3955H24.46L25.1338 12.4072C25.4482 11.958 25.6429 11.7334 25.7178 11.7334C25.8076 11.7184 26.137 12.0104 26.7061 12.6094L28.7949 14.833C29.2741 15.3571 29.4912 15.7839 29.4463 16.1133C29.4014 16.4277 29.042 16.6149 28.3682 16.6748C27.6943 16.7197 27.0505 16.9368 26.4365 17.3262C25.8376 17.7155 25.2161 18.3219 24.5723 19.1455L23.9883 19.8867C23.7487 20.1862 23.5915 20.3135 23.5166 20.2686C23.4417 20.2236 23.3893 20.1637 23.3594 20.0889C23.3444 19.999 23.3893 19.737 23.4941 19.3027L23.8535 17.7305C24.0332 16.9518 24.2354 15.9186 24.46 14.6309H12.668L15.2734 16.0234C15.5729 16.2031 15.7601 16.3454 15.835 16.4502C15.9248 16.54 15.9622 16.6374 15.9473 16.7422C15.9473 16.847 15.8125 16.9743 15.543 17.124L14.9141 17.4609L13.0498 19.8867H19.8105L20.3271 19.1455C20.6566 18.6813 20.8737 18.4417 20.9785 18.4268C21.0983 18.4118 21.3529 18.6064 21.7422 19.0107L23.4492 20.8525C23.8835 21.3467 24.1006 21.6911 24.1006 21.8857C24.1156 22.0804 23.9284 22.2451 23.5391 22.3799L22.7754 22.6494C20.9935 24.8955 19.4437 26.6549 18.126 27.9277C19.2041 28.6914 20.6341 29.4251 22.416 30.1289C24.1979 30.8327 26.3242 31.1846 28.7949 31.1846H30.1426C30.3822 31.1846 30.502 31.2744 30.502 31.4541C30.5169 31.6188 30.4421 31.7611 30.2773 31.8809L29.5586 32.3975C29.1842 32.667 28.8324 33.0339 28.5029 33.498C28.1885 33.9622 27.9489 34.4264 27.7842 34.8906C27.6344 35.3548 27.5221 35.6393 27.4473 35.7441C27.3724 35.834 27.2676 35.8864 27.1328 35.9014C27.028 35.9313 26.8708 35.9014 26.6611 35.8115C26.4515 35.7067 25.8226 35.5046 24.7744 35.2051C23.7262 34.8906 22.3187 34.2018 20.5518 33.1387C18.7848 32.0755 17.2874 30.9824 16.0596 29.8594C14.667 30.8926 13.4316 31.7461 12.3535 32.4199C11.2754 33.0788 10.07 33.6777 8.7373 34.2168L11.0283 35.4521H20.7764L21.4502 34.4863C21.6748 34.1569 21.832 33.9997 21.9219 34.0146C22.0117 34.0146 22.2513 34.1719 22.6406 34.4863L24.0557 35.6992C24.3402 35.9538 24.5049 36.1185 24.5498 36.1934C24.6097 36.2682 24.6322 36.3356 24.6172 36.3955C24.6172 36.4554 24.5049 36.665 24.2803 37.0244L23.7412 37.8555V42.8867L23.876 46.5928C23.7861 46.9372 23.6214 47.2441 23.3818 47.5137C23.1572 47.7832 22.6406 47.9105 21.832 47.8955C21.263 47.8955 20.9785 47.6335 20.9785 47.1094V45.3799H10.624V47.1992C10.624 47.4538 10.4893 47.7008 10.2197 47.9404C9.9502 48.195 9.49349 48.3148 8.84961 48.2998C8.44531 48.2998 8.19824 48.2474 8.1084 48.1426C8.03353 48.0378 7.98112 47.8955 7.95117 47.7158L8.06348 43.1113V37.4062C8.06348 36.7174 8.04102 35.7816 7.99609 34.5986C7.63672 34.7184 7.20247 34.8607 6.69336 35.0254C6.19922 35.1751 5.38314 35.3997 4.24512 35.6992L2.89746 36.0586C2.22363 36.2383 1.89421 36.1484 1.90918 35.7891C1.90918 35.6243 2.014 35.4821 2.22363 35.3623L2.83008 35.1377L4.15527 34.5986C5.69759 33.9697 7.4196 33.0189 9.32129 31.7461C11.238 30.4583 12.8926 29.0059 14.2852 27.3887C13.2669 25.3971 12.6081 23.9447 12.3086 23.0312L11.792 21.5039C11.1331 22.3275 10.2048 23.3382 9.00684 24.5361C7.80892 25.734 6.94792 26.5576 6.42383 27.0068L5.21094 28.04C4.82161 28.3844 4.5446 28.5566 4.37988 28.5566C4.26009 28.5716 4.18522 28.5492 4.15527 28.4893C4.1403 28.4144 4.12533 28.362 4.11035 28.332C4.11035 28.2871 4.12533 28.2422 4.15527 28.1973C4.17025 28.0924 4.24512 27.9727 4.37988 27.8379L4.91895 27.2314L6.31152 25.4795C7.12012 24.4463 8.09342 22.9339 9.23145 20.9424C10.3695 18.9359 11.1781 17.3486 11.6572 16.1807L12.2188 14.833L12.3086 14.6309ZM19.3613 21.0996H12.3984C12.8477 22.1777 13.3343 23.0986 13.8584 23.8623C14.3825 24.611 14.9814 25.3223 15.6553 25.9961C17.3324 24.1094 18.2982 22.9489 18.5527 22.5146C18.8223 22.0804 19.0918 21.6087 19.3613 21.0996ZM20.9785 44.167V36.6875H10.624V44.167H20.9785ZM13.2744 7.03906C13.1546 6.9043 13.0947 6.77702 13.0947 6.65723C13.1097 6.52246 13.2445 6.4401 13.499 6.41016C13.5889 6.41016 14.1354 6.5599 15.1387 6.85938C16.1419 7.15885 16.8831 7.72786 17.3623 8.56641C17.8564 9.38997 18.1035 10.1312 18.1035 10.79C18.0885 11.374 17.9163 11.9505 17.5869 12.5195C17.2725 13.0885 16.8232 13.3656 16.2393 13.3506C15.7451 13.3506 15.3558 13.1559 15.0713 12.7666C14.7868 12.3773 14.6221 12.0404 14.5771 11.7559C14.5472 11.4564 14.5173 10.9922 14.4873 10.3633C14.4574 9.73438 14.375 9.21777 14.2402 8.81348C14.1204 8.39421 14.0081 8.1097 13.9033 7.95996C13.8135 7.79525 13.6038 7.48828 13.2744 7.03906ZM42.6084 14.9902H57.0283L57.8594 13.418C58.0391 13.0436 58.1439 12.8639 58.1738 12.8789C58.2038 12.8789 58.3835 13.0286 58.7129 13.3281L61.0039 15.4844C61.2435 15.724 61.3857 15.8887 61.4307 15.9785C61.4756 16.0534 61.498 16.1208 61.498 16.1807C61.513 16.2406 61.4007 16.4053 61.1611 16.6748L60.375 17.5508V22.9414L60.5547 28.8037C60.4648 29.1631 60.3376 29.4476 60.1729 29.6572C60.0231 29.8669 59.7536 30.0316 59.3643 30.1514C58.9749 30.2562 58.6605 30.3011 58.4209 30.2861C57.7321 30.2861 57.3877 29.8893 57.3877 29.0957V27.4785H42.4512C42.3464 28.4668 42.1966 29.9118 42.002 31.8135C41.8223 33.7152 41.4404 35.4372 40.8564 36.9795C40.2725 38.5218 39.5163 40.1016 38.5879 41.7188C37.6745 43.3359 36.6038 44.8258 35.376 46.1885L34.6572 46.9746C34.5225 47.1393 34.4027 47.2142 34.2979 47.1992C34.2529 47.1992 34.223 47.1917 34.208 47.1768C34.193 47.1618 34.1855 47.0944 34.1855 46.9746C34.1855 46.8548 34.2454 46.6901 34.3652 46.4805L34.8594 45.6943C35.8327 44.1221 36.7311 42.4001 37.5547 40.5283C38.3783 38.6416 38.9398 36.2907 39.2393 33.4756C39.5537 30.6605 39.7035 27.7331 39.6885 24.6934C39.6885 21.6387 39.6735 19.3626 39.6436 17.8652L39.5762 15.6191L39.4189 12.7891C39.4938 12.6693 39.5537 12.6019 39.5986 12.5869C39.6436 12.557 39.9505 12.7741 40.5195 13.2383L42.6084 14.9902ZM57.3877 26.3105V16.1582H42.6084L42.4512 26.3105H57.3877ZM46.8086 6.25293C46.7936 6.19303 46.8011 6.12565 46.8311 6.05078C46.876 5.96094 46.9583 5.90104 47.0781 5.87109C47.168 5.87109 47.4674 5.99837 47.9766 6.25293C48.4857 6.49251 49.2194 6.98665 50.1777 7.73535C51.151 8.46908 51.6377 9.63704 51.6377 11.2393C51.6377 11.8682 51.4805 12.512 51.166 13.1709C50.8516 13.8298 50.4098 14.1667 49.8408 14.1816C49.2868 14.1816 48.89 14.0319 48.6504 13.7324C48.3359 13.403 48.1562 13.0286 48.1113 12.6094C48.0664 12.1751 48.0365 11.4938 48.0215 10.5654C48.0065 9.63704 47.9092 8.88086 47.7295 8.29688C47.5648 7.69792 47.3327 7.13639 47.0332 6.6123L46.8086 6.25293ZM88.1367 10.498L88.7656 9.35254C88.8854 9.1429 88.9753 9.03809 89.0352 9.03809C89.11 9.02311 89.2598 9.12793 89.4844 9.35254L91.5508 11.5312C91.7155 11.7259 91.8053 11.8532 91.8203 11.9131C91.8503 11.958 91.8652 12.0104 91.8652 12.0703C91.8802 12.1152 91.7754 12.2575 91.5508 12.4971L90.8994 13.1934C90.8545 14.7507 90.7871 16.2106 90.6973 17.5732C90.6224 18.9209 90.4128 19.9391 90.0684 20.6279C89.7389 21.3018 89.1924 21.9007 88.4287 22.4248C87.68 22.9339 87.1934 23.166 86.9688 23.1211C86.8789 23.1211 86.7965 23.0911 86.7217 23.0312C86.6468 22.9714 86.557 22.5221 86.4521 21.6836C86.3623 20.8301 85.8906 20.1712 85.0371 19.707L84.5205 19.4375C84.4456 19.4076 84.3857 19.3551 84.3408 19.2803C84.2959 19.2054 84.266 19.138 84.251 19.0781C84.251 19.0033 84.2884 18.9359 84.3633 18.876C84.4382 18.8011 84.513 18.7712 84.5879 18.7861L85.3291 18.9883C85.7334 19.1081 86.1751 19.1305 86.6543 19.0557C87.1335 18.9808 87.4629 18.8086 87.6426 18.5391C87.8372 18.2546 87.9645 17.6706 88.0244 16.7871C88.0843 15.9036 88.1292 15.0277 88.1592 14.1592C88.2041 13.2757 88.2266 12.6318 88.2266 12.2275V11.7109H82.3193V25.2773H89.3721L89.7539 24.5811C89.9635 24.2067 90.0908 24.027 90.1357 24.042C90.1807 24.042 90.3079 24.1468 90.5176 24.3564L92.5391 26.6025C92.7188 26.8122 92.8236 26.9619 92.8535 27.0518C92.8835 27.1266 92.8984 27.209 92.8984 27.2988C92.9134 27.3887 92.8086 27.5085 92.584 27.6582L91.8652 28.1748C91.1315 31.1247 90.6523 33.0114 90.4277 33.835C90.2031 34.6436 89.7464 35.9837 89.0576 37.8555C89.4619 38.3496 89.8363 38.7689 90.1807 39.1133C90.5251 39.4427 91.1016 39.8919 91.9102 40.4609C92.7188 41.0299 93.3327 41.4118 93.752 41.6064L94.583 42.0107L94.9424 42.2129C95.0173 42.2578 95.0547 42.3551 95.0547 42.5049C95.0697 42.6696 95.0098 42.7744 94.875 42.8193L94.583 42.9316L94.0215 43.0664C93.7969 43.1413 93.5573 43.291 93.3027 43.5156C93.0632 43.7402 92.876 43.9424 92.7412 44.1221C92.6064 44.3167 92.4717 44.5788 92.3369 44.9082C92.2171 45.2376 92.1273 45.4398 92.0674 45.5146C92.0225 45.5895 91.9701 45.627 91.9102 45.627C91.7904 45.6419 91.5658 45.4473 91.2363 45.043L90.2031 43.9873C89.8737 43.6579 88.9678 42.5124 87.4854 40.5508C86.7367 41.6139 86.2275 42.3102 85.958 42.6396C85.6885 42.984 85.0371 43.7552 84.0039 44.9531L83.4199 45.6045C83.2103 45.8441 83.068 45.9639 82.9932 45.9639C82.9183 45.9788 82.8659 45.9639 82.8359 45.9189C82.806 45.889 82.7835 45.8066 82.7686 45.6719C82.7686 45.5521 82.8285 45.3874 82.9482 45.1777L83.4873 44.3242C83.6221 44.0996 83.9889 43.4333 84.5879 42.3252C85.2018 41.2171 85.5387 40.5957 85.5986 40.4609L86.4297 38.6865C86.0703 37.848 85.7783 37.1143 85.5537 36.4854C85.3291 35.8564 85.0895 34.9805 84.835 33.8574C84.5954 32.7344 84.4082 31.6712 84.2734 30.668C84.1536 29.6647 84.0788 28.7363 84.0488 27.8828V27.3662L84.0039 26.4902H82.3193V42.3477L82.4766 45.7393C82.3268 46.3831 82.0348 46.7874 81.6006 46.9521C81.1663 47.1318 80.8594 47.2142 80.6797 47.1992C80.2754 47.1992 80.0208 47.1019 79.916 46.9072C79.8262 46.7126 79.7663 46.5254 79.7363 46.3457L79.916 41.3369V15.709L79.7363 8.90332C79.8262 8.81348 79.901 8.76107 79.9609 8.74609C80.0358 8.71615 80.2754 8.85091 80.6797 9.15039L82.4316 10.498H88.1367ZM89.3047 26.4902H84.4307C84.4906 26.9694 84.5804 27.5609 84.7002 28.2646C84.82 28.9684 85.127 30.0465 85.6211 31.499C86.1152 32.9515 86.7367 34.3291 87.4854 35.6318C87.68 34.9131 87.8447 34.3066 87.9795 33.8125C88.1143 33.3184 88.3164 32.3825 88.5859 31.0049C88.8704 29.6273 89.0501 28.6165 89.125 27.9727C89.1999 27.3138 89.2598 26.8197 89.3047 26.4902ZM70.7969 9.73438H74.3906L74.9297 8.72363C75.2441 8.13965 75.4163 7.84017 75.4463 7.8252C75.4912 7.81022 75.6709 7.95996 75.9854 8.27441L77.7373 10.0488C78.0068 10.3483 78.1566 10.528 78.1865 10.5879C78.2165 10.6478 78.2314 10.7077 78.2314 10.7676C78.2314 10.8275 78.1416 10.9473 77.9619 11.127L77.1309 11.9805V42.8867C77.1309 43.6953 77.0635 44.2943 76.9287 44.6836C76.8089 45.0879 76.6517 45.3649 76.457 45.5146C76.2624 45.6794 75.8356 45.9414 75.1768 46.3008C74.5179 46.6602 74.1211 46.8174 73.9863 46.7725C73.8665 46.7575 73.7767 46.6976 73.7168 46.5928C73.6569 46.5029 73.6045 46.2334 73.5596 45.7842C73.5296 45.335 73.3499 44.8408 73.0205 44.3018C72.6911 43.7627 72.2793 43.321 71.7852 42.9766L71.3584 42.707C71.2835 42.6621 71.2236 42.5947 71.1787 42.5049C71.1338 42.415 71.1113 42.3327 71.1113 42.2578C71.1263 42.1979 71.1637 42.138 71.2236 42.0781C71.2835 42.0182 71.3659 41.9958 71.4707 42.0107L72.167 42.1904C73.2002 42.46 73.8441 42.5273 74.0986 42.3926C74.3532 42.2728 74.5104 42.153 74.5703 42.0332C74.6302 41.9134 74.6602 41.3369 74.6602 40.3037V30.2412H70.7969C70.6921 31.2445 70.5872 32.2702 70.4824 33.3184C70.3776 34.3665 70.1979 35.5495 69.9434 36.8672C69.6888 38.1849 69.3818 39.3529 69.0225 40.3711C68.6781 41.3893 68.2887 42.415 67.8545 43.4482C67.4202 44.4964 67.1133 45.1852 66.9336 45.5146L66.4395 46.4355C66.2298 46.8249 66.0876 46.9671 66.0127 46.8623C65.9528 46.7575 65.9229 46.6452 65.9229 46.5254C65.9229 46.4206 65.9453 46.3083 65.9902 46.1885L66.4395 44.9531C66.5143 44.7135 66.6641 44.1296 66.8887 43.2012C67.1283 42.2728 67.4352 40.8128 67.8096 38.8213C68.1839 36.8298 68.3936 34.696 68.4385 32.4199C68.4834 30.1289 68.4984 27.793 68.4834 25.4121C68.4385 21.9531 68.401 18.9658 68.3711 16.4502C68.3411 13.9346 68.3262 12.3848 68.3262 11.8008V10.0488L68.2139 8.0498C68.2438 7.93001 68.2812 7.84766 68.3262 7.80273C68.3711 7.75781 68.5358 7.84766 68.8203 8.07227L70.7969 9.73438ZM74.6602 29.0059V20.2236H70.7969V29.0059H74.6602ZM74.6602 18.9883V10.9697H70.7969V18.9883H74.6602ZM117.763 13.0811L118.392 12.0029C118.556 11.7184 118.684 11.5612 118.773 11.5312C118.863 11.4863 119.021 11.5612 119.245 11.7559L121.963 14.2939C122.173 14.5036 122.337 14.7432 122.457 15.0127C122.592 15.2822 122.427 15.4844 121.963 15.6191L120.75 16.001C118.803 18.3818 116.864 20.5231 114.933 22.4248C115.681 22.9788 116.512 23.5479 117.426 24.1318C118.354 24.7158 119.5 25.2399 120.862 25.7041C122.24 26.1533 123.168 26.4154 123.647 26.4902C124.142 26.5651 124.89 26.6025 125.894 26.6025H126.972C127.017 26.6025 127.054 26.64 127.084 26.7148C127.129 26.7747 127.151 26.8796 127.151 27.0293C127.166 27.1641 127.106 27.2839 126.972 27.3887L126.343 27.8828C126.043 28.1224 125.759 28.4443 125.489 28.8486C125.235 29.238 125.025 29.6123 124.86 29.9717C124.711 30.3311 124.591 30.6755 124.501 31.0049C124.411 31.3343 124.344 31.529 124.299 31.5889C124.269 31.6338 124.209 31.6562 124.119 31.6562C123.805 31.7012 122.786 31.3118 121.064 30.4883C119.342 29.6497 117.8 28.6689 116.438 27.5459C115.09 26.4229 113.922 25.2848 112.934 24.1318C111.9 24.9854 110.852 25.764 109.789 26.4678L113.36 27.5234C113.72 27.6432 113.892 27.8079 113.877 28.0176C113.862 28.2122 113.75 28.3994 113.54 28.5791L112.709 29.2754C112.619 29.9642 112.559 30.4808 112.529 30.8252L112.507 31.2744L112.439 31.9258H118.526L119.021 30.96C119.17 30.6755 119.29 30.5332 119.38 30.5332C119.485 30.5182 119.664 30.6156 119.919 30.8252L122.277 32.8467C122.427 32.9814 122.532 33.1162 122.592 33.251C122.667 33.3708 122.704 33.4681 122.704 33.543C122.704 33.6029 122.667 33.7077 122.592 33.8574C122.532 33.9922 122.457 34.0895 122.367 34.1494L121.446 34.8232C121.341 35.9014 121.177 37.4137 120.952 39.3604C120.728 41.292 120.301 43.029 119.672 44.5713C119.043 46.1136 118.04 47.1468 116.662 47.6709L115.112 48.1201C114.918 48.18 114.775 48.2025 114.686 48.1875C114.581 48.1875 114.506 48.1576 114.461 48.0977C114.416 48.0527 114.379 47.9928 114.349 47.918C114.319 47.8431 114.266 47.596 114.191 47.1768C114.132 46.7575 113.989 46.3158 113.765 45.8516C113.54 45.3874 113.285 45.0579 113.001 44.8633L111.743 44.0771C111.638 44.0173 111.578 43.9424 111.563 43.8525C111.563 43.7627 111.571 43.7028 111.586 43.6729C111.601 43.4932 111.721 43.4183 111.945 43.4482L113.54 43.6729C114.828 43.8675 115.726 43.8301 116.235 43.5605C116.744 43.306 117.134 42.8268 117.403 42.123C117.688 41.4193 117.942 40.3337 118.167 38.8662C118.392 37.3988 118.526 36.0885 118.571 34.9355L118.616 33.6328L118.661 33.1387H112.282C111.953 34.7708 111.683 36.0212 111.474 36.8896C111.279 37.7432 110.77 38.9186 109.946 40.416C109.123 41.8984 107.79 43.2386 105.948 44.4365C104.121 45.6494 102.384 46.5104 100.737 47.0195L99.3896 47.4463C99.2399 47.5062 99.1201 47.5062 99.0303 47.4463C98.9554 47.3864 98.9105 47.2891 98.8955 47.1543C98.8955 47.0195 98.9854 46.8997 99.165 46.7949L100.333 46.1885C104.002 44.2419 106.285 42.168 107.184 39.9668C108.097 37.7656 108.659 36.1784 108.868 35.2051L109.183 33.6104L109.295 33.1387H101.591C101.351 33.1387 101.224 32.9365 101.209 32.5322C101.194 32.1279 101.321 31.9258 101.591 31.9258H109.452C109.482 31.5365 109.512 31.237 109.542 31.0273L109.587 29.6348L109.654 28.04V26.6025C107.887 27.7406 106.255 28.6839 104.758 29.4326C103.26 30.1813 101.666 30.8027 99.9736 31.2969L98.7607 31.6562C98.4014 31.7611 98.2142 31.7536 98.1992 31.6338C98.1842 31.514 98.1768 31.4316 98.1768 31.3867C98.1768 31.1771 98.2591 31.0348 98.4238 30.96L99.8838 30.2861C100.872 29.8369 102.437 28.8786 104.578 27.4111C106.734 25.9437 108.936 24.0869 111.182 21.8408C110.313 20.0589 109.729 18.7712 109.43 17.9775C109.13 17.1839 108.943 16.57 108.868 16.1357L108.441 14.2939C107.214 16.4502 106.143 18.1722 105.229 19.46C104.331 20.7327 103.245 22.0579 101.973 23.4355L100.895 24.5811C100.715 24.7757 100.588 24.8132 100.513 24.6934C100.453 24.5586 100.423 24.4613 100.423 24.4014C100.423 24.3265 100.475 24.1917 100.58 23.9971L101.456 22.5146C102.01 21.5713 102.564 20.583 103.118 19.5498C103.687 18.5166 104.391 16.9593 105.229 14.8779C106.083 12.7965 106.734 10.9622 107.184 9.375L107.655 7.57812C107.79 7.11393 107.865 6.87435 107.88 6.85938C107.895 6.82943 107.917 6.80697 107.947 6.79199L108.441 7.08398L111.339 8.72363C111.653 8.90332 111.803 9.09049 111.788 9.28516C111.788 9.47982 111.638 9.65951 111.339 9.82422L110.688 10.2061C110.074 11.4189 109.579 12.3773 109.205 13.0811H117.763ZM117.201 14.2939H109.138C109.617 15.5068 110.089 16.5475 110.553 17.416C111.032 18.2695 111.691 19.2803 112.529 20.4482C114.611 18.0225 116.168 15.971 117.201 14.2939Z" fill="white"/>
<path d="M1.008 70.8818V71.8198H6.496V73.0378H2.212V78.5818H6.314C6.174 79.3098 5.922 79.9118 5.586 80.3878C4.802 79.9818 4.074 79.5058 3.416 78.9598L2.646 79.4918C3.332 80.0798 4.088 80.5978 4.9 81.0458C4.004 81.6898 2.576 82.0818 0.63 82.2358L1.064 83.1598C3.29 82.9078 4.9 82.3758 5.88 81.5358C7.966 82.4878 10.416 83.0338 13.23 83.1458L13.482 82.1798C10.794 82.0958 8.47 81.6338 6.51 80.8078C6.902 80.2478 7.168 79.5058 7.336 78.5818H11.844V73.0378H7.504V71.8198H13.006V70.8818H1.008ZM10.85 77.6998H7.462L7.504 76.7058V76.2158H10.85V77.6998ZM6.454 77.6998H3.206V76.2158H6.496V76.7058C6.496 77.0418 6.482 77.3778 6.454 77.6998ZM3.206 75.3758V73.9058H6.496V75.3758H3.206ZM7.504 73.9058H10.85V75.3758H7.504V73.9058ZM18.816 71.2038V72.0158H20.762V72.8838H21.672V72.0158H24.584V72.6458H25.508V72.0158H27.44V71.2038H25.508V70.3078H24.584V71.2038H21.672V70.3218H20.762V71.2038H18.816ZM19.25 74.7318V75.4878H22.666V76.2018H19.782V79.8418H22.666V80.5978H19.152V81.3538H22.666V82.0958H18.662V82.9078H27.412V82.0958H23.604V81.3538H27.034V80.5978H23.604V79.8418H26.544V76.2018H23.604V75.4878H27.314V74.7318H23.604V73.9198C24.864 73.8358 25.984 73.7238 26.936 73.5698L26.516 72.8418C24.64 73.1218 22.288 73.2758 19.432 73.2898L19.684 74.0318C20.734 74.0318 21.728 74.0038 22.666 73.9758V74.7318H19.25ZM25.62 79.1278H23.604V78.3578H25.62V79.1278ZM22.666 79.1278H20.706V78.3578H22.666V79.1278ZM20.706 77.6858V76.9158H22.666V77.6858H20.706ZM23.604 76.9158H25.62V77.6858H23.604V76.9158ZM15.064 73.0238C15.008 74.3678 14.812 75.6418 14.462 76.8598L15.246 77.0698C15.582 75.8098 15.778 74.4798 15.834 73.0798L15.064 73.0238ZM18.298 72.6738L17.626 72.8978C17.962 74.0738 18.242 75.2918 18.466 76.5518L19.194 76.3838C18.928 74.9838 18.634 73.7518 18.298 72.6738ZM16.408 70.3498V83.1178H17.388V70.3498H16.408ZM30.324 75.3898V83.1598H31.332V73.8358C31.892 72.8558 32.354 71.8058 32.718 70.6998L31.78 70.2518C31.094 72.4638 29.988 74.4378 28.476 76.1458L28.798 77.2098C29.344 76.6358 29.848 76.0338 30.324 75.3898ZM39.34 75.8938L38.444 76.1878C39.13 77.7558 39.76 79.5758 40.32 81.6198L41.202 81.2278C40.67 79.3238 40.054 77.5458 39.34 75.8938ZM34.524 73.0098H39.83C39.62 73.7378 39.354 74.3818 39.032 74.9698L39.998 75.2498C40.348 74.4098 40.628 73.5558 40.852 72.6878V72.0298H34.888C35.056 71.5398 35.224 71.0218 35.364 70.4758L34.412 70.2798C33.936 72.1698 33.166 73.8918 32.102 75.4458L32.97 75.9778C33.558 75.0818 34.076 74.1018 34.524 73.0098ZM36.274 83.0618C37.044 83.0618 37.436 82.6698 37.436 81.8858V74.1858H36.456V81.6338C36.456 81.9978 36.274 82.1798 35.924 82.1798C35.392 82.1798 34.818 82.1518 34.23 82.1098L34.44 83.0618H36.274ZM34.174 76.0058C33.6 78.0498 32.928 79.7298 32.172 81.0458L33.11 81.3818C33.922 79.9118 34.58 78.2038 35.084 76.2578L34.174 76.0058ZM47.656 72.7438H45.402C45.682 72.0438 45.892 71.2738 46.06 70.4478L45.052 70.3078C44.926 71.1478 44.73 71.9598 44.45 72.7438H43.148V82.6978H44.128V81.4938H46.676V82.2918H47.656V72.7438ZM44.128 80.5558V77.4898H46.676V80.5558H44.128ZM44.128 76.5798V73.6958H46.676V76.5798H44.128ZM50.092 75.9918L49.28 76.4958C50.246 77.6438 51.016 78.6798 51.59 79.6038L52.388 79.0438C51.856 78.1758 51.1 77.1538 50.092 75.9918ZM54.894 72.7578H50.428C50.68 72.0298 50.876 71.2458 51.044 70.4198L50.05 70.2938C49.686 72.2818 49.028 73.9618 48.048 75.3338L48.65 76.1318C49.196 75.4178 49.658 74.6198 50.05 73.7378H53.9C53.872 77.7698 53.816 80.1918 53.732 80.9758C53.62 81.6898 53.242 82.0538 52.584 82.0538C52.15 82.0538 51.646 82.0398 51.058 82.0118L51.296 82.9358C51.968 82.9638 52.444 82.9918 52.724 82.9918C53.9 82.9918 54.544 82.4458 54.684 81.3818C54.824 80.2898 54.894 77.4058 54.894 72.7578ZM56.756 73.0658V74.0318H58.464C58.072 75.7818 57.414 77.3358 56.504 78.7078L56.938 79.7858C57.568 78.7218 58.086 77.5318 58.492 76.2298V83.1178H59.472V75.9778C59.794 76.5518 60.172 77.2798 60.592 78.1758L60.998 77.5738V77.7558H61.922C61.782 78.8898 61.614 80.0238 61.418 81.1438H67.298C67.27 81.3398 67.256 81.4798 67.228 81.5358C67.102 81.8578 66.906 82.0678 66.654 82.1658C66.402 82.2358 66.108 82.2778 65.786 82.2778C65.422 82.2778 65.016 82.2498 64.568 82.2218L64.862 83.1458C65.254 83.1458 65.604 83.1318 65.912 83.1318C66.584 83.1318 67.102 83.0338 67.438 82.8378C67.788 82.6138 68.026 82.2778 68.166 81.8298C68.194 81.7178 68.222 81.4938 68.264 81.1438H69.3V80.2758H68.32C68.348 79.6318 68.39 78.7918 68.432 77.7558H69.468V76.8178H68.474L68.572 73.5138H62.37C62.608 73.1638 62.832 72.7858 63.056 72.3658H69.104V71.4278H63.504C63.644 71.1198 63.77 70.7838 63.896 70.4338L62.902 70.2238C62.37 71.7078 61.684 72.9118 60.844 73.8638V73.0658H59.472V70.3218H58.492V73.0658H56.756ZM62.874 77.7558H67.48C67.438 78.7918 67.396 79.6318 67.368 80.2758H62.524C62.664 79.5058 62.776 78.6658 62.874 77.7558ZM67.508 76.8178H62.958C63.014 76.0618 63.056 75.2498 63.098 74.4098H67.592C67.564 75.2778 67.536 76.0898 67.508 76.8178ZM62.006 76.8178H60.998V77.1398C60.466 76.3278 59.962 75.5718 59.472 74.8998V74.0318H60.844V73.9758L61.446 74.6898C61.698 74.4098 61.936 74.1158 62.188 73.7798C62.16 74.7878 62.09 75.7958 62.006 76.8178ZM64.652 74.6898L64.036 75.2778C64.736 75.7818 65.282 76.2578 65.688 76.7058L66.318 76.0758C65.87 75.6138 65.31 75.1518 64.652 74.6898ZM64.498 77.9378L63.882 78.5398C64.554 79.0718 65.086 79.5898 65.478 80.0658L66.108 79.4358C65.674 78.9318 65.142 78.4418 64.498 77.9378ZM79.856 77.6998H74.102C74.508 77.4058 74.858 77.0978 75.166 76.7618H78.792C79.072 77.0838 79.422 77.3918 79.856 77.6998ZM79.828 76.7618H82.95V75.9498H79.1V75.1098H80.92V74.3678H79.1V73.5278H81.186V72.7578H79.1V71.9738H81.704V73.3878H82.684V71.1198H77.588C77.42 70.7558 77.238 70.4478 77.07 70.1678L76.006 70.3498C76.188 70.5738 76.37 70.8398 76.538 71.1198H71.316V73.3878H72.296V71.9738H74.886V72.7578H72.814V73.5278H74.886V74.3678H73.094V75.1098H74.886V75.9498H71.078V76.7618H74.116C73.36 77.3498 72.212 77.8538 70.7 78.2598L71.218 79.0998C71.988 78.8198 72.674 78.5258 73.29 78.2038V80.9758H74.27V78.5118H79.87V80.9758H80.85V78.2878C81.424 78.5678 82.096 78.8338 82.852 79.0718L83.258 78.2178C81.746 77.8538 80.598 77.3778 79.828 76.7618ZM78.12 71.9738V72.7578H75.88V71.9738H78.12ZM75.88 75.9498V75.1098H78.12V75.9498H75.88ZM78.12 74.3678H75.88V73.5278H78.12V74.3678ZM77.91 80.7938L77.406 81.5218C78.848 81.9418 80.262 82.5298 81.634 83.2578L82.138 82.4598C80.864 81.8158 79.45 81.2558 77.91 80.7938ZM76.454 78.9598C76.37 80.1358 76.048 80.9618 75.488 81.4518C74.872 81.9698 73.626 82.2778 71.722 82.3758L72.1 83.2298C74.284 83.0618 75.684 82.6558 76.3 82.0258C76.86 81.5218 77.224 80.5278 77.392 79.0438L76.454 78.9598ZM92.428 70.2518C92.4 70.6018 92.358 70.9518 92.316 71.3158H88.914V72.1978H92.19C92.134 72.5478 92.078 72.8978 92.008 73.2478H89.25V76.6078H96.6V73.2478H92.96C93.03 72.9118 93.1 72.5618 93.17 72.1978H96.936V71.3158H93.296C93.324 71.0218 93.366 70.7138 93.394 70.3918L92.428 70.2518ZM88.942 77.5598V78.4838H96.894V77.5598H88.942ZM95.718 75.7678H94.374V74.1018H95.718V75.7678ZM93.576 75.7678H92.274V74.1018H93.576V75.7678ZM91.476 75.7678H90.132V74.1018H91.476V75.7678ZM87.486 70.2518C86.898 71.5958 85.932 72.7998 84.616 73.8358L84.91 74.8158C86.506 73.6118 87.668 72.2258 88.382 70.6718L87.486 70.2518ZM87.808 73.8358C87.164 75.2358 86.114 76.4958 84.686 77.5878L84.98 78.5398C85.526 78.1338 86.03 77.7138 86.492 77.2658V83.1598H87.472V76.1878C87.948 75.5718 88.354 74.9278 88.676 74.2418L87.808 73.8358ZM96.208 79.0578L95.368 79.3378C95.844 80.1918 96.292 81.1858 96.684 82.3198L97.51 81.9418C97.146 80.9198 96.712 79.9538 96.208 79.0578ZM89.054 79.3798C88.83 80.4018 88.48 81.3398 88.004 82.1938L88.83 82.7118C89.32 81.8158 89.698 80.7658 89.95 79.5618L89.054 79.3798ZM94.192 83.0478C94.626 83.0478 94.948 82.9638 95.144 82.7958C95.368 82.5858 95.522 82.0118 95.606 81.0878L94.724 80.7938C94.682 81.4518 94.598 81.8578 94.486 81.9978C94.402 82.0958 94.248 82.1518 94.024 82.1518H92.162C91.798 82.1518 91.63 81.9698 91.63 81.6338V79.2958H90.692V81.8438C90.692 82.6418 91.084 83.0478 91.868 83.0478H94.192ZM93.142 78.8478L92.414 79.3098C92.974 79.9398 93.422 80.5278 93.758 81.0598L94.5 80.5278C94.178 80.0518 93.73 79.4918 93.142 78.8478ZM110.572 70.5038C109.2 71.1198 107.674 71.4418 105.98 71.4978V76.9718C105.91 79.2678 105.406 81.0738 104.454 82.3758L105.154 83.1178C106.246 81.5778 106.834 79.5338 106.904 76.9718V75.8238H108.794V83.1038H109.788V75.8238H111.258V74.8578H106.904V72.3238C108.416 72.2398 109.802 71.9178 111.048 71.3858L110.572 70.5038ZM99.806 70.3918V71.9318H98.882V72.8418H99.806V78.7078H98.77V79.6458H105.182V78.7078H104.286V72.8418H105.21V71.9318H104.286V70.4198H103.306V71.9318H100.786V70.3918H99.806ZM100.786 78.7078V77.3218H103.306V78.7078H100.786ZM103.306 72.8418V74.2418H100.786V72.8418H103.306ZM100.786 76.4538V75.0958H103.306V76.4538H100.786ZM103.124 80.0658L102.382 80.5278C102.886 81.1998 103.278 81.8298 103.558 82.3898L104.328 81.8578C104.034 81.3398 103.628 80.7378 103.124 80.0658ZM100.45 80.0518C99.932 81.0178 99.316 81.8438 98.602 82.5298L99.428 83.1318C100.142 82.3758 100.772 81.4938 101.304 80.4718L100.45 80.0518ZM112.7 77.6578V78.6098H119.77V77.6578H112.7ZM123.907 75.4178V76.3278H127.015V78.0498H127.967V76.3278H131.215V75.4178H127.967V73.7378H127.015V75.4178H123.907ZM121.723 71.7638V72.6878H125.559C124.565 73.8778 123.123 74.8298 121.219 75.5578L121.709 76.4258C123.949 75.5718 125.643 74.3258 126.777 72.6878H128.401C129.381 74.2558 131.047 75.5298 133.399 76.4958L133.833 75.5858C131.845 74.8718 130.389 73.9058 129.465 72.6878H133.329V71.7638H127.323C127.519 71.3578 127.701 70.9238 127.869 70.4478L126.847 70.3218C126.679 70.8258 126.469 71.3018 126.203 71.7638H121.723ZM121.303 78.8758V79.8138H124.215C124.131 80.1498 124.005 80.4718 123.837 80.7798C123.417 81.4518 122.703 81.9978 121.667 82.4178L122.185 83.2298C123.305 82.7818 124.117 82.1798 124.607 81.3958C124.873 80.9478 125.083 80.4298 125.223 79.8138H129.549V83.1178H130.515V79.8138H133.679V78.8758H130.515V77.2798H129.549V78.8758H125.377C125.405 78.6098 125.419 78.3298 125.419 78.0358V77.2798H124.453V78.0358C124.453 78.3158 124.425 78.5958 124.397 78.8758H121.303ZM147.245 72.6738L144.753 73.4578V70.3778H143.801V73.7518L142.331 74.2138V71.6378H141.393V74.5078L140.329 74.8438V75.8098L141.393 75.4878V81.6198C141.393 82.5018 141.813 82.9498 142.667 82.9498H146.223C146.755 82.9498 147.133 82.8098 147.385 82.5438C147.665 82.2358 147.847 81.3538 147.959 79.8978L147.049 79.6038C146.993 80.7798 146.881 81.4798 146.713 81.7178C146.573 81.9138 146.349 82.0258 146.041 82.0258H142.961C142.541 82.0258 142.331 81.8158 142.331 81.4098V75.1938L143.801 74.7458V80.2058H144.753V74.4518L146.321 73.9758C146.321 76.0758 146.293 77.2938 146.237 77.6298C146.181 77.9658 146.055 78.1478 145.831 78.1478C145.677 78.1478 145.495 78.1338 145.285 78.1198L145.565 79.0578H145.649C146.475 79.0578 146.951 78.7358 147.063 78.1198C147.175 77.4758 147.245 75.6698 147.245 72.6738ZM138.761 71.8898L138.145 76.7198H136.507L137.067 72.9258L136.129 72.8838L135.471 77.6438H139.195C139.195 79.7578 139.125 81.0318 138.985 81.4798C138.845 81.8998 138.411 82.1238 137.711 82.1238C137.487 82.1238 137.109 82.0958 136.563 82.0398L136.829 82.9358C137.207 82.9638 137.571 82.9778 137.921 82.9778C138.845 82.9778 139.447 82.7258 139.727 82.2498C140.007 81.7598 140.161 79.9118 140.161 76.7198H139.125L139.783 70.9658H135.247V71.8898H138.761ZM138.453 78.8898C137.431 79.1978 136.241 79.4358 134.883 79.6178L135.009 80.5838C136.297 80.3878 137.445 80.1358 138.453 79.7998V78.8898ZM159.593 78.8198H151.613V83.2018H152.593V82.5998H158.613V83.2018H159.593V78.8198ZM152.593 81.6898V79.7298H158.613V81.6898H152.593ZM153.713 72.5758C152.817 73.8778 151.683 74.9278 150.297 75.7258L150.941 76.5098C151.557 76.1178 152.145 75.6838 152.691 75.1938C153.293 75.7258 153.951 76.2018 154.665 76.6218C153.181 77.2098 151.305 77.6718 149.051 78.0358L149.429 78.9318C151.949 78.4978 154.035 77.9098 155.687 77.1538C157.423 77.9938 159.397 78.4838 161.637 78.6518L161.861 77.7418C159.971 77.6018 158.263 77.2378 156.737 76.6358C157.815 76.0198 158.641 75.3198 159.215 74.5218V73.7098H154.049C154.273 73.4158 154.483 73.1078 154.693 72.7858L153.713 72.5758ZM155.701 76.1738C154.833 75.7398 154.021 75.2218 153.279 74.6058L153.321 74.5638H158.011C157.437 75.1518 156.667 75.6978 155.701 76.1738ZM161.161 71.3718H155.995C155.827 70.9518 155.673 70.5598 155.505 70.2238L154.399 70.3918C154.581 70.6858 154.749 71.0078 154.917 71.3718H149.793V74.0178H150.815V72.2818H160.139V74.0178H161.161V71.3718ZM173.663 73.0378V75.7678H165.669V73.0378H173.663ZM165.669 76.7478H174.685V72.0438H170.261C170.009 71.3718 169.757 70.7698 169.505 70.2378L168.427 70.4058C168.721 70.9098 168.987 71.4558 169.239 72.0438H164.675V76.4258C164.647 78.9318 164.073 80.9758 162.939 82.5438L163.681 83.2158C164.941 81.4098 165.599 79.2538 165.669 76.7478ZM179.025 75.1098H181.279V77.4478H179.025V75.1098ZM181.279 74.1998H179.025V71.8338H181.279V74.1998ZM179.011 78.3578H181.279V81.5218C181.279 82.0258 181.097 82.2778 180.747 82.2778C180.411 82.2778 180.061 82.2498 179.669 82.2218L179.907 83.1178H181.027C181.811 83.1178 182.203 82.6838 182.203 81.8438V70.9238H178.115V77.6438C178.101 79.6038 177.821 81.2278 177.261 82.4878L178.017 83.1878C178.591 81.9278 178.927 80.3178 179.011 78.3578ZM184.331 76.9718H184.667C184.975 78.3438 185.577 79.5758 186.473 80.6678C185.913 81.3398 185.241 81.8858 184.443 82.3198L184.975 83.1318C185.815 82.6838 186.529 82.1098 187.145 81.3958C187.789 82.0258 188.545 82.5998 189.441 83.1178L189.945 82.2638C189.091 81.7738 188.349 81.2278 187.719 80.6118C188.363 79.6038 188.825 78.3718 189.091 76.9298V76.0758H184.331V71.8338H188.069C188.041 72.8978 187.985 73.5838 187.887 73.8918C187.803 74.1018 187.677 74.2418 187.509 74.2978C187.341 74.3398 187.103 74.3678 186.767 74.3678C186.375 74.3678 186.067 74.3538 185.829 74.3538L186.095 75.2218H187.229C188.111 75.2218 188.629 74.9278 188.797 74.3538C188.965 73.7938 189.049 72.6458 189.049 70.9098H183.379V83.1738H184.331V76.9718ZM185.535 76.9718H188.195C187.943 78.0778 187.565 79.0438 187.047 79.8838C186.333 79.0158 185.829 78.0498 185.535 76.9718ZM195.293 70.2798C194.705 71.6798 193.557 72.8558 191.877 73.8218L192.493 74.6338C193.137 74.2418 193.711 73.8078 194.243 73.3318C194.915 73.9198 195.643 74.4518 196.427 74.9138C194.887 75.5298 193.109 75.9778 191.079 76.2578L191.541 77.2098C193.809 76.8598 195.811 76.2858 197.519 75.5018C199.255 76.3698 201.229 76.9298 203.441 77.1818L203.903 76.2438C201.957 76.0478 200.193 75.6138 198.611 74.9418C199.899 74.2138 200.991 73.3318 201.887 72.2958V71.4838H195.783C195.979 71.1478 196.161 70.7978 196.315 70.4198L195.293 70.2798ZM197.505 74.4238C196.567 73.9338 195.699 73.3458 194.915 72.6598L195.097 72.4358H200.445C199.619 73.1918 198.639 73.8638 197.505 74.4238ZM196.651 76.5098C196.651 77.0698 196.595 77.6018 196.483 78.1058H192.031V79.0158H196.203C196.091 79.2958 195.937 79.5618 195.769 79.8138C195.041 80.8358 193.515 81.6898 191.219 82.3618L191.891 83.1878C194.467 82.3758 196.105 81.3258 196.819 80.0658C197.001 79.7298 197.155 79.3798 197.267 79.0158H201.411C201.369 80.4158 201.243 81.2838 201.033 81.6198C200.809 81.9558 200.291 82.1378 199.451 82.1518L197.799 82.0818L198.051 82.9918C198.695 83.0198 199.241 83.0478 199.689 83.0478C200.683 83.0478 201.383 82.8098 201.789 82.3478C202.195 81.8858 202.405 80.4718 202.433 78.1058H197.505C197.589 77.6018 197.645 77.0698 197.645 76.5098H196.651Z" fill="white"/>
</svg>
