<svg width="252" height="87" viewBox="0 0 252 87" fill="none" xmlns="http://www.w3.org/2000/svg">
<path d="M9.88281 24.1543L9.72559 24.5586V44.2344C9.72559 44.7585 9.53841 45.2301 9.16406 45.6494C8.78971 46.0687 8.29557 46.4056 7.68164 46.6602C7.08268 46.9297 6.68587 47.0495 6.49121 47.0195C6.40137 47.0195 6.34896 46.9971 6.33398 46.9521C6.31901 46.9222 6.31152 46.8848 6.31152 46.8398C6.31152 46.8099 6.30404 46.443 6.28906 45.7393C6.27409 45.0355 5.83236 44.4515 4.96387 43.9873L4.08789 43.5381C4.02799 43.5081 3.97559 43.4557 3.93066 43.3809C3.88574 43.306 3.85579 43.2386 3.84082 43.1787C3.84082 43.1188 3.87077 43.0514 3.93066 42.9766C3.99056 42.9167 4.06543 42.8867 4.15527 42.8867L5.30078 43.0215C5.97461 43.1113 6.35645 43.1488 6.44629 43.1338C6.9554 43.1188 7.20996 42.8867 7.20996 42.4375V24.1543H1.97656C1.66211 24.1543 1.51986 23.9896 1.5498 23.6602V23.3906C1.56478 23.2259 1.58724 23.1361 1.61719 23.1211L1.77441 23.0088L1.97656 22.9414H11.6348L12.2861 21.751C12.4508 21.4515 12.5781 21.3018 12.668 21.3018C12.7728 21.2868 12.96 21.4365 13.2295 21.751L14.8691 23.6602C15.1387 24.0046 15.2734 24.3115 15.2734 24.5811C15.2585 24.7607 15.1911 24.903 15.0713 25.0078C14.9515 25.0977 14.7344 25.18 14.4199 25.2549C14.1055 25.3148 13.8434 25.4271 13.6338 25.5918C13.4242 25.7415 13.1621 26.0635 12.8477 26.5576C12.5482 27.0518 12.3311 27.4486 12.1963 27.748L11.4551 29.2754C11.3503 29.4701 11.238 29.5449 11.1182 29.5C11.0583 29.485 11.0208 29.4476 11.0059 29.3877C10.9909 29.3278 10.9834 29.238 10.9834 29.1182C10.9834 28.9984 10.9834 28.9235 10.9834 28.8936L11.7471 24.1543H9.88281ZM25.7627 20.2012H17.9463V37.7881C17.9463 37.9528 17.8939 38.1325 17.7891 38.3271C17.6842 38.5218 17.4297 38.7165 17.0254 38.9111C16.6361 39.0908 16.3366 39.1657 16.127 39.1357C15.8275 39.1058 15.6328 39.016 15.543 38.8662C15.4681 38.7015 15.4157 38.4993 15.3857 38.2598L15.543 32.7793V22.4922L15.3184 17.3936C15.3932 17.3337 15.4606 17.3187 15.5205 17.3486L16.2168 17.9102L17.9014 18.9883H19.7207C19.7806 18.2396 19.8555 17.3711 19.9453 16.3828C20.0501 15.3945 20.1699 14.0244 20.3047 12.2725H15.1611L14.9141 12.1152C14.8092 11.9805 14.7419 11.7708 14.7119 11.4863C14.6969 11.1868 14.8467 11.0371 15.1611 11.0371H26.0098L27.1104 9.01562C27.29 8.70117 27.4098 8.52148 27.4697 8.47656C27.5446 8.41667 27.7467 8.55892 28.0762 8.90332L30.0527 11.127C30.2324 11.3366 30.3447 11.5013 30.3896 11.6211C30.4495 11.7259 30.4795 11.8607 30.4795 12.0254C30.4795 12.1901 30.2848 12.2725 29.8955 12.2725H23.7861L22.9551 13.3281C22.5957 14.571 22.3187 15.4919 22.124 16.0908L21.3379 18.5391L21.2031 18.9883H25.6504L26.2793 17.6631C26.429 17.3786 26.5339 17.2363 26.5938 17.2363C26.6536 17.2214 26.8109 17.3187 27.0654 17.5283L29.1094 19.3701C29.2891 19.5348 29.3789 19.6846 29.3789 19.8193C29.3789 19.9391 29.2891 20.0964 29.1094 20.291L28.4131 21.1221V32.8691L28.5479 36.373C28.488 36.6875 28.3607 37.0094 28.166 37.3389C27.9863 37.6683 27.597 37.8405 26.998 37.8555C26.4141 37.8704 26.0622 37.7806 25.9424 37.5859C25.8226 37.3913 25.7627 37.2191 25.7627 37.0693V20.2012ZM10.2871 12.5645H2.65039C2.41081 12.5645 2.26107 12.3623 2.20117 11.958C2.15625 11.5387 2.30599 11.3291 2.65039 11.3291H10.3545L10.9834 10.1611C11.1481 9.86165 11.2679 9.71191 11.3428 9.71191C11.4176 9.69694 11.5749 9.81673 11.8145 10.0713L14.1504 12.5645C14.3151 12.7591 14.3975 12.9688 14.3975 13.1934C14.3975 13.4629 14.2627 13.6501 13.9932 13.7549L13.2295 13.957C12.9001 14.0768 12.4209 14.4512 11.792 15.0801C11.1781 15.694 10.2646 16.6673 9.05176 18C9.26139 18.2995 9.47103 18.6439 9.68066 19.0332C9.8903 19.4076 9.99512 19.9017 9.99512 20.5156C9.99512 21.0547 9.86035 21.5713 9.59082 22.0654C9.32129 22.5446 8.94694 22.7842 8.46777 22.7842C8.00358 22.7992 7.67415 22.597 7.47949 22.1777C7.2998 21.7585 7.15755 21.2493 7.05273 20.6504C6.94792 20.0514 6.8431 19.5498 6.73828 19.1455C6.64844 18.7412 6.52865 18.4118 6.37891 18.1572C6.22917 17.9027 6.01953 17.5957 5.75 17.2363L5.14355 16.4502C5.08366 16.4053 5.05371 16.3154 5.05371 16.1807C5.06868 16.0459 5.15853 15.9785 5.32324 15.9785C5.41309 15.9935 5.74251 16.1058 6.31152 16.3154C6.88053 16.5251 7.58431 16.9219 8.42285 17.5059C9.42611 14.9303 10.0475 13.2832 10.2871 12.5645ZM22.9775 25.21C22.9476 26.6624 22.9251 27.793 22.9102 28.6016C22.9102 29.4102 22.9027 30.1963 22.8877 30.96C22.8727 31.7236 22.8428 32.7194 22.7979 33.9473C22.7679 35.1602 22.7305 35.9613 22.6855 36.3506L22.4609 38.3721C25.1263 39.1807 26.9756 40.0117 28.0088 40.8652C29.057 41.7188 29.6859 42.5049 29.8955 43.2236C30.1051 43.9424 30.21 44.4889 30.21 44.8633C30.195 45.2676 30.0752 45.7542 29.8506 46.3232C29.641 46.8923 29.2741 47.1693 28.75 47.1543C28.4505 47.1543 28.1885 47.027 27.9639 46.7725C27.7542 46.5329 27.5596 46.2035 27.3799 45.7842L26.9082 44.5488C26.3092 43.0814 25.7253 42.0407 25.1562 41.4268C24.6022 40.8278 23.6663 40.0492 22.3486 39.0908C22.1839 39.585 21.9743 40.1165 21.7197 40.6855C21.4801 41.2396 20.7988 42.138 19.6758 43.3809C18.5677 44.6237 16.7559 45.7617 14.2402 46.7949L13.1621 47.2441C13.0423 47.2891 12.96 47.3115 12.915 47.3115C12.8851 47.3265 12.8402 47.319 12.7803 47.2891C12.7354 47.2591 12.7129 47.1842 12.7129 47.0645C12.7129 46.9447 12.8327 46.8099 13.0723 46.6602L14.2402 45.9189C15.8275 44.9307 17.0703 43.7926 17.9688 42.5049C18.8672 41.2171 19.4661 40.0716 19.7656 39.0684C20.0651 38.0501 20.2448 37.0394 20.3047 36.0361C20.3796 35.0179 20.4245 33.9023 20.4395 32.6895C20.4694 31.4766 20.4844 30.5182 20.4844 29.8145L20.4619 26.6699V24.5586L20.3721 23.0986C20.402 22.9639 20.4544 22.889 20.5293 22.874L20.7314 22.9414L23.3145 23.6377C23.4792 23.6976 23.5915 23.7575 23.6514 23.8174C23.7262 23.8623 23.7562 23.9596 23.7412 24.1094C23.7412 24.2441 23.6663 24.3939 23.5166 24.5586L22.9775 25.21ZM58.3086 18.3818H49.2119C48.6878 19.8643 48.0664 21.3991 47.3477 22.9863C46.6439 24.5736 46.1722 25.5918 45.9326 26.041L45.2588 27.2988C45.1989 27.4186 45.124 27.4785 45.0342 27.4785C44.9294 27.4935 44.8695 27.4635 44.8545 27.3887C44.8395 27.2988 44.832 27.224 44.832 27.1641C44.847 27.1042 44.862 27.0443 44.877 26.9844L45.3262 25.6367C45.6107 24.7533 45.8353 24.0046 46 23.3906L46.7637 20.0439L47.3926 17.4834C47.4525 17.1689 47.6621 15.9785 48.0215 13.9121C48.3809 11.8457 48.568 10.7376 48.583 10.5879L48.9199 8.27441L49.0098 7.30859C49.0397 7.26367 49.0771 7.23372 49.1221 7.21875L49.5039 7.44336L52.7158 9.19531C52.9105 9.3151 53.0228 9.40495 53.0527 9.46484C53.0827 9.52474 53.0902 9.57715 53.0752 9.62207C53.0752 9.65202 53.0452 9.7194 52.9854 9.82422C52.9404 9.92904 52.873 10.0114 52.7832 10.0713L51.9072 10.5879L49.6836 17.1465H58.2188L59.0498 15.6191C59.1696 15.4095 59.252 15.2972 59.2969 15.2822C59.3418 15.2523 59.4092 15.2747 59.499 15.3496L62.0371 17.5957C62.1719 17.7305 62.2617 17.8278 62.3066 17.8877C62.3516 17.9476 62.3665 18.0075 62.3516 18.0674C62.3516 18.1273 62.2467 18.262 62.0371 18.4717L61.2061 19.3027C61.1462 21.5938 61.0788 24.1768 61.0039 27.0518C60.929 29.9268 60.8167 32.3525 60.667 34.3291C60.5322 36.3057 60.3675 38.1849 60.1729 39.9668C59.9932 41.7487 59.5589 43.2985 58.8701 44.6162C58.1963 45.9489 56.9385 46.8473 55.0967 47.3115L54.3779 47.4912C54.1833 47.5511 54.071 47.5361 54.041 47.4463L53.9736 47.1543L53.7041 46.1885C53.4046 45.1553 52.8805 44.4215 52.1318 43.9873L50.874 43.291C50.7243 43.2161 50.6569 43.0964 50.6719 42.9316C50.6719 42.9017 50.6868 42.8343 50.7168 42.7295C50.7467 42.6247 50.8665 42.5872 51.0762 42.6172L52.626 42.8867C54.5127 43.2311 55.7181 43.0215 56.2422 42.2578C56.7663 41.5091 57.1406 40.5658 57.3652 39.4277C57.5898 38.2897 57.792 36.2682 57.9717 33.3633C58.1663 30.4583 58.2786 27.4111 58.3086 24.2217L58.3311 21.6611C58.3311 20.2087 58.3311 19.2878 58.3311 18.8984L58.3086 18.3818ZM51.7275 34.8682C51.2783 34.973 50.9115 34.7559 50.627 34.2168C50.3574 33.6777 50.2301 32.8317 50.2451 31.6787C50.2751 30.5107 50.2227 29.5225 50.0879 28.7139C49.9232 27.9053 49.7285 27.2539 49.5039 26.7598C49.2943 26.2507 49.1146 25.8913 48.9648 25.6816C48.8151 25.457 48.7402 25.2773 48.7402 25.1426C48.7402 24.9928 48.8001 24.9105 48.9199 24.8955C49.0547 24.8656 49.182 24.8955 49.3018 24.9854C52.4313 27.6657 53.8464 29.9342 53.5469 31.791C53.2624 33.6328 52.6559 34.6585 51.7275 34.8682ZM36.4092 21.7285L40.9463 22.2002C41.6201 20.5531 42.0693 19.3851 42.2939 18.6963L43.0801 16.3604L43.1924 15.9111C43.2673 15.8213 43.4395 15.8812 43.709 16.0908L46.292 18.2471C46.5166 18.4417 46.599 18.599 46.5391 18.7188C46.4792 18.8385 46.3968 18.9284 46.292 18.9883L45.3486 19.4824C42.9678 23.7799 40.5495 28.0625 38.0938 32.3301C39.1868 32.1803 40.4222 32.0231 41.7998 31.8584C43.1774 31.6937 44.0833 31.5664 44.5176 31.4766L45.7529 31.252C45.9176 31.222 46.0075 31.3044 46.0225 31.499C46.0374 31.6937 45.9626 31.821 45.7979 31.8809L44.7646 32.3301C42.1742 33.4681 39.973 34.5462 38.1611 35.5645L36.499 36.4854L36.0049 36.7998C35.945 36.7699 35.8926 36.665 35.8477 36.4854L35.0166 33.2734L34.8818 32.7344C34.8818 32.6895 34.8968 32.652 34.9268 32.6221L35.1738 32.5322L35.668 32.3301C35.9375 32.2253 36.3268 31.7311 36.8359 30.8477C37.3451 29.9492 38.1162 28.3844 39.1494 26.1533L40.5869 23.0312C39.0446 23.4056 37.8242 23.765 36.9258 24.1094L35.4209 24.7158L34.9492 24.9404C34.9193 24.9404 34.9043 24.9404 34.9043 24.9404C34.9043 24.9255 34.8444 24.6859 34.7246 24.2217L34.0732 21.6387C34.0283 21.459 34.0059 21.3542 34.0059 21.3242C34.0059 21.2793 34.0133 21.2493 34.0283 21.2344L34.1855 21.1445L34.7246 20.5605C35.3385 19.8867 36.0723 18.3669 36.9258 16.001C37.7793 13.6201 38.4007 11.6585 38.79 10.1162L39.2393 8.27441L39.374 7.71289C39.4339 7.66797 39.5537 7.69792 39.7334 7.80273L42.4961 9.68945C42.571 9.74935 42.6309 9.82422 42.6758 9.91406C42.7357 10.0039 42.7656 10.1087 42.7656 10.2285C42.7806 10.3483 42.6683 10.4681 42.4287 10.5879L41.665 10.9922L36.4092 21.7285ZM36.4766 41.5391C40.4447 40.2513 43.2448 39.3005 44.877 38.6865L46.0674 38.2373C46.1722 38.2074 46.277 38.2223 46.3818 38.2822C46.4867 38.3271 46.5091 38.4245 46.4492 38.5742C46.4043 38.724 46.3519 38.8213 46.292 38.8662L45.2139 39.6299L41.418 42.4375C39.651 43.7552 38.543 44.5938 38.0938 44.9531L36.7012 46.0986C36.4466 46.3083 36.3044 46.4056 36.2744 46.3906C36.2445 46.3757 36.207 46.2783 36.1621 46.0986L35.1514 42.7969L34.9043 42.0557C34.9193 42.0107 34.9417 41.9733 34.9717 41.9434L35.2188 41.8984L36.4766 41.5391ZM70.4824 42.999V45.2676C70.4824 45.5521 70.3252 45.8141 70.0107 46.0537C69.6963 46.2933 69.3294 46.4056 68.9102 46.3906C68.5508 46.3906 68.3262 46.3232 68.2363 46.1885C68.1465 46.0537 68.0866 45.889 68.0566 45.6943L68.1689 41.5615V32.1504L68.0342 28.377C68.0941 28.2572 68.154 28.1898 68.2139 28.1748L68.5283 28.377L70.6846 29.5674H71.6279H75.1992L75.8057 28.5791C76.1051 28.085 76.2998 27.8454 76.3896 27.8604C76.4795 27.8604 76.7041 28.0326 77.0635 28.377L78.3887 29.6797C78.5684 29.8743 78.6956 30.0391 78.7705 30.1738C78.8604 30.3086 78.8978 30.4359 78.8828 30.5557C78.8678 30.6755 78.7555 30.8701 78.5459 31.1396L77.8945 31.9258V40.0791L78.0068 44.3242C77.932 44.5488 77.8346 44.736 77.7148 44.8857C77.5951 45.0505 77.3105 45.1852 76.8613 45.29C76.4121 45.3949 76.1126 45.4398 75.9629 45.4248C75.6035 45.4248 75.4238 45.2077 75.4238 44.7734V42.999H70.4824ZM75.4238 41.7861V30.8252H70.4824V41.7861H75.4238ZM84.8125 22.627H75.334V24.7158C75.334 24.9704 75.2367 25.1725 75.042 25.3223C74.8623 25.472 74.6077 25.5993 74.2783 25.7041C73.9489 25.7939 73.6569 25.8239 73.4023 25.7939C73.1628 25.779 72.998 25.7191 72.9082 25.6143C72.8184 25.4945 72.7585 25.3223 72.7285 25.0977L72.8408 20.3584V12.6094L72.7285 8.58887C72.7884 8.48405 72.8333 8.43164 72.8633 8.43164C72.9082 8.41667 73.0579 8.49902 73.3125 8.67871L75.334 10.1611H84.5879L85.3066 8.90332C85.5013 8.54395 85.651 8.37174 85.7559 8.38672C85.8757 8.38672 86.1602 8.59635 86.6094 9.01562L87.7324 10.0713C88.0319 10.3708 88.234 10.5954 88.3389 10.7451C88.4437 10.8799 88.4886 11.0146 88.4736 11.1494C88.4736 11.2692 88.3613 11.4714 88.1367 11.7559L87.4629 12.6094V19.707L87.5527 23.8848C87.3581 24.334 87.0286 24.641 86.5645 24.8057C86.1152 24.9554 85.7484 25.0228 85.4639 25.0078C85.0296 24.9928 84.8125 24.7458 84.8125 24.2666V22.627ZM84.8125 21.3916V11.4414H75.334V21.3916H84.8125ZM89.5068 42.999H83.8916V44.8184C83.8916 45.043 83.7568 45.2975 83.4873 45.582C83.2327 45.8815 82.7611 46.0238 82.0723 46.0088C81.7878 46.0088 81.6081 45.9489 81.5332 45.8291C81.4583 45.7243 81.4059 45.5596 81.376 45.335L81.4658 40.4609V31.8135L81.376 27.9502C81.4209 27.8154 81.4508 27.7406 81.4658 27.7256C81.4958 27.7106 81.638 27.793 81.8926 27.9727L84.0039 29.5674H89.2822L89.9561 28.377C90.1807 27.9577 90.3529 27.7555 90.4727 27.7705C90.5924 27.7705 90.862 27.9727 91.2812 28.377L92.4941 29.5674C92.7337 29.807 92.8835 29.9941 92.9434 30.1289C93.0182 30.2487 93.0557 30.361 93.0557 30.4658C93.0706 30.5706 92.9658 30.7653 92.7412 31.0498L92.1572 31.8135V40.124L92.2471 44.167C92.1572 44.4066 92.015 44.6462 91.8203 44.8857C91.6257 45.1253 91.109 45.2301 90.2705 45.2002C89.7614 45.2002 89.5068 44.998 89.5068 44.5938V42.999ZM89.5068 41.7861V30.7578H83.8916V41.7861H89.5068ZM113.181 45.2002H115.404C116.288 42.6396 116.842 40.9626 117.066 40.1689L117.381 38.9785C117.411 38.8438 117.433 38.7689 117.448 38.7539C117.463 38.7389 117.553 38.7839 117.718 38.8887L120.211 40.6631C120.361 40.7829 120.436 40.8952 120.436 41C120.451 41.1048 120.391 41.1872 120.256 41.2471L119.492 41.6289L116.707 45.2002H121.469L122.861 42.8643C122.966 42.6846 123.041 42.5872 123.086 42.5723C123.131 42.5573 123.213 42.6322 123.333 42.7969L125.534 45.8965C125.609 46.0312 125.646 46.1286 125.646 46.1885C125.646 46.3532 125.564 46.4355 125.399 46.4355H123.917H99.5693C99.4346 46.3906 99.3298 46.3307 99.2549 46.2559C99.195 46.181 99.165 45.9863 99.165 45.6719C99.165 45.3574 99.2998 45.2002 99.5693 45.2002H106.577C106.293 45.1253 106.076 44.9756 105.926 44.751C105.776 44.5264 105.664 44.1745 105.589 43.6953L105.387 42.0781C105.207 41.1947 104.938 40.5882 104.578 40.2588C104.234 39.9294 104.069 39.6898 104.084 39.54C104.084 39.3304 104.159 39.2106 104.309 39.1807C104.368 39.1807 104.451 39.2031 104.556 39.248C104.675 39.278 105.065 39.3678 105.724 39.5176C106.382 39.6673 106.981 40.0791 107.521 40.7529C108.075 41.4268 108.337 42.2354 108.307 43.1787C108.277 44.2269 107.895 44.9007 107.161 45.2002H110.62L110.598 38.1924H102.13H102.062L101.86 38.0352C101.785 37.8704 101.748 37.6533 101.748 37.3838C101.748 37.1143 101.875 36.9795 102.13 36.9795H110.62L110.598 32.959H106.173C105.903 32.959 105.761 32.7568 105.746 32.3525C105.731 31.9333 105.873 31.7236 106.173 31.7236H114.281L115.337 29.9268C115.427 29.777 115.487 29.7021 115.517 29.7021C115.562 29.6872 115.651 29.762 115.786 29.9268L117.628 32.4424C117.718 32.5771 117.748 32.6895 117.718 32.7793C117.703 32.8691 117.628 32.9141 117.493 32.9141H114.955V32.959H113.787C113.712 33.1986 113.63 33.3708 113.54 33.4756C113.465 33.5654 113.345 33.6478 113.181 33.7227V36.9795H118.931L119.986 35.25C120.121 35.0254 120.211 34.9131 120.256 34.9131C120.301 34.8981 120.398 34.9805 120.548 35.1602L122.547 37.6758C122.637 37.8105 122.682 37.9154 122.682 37.9902C122.667 38.125 122.539 38.1924 122.3 38.1924H119.604H113.181V45.2002ZM115.427 13.6201H122.12L123.288 11.5986C123.393 11.404 123.475 11.3141 123.535 11.3291C123.595 11.3441 123.685 11.4189 123.805 11.5537L125.961 14.2939C126.021 14.3988 126.051 14.5111 126.051 14.6309C126.066 14.7507 125.983 14.8105 125.804 14.8105H122.277V14.833H114.73C114.386 15.387 113.929 16.1208 113.36 17.0342C112.806 17.9326 112.297 18.7412 111.833 19.46L111.159 20.4707C111.099 20.5605 111.024 20.613 110.935 20.6279C110.86 20.6279 110.807 20.613 110.777 20.583C110.762 20.5381 110.747 20.4782 110.732 20.4033C110.732 20.3135 110.755 20.2236 110.8 20.1338L111.249 18.9883C112.103 16.8171 112.731 15.0352 113.136 13.6426C113.555 12.25 113.974 10.6927 114.394 8.9707L114.663 7.87012L114.73 7.55566C114.775 7.51074 114.888 7.54069 115.067 7.64551L118.055 9.53223C118.219 9.63704 118.302 9.74186 118.302 9.84668C118.287 9.98145 118.204 10.0713 118.055 10.1162L117.291 10.3857L115.427 13.6201ZM113.585 24.4014C115.442 26.7972 117.478 28.4893 119.694 29.4775C121.925 30.4508 123.857 30.9375 125.489 30.9375H126.725C126.904 30.9375 126.994 31.0199 126.994 31.1846C126.994 31.3343 126.934 31.4466 126.814 31.5215L125.871 32.2178C125.467 32.5173 125.025 33.3333 124.546 34.666L124.276 35.3398C124.201 35.5345 124.149 35.6393 124.119 35.6543C124.089 35.6693 123.969 35.6243 123.76 35.5195L122.861 35.0703C121.184 34.2617 119.53 33.0788 117.897 31.5215C116.28 29.9642 115.052 28.362 114.214 26.7148L113.113 24.6709C111.706 26.1383 110.605 27.2464 109.812 27.9951C109.018 28.7288 107.633 29.9193 105.656 31.5664C103.68 33.2135 101.853 34.4564 100.176 35.2949L98.9854 35.9014C98.8356 35.9762 98.7533 35.9688 98.7383 35.8789C98.7383 35.7891 98.7383 35.7217 98.7383 35.6768C98.7533 35.527 98.8057 35.4147 98.8955 35.3398L100.086 34.5312C100.49 34.2617 101.561 33.3109 103.298 31.6787C105.035 30.0316 106.57 28.2347 107.902 26.2881C109.25 24.3265 110.059 23.0986 110.328 22.6045L111.114 21.2344L111.316 20.875C111.331 20.86 111.339 20.8525 111.339 20.8525C111.339 20.8376 111.421 20.9049 111.586 21.0547L114.146 23.3906C114.341 23.5853 114.438 23.7275 114.438 23.8174C114.424 23.9372 114.356 24.027 114.236 24.0869L113.585 24.4014ZM103.433 11.5986V20.6055L103.5 22.9863C103.35 23.5404 103.043 23.8923 102.579 24.042C102.115 24.1768 101.748 24.2367 101.479 24.2217C101.179 24.2217 100.999 24.1693 100.939 24.0645C100.88 23.9596 100.842 23.8174 100.827 23.6377L100.917 19.9092V12.8789L100.827 9.33008C100.872 9.28516 100.902 9.25521 100.917 9.24023C100.947 9.22526 101.082 9.25521 101.321 9.33008L104.017 10.2285C104.151 10.2884 104.219 10.3857 104.219 10.5205C104.234 10.6403 104.151 10.7975 103.972 10.9922L103.433 11.5986ZM108.868 9.68945V20.4033L108.958 23.4805C108.898 23.7201 108.808 23.9297 108.688 24.1094C108.569 24.2891 108.299 24.4538 107.88 24.6035C107.461 24.7533 107.071 24.8132 106.712 24.7832C106.547 24.7832 106.435 24.7533 106.375 24.6934C106.315 24.6185 106.27 24.4613 106.24 24.2217L106.33 20.0439V11.0371L106.24 7.4209C106.285 7.28613 106.33 7.21126 106.375 7.19629L106.577 7.26367L109.677 8.22949C109.826 8.28939 109.909 8.38672 109.924 8.52148C109.939 8.65625 109.864 8.79102 109.699 8.92578L108.868 9.68945ZM116.797 15.9561C116.827 15.9261 116.864 15.9111 116.909 15.9111C116.954 15.8962 117.239 16.0833 117.763 16.4727C118.287 16.862 118.766 17.2738 119.2 17.708C119.649 18.1423 120.054 18.7262 120.413 19.46C120.787 20.1787 120.937 21.167 120.862 22.4248C120.802 23.6676 120.353 24.2591 119.515 24.1992C118.676 24.1393 118.16 23.735 117.965 22.9863C117.89 22.7617 117.853 22.4173 117.853 21.9531C117.868 21.474 117.875 21.0098 117.875 20.5605C117.86 20.1413 117.83 19.6621 117.785 19.123C117.74 18.569 117.613 18.0824 117.403 17.6631C117.194 17.2438 117.029 16.9219 116.909 16.6973C116.789 16.4577 116.715 16.3005 116.685 16.2256C116.67 16.1357 116.707 16.0459 116.797 15.9561Z" fill="white"/>
<path d="M3.458 73.6258V74.4518H8.064V73.6258H3.458ZM3.836 75.3478V78.2038H7.742V75.3478H3.836ZM6.804 77.4198H4.788V76.1318H6.804V77.4198ZM12.796 71.5818H11.858C11.718 71.1198 11.564 70.6998 11.41 70.3358L10.514 70.4898C10.682 70.8258 10.836 71.1898 10.976 71.5818H9.45C9.422 71.1618 9.422 70.7278 9.422 70.2658H8.456C8.456 70.7138 8.456 71.1618 8.484 71.5818H1.834V74.3398C1.792 75.9638 1.4 77.2238 0.644 78.1338L1.4 78.8198C2.296 77.6858 2.772 76.1878 2.814 74.3398V72.5058H8.526C8.596 73.6678 8.736 74.6338 8.96 75.4178C9.128 75.9918 9.324 76.5098 9.548 76.9578C9.1 77.4618 8.596 77.8818 8.05 78.2038L8.568 78.9878C9.072 78.6798 9.562 78.2878 10.024 77.7978C10.08 77.8818 10.164 77.9798 10.248 78.0778C10.766 78.6378 11.298 78.9318 11.858 78.9318C12.446 78.9318 12.95 78.1898 13.37 76.7198L12.558 76.2438C12.278 77.4058 12.012 77.9938 11.76 77.9938C11.452 77.9938 11.116 77.7418 10.752 77.2518L10.626 77.0558C11.27 76.1598 11.802 75.0398 12.236 73.6678L11.452 73.2618C11.116 74.3538 10.682 75.2918 10.178 76.1038C10.038 75.7538 9.926 75.3618 9.828 74.9278C9.66 74.2978 9.548 73.4858 9.492 72.5058H12.796V71.5818ZM2.268 79.0858C1.932 80.2058 1.414 81.2278 0.714 82.1518L1.568 82.6978C2.268 81.7318 2.8 80.5978 3.192 79.2818L2.268 79.0858ZM8.834 82.9358C9.352 82.9358 9.73 82.8378 9.982 82.6418C10.262 82.3898 10.444 81.7318 10.528 80.6398L9.576 80.3178C9.52 81.1298 9.408 81.6058 9.268 81.7738C9.142 81.9138 8.932 81.9838 8.652 81.9838H5.67C5.32 81.9838 5.152 81.7878 5.152 81.3958V78.9318H4.13V81.6058C4.13 82.4878 4.536 82.9358 5.362 82.9358H8.834ZM11.48 79.3798L10.668 79.8838C11.48 80.7938 12.11 81.6338 12.586 82.3898L13.384 81.8158C12.95 81.1158 12.32 80.3038 11.48 79.3798ZM7 78.6938L6.244 79.1558C6.888 79.8558 7.392 80.4998 7.756 81.0878L8.512 80.5558C8.162 80.0238 7.658 79.3938 7 78.6938ZM25.998 70.4338C23.184 70.8258 19.642 71.0218 15.372 71.0218L15.666 71.9318C20.16 71.9318 23.772 71.7078 26.488 71.2878L25.998 70.4338ZM26.852 74.6338H24.192C24.654 74.0318 25.102 73.2898 25.55 72.3938L24.542 72.0158C24.15 72.9398 23.674 73.8218 23.114 74.6338H15.148V77.8258H16.128V75.5858H25.872V77.8258H26.852V74.6338ZM17.122 72.2818L16.24 72.7298C16.73 73.2758 17.192 73.9058 17.626 74.6058L18.494 74.1718C18.074 73.4858 17.612 72.8558 17.122 72.2818ZM20.454 72.1278L19.544 72.5618C20.02 73.1218 20.454 73.7658 20.874 74.4938L21.77 74.0318C21.35 73.3318 20.902 72.7018 20.454 72.1278ZM16.856 76.9578V77.8818H17.416C17.962 78.9598 18.872 79.9118 20.146 80.7238C18.704 81.3538 16.926 81.8578 14.812 82.2498L15.344 83.2018C17.654 82.7258 19.586 82.0958 21.154 81.3118C22.61 82.0678 24.444 82.6978 26.656 83.1878L27.244 82.2918C25.242 81.8858 23.548 81.3678 22.162 80.7378C23.478 79.9258 24.444 78.9458 25.06 77.8258V76.9578H16.856ZM18.452 77.8818H23.94C23.296 78.7778 22.372 79.5618 21.14 80.2338C19.922 79.5618 19.026 78.7778 18.452 77.8818ZM28.756 73.0658V74.0318H30.464C30.072 75.7818 29.414 77.3358 28.504 78.7078L28.938 79.7858C29.568 78.7218 30.086 77.5318 30.492 76.2298V83.1178H31.472V75.9778C31.794 76.5518 32.172 77.2798 32.592 78.1758L32.998 77.5738V77.7558H33.922C33.782 78.8898 33.614 80.0238 33.418 81.1438H39.298C39.27 81.3398 39.256 81.4798 39.228 81.5358C39.102 81.8578 38.906 82.0678 38.654 82.1658C38.402 82.2358 38.108 82.2778 37.786 82.2778C37.422 82.2778 37.016 82.2498 36.568 82.2218L36.862 83.1458C37.254 83.1458 37.604 83.1318 37.912 83.1318C38.584 83.1318 39.102 83.0338 39.438 82.8378C39.788 82.6138 40.026 82.2778 40.166 81.8298C40.194 81.7178 40.222 81.4938 40.264 81.1438H41.3V80.2758H40.32C40.348 79.6318 40.39 78.7918 40.432 77.7558H41.468V76.8178H40.474L40.572 73.5138H34.37C34.608 73.1638 34.832 72.7858 35.056 72.3658H41.104V71.4278H35.504C35.644 71.1198 35.77 70.7838 35.896 70.4338L34.902 70.2238C34.37 71.7078 33.684 72.9118 32.844 73.8638V73.0658H31.472V70.3218H30.492V73.0658H28.756ZM34.874 77.7558H39.48C39.438 78.7918 39.396 79.6318 39.368 80.2758H34.524C34.664 79.5058 34.776 78.6658 34.874 77.7558ZM39.508 76.8178H34.958C35.014 76.0618 35.056 75.2498 35.098 74.4098H39.592C39.564 75.2778 39.536 76.0898 39.508 76.8178ZM34.006 76.8178H32.998V77.1398C32.466 76.3278 31.962 75.5718 31.472 74.8998V74.0318H32.844V73.9758L33.446 74.6898C33.698 74.4098 33.936 74.1158 34.188 73.7798C34.16 74.7878 34.09 75.7958 34.006 76.8178ZM36.652 74.6898L36.036 75.2778C36.736 75.7818 37.282 76.2578 37.688 76.7058L38.318 76.0758C37.87 75.6138 37.31 75.1518 36.652 74.6898ZM36.498 77.9378L35.882 78.5398C36.554 79.0718 37.086 79.5898 37.478 80.0658L38.108 79.4358C37.674 78.9318 37.142 78.4418 36.498 77.9378ZM51.856 77.6998H46.102C46.508 77.4058 46.858 77.0978 47.166 76.7618H50.792C51.072 77.0838 51.422 77.3918 51.856 77.6998ZM51.828 76.7618H54.95V75.9498H51.1V75.1098H52.92V74.3678H51.1V73.5278H53.186V72.7578H51.1V71.9738H53.704V73.3878H54.684V71.1198H49.588C49.42 70.7558 49.238 70.4478 49.07 70.1678L48.006 70.3498C48.188 70.5738 48.37 70.8398 48.538 71.1198H43.316V73.3878H44.296V71.9738H46.886V72.7578H44.814V73.5278H46.886V74.3678H45.094V75.1098H46.886V75.9498H43.078V76.7618H46.116C45.36 77.3498 44.212 77.8538 42.7 78.2598L43.218 79.0998C43.988 78.8198 44.674 78.5258 45.29 78.2038V80.9758H46.27V78.5118H51.87V80.9758H52.85V78.2878C53.424 78.5678 54.096 78.8338 54.852 79.0718L55.258 78.2178C53.746 77.8538 52.598 77.3778 51.828 76.7618ZM50.12 71.9738V72.7578H47.88V71.9738H50.12ZM47.88 75.9498V75.1098H50.12V75.9498H47.88ZM50.12 74.3678H47.88V73.5278H50.12V74.3678ZM49.91 80.7938L49.406 81.5218C50.848 81.9418 52.262 82.5298 53.634 83.2578L54.138 82.4598C52.864 81.8158 51.45 81.2558 49.91 80.7938ZM48.454 78.9598C48.37 80.1358 48.048 80.9618 47.488 81.4518C46.872 81.9698 45.626 82.2778 43.722 82.3758L44.1 83.2298C46.284 83.0618 47.684 82.6558 48.3 82.0258C48.86 81.5218 49.224 80.5278 49.392 79.0438L48.454 78.9598ZM64.428 70.2518C64.4 70.6018 64.358 70.9518 64.316 71.3158H60.914V72.1978H64.19C64.134 72.5478 64.078 72.8978 64.008 73.2478H61.25V76.6078H68.6V73.2478H64.96C65.03 72.9118 65.1 72.5618 65.17 72.1978H68.936V71.3158H65.296C65.324 71.0218 65.366 70.7138 65.394 70.3918L64.428 70.2518ZM60.942 77.5598V78.4838H68.894V77.5598H60.942ZM67.718 75.7678H66.374V74.1018H67.718V75.7678ZM65.576 75.7678H64.274V74.1018H65.576V75.7678ZM63.476 75.7678H62.132V74.1018H63.476V75.7678ZM59.486 70.2518C58.898 71.5958 57.932 72.7998 56.616 73.8358L56.91 74.8158C58.506 73.6118 59.668 72.2258 60.382 70.6718L59.486 70.2518ZM59.808 73.8358C59.164 75.2358 58.114 76.4958 56.686 77.5878L56.98 78.5398C57.526 78.1338 58.03 77.7138 58.492 77.2658V83.1598H59.472V76.1878C59.948 75.5718 60.354 74.9278 60.676 74.2418L59.808 73.8358ZM68.208 79.0578L67.368 79.3378C67.844 80.1918 68.292 81.1858 68.684 82.3198L69.51 81.9418C69.146 80.9198 68.712 79.9538 68.208 79.0578ZM61.054 79.3798C60.83 80.4018 60.48 81.3398 60.004 82.1938L60.83 82.7118C61.32 81.8158 61.698 80.7658 61.95 79.5618L61.054 79.3798ZM66.192 83.0478C66.626 83.0478 66.948 82.9638 67.144 82.7958C67.368 82.5858 67.522 82.0118 67.606 81.0878L66.724 80.7938C66.682 81.4518 66.598 81.8578 66.486 81.9978C66.402 82.0958 66.248 82.1518 66.024 82.1518H64.162C63.798 82.1518 63.63 81.9698 63.63 81.6338V79.2958H62.692V81.8438C62.692 82.6418 63.084 83.0478 63.868 83.0478H66.192ZM65.142 78.8478L64.414 79.3098C64.974 79.9398 65.422 80.5278 65.758 81.0598L66.5 80.5278C66.178 80.0518 65.73 79.4918 65.142 78.8478ZM82.572 70.5038C81.2 71.1198 79.674 71.4418 77.98 71.4978V76.9718C77.91 79.2678 77.406 81.0738 76.454 82.3758L77.154 83.1178C78.246 81.5778 78.834 79.5338 78.904 76.9718V75.8238H80.794V83.1038H81.788V75.8238H83.258V74.8578H78.904V72.3238C80.416 72.2398 81.802 71.9178 83.048 71.3858L82.572 70.5038ZM71.806 70.3918V71.9318H70.882V72.8418H71.806V78.7078H70.77V79.6458H77.182V78.7078H76.286V72.8418H77.21V71.9318H76.286V70.4198H75.306V71.9318H72.786V70.3918H71.806ZM72.786 78.7078V77.3218H75.306V78.7078H72.786ZM75.306 72.8418V74.2418H72.786V72.8418H75.306ZM72.786 76.4538V75.0958H75.306V76.4538H72.786ZM75.124 80.0658L74.382 80.5278C74.886 81.1998 75.278 81.8298 75.558 82.3898L76.328 81.8578C76.034 81.3398 75.628 80.7378 75.124 80.0658ZM72.45 80.0518C71.932 81.0178 71.316 81.8438 70.602 82.5298L71.428 83.1318C72.142 82.3758 72.772 81.4938 73.304 80.4718L72.45 80.0518ZM84.7 77.6578V78.6098H91.77V77.6578H84.7ZM95.9066 75.4178V76.3278H99.0146V78.0498H99.9666V76.3278H103.215V75.4178H99.9666V73.7378H99.0146V75.4178H95.9066ZM93.7226 71.7638V72.6878H97.5586C96.5646 73.8778 95.1226 74.8298 93.2186 75.5578L93.7086 76.4258C95.9486 75.5718 97.6426 74.3258 98.7766 72.6878H100.401C101.381 74.2558 103.047 75.5298 105.399 76.4958L105.833 75.5858C103.845 74.8718 102.389 73.9058 101.465 72.6878H105.329V71.7638H99.3226C99.5186 71.3578 99.7006 70.9238 99.8686 70.4478L98.8466 70.3218C98.6786 70.8258 98.4686 71.3018 98.2026 71.7638H93.7226ZM93.3026 78.8758V79.8138H96.2146C96.1306 80.1498 96.0046 80.4718 95.8366 80.7798C95.4166 81.4518 94.7026 81.9978 93.6666 82.4178L94.1846 83.2298C95.3046 82.7818 96.1166 82.1798 96.6066 81.3958C96.8726 80.9478 97.0826 80.4298 97.2226 79.8138H101.549V83.1178H102.515V79.8138H105.679V78.8758H102.515V77.2798H101.549V78.8758H97.3766C97.4046 78.6098 97.4186 78.3298 97.4186 78.0358V77.2798H96.4526V78.0358C96.4526 78.3158 96.4246 78.5958 96.3966 78.8758H93.3026ZM119.245 72.6738L116.753 73.4578V70.3778H115.801V73.7518L114.331 74.2138V71.6378H113.393V74.5078L112.329 74.8438V75.8098L113.393 75.4878V81.6198C113.393 82.5018 113.813 82.9498 114.667 82.9498H118.223C118.755 82.9498 119.133 82.8098 119.385 82.5438C119.665 82.2358 119.847 81.3538 119.959 79.8978L119.049 79.6038C118.993 80.7798 118.881 81.4798 118.713 81.7178C118.573 81.9138 118.349 82.0258 118.041 82.0258H114.961C114.541 82.0258 114.331 81.8158 114.331 81.4098V75.1938L115.801 74.7458V80.2058H116.753V74.4518L118.321 73.9758C118.321 76.0758 118.293 77.2938 118.237 77.6298C118.181 77.9658 118.055 78.1478 117.831 78.1478C117.677 78.1478 117.495 78.1338 117.285 78.1198L117.565 79.0578H117.649C118.475 79.0578 118.951 78.7358 119.063 78.1198C119.175 77.4758 119.245 75.6698 119.245 72.6738ZM110.761 71.8898L110.145 76.7198H108.507L109.067 72.9258L108.129 72.8838L107.471 77.6438H111.195C111.195 79.7578 111.125 81.0318 110.985 81.4798C110.845 81.8998 110.411 82.1238 109.711 82.1238C109.487 82.1238 109.109 82.0958 108.563 82.0398L108.829 82.9358C109.207 82.9638 109.571 82.9778 109.921 82.9778C110.845 82.9778 111.447 82.7258 111.727 82.2498C112.007 81.7598 112.161 79.9118 112.161 76.7198H111.125L111.783 70.9658H107.247V71.8898H110.761ZM110.453 78.8898C109.431 79.1978 108.241 79.4358 106.883 79.6178L107.009 80.5838C108.297 80.3878 109.445 80.1358 110.453 79.7998V78.8898ZM126.749 70.3358V73.2618H123.081V78.4278H126.959V79.6878H121.401V80.6118H126.959V83.1738H127.967V80.6118H133.511V79.6878H127.967V78.4278H132.055V73.2618H127.715V72.2398H132.881V71.3578H127.715V70.3358H126.749ZM131.075 77.5458H124.061V76.2578H131.075V77.5458ZM124.061 75.4178V74.1438H131.075V75.4178H124.061ZM146.741 81.0598C147.217 81.0598 147.623 80.3458 147.959 78.9178L147.189 78.4698C146.993 79.5058 146.811 80.0378 146.643 80.0378C146.419 80.0378 146.153 79.7298 145.873 79.1138L145.747 78.7918C146.433 77.6438 146.965 76.2718 147.343 74.6478L146.545 74.2838C146.251 75.5158 145.873 76.5938 145.411 77.5458C145.313 77.1398 145.229 76.6918 145.159 76.1878C145.033 75.4318 144.949 74.4798 144.907 73.3178H147.651V72.4638H144.879C144.851 71.8058 144.851 71.0918 144.851 70.3218H143.899C143.899 71.0778 143.899 71.7918 143.927 72.4638H141.365V78.8478C141.365 79.0998 141.253 79.2818 141.057 79.3938L141.295 80.2898C142.205 79.8418 143.087 79.3238 143.955 78.7498L143.773 77.8678C143.241 78.2458 142.737 78.5678 142.261 78.8478V73.3178H143.969C144.025 74.6618 144.151 75.7958 144.319 76.7058C144.459 77.4058 144.613 78.0358 144.795 78.5958C144.249 79.4078 143.619 80.0798 142.891 80.6118L143.409 81.3958C144.067 80.9058 144.669 80.3038 145.201 79.6038C145.257 79.7298 145.327 79.8558 145.397 79.9818C145.831 80.6958 146.279 81.0598 146.741 81.0598ZM146.083 70.3498L145.411 70.7698C145.985 71.3438 146.433 71.8618 146.769 72.3378L147.441 71.8758C147.119 71.4418 146.671 70.9378 146.083 70.3498ZM135.625 72.1978V73.0938H137.795V74.9978H135.261V75.9218H137.963V80.7798C137.529 80.3738 137.137 79.8138 136.787 79.0998C136.871 78.4278 136.913 77.7278 136.941 77.0138L136.059 76.9018C135.989 78.9738 135.639 80.8498 134.995 82.5298L135.765 83.2158C136.101 82.3478 136.381 81.4238 136.577 80.4298C137.123 81.3258 137.767 81.9698 138.495 82.3338C139.321 82.7538 141.421 82.9638 144.795 82.9638H147.693L147.861 81.9558C147.133 81.9838 146.041 82.0118 144.557 82.0118C141.715 82.0118 139.895 81.8578 139.097 81.5498C139.041 81.5218 138.999 81.5078 138.943 81.4798V78.6938H140.455V77.7838H138.943V75.9218H140.833V74.9978H138.761V73.0938H140.735V72.1978H138.761V70.3218H137.795V72.1978H135.625ZM151.613 70.9098V75.4878H159.327V70.9098H151.613ZM158.319 74.5358H152.621V71.8618H158.319V74.5358ZM154.679 76.8738H149.751V82.9498H150.745V82.2358H153.699V82.9498H154.679V76.8738ZM150.745 81.2838V77.8398H153.699V81.2838H150.745ZM161.189 76.8738H156.121V82.9498H157.115V82.2358H160.181V82.9498H161.189V76.8738ZM157.115 81.2838V77.8398H160.181V81.2838H157.115ZM165.515 74.4098H170.037C169.953 74.8578 169.855 75.2918 169.743 75.7398H166.901V80.5558H167.867V76.6638H173.397V80.4998H174.363V75.7398H170.765C170.877 75.3198 170.975 74.8858 171.059 74.4098H175.651V73.4858H171.213C171.269 73.1218 171.325 72.7298 171.367 72.3378L170.359 72.2118C170.317 72.6318 170.261 73.0658 170.191 73.4858H165.515V72.1138C169.029 72.0578 172.207 71.7918 175.035 71.3158L174.531 70.4058C171.577 70.9378 168.245 71.2318 164.549 71.2598V75.6418C164.465 78.4698 163.947 80.6958 162.995 82.2918L163.695 83.0338C164.843 81.1858 165.445 78.7218 165.515 75.6418V74.4098ZM171.437 80.1778L170.933 80.9338C172.361 81.4798 173.761 82.2218 175.119 83.1458L175.679 82.2918C174.405 81.4658 172.991 80.7658 171.437 80.1778ZM170.401 77.2238C170.247 78.6378 169.785 79.7298 169.001 80.4858C168.217 81.2418 166.999 81.8158 165.347 82.2358L165.893 83.1598C167.671 82.6558 169.001 81.9558 169.869 81.0878C170.709 80.2198 171.213 78.9458 171.381 77.2938L170.401 77.2238Z" fill="white"/>
</svg>
