<?xml version="1.0" encoding="UTF-8"?>
<svg width="232px" height="143px" viewBox="0 0 232 143" version="1.1" xmlns="http://www.w3.org/2000/svg" xmlns:xlink="http://www.w3.org/1999/xlink">
    <title>pc-2</title>
    <g id="页面-1" stroke="none" stroke-width="1" fill="none" fill-rule="evenodd">
        <g id="pc-2" transform="translate(0.400000, 0.900000)" fill="#FFFFFF" fill-rule="nonzero">
            <g id="编组" transform="translate(0.700000, 0.000000)">
                <path d="M15.8,18.8 C16.9,13.4 17.7,9.1 18.1,6.2 L18.6,2.2 L18.7,0.7 C18.7,0.7 18.8,0.6 18.8,0.6 C18.8,0.6 19.1,0.7 19.5,0.9 L24.2,3.4 C24.5,3.6 24.7,3.8 24.7,4 C24.7,4.2 24.6,4.4 24.3,4.6 L22.9,5.6 C21.9,10.1 21,14.5 20.1,18.5 L31.8,18 L33,16.3 C33.3,15.9 33.4,15.8 33.5,15.8 C33.6,15.8 33.7,15.9 33.9,16 L37.9,19.7 C38.2,19.9 38.3,20.2 38.3,20.4 C38.3,20.6 38.1,20.8 37.9,21 L36.4,22.1 C36.1,25.8 35.6,30.8 34.9,37.1 C34.2,43.4 33.2,47.8 31.7,50 C30.2,52.2 28.8,53.6 27.5,54.1 C26.2,54.6 25.4,54.9 25,55 L24.3,55.1 C24.1,55.1 24,55.1 23.9,55.1 C23.9,55.1 23.8,54.8 23.7,54.4 L23.3,52.9 C23.2,52.4 22.8,51.7 22.3,51 C21.8,50.3 21.3,49.7 20.9,49.3 L19.4,48.1 C19.2,47.9 19.1,47.7 19.1,47.5 C19.1,47.3 19.2,47.2 19.3,47.1 C19.4,47 19.6,47 19.7,47 L22.1,47.9 C22.9,48.2 23.8,48.4 24.6,48.4 C25.4,48.4 26.3,48.1 27.2,47.5 C28.1,46.9 28.9,45 29.5,41.8 C30.1,38.6 30.6,35.3 31,32.1 C31.4,28.9 31.6,26.6 31.7,25.5 L32.2,19.6 L19.8,20.1 C18.4,25.4 16.6,30.9 14.4,36.6 C12.2,42.3 7.9,47.7 1.7,52.9 L0.5,53.9 C0.3,54.1 0.1,54.1 0.1,54 C0,53.9 0,53.8 0,53.6 C0,53.5 0.1,53.3 0.2,53.1 L1.4,51.7 C1.7,51.3 2.6,50.1 4.1,48.1 C5.5,46.1 7.2,43.2 9.2,39.4 C11.1,35.6 13.3,29.2 15.7,20.3 L1.5,20.9 C1.3,20.9 1.2,20.9 1,20.7 C0.9,20.5 0.8,20.3 0.8,20 C0.8,19.7 0.8,19.5 1,19.4 C1.2,19.3 1.3,19.2 1.6,19.2 L15.8,18.8 Z M5.4,3.4 C5.4,3.4 5.5,3.3 5.6,3.3 C5.7,3.3 6.1,3.5 6.9,4 C7.7,4.5 8.9,5.4 10.3,6.7 C11.8,8 12.5,9.6 12.5,11.4 C12.5,13.2 12.2,14.6 11.6,15.3 C11,16.1 10.4,16.4 9.8,16.4 C9.1,16.4 8.6,16.1 8.3,15.5 C8,14.9 7.8,14.4 7.7,13.9 C7.7,13.4 7.6,12.4 7.6,10.9 C7.6,9.4 7.4,8.2 7.1,7.2 C6.8,6.2 6.4,5.5 6,4.9 C5.6,4.3 5.3,3.9 5.3,3.7 C5.2,3.7 5.2,3.6 5.4,3.4 Z M19.5,25.7 C19.5,25.7 19.6,25.6 19.7,25.6 C19.8,25.6 19.9,25.6 19.9,25.7 C20,25.8 20.4,26 21.1,26.4 C21.8,26.8 22.9,27.7 24.4,29.1 C25.9,30.5 26.6,32.1 26.6,33.9 C26.6,35.7 26.3,37 25.7,37.8 C25.1,38.6 24.5,38.9 23.9,38.9 C23.2,38.9 22.7,38.6 22.3,38 C22,37.4 21.8,36.9 21.8,36.5 C21.8,36.1 21.7,35.1 21.7,33.5 C21.7,32 21.5,30.7 21.2,29.7 C20.9,28.7 20.5,27.9 20.1,27.4 C19.7,26.9 19.4,26.5 19.4,26.4 C19.4,26.3 19.4,26.2 19.4,26.1 C19.4,25.9 19.4,25.8 19.5,25.7 Z" id="形状"></path>
                <path d="M48.9,21.1 C46.8,25.4 45.3,28.2 44.3,29.6 L43.6,30.6 C43.4,30.8 43.3,30.9 43.2,30.8 C43.1,30.7 43.1,30.5 43.1,30.4 C43.1,30.2 43.1,30.1 43.2,29.9 L43.8,28.5 C44.9,25.9 46,22.3 47.2,17.6 C48.4,12.9 49.2,9.6 49.6,7.6 C50,5.6 50.3,3.9 50.5,2.6 L50.8,0.8 L50.9,0.1 C50.9,0.1 51,-2.84217094e-14 51,-2.84217094e-14 C51,-2.84217094e-14 51.2,0.1 51.6,0.3 L56.2,3 C56.4,3.1 56.5,3.3 56.5,3.5 C56.5,3.7 56.4,3.8 56.2,4 L55,4.8 C53.9,8.1 52.8,11.4 51.6,14.6 L53.4,15.7 C53.5,15.8 53.7,15.9 53.7,16 C53.8,16.1 53.8,16.2 53.8,16.3 C53.8,16.4 53.8,16.5 53.7,16.6 C53.6,16.8 53.5,16.9 53.4,17 L52.5,18 L52.5,47.5 L52.7,53.8 C52.6,54.1 52.5,54.4 52.4,54.6 C52.3,54.8 51.8,55 51.1,55.3 C50.4,55.5 49.9,55.6 49.5,55.6 C49.2,55.6 49,55.5 48.9,55.4 C48.8,55.3 48.7,55.1 48.7,54.7 L48.9,47.2 L48.9,25.9 L48.9,21.1 Z M63.7,30.5 C61.8,35.4 60.3,38.7 59.3,40.5 C58.3,42.3 57.3,44 56.2,45.7 L55.2,47.3 C55,47.6 54.9,47.7 54.8,47.6 C54.7,47.5 54.6,47.3 54.6,47.2 C54.6,47.1 54.6,46.9 54.7,46.7 L55.4,44.8 C55.7,44 56.2,42.6 56.8,40.6 C57.5,38.6 58,36.5 58.4,34.4 C58.8,32.3 59.2,30.8 59.3,29.8 L59.8,26.8 L59.9,26.1 C59.9,26.1 60.1,26.1 60.3,26.3 L64.5,29 C64.8,29.2 64.9,29.4 64.9,29.6 C64.9,29.8 64.8,30 64.5,30.2 L63.7,30.5 Z M76,15 L62.5,15 C62.4,15.3 62.3,15.5 62.2,15.6 L60.5,19.5 C59.4,21.9 58.3,24.1 57,26.3 L56,28.1 C55.8,28.4 55.7,28.5 55.6,28.4 C55.5,28.2 55.5,28.1 55.5,28.1 C55.5,28 55.5,27.9 55.6,27.8 L56.3,25.5 C58.1,19.9 59.3,15.1 59.9,11.2 C60.5,7.3 60.9,4.9 61,4 L61.2,2.1 L61.3,1.2 C61.3,1.2 61.4,1.1 61.4,1.1 C61.4,1.1 61.7,1.2 62.3,1.5 L66.5,3.7 C66.7,3.8 66.8,3.9 66.8,4 C66.8,4.1 66.9,4.2 66.9,4.3 C66.9,4.5 66.8,4.6 66.6,4.7 L65.5,5.6 C64.6,8.5 63.8,11.1 63,13.5 L75.9,13.5 L77.2,11.5 C77.3,11.3 77.4,11.2 77.5,11.2 C77.6,11.2 77.7,11.3 77.9,11.5 L81.7,16 C82,16.4 82.2,16.7 82.1,17 C82,17.3 82,17.5 81.8,17.7 C81.6,17.9 81.2,18 80.5,18 C79.8,18 79.1,18.3 78.2,18.9 C77.4,19.5 76.5,20.7 75.6,22.3 L74.7,23.9 C74.5,24.3 74.3,24.4 74.2,24.3 C74.1,24.1 74,24 74,23.9 C74,23.8 74,23.7 74,23.6 C74,23.5 74,23.5 74,23.4 L74.4,21.5 C74.8,20.7 75.2,18.6 76,15 Z M70.3,22.1 L70.3,50.5 C70.3,51 70.2,51.7 70,52.4 C69.8,53.1 69.3,53.7 68.4,54.1 C67.5,54.5 66.9,54.7 66.6,54.7 L65.9,54.8 C65.6,54.9 65.4,54.9 65.4,54.8 C65.3,54.7 65.3,54.6 65.2,54.5 L64.8,53.1 C64.6,52.5 64.3,51.8 63.8,51.2 C63.3,50.6 62.8,50.1 62.3,49.9 L60.6,49.1 C60.4,49 60.3,48.8 60.3,48.6 C60.3,48.5 60.3,48.3 60.4,48.3 C60.5,48.2 60.6,48.2 60.7,48.2 L62.3,48.4 C63.8,48.6 64.8,48.7 65.2,48.7 C65.7,48.7 66.1,48.5 66.3,48.2 C66.5,47.9 66.6,47.6 66.6,47.2 L66.6,24.7 L66.4,17.8 C66.5,17.8 66.5,17.7 66.6,17.7 C66.6,17.7 66.8,17.7 67.2,17.9 L71.6,19.5 C71.9,19.6 72,19.8 72,20 C72,20.2 71.9,20.4 71.7,20.6 L70.3,22.1 Z M72.5,28.6 C72.6,28.5 72.6,28.5 72.7,28.5 C72.7,28.5 73.1,28.7 73.7,29.1 C74.3,29.5 75.4,30.5 76.9,32 C78.5,33.5 79.7,35.4 80.5,37.6 C81.4,39.8 81.8,41.7 81.7,43.3 C81.7,44.4 81.4,45.4 81,46.2 C80.6,47 80,47.3 79.3,47.3 C78.6,47.3 78,46.9 77.6,46.1 C77.2,45.3 77,44 76.8,42.1 C76.6,40.2 76.3,38.4 75.9,36.8 C75.5,35.2 75.1,34.1 74.8,33.4 C74.5,32.7 74.1,31.9 73.6,31 C73.1,30.1 72.7,29.6 72.6,29.4 C72.4,29.2 72.4,29.1 72.4,28.9 C72.4,28.7 72.4,28.8 72.5,28.6 Z" id="形状"></path>
                <path d="M92.7,54.1 L93.5,53.1 C93.6,53 93.8,52.6 94.2,51.9 C94.6,51.2 94.8,50.8 94.9,50.5 C95,50.2 95.2,49.6 95.5,48.7 C95.7,47.8 95.8,47.2 95.7,46.8 C95.6,46.4 95.5,46.2 95.3,46.1 C95.2,46.1 95.1,46.1 94.8,46.3 C94.5,46.4 94.3,46.5 94.1,46.5 C93.3,46.5 92.7,46.1 92.3,45.4 C91.9,44.7 91.6,43.8 91.6,42.7 C91.6,41.6 91.9,40.6 92.4,39.8 C93,39 93.7,38.6 94.5,38.6 C95.6,38.6 96.4,39.2 96.9,40.2 C97.5,41.2 97.8,42.3 97.9,43.4 C98,44.5 98,45.6 97.8,46.7 C97.6,48.2 97.2,49.6 96.7,50.7 C96.2,51.9 95.7,52.7 95.2,53.2 C94.8,53.7 94.3,54.2 93.8,54.7 C93.3,55.2 93,55.4 92.7,55.3 C92.4,55.2 92.3,55.1 92.3,54.8 C92.5,54.6 92.6,54.4 92.7,54.1 Z" id="路径"></path>
                <path d="M136.4,18.7 L136.4,9.8 L136.3,3.1 C136.3,3 136.4,3 136.4,3 L136.8,3.2 L141.2,5 C141.3,5.1 141.4,5.2 141.5,5.3 C141.6,5.5 141.6,5.6 141.6,5.7 C141.6,5.8 141.5,6 141.3,6.2 L140.2,7.5 L140.2,18.8 L145.3,18.8 L145.3,8 L145.2,0.9 C145.3,0.8 145.3,0.7 145.4,0.7 L146,0.9 L150,2.3 C150,2.3 150.1,2.4 150.2,2.4 C150.3,2.5 150.3,2.5 150.3,2.5 C150.3,2.5 150.3,2.6 150.3,2.7 C150.3,2.8 150.2,3 150.1,3.2 L149.1,4.6 L149.1,18.8 L155.8,18.8 L155.8,7.7 L155.7,1.5 C155.8,1.4 155.9,1.3 155.9,1.2 L156.5,1.4 L160.6,2.9 C160.7,3 160.8,3 160.9,3.1 C161,3.2 161,3.3 161,3.4 C161,3.5 160.9,3.7 160.7,3.9 L159.7,5.2 L159.7,18.8 L163,18.8 L165.2,15 C165.3,14.8 165.4,14.7 165.5,14.7 C165.6,14.7 165.7,14.8 165.8,15 L169,19.4 C169.1,19.5 169.1,19.6 169.2,19.8 C169.3,20 169.3,20.1 169.3,20.1 C169.3,20.3 169.2,20.4 169,20.4 L164.1,20.4 L159.6,20.4 L159.6,36.6 L159.7,40.9 C159.6,41.1 159.6,41.4 159.4,41.6 C159.2,41.8 158.9,42.1 158.3,42.3 C157.7,42.5 157.1,42.6 156.7,42.6 C156.3,42.6 156.1,42.5 156,42.3 C155.9,42.1 155.9,41.9 155.9,41.5 L155.9,38.2 L149.2,38.2 L149.2,41.5 C149.2,41.8 149.1,42.1 149,42.3 C148.9,42.5 148.5,42.8 148,43 C147.5,43.2 146.9,43.3 146.5,43.3 C146,43.3 145.7,43.3 145.6,43.1 C145.5,42.9 145.4,42.8 145.3,42.4 L145.5,35.6 L145.5,20.2 L140.4,20.2 L140.4,50.1 L161.5,50 L163.7,46.3 C163.9,45.9 164.1,45.7 164.2,45.7 C164.3,45.7 164.4,45.9 164.7,46.3 L167.6,50.7 C167.6,50.8 167.7,50.9 167.8,51.2 C167.9,51.5 167.8,51.7 167.5,51.7 L140.4,51.7 L139,53.6 C138.6,54.2 138.4,54.4 138.3,54.4 C138.3,54.4 138.1,54.2 138,54 L135.6,50.7 C135.4,50.5 135.3,50.3 135.3,50.1 C135.3,49.9 135.4,49.7 135.6,49.6 L136.4,48.8 L136.4,20.1 L129.9,20.1 C129.5,20.1 129.4,19.8 129.4,19.3 C129.4,18.8 129.6,18.5 129.9,18.5 L136.4,18.5 L136.4,18.7 Z M155.7,36.5 L155.7,20.3 L149,20.3 L149,36.5 L155.7,36.5 Z" id="形状"></path>
                <path d="M181.8,20.8 L181.8,22.4 C181.8,23 181.6,23.5 181.1,23.9 C180.6,24.2 180.1,24.4 179.5,24.4 C179.1,24.4 178.9,24.4 178.7,24.2 C178.5,24 178.4,23.9 178.3,23.6 L178.5,16.7 L178.5,6.5 L178.4,1.1 C178.5,1 178.5,1 178.6,0.9 C178.7,0.8 178.9,1.1 179.5,1.5 L181.9,3.3 L200.8,3.3 L201.9,1.3 C202.1,1 202.2,0.9 202.2,0.9 C202.3,0.9 202.5,1 202.9,1.3 L205.6,3.6 C205.9,3.9 206.1,4.2 206.1,4.4 C206.1,4.6 206,4.8 205.8,5 L204.9,6.1 L204.9,17.5 L205.1,21.7 C205,22 205,22.3 204.8,22.6 C204.6,22.9 204.4,23.1 203.9,23.5 C203.4,23.8 202.8,24 202.1,24 C201.4,24 201.1,23.6 201.1,22.7 L201.1,20.9 L193.2,20.9 L194.5,22.2 C194.6,22.3 194.7,22.4 194.7,22.5 C194.8,22.6 194.8,22.7 194.8,22.8 C194.8,22.9 194.8,23 194.7,23.1 C194.6,23.2 194.6,23.2 194.5,23.2 L193.9,23.2 C195.6,25.9 198,28 201,29.5 C204,31 207.3,31.7 211.1,31.7 L212.1,31.7 C212.2,31.7 212.2,31.7 212.3,31.8 C212.4,31.9 212.4,32 212.4,32.1 C212.4,32.2 212.3,32.4 212.1,32.5 L211.6,32.9 C210.7,33.6 210.1,34.4 209.7,35.2 C209.3,36 209.1,36.6 209,37.1 C208.9,37.6 208.8,37.9 208.8,38 C208.8,38.1 208.7,38.2 208.6,38.1 C208.2,38.1 207.3,37.8 205.9,37.1 C204.5,36.4 202.9,35.5 201.2,34.3 C200.9,34.6 200.6,35 200.3,35.4 L200.3,49.5 L200.4,53.6 C200.1,54.8 199.5,55.5 198.5,55.5 C197.5,55.5 196.9,55.4 196.8,55.3 C196.7,55.2 196.5,54.9 196.5,54.7 L196.7,49.4 L196.7,37.2 L196.5,32.5 C196.6,32.4 196.9,32.5 197.2,32.6 L200.2,33.7 C198.9,32.6 197.9,31.5 197.2,30.6 C196.5,29.6 195.8,28.6 195.2,27.5 C194.6,26.4 194,25.1 193.4,23.6 C190.6,26.7 187.9,29.5 185.1,31.9 L189,33.5 C189.2,33.6 189.4,33.7 189.4,33.8 C189.5,33.9 189.5,34 189.5,34.1 C189.5,34.2 189.4,34.4 189.1,34.7 L188.5,35.3 C188.5,36.1 188.4,37.6 188.3,39.8 C188.2,41.9 187.9,43.8 187.5,45.3 C187.1,46.8 186.5,48.2 185.8,49.3 C185.1,50.5 183.9,51.5 182.5,52.6 C181,53.6 179.6,54.4 178.1,55 L176.9,55.5 C176.7,55.6 176.6,55.6 176.5,55.6 C176.4,55.6 176.3,55.5 176.3,55.5 C176.3,55.4 176.3,55.4 176.2,55.3 C176.2,55.3 176.2,55.2 176.3,55.1 C176.4,55 176.5,54.9 176.6,54.8 L177.9,53.9 C180.6,52 182.4,50.1 183.1,48.2 C183.8,46.2 184.3,44.6 184.4,43.3 C184.5,42 184.7,40.4 184.7,38.5 C184.8,36.6 184.8,35.6 184.8,35.4 L184.7,32.4 C181.9,34.6 178.8,36.7 175.4,38.5 L174,39.2 C173.8,39.3 173.7,39.3 173.5,39.3 C173.3,39.3 173.3,39.3 173.3,39.2 C173.3,39.1 173.3,39.1 173.3,39 L173.3,38.9 C173.3,38.8 173.4,38.6 173.6,38.4 L175.1,37.3 C176.6,36.2 177.6,35.4 178,35 C178.5,34.6 179.5,33.6 181,32 C182.5,30.4 184,28.7 185.5,26.7 C187,24.8 188,23.5 188.4,22.8 L189.2,21.5 L189.5,21 L181.8,21 L181.8,20.8 Z M189.6,11.3 L189.6,4.7 L181.9,4.7 L181.9,11.3 L189.6,11.3 Z M189.6,19.2 L189.6,12.9 L181.9,12.9 L181.9,19.2 L189.6,19.2 Z M201,11.3 L201,4.7 L193.5,4.7 C193.4,4.9 193.2,5.1 193.1,5.3 L193.1,11.3 L201,11.3 Z M201,19.2 L201,12.9 L193.1,12.9 L193.1,19.2 L201,19.2 Z" id="形状"></path>
                <path d="M224.8,40.3 C225.6,40.3 226.5,40.6 227.3,41.3 C228.1,41.9 228.8,42.9 229.3,44.1 C229.8,45.3 230,46.5 230,47.8 C230,49.2 229.7,50.4 229.3,51.6 C228.9,52.8 228.2,53.7 227.4,54.3 C226.6,54.9 225.7,55.3 224.8,55.3 C223.9,55.3 223,55 222.2,54.3 C221.4,53.6 220.7,52.7 220.3,51.6 C219.9,50.5 219.6,49.2 219.6,47.9 C219.6,46.5 219.8,45.3 220.3,44.1 C220.8,42.9 221.4,42 222.3,41.3 C223.1,40.7 223.9,40.3 224.8,40.3 Z M224.8,43.1 C224.2,43.1 223.7,43.3 223.2,43.7 C222.7,44.1 222.3,44.6 222,45.4 C221.7,46.2 221.6,46.9 221.6,47.7 C221.6,48.5 221.7,49.3 222,50 C222.3,50.7 222.7,51.3 223.2,51.7 C223.7,52.1 224.2,52.3 224.8,52.3 C225.4,52.3 225.9,52.1 226.4,51.7 C226.9,51.3 227.3,50.7 227.6,50 C227.9,49.3 228,48.5 228,47.7 C228,46.9 227.9,46.1 227.6,45.4 C227.3,44.7 226.9,44.1 226.4,43.7 C225.8,43.4 225.3,43.2 224.8,43.1 Z" id="形状"></path>
            </g>
            <g id="编组" transform="translate(92.500000, 81.100000)">
                <path d="M28.9,37.1 L27.7,48.9 L0,48.9 L0,47.3 C4,47.1 4.7,46.4 4.7,41.5 L4.7,8.1 C4.7,3.2 4,2.6 0,2.3 L0,0.7 L26.2,0.7 L27.2,11.9 L25.8,11.9 C24.4,4.7 23.1,2.8 17.4,2.8 L10.1,2.8 L10.1,23 L18.5,23 C20.9,23 21.6,21.7 21.8,17.2 L23.2,17.2 L23.2,30.9 L21.8,30.9 C21.7,26.4 20.9,25.1 18.5,25.1 L10.1,25.1 L10.1,44.1 C10.1,46.1 10.5,47 13.6,47 L18.8,47 C24.7,47 25.7,44.9 27.4,37.2 L28.9,37.2 L28.9,37.1 Z" id="路径"></path>
                <path d="M65,58 C65.4,58 65.8,58 66.2,57.9 L66.2,59.5 C64.8,59.9 62.7,60.1 61,60.1 C57.7,60.1 54.9,59.4 53,56 L52.1,54.3 C50.7,51.7 49.6,50.1 46.8,49.1 C39.5,47 33.8,38.7 33.8,24.8 C33.8,8.6 41.4,0 50.5,0 C59.6,0 67.2,8.6 67.2,24.8 C67.2,40.7 59.9,49.2 51,49.6 C53.8,50 56.5,51.5 58.1,53.8 L59.1,55.2 C60.4,57.1 62.4,58 65,58 Z M50.6,47.7 C57.9,47.7 61.5,39 61.5,24.8 C61.5,10.6 58,1.9 50.6,1.9 C43.2,1.9 39.7,10.6 39.7,24.8 C39.7,39 43.2,47.7 50.6,47.7 Z" id="形状"></path>
                <path d="M99.4,36.4 C99.4,43.5 93.8,49.6 86.2,49.6 C82.1,49.6 78.4,47.8 76.5,45.2 L74.6,50 L73.6,50 L73.6,33.5 L75,33.5 C76.2,42.4 79.4,47.8 85.9,47.8 C91.4,47.8 94.7,44.6 94.7,39.3 C94.7,33.8 91.9,30.9 87.3,28.1 L82,25 C77.1,22.1 73.9,18.5 73.9,12.2 C73.9,4.4 79.8,0.1 85.6,0.1 C89.7,0.1 92.9,2.4 94.5,4.9 L95.9,0 L96.9,0 L96.9,14.4 L95.6,14.4 C94.4,7.4 91.3,1.9 85.8,1.9 C81,1.9 78.2,5.2 78.2,10.3 C78.2,14.9 80.7,17.4 84.9,19.8 L91.2,23.5 C96.3,26.4 99.4,30.2 99.4,36.4 Z" id="路径"></path>
            </g>
            <g id="编组" transform="translate(-0.000000, 78.200000)">
                <path d="M12.4,18.8 C10.5,21.2 8.8,23.2 7.1,24.9 C5.5,26.6 4.1,27.8 3.1,28.6 C2.1,29.4 1.5,29.8 1.4,29.8 L0.6,30.5 C0.5,30.6 0.3,30.7 0.2,30.7 C0,30.7 0,30.7 0,30.6 C0,30.5 0,30.4 0,30.3 C0,30.2 0.1,30 0.2,29.8 L0.9,28.9 C2.6,26.9 4.3,24.6 6,22.1 C7.7,19.5 9.5,16.3 11.5,12.5 C13.4,8.6 14.8,5.6 15.6,3.3 L16.1,1.9 L16.4,0.7 C16.4,0.6 16.5,0.6 16.5,0.5 L17.5,1.2 L22,4 C22.2,4.1 22.3,4.3 22.4,4.4 C22.5,4.5 22.5,4.7 22.5,4.8 C22.5,5 22.4,5.1 22.1,5.3 L20.7,6.1 L20.5,6.5 C22.1,10.3 23.7,13.1 25.3,14.8 C26.9,16.5 28.2,17.9 29.4,18.8 C30.6,19.8 31.8,20.7 33.1,21.5 C34.4,22.3 35.8,23 37.2,23.5 L38.6,23.9 L39.6,24.2 C39.9,24.3 40,24.4 40,24.5 C40,24.6 40,24.7 40,24.7 C40,24.9 39.9,25 39.8,25.1 L39.2,25.5 C38.6,25.9 38.1,26.2 37.7,26.5 C37.3,26.8 37,27.2 36.6,27.8 C36.2,28.4 35.9,28.9 35.8,29.3 C35.7,29.8 35.6,30.1 35.5,30.2 C35.4,30.3 35.4,30.4 35.3,30.3 C34.9,30.3 33.6,29.4 31.3,27.6 C29,25.8 27.2,23.8 25.7,21.6 C24.3,19.4 23.1,17.3 22.2,15.2 C21.3,13.1 20.6,11.2 20.2,9.5 L19.7,7.5 C16.8,12.7 14.3,16.4 12.4,18.8 Z M21.8,28 C21.7,28.1 21.6,28.3 21.5,28.5 C21.4,28.7 21.2,29 20.8,29.3 L20.8,38.3 L25,38.3 L26.6,35.6 C26.9,35 27.1,34.7 27.2,34.7 C27.3,34.7 27.6,35 28.2,35.6 L31,38.7 C31.3,39.1 31.5,39.4 31.5,39.6 C31.5,39.8 31.3,39.9 30.9,39.9 L20.9,39.9 L20.9,50.9 L30.2,50.9 L32.3,47.7 L32.7,47.2 C32.9,46.9 33,46.7 33.1,46.7 C33.2,46.7 33.5,47 34.1,47.7 L37.2,51.2 C37.4,51.5 37.6,51.7 37.6,51.8 C37.6,51.9 37.7,52.1 37.7,52.3 C37.7,52.5 37.5,52.6 37,52.6 L34.8,52.6 L2,52.6 C1.6,52.6 1.5,52.3 1.5,51.8 C1.5,51.3 1.7,51 2,51 L16.8,51 L16.8,40 L7.7,40 L7.5,40 C7.4,39.9 7.2,39.9 7.2,39.8 C7.1,39.7 7.1,39.4 7.1,39 C7.1,38.6 7.3,38.3 7.5,38.3 L16.8,38.3 L16.8,28 L7.6,28 C7.3,28 7.1,27.7 7.1,27.2 C7.1,26.7 7.3,26.4 7.6,26.4 L22.8,26.4 L24.4,23.9 C24.8,23.3 25,23 25,23 C25.1,23 25.3,23.3 25.8,23.7 L28.6,26.7 C28.9,27 29,27.3 29,27.5 C29,27.8 28.8,27.9 28.4,27.9 L25.6,27.9 L21.8,27.9 L21.8,28 Z" id="形状"></path>
                <path d="M59.2,8.9 L60.3,6.8 C60.7,6 60.9,5.6 61,5.6 C61.1,5.6 61.4,5.9 61.9,6.6 L63.8,9 C64.2,9.5 64.4,9.9 64.4,10 C64.4,10.1 64.3,10.2 64.2,10.3 C64.1,10.4 64,10.5 63.8,10.5 L60,10.5 L60,10.6 L58,10.6 L61.4,13.2 C61.7,13.4 61.9,13.6 61.9,13.7 C61.9,13.8 62,13.9 62,14.1 C62,14.3 61.8,14.4 61.5,14.5 L60.3,15.1 C59,18 58,20.3 57.3,21.9 L59.8,21.9 L60.9,19.9 C61.2,19.3 61.4,18.9 61.5,18.9 C61.6,18.9 61.6,18.9 61.7,18.9 C61.8,19 62,19.2 62.3,19.6 L64.1,22 C64.6,22.6 64.8,23 64.8,23.1 C64.8,23.2 64.7,23.3 64.6,23.4 C64.5,23.5 64.3,23.6 64.1,23.6 L57.1,23.6 C57,23.7 56.9,23.8 56.9,23.9 C56.8,24 56.7,24.2 56.4,24.4 L56.4,30.7 L58.4,30.7 L59.8,28.3 C60,27.9 60.2,27.7 60.3,27.6 C60.4,27.6 60.7,27.9 61.2,28.4 L63.4,31.2 C63.6,31.4 63.7,31.6 63.7,31.8 C63.7,31.9 63.6,32 63.6,32.1 C63.5,32.2 63.4,32.2 63.3,32.2 L56.5,32.2 L56.5,48.2 C56.5,49.1 56.4,49.8 56.1,50.3 C55.8,50.8 55.5,51.2 55.1,51.5 C54.7,51.7 54.2,52 53.4,52.3 C52.7,52.6 52.2,52.8 51.9,52.7 C51.8,52.7 51.8,52.7 51.7,52.6 C51.7,52.6 51.6,52.5 51.6,52.4 C51.6,52.3 51.6,52 51.5,51.7 C51.5,51.4 51.4,50.9 51.3,50.2 C51.2,49.5 50.7,49 49.9,48.4 L48.7,47.6 C48.4,47.4 48.3,47.2 48.3,47 C48.3,46.7 48.5,46.6 48.8,46.6 L50.2,46.8 C50.5,46.9 50.8,46.9 51,46.9 C51.2,46.9 51.4,46.9 51.5,46.9 L52.2,46.9 C52.7,47 53,46.8 53,46.3 L53,32.1 L45.1,32.1 L44.8,32 C44.5,31.8 44.4,31.5 44.3,31 C44.3,30.6 44.5,30.4 44.9,30.4 L52.9,30.4 L52.9,23.2 L44.6,23.2 L44.4,23.1 C44.3,23 44.2,23 44.1,22.9 C44,22.8 44,22.6 44,22.1 C44,21.7 44.2,21.5 44.6,21.5 L55.6,21.5 C55.9,20.1 56.3,18.4 56.7,16.2 C57.1,14 57.3,12.6 57.4,11.8 L57.6,10.2 L45.3,10.2 C45,10.2 44.8,9.9 44.7,9.4 C44.6,8.9 44.8,8.6 45.3,8.6 L59.2,8.6 L59.2,8.9 Z M50.6,37.8 C49.9,39.5 49.4,40.7 49.1,41.3 C48.8,41.9 48.2,43.2 47.2,45 C46.2,46.8 45.6,48 45.3,48.4 L44.4,49.8 C44.2,50.1 44.1,50.2 44,50.2 C44,50.2 43.9,50.2 43.9,50.2 C43.9,50.2 43.8,50.1 43.8,49.9 C43.8,49.7 43.8,49.5 43.9,49.2 L44.4,47.9 C44.5,47.7 44.7,47 45,45.9 C45.3,44.8 45.5,44.1 45.6,43.8 C45.7,43.5 45.9,42.5 46.3,40.9 C46.7,39.3 46.9,38.1 47,37.3 L47.3,35.4 L47.4,34 C47.4,33.9 47.5,33.9 47.5,33.8 L48.1,34.2 L51.1,36.1 C51.4,36.3 51.6,36.5 51.6,36.6 C51.6,36.7 51.6,36.8 51.5,36.9 C51.4,37 51.4,37.1 51.3,37.1 L50.6,37.8 Z M48.5,14 L48.1,13 C48.1,13 48.1,12.9 48,12.7 C48,12.6 48,12.5 48,12.4 C48,12.2 48.1,12.1 48.3,12.1 C48.5,12.1 49.2,12.7 50.6,14 C52,15.3 52.6,16.8 52.6,18.6 C52.6,19.4 52.4,20.1 52,20.7 C51.6,21.4 51.1,21.7 50.5,21.7 C49.7,21.7 49.2,21.4 49.1,20.6 C49,19.8 49,19.2 49,18.6 C49,18 49,17.5 49,17.1 C48.9,15.7 48.8,14.7 48.5,14 Z M50.8,1.4 L50.3,0.7 C50.2,0.6 50.2,0.5 50.2,0.4 C50.2,0.3 50.2,0.2 50.2,0.2 C50.2,0.1 50.3,0 50.5,0 C50.6,0 51.1,0.1 51.8,0.4 C52.6,0.6 53.4,1.1 54.4,1.6 C55.4,2.2 55.9,3 56.1,4 C56.2,5 56.3,5.6 56.3,5.8 C56.3,6 56.3,6.2 56.2,6.5 C56.1,7 55.8,7.6 55.5,8.1 C55.2,8.7 54.6,8.9 54,8.9 C53.3,8.9 52.8,8.7 52.5,8.2 C52.2,7.7 52.1,7.1 52,6.5 L51.8,4.6 C51.7,4.1 51.7,3.7 51.5,3.2 C51.3,2.7 51.2,2.1 50.8,1.4 Z M77.1,20.8 L78.2,18.6 C78.6,17.8 78.8,17.3 78.9,17.3 C79,17.3 79,17.3 79.1,17.3 C79.2,17.4 79.5,17.7 80,18.4 L82.1,21.1 C82.3,21.4 82.4,21.6 82.4,21.7 C82.4,21.8 82.5,21.9 82.5,22 C82.5,22.3 82.4,22.5 82.1,22.5 L77.3,22.5 C77.1,22.8 77,23 76.9,23.1 C76.8,23.2 76.7,23.3 76.5,23.4 L76.5,49.3 L76.6,53.1 C76.4,53.8 76.1,54.3 75.5,54.6 C75,54.9 74.5,55 74,55 C73.4,55 73.1,54.9 73,54.6 C72.9,54.3 72.8,54.1 72.7,53.7 L72.9,47.5 L72.9,22.4 L68.7,22.4 C68.6,25 68.6,27.4 68.5,29.4 C68.4,31.4 68.3,33.2 68.1,34.9 C67.9,36.6 67.4,38.5 66.8,40.8 C66.1,43.1 65.1,45.1 63.8,46.9 C62.5,48.7 61.4,50 60.6,51 C59.8,51.9 59.2,52.5 58.7,52.9 L57.8,53.7 C57.6,53.8 57.5,53.9 57.4,53.9 C57.3,53.9 57.2,53.9 57.2,53.8 C57.2,53.7 57.2,53.7 57.1,53.6 C57,53.5 57.1,53.5 57.1,53.4 C57.1,53.3 57.2,53.2 57.4,53 L58.2,52.1 C60.1,49.8 61.6,47.4 62.7,44.8 C63.8,42.2 64.5,39.6 64.8,36.8 C65.1,34 65.3,31.4 65.4,29 C65.5,26.6 65.5,23.8 65.5,20.4 C65.5,18.2 65.5,16.1 65.4,14 C65.3,11.9 65.3,10.7 65.3,10.5 L65.3,9.3 L65,5 C65.1,5 65.1,4.9 65.1,4.9 C65.1,4.9 65.5,5.1 66.1,5.5 L69.1,7.7 C71.6,6.3 73.6,5 75.1,3.6 L76.1,2.7 L76.8,1.9 C76.9,1.9 77,1.9 77.1,1.9 L77.8,2.9 L80.2,5.7 C80.6,6.2 80.8,6.5 80.8,6.7 C80.8,6.9 80.6,7.1 80.4,7.1 L79.1,7.3 L73.4,8.5 L68.8,9.3 C68.8,11.5 68.8,13.2 68.8,14.3 L68.8,17.6 L68.8,20.9 L77.1,20.9 L77.1,20.8 Z M58.1,37.1 L57.7,36.4 C57.5,36 57.4,35.8 57.5,35.6 C57.5,35.4 57.6,35.3 57.6,35.3 C57.6,35.3 57.7,35.3 57.7,35.2 C58,35.2 58.6,35.6 59.6,36.5 C60.6,37.4 61.3,38.2 61.8,39.1 C62.3,40 62.5,40.9 62.5,41.8 C62.5,42.5 62.3,43.2 61.9,43.8 C61.5,44.4 61.1,44.7 60.5,44.7 C59.8,44.7 59.4,44.4 59.2,43.9 C59,43.3 58.9,42.7 58.9,42.1 L58.9,40.3 C58.9,39.1 58.6,38 58.1,37.1 Z" id="形状"></path>
            </g>
        </g>
    </g>
</svg>