<?xml version="1.0" encoding="UTF-8"?>
<svg width="388px" height="142px" viewBox="0 0 388 142" version="1.1" xmlns="http://www.w3.org/2000/svg" xmlns:xlink="http://www.w3.org/1999/xlink">
    <title>title-pc-eqb</title>
    <g id="页面-1" stroke="none" stroke-width="1" fill="none" fill-rule="evenodd">
        <g id="title-pc-eqb" fill="#FFFFFF" fill-rule="nonzero">
            <g id="编组" transform="translate(0.100000, 0.000000)">
                <path d="M15.8,18.9392305 C16.9,13.5392305 17.7,9.23923049 18.1,6.33923048 L18.6,2.33923048 L18.7,0.839230485 C18.7,0.839230485 18.8,0.739230485 18.8,0.739230485 C18.8,0.739230485 19.1,0.839230485 19.5,1.03923048 L24.2,3.53923048 C24.5,3.73923049 24.7,3.93923048 24.7,4.13923048 C24.7,4.33923048 24.6,4.53923048 24.3,4.73923049 L22.9,5.73923049 C21.9,10.2392305 21,14.6392305 20.1,18.6392305 L31.8,18.1392305 L33,16.4392305 C33.3,16.0392305 33.4,15.9392305 33.5,15.9392305 C33.6,15.9392305 33.7,16.0392305 33.9,16.1392305 L37.9,19.8392305 C38.2,20.0392305 38.3,20.3392305 38.3,20.5392305 C38.3,20.7392305 38.1,20.9392305 37.9,21.1392305 L36.4,22.2392305 C36.1,25.9392305 35.6,30.9392305 34.9,37.2392305 C34.2,43.6392305 33.2,47.9392305 31.7,50.1392305 C30.2,52.3392305 28.8,53.7392305 27.5,54.2392305 C26.2,54.7392305 25.4,55.0392305 25,55.1392305 L24.3,55.2392305 C24.1,55.2392305 24,55.2392305 23.9,55.2392305 C23.9,55.2392305 23.8,54.9392305 23.7,54.5392305 L23.3,53.0392305 C23.2,52.5392305 22.8,51.8392305 22.3,51.1392305 C21.8,50.3392305 21.3,49.8392305 20.9,49.4392305 L19.4,48.2392305 C19.2,48.0392305 19.1,47.8392305 19.1,47.6392305 C19.1,47.4392305 19.2,47.3392305 19.3,47.2392305 C19.4,47.1392305 19.6,47.1392305 19.7,47.1392305 L22.1,48.0392305 C22.9,48.3392305 23.8,48.5392305 24.6,48.5392305 C25.4,48.5392305 26.3,48.2392305 27.2,47.6392305 C28.1,47.0392305 28.9,45.1392305 29.5,41.9392305 C30.1,38.7392305 30.6,35.4392305 31,32.2392305 C31.4,28.9392305 31.6,26.7392305 31.7,25.6392305 L32.2,19.7392305 L19.8,20.2392305 C18.4,25.5392305 16.6,31.0392305 14.4,36.7392305 C12.1,42.4392305 7.9,47.8392305 1.7,53.0392305 L0.5,54.0392305 C0.3,54.2392305 0.1,54.2392305 0.1,54.1392305 C0,54.0392305 0,53.9392305 0,53.7392305 C0,53.6392305 0.1,53.4392305 0.2,53.2392305 L1.4,51.8392305 C1.7,51.4392305 2.6,50.2392305 4.1,48.2392305 C5.5,46.2392305 7.2,43.3392305 9.2,39.5392305 C11.1,35.7392305 13.3,29.3392305 15.7,20.4392305 L1.5,21.0392305 C1.3,21.0392305 1.2,21.0392305 1,20.8392305 C0.9,20.6392305 0.8,20.4392305 0.8,20.1392305 C0.8,19.8392305 0.8,19.6392305 1,19.5392305 C1.1,19.4392305 1.3,19.3392305 1.6,19.3392305 L15.8,18.9392305 Z M5.4,3.63923048 C5.4,3.63923048 5.5,3.53923048 5.6,3.53923048 C5.7,3.53923048 6.1,3.73923048 6.9,4.23923048 C7.7,4.73923048 8.9,5.63923048 10.3,6.93923048 C11.8,8.23923048 12.5,9.83923048 12.5,11.6392305 C12.5,13.4392305 12.2,14.8392305 11.6,15.5392305 C11,16.3392305 10.4,16.6392305 9.8,16.6392305 C9.1,16.6392305 8.6,16.3392305 8.3,15.7392305 C8,15.1392305 7.8,14.6392305 7.7,14.1392305 C7.7,13.6392305 7.6,12.6392305 7.6,11.1392305 C7.6,9.63923048 7.4,8.43923048 7.1,7.43923048 C6.8,6.53923048 6.4,5.73923048 6,5.13923048 C5.6,4.53923048 5.3,4.13923048 5.3,3.93923048 C5.3,3.73923048 5.2,3.83923048 5.4,3.63923048 Z M19.5,25.9392305 C19.5,25.9392305 19.6,25.8392305 19.7,25.8392305 C19.8,25.8392305 19.9,25.8392305 19.9,25.9392305 C20,26.0392305 20.4,26.2392305 21.1,26.6392305 C21.8,27.0392305 22.9,27.9392305 24.4,29.3392305 C25.9,30.7392305 26.6,32.3392305 26.6,34.1392305 C26.6,35.9392305 26.3,37.2392305 25.7,38.0392305 C25.1,38.8392305 24.5,39.1392305 23.9,39.1392305 C23.2,39.1392305 22.7,38.8392305 22.3,38.2392305 C22,37.6392305 21.8,37.1392305 21.8,36.7392305 C21.8,36.3392305 21.7,35.3392305 21.7,33.7392305 C21.7,32.2392305 21.5,30.9392305 21.2,29.9392305 C20.9,28.9392305 20.5,28.1392305 20.1,27.6392305 C19.7,27.1392305 19.5,26.7392305 19.4,26.6392305 C19.4,26.5392305 19.4,26.4392305 19.4,26.3392305 C19.4,26.1392305 19.4,26.0392305 19.5,25.9392305 Z" id="形状"></path>
                <path d="M48.9,21.3392305 C46.8,25.6392305 45.3,28.4392305 44.3,29.8392305 L43.6,30.8392305 C43.4,31.0392305 43.3,31.1392305 43.2,31.0392305 C43.1,30.9392305 43.1,30.7392305 43.1,30.6392305 C43.1,30.4392305 43.1,30.3392305 43.2,30.1392305 L43.8,28.7392305 C44.9,26.1392305 46,22.5392305 47.2,17.8392305 C48.4,13.1392305 49.2,9.83923048 49.6,7.83923048 C50,5.83923048 50.3,4.13923048 50.5,2.83923048 L50.8,1.03923048 L50.9,0.339230485 C50.9,0.339230485 51,0.239230485 51,0.239230485 C51,0.239230485 51.2,0.339230485 51.6,0.539230485 L56.2,3.23923049 C56.4,3.33923048 56.5,3.53923048 56.5,3.73923049 C56.5,3.93923048 56.4,4.03923048 56.2,4.23923049 L55,5.03923048 C53.9,8.33923048 52.8,11.6392305 51.6,14.8392305 L53.4,15.9392305 C53.5,16.0392305 53.7,16.1392305 53.7,16.2392305 C53.8,16.3392305 53.8,16.4392305 53.8,16.5392305 C53.8,16.6392305 53.8,16.7392305 53.7,16.8392305 C53.6,17.0392305 53.5,17.1392305 53.4,17.2392305 L52.5,18.2392305 L52.5,47.7392305 L52.7,54.0392305 C52.6,54.3392305 52.5,54.6392305 52.4,54.8392305 C52.3,55.0392305 51.8,55.2392305 51.1,55.5392305 C50.4,55.7392305 49.8,55.8392305 49.5,55.8392305 C49.2,55.8392305 49,55.7392305 48.9,55.6392305 C48.8,55.5392305 48.7,55.3392305 48.7,54.9392305 L48.9,47.4392305 L48.9,26.1392305 L48.9,21.3392305 Z M63.6,30.7392305 C61.7,35.6392305 60.2,38.9392305 59.2,40.7392305 C58.2,42.5392305 57.2,44.2392305 56.1,45.9392305 L55.1,47.5392305 C54.9,47.8392305 54.8,47.9392305 54.7,47.8392305 C54.6,47.7392305 54.5,47.5392305 54.5,47.4392305 C54.5,47.3392305 54.5,47.1392305 54.6,46.9392305 L55.3,45.0392305 C55.6,44.2392305 56.1,42.8392305 56.7,40.8392305 C57.3,38.8392305 57.9,36.7392305 58.3,34.6392305 C58.7,32.5392305 59.1,31.0392305 59.2,30.0392305 L59.7,27.0392305 L59.8,26.3392305 C59.8,26.3392305 60,26.3392305 60.2,26.5392305 L64.4,29.2392305 C64.7,29.4392305 64.8,29.6392305 64.8,29.8392305 C64.8,30.0392305 64.7,30.2392305 64.4,30.4392305 L63.6,30.7392305 Z M75.9,15.2392305 L62.4,15.2392305 C62.3,15.5392305 62.2,15.7392305 62.1,15.8392305 L60.4,19.7392305 C59.3,22.1392305 58.2,24.3392305 56.9,26.5392305 L55.9,28.3392305 C55.7,28.6392305 55.6,28.7392305 55.5,28.6392305 C55.4,28.4392305 55.4,28.3392305 55.4,28.3392305 C55.4,28.2392305 55.4,28.1392305 55.5,28.0392305 L56.2,25.7392305 C58,20.1392305 59.2,15.3392305 59.8,11.4392305 C60.4,7.53923048 60.8,5.13923048 60.9,4.23923048 L61.1,2.33923048 L61.2,1.43923048 C61.2,1.43923048 61.3,1.33923048 61.3,1.33923048 C61.3,1.33923048 61.6,1.43923048 62.2,1.73923048 L66.4,3.93923048 C66.6,4.03923048 66.7,4.13923048 66.7,4.23923048 C66.8,4.33923048 66.8,4.43923048 66.8,4.53923048 C66.8,4.73923048 66.7,4.83923048 66.5,4.93923048 L65.4,5.83923048 C64.5,8.73923048 63.7,11.3392305 62.9,13.7392305 L75.8,13.7392305 L77.1,11.7392305 C77.2,11.5392305 77.3,11.4392305 77.4,11.4392305 C77.5,11.4392305 77.6,11.5392305 77.8,11.7392305 L81.6,16.2392305 C81.9,16.6392305 82.1,16.9392305 82,17.2392305 C82,17.5392305 81.9,17.7392305 81.7,17.9392305 C81.5,18.1392305 81.1,18.2392305 80.4,18.2392305 C79.7,18.2392305 79,18.5392305 78.1,19.1392305 C77.3,19.7392305 76.4,20.9392305 75.5,22.5392305 L74.6,24.1392305 C74.4,24.5392305 74.2,24.6392305 74.1,24.5392305 C74,24.3392305 73.9,24.2392305 73.9,24.1392305 C73.9,24.0392305 73.9,23.9392305 73.9,23.8392305 C73.9,23.7392305 73.9,23.7392305 73.9,23.6392305 L74.3,21.7392305 C74.8,20.9392305 75.2,18.7392305 75.9,15.2392305 Z M70.3,22.2392305 L70.3,50.6392305 C70.3,51.1392305 70.2,51.8392305 70,52.5392305 C69.8,53.2392305 69.3,53.8392305 68.4,54.2392305 C67.5,54.6392305 66.9,54.8392305 66.6,54.8392305 L65.9,54.9392305 C65.6,55.0392305 65.4,55.0392305 65.4,54.9392305 C65.3,54.9392305 65.3,54.7392305 65.2,54.6392305 L64.8,53.2392305 C64.6,52.6392305 64.3,51.9392305 63.8,51.3392305 C63.3,50.7392305 62.8,50.2392305 62.3,50.0392305 L60.6,49.2392305 C60.4,49.1392305 60.3,48.9392305 60.3,48.7392305 C60.3,48.6392305 60.3,48.4392305 60.4,48.4392305 C60.5,48.3392305 60.6,48.3392305 60.7,48.3392305 L62.3,48.5392305 C63.8,48.7392305 64.8,48.8392305 65.2,48.8392305 C65.7,48.8392305 66.1,48.6392305 66.3,48.3392305 C66.5,48.0392305 66.6,47.7392305 66.6,47.3392305 L66.6,24.8392305 L66.4,17.9392305 C66.5,17.9392305 66.5,17.8392305 66.6,17.8392305 C66.6,17.8392305 66.8,17.8392305 67.2,18.0392305 L71.6,19.6392305 C71.9,19.7392305 72,19.9392305 72,20.1392305 C72,20.3392305 71.9,20.5392305 71.7,20.7392305 L70.3,22.2392305 Z M72.5,28.8392305 C72.6,28.7392305 72.6,28.7392305 72.7,28.7392305 C72.7,28.7392305 73.1,28.9392305 73.7,29.3392305 C74.3,29.7392305 75.4,30.7392305 76.9,32.2392305 C78.5,33.7392305 79.7,35.6392305 80.5,37.8392305 C81.4,40.0392305 81.8,41.9392305 81.7,43.5392305 C81.7,44.6392305 81.4,45.6392305 81,46.4392305 C80.6,47.2392305 80,47.5392305 79.3,47.5392305 C78.6,47.5392305 78,47.1392305 77.6,46.3392305 C77.2,45.6392305 77,44.2392305 76.8,42.3392305 C76.6,40.4392305 76.3,38.6392305 75.9,37.0392305 C75.5,35.4392305 75.1,34.3392305 74.8,33.6392305 C74.5,32.9392305 74.1,32.1392305 73.6,31.2392305 C73.1,30.3392305 72.7,29.8392305 72.6,29.6392305 C72.4,29.4392305 72.4,29.3392305 72.4,29.1392305 C72.3,29.1392305 72.4,29.0392305 72.5,28.8392305 Z" id="形状"></path>
                <path d="M93.1,54.5 L93.9,53.5 C94,53.4 94.2,53 94.6,52.3 C95,51.7 95.2,51.2 95.3,50.9 C95.4,50.6 95.6,50 95.9,49.1 C96.1,48.2 96.2,47.6 96.1,47.2 C96,46.8 95.9,46.6 95.7,46.5 C95.6,46.5 95.5,46.5 95.2,46.7 C94.9,46.8 94.7,46.9 94.5,46.9 C93.7,46.9 93.1,46.5 92.7,45.8 C92.2,45.1 92,44.2 92,43.1 C92,42 92.3,41 92.8,40.2 C93.4,39.4 94.1,39 94.9,39 C96,39 96.8,39.6 97.3,40.6 C97.9,41.6 98.2,42.7 98.3,43.8 C98.4,44.9 98.4,46 98.2,47.1 C98,48.6 97.6,50 97.1,51.1 C96.6,52.2 96.1,53.1 95.6,53.6 C95.2,54.1 94.7,54.6 94.2,55.1 C93.7,55.6 93.4,55.8 93.1,55.7 C92.8,55.6 92.7,55.5 92.7,55.2 C92.8,55 92.9,54.8 93.1,54.5 Z" id="路径"></path>
                <g id="。备份-3" transform="translate(267.000000, 39.000000)">
                    <path d="M5.06835938,0 C5.88867188,0 6.69921875,0.307617188 7.5,0.922851562 C8.30078125,1.53808594 8.93554688,2.42675781 9.40429688,3.58886719 C9.87304688,4.75097656 10.1074219,5.95703125 10.1074219,7.20703125 C10.0878906,8.515625 9.85839844,9.7265625 9.41894531,10.8398438 C8.97949219,11.953125 8.36425781,12.8320312 7.57324219,13.4765625 C6.78222656,14.1210938 5.94726562,14.4335938 5.06835938,14.4140625 C4.15039062,14.4140625 3.29589844,14.0917969 2.50488281,13.4472656 C1.71386719,12.8027344 1.09863281,11.9335938 0.659179688,10.8398438 C0.219726562,9.74609375 0,8.54492188 0,7.23632812 C0,5.92773438 0.224609375,4.71679688 0.673828125,3.60351562 C1.14257812,2.43164062 1.78222656,1.54296875 2.59277344,0.9375 C3.40332031,0.33203125 4.22851562,0.01953125 5.06835938,0 Z M5.0390625,2.72460938 C4.51171875,2.72460938 3.99414062,2.91015625 3.48632812,3.28125 C2.97851562,3.65234375 2.578125,4.19921875 2.28515625,4.921875 C1.9921875,5.64453125 1.85546875,6.39648438 1.875,7.17773438 C1.875,7.97851562 2.01660156,8.72558594 2.29980469,9.41894531 C2.58300781,10.1123047 2.96386719,10.6591797 3.44238281,11.0595703 C3.92089844,11.4599609 4.453125,11.6503906 5.0390625,11.6308594 C5.60546875,11.6308594 6.12792969,11.4355469 6.60644531,11.0449219 C7.08496094,10.6542969 7.4609375,10.1171875 7.734375,9.43359375 C8.0078125,8.75 8.14453125,8.00292969 8.14453125,7.19238281 C8.14453125,6.38183594 8.0078125,5.63476562 7.734375,4.95117188 C7.44140625,4.22851562 7.04589844,3.68164062 6.54785156,3.31054688 C6.04980469,2.93945312 5.546875,2.74414062 5.0390625,2.72460938 Z" id="。"></path>
                </g>
                <path d="M145.3,9.33923048 L146.4,7.23923048 C146.8,6.43923048 147,6.03923048 147.1,6.03923048 C147.2,6.03923048 147.5,6.33923048 148,7.03923048 L149.9,9.43923048 C150.3,9.93923048 150.5,10.3392305 150.5,10.4392305 C150.5,10.5392305 150.4,10.6392305 150.3,10.7392305 C150.2,10.8392305 150.1,10.9392305 149.9,10.9392305 L146.1,10.9392305 L146.1,11.0392305 L144.1,11.0392305 L147.5,13.6392305 C147.8,13.8392305 148,14.0392305 148,14.1392305 C148,14.2392305 148.1,14.3392305 148.1,14.5392305 C148.1,14.7392305 147.9,14.8392305 147.6,14.9392305 L146.4,15.5392305 C145.1,18.4392305 144.1,20.7392305 143.4,22.3392305 L145.9,22.3392305 L147,20.3392305 C147.3,19.7392305 147.5,19.3392305 147.6,19.3392305 C147.7,19.3392305 147.7,19.3392305 147.8,19.3392305 C147.9,19.4392305 148.1,19.6392305 148.4,20.0392305 L150.2,22.4392305 C150.7,23.0392305 150.9,23.4392305 150.9,23.5392305 C150.9,23.6392305 150.8,23.7392305 150.7,23.8392305 C150.6,23.9392305 150.4,24.0392305 150.2,24.0392305 L143.2,24.0392305 C143.1,24.1392305 143,24.2392305 143,24.3392305 C142.9,24.4392305 142.8,24.6392305 142.5,24.8392305 L142.5,31.1392305 L144.4,31.1392305 L145.8,28.7392305 C146,28.3392305 146.2,28.1392305 146.3,28.0392305 C146.4,28.0392305 146.7,28.3392305 147.2,28.8392305 L149.4,31.6392305 C149.6,31.8392305 149.7,32.0392305 149.7,32.2392305 C149.7,32.3392305 149.6,32.4392305 149.6,32.5392305 C149.5,32.6392305 149.4,32.6392305 149.3,32.6392305 L142.5,32.6392305 L142.5,48.6392305 C142.5,49.5392305 142.4,50.2392305 142.1,50.7392305 C141.8,51.2392305 141.5,51.6392305 141.1,51.9392305 C140.7,52.1392305 140.2,52.4392305 139.4,52.7392305 C138.7,53.0392305 138.2,53.2392305 137.9,53.1392305 C137.8,53.1392305 137.8,53.1392305 137.7,53.0392305 C137.7,53.0392305 137.6,52.9392305 137.6,52.8392305 C137.6,52.7392305 137.6,52.4392305 137.5,52.1392305 C137.5,51.8392305 137.4,51.3392305 137.3,50.6392305 C137.2,49.9392305 136.7,49.4392305 135.9,48.8392305 L134.7,48.0392305 C134.4,47.8392305 134.3,47.6392305 134.3,47.4392305 C134.3,47.1392305 134.5,47.0392305 134.8,47.0392305 L136.2,47.2392305 C136.5,47.3392305 136.8,47.3392305 137,47.3392305 C137.2,47.3392305 137.4,47.3392305 137.5,47.3392305 L138.2,47.3392305 C138.7,47.4392305 139,47.2392305 139,46.7392305 L139,32.5392305 L131.1,32.5392305 L130.8,32.4392305 C130.5,32.2392305 130.4,31.9392305 130.3,31.4392305 C130.2,30.9392305 130.5,30.8392305 130.9,30.8392305 L138.9,30.8392305 L138.9,23.6392305 L130.5,23.6392305 L130.3,23.5392305 C130.2,23.4392305 130.1,23.4392305 130,23.3392305 C129.9,23.2392305 129.9,23.0392305 129.9,22.5392305 C129.9,22.1392305 130.1,21.9392305 130.5,21.9392305 L141.7,21.9392305 C142,20.5392305 142.4,18.8392305 142.8,16.6392305 C143.2,14.4392305 143.4,13.0392305 143.5,12.2392305 L143.7,10.6392305 L131.4,10.6392305 C131.1,10.6392305 130.9,10.3392305 130.8,9.83923048 C130.7,9.23923048 130.9,9.03923048 131.4,9.03923048 L145.3,9.03923048 L145.3,9.33923048 Z M136.7,38.2392305 C136,39.9392305 135.5,41.1392305 135.2,41.7392305 C134.9,42.3392305 134.3,43.6392305 133.3,45.4392305 C132.3,47.2392305 131.7,48.4392305 131.4,48.8392305 L130.5,50.2392305 C130.3,50.5392305 130.2,50.6392305 130.1,50.6392305 C130.1,50.6392305 130,50.6392305 130,50.6392305 C130,50.6392305 129.9,50.5392305 129.9,50.3392305 C129.9,50.1392305 129.9,49.9392305 130,49.6392305 L130.5,48.3392305 C130.6,48.1392305 130.8,47.4392305 131.1,46.3392305 C131.4,45.2392305 131.6,44.5392305 131.7,44.2392305 C131.8,43.9392305 132,42.9392305 132.4,41.3392305 C132.8,39.7392305 133,38.5392305 133.1,37.7392305 L133.4,35.8392305 L133.5,34.4392305 C133.5,34.3392305 133.6,34.3392305 133.6,34.2392305 L134.2,34.6392305 L137.2,36.5392305 C137.5,36.7392305 137.7,36.9392305 137.7,37.0392305 C137.7,37.1392305 137.7,37.2392305 137.6,37.3392305 C137.5,37.4392305 137.5,37.5392305 137.4,37.5392305 L136.7,38.2392305 Z M134.6,14.4392305 L134.2,13.4392305 C134.2,13.4392305 134.2,13.3392305 134.1,13.1392305 C134.1,13.0392305 134.1,12.9392305 134.1,12.8392305 C134.1,12.6392305 134.2,12.5392305 134.4,12.5392305 C134.6,12.5392305 135.3,13.1392305 136.7,14.4392305 C138.1,15.6392305 138.7,17.2392305 138.7,19.0392305 C138.7,19.8392305 138.5,20.5392305 138.1,21.1392305 C137.7,21.8392305 137.2,22.1392305 136.6,22.1392305 C135.8,22.1392305 135.3,21.8392305 135.2,21.0392305 C135.1,20.2392305 135.1,19.6392305 135.1,19.0392305 C135.1,18.4392305 135.1,17.9392305 135.1,17.5392305 C135,16.1392305 134.9,15.0392305 134.6,14.4392305 Z M136.9,1.83923048 L136.4,1.13923048 C136.3,1.03923048 136.3,0.939230485 136.3,0.839230485 C136.3,0.739230485 136.3,0.639230485 136.3,0.639230485 C136.3,0.539230485 136.4,0.439230485 136.6,0.439230485 C136.7,0.439230485 137.2,0.539230485 137.9,0.839230485 C138.7,1.03923048 139.5,1.53923048 140.5,2.03923048 C141.5,2.63923048 142,3.43923049 142.2,4.43923049 C142.3,5.43923049 142.4,6.03923048 142.4,6.23923048 C142.4,6.43923049 142.4,6.63923048 142.3,6.93923049 C142.2,7.43923049 141.9,8.03923048 141.6,8.53923048 C141.3,9.13923048 140.7,9.33923048 140.1,9.33923048 C139.4,9.33923048 138.9,9.13923048 138.6,8.63923048 C138.3,8.13923048 138.2,7.53923048 138.1,6.93923049 L137.9,5.03923048 C137.8,4.53923048 137.8,4.13923048 137.6,3.63923048 C137.4,3.13923048 137.3,2.53923048 136.9,1.83923048 Z M163.2,21.2392305 L164.3,19.0392305 C164.7,18.2392305 164.9,17.7392305 165,17.7392305 C165.1,17.6392305 165.1,17.7392305 165.2,17.7392305 C165.3,17.8392305 165.6,18.1392305 166.1,18.8392305 L168.2,21.5392305 C168.4,21.8392305 168.5,22.0392305 168.5,22.1392305 C168.5,22.2392305 168.6,22.3392305 168.6,22.4392305 C168.6,22.7392305 168.5,22.9392305 168.2,22.9392305 L163.4,22.9392305 C163.2,23.2392305 163.1,23.4392305 163,23.5392305 C162.9,23.6392305 162.8,23.7392305 162.6,23.8392305 L162.6,49.7392305 L162.7,53.5392305 C162.5,54.2392305 162.2,54.7392305 161.6,55.0392305 C161.1,55.3392305 160.6,55.4392305 160.1,55.4392305 C159.5,55.4392305 159.2,55.3392305 159.1,55.0392305 C159,54.7392305 158.9,54.5392305 158.8,54.1392305 L159,47.9392305 L159,22.8392305 L154.8,22.8392305 C154.7,25.4392305 154.7,27.8392305 154.6,29.8392305 C154.5,31.8392305 154.4,33.6392305 154.2,35.3392305 C154,37.0392305 153.5,38.9392305 152.9,41.2392305 C152.2,43.5392305 151.2,45.5392305 149.9,47.3392305 C148.6,49.1392305 147.5,50.4392305 146.7,51.4392305 C145.9,52.3392305 145.3,52.9392305 144.8,53.3392305 L143.9,54.1392305 C143.7,54.2392305 143.6,54.3392305 143.5,54.3392305 C143.4,54.3392305 143.3,54.3392305 143.3,54.2392305 C143.3,54.1392305 143.3,54.1392305 143.2,54.0392305 C143.2,53.9392305 143.2,53.9392305 143.2,53.8392305 C143.2,53.7392305 143.3,53.6392305 143.5,53.4392305 L144.3,52.5392305 C146.2,50.2392305 147.7,47.8392305 148.8,45.2392305 C149.9,42.6392305 150.6,40.0392305 150.9,37.2392305 C151.2,34.4392305 151.4,31.8392305 151.5,29.4392305 C151.6,27.0392305 151.6,24.2392305 151.6,20.8392305 C151.6,18.6392305 151.6,16.5392305 151.5,14.4392305 C151.4,12.3392305 151.4,11.1392305 151.4,10.9392305 L151.4,9.73923048 L151.1,5.43923048 C151.2,5.43923048 151.2,5.33923048 151.2,5.33923048 C151.2,5.33923048 151.6,5.53923048 152.2,5.93923048 L155.2,8.13923048 C157.7,6.73923048 159.7,5.43923048 161.2,4.03923048 L162.2,3.13923048 L162.9,2.33923048 C163,2.33923048 163.1,2.33923048 163.2,2.33923048 L163.9,3.33923048 L166.3,6.13923048 C166.7,6.63923048 166.9,6.93923048 166.9,7.13923048 C166.9,7.33923048 166.7,7.53923048 166.5,7.53923048 L165.2,7.73923048 L159.5,8.93923048 L154.9,9.73923048 C154.9,11.9392305 154.9,13.6392305 154.9,14.7392305 L154.9,18.0392305 L154.9,21.3392305 L163.2,21.3392305 L163.2,21.2392305 Z M144.2,37.4392305 L143.8,36.7392305 C143.6,36.3392305 143.5,36.1392305 143.6,35.9392305 C143.6,35.7392305 143.7,35.6392305 143.7,35.6392305 C143.7,35.6392305 143.8,35.6392305 143.8,35.5392305 C144.1,35.5392305 144.7,35.9392305 145.7,36.8392305 C146.7,37.7392305 147.4,38.5392305 147.9,39.4392305 C148.4,40.3392305 148.6,41.2392305 148.6,42.1392305 C148.6,42.8392305 148.4,43.5392305 148,44.1392305 C147.6,44.7392305 147.2,45.0392305 146.6,45.0392305 C145.9,45.0392305 145.5,44.7392305 145.3,44.2392305 C145.1,43.6392305 145,43.0392305 145,42.4392305 L145,40.6392305 C145,39.5392305 144.7,38.4392305 144.2,37.4392305 Z" id="形状"></path>
                <path d="M174.1,36.7392305 L173.3,36.3392305 C173.1,36.2392305 173,36.0392305 173,35.8392305 C173,35.5392305 173.1,35.3392305 173.3,35.3392305 L173.8,35.3392305 L174.9,35.3392305 C175.8,35.3392305 176.4,35.1392305 176.7,34.6392305 C177.1,34.1392305 178,31.9392305 179.4,28.1392305 C180.9,24.3392305 182,21.3392305 182.8,19.1392305 C183.6,16.9392305 184.4,14.8392305 185,12.7392305 L185.7,10.7392305 C185.8,10.2392305 186,10.0392305 186.2,10.0392305 C186.4,10.0392305 186.5,10.2392305 186.5,10.4392305 C186.5,10.7392305 186.5,10.8392305 186.5,10.9392305 L186,13.3392305 C185.9,13.9392305 185.6,15.1392305 185.1,16.9392305 C184.6,18.8392305 183.8,22.1392305 182.6,27.1392305 C181.4,32.0392305 180.7,34.9392305 180.6,35.7392305 C180.5,36.5392305 180.4,37.1392305 180.3,37.4392305 C180.3,37.8392305 180.3,38.1392305 180.3,38.4392305 C180.3,39.3392305 180.4,40.2392305 180.5,41.1392305 C180.7,42.0392305 181,43.1392305 181.4,44.4392305 C181.8,45.7392305 182,46.6392305 182,47.2392305 C182,48.0392305 181.7,48.8392305 181.2,49.7392305 C180.7,50.5392305 180,50.9392305 179.1,50.9392305 C178.9,50.9392305 178.6,50.8392305 178.3,50.7392305 C178,50.6392305 177.7,50.4392305 177.5,50.2392305 C177.3,49.9392305 177,49.6392305 176.9,49.1392305 C176.7,48.6392305 176.6,48.0392305 176.6,47.1392305 L176.7,42.7392305 C176.7,41.0392305 176.4,39.7392305 176,38.7392305 C175.5,37.7392305 174.9,37.1392305 174.1,36.7392305 Z M175.2,6.63923048 C175.2,6.63923048 175.2,6.53923048 175.1,6.43923048 C175.1,6.33923048 175.2,6.23923048 175.6,6.23923048 C175.7,6.23923048 175.9,6.23923048 176.1,6.33923048 L177,6.53923048 C177.6,6.73923048 178.7,7.33923048 180.2,8.33923048 C181.7,9.33923048 182.5,10.6392305 182.5,12.3392305 C182.5,14.0392305 182.2,15.2392305 181.7,15.8392305 C181.2,16.4392305 180.6,16.8392305 180,16.8392305 C178.9,16.8392305 178.2,15.9392305 177.9,14.2392305 L177.7,11.7392305 C177.6,10.9392305 177.5,10.3392305 177.3,9.73923048 C177.1,9.23923048 176.9,8.83923048 176.7,8.43923048 C176.5,8.13923048 176.2,7.73923048 175.9,7.33923048 L175.4,6.73923048 L175.2,6.63923048 Z M197.6,19.6392305 L197.4,23.6392305 C197.6,24.7392305 197.9,26.1392305 198.3,28.0392305 C198.7,29.9392305 199.4,32.0392305 200.5,34.4392305 C201.6,36.8392305 202.4,38.6392305 203,39.7392305 C203.6,40.8392305 204.7,42.2392305 206.3,44.1392305 C207.8,46.0392305 209.4,47.2392305 211.1,47.7392305 L212,48.0392305 C212.3,48.1392305 212.5,48.3392305 212.5,48.6392305 C212.5,48.9392305 212.3,49.0392305 212,49.1392305 L211.3,49.2392305 C210.5,49.3392305 209.8,49.7392305 209.3,50.3392305 C208.8,50.9392305 208.4,51.5392305 208.1,52.2392305 C207.8,52.9392305 207.6,53.3392305 207.5,53.4392305 C207.4,53.5392305 207.3,53.6392305 207.3,53.6392305 C207.1,53.6392305 206.6,53.1392305 205.7,52.1392305 C204.8,51.1392305 204,50.1392305 203.3,49.1392305 C202.6,48.1392305 201.9,46.7392305 201.1,44.8392305 C200.3,42.9392305 199.8,41.4392305 199.4,40.1392305 C199,38.8392305 198.7,37.2392305 198.3,35.3392305 C198,33.4392305 197.7,31.9392305 197.6,30.9392305 L197.3,28.2392305 C197.1,29.6392305 196.8,31.1392305 196.5,32.9392305 C196.2,34.7392305 195.6,37.1392305 194.7,40.1392305 C193.8,43.1392305 192.1,45.8392305 189.7,48.1392305 C187.3,50.4392305 185.5,52.0392305 184.3,52.9392305 C183.1,53.8392305 182.3,54.4392305 181.9,54.6392305 L180.6,55.4392305 C180.5,55.5392305 180.4,55.5392305 180.3,55.5392305 C180.2,55.5392305 180.1,55.5392305 180.1,55.4392305 C180.1,55.3392305 180.1,55.2392305 180.1,55.1392305 C180.1,54.9392305 180.2,54.8392305 180.4,54.6392305 L181.1,54.0392305 C182.2,53.1392305 183.6,51.5392305 185.4,49.4392305 C187.2,47.3392305 188.7,44.9392305 190,42.3392305 C191.3,39.7392305 192.2,37.0392305 192.6,33.9392305 C193,30.9392305 193.3,28.2392305 193.5,26.0392305 C193.6,23.8392305 193.7,22.1392305 193.7,21.0392305 L193.7,18.5392305 L193.7,17.0392305 L193.6,15.9392305 C193.6,15.8392305 193.7,15.8392305 193.8,15.7392305 C193.9,15.7392305 194.2,15.7392305 194.7,15.9392305 L198.2,17.2392305 C198.7,17.4392305 199,17.6392305 199,17.7392305 C199,17.9392305 199.1,18.0392305 199,18.2392305 C199,18.4392305 198.9,18.5392305 198.7,18.7392305 L197.6,19.6392305 Z M203.8,14.0392305 L191.3,14.0392305 C189.4,18.4392305 188.2,21.0392305 187.8,21.9392305 C187.4,22.8392305 186.7,24.2392305 185.7,25.9392305 L185.1,27.0392305 C184.8,27.6392305 184.5,27.9392305 184.4,27.7392305 C184.3,27.6392305 184.2,27.4392305 184.2,27.3392305 C184.2,27.1392305 184.2,27.0392305 184.3,26.9392305 L184.8,25.3392305 L185.5,23.4392305 C186,21.9392305 186.7,19.6392305 187.5,16.5392305 C188.3,13.4392305 189,10.5392305 189.4,7.93923048 C189.8,5.33923048 190,3.63923048 190.1,2.83923048 L190.3,0.939230485 L190.3,0.0392304845 C190.4,-0.0607695155 190.6,0.0392304845 191.1,0.239230485 L195.2,2.33923048 C195.7,2.63923048 195.9,2.83923048 195.9,3.03923048 C195.9,3.23923048 195.8,3.33923048 195.6,3.53923048 L194.5,4.63923048 L191.8,12.3392305 L203.6,12.3392305 L204.7,10.4392305 C204.9,10.0392305 205.1,9.83923048 205.3,9.83923048 C205.5,9.83923048 205.8,10.0392305 206.1,10.4392305 L209.3,14.4392305 C209.6,14.8392305 209.8,15.2392305 209.9,15.4392305 C210,15.6392305 210,15.8392305 210,16.0392305 C210,16.2392305 210,16.3392305 209.8,16.5392305 C209.7,16.7392305 209.5,16.9392305 209.2,17.0392305 L207.4,17.4392305 C205.9,17.8392305 204.3,19.4392305 202.7,22.0392305 L202.1,23.4392305 C202,23.6392305 201.8,23.8392305 201.7,23.7392305 C201.6,23.7392305 201.5,23.6392305 201.5,23.5392305 C201.5,23.4392305 201.5,23.3392305 201.5,23.2392305 C201.5,23.1392305 201.5,23.0392305 201.6,22.8392305 L201.9,21.4392305 C202,20.7392305 202.7,18.3392305 203.8,14.0392305 Z" id="形状"></path>
                <path d="M218.6,21.5392305 C218.4,21.5392305 218.3,21.4392305 218.2,21.3392305 C218.1,21.2392305 218.1,20.9392305 218.1,20.5392305 C218.1,20.1392305 218.3,19.9392305 218.7,19.9392305 L248.8,19.9392305 L251.1,16.1392305 C251.2,15.9392305 251.3,15.8392305 251.5,15.8392305 C251.6,15.8392305 251.8,16.0392305 252.1,16.3392305 L255.1,20.1392305 C255.4,20.5392305 255.5,20.8392305 255.5,21.0392305 C255.5,21.2392305 255.4,21.3392305 255.3,21.4392305 C255.2,21.5392305 255.1,21.6392305 254.9,21.6392305 L241.1,21.6392305 L244.2,23.4392305 C244.4,23.5392305 244.6,23.7392305 244.6,23.8392305 C244.7,23.9392305 244.7,24.0392305 244.7,24.2392305 C244.7,24.3392305 244.5,24.6392305 244.2,24.8392305 L243.2,25.7392305 L243.2,46.4392305 C243.2,47.3392305 243.3,48.0392305 243.4,48.5392305 C243.5,49.0392305 244.4,49.2392305 246,49.1392305 C248.1,49.1392305 249.5,48.9392305 250.2,48.5392305 C250.9,48.1392305 251.5,47.5392305 251.9,46.6392305 C252.3,45.7392305 252.7,44.7392305 253.1,43.6392305 L254.6,39.1392305 C254.7,38.7392305 254.9,38.5392305 255.1,38.5392305 C255.2,38.5392305 255.3,38.6392305 255.3,38.8392305 C255.3,39.0392305 255.4,39.1392305 255.4,39.2392305 C255.4,39.3392305 255.4,39.4392305 255.4,39.5392305 L254.4,44.3392305 C254.3,44.7392305 254.3,45.2392305 254.3,45.9392305 C254.3,46.6392305 254.4,47.1392305 254.6,47.6392305 C254.7,47.8392305 254.8,48.1392305 255.1,48.5392305 C255.4,48.9392305 255.5,49.2392305 255.6,49.5392305 C255.6,49.7392305 255.7,49.9392305 255.7,50.1392305 C255.7,50.3392305 255.7,50.5392305 255.6,50.7392305 C255.3,51.8392305 254.4,52.7392305 252.9,53.5392305 C251.4,54.3392305 249.3,54.6392305 246.6,54.5392305 C244.2,54.5392305 242.5,54.2392305 241.4,53.8392305 C240.3,53.3392305 239.6,52.7392305 239.5,51.9392305 C239.3,51.1392305 239.2,50.2392305 239.2,49.2392305 L239.2,21.5392305 L231.4,21.5392305 L234.2,22.9392305 C234.7,23.1392305 234.9,23.4392305 234.9,23.7392305 C234.9,23.9392305 234.8,24.2392305 234.6,24.3392305 L233.5,25.3392305 C233.4,26.7392305 233.3,28.1392305 233.2,29.6392305 C233.1,31.1392305 233,32.7392305 232.8,34.5392305 C232.6,36.3392305 232.3,38.2392305 231.8,40.3392305 C231.3,42.3392305 230.3,44.4392305 228.9,46.6392305 C227.4,48.8392305 224.2,51.0392305 219.3,53.1392305 L217.6,53.9392305 C217.5,54.0392305 217.3,54.0392305 217.2,53.9392305 C217.1,53.8392305 217,53.7392305 217,53.5392305 C217,53.3392305 217.1,53.1392305 217.3,53.0392305 L219,51.8392305 C219.6,51.4392305 220.7,50.5392305 222.4,49.1392305 C224.1,47.7392305 225.4,45.9392305 226.4,43.9392305 C227.4,41.8392305 228.1,39.8392305 228.5,37.9392305 C228.9,36.0392305 229.2,33.7392305 229.3,31.1392305 C229.4,28.5392305 229.5,26.3392305 229.5,24.4392305 L229.5,23.2392305 L229.5,21.4392305 L218.6,21.4392305 L218.6,21.5392305 Z M243.8,6.13923048 L246,2.43923048 C246.2,2.13923048 246.4,1.93923048 246.5,1.93923048 C246.6,1.93923048 246.8,2.03923048 247,2.33923048 L250.1,6.13923048 C250.3,6.43923048 250.4,6.63923048 250.5,6.73923048 C250.5,6.83923048 250.6,7.03923048 250.6,7.03923048 C250.6,7.13923048 250.6,7.13923048 250.6,7.23923048 C250.6,7.53923048 250.4,7.63923048 250,7.63923048 L222.6,7.63923048 C222.3,7.63923048 222.1,7.33923048 222.1,6.83923048 C222.1,6.33923048 222.2,6.03923048 222.6,6.03923048 L243.8,6.03923048 L243.8,6.13923048 Z" id="形状"></path>
            </g>
            <g id="编组" transform="translate(0.000000, 78.439230)">
                <g transform="translate(87.800000, 2.800000)">
                    <path d="M28.9,37.2 L27.7,49 L-3.04040088e-23,49 L-3.04040088e-23,47.4 C4,47.2 4.7,46.5 4.7,41.6 L4.7,8.2 C4.7,3.3 4,2.7 -3.04040088e-23,2.4 L-3.04040088e-23,0.8 L26.2,0.8 L27.2,12 L25.8,12 C24.4,4.8 23.1,2.9 17.4,2.9 L10.2,2.9 L10.2,23.1 L18.6,23.1 C21,23.1 21.7,21.8 21.9,17.3 L23.3,17.3 L23.3,31 L21.9,31 C21.8,26.5 21,25.2 18.6,25.2 L10.2,25.2 L10.2,44.2 C10.2,46.2 10.6,47.1 13.7,47.1 L18.9,47.1 C24.8,47.1 25.8,45 27.5,37.3 L28.9,37.3 L28.9,37.2 Z" id="路径"></path>
                    <path d="M65,58 C65.4,58 65.8,58 66.2,57.9 L66.2,59.5 C64.8,59.9 62.7,60.1 61,60.1 C57.7,60.1 54.9,59.4 53,56 L52.1,54.3 C50.7,51.7 49.6,50.1 46.8,49.1 C39.5,47 33.8,38.7 33.8,24.8 C33.8,8.6 41.4,0 50.5,0 C59.6,0 67.2,8.6 67.2,24.8 C67.2,40.7 59.9,49.2 51,49.6 C53.8,50 56.5,51.5 58.1,53.8 L59.1,55.2 C60.4,57.2 62.4,58 65,58 Z M50.6,47.8 C57.9,47.8 61.5,39.1 61.5,24.9 C61.5,10.7 58,2 50.6,2 C43.3,2 39.7,10.7 39.7,24.9 C39.7,39.1 43.2,47.8 50.6,47.8 Z" id="形状"></path>
                    <path d="M102.1,36 C102.1,43.9 96,49 88.5,49 L71.9,49 L71.9,47.4 C75.9,47.2 76.6,46.5 76.6,41.6 L76.6,8.2 C76.6,3.3 75.9,2.7 71.9,2.4 L71.9,0.8 L86.4,0.8 C94.8,0.8 99.9,5.3 99.9,12.3 C99.9,17.8 96.4,21.8 91.4,23.5 C97.5,24.6 102.1,29.2 102.1,36 Z M82.1,2.9 L82.1,23.1 L85.4,23.1 C91.4,23.1 94.1,19.2 94.1,12.9 C94.1,6.7 91.4,2.8 85.4,2.8 L82.1,2.8 L82.1,2.9 Z M96.3,36 C96.3,29.3 93.7,25.1 87.8,25.1 L82.1,25.1 L82.1,44 C82.1,46 82.5,46.9 85.6,46.9 L87.8,46.9 C93.7,46.9 96.3,42.8 96.3,36 Z" id="形状"></path>
                </g>
                <g id="路径" transform="translate(283.000000, 2.900000)">
                    <path d="M25.8,36.4 C25.8,43.5 20.2,49.6 12.6,49.6 C8.5,49.6 4.8,47.8 2.9,45.2 L1,50 L0,50 L0,33.5 L1.4,33.5 C2.6,42.4 5.8,47.8 12.3,47.8 C17.8,47.8 21.1,44.6 21.1,39.3 C21.1,33.8 18.3,30.9 13.7,28.1 L8.4,25 C3.5,22.1 0.3,18.5 0.3,12.2 C0.3,4.4 6.2,0.1 12,0.1 C16.1,0.1 19.3,2.4 20.9,4.9 L22.3,0 L23.3,0 L23.3,14.4 L22.2,14.4 C21,7.4 17.9,1.9 12.4,1.9 C7.6,1.9 4.8,5.2 4.8,10.3 C4.8,14.9 7.3,17.4 11.5,19.8 L17.8,23.5 C22.8,26.4 25.8,30.1 25.8,36.4 Z"></path>
                    <path d="M55.1,2.2 L55.1,0.6 C57.2,0.8 59,1 60.8,1 C62.6,1 64.4,0.8 66.5,0.6 L66.5,2.2 C62.5,2.6 61.8,3.1 61.8,8.4 L61.8,35.5 C61.8,44.8 56.9,49.5 48.6,49.5 C40,49.5 34.6,44.4 34.6,36 L34.6,8.3 C34.6,3 33.9,2.5 29.9,2.1 L29.9,0.5 C34.3,0.9 34.9,0.9 37.3,0.9 C39.7,0.9 40.3,0.8 44.7,0.5 L44.7,2.1 C40.7,2.5 40,3 40,8.3 L40,35.2 C40,43.2 43.7,46.6 49.4,46.6 C56,46.6 59.6,43.1 59.6,35.2 L59.6,8.3 C59.8,3.1 59.1,2.6 55.1,2.2 Z"></path>
                    <path d="M104.7,0.6 L104.7,2.2 C101.3,2.6 100.4,3.4 99,8.1 L87.1,49.6 L86.2,49.6 L73.2,8.1 C71.6,2.9 70.8,2.7 67.6,2.3 L67.6,0.7 C70.6,1 72.1,1.1 74.4,1.1 C76.7,1.1 78.6,1 82.2,0.7 L82.2,2.3 C78,2.7 77.6,3.1 79.1,8.2 L88,38.4 L96.8,8.2 C98.3,3.2 98,2.7 93.7,2.3 L93.7,0.7 C95.8,0.9 97.9,1.1 99.7,1.1 C101.2,1.1 102.9,0.9 104.7,0.6 Z"></path>
                </g>
                <g id="形状">
                    <path d="M12.4,18.8 C10.5,21.2 8.8,23.2 7.1,24.9 C5.5,26.6 4.1,27.8 3.1,28.6 C2.1,29.4 1.5,29.8 1.4,29.8 L0.6,30.5 C0.5,30.6 0.3,30.7 0.2,30.7 C0,30.7 0,30.7 0,30.6 C0,30.5 0,30.4 0,30.3 C0,30.2 0.1,30 0.2,29.8 L0.9,28.9 C2.6,26.9 4.3,24.6 6,22.1 C7.7,19.5 9.5,16.3 11.5,12.5 C13.4,8.6 14.8,5.6 15.6,3.3 L16.1,1.9 L16.4,0.7 C16.4,0.6 16.5,0.6 16.5,0.5 L17.5,1.2 L22,4 C22.2,4.1 22.3,4.3 22.4,4.4 C22.5,4.5 22.5,4.7 22.5,4.8 C22.5,5 22.4,5.1 22.1,5.3 L20.7,6.1 L20.5,6.5 C22.1,10.3 23.7,13.1 25.3,14.8 C26.9,16.5 28.2,17.9 29.4,18.8 C30.6,19.7 31.8,20.7 33.1,21.5 C34.4,22.4 35.8,23 37.2,23.5 L38.6,23.9 L39.6,24.2 C39.9,24.3 40,24.4 40,24.5 C40,24.6 40,24.7 40,24.7 C40,24.9 39.9,25 39.8,25.1 L39.2,25.5 C38.6,25.9 38.1,26.2 37.7,26.5 C37.3,26.8 37,27.2 36.6,27.8 C36.2,28.4 35.9,28.9 35.8,29.3 C35.7,29.8 35.6,30.1 35.5,30.2 C35.4,30.3 35.4,30.4 35.3,30.3 C34.9,30.3 33.6,29.4 31.3,27.6 C29,25.8 27.2,23.8 25.7,21.6 C24.3,19.4 23.1,17.3 22.2,15.2 C21.3,13.1 20.6,11.2 20.2,9.5 L19.7,7.5 C16.7,12.7 14.2,16.4 12.4,18.8 Z M21.8,28 C21.7,28.1 21.6,28.3 21.5,28.5 C21.4,28.7 21.2,29 20.8,29.3 L20.8,38.3 L25,38.3 L26.6,35.6 C26.9,35 27.1,34.7 27.2,34.7 C27.3,34.7 27.6,35 28.2,35.6 L31,38.7 C31.3,39.1 31.5,39.4 31.5,39.6 C31.5,39.8 31.3,39.9 30.9,39.9 L20.9,39.9 L20.9,50.9 L30.2,50.9 L32.3,47.7 L32.7,47.2 C32.9,46.9 33,46.7 33.1,46.7 C33.2,46.7 33.5,47 34.1,47.7 L37.2,51.2 C37.4,51.5 37.6,51.7 37.6,51.8 C37.6,51.9 37.7,52.1 37.7,52.3 C37.7,52.5 37.5,52.6 37,52.6 L34.8,52.6 L2,52.6 C1.6,52.6 1.5,52.3 1.5,51.8 C1.5,51.3 1.7,51 2,51 L16.8,51 L16.8,40 L7.7,40 L7.5,40 C7.4,39.9 7.2,39.9 7.2,39.8 C7.1,39.7 7.1,39.4 7.1,39 C7.1,38.6 7.3,38.3 7.5,38.3 L16.8,38.3 L16.8,28 L7.6,28 C7.3,28 7.1,27.7 7.1,27.2 C7.1,26.7 7.3,26.4 7.6,26.4 L22.8,26.4 L24.4,23.9 C24.8,23.3 25,23 25,23 C25.1,23 25.3,23.3 25.8,23.7 L28.6,26.7 C28.9,27 29,27.3 29,27.5 C29,27.8 28.8,27.9 28.4,27.9 L25.6,27.9 L21.8,27.9 L21.8,28 Z"></path>
                    <path d="M59.1,8.9 L60.2,6.8 C60.6,6 60.8,5.6 60.9,5.6 C61,5.6 61.3,5.9 61.8,6.6 L63.7,9 C64.1,9.5 64.3,9.9 64.3,10 C64.3,10.1 64.2,10.2 64.1,10.3 C64,10.4 63.9,10.5 63.7,10.5 L59.9,10.5 L59.9,10.6 L57.9,10.6 L61.3,13.2 C61.6,13.4 61.8,13.6 61.8,13.7 C61.8,13.8 61.9,13.9 61.9,14.1 C61.9,14.3 61.7,14.4 61.4,14.5 L60.2,15.1 C58.9,18 57.9,20.3 57.2,21.9 L59.7,21.9 L60.8,19.9 C61.1,19.3 61.3,18.9 61.4,18.9 C61.5,18.9 61.5,18.9 61.6,18.9 C61.7,19 61.9,19.2 62.2,19.6 L64,22 C64.5,22.6 64.7,23 64.7,23.1 C64.7,23.2 64.6,23.3 64.5,23.4 C64.4,23.5 64.2,23.6 64,23.6 L57,23.6 C56.9,23.7 56.8,23.8 56.8,23.9 C56.7,24 56.6,24.2 56.3,24.4 L56.3,30.7 L58.2,30.7 L59.6,28.3 C59.8,27.9 60,27.7 60.1,27.6 C60.2,27.6 60.5,27.9 61,28.4 L63.2,31.2 C63.4,31.4 63.5,31.6 63.5,31.8 C63.5,31.9 63.4,32 63.4,32.1 C63.3,32.2 63.2,32.2 63.1,32.2 L56.3,32.2 L56.3,48.2 C56.3,49.1 56.2,49.8 55.9,50.3 C55.6,50.8 55.3,51.2 54.9,51.5 C54.5,51.7 54,52 53.2,52.3 C52.5,52.6 52,52.8 51.7,52.7 C51.6,52.7 51.6,52.7 51.5,52.6 C51.5,52.6 51.4,52.5 51.4,52.4 C51.4,52.3 51.4,52 51.3,51.7 C51.3,51.4 51.2,50.9 51.1,50.2 C51,49.5 50.5,49 49.7,48.4 L48.5,47.6 C48.2,47.4 48.1,47.2 48.1,47 C48.1,46.7 48.3,46.6 48.6,46.6 L50,46.8 C50.3,46.9 50.6,46.9 50.8,46.9 C51,46.9 51.2,46.9 51.3,46.9 L52,46.9 C52.5,47 52.8,46.8 52.8,46.3 L52.8,32.1 L44.9,32.1 L44.6,32 C44.3,31.8 44.2,31.5 44.1,31 C44,30.5 44.3,30.4 44.7,30.4 L52.7,30.4 L52.7,23.2 L44.3,23.2 L44.1,23.1 C44,23 43.9,23 43.8,22.9 C43.7,22.8 43.7,22.6 43.7,22.1 C43.7,21.7 43.9,21.5 44.3,21.5 L55.5,21.5 C55.8,20.1 56.2,18.4 56.6,16.2 C57,14 57.2,12.6 57.3,11.8 L57.5,10.2 L45.2,10.2 C44.9,10.2 44.7,9.9 44.6,9.4 C44.5,8.8 44.7,8.6 45.2,8.6 L59.1,8.6 L59.1,8.9 Z M50.6,37.8 C49.9,39.5 49.4,40.7 49.1,41.3 C48.8,41.9 48.2,43.2 47.2,45 C46.2,46.8 45.6,48 45.3,48.4 L44.4,49.8 C44.2,50.1 44.1,50.2 44,50.2 C44,50.2 43.9,50.2 43.9,50.2 C43.9,50.2 43.8,50.1 43.8,49.9 C43.8,49.7 43.8,49.5 43.9,49.2 L44.4,47.9 C44.5,47.7 44.7,47 45,45.9 C45.3,44.8 45.5,44.1 45.6,43.8 C45.7,43.5 45.9,42.5 46.3,40.9 C46.7,39.3 46.9,38.1 47,37.3 L47.3,35.4 L47.4,34 C47.4,33.9 47.5,33.9 47.5,33.8 L48.1,34.2 L51.1,36.1 C51.4,36.3 51.6,36.5 51.6,36.6 C51.6,36.7 51.6,36.8 51.5,36.9 C51.4,37 51.4,37.1 51.3,37.1 L50.6,37.8 Z M48.5,14 L48.1,13 C48.1,13 48.1,12.9 48,12.7 C48,12.6 48,12.5 48,12.4 C48,12.2 48.1,12.1 48.3,12.1 C48.5,12.1 49.2,12.7 50.6,14 C52,15.2 52.6,16.8 52.6,18.6 C52.6,19.4 52.4,20.1 52,20.7 C51.6,21.4 51.1,21.7 50.5,21.7 C49.7,21.7 49.2,21.4 49.1,20.6 C49,19.8 49,19.2 49,18.6 C49,18 49,17.5 49,17.1 C48.9,15.7 48.7,14.6 48.5,14 Z M50.8,1.4 L50.3,0.7 C50.2,0.6 50.2,0.5 50.2,0.4 C50.2,0.3 50.2,0.2 50.2,0.2 C50.2,0.1 50.3,0 50.5,0 C50.6,0 51.1,0.1 51.8,0.4 C52.6,0.6 53.4,1.1 54.4,1.6 C55.4,2.2 55.9,3 56.1,4 C56.2,5 56.3,5.6 56.3,5.8 C56.3,6 56.3,6.2 56.2,6.5 C56.1,7 55.8,7.6 55.5,8.1 C55.2,8.7 54.6,8.9 54,8.9 C53.3,8.9 52.8,8.7 52.5,8.2 C52.2,7.7 52.1,7.1 52,6.5 L51.8,4.6 C51.7,4.1 51.7,3.7 51.5,3.2 C51.3,2.7 51.2,2.1 50.8,1.4 Z M77.1,20.8 L78.2,18.6 C78.6,17.8 78.8,17.3 78.9,17.3 C79,17.2 79,17.3 79.1,17.3 C79.2,17.4 79.5,17.7 80,18.4 L82.1,21.1 C82.3,21.4 82.4,21.6 82.4,21.7 C82.4,21.8 82.5,21.9 82.5,22 C82.5,22.3 82.4,22.5 82.1,22.5 L77.3,22.5 C77.1,22.8 77,23 76.9,23.1 C76.8,23.2 76.7,23.3 76.5,23.4 L76.5,49.3 L76.6,53.1 C76.4,53.8 76.1,54.3 75.5,54.6 C75,54.9 74.5,55 74,55 C73.4,55 73.1,54.9 73,54.6 C72.9,54.3 72.8,54.1 72.7,53.7 L72.9,47.5 L72.9,22.4 L68.7,22.4 C68.6,25 68.6,27.4 68.5,29.4 C68.4,31.4 68.3,33.2 68.1,34.9 C67.9,36.6 67.4,38.5 66.8,40.8 C66.1,43.1 65.1,45.1 63.8,46.9 C62.5,48.7 61.4,50 60.6,51 C59.8,51.9 59.2,52.5 58.7,52.9 L57.8,53.7 C57.6,53.8 57.5,53.9 57.4,53.9 C57.3,53.9 57.2,53.9 57.2,53.8 C57.2,53.7 57.2,53.7 57.1,53.6 C57.1,53.5 57.1,53.5 57.1,53.4 C57.1,53.3 57.2,53.2 57.4,53 L58.2,52.1 C60.1,49.8 61.6,47.4 62.7,44.8 C63.8,42.2 64.5,39.6 64.8,36.8 C65.1,34 65.3,31.4 65.4,29 C65.5,26.6 65.5,23.8 65.5,20.4 C65.5,18.2 65.5,16.1 65.4,14 C65.3,11.9 65.3,10.7 65.3,10.5 L65.3,9.3 L65,5 C65.1,5 65.1,4.9 65.1,4.9 C65.1,4.9 65.5,5.1 66.1,5.5 L69.1,7.7 C71.6,6.3 73.6,5 75.1,3.6 L76.1,2.7 L76.8,1.9 C76.9,1.9 77,1.9 77.1,1.9 L77.8,2.9 L80.2,5.7 C80.6,6.2 80.8,6.5 80.8,6.7 C80.8,6.9 80.6,7.1 80.4,7.1 L79.1,7.3 L73.4,8.5 L68.8,9.3 C68.8,11.5 68.8,13.2 68.8,14.3 L68.8,17.6 L68.8,20.9 L77.1,20.9 L77.1,20.8 Z M58.1,37 L57.7,36.3 C57.5,35.9 57.4,35.7 57.5,35.5 C57.5,35.3 57.6,35.2 57.6,35.2 C57.6,35.2 57.7,35.2 57.7,35.1 C58,35.1 58.6,35.5 59.6,36.4 C60.6,37.3 61.3,38.1 61.8,39 C62.3,39.9 62.5,40.8 62.5,41.7 C62.5,42.4 62.3,43.1 61.9,43.7 C61.5,44.3 61.1,44.6 60.5,44.6 C59.8,44.6 59.4,44.3 59.2,43.8 C59,43.2 58.9,42.6 58.9,42 L58.9,40.2 C58.9,39.1 58.6,38 58.1,37 Z"></path>
                    <path d="M199.4,20.5 L205.8,21.1 C206.1,20.3 206.5,19.4 206.9,18.4 C207.3,17.5 207.6,16.7 207.7,16.3 L208.3,14.6 L208.5,14 C208.5,13.9 208.6,13.9 208.6,13.9 C208.6,13.9 208.8,14 209,14.2 L212.3,17.3 C212.4,17.4 212.5,17.6 212.6,17.6 C212.6,17.7 212.7,17.8 212.7,17.9 C212.7,18 212.6,18.1 212.3,18.2 L211.1,18.7 C207.9,24.3 204.7,29.6 201.6,34.7 L207.5,33.9 L209.7,33.5 C210.1,33.4 210.3,33.5 210.3,33.8 C210.3,34.1 210.1,34.3 209.8,34.4 L207.9,35.2 C207.3,35.5 206.1,36.1 204.5,36.9 C202.8,37.8 201.8,38.3 201.3,38.6 L199.8,39.5 C199.3,39.8 199,39.9 199,39.9 C199,39.9 198.9,39.7 198.8,39.5 L197.6,35.4 C197.5,35 197.4,34.7 197.4,34.7 C197.4,34.7 197.4,34.6 197.5,34.6 L197.9,34.5 L198.6,34.2 C198.9,34.1 199.2,33.9 199.4,33.7 C199.6,33.5 200.2,32.6 201,31.2 C201.8,29.8 203.3,26.7 205.5,22.1 C203.7,22.5 202,23 200.4,23.6 L198.3,24.4 L197.6,24.7 C197.5,24.7 197.4,24.4 197.3,23.8 L196.4,20.4 C196.3,20.1 196.3,20 196.3,19.9 C196.3,19.9 196.4,19.8 196.6,19.7 L197.4,19.3 C198.1,19 198.8,17.8 199.5,15.8 C200.2,13.8 201,11.7 201.6,9.6 C202.3,7.5 202.7,6.1 202.9,5.3 L203.5,2.9 L203.7,2.2 C203.8,2.1 203.9,2.2 204.2,2.3 L208.1,4.8 C208.2,4.9 208.3,5 208.4,5.1 C208.5,5.2 208.5,5.3 208.5,5.4 C208.5,5.5 208.4,5.6 208.4,5.7 C208.3,5.8 208.2,5.9 208.1,6 L207,6.5 L199.4,20.5 Z M199.2,46.8 C203.7,45.3 207.2,44.1 209.9,43.1 L211.4,42.5 C211.5,42.5 211.6,42.5 211.7,42.5 C211.8,42.5 211.9,42.7 211.9,42.8 C211.9,43 211.8,43.1 211.6,43.3 L210.3,44.3 L205.5,48 C203.2,49.7 201.8,50.8 201.3,51.3 L199.6,52.8 C199.3,53.1 199.1,53.2 199.1,53.2 C199.1,53.2 199,53 199,52.8 L197.7,48.5 C197.5,47.9 197.4,47.6 197.4,47.5 C197.4,47.5 197.4,47.4 197.5,47.4 L197.9,47.3 L199.2,46.8 Z M219.2,12 L219.2,6.1 L219.1,0.7 C219.1,0.7 219.2,0.6 219.2,0.6 C219.2,0.6 219.4,0.6 219.9,0.8 L223.8,1.9 C224.1,2 224.2,2.1 224.2,2.3 C224.2,2.5 224.1,2.7 224,2.8 L222.9,3.8 L222.9,12 L227.7,12 L229.4,8.9 C229.6,8.6 229.7,8.4 229.7,8.4 C229.7,8.4 229.9,8.5 230.1,8.7 L233.4,12.7 C233.5,12.8 233.6,13 233.6,13 C233.6,13.1 233.6,13.2 233.6,13.3 C233.6,13.4 233.4,13.4 233.1,13.4 L228.6,13.4 L228.6,13.5 L222.9,13.5 L222.9,34.3 L227.7,34.3 L227.7,24.9 L227.6,19.1 C227.6,19 227.7,19 227.7,18.9 L228.4,19.1 L232.1,20.3 C232.5,20.4 232.6,20.6 232.5,20.8 C232.4,21 232.3,21.1 232.2,21.2 L231.2,22.2 L231.2,33.2 L231.3,37.4 C231.2,37.8 231.1,38.1 231,38.3 C230.9,38.5 230.4,38.8 229.5,39.1 C228.6,39.4 228.2,39.4 227.9,39 C227.7,38.6 227.6,38.2 227.6,37.7 L227.6,36 L222.8,36 L222.8,47.3 C222.8,48 223,48.7 223.3,49.3 C223.6,49.9 224.5,50.2 226.1,50.1 C228.2,50 229.6,49.9 230.1,49.6 C230.6,49.3 231,49.1 231.3,48.7 C231.6,48.3 231.9,47.7 232.1,46.9 L233,43.8 L233.7,41.4 C233.8,41.1 233.9,40.9 234,40.9 C234.1,40.9 234.2,40.9 234.2,41 C234.2,41.1 234.3,41.2 234.3,41.3 C234.3,41.4 234.3,41.5 234.3,41.6 L234,44.4 C233.8,45.8 233.8,46.8 233.8,47.4 C233.8,48.1 233.9,48.6 234.1,49.1 L234.7,50.4 C234.8,50.7 234.8,51 234.8,51.2 C234.8,51.4 234.7,51.8 234.5,52.4 C234.3,53 233.7,53.5 232.7,53.9 C231.7,54.4 229.5,54.6 226.4,54.6 C224.5,54.6 222.9,54.4 221.5,53.8 C220.1,53.2 219.3,51.7 219.3,49.2 L219.3,36 L214.8,36 L213.6,38.6 C213.5,38.8 213.4,38.9 213.4,38.9 L213.2,38.7 L210.8,36.2 C210.6,36 210.5,35.9 210.6,35.7 L210.6,35.6 L210.6,35.5 L210.8,35.2 L211.6,34.2 L211.6,24.8 L211.5,19.6 C211.5,19.6 211.6,19.6 211.6,19.5 L212.2,19.8 L215.8,21.1 C216,21.2 216.1,21.3 216.1,21.5 C216.1,21.7 216,21.9 215.8,22.1 L214.9,23.2 L214.9,34.4 L219.3,34.4 L219.3,13.6 L210.2,13.6 C209.9,13.6 209.7,13.3 209.7,12.8 C209.7,12.3 209.9,12 210.2,12 L219.2,12 Z"></path>
                    <path d="M267,34.4 L258.1,34.4 L258.1,45.1 C258.1,45.5 258.1,45.9 258.2,46.2 C258.3,46.5 258.6,46.9 259.1,47.4 C259.7,47.9 261.6,48.2 265.1,48.2 C268.8,48.2 271.1,47.9 271.8,47 C272.6,46.2 273.2,45.4 273.5,44.6 C273.8,43.8 274.1,42.7 274.5,41.4 L275.4,37.9 C275.5,37.6 275.6,37.5 275.7,37.5 C275.9,37.5 275.9,37.6 276,37.8 C276,38 276,38.1 276,38.1 L275.6,42.1 C275.5,43.1 275.5,43.9 275.5,44.4 C275.5,45 275.6,45.4 275.7,45.8 C275.8,46.2 276,46.6 276.2,46.9 C276.4,47.2 276.6,47.5 276.6,47.7 C276.7,47.9 276.7,48.2 276.7,48.5 C276.7,48.8 276.6,49.2 276.5,49.6 C275.6,52 272.2,53.3 266.3,53.3 C265.3,53.3 264.1,53.3 262.7,53.2 C261.3,53.1 259.8,52.9 258.3,52.6 C256.8,52.3 255.7,51.6 255.2,50.6 C254.7,49.6 254.4,48.4 254.4,47 L254.4,34.3 L246,34.3 L246,39.3 C246,39.8 245.7,40.2 245.2,40.5 C244.7,40.9 244.1,41 243.6,41 C243.1,41 242.8,40.9 242.7,40.6 C242.5,40.4 242.4,40.1 242.3,39.7 L242.5,33.4 L242.5,14.1 L242.3,8.7 C242.4,8.6 242.4,8.5 242.5,8.5 C242.5,8.5 242.8,8.6 243.2,9 L246.3,11.3 L254.4,11.3 L254.4,8 L254.2,0.8 C254.3,0.7 254.4,0.6 254.5,0.6 L255.3,0.8 L258.8,1.8 C259,1.9 259.2,2 259.3,2.1 C259.4,2.2 259.5,2.4 259.5,2.6 C259.5,2.8 259.4,3 259.1,3.4 L258,4.6 L258,11.4 L266.7,11.4 L267.8,9.4 C268,9.1 268.1,8.9 268.2,8.9 C268.3,8.9 268.6,9.1 269.1,9.6 L271.7,12 C271.9,12.2 272,12.3 272,12.4 C272,12.5 272,12.5 272,12.6 C272,12.6 271.8,12.9 271.5,13.3 L270.7,14.5 L270.7,32 L270.9,36.6 C270.5,38 269.8,38.7 268.6,38.7 C267.4,38.7 266.8,38.3 266.8,37.4 L267,34.4 Z M254.5,22.2 L254.5,13.1 L246.1,13.1 L246.1,22.2 L254.5,22.2 Z M254.5,32.8 L254.5,23.8 L246.1,23.8 L246.1,32.8 L254.5,32.8 Z M267,22.2 L267,13.1 L258.1,13.1 L258.1,22.2 L267,22.2 Z M267,32.8 L267,23.8 L258.1,23.8 L258.1,32.8 L267,32.8 Z"></path>
                </g>
            </g>
        </g>
    </g>
</svg>