<?xml version="1.0" encoding="UTF-8"?>
<svg width="392px" height="142px" viewBox="0 0 392 142" version="1.1" xmlns="http://www.w3.org/2000/svg" xmlns:xlink="http://www.w3.org/1999/xlink">
    <title>eqa-title-pc</title>
    <g id="页面-1" stroke="none" stroke-width="1" fill="none" fill-rule="evenodd">
        <g id="eqa-title-pc">
            <g id="编组" transform="translate(0.100000, 0.000000)" fill="#FFFFFF" fill-rule="nonzero">
                <path d="M15.8,18.8 C16.9,13.4 17.7,9.1 18.1,6.2 L18.6,2.2 L18.7,0.7 L18.8,0.6 C18.8,0.6 19.1,0.7 19.5,0.9 L24.2,3.4 C24.5,3.6 24.7,3.8 24.7,4 C24.7,4.2 24.6,4.4 24.3,4.6 L22.9,5.6 C21.9,10.1 21,14.5 20.1,18.5 L31.8,18 L33,16.3 C33.3,15.9 33.4,15.8 33.5,15.8 C33.6,15.8 33.7,15.9 33.9,16 L37.9,19.7 C38.2,19.9 38.3,20.2 38.3,20.4 C38.3,20.6 38.1,20.8 37.9,21 L36.4,22.1 C36.1,25.8 35.6,30.8 34.9,37.1 C34.2,43.5 33.2,47.8 31.7,50 C30.2,52.2 28.8,53.6 27.5,54.1 C26.2,54.6 25.4,54.9 25,55 L24.3,55.1 C24.1,55.1 24,55.1 23.9,55.1 C23.9,55.1 23.8,54.8 23.7,54.4 L23.3,52.9 C23.2,52.4 22.8,51.7 22.3,51 C21.8,50.2 21.3,49.7 20.9,49.3 L19.4,48.1 C19.2,47.9 19.1,47.7 19.1,47.5 C19.1,47.3 19.2,47.2 19.3,47.1 C19.4,47 19.6,47 19.7,47 L22.1,47.9 C22.9,48.2 23.8,48.4 24.6,48.4 C25.4,48.4 26.3,48.1 27.2,47.5 C28.1,46.9 28.9,45 29.5,41.8 C30.1,38.6 30.6,35.3 31,32.1 C31.4,28.8 31.6,26.6 31.7,25.5 L32.2,19.6 L19.8,20.1 C18.4,25.4 16.6,30.9 14.4,36.6 C12.1,42.3 7.9,47.7 1.7,52.9 L0.5,53.9 C0.3,54.1 0.1,54.1 0.1,54 C0,53.9 0,53.8 0,53.6 C0,53.5 0.1,53.3 0.2,53.1 L1.4,51.7 C1.7,51.3 2.6,50.1 4.1,48.1 C5.5,46.1 7.2,43.2 9.2,39.4 C11.1,35.6 13.3,29.2 15.7,20.3 L1.5,20.9 C1.3,20.9 1.2,20.9 1,20.7 C0.9,20.5 0.8,20.3 0.8,20 C0.8,19.7 0.8,19.5 1,19.4 C1.1,19.3 1.3,19.2 1.6,19.2 L15.8,18.8 Z M5.3,3.4 C5.3,3.4 5.4,3.3 5.5,3.3 C5.6,3.3 6,3.5 6.8,4 C7.6,4.5 8.8,5.4 10.2,6.7 C11.7,8 12.4,9.6 12.4,11.4 C12.4,13.2 12.1,14.6 11.5,15.3 C10.9,16.1 10.3,16.4 9.7,16.4 C9,16.4 8.5,16.1 8.2,15.5 C7.9,14.9 7.7,14.4 7.6,13.9 C7.6,13.4 7.5,12.4 7.5,10.9 C7.5,9.4 7.3,8.2 7,7.2 C6.7,6.3 6.3,5.5 5.9,4.9 C5.5,4.3 5.2,3.9 5.2,3.7 C5.2,3.5 5.1,3.6 5.3,3.4 Z M19.5,25.7 C19.5,25.7 19.6,25.6 19.7,25.6 C19.8,25.6 19.9,25.6 19.9,25.7 C20,25.8 20.4,26 21.1,26.4 C21.8,26.8 22.9,27.7 24.4,29.1 C25.9,30.5 26.6,32.1 26.6,33.9 C26.6,35.7 26.3,37 25.7,37.8 C25.1,38.6 24.5,38.9 23.9,38.9 C23.2,38.9 22.7,38.6 22.3,38 C22,37.4 21.8,36.9 21.8,36.5 C21.8,36.1 21.7,35.1 21.7,33.5 C21.7,32 21.5,30.7 21.2,29.7 C20.9,28.7 20.5,27.9 20.1,27.4 C19.7,26.9 19.5,26.5 19.4,26.4 C19.4,26.3 19.4,26.2 19.4,26.1 C19.3,25.9 19.3,25.8 19.5,25.7 Z" id="形状"></path>
                <path d="M48.8,21.1 C46.7,25.4 45.2,28.2 44.2,29.6 L43.5,30.6 C43.3,30.8 43.2,30.9 43.1,30.8 C43,30.7 43,30.5 43,30.4 C43,30.2 43,30.1 43.1,29.9 L43.7,28.5 C44.8,25.9 45.9,22.3 47.1,17.6 C48.3,12.9 49.1,9.6 49.5,7.6 C49.9,5.6 50.2,3.9 50.4,2.6 L50.7,0.8 L50.8,0.1 L50.9,0 C50.9,0 51.1,0.1 51.5,0.3 L56.1,3 C56.3,3.1 56.4,3.3 56.4,3.5 C56.4,3.7 56.3,3.8 56.1,4 L54.9,4.8 C53.8,8.1 52.7,11.4 51.5,14.6 L53.3,15.7 C53.4,15.8 53.6,15.9 53.6,16 C53.7,16.1 53.7,16.2 53.7,16.3 C53.7,16.4 53.7,16.5 53.6,16.6 C53.5,16.8 53.4,16.9 53.3,17 L52.4,18 L52.4,47.5 L52.6,53.8 C52.5,54.1 52.4,54.4 52.3,54.6 C52.2,54.8 51.7,55 51,55.3 C50.3,55.5 49.7,55.6 49.4,55.6 C49.1,55.6 48.9,55.5 48.8,55.4 C48.7,55.3 48.6,55.1 48.6,54.7 L48.8,47.2 L48.8,25.9 L48.8,21.1 Z M63.6,30.5 C61.7,35.4 60.2,38.7 59.2,40.5 C58.2,42.3 57.2,44 56.1,45.7 L55.1,47.3 C54.9,47.6 54.8,47.7 54.7,47.6 C54.6,47.5 54.5,47.3 54.5,47.2 C54.5,47.1 54.5,46.9 54.6,46.7 L55.3,44.8 C55.6,44 56.1,42.6 56.7,40.6 C57.3,38.6 57.9,36.5 58.3,34.4 C58.7,32.3 59.1,30.8 59.2,29.8 L59.7,26.8 L59.8,26.1 C59.8,26.1 60,26.1 60.2,26.3 L64.4,29 C64.7,29.2 64.8,29.4 64.8,29.6 C64.8,29.8 64.7,30 64.4,30.2 L63.6,30.5 Z M75.8,15 L62.4,15 C62.3,15.3 62.2,15.5 62.1,15.6 L60.4,19.5 C59.3,21.9 58.2,24.1 56.9,26.3 L55.9,28.1 C55.7,28.4 55.6,28.5 55.5,28.4 C55.4,28.2 55.4,28.1 55.4,28.1 C55.4,28 55.4,27.9 55.5,27.8 L56.2,25.5 C58,19.9 59.2,15.1 59.8,11.2 C60.4,7.3 60.8,4.9 60.9,4 L61.1,2.1 L61.2,1.2 L61.3,1.1 C61.3,1.1 61.6,1.2 62.2,1.5 L66.4,3.7 C66.6,3.8 66.7,3.9 66.7,4 C66.8,4.1 66.8,4.2 66.8,4.3 C66.8,4.5 66.7,4.6 66.5,4.7 L65.4,5.6 C64.5,8.5 63.7,11.1 62.9,13.5 L75.9,13.5 L77.2,11.5 C77.3,11.3 77.4,11.2 77.5,11.2 C77.6,11.2 77.7,11.3 77.9,11.5 L81.7,16 C82,16.4 82.2,16.7 82.1,17 C82.1,17.3 82,17.5 81.8,17.7 C81.6,17.9 81.2,18 80.5,18 C79.8,18 79.1,18.3 78.2,18.9 C77.4,19.5 76.5,20.7 75.6,22.3 L74.7,23.9 C74.5,24.3 74.3,24.4 74.2,24.3 C74.1,24.1 74,24 74,23.9 C74,23.8 74,23.7 74,23.6 C74,23.5 74,23.5 74,23.4 L74.4,21.5 C74.8,20.7 75.1,18.5 75.8,15 Z M70.3,22.1 L70.3,50.5 C70.3,51 70.2,51.7 70,52.4 C69.8,53.1 69.3,53.7 68.4,54.1 C67.5,54.5 66.9,54.7 66.6,54.7 L65.9,54.8 C65.6,54.9 65.4,54.9 65.4,54.8 C65.3,54.8 65.3,54.6 65.2,54.5 L64.8,53.1 C64.6,52.5 64.3,51.8 63.8,51.2 C63.3,50.6 62.8,50.1 62.3,49.9 L60.6,49.1 C60.4,49 60.3,48.8 60.3,48.6 C60.3,48.5 60.3,48.3 60.4,48.3 C60.5,48.2 60.6,48.2 60.7,48.2 L62.3,48.4 C63.8,48.6 64.8,48.7 65.2,48.7 C65.7,48.7 66.1,48.5 66.3,48.2 C66.5,47.9 66.6,47.6 66.6,47.2 L66.6,24.6 L66.5,17.6 C66.6,17.6 66.6,17.5 66.7,17.5 C66.7,17.5 66.9,17.5 67.3,17.7 L71.7,19.3 C72,19.4 72.1,19.6 72.1,19.8 C72.1,20 72,20.2 71.8,20.4 L70.3,22.1 Z M72.5,28.6 C72.6,28.5 72.6,28.5 72.7,28.5 C72.7,28.5 73.1,28.7 73.7,29.1 C74.3,29.5 75.4,30.5 76.9,32 C78.5,33.5 79.7,35.4 80.5,37.6 C81.4,39.8 81.8,41.7 81.7,43.3 C81.7,44.4 81.4,45.4 81,46.2 C80.6,47 80,47.3 79.3,47.3 C78.6,47.3 78,46.9 77.6,46.1 C77.2,45.4 77,44 76.8,42.1 C76.6,40.2 76.3,38.4 75.9,36.8 C75.5,35.2 75.1,34.1 74.8,33.4 C74.5,32.7 74.1,31.9 73.6,31 C73.1,30.1 72.7,29.6 72.6,29.4 C72.4,29.2 72.4,29.1 72.4,28.9 C72.3,28.9 72.3,28.8 72.5,28.6 Z" id="形状"></path>
                <path d="M93.1,54.5 L93.9,53.5 C94,53.4 94.2,53 94.6,52.3 C95,51.7 95.2,51.2 95.3,50.9 C95.4,50.6 95.6,50 95.9,49.1 C96.1,48.2 96.2,47.6 96.1,47.2 C96,46.8 95.9,46.6 95.7,46.5 C95.6,46.5 95.5,46.5 95.2,46.7 C94.9,46.8 94.7,46.9 94.5,46.9 C93.7,46.9 93.1,46.5 92.7,45.8 C92.2,45.1 92,44.2 92,43.1 C92,42 92.3,41 92.8,40.2 C93.4,39.4 94.1,39 94.9,39 C96,39 96.8,39.6 97.3,40.6 C97.9,41.6 98.2,42.7 98.3,43.8 C98.4,44.9 98.4,46 98.2,47.1 C98,48.6 97.6,50 97.1,51.1 C96.6,52.2 96.1,53.1 95.6,53.6 C95.2,54.1 94.7,54.6 94.2,55.1 C93.7,55.6 93.4,55.8 93.1,55.7 C92.8,55.6 92.7,55.5 92.7,55.2 C92.7,55 92.9,54.8 93.1,54.5 Z" id="路径"></path>
                <path d="M272.068359,39 C272.888672,39 273.699219,39.3076172 274.5,39.9228516 C275.300781,40.5380859 275.935547,41.4267578 276.404297,42.5888672 C276.873047,43.7509766 277.107422,44.9570312 277.107422,46.2070312 C277.087891,47.515625 276.858398,48.7265625 276.418945,49.8398438 C275.979492,50.953125 275.364258,51.8320312 274.573242,52.4765625 C273.782227,53.1210938 272.947266,53.4335938 272.068359,53.4140625 C271.150391,53.4140625 270.295898,53.0917969 269.504883,52.4472656 C268.713867,51.8027344 268.098633,50.9335938 267.65918,49.8398438 C267.219727,48.7460938 267,47.5449219 267,46.2363281 C267,44.9277344 267.224609,43.7167969 267.673828,42.6035156 C268.142578,41.4316406 268.782227,40.5429688 269.592773,39.9375 C270.40332,39.3320312 271.228516,39.0195312 272.068359,39 Z M272.039062,41.7246094 C271.511719,41.7246094 270.994141,41.9101562 270.486328,42.28125 C269.978516,42.6523438 269.578125,43.1992188 269.285156,43.921875 C268.992188,44.6445312 268.855469,45.3964844 268.875,46.1777344 C268.875,46.9785156 269.016602,47.7255859 269.299805,48.4189453 C269.583008,49.1123047 269.963867,49.6591797 270.442383,50.0595703 C270.920898,50.4599609 271.453125,50.6503906 272.039062,50.6308594 C272.605469,50.6308594 273.12793,50.4355469 273.606445,50.0449219 C274.084961,49.6542969 274.460938,49.1171875 274.734375,48.4335938 C275.007812,47.75 275.144531,47.0029297 275.144531,46.1923828 C275.144531,45.3818359 275.007812,44.6347656 274.734375,43.9511719 C274.441406,43.2285156 274.045898,42.6816406 273.547852,42.3105469 C273.049805,41.9394531 272.546875,41.7441406 272.039062,41.7246094 Z" id="。"></path>
                <path d="M145.3,9.1 L146.4,7 C146.8,6.2 147,5.8 147.1,5.8 C147.2,5.8 147.5,6.1 148,6.8 L149.9,9.2 C150.3,9.7 150.5,10.1 150.5,10.2 C150.5,10.3 150.4,10.4 150.3,10.5 C150.2,10.6 150.1,10.7 149.9,10.7 L146.1,10.7 L146.1,10.8 L144.1,10.8 L147.5,13.4 C147.8,13.6 148,13.8 148,13.9 C148,14 148.1,14.1 148.1,14.3 C148.1,14.5 147.9,14.6 147.6,14.7 L146.4,15.3 C145.1,18.2 144.1,20.5 143.4,22.1 L145.9,22.1 L147,20.1 C147.3,19.5 147.5,19.1 147.6,19.1 C147.7,19.1 147.7,19.1 147.8,19.1 C147.9,19.2 148.1,19.4 148.4,19.8 L150.2,22.2 C150.7,22.8 150.9,23.2 150.9,23.3 C150.9,23.4 150.8,23.5 150.7,23.6 C150.6,23.7 150.4,23.8 150.2,23.8 L143.2,23.8 C143.1,23.9 143,24 143,24.1 C142.9,24.2 142.8,24.4 142.5,24.6 L142.5,30.9 L144.4,30.9 L145.8,28.5 C146,28.1 146.2,27.9 146.3,27.8 C146.4,27.8 146.7,28.1 147.2,28.6 L149.4,31.4 C149.6,31.6 149.7,31.8 149.7,32 C149.7,32.1 149.6,32.2 149.6,32.3 C149.5,32.4 149.4,32.4 149.3,32.4 L142.5,32.4 L142.5,48.4 C142.5,49.3 142.4,50 142.1,50.5 C141.8,51 141.5,51.4 141.1,51.7 C140.7,51.9 140.2,52.2 139.4,52.5 C138.7,52.8 138.2,53 137.9,52.9 C137.8,52.9 137.8,52.9 137.7,52.8 C137.7,52.8 137.6,52.7 137.6,52.6 C137.6,52.5 137.6,52.2 137.5,51.9 C137.5,51.6 137.4,51.1 137.3,50.4 C137.2,49.7 136.7,49.2 135.9,48.6 L134.7,47.8 C134.4,47.6 134.3,47.4 134.3,47.2 C134.3,46.9 134.5,46.8 134.8,46.8 L136.2,47 C136.5,47.1 136.8,47.1 137,47.1 C137.2,47.1 137.4,47.1 137.5,47.1 L138.2,47.1 C138.7,47.2 139,47 139,46.5 L139,32.3 L131.1,32.3 L130.8,32.2 C130.5,32 130.4,31.7 130.3,31.2 C130.2,30.7 130.5,30.6 130.9,30.6 L138.9,30.6 L138.9,23.4 L130.5,23.4 L130.3,23.3 C130.2,23.2 130.1,23.2 130,23.1 C129.9,23 129.9,22.8 129.9,22.3 C129.9,21.9 130.1,21.7 130.5,21.7 L141.7,21.7 C142,20.3 142.4,18.6 142.8,16.4 C143.2,14.2 143.4,12.8 143.5,12 L143.7,10.4 L131.4,10.4 C131.1,10.4 130.9,10.1 130.8,9.6 C130.7,9 130.9,8.8 131.4,8.8 L145.3,8.8 L145.3,9.1 L145.3,9.1 Z M136.7,38 C136,39.7 135.5,40.9 135.2,41.5 C134.9,42.1 134.3,43.4 133.3,45.2 C132.3,47 131.7,48.2 131.4,48.6 L130.5,50 C130.3,50.3 130.2,50.4 130.1,50.4 L130,50.4 C130,50.4 129.9,50.3 129.9,50.1 C129.9,49.9 129.9,49.7 130,49.4 L130.5,48.1 C130.6,47.9 130.8,47.2 131.1,46.1 C131.4,45 131.6,44.3 131.7,44 C131.8,43.7 132,42.7 132.4,41.1 C132.8,39.5 133,38.3 133.1,37.5 L133.4,35.6 L133.5,34.2 C133.5,34.1 133.6,34.1 133.6,34 L134.2,34.4 L137.2,36.3 C137.5,36.5 137.7,36.7 137.7,36.8 C137.7,36.9 137.7,37 137.6,37.1 C137.5,37.2 137.5,37.3 137.4,37.3 L136.7,38 Z M134.6,14.2 L134.2,13.2 C134.2,13.2 134.2,13.1 134.1,12.9 C134.1,12.8 134.1,12.7 134.1,12.6 C134.1,12.4 134.2,12.3 134.4,12.3 C134.6,12.3 135.3,12.9 136.7,14.2 C138.1,15.4 138.7,17 138.7,18.8 C138.7,19.6 138.5,20.3 138.1,20.9 C137.7,21.6 137.2,21.9 136.6,21.9 C135.8,21.9 135.3,21.6 135.2,20.8 C135.1,20 135.1,19.4 135.1,18.8 C135.1,18.2 135.1,17.7 135.1,17.3 C135,15.9 134.8,14.9 134.6,14.2 Z M136.8,1.6 L136.3,0.9 C136.2,0.8 136.2,0.7 136.2,0.6 C136.2,0.5 136.2,0.4 136.2,0.4 C136.2,0.3 136.3,0.2 136.5,0.2 C136.6,0.2 137.1,0.3 137.8,0.6 C138.6,0.8 139.4,1.3 140.4,1.8 C141.4,2.4 141.9,3.2 142.1,4.2 C142.2,5.2 142.3,5.8 142.3,6 C142.3,6.2 142.3,6.4 142.2,6.7 C142.1,7.2 141.8,7.8 141.5,8.3 C141.2,8.9 140.6,9.1 140,9.1 C139.3,9.1 138.8,8.9 138.5,8.4 C138.2,7.9 138.1,7.3 138,6.7 L137.8,4.8 C137.7,4.3 137.7,3.9 137.5,3.4 C137.3,2.9 137.3,2.3 136.8,1.6 Z M163.1,21 L164.2,18.8 C164.6,18 164.8,17.5 164.9,17.5 C165,17.4 165,17.5 165.1,17.5 C165.2,17.6 165.5,17.9 166,18.6 L168.1,21.3 C168.3,21.6 168.4,21.8 168.4,21.9 C168.4,22 168.5,22.1 168.5,22.2 C168.5,22.5 168.4,22.7 168.1,22.7 L163.3,22.7 C163.1,23 163,23.2 162.9,23.3 C162.8,23.4 162.7,23.5 162.5,23.6 L162.5,49.5 L162.6,53.3 C162.4,54 162.1,54.5 161.5,54.8 C161,55.1 160.5,55.2 160,55.2 C159.4,55.2 159.1,55.1 159,54.8 C158.9,54.5 158.8,54.3 158.7,53.9 L158.9,47.7 L158.9,22.6 L154.7,22.6 C154.6,25.2 154.6,27.6 154.5,29.6 C154.4,31.6 154.3,33.4 154.1,35.1 C153.9,36.8 153.4,38.7 152.8,41 C152.1,43.3 151.1,45.3 149.8,47.1 C148.5,48.9 147.4,50.2 146.6,51.2 C145.8,52.1 145.2,52.7 144.7,53.1 L143.8,53.9 C143.6,54 143.5,54.1 143.4,54.1 C143.3,54.1 143.2,54.1 143.2,54 C143.2,53.9 143.2,53.9 143.1,53.8 C143.1,53.7 143.1,53.7 143.1,53.6 C143.1,53.5 143.2,53.4 143.4,53.2 L144.2,52.3 C146.1,50 147.6,47.6 148.7,45 C149.8,42.4 150.5,39.8 150.8,37 C151.1,34.2 151.3,31.6 151.4,29.2 C151.5,26.8 151.5,24 151.5,20.6 C151.5,18.4 151.5,16.3 151.4,14.2 C151.3,12.1 151.3,10.9 151.3,10.7 L151.3,9.5 L151,5.2 C151.1,5.2 151.1,5.1 151.1,5.1 C151.1,5.1 151.5,5.3 152.1,5.7 L155.1,7.9 C157.6,6.5 159.6,5.2 161.1,3.8 L162.1,2.9 L162.8,2.1 C162.9,2.1 163,2.1 163.1,2.1 L163.8,3.1 L166.2,5.9 C166.6,6.4 166.8,6.7 166.8,6.9 C166.8,7.1 166.6,7.3 166.4,7.3 L165.1,7.5 L159.4,8.6 L154.8,9.4 C154.8,11.6 154.8,13.3 154.8,14.4 L154.8,17.7 L154.8,21 L163.1,21 L163.1,21 Z M144.1,37.3 L143.7,36.6 C143.5,36.2 143.4,36 143.5,35.8 C143.5,35.6 143.6,35.5 143.6,35.5 C143.6,35.5 143.7,35.5 143.7,35.4 C144,35.4 144.6,35.8 145.6,36.7 C146.6,37.6 147.3,38.4 147.8,39.3 C148.3,40.2 148.5,41.1 148.5,42 C148.5,42.7 148.3,43.4 147.9,44 C147.5,44.6 147.1,44.9 146.5,44.9 C145.8,44.9 145.4,44.6 145.2,44.1 C145,43.5 144.9,42.9 144.9,42.3 L144.9,40.5 C144.9,39.3 144.7,38.2 144.1,37.3 Z" id="形状"></path>
                <path d="M179.7,18.7 L179.7,9.8 L179.6,3.1 C179.6,3 179.7,3 179.7,3 L180.1,3.2 L184.5,5 C184.6,5.1 184.7,5.2 184.8,5.3 C184.9,5.5 184.9,5.6 184.9,5.7 C184.9,5.8 184.8,6 184.6,6.2 L183.5,7.5 L183.5,18.8 L188.6,18.8 L188.6,8 L188.5,0.9 C188.6,0.8 188.6,0.7 188.7,0.7 L189.3,0.9 L193.3,2.3 C193.3,2.3 193.4,2.4 193.5,2.4 C193.6,2.5 193.6,2.5 193.6,2.5 C193.6,2.5 193.6,2.6 193.6,2.7 C193.6,2.8 193.5,3 193.4,3.2 L192.4,4.6 L192.4,18.8 L199.1,18.8 L199.1,7.7 L199,1.5 C199.1,1.4 199.2,1.3 199.2,1.2 L199.8,1.4 L203.9,2.9 C204,3 204.1,3 204.2,3.1 C204.3,3.2 204.3,3.3 204.3,3.4 C204.3,3.5 204.2,3.7 204,3.9 L203,5.2 L203,18.8 L206.3,18.8 L208.5,15 C208.6,14.8 208.7,14.7 208.8,14.7 C208.9,14.7 209,14.8 209.1,15 L212.3,19.4 C212.4,19.5 212.4,19.6 212.5,19.8 C212.6,20 212.6,20.1 212.6,20.1 C212.6,20.3 212.5,20.4 212.3,20.4 L207.4,20.4 L202.9,20.4 L202.9,36.6 L203,40.9 C202.9,41.1 202.9,41.4 202.7,41.6 C202.5,41.8 202.2,42.1 201.6,42.3 C201,42.5 200.4,42.6 200,42.6 C199.6,42.6 199.4,42.5 199.3,42.3 C199.2,42.1 199.2,41.9 199.2,41.5 L199.2,38.2 L192.5,38.2 L192.5,41.5 C192.5,41.8 192.4,42.1 192.3,42.3 C192.2,42.6 191.8,42.8 191.3,43 C190.7,43.2 190.2,43.3 189.8,43.3 C189.3,43.3 189,43.3 188.9,43.1 C188.8,42.9 188.7,42.8 188.6,42.4 L188.8,35.6 L188.8,20.2 L183.7,20.2 L183.7,50.1 L204.8,50 L207,46.3 C207.2,45.9 207.4,45.7 207.5,45.7 C207.6,45.7 207.8,45.9 208,46.3 L210.9,50.7 C210.9,50.8 211,50.9 211.1,51.2 C211.2,51.5 211.1,51.7 210.8,51.7 L183.7,51.7 L182.3,53.6 C181.9,54.2 181.7,54.4 181.6,54.4 C181.6,54.4 181.4,54.2 181.3,54 L178.9,50.7 C178.7,50.5 178.6,50.3 178.6,50.1 C178.6,49.9 178.7,49.7 178.9,49.6 L179.7,48.8 L179.7,20.1 L173.2,20.1 C172.8,20.1 172.7,19.8 172.7,19.3 C172.7,18.8 172.9,18.5 173.2,18.5 L179.7,18.5 L179.7,18.7 L179.7,18.7 Z M199,36.5 L199,20.3 L192.3,20.3 L192.3,36.5 L199,36.5 Z" id="形状"></path>
                <path d="M226.1,14.7 L227.8,15.8 C228.2,16.1 228.4,16.3 228.4,16.5 C228.4,16.7 228.3,16.9 228,17.2 L226.9,18.4 L226.9,46.6 L227,52.6 C226.9,53.1 226.8,53.5 226.6,53.7 C226.4,54 226,54.2 225.3,54.4 C224.6,54.6 224.1,54.6 223.9,54.6 C223.6,54.6 223.3,54.5 223.2,54.3 C223.1,54.1 223,53.9 223,53.5 L223.2,46 L223.2,21.5 C222.2,23.6 221.3,25.2 220.7,26.4 C220.1,27.6 219.2,29.1 218,30.9 L216.6,33.1 C216.4,33.3 216.3,33.4 216.3,33.3 C216.2,33.2 216.2,33 216.2,32.9 C216.2,32.8 216.2,32.6 216.3,32.5 L217.3,30.2 C217.8,29 218.4,27.6 219,25.9 C219.6,24.2 220.4,21.5 221.4,17.8 C222.4,14 223.2,10.9 223.7,8.3 L224.6,3.5 L225.1,1 C225.2,0.6 225.2,0.3 225.2,0.3 C225.2,0.3 225.2,0.3 225.3,0.3 L225.5,0.5 L230.8,3.7 C231,3.8 231.1,4 231.1,4.2 C231.1,4.4 230.9,4.6 230.6,4.8 L229,5.5 L226.1,14.7 Z M241.8,20.3 L248.8,19.3 L250.4,16.1 C250.6,15.7 250.7,15.4 250.9,15.1 C251,14.8 251.1,14.6 251.2,14.6 C251.3,14.6 251.4,14.7 251.6,14.9 L255.2,19.1 C255.3,19.2 255.3,19.3 255.4,19.4 C255.5,19.5 255.5,19.6 255.5,19.7 C255.5,19.8 255.5,19.9 255.4,20 C255.3,20.1 255.2,20.2 255.1,20.2 L241.9,22.1 C241.9,22.8 242.1,24.6 242.3,27.4 C242.6,30.2 243.1,33.1 244,35.9 C244.9,38.7 245.9,41.1 246.9,42.9 C247.9,44.7 248.8,46 249.7,46.6 C250.5,47.2 251.1,47.5 251.5,47.5 C252,47.5 252.3,47.1 252.6,46.3 C252.8,45.5 253.2,44.2 253.8,42.5 L254.8,39.1 C254.9,38.7 255,38.5 255.2,38.5 C255.3,38.5 255.4,38.6 255.5,38.7 C255.5,38.9 255.6,39 255.6,39.2 C255.6,39.4 255.6,39.5 255.6,39.5 L255.1,43.3 C254.9,45.1 254.8,46.5 254.8,47.3 C254.8,48.1 254.9,48.8 255,49.2 L255.6,50.9 C255.7,51.3 255.8,51.6 255.8,51.9 C255.8,52.5 255.6,53.1 255.2,53.5 C254.8,53.9 254.2,54.2 253.5,54.2 C252.6,54.2 251.5,53.9 250.3,53.2 C249.1,52.5 247.3,50.7 245.1,47.9 C242.9,45.1 241.4,41.5 240.5,37.2 C239.7,32.9 238.9,28.1 238.2,22.9 L229.1,24.2 C228.6,24.3 228.4,24 228.4,23.5 C228.4,22.9 228.7,22.6 229.2,22.5 L238,21.3 C238,21 237.9,20.4 237.8,19.6 C237.7,18.8 237.7,17.7 237.6,16.4 L237.1,7.7 L236.8,3.4 L236.5,1.1 C236.6,1 236.7,0.9 237,1 L242.2,2.2 C242.5,2.3 242.7,2.5 242.7,2.8 C242.7,3.1 242.6,3.3 242.5,3.5 L241.1,5.2 C241.1,6.2 241.1,7.4 241.1,8.8 C241.1,10.1 241.1,11.5 241.2,12.8 L241.6,18.9 C241.6,19.4 241.6,19.6 241.6,19.7 L241.7,20.7 L241.8,20.7 L241.8,20.3 L241.8,20.3 Z M243.1,5.3 C244.2,5.3 245.3,5.5 246.2,5.9 C247.1,6.3 248.1,6.9 249,7.7 C249.9,8.5 250.3,9.9 250.2,11.9 C250,13.9 249.3,14.9 247.9,14.9 C247.1,14.9 246.6,14.5 246.3,13.8 C246,13.1 245.7,12 245.4,10.5 C245.1,9 244.5,7.9 243.5,7 L242.9,6.5 C242.6,6.2 242.4,6 242.5,5.7 C242.6,5.4 242.7,5.3 243.1,5.3 Z" id="形状"></path>
            </g>
            <g id="编组" transform="translate(0.000000, 78.200000)" fill="#FFFFFF" fill-rule="nonzero">
                <g transform="translate(89.300000, 2.900000)">
                    <path d="M28.9,37.1 L27.7,48.9 L0,48.9 L0,47.3 C4,47.1 4.7,46.4 4.7,41.5 L4.7,8.1 C4.7,3.2 4,2.6 0,2.3 L0,0.7 L26.2,0.7 L27.2,11.9 L25.8,11.9 C24.4,4.7 23.1,2.8 17.4,2.8 L10.2,2.8 L10.2,23 L18.6,23 C21,23 21.7,21.7 21.9,17.2 L23.3,17.2 L23.3,30.9 L21.9,30.9 C21.8,26.4 21,25.1 18.6,25.1 L10.2,25.1 L10.2,44.1 C10.2,46.1 10.6,47 13.7,47 L18.9,47 C24.8,47 25.8,44.9 27.5,37.2 L28.9,37.2 L28.9,37.1 Z" id="路径"></path>
                    <path d="M65.1,58 C65.5,58 65.9,58 66.3,57.9 L66.3,59.5 C64.9,59.9 62.8,60.1 61.1,60.1 C57.8,60.1 55,59.4 53.1,56 L52.2,54.3 C50.8,51.7 49.7,50.1 46.9,49.1 C39.6,47 33.9,38.7 33.9,24.8 C33.9,8.6 41.5,0 50.6,0 C59.7,0 67.3,8.6 67.3,24.8 C67.3,40.7 60,49.2 51.1,49.6 C53.9,50 56.6,51.5 58.2,53.8 L59.2,55.2 C60.5,57.1 62.5,58 65.1,58 Z M50.6,47.7 C57.9,47.7 61.5,39 61.5,24.8 C61.5,10.6 58,1.9 50.6,1.9 C43.3,1.9 39.7,10.6 39.7,24.8 C39.7,39 43.4,47.7 50.6,47.7 Z" id="形状"></path>
                    <path d="M105.2,47.4 L105.2,49 C102.1,48.7 100.7,48.6 98.4,48.6 C96.2,48.6 94.3,48.7 90.8,49 L90.8,47.4 C94.8,47 95.6,46.7 94,41.5 L91.8,34.2 L78,34.2 L75.9,41.5 C74.5,46.6 75.2,47 79.1,47.4 L79.1,49 C77.2,48.8 74.9,48.6 73.2,48.6 C71.5,48.6 70.2,48.8 68.3,49 L68.3,47.4 C71.7,47 72.4,46.2 73.8,41.5 L85.5,0 L86.4,0 L99.8,41.5 C101.5,46.8 101.9,47 105.2,47.4 Z M91.1,32.2 L84.6,11 L78.5,32.2 L91.1,32.2 Z" id="形状"></path>
                </g>
                <g id="路径" transform="translate(287.400000, 2.900000)">
                    <path d="M25.8,36.4 C25.8,43.5 20.2,49.6 12.6,49.6 C8.5,49.6 4.8,47.8 2.9,45.2 L1,50 L-3.91919855e-23,50 L-3.91919855e-23,33.5 L1.4,33.5 C2.6,42.4 5.8,47.8 12.3,47.8 C17.8,47.8 21.1,44.6 21.1,39.3 C21.1,33.8 18.3,30.9 13.7,28.1 L8.4,25 C3.5,22.1 0.3,18.5 0.3,12.2 C0.3,4.4 6.2,0.1 12,0.1 C16.1,0.1 19.3,2.4 20.9,4.9 L22.3,0 L23.3,0 L23.3,14.4 L22,14.4 C20.8,7.4 17.7,1.9 12.2,1.9 C7.4,1.9 4.6,5.2 4.6,10.3 C4.6,14.9 7.1,17.4 11.3,19.8 L17.6,23.5 C22.8,26.4 25.8,30.2 25.8,36.4 Z"></path>
                    <path d="M55.1,2.2 L55.1,0.6 C57.2,0.8 59,1 60.8,1 C62.6,1 64.4,0.8 66.5,0.6 L66.5,2.2 C62.5,2.6 61.8,3.1 61.8,8.4 L61.8,35.5 C61.8,44.8 56.9,49.5 48.6,49.5 C40,49.5 34.6,44.4 34.6,36 L34.6,8.3 C34.6,3 33.9,2.5 29.9,2.1 L29.9,0.5 C34.3,0.9 34.9,0.9 37.3,0.9 C39.7,0.9 40.3,0.8 44.7,0.5 L44.7,2.1 C40.7,2.5 40,3 40,8.3 L40,35.2 C40,43.2 43.7,46.6 49.4,46.6 C56,46.6 59.6,43.1 59.6,35.2 L59.6,8.3 C59.8,3.2 59.1,2.6 55.1,2.2 Z"></path>
                    <path d="M104.6,0.6 L104.6,2.2 C101.2,2.6 100.3,3.4 98.9,8.1 L87.1,49.6 L86.2,49.6 L73.2,8.1 C71.6,2.9 70.8,2.7 67.6,2.3 L67.6,0.7 C70.6,1 72.1,1.1 74.4,1.1 C76.7,1.1 78.6,1 82.2,0.7 L82.2,2.3 C78,2.7 77.6,3.1 79.1,8.2 L88,38.4 L96.8,8.2 C98.3,3.2 98,2.7 93.7,2.3 L93.7,0.7 C95.8,0.9 97.9,1.1 99.7,1.1 C101.2,1.1 102.8,0.9 104.6,0.6 Z"></path>
                </g>
                <g id="形状">
                    <path d="M12.4,18.8 C10.5,21.2 8.8,23.2 7.1,24.9 C5.5,26.6 4.1,27.8 3.1,28.6 C2.1,29.4 1.5,29.8 1.4,29.8 L0.6,30.5 C0.5,30.6 0.3,30.7 0.2,30.7 C0,30.7 0,30.7 0,30.6 C0,30.5 0,30.4 0,30.3 C0,30.2 0.1,30 0.2,29.8 L0.9,28.9 C2.6,26.9 4.3,24.6 6,22.1 C7.7,19.5 9.5,16.3 11.5,12.5 C13.4,8.6 14.8,5.6 15.6,3.3 L16.1,1.9 L16.4,0.7 C16.4,0.6 16.5,0.6 16.5,0.5 L17.5,1.2 L22,4 C22.2,4.1 22.3,4.3 22.4,4.4 C22.5,4.5 22.5,4.7 22.5,4.8 C22.5,5 22.4,5.1 22.1,5.3 L20.7,6.1 L20.5,6.5 C22.1,10.3 23.7,13.1 25.3,14.8 C26.9,16.5 28.2,17.9 29.4,18.8 C30.6,19.7 31.8,20.7 33.1,21.5 C34.4,22.4 35.8,23 37.2,23.5 L38.6,23.9 L39.6,24.2 C39.9,24.3 40,24.4 40,24.5 C40,24.6 40,24.7 40,24.7 C40,24.9 39.9,25 39.8,25.1 L39.2,25.5 C38.6,25.9 38.1,26.2 37.7,26.5 C37.3,26.8 37,27.2 36.6,27.8 C36.2,28.4 35.9,28.9 35.8,29.3 C35.7,29.8 35.6,30.1 35.5,30.2 C35.4,30.3 35.4,30.4 35.3,30.3 C34.9,30.3 33.6,29.4 31.3,27.6 C29,25.8 27.2,23.8 25.7,21.6 C24.3,19.4 23.1,17.3 22.2,15.2 C21.3,13.1 20.6,11.2 20.2,9.5 L19.7,7.5 C16.6,12.7 14.1,16.4 12.4,18.8 Z M21.8,28 C21.7,28.1 21.6,28.3 21.5,28.5 C21.4,28.7 21.2,29 20.8,29.3 L20.8,38.3 L25,38.3 L26.6,35.6 C26.9,35 27.1,34.7 27.2,34.7 C27.3,34.7 27.6,35 28.2,35.6 L31,38.7 C31.3,39.1 31.5,39.4 31.5,39.6 C31.5,39.8 31.3,39.9 30.9,39.9 L20.9,39.9 L20.9,50.9 L30.2,50.9 L32.3,47.7 L32.7,47.2 C32.9,46.9 33,46.7 33.1,46.7 C33.2,46.7 33.5,47 34.1,47.7 L37.2,51.2 C37.4,51.5 37.6,51.7 37.6,51.8 C37.6,51.9 37.7,52.1 37.7,52.3 C37.7,52.5 37.5,52.6 37,52.6 L34.8,52.6 L1.9,52.6 C1.5,52.6 1.4,52.3 1.4,51.8 C1.4,51.3 1.6,51 1.9,51 L16.7,51 L16.7,40 L7.6,40 L7.4,40 C7.3,39.9 7.1,39.9 7.1,39.8 C7,39.7 7,39.4 7,39 C7,38.6 7.2,38.3 7.4,38.3 L16.7,38.3 L16.7,28 L7.5,28 C7.2,28 7,27.7 7,27.2 C7,26.7 7.2,26.4 7.5,26.4 L22.7,26.4 L24.3,23.9 C24.7,23.3 24.9,23 24.9,23 C25,23 25.2,23.3 25.7,23.7 L28.5,26.7 C28.8,27 28.9,27.3 28.9,27.5 C28.9,27.8 28.7,27.9 28.3,27.9 L25.5,27.9 L21.8,27.9 L21.8,28 L21.8,28 Z"></path>
                    <path d="M59.1,8.9 L60.2,6.8 C60.6,6 60.8,5.6 60.9,5.6 C61,5.6 61.3,5.9 61.8,6.6 L63.7,9 C64.1,9.5 64.3,9.9 64.3,10 C64.3,10.1 64.2,10.2 64.1,10.3 C64,10.4 63.9,10.5 63.7,10.5 L59.9,10.5 L59.9,10.6 L57.9,10.6 L61.3,13.2 C61.6,13.4 61.8,13.6 61.8,13.7 C61.8,13.8 61.9,13.9 61.9,14.1 C61.9,14.3 61.7,14.4 61.4,14.5 L60.2,15.1 C58.9,18 57.9,20.3 57.2,21.9 L59.7,21.9 L60.8,19.9 C61.1,19.3 61.3,18.9 61.4,18.9 C61.5,18.9 61.5,18.9 61.6,18.9 C61.7,19 61.9,19.2 62.2,19.6 L64,22 C64.5,22.6 64.7,23 64.7,23.1 C64.7,23.2 64.6,23.3 64.5,23.4 C64.4,23.5 64.2,23.6 64,23.6 L57,23.6 C56.9,23.7 56.8,23.8 56.8,23.9 C56.7,24 56.6,24.2 56.3,24.4 L56.3,30.7 L58.2,30.7 L59.6,28.3 C59.8,27.9 60,27.7 60.1,27.6 C60.2,27.6 60.5,27.9 61,28.4 L63.2,31.2 C63.4,31.4 63.5,31.6 63.5,31.8 C63.5,31.9 63.4,32 63.4,32.1 C63.3,32.2 63.2,32.2 63.1,32.2 L56.3,32.2 L56.3,48.2 C56.3,49.1 56.2,49.8 55.9,50.3 C55.6,50.8 55.3,51.2 54.9,51.5 C54.5,51.7 54,52 53.2,52.3 C52.5,52.6 52,52.8 51.7,52.7 C51.6,52.7 51.6,52.7 51.5,52.6 C51.5,52.6 51.4,52.5 51.4,52.4 C51.4,52.3 51.4,52 51.3,51.7 C51.3,51.4 51.2,50.9 51.1,50.2 C51,49.5 50.5,49 49.7,48.4 L48.5,47.6 C48.2,47.4 48.1,47.2 48.1,47 C48.1,46.7 48.3,46.6 48.6,46.6 L50,46.8 C50.3,46.9 50.6,46.9 50.8,46.9 C51,46.9 51.2,46.9 51.3,46.9 L52,46.9 C52.5,47 52.8,46.8 52.8,46.3 L52.8,32.1 L44.9,32.1 L44.6,32 C44.3,31.8 44.2,31.5 44.1,31 C44,30.5 44.3,30.4 44.7,30.4 L52.7,30.4 L52.7,23.2 L44.3,23.2 L44.1,23.1 C44,23 43.9,23 43.8,22.9 C43.7,22.8 43.7,22.6 43.7,22.1 C43.7,21.7 43.9,21.5 44.3,21.5 L55.6,21.5 C55.9,20.1 56.3,18.4 56.7,16.2 C57.1,14 57.3,12.6 57.4,11.8 L57.6,10.2 L45.3,10.2 C45,10.2 44.8,9.9 44.7,9.4 C44.6,8.8 44.8,8.6 45.3,8.6 L59.1,8.6 L59.1,8.9 Z M50.6,37.8 C49.9,39.5 49.4,40.7 49.1,41.3 C48.8,41.9 48.2,43.2 47.2,45 C46.2,46.8 45.6,48 45.3,48.4 L44.4,49.8 C44.2,50.1 44.1,50.2 44,50.2 L43.9,50.2 C43.9,50.2 43.8,50.1 43.8,49.9 C43.8,49.7 43.8,49.5 43.9,49.2 L44.4,47.9 C44.5,47.7 44.7,47 45,45.9 C45.3,44.8 45.5,44.1 45.6,43.8 C45.7,43.5 45.9,42.5 46.3,40.9 C46.7,39.3 46.9,38.1 47,37.3 L47.3,35.4 L47.4,34 C47.4,33.9 47.5,33.9 47.5,33.8 L48.1,34.2 L51.1,36.1 C51.4,36.3 51.6,36.5 51.6,36.6 C51.6,36.7 51.6,36.8 51.5,36.9 C51.4,37 51.4,37.1 51.3,37.1 L50.6,37.8 Z M48.4,14 L48,13 C48,13 48,12.9 47.9,12.7 C47.9,12.6 47.9,12.5 47.9,12.4 C47.9,12.2 48,12.1 48.2,12.1 C48.4,12.1 49.1,12.7 50.5,14 C51.9,15.2 52.5,16.8 52.5,18.6 C52.5,19.4 52.3,20.1 51.9,20.7 C51.5,21.4 51,21.7 50.4,21.7 C49.6,21.7 49.1,21.4 49,20.6 C48.9,19.8 48.9,19.2 48.9,18.6 C48.9,18 48.9,17.5 48.9,17.1 C48.9,15.7 48.6,14.7 48.4,14 Z M50.8,1.4 L50.3,0.7 C50.2,0.6 50.2,0.5 50.2,0.4 C50.2,0.3 50.2,0.2 50.2,0.2 C50.2,0.1 50.3,0 50.5,0 C50.6,0 51.1,0.1 51.8,0.4 C52.6,0.6 53.4,1.1 54.4,1.6 C55.4,2.2 55.9,3 56.1,4 C56.2,5 56.3,5.6 56.3,5.8 C56.3,6 56.3,6.2 56.2,6.5 C56.1,7 55.8,7.6 55.5,8.1 C55.2,8.7 54.6,8.9 54,8.9 C53.3,8.9 52.8,8.7 52.5,8.2 C52.2,7.7 52.1,7.1 52,6.5 L51.8,4.6 C51.7,4.1 51.7,3.7 51.5,3.2 C51.2,2.7 51.1,2.1 50.8,1.4 Z M77.1,20.8 L78.2,18.6 C78.6,17.8 78.8,17.3 78.9,17.3 C79,17.2 79,17.3 79.1,17.3 C79.2,17.4 79.5,17.7 80,18.4 L82.1,21.1 C82.3,21.4 82.4,21.6 82.4,21.7 C82.4,21.8 82.5,21.9 82.5,22 C82.5,22.3 82.4,22.5 82.1,22.5 L77.3,22.5 C77.1,22.8 77,23 76.9,23.1 C76.8,23.2 76.7,23.3 76.5,23.4 L76.5,49.3 L76.6,53.1 C76.4,53.8 76.1,54.3 75.5,54.6 C75,54.9 74.5,55 74,55 C73.4,55 73.1,54.9 73,54.6 C72.9,54.3 72.8,54.1 72.7,53.7 L72.9,47.5 L72.9,22.4 L68.7,22.4 C68.6,25 68.6,27.4 68.5,29.4 C68.4,31.4 68.3,33.2 68.1,34.9 C67.9,36.6 67.4,38.5 66.8,40.8 C66.1,43.1 65.1,45.1 63.8,46.9 C62.5,48.7 61.4,50 60.6,51 C59.8,51.9 59.2,52.5 58.7,52.9 L57.8,53.7 C57.6,53.8 57.5,53.9 57.4,53.9 C57.3,53.9 57.2,53.9 57.2,53.8 C57.2,53.7 57.2,53.7 57.1,53.6 C57.1,53.5 57.1,53.5 57.1,53.4 C57.1,53.3 57.2,53.2 57.4,53 L58.2,52.1 C60.1,49.8 61.6,47.4 62.7,44.8 C63.8,42.2 64.5,39.6 64.8,36.8 C65.1,34 65.3,31.4 65.4,29 C65.5,26.6 65.5,23.8 65.5,20.4 C65.5,18.2 65.5,16.1 65.4,14 C65.3,11.9 65.3,10.7 65.3,10.5 L65.3,9.3 L65,5 C65.1,5 65.1,4.9 65.1,4.9 C65.1,4.9 65.5,5.1 66.1,5.5 L69.1,7.7 C71.6,6.3 73.6,5 75.1,3.6 L76.1,2.7 L76.8,1.9 C76.9,1.9 77,1.9 77.1,1.9 L77.8,2.9 L80.2,5.7 C80.6,6.2 80.8,6.5 80.8,6.7 C80.8,6.9 80.6,7.1 80.4,7.1 L79.1,7.3 L73.4,8.5 L68.8,9.3 C68.8,11.5 68.8,13.2 68.8,14.3 L68.8,17.6 L68.8,20.9 L77.1,20.8 L77.1,20.8 Z M58.1,37.1 L57.7,36.4 C57.5,36 57.4,35.8 57.5,35.6 C57.5,35.4 57.6,35.3 57.6,35.3 C57.6,35.3 57.7,35.3 57.7,35.2 C58,35.2 58.6,35.6 59.6,36.5 C60.6,37.4 61.3,38.2 61.8,39.1 C62.3,40 62.5,40.9 62.5,41.8 C62.5,42.5 62.3,43.2 61.9,43.8 C61.5,44.4 61.1,44.7 60.5,44.7 C59.8,44.7 59.4,44.4 59.2,43.9 C59,43.3 58.9,42.7 58.9,42.1 L58.9,40.3 C58.9,39.1 58.6,38 58.1,37.1 Z"></path>
                    <path d="M203.4,20.5 L209.8,21.1 C210.1,20.3 210.5,19.4 210.9,18.4 C211.3,17.5 211.6,16.7 211.7,16.3 L212.3,14.6 L212.5,14 C212.5,13.9 212.6,13.9 212.6,13.9 C212.6,13.9 212.8,14 213,14.2 L216.3,17.3 C216.4,17.4 216.5,17.6 216.6,17.6 C216.6,17.7 216.7,17.8 216.7,17.9 C216.7,18 216.6,18.1 216.3,18.2 L215.1,18.7 C211.9,24.3 208.7,29.6 205.6,34.7 L211.5,33.9 L213.7,33.5 C214.1,33.4 214.3,33.5 214.3,33.8 C214.3,34.1 214.1,34.3 213.8,34.4 L211.9,35.2 C211.3,35.5 210.1,36.1 208.5,36.9 C206.8,37.8 205.8,38.3 205.3,38.6 L203.8,39.5 C203.3,39.8 203,39.9 203,39.9 C203,39.9 202.9,39.7 202.8,39.5 L201.6,35.4 C201.5,35 201.4,34.7 201.4,34.7 C201.4,34.7 201.4,34.6 201.5,34.6 L201.9,34.5 L202.6,34.2 C202.9,34.1 203.2,33.9 203.4,33.7 C203.7,33.5 204.2,32.6 205,31.2 C205.8,29.8 207.3,26.7 209.5,22.1 C207.7,22.5 206,23 204.4,23.6 L202.3,24.4 L201.6,24.7 C201.5,24.7 201.4,24.4 201.3,23.8 L200.4,20.4 C200.3,20.1 200.3,20 200.3,19.9 C200.3,19.9 200.4,19.8 200.6,19.7 L201.4,19.3 C202.1,19 202.8,17.8 203.5,15.8 C204.2,13.8 205,11.7 205.6,9.6 C206.3,7.5 206.7,6.1 206.9,5.3 L207.5,2.9 L207.7,2.2 C207.8,2.1 207.9,2.2 208.2,2.3 L212.1,4.8 C212.2,4.9 212.3,5 212.4,5.1 C212.5,5.2 212.5,5.3 212.5,5.4 C212.5,5.5 212.4,5.6 212.4,5.7 C212.3,5.8 212.2,5.9 212.1,6 L211,6.5 L203.4,20.5 Z M203.3,46.8 C207.8,45.3 211.3,44.1 214,43.1 L215.5,42.5 C215.6,42.5 215.7,42.5 215.8,42.5 C215.9,42.5 216,42.7 216,42.8 C216,43 215.9,43.1 215.7,43.3 L214.4,44.3 L209.6,48 C207.3,49.7 205.9,50.8 205.4,51.3 L203.7,52.8 C203.4,53.1 203.2,53.2 203.2,53.2 C203.2,53.2 203.1,53 203.1,52.8 L201.8,48.5 C201.6,47.9 201.5,47.6 201.5,47.5 C201.5,47.5 201.5,47.4 201.6,47.4 L202,47.3 L203.3,46.8 Z M223.2,12.1 L223.2,6.2 L223.1,0.8 L223.2,0.7 C223.2,0.7 223.4,0.7 223.9,0.9 L227.8,2 C228.1,2.1 228.2,2.2 228.2,2.4 C228.2,2.6 228.1,2.8 228,2.9 L226.9,3.9 L226.9,12.1 L231.7,12.1 L233.4,9 C233.6,8.7 233.7,8.5 233.7,8.5 C233.7,8.5 233.9,8.6 234.1,8.8 L237.4,12.8 C237.5,12.9 237.6,13.1 237.6,13.1 C237.6,13.2 237.6,13.3 237.6,13.4 C237.6,13.5 237.4,13.5 237.1,13.5 L232.6,13.5 L232.6,13.6 L226.9,13.6 L226.9,34.4 L231.7,34.4 L231.7,25 L231.6,19.2 C231.6,19.1 231.7,19.1 231.7,19 L232.4,19.2 L236.1,20.4 C236.5,20.5 236.6,20.7 236.5,20.9 C236.4,21.1 236.3,21.2 236.2,21.3 L235.2,22.3 L235.2,33.3 L235.3,37.5 C235.2,37.9 235.1,38.2 235,38.4 C234.9,38.6 234.4,38.9 233.5,39.2 C232.7,39.5 232.2,39.5 231.9,39.1 C231.7,38.7 231.6,38.3 231.6,37.8 L231.6,36.1 L226.8,36.1 L226.8,47.4 C226.8,48.1 227,48.8 227.3,49.4 C227.6,50 228.5,50.3 230.1,50.2 C232.2,50.1 233.6,50 234.1,49.7 C234.6,49.5 235,49.2 235.3,48.8 C235.6,48.4 235.9,47.8 236.1,47 L237,43.9 L237.7,41.5 C237.8,41.2 237.9,41 238,41 C238.1,41 238.2,41 238.2,41.1 C238.2,41.2 238.3,41.3 238.3,41.4 C238.3,41.5 238.3,41.6 238.3,41.7 L238,44.5 C237.8,45.9 237.8,46.9 237.8,47.5 C237.8,48.1 237.9,48.7 238.1,49.2 L238.7,50.5 C238.8,50.8 238.8,51.1 238.8,51.3 C238.8,51.5 238.7,51.9 238.5,52.5 C238.3,53.1 237.7,53.6 236.7,54 C235.7,54.5 233.5,54.7 230.4,54.7 C228.5,54.7 226.9,54.5 225.5,53.9 C224.1,53.3 223.3,51.8 223.3,49.3 L223.3,35.9 L218.8,35.9 L217.6,38.5 C217.5,38.7 217.4,38.8 217.4,38.8 L217.2,38.6 L214.8,36.1 C214.6,35.9 214.5,35.8 214.6,35.6 L214.6,35.5 L214.6,35.4 L214.8,35.1 L215.6,34.1 L215.6,24.7 L215.5,19.5 C215.5,19.5 215.6,19.5 215.6,19.4 L216.2,19.7 L219.8,21 C220,21.1 220.1,21.2 220.1,21.4 C220.1,21.6 220,21.8 219.8,22 L218.9,23.1 L218.9,34.3 L223.3,34.3 L223.3,13.5 L214.4,13.5 C214.1,13.5 213.9,13.2 213.9,12.7 C213.9,12.2 214.1,11.9 214.4,11.9 L223.2,11.9 L223.2,12.1 L223.2,12.1 Z"></path>
                    <path d="M271.1,34.4 L262.2,34.4 L262.2,45.1 C262.2,45.5 262.2,45.9 262.3,46.2 C262.4,46.5 262.7,46.9 263.2,47.4 C263.8,47.9 265.7,48.2 269.2,48.2 C272.9,48.2 275.2,47.9 276,47 C276.8,46.2 277.4,45.4 277.7,44.6 C278,43.8 278.3,42.7 278.7,41.4 L279.6,37.9 C279.7,37.6 279.8,37.5 279.9,37.5 C280.1,37.5 280.1,37.6 280.2,37.8 C280.2,38 280.2,38.1 280.2,38.1 L279.8,42.1 C279.7,43.1 279.7,43.9 279.7,44.4 C279.7,45 279.8,45.4 279.9,45.8 C280,46.2 280.2,46.6 280.4,46.9 C280.6,47.2 280.8,47.5 280.8,47.7 C280.9,47.9 280.9,48.2 280.9,48.5 C280.9,48.8 280.8,49.2 280.7,49.6 C279.8,52 276.4,53.3 270.5,53.3 C269.5,53.3 268.3,53.3 266.9,53.2 C265.5,53.1 264,52.9 262.5,52.6 C261,52.3 259.9,51.6 259.4,50.6 C258.9,49.6 258.6,48.4 258.6,47 L258.6,34.4 L250.2,34.4 L250.2,39.4 C250.2,39.9 249.9,40.3 249.4,40.6 C248.9,41 248.3,41.1 247.8,41.1 C247.3,41.1 247,41 246.9,40.7 C246.7,40.5 246.6,40.2 246.5,39.8 L246.7,33.5 L246.7,14.4 L246.5,9 C246.6,8.9 246.6,8.8 246.7,8.8 C246.7,8.8 247,8.9 247.4,9.3 L250.5,11.6 L258.6,11.6 L258.6,8.3 L258.4,1.1 C258.5,1 258.6,0.9 258.7,0.9 L259.5,1.1 L263,2.1 C263.2,2.2 263.4,2.3 263.5,2.4 C263.6,2.5 263.7,2.7 263.7,2.9 C263.7,3.1 263.6,3.3 263.3,3.7 L262.2,4.9 L262.2,11.7 L270.9,11.7 L272,9.7 C272.2,9.4 272.3,9.2 272.4,9.2 C272.5,9.2 272.8,9.4 273.3,9.9 L275.9,12.3 C276.1,12.5 276.2,12.6 276.2,12.7 C276.2,12.8 276.2,12.8 276.2,12.9 C276.2,12.9 276,13.2 275.7,13.6 L274.9,14.8 L274.9,32.3 L275.1,36.9 C274.7,38.3 274,39 272.8,39 C271.6,39 271,38.6 271,37.7 L271.1,34.4 Z M258.5,22.2 L258.5,13.1 L250.1,13.1 L250.1,22.2 L258.5,22.2 Z M258.5,32.8 L258.5,23.8 L250.1,23.8 L250.1,32.8 L258.5,32.8 Z M271.1,22.2 L271.1,13.1 L262.2,13.1 L262.2,22.2 L271.1,22.2 Z M271.1,32.8 L271.1,23.8 L262.2,23.8 L262.2,32.8 L271.1,32.8 Z"></path>
                </g>
            </g>
            <g id="。备份-2" transform="translate(268.474609, 38.521484)"></g>
        </g>
    </g>
</svg>