<?xml version="1.0" encoding="UTF-8"?>
<svg width="295px" height="128px" viewBox="0 0 295 128" version="1.1" xmlns="http://www.w3.org/2000/svg" xmlns:xlink="http://www.w3.org/1999/xlink">
    <title>pc-</title>
    <g id="页面-1" stroke="none" stroke-width="1" fill="none" fill-rule="evenodd">
        <g id="pc-" transform="translate(0.900000, 0.000000)" fill="#FFFFFF" fill-rule="nonzero">
            <rect id="矩形_2_" opacity="0.6" x="0.7" y="77.5" width="36.1" height="1.2"></rect>
            <g id="Group_3_" transform="translate(0.400000, 0.000000)">
                <path d="M11.7,40.2 C8.6,44.6 5.4,48.2 2.1,50.9 L0.6,52 C0.4,52.2 0.1,52.2 0.1,52.1 C-1.13242749e-14,52 -1.13242749e-14,51.9 -1.13242749e-14,51.7 C-1.13242749e-14,51.6 0.1,51.3 0.2,51.2 L1.9,49.2 C4,46.9 5.6,44.5 6.8,42.4 C8,40.3 9.1,38.1 10.3,36 C11.4,33.9 12.3,32.2 12.8,30.9 C13.4,29.7 14.2,27.9 14.9,26 C15.8,24 16.3,22.7 16.4,22.1 L17.4,19 C16.4,13.9 15.8,10.7 15.6,9.4 C15.4,8 15.1,7.1 15.1,6.4 C15,5.8 14.9,5.2 14.6,4.7 C14.4,4.1 14.2,3.6 14,3.2 C13.8,2.7 13.8,2.5 13.8,2.3 L13.8,2.3 L13.8,2.2 C13.8,2.1 13.9,2 14,2 C14.1,1.9 14.4,1.9 14.5,1.9 L18.7,2.5 C19.1,2.6 19.3,2.7 19.4,2.9 C19.5,3 19.5,3.1 19.5,3.3 C19.5,3.4 19.5,3.5 19.4,3.8 C19.3,4 19.3,4.2 19.2,4.3 L18.1,5.8 C18.2,6.9 18.5,8 18.6,9.1 C18.7,10.1 19.3,12.7 20.2,16.6 C21.1,20.5 22.3,24.5 23.8,28.3 C25.3,32.1 27.3,35.7 29.7,39.1 C32.1,42.5 34.9,44.9 37.6,46.1 L38.7,46.6 C38.8,46.7 38.9,46.8 38.9,47.1 C38.9,47.3 38.8,47.5 38.7,47.6 L37.8,47.8 C37.3,47.9 36.8,48.2 36.3,48.7 C35.8,49.1 35.3,49.6 34.9,50.2 C34.5,50.8 34.3,51.3 34,51.7 C33.9,52.2 33.6,52.3 33.5,52.3 C33,52.3 31.9,51.3 30.2,49.1 C28.5,46.9 27.1,45 26.3,43.6 C25.3,42.1 24.3,40.1 23.3,37.6 C22.2,35.1 21.5,33.2 21,31.7 L19.6,27.4 C17.4,31.6 14.8,35.7 11.7,40.2 Z" id="Path_7_"></path>
                <path d="M78,11.8 L78,11.8 L51.2,11.8 C51.2,14 51.2,17.2 51.2,21.3 C51.2,25.4 51.1,29.3 50.8,33.3 C50.6,37.2 49.9,40.6 49.1,43.5 C48.1,46.3 46.9,48.9 45.4,51.3 L44.2,53.1 C43.6,54.1 43.2,54.5 43,54.5 C42.9,54.5 42.8,54.5 42.8,54.4 C42.8,54.3 42.8,54.2 42.8,54.2 C42.8,54.1 42.9,53.7 43.2,53.3 C43.4,52.9 43.6,52.6 43.7,52.3 L44.6,50.2 C45,49.2 45.5,48 45.8,46.6 C46.2,45.2 46.5,43.6 46.8,41.8 C47,40 47.3,37.9 47.4,35.6 C47.3,33.4 47.3,30.9 47.3,28.1 L47.2,20.7 C47.2,17.9 47.1,16 47.1,14.9 L46.7,8.4 C46.7,8.4 46.7,8.3 46.7,8.2 C46.7,8.1 46.7,8 46.8,8 C46.8,8 47.2,8 47.5,8.2 L51.6,10.3 L74.4,10.3 L75.9,7.8 C76.3,7.2 76.5,6.8 76.8,6.8 C76.9,6.8 77.3,7.2 77.9,7.8 L80.1,10.5 C80.6,11.1 80.8,11.5 80.8,11.6 C80.8,11.7 80.7,11.8 80.6,11.8 L78,11.8 L78,11.8 Z M63.1,51.4 L63.1,42.3 L53.7,42.3 L53.5,42.3 C53.3,42.3 53.1,42.2 53,42.1 C53,42 52.9,41.7 52.9,41.4 C52.9,41.1 53,40.8 53.5,40.8 L63.2,40.8 L63.2,18.5 L63.1,13.3 C63.2,13.2 63.2,13.1 63.3,12.9 L63.7,13 L67.2,14.1 C67.7,14.2 67.9,14.5 68.1,14.5 C68.2,14.6 68.2,14.6 68.2,14.7 C68.2,14.7 68.2,14.8 68.2,14.9 C68.2,15 68,15.3 67.6,15.8 L66.7,16.9 L66.7,40.6 L72.2,40.6 L73.4,38.4 C73.8,37.7 74,37.4 74.1,37.4 C74.2,37.4 74.5,37.6 75,38.1 L77.2,40.6 C77.7,41.1 77.9,41.6 77.9,41.8 C77.9,42.2 77.8,42.3 77.4,42.3 L66.7,42.3 L66.7,51.4 L75.3,51.4 L76.7,48.9 C77.2,48 77.4,47.5 77.6,47.5 C77.7,47.5 78.1,47.9 78.7,48.6 L80.8,51.2 C81.3,51.9 81.7,52.3 81.5,52.7 C81.5,52.8 81.3,52.9 81,52.9 L49,52.9 C48.8,52.9 48.6,52.8 48.5,52.7 C48.4,52.6 48.4,52.3 48.3,52 C48.3,51.6 48.4,51.4 48.9,51.4 L63.1,51.4 L63.1,51.4 L63.1,51.4 Z M57.4,26.5 C59,27.6 60.2,28.7 61.1,29.6 C61.8,30.5 62.3,31.4 62.3,32.3 C62.3,33.3 62.2,34.1 61.9,34.9 C61.7,35.6 61,36 60.4,36 C60,36 59.8,35.9 59.4,35.5 C59,35.3 58.9,34.8 58.8,34.3 C58.7,33.8 58.7,33.1 58.6,32.1 C58.5,31.1 58.4,30.3 58.2,29.8 C58.1,29.2 57.8,28.8 57.7,28.6 L57.1,27.7 C56.5,29.4 56,31 55.4,32.6 C54.8,34.2 54,35.7 53.2,37.2 L52.2,38.9 C51.8,39.5 51.6,39.8 51.5,39.8 C51.4,39.8 51.4,39.8 51.3,39.7 C51.3,39.6 51.3,39.6 51.2,39.5 C51.2,39.4 51.2,39.3 51.3,39.1 L51.7,38 L52.4,35.8 C52.6,35.1 53,33.6 53.5,31.4 C54,29.2 54.4,27 54.7,24.7 C55.1,22.5 55.2,21 55.3,20.1 L55.3,17.4 C55.3,17.2 55.3,17 55.4,16.9 C55.4,16.9 55.6,16.9 55.9,17 L59.3,18.4 C59.9,18.6 60.2,18.9 60.3,18.9 C60.4,19 60.4,19.1 60.4,19.3 C60.4,19.5 60.3,19.7 59.8,20 L59.1,20.7 L57.4,26.5 Z M59.5,0.9 C59.5,0.7 59.6,0.7 60,0.5 C60,0.5 60.1,0.5 60.4,0.5 L61.1,0.6 C61.5,0.7 62.5,1.2 64.1,2 C65.7,2.9 66.4,4.3 66.4,6.6 C66.4,7.1 66.3,7.8 65.9,8.8 C65.7,9.8 64.9,10.2 63.8,10.2 C63.3,10.2 62.8,10.1 62.4,9.7 C62,9.3 61.8,9 61.7,8.6 C61.6,8.1 61.5,7.4 61.4,6.4 C61.3,5.4 61.2,4.6 60.9,4.1 C60.6,3.6 60.5,3 60.2,2.5 L59.5,1.5 C59.7,1.2 59.5,1.1 59.5,0.9 Z M75.4,21 L73.7,27.2 C76.7,28.2 78.5,29.4 79.1,30.7 C79.7,32.1 80.1,33 80.1,33.7 C80.1,34.4 80,34.9 79.7,35.5 C79.5,36.1 79.1,36.5 78.6,36.7 C78.1,36.9 77.6,36.9 77.2,36.8 C76.7,36.6 76.5,36.3 76.3,35.8 C76.2,35.4 75.9,34.6 75.7,33.3 C75.5,32.1 75.2,31.2 75,30.5 C74.8,29.9 74.5,29.4 74.3,29.1 L73.4,28 C72.8,29.7 72.2,31.2 71.4,32.6 C70.8,34 70.3,34.8 69.9,35.4 L68.5,37.6 C68.4,37.7 68.3,38 67.9,38.3 C67.5,38.6 67.4,38.8 67.3,38.8 L67.3,38.8 C67.3,38.8 67.3,38.7 67.3,38.6 C67.3,38.5 67.4,38.2 67.5,37.6 C67.7,37.1 67.9,36.9 67.9,36.7 L68.6,34.2 C69,33 69.3,31.6 69.7,30.3 C70.1,28.9 70.4,27.1 70.8,24.8 C71.2,22.5 71.4,20.9 71.5,20 L71.7,17 C71.7,17 71.7,16.9 71.8,16.8 C71.9,16.7 71.9,16.7 72.2,16.8 L75.8,18.6 C76,18.7 76.3,18.8 76.4,19 C76.5,19.2 76.5,19.2 76.5,19.2 C76.5,19.3 76.5,19.4 76.4,19.6 C76.3,19.8 76.2,19.8 76,20 L75.4,21 Z" id="Shape_25_"></path>
                <path d="M91.2,21 C89.1,25.2 87.6,28 86.8,29.4 L86.2,30.4 C86.1,30.6 86,30.6 85.8,30.5 C85.7,30.4 85.7,30.3 85.7,30.1 C85.7,29.9 85.7,29.9 85.8,29.6 L86.4,28.2 C87.5,25.6 88.6,22 89.7,17.5 C90.9,12.9 91.7,9.6 92,7.6 C92.4,5.6 92.6,4 92.9,2.7 L93.1,1 L93.3,0.2 C93.3,0.2 93.3,0.1 93.4,0.1 C93.4,0.1 93.6,0.2 94,0.3 L98.4,2.9 C98.6,3 98.8,3.1 98.6,3.4 C98.6,3.5 98.5,3.8 98.4,3.9 L97,4.9 C95.9,8.2 94.8,11.3 93.7,14.5 L95.4,15.6 C95.5,15.7 95.6,15.8 95.8,16 C95.9,16 95.9,16.1 95.9,16.1 C95.9,16.1 95.9,16.2 95.8,16.5 C95.7,16.6 95.7,16.7 95.6,16.9 L94.7,17.9 L94.7,46.9 L94.9,53.1 C94.8,53.3 94.8,53.6 94.7,53.8 C94.6,54 94.2,54.3 93.5,54.4 C92.8,54.6 92.3,54.8 91.9,54.6 C91.7,54.6 91.4,54.5 91.3,54.4 C91.2,54.4 91.1,54.3 91.1,53.9 L91.3,46.5 L91.3,25.6 L91.2,21 Z M105.6,30.2 C103.8,35 102.3,38.2 101.3,39.9 C100.3,41.6 99.3,43.4 98.3,45 L97.3,46.6 C97.1,47 96.9,47 96.8,46.8 C96.7,46.7 96.7,46.6 96.7,46.4 C96.7,46.3 96.7,46.2 96.8,45.9 L97.5,44.1 C97.7,43.4 98.2,42 98.9,40 C99.6,38 100.1,36.1 100.5,34 C101,31.9 101.2,30.4 101.4,29.4 L101.9,26.4 L102,25.7 C102,25.7 102.2,25.7 102.5,25.8 L106.7,28.4 C106.9,28.6 107.1,28.8 107.1,29 C107.1,29.2 107,29.4 106.7,29.5 L105.6,30.2 Z M117.7,14.9 L104.4,14.9 C104.3,15.1 104.2,15.4 104.2,15.5 L102.6,19.3 C101.6,21.6 100.4,23.9 99.3,26 L98.3,27.7 C98.1,28.1 97.9,28.1 97.9,27.9 C97.8,27.8 97.8,27.7 97.8,27.5 C97.8,27.4 97.8,27.4 97.9,27.1 L98.6,24.9 C100.3,19.4 101.6,14.8 102.2,10.9 C102.8,7.1 103.2,4.7 103.3,3.9 L103.5,2.1 L103.3,1.2 L103.4,1.1 C103.4,1.1 103.8,1.2 104.3,1.5 L108.4,3.7 C108.5,3.8 108.6,3.9 108.8,3.9 C108.9,4 108.9,4.1 108.9,4.3 C108.9,4.5 108.8,4.5 108.7,4.7 L107.6,5.6 C106.7,8.4 106,11 105.1,13.4 L117.8,13.4 L119,11.4 C119.1,11.3 119.2,11.2 119.2,11.2 C119.3,11.2 119.4,11.3 119.6,11.4 L123.3,15.8 C123.5,16.2 123.8,16.5 123.7,16.8 C123.7,17 123.6,17.3 123.5,17.5 C123.4,17.6 122.9,17.7 122.3,17.7 C121.7,17.7 120.9,18.1 120.1,18.6 C119.2,19.2 118.5,20.3 117.6,21.9 L116.7,23.5 C116.5,23.9 116.3,24 116.2,23.9 C116.1,23.8 116.1,23.7 116.1,23.5 C116.1,23.4 116.1,23.4 116.1,23.3 C116.1,23.2 116.1,23.2 116.1,23.1 L116.6,21.3 C116.5,20.6 117,18.5 117.7,14.9 Z M112.2,21.9 L112.2,49.8 C112.2,50.3 112.1,50.9 112,51.6 C111.8,52.3 111.3,52.8 110.4,53.2 C109.5,53.6 108.9,53.8 108.7,53.8 L108.1,53.9 C107.9,53.9 107.6,54 107.6,53.9 C107.5,53.9 107.5,53.8 107.5,53.5 L107.1,52.1 C106.9,51.5 106.6,50.9 106.1,50.3 C105.6,49.7 105.1,49.3 104.6,49.1 L103,48.2 C102.8,48.1 102.8,48 102.8,47.7 C102.8,47.6 102.8,47.5 102.9,47.3 C103,47.2 103,47.2 103.1,47.2 L104.7,47.4 C106.2,47.6 107.2,47.8 107.5,47.6 C108,47.6 108.4,47.5 108.6,47.1 C108.8,46.9 109,46.5 109,46.1 L109,24.4 L108.4,17.6 C108.5,17.6 108.5,17.5 108.6,17.5 C108.6,17.5 108.8,17.5 109.2,17.6 L113.5,19.2 C113.7,19.3 113.9,19.4 113.9,19.7 C113.9,19.9 113.8,20.1 113.7,20.3 L112.2,21.9 Z M114.2,28.3 C114.3,28.3 114.3,28.2 114.2,28.3 C114.3,28.2 114.7,28.4 115.3,28.8 C115.9,29.2 116.9,30.2 118.5,31.6 C120,33.1 121.2,34.9 122.1,37 C123,39.1 123.3,40.9 123.3,42.5 C123.3,43.6 123.1,44.6 122.6,45.3 C122.2,46 121.6,46.4 121,46.4 C120.3,46.4 119.8,46 119.4,45.3 C119,44.6 118.8,43.2 118.5,41.4 C118.3,39.4 118,37.8 117.6,36.2 C117.2,34.7 116.9,33.6 116.5,32.9 C116.3,32.3 115.8,31.4 115.3,30.6 C114.8,29.7 114.4,29.2 114.3,29 C114.2,28.9 114.1,28.6 114.1,28.5 C114.1,28.6 114.1,28.5 114.2,28.3 Z" id="Shape_24_"></path>
                <path d="M140.7,43.8 L133.4,43.8 L133.4,49.6 C133.4,50 133.3,50.5 133,51 C132.7,51.5 132.3,51.7 131.5,51.7 C130.7,51.7 130.4,51.6 130.3,51.5 C130.2,51.3 130.1,51 129.9,50.8 L130.1,43.4 L130.1,19.8 L129.9,10.1 C130,10.1 130,10 130.1,10 C130.2,10 130.5,10.1 131,10.5 L133.5,12.2 L134.6,12.2 C134.7,10.6 134.8,9.1 135,8 C135.1,6.9 135.2,5.7 135.2,4.3 L135.3,1.2 L135.4,0.1 L135.5,-3.60822483e-16 C135.5,-3.60822483e-16 135.7,-3.60822483e-16 136.1,0.2 L139.8,2.2 C140.2,2.3 140.3,2.6 140.4,2.6 C140.5,2.7 140.5,2.8 140.5,3 C140.5,3.1 140.3,3.4 139.9,3.6 L138.9,4.1 C138.5,5.2 138.2,5.9 138,6.4 L136.8,9.9 L135.9,12.2 L140.1,12.2 L141.2,10.1 C141.3,9.9 141.4,9.7 141.6,9.7 C141.8,9.7 141.8,9.8 142.2,10.1 L144.8,12.6 C144.9,12.7 145,12.8 145.2,13 C145.2,13.1 145.3,13.2 145.3,13.2 C145.3,13.3 145.2,13.4 145.1,13.7 L144.2,14.8 L144.2,43.1 L144.3,47.7 C144.2,48.3 143.8,48.9 143.2,49.2 C142.6,49.6 142.1,49.7 141.6,49.7 C141.1,49.7 140.9,49.6 140.7,49.3 C140.6,49.1 140.6,48.7 140.6,48.2 L140.7,43.8 L140.7,43.8 Z M140.7,26.4 L140.7,13.8 L133.4,13.8 L133.4,26.4 L140.7,26.4 Z M140.7,42.2 L140.7,28 L133.4,28 L133.4,42.2 L140.7,42.2 Z M150.4,14.4 C150,15.4 149.5,16.9 148.8,19 C148.1,21.1 147.6,22.5 147.2,23.1 L146.3,25.2 L145.6,27 C145.5,27.4 145.4,27.5 145.1,27.5 C145,27.5 145,27.5 145,27.5 C145,27.5 145,27.4 144.9,27.4 C144.9,27.3 144.9,27.2 145,26.8 L145.5,24.6 C145.9,23.1 146.1,22.1 146.1,21.8 C146.2,21.4 146.5,20.2 146.8,18.1 C147.2,16 147.5,14.5 147.7,13.5 L148.4,8.6 C148.8,6.6 148.9,5.4 149,4.9 L149.4,1.7 C149.4,1.1 149.5,0.7 149.5,0.7 C149.5,0.7 149.6,0.7 149.9,0.8 L154.3,3 C154.5,3.1 154.8,3.4 154.8,3.6 C154.8,3.8 154.7,4.1 154.3,4.2 L153.3,4.9 C152.9,5.9 152.8,6.7 152.6,7.2 L151.6,10.5 C151.4,11.4 151.1,12.2 150.7,13 L159.9,13 L160.6,11.5 C160.8,11 161,10.8 161.1,10.8 C161.2,10.8 161.3,10.9 161.7,11.2 L164.7,13.8 C164.8,13.9 164.9,14 164.9,14.2 C164.9,14.4 165,14.4 165,14.4 C165,14.5 165,14.5 165,14.6 C165,14.7 164.9,14.8 164.6,15 L163.7,16.1 C163.7,17.6 163.7,18.7 163.7,19.4 C163.7,20.1 163.7,20.6 163.7,20.9 C163.7,23.1 163.7,26 163.6,29.3 C163.5,32.8 163.5,35.7 163.4,38.4 C163.3,41.1 163,43.6 162.7,45.8 C162.4,48 161.7,49.7 160.9,51 C160,52.1 158.9,53 157.6,53.6 C156.2,54.2 155.4,54.5 155,54.5 C154.9,54.5 154.8,54.5 154.8,54.5 C154.8,54.5 154.7,54.4 154.7,54.3 C154.7,54.2 154.6,53.9 154.6,53.4 C154.6,52.9 154.4,52.3 154.1,51.3 C153.9,50.4 153.4,49.7 152.6,49.1 L151,48 C150.8,47.9 150.6,47.6 150.8,47.4 C150.8,47.2 151,47 151.3,47.2 L153.4,47.8 C154.4,48 155.2,48.2 155.9,48.2 C157.1,48.2 158,47.7 158.6,46.8 C159.1,45.8 159.5,44.6 159.7,42.9 C159.9,41.3 160.1,39.3 160.2,37.2 C160.3,35.1 160.3,32.6 160.4,29.9 C160.4,27.2 160.5,24.4 160.5,21.6 C160.5,18.8 160.5,17.3 160.5,17 L160.5,14.8 L150.4,14.8 L150.4,14.4 L150.4,14.4 Z M149.2,26.7 L148.3,25.3 C148.2,25.1 148.1,24.9 148.1,24.8 C148.1,24.7 148.2,24.6 148.5,24.6 C149,24.6 149.9,25.1 151.2,25.8 C152.6,26.7 153.5,27.6 154,28.9 C154.6,30.1 154.9,31.2 154.9,32.4 C154.9,33.5 154.7,34.4 154.2,35.1 C153.7,35.8 153.1,36.2 152.5,36.2 C151.8,36.2 151.3,35.8 151,35.2 C150.8,34.6 150.6,33.8 150.5,33 L150.5,31.6 C150.6,29.7 150.1,28 149.2,26.7 Z" id="Shape_23_"></path>
                <path d="M179.6,6.9 C178.9,8.5 178.1,10.1 177.5,11.5 C176.9,12.9 176.3,14 175.8,15 C175.3,16 174.4,17.5 173.3,19.2 C172.2,21 171.6,22 171.3,22.4 L170.3,23.8 C170.2,23.9 170.1,24 169.9,24 C169.7,24 169.8,24 169.7,23.9 C169.6,23.8 169.7,23.8 169.7,23.7 C169.7,23.6 169.7,23.5 169.8,23.2 L170.3,22.2 L171.7,18.9 C172.9,15.8 174,12.7 174.9,9.8 C175.8,6.9 176.3,4.7 176.5,3.8 L177.1,1.3 L177.2,0.4 C177.2,0.4 177.4,0.5 177.8,0.6 L181.4,2.7 C181.6,2.8 181.8,2.9 181.8,3.1 C181.8,3.2 181.9,3.3 181.9,3.5 C181.9,3.6 181.8,3.7 181.4,4 L180.5,4.5 L179.8,6 C182.1,6.6 183.9,7.4 185,8.1 C186,8.8 186.7,9.6 187.1,10.4 C187.5,11.1 187.6,11.9 187.6,12.5 C187.6,12.7 187.6,13.1 187.5,13.5 C187.4,13.9 187.4,14.1 187.3,14.5 C187.2,14.7 186.8,15.1 186.3,15.5 C185.8,15.9 185.2,15.6 184.6,15 C184.4,14.8 184.1,14.3 183.9,13.6 L183,11.1 C182.6,10.2 182.3,9.5 181.8,8.9 C181.2,8.1 180.6,7.6 179.6,6.9 Z M181.3,19.8 L181.1,20.4 L181.1,26.4 L184.3,26.4 L185.7,24.1 C185.8,23.9 185.9,23.6 186.1,23.6 C186.3,23.6 186.3,23.7 186.7,24.1 L188.9,26.8 C189.1,27.2 189.4,27.4 189.4,27.7 C189.4,27.8 189.3,27.9 189.3,28.1 C189.2,28.2 189.1,28.2 189.1,28.2 L187,28.2 L187,28.2 L181.2,28.2 L181.2,34.5 L183.3,34.5 L184.3,32.8 C184.4,32.6 184.5,32.3 184.7,32.4 C184.8,32.4 184.9,32.5 185.3,32.8 L187.6,34.6 C187.7,34.7 187.8,34.8 187.8,35 C187.9,35.1 187.9,35.1 187.9,35.2 C187.9,35.2 187.8,35.3 187.8,35.6 C187.7,35.8 187.7,35.8 187.6,36 L187,36.7 L187,46.7 L187.1,50.3 C187,51 186.6,51.4 186.1,51.8 C185.6,52 185.1,52.2 184.9,52.2 C184.5,52.2 184.3,52.1 184.2,51.8 C184.1,51.6 184,51.3 184,51.2 L184,48.4 L177,48.4 L177,51 C177,51.4 177,51.6 176.9,51.7 C176.8,51.9 176.7,52.2 176.2,52.4 C175.8,52.8 175.3,52.9 174.7,52.8 C174.3,52.8 174.1,52.7 174,52.4 C173.9,52.2 173.8,51.9 173.8,51.5 L173.9,47.2 L173.9,38.1 L173.7,32.7 L173.8,32.6 C173.9,32.6 174.2,32.7 174.7,33.1 L176.7,34.3 L178.5,34.3 L178.5,27.8 L171.8,27.8 L171.6,27.8 C171.5,27.8 171.4,27.7 171.4,27.7 L171.3,27.3 C171.3,26.7 171.5,26.3 171.8,26.3 L178.5,26.3 L178.5,19.8 L174.3,19.8 C173.9,19.8 173.8,19.6 173.8,18.9 C173.8,18.4 173.9,18 174.3,18 L182.8,18 L183.8,16.4 C184,16 184.2,15.8 184.3,15.8 C184.4,15.8 184.5,15.9 184.9,16.3 L187.1,18.6 C187.3,18.8 187.3,19.1 187.3,19.3 C187.3,19.5 187.2,19.7 186.9,19.7 L184.3,19.7 L184.3,19.7 L181.3,19.8 L181.3,19.8 L181.3,19.8 Z M183.4,36.1 L176.4,36.1 L176.4,46.7 L183.4,46.7 L183.4,36.1 Z M199.4,6.7 L187.4,6.7 C187,6.7 186.9,6.5 186.8,6 C186.7,5.5 186.9,5.3 187.4,5 L187.5,5 L199.7,5 L200.7,3.2 C200.8,3 201.1,2.7 201.2,2.7 C201.3,2.7 201.6,2.8 201.8,3.2 L204.8,6.5 C205.4,7.1 205.7,7.7 205.7,8.1 C205.7,8.3 205.6,8.6 205.5,8.7 C205.4,8.8 204.9,8.9 204.3,8.9 C203.7,9 202.8,9.4 202.1,10.1 C201.2,10.8 199.8,12.3 197.8,14.4 C198.2,15 198.5,15.5 198.7,16 C198.9,16.5 199.1,17.1 199.1,17.8 C199.1,18.3 199,18.9 198.7,19.5 C198.4,20.1 198.2,20.6 197.7,20.9 C197.2,21.1 196.8,21.4 196.5,21.3 C196.3,21.3 196,21.2 195.6,21.1 C195.2,21 195.1,20.6 195,20.1 C194.9,19.6 194.6,18.9 194.4,17.5 C194.2,16.3 193.8,15.2 193.3,14.3 C192.8,13.4 192.4,12.8 192.1,12.5 L191.1,11.8 C191,11.7 190.9,11.6 190.9,11.4 C190.9,11.3 190.9,11.2 190.9,11.2 C190.9,11.1 191,11 191.3,11 C191.5,11 191.8,11.1 192.3,11.2 L193.9,11.8 C194.6,12.2 195.7,12.8 197,13.6 C198.2,10.1 199.2,7.8 199.4,6.7 Z M203.2,23.2 L199.1,23.2 L198.6,24.1 L198.6,50.8 C198.6,51.4 198.2,52.2 197.6,52.8 C196.9,53.4 196.1,53.9 195.4,54.3 C194.5,54.5 194,54.8 193.8,54.7 C193.7,54.7 193.7,54.7 193.7,54.7 C193.7,54.7 193.7,54.6 193.6,54.6 C193.6,54.5 193.5,54 193.5,52.9 C193.4,51.8 192.8,50.9 191.5,50.3 L190,49.4 C189.9,49.4 189.9,49.3 189.8,49.2 C189.8,49.1 189.7,49 189.7,48.7 C189.7,48.5 189.8,48.5 190.2,48.5 L191.8,48.7 C192.4,48.8 193.2,48.9 193.9,48.9 C194.5,48.9 194.9,48.8 195,48.5 C195.1,48.3 195.2,47.9 195.2,47.3 L195.2,23.3 L187.9,23.3 C187.5,23.3 187.4,23.1 187.3,22.4 C187.2,21.9 187.4,21.5 187.9,21.5 L203.3,21.5 L204.3,19.8 C204.4,19.6 204.5,19.4 204.7,19.4 C204.8,19.4 205.1,19.6 205.4,20 L208.7,23.5 C208.8,23.6 208.9,23.9 209.1,24.1 C209.2,24.3 209.2,24.5 209.2,24.7 C209.2,25.2 209.1,25.4 208.8,25.6 C208.6,25.7 208.1,25.8 207.3,26 C206.6,26.1 205.9,26.4 205.3,26.7 C204.7,27.1 204.1,27.8 203.5,28.8 L202,31.1 C201.9,31.2 201.8,31.3 201.6,31.3 C201.5,31.3 201.4,31.3 201.4,31.2 C201.4,31.1 201.4,31 201.4,31 C201.4,31 201.4,30.9 201.4,30.8 L203.2,23.2 Z" id="Shape_22_"></path>
                <path d="M219.5,26 L213.2,26 C212.8,26 212.7,25.8 212.7,25.3 C212.7,24.8 212.9,24.6 213.4,24.4 L213.6,24.4 L219.1,24.4 L220,23 C220.4,22.5 220.6,22.3 220.7,22.3 C220.8,22.3 221.1,22.4 221.6,22.9 L223.2,24.5 C223.6,24.9 223.8,25.1 223.9,25.4 C224,25.5 224,25.6 224,25.9 C224,26 223.9,26.3 223.5,26.8 L222.6,27.9 L222.6,45.8 C224.4,47 226.1,48 227.5,48.6 C229,49.2 231.8,49.6 236.1,49.6 C240.5,49.6 244.8,49.1 249.2,48 L250.6,47.6 C251,47.5 251.2,47.6 251.2,47.7 C251.2,47.9 251.1,48.1 251,48.3 L250,49.5 C249.6,50 249.4,50.5 249.1,51 C248.9,51.6 248.7,52.1 248.7,52.7 C248.7,53.3 248.6,53.6 248.5,53.7 C248.4,53.8 248.4,53.9 248.3,53.9 C248.2,53.9 247.2,54 245.3,54.1 C243.5,54.2 241.4,54.2 238.9,54.2 C237.9,54.2 236.2,54.2 233.8,54.1 C231.5,54 229.6,53.5 228,52.7 C226.5,52 225.3,51.1 224.4,50.2 L222.1,47.9 C221.4,47.3 220.6,46.9 220,46.9 C219.4,46.9 218.6,47.3 217.8,48.3 C216.9,49.2 216.3,50 215.8,50.9 L214.7,52.9 C214.6,53.3 214.5,53.4 214.3,53.4 C214.3,53.4 214.2,53.4 214.1,53 L212.7,48.1 C212.6,47.9 212.6,47.7 212.6,47.6 C212.6,47.5 212.6,47.5 212.6,47.5 C212.6,47.5 212.7,47.4 213,47.3 L215,46.3 L217.5,45.3 L219.1,44.6 L219.1,26 L219.5,26 Z M215.9,3.9 C215.7,3.7 215.7,3.4 215.7,3.3 C215.7,3.2 215.8,3.1 216.2,2.9 C216.3,2.9 216.3,2.9 216.4,2.9 C216.5,2.9 216.8,3 217.3,3.1 C217.8,3.2 218.5,3.6 219.6,4.1 C220.7,4.6 221.6,5.5 222.1,6.6 C222.6,7.7 222.8,8.7 222.8,9.4 C222.8,10.3 222.6,11 222.1,11.7 C221.6,12.4 221,12.8 220.3,12.8 C219.8,12.8 219.4,12.7 219.1,12.3 C218.7,11.9 218.5,11.6 218.4,11.2 C218.3,10.8 218.2,10.1 218.2,9 C218.1,7.9 218,7 217.7,6.2 C217,5.7 216.5,4.9 215.9,3.9 Z M230.7,41.3 L230.7,45.5 C230.7,46.1 230.3,46.6 229.7,46.7 C229.1,46.9 228.6,46.9 228.2,46.9 C228,46.9 227.7,46.8 227.6,46.7 C227.5,46.6 227.4,46.3 227.2,46 L227.3,40.1 L227.3,31.1 L227.2,25.9 C227.3,25.7 227.3,25.5 227.4,25.5 C227.5,25.5 227.6,25.5 227.8,25.6 L230.9,27.3 L234.2,27.3 L234.2,18.6 L222.6,18.6 L222.4,18.6 C222.2,18.6 222,18.5 221.9,18.5 C221.8,18.4 221.8,18.1 221.8,17.8 C221.8,17.5 221.9,17.2 222.4,17.2 L234.3,17.2 L234.3,9.2 C232.1,9.6 230.2,9.8 228.9,9.9 C227.4,10 226.7,10.1 226.6,10.1 L224.8,10.3 C224.1,10.4 223.7,10.3 223.7,9.8 C223.7,9.7 223.8,9.6 224.1,9.4 L225.1,9.2 L226.8,8.7 C230.3,7.6 233.3,6.5 235.9,5.1 C238.5,3.7 240.2,2.9 240.7,2.4 L242.5,1 C242.6,0.9 242.7,0.9 242.9,0.9 C243,0.9 243.3,1.1 243.6,1.6 L246.3,4.9 C246.7,5.4 246.8,5.6 246.8,5.8 C246.8,5.9 246.8,6 246.7,6.2 L243.1,6.9 L237.2,8.5 L238.3,9.1 C238.4,9.2 238.5,9.2 238.7,9.3 C238.8,9.4 238.8,9.5 238.8,9.5 C238.8,9.5 238.7,9.7 238.6,9.9 C238.5,10.1 238.4,10.3 238.4,10.3 L237.7,11.2 L237.7,16.9 L244.6,16.9 L246,14.6 C246.5,13.7 246.7,13.4 246.9,13.4 C247,13.4 247.3,13.6 247.8,14.1 L250.1,17.1 C250.5,17.6 250.7,18 250.7,18.2 C250.7,18.4 250.6,18.7 250.2,18.7 L238,18.7 L238,27.4 L241.9,27.4 L242.9,25.8 C243.1,25.3 243.4,25.2 243.4,25.2 C243.5,25.2 243.8,25.3 244.1,25.8 L245.9,27.5 C246.3,27.9 246.5,28.1 246.6,28.2 C246.7,28.3 246.7,28.4 246.7,28.6 C246.7,28.7 246.6,29 246.2,29.5 L245.3,30.6 L245.3,38.9 L245.4,44.4 C245,45.4 244.2,45.9 243.1,45.8 C242.5,45.8 242.2,45.7 242.1,45.4 C242,45.2 242,44.9 242,44.5 L242,41.4 L230.8,41.4 L230.8,41.3 L230.7,41.3 Z M230.7,29.1 L230.7,39.7 L242,39.7 L242,29.1 L230.7,29.1 Z" id="Shape_21_"></path>
                <path d="M284.9,4.6 L286.7,1.5 C286.9,1.1 287.1,0.9 287.2,0.9 C287.2,0.9 287.3,1.1 287.7,1.6 L290.7,5.5 C290.8,5.6 290.8,5.7 290.8,5.9 L290.8,6 C290.8,6.1 290.8,6.1 290.7,6.2 C290.7,6.3 290.6,6.3 290.2,6.3 L262,6.3 L262,49.1 L286.4,49.1 L288.6,45.4 C288.7,45.2 289,45 289,45 C289.1,45 289.2,45.1 289.5,45.4 L292.7,49.8 C292.8,49.9 292.9,50.2 292.9,50.3 C292.9,50.5 292.8,50.5 292.5,50.5 L262.1,50.5 L260.9,52.6 C260.7,53.1 260.4,53.3 260.4,53.3 C260.4,53.3 260.3,53.2 260,52.9 L257,49.9 C256.9,49.8 256.9,49.8 256.8,49.7 C256.8,49.6 256.8,49.5 256.8,49.3 C256.8,49.2 256.9,49.1 257,48.8 L258.1,47.4 L258.1,9.9 L258.1,1.4 L258.2,1.3 C258.2,1.3 258.6,1.5 259.1,1.9 L262.2,4.6 L284.9,4.6 L284.9,4.6 Z M278.9,18.5 C279.4,17 279.9,15.4 280.3,13.9 L281,10.9 L281.2,10 L281.3,9.9 C281.3,9.9 281.4,10 281.8,10.1 L286,13.7 C286.2,13.9 286.4,14.1 286.2,14.3 C286.2,14.5 286,14.7 285.7,14.8 L284.7,15.3 C283.1,19.1 281.5,22.9 279.9,26.6 C280.8,27.8 282.2,29.8 284.3,32.6 C286.3,35.4 287.1,38 286.9,40.5 C286.7,43 286,44.1 285.1,44.1 C284.2,44 283.6,43.6 283.3,43 C283.1,42.3 282.4,40.8 281.6,38.4 C280.8,36 279.5,33.5 277.9,30.8 C277,32.2 275.8,34.3 274.1,37 C272.4,39.7 269.8,42.4 266.3,45 L265.2,45.9 C264.8,46.1 264.7,46.1 264.7,46 C264.7,45.9 264.7,45.8 264.7,45.6 C264.7,45.5 264.8,45.4 264.9,45.2 L265.9,44.2 C269.1,41 271.8,36.7 274,31.5 L275.8,27.2 C274.8,25.7 274.1,24.6 273.5,23.6 C272.9,22.6 272.1,21.6 271.4,20.5 C270.7,19.4 269.9,18.5 269.3,17.8 C268.7,17.1 268.2,16.6 268.1,16.3 C268,16.1 267.7,15.9 267.6,15.7 C267.5,15.6 267.4,15.3 267.4,15.3 C267.4,15.2 267.4,15.1 267.3,14.9 C267.3,14.8 267.4,14.7 267.5,14.7 C267.7,14.7 269,15.8 271.6,18 C274.1,20.2 275.4,21.5 275.5,21.6 L277.5,23.7 C277.8,21.7 278.4,20 278.9,18.5 Z" id="Shape_20_"></path>
            </g>
            <g id="Group" transform="translate(0.000000, 98.400000)">
                <path d="M4.1,13.8 L4.1,4.3 L4.1,0.6 L4.2,0.5 L4.5,0.6 L6.8,1.4 C6.9,1.4 7,1.5 7,1.5 C7,1.6 7.1,1.6 7.1,1.7 C7.1,1.8 7,1.9 6.9,2.1 L6.1,3 L6.1,10.7 C8.1,9.2 9.6,7.8 10.9,6.6 C12,5.4 12.9,4.6 13.3,4 L14.1,2.9 L14.3,2.5 L14.3,2.5 C14.3,2.5 14.4,2.6 14.5,2.7 L16.5,5.1 C16.6,5.2 16.6,5.3 16.6,5.5 C16.6,5.7 16.5,5.7 16.2,5.7 L15.5,5.6 C11.6,8.1 9.2,9.6 8.2,10.1 L5.8,11.2 L5.8,13.6 L15.6,13.6 L17,11.6 C17.1,11.5 17.1,11.4 17.2,11.4 C17.2,11.4 17.3,11.4 17.3,11.5 L19.1,13.9 C19.2,14 19.2,14.3 19.2,14.3 C19.2,14.4 19.1,14.5 19,14.5 L16.7,14.5 L9.8,14.5 C9.8,14.6 9.9,14.9 9.9,15.1 C10,15.3 10.1,15.9 10.4,16.5 C10.6,17.3 11.3,18.3 12.3,19.7 C13.3,21.1 14.2,22.1 15,22.6 C15.6,23.2 16.4,23.7 17.1,24.1 C17.7,24.5 18.2,24.7 18.5,24.9 L19.1,25.1 C19.2,25.1 19.3,25.2 19.3,25.5 C19.3,25.6 19.2,25.7 19.1,25.7 L18.5,25.8 C18.3,25.8 18,26 17.5,26.2 C17.1,26.4 16.9,26.6 16.6,27 L16.2,27.4 L16,27.8 C15.9,27.8 15.9,27.8 15.8,27.7 L15.3,27.3 C14,26.2 13,25 12.1,23.7 C11.2,22.3 10.7,21.1 10.3,20 C9.9,18.9 9.8,18 9.5,17.1 C9.4,16.2 9.3,15.5 9.1,14.8 L5.8,14.8 L5.8,24.5 C7.7,23.6 9.1,22.9 9.7,22.5 L10.7,21.9 C10.8,21.9 10.8,21.9 10.9,21.9 C10.9,21.9 11,22 11,22.1 C11,22.2 11,22.2 10.9,22.3 L10,23.3 C10,23.3 9.5,23.8 8.5,24.9 C7.4,26 6.5,26.9 5.8,27.7 L4.9,28.8 L4.5,29.2 C4.5,29.2 4.4,29.1 4.3,28.8 L3.2,26.3 C3.1,26.2 3.1,26.1 3.1,26.1 C3.1,26.1 3.1,26.1 3.1,26 L3.1,26 C3.1,26 3.2,26 3.2,25.9 C3.3,25.8 3.3,25.7 3.4,25.5 C3.5,25.4 3.5,25.1 3.6,25.1 C3.6,25 3.7,24.6 3.7,23.8 L3.7,14.6 L0.2,14.6 C0.1,14.6 -5.55111512e-15,14.5 -5.55111512e-15,14.2 C-5.55111512e-15,14 0.1,13.8 0.2,13.8 L4.1,13.8 L4.1,13.8 Z" id="Path_3_"></path>
                <path d="M29,6.4 L29.8,4.9 C29.9,4.7 29.9,4.7 30,4.5 C30,4.5 30.1,4.5 30.2,4.6 L31.6,6.4 C31.7,6.5 31.7,6.8 31.7,6.8 C31.7,6.8 31.6,7 31.5,7 L29.7,7 L26,7 C25.9,7.6 25.5,8.8 25.1,10.3 C24.6,11.8 24.5,12.9 24.2,13.6 L26.3,13.6 L26.3,11.4 L26.3,8.6 C26.3,8.6 26.5,8.6 26.8,8.7 L28.7,9.3 C28.8,9.3 28.8,9.4 28.8,9.4 L28.8,9.5 C28.8,9.5 28.8,9.6 28.7,9.6 L28.2,10.1 L28.2,13.4 L28.7,13.4 L29.2,12.2 C29.3,12 29.4,11.8 29.7,12.1 L30.8,13.7 C30.9,13.9 31,14.1 30.9,14.1 C30.8,14.2 30.8,14.2 30.7,14.2 L28,14.2 L28,19.3 C28.5,19.2 28.9,18.9 29.1,18.9 L30.1,18.5 L30.6,18.3 C30.7,18.3 30.7,18.3 30.8,18.5 C30.8,18.6 30.8,18.7 30.7,18.9 L30.3,19.3 C30.2,19.3 29.5,19.8 27.9,20.8 L27.9,25.5 L28,28.1 C28,28.2 28,28.3 27.9,28.5 C27.9,28.6 27.7,28.7 27.5,28.9 C27.3,29 27,29 26.7,29 C26.3,29 26.2,29 26.2,28.9 C26.1,28.8 26.1,28.7 26.1,28.5 L26.2,25.3 L26.2,22 C25.3,22.5 24.7,23 24.1,23.3 L23.5,23.7 L23,24.1 L23.2,24.1 C23.2,24.1 23.1,24 23.1,23.7 L22.6,22.2 L22.2,21.1 L22.2,21.1 C22.2,21.1 22.3,21.1 22.7,21 L23.5,20.9 C24.4,20.7 25.4,20.5 26.5,20.1 L26.5,14.6 L24.1,14.6 L23.5,15.9 C23.4,16.1 23.4,16.1 23.4,16.1 C23.4,16.1 23.3,16 23.2,15.9 L22.2,14.4 C22.1,14.3 22.1,14.3 22.1,14.2 L22.1,14.1 C22.1,14.1 22.2,14 22.3,13.9 C22.4,13.8 22.7,13.5 22.8,13.1 C22.9,12.7 23.3,11.7 23.6,10 C24.1,8.4 24.2,7.5 24.2,7.3 L24.3,6.9 L22.2,6.9 C22,6.9 22,6.8 21.8,6.5 C21.8,6.1 21.9,6.1 22.2,6.1 L24.5,6.1 C24.9,4.6 25,3.2 25.3,2 L25.4,0.9 L25.5,0 L25.5,0 L25.9,0.2 L27.9,1.2 C28,1.3 28.1,1.3 28.1,1.4 L28.1,1.5 C28.1,1.5 28.1,1.6 28,1.6 L27.4,2.1 C27.2,3 26.9,3.9 26.9,4.4 C26.8,5 26.5,5.6 26.4,6 L29.1,6 L29,6.4 L29,6.4 Z M39.3,26.2 L33,26.2 L33,28 C33,28.4 32.8,28.6 32.4,28.8 C31.9,28.9 31.6,28.9 31.6,28.8 C31.5,28.7 31.5,28.4 31.4,28.4 L31.5,24.8 L31.5,10.7 L31.4,8.1 C31.5,8 31.5,8 31.6,8.1 L33.2,9.4 L35.3,9.4 L35.3,3.9 L35.2,1.3 C35.2,1.2 35.3,1.2 35.3,1.2 L35.7,1.3 L37.6,1.9 C37.7,1.9 37.7,2 37.7,2.1 C37.7,2.2 37.7,2.3 37.6,2.5 L37.1,3.1 L37.1,9.4 L39.4,9.4 L39.9,8.3 C40,8.1 40.1,7.9 40.1,7.9 C40.1,7.9 40.2,8 40.5,8.1 L41.9,9.5 C42.1,9.7 42.1,9.9 42.1,10 C42.1,10.1 42,10.2 42,10.4 L41.5,10.9 L41.5,24.5 L41.6,27.4 C41.6,27.5 41.5,27.8 41.5,27.9 C41.4,28.1 41.1,28.3 40.6,28.3 C40.1,28.3 39.8,28.3 39.8,28.2 C39.7,28.1 39.7,28 39.7,27.8 L39.7,26 L39.6,26 L39.6,26.2 L39.3,26.2 L39.3,26.2 Z M35.3,16.7 L35.3,10 L32.9,10 L32.9,16.7 L35.3,16.7 Z M35.3,25.4 L35.3,17.6 L32.9,17.6 L32.9,25.4 L35.3,25.4 Z M39.3,16.7 L39.3,10 L36.9,10 L36.9,16.7 L39.3,16.7 Z M39.3,25.4 L39.3,17.6 L36.9,17.6 L36.9,25.4 L39.3,25.4 Z" id="Shape_6_"></path>
                <path d="M49.4,15.4 L50,15.4 L50.8,14.1 C50.9,14 50.9,14 50.9,14 C50.9,14 51,14 51,14.1 L52.3,15.9 C52.3,16 52.4,16 52.4,16.1 C52.4,16.2 52.3,16.2 52.3,16.2 L49.4,16.2 L49.4,22.8 L52.2,22.2 C52.3,22.2 52.4,22.2 52.4,22.3 C52.4,22.4 52.4,22.5 52.3,22.5 L51.5,22.9 C49.5,24.2 47.6,25.3 45.9,26.2 L45,26.7 C44.9,26.8 44.8,26.8 44.8,26.8 C44.8,26.8 44.7,26.6 44.7,26.4 L44.2,24 L44.2,23.9 C44.2,23.8 44.2,23.8 44.2,23.8 C44.2,23.8 44.3,23.8 44.3,23.7 L44.9,23.6 L44.9,16.6 L44.9,14 C44.9,14 45,14 45,13.9 C45,13.9 45.1,13.9 45.2,14 L46.7,14.5 C46.8,14.5 46.8,14.6 46.8,14.6 L46.8,14.7 C46.8,14.8 46.8,14.8 46.7,14.9 L46.3,15.3 L46.3,23.4 L47.7,23.2 L47.7,10.1 L46.7,10.1 L46.7,11.1 C46.7,11.2 46.7,11.3 46.6,11.5 C46.6,11.6 46.4,11.7 46.1,11.9 C45.9,12 45.6,12 45.6,12 C45.4,12 45.2,12 45.2,11.9 C45.2,11.8 45.1,11.7 45.1,11.5 L45.2,8.4 L45.2,3.6 L45.2,1.1 C45.2,1.1 45.3,1.1 45.6,1.2 L47,2.3 L49.8,2.3 L50.3,1.3 C50.4,1.2 50.4,1.2 50.4,1.1 C50.4,1.1 50.5,1.1 50.5,1.2 L52,2.6 L52.1,2.7 C52.1,2.7 52.1,2.7 52.1,2.8 L52.1,2.9 C52.1,2.9 52.1,3 52,3.1 L51.5,3.7 L51.5,8.4 L51.5,10.2 C51.5,10.4 51.4,10.6 51.4,10.6 C51.4,10.7 51.2,10.8 50.9,11 C50.5,11.2 50.4,11.1 50.3,11.1 C50.1,11.1 49.8,10.9 49.8,10.7 L49.8,10.1 L49.3,10.1 L49.4,15.4 L49.4,15.4 Z M49.8,9.3 L49.8,3.3 L46.7,3.3 L46.7,9.3 L49.8,9.3 Z M59.8,18 L54.8,18 L54.8,25.9 L61,25.9 L61.8,24.5 C61.9,24.4 61.9,24.3 61.9,24.3 C61.9,24.3 62,24.3 62.1,24.4 L63.6,26.4 C63.6,26.4 63.6,26.5 63.7,26.5 L63.7,26.6 C63.7,26.6 63.7,26.7 63.6,26.7 L54.9,26.7 L54.1,28 C54,28.1 54,28.1 53.9,28 L52.5,26.5 C52.4,26.4 52.4,26.3 52.4,26.1 C52.4,26 52.4,25.9 52.5,25.7 L53,25.1 L53,4.6 L52.9,1.3 C52.9,1.3 52.9,1.2 53,1.2 L53.4,1.6 L54.8,2.8 L60.1,2.8 L61,1.2 C61,1.1 61.1,1.1 61.1,1 C61.1,1 61.2,1 61.3,1.1 L62.9,3.3 L62.9,3.4 L62.9,3.5 L62.9,3.5 C62.9,3.6 62.9,3.6 62.8,3.6 L54.6,3.6 L54.6,9.1 L59.5,9.1 L60,8 C60,8 60,8 60,7.9 C60,7.8 60.1,7.8 60.2,7.9 L62,9.5 C62.1,9.6 62.1,9.6 62.1,9.6 L62.1,9.7 C62.1,9.8 62.1,9.8 62,9.9 L61.5,10.5 L61.5,16.7 L61.6,18.7 C61.6,18.9 61.5,19.1 61.4,19.2 C61.3,19.3 61.2,19.6 60.9,19.6 C60.7,19.7 60.4,19.8 60.1,19.7 C59.9,19.7 59.7,19.7 59.6,19.6 C59.5,19.5 59.5,19.4 59.5,19.2 L59.5,17.8 L59.8,18 L59.8,18 Z M59.8,17.1 L59.8,10.1 L54.8,10.1 L54.8,17.1 L59.8,17.1 Z" id="Shape_5_"></path>
                <path d="M84,9.7 L87,10.5 C87.2,10.1 87.5,9.7 87.5,9.5 C87.6,9.3 87.7,9 88,8.4 L88.5,6.9 L88.6,6.7 C88.6,6.7 88.7,6.7 88.8,6.8 L90.7,8.7 C90.8,8.8 90.8,8.9 90.8,9.1 C90.8,9.3 90.7,9.3 90.6,9.3 L90.1,9.4 C88.7,11.7 87.7,13.1 87.6,13.5 L85.2,16.9 C86.1,16.8 87,16.8 87.7,16.7 C88.4,16.6 89.1,16.6 89.5,16.6 L90.6,16.5 C90.7,16.5 90.8,16.5 90.8,16.7 C90.8,16.8 90.8,16.9 90.6,16.9 L89.5,17.3 C87.1,18.2 85.7,18.8 84.9,19.1 L83.9,19.6 C83.7,19.7 83.5,19.8 83.5,19.7 C83.5,19.7 83.5,19.6 83.4,19.3 L82.8,17.1 C82.8,17 82.7,16.9 82.8,16.9 C82.8,16.8 82.8,16.8 82.9,16.8 L83.3,16.7 C83.5,16.6 83.8,16.5 84.1,16.3 C84.5,16.1 85.1,14.9 86.1,12.9 L87,11.1 C86,11.2 85,11.5 84.2,11.6 L83.6,11.8 L83.4,11.9 L83.3,11.8 L82.8,9.6 C82.8,9.5 82.8,9.4 82.8,9.4 C82.8,9.4 82.9,9.3 83,9.2 L83.4,9.1 C83.9,8.9 84.3,8 84.8,6.6 C85.3,5.1 85.9,3.5 86.3,2 L86.7,1 L86.7,0.4 L86.7,0.4 L86.8,0.5 L88.8,2.1 C88.9,2.2 89,2.3 89,2.5 C89,2.7 88.9,2.7 88.9,2.7 L88.3,2.9 C86.6,5.3 85.4,7.5 84,9.7 Z M83.7,23.5 C86.5,22.5 88.3,21.7 89.1,21.5 L89.9,21.1 C90,21.1 90,21.1 90.1,21.1 C90.2,21.1 90.2,21.2 90.2,21.3 C90.2,21.4 90.2,21.5 90.1,21.5 L89.5,22 C86.8,24.2 85.2,25.4 84.8,25.8 L83.9,26.6 C83.7,26.7 83.7,26.8 83.5,26.8 C83.5,26.8 83.5,26.7 83.4,26.6 L82.8,24.2 L82.7,23.8 L82.7,23.7 L82.9,23.7 L83.7,23.5 Z M89.9,4.2 C89.7,4.2 89.7,4.1 89.5,3.8 C89.5,3.4 89.6,3.4 89.9,3.4 L97.1,3.4 L97.6,2.3 C97.6,2.2 97.7,2.2 97.7,2.2 C97.7,2.2 97.8,2.2 97.9,2.3 L99.4,3.9 C99.5,4 99.5,4 99.5,4.1 L99.5,4.2 C99.5,4.3 99.5,4.3 99.4,4.4 L98.8,4.9 C98.3,6.7 98,7.8 97.8,8.7 C97.6,9.6 97.3,10.5 97,11.3 L98.6,11.3 L99.1,10.4 C99.2,10.3 99.2,10.2 99.2,10.2 C99.2,10.2 99.3,10.2 99.4,10.4 L100.9,12 C101,12.1 101,12.1 101,12.1 C101,12.1 101,12.1 101,12.2 C101,12.2 101,12.2 101,12.3 C101,12.3 101,12.4 100.9,12.4 L100.4,12.9 C99.5,16.7 98.8,19.1 98.3,20 L97.2,22.4 C97.6,22.8 98,23.4 98.3,23.8 C98.8,24.2 99.2,24.7 99.7,25 C100.2,25.4 100.7,25.5 101,25.6 L101.6,25.8 C101.7,25.8 101.8,25.9 101.8,26 C101.8,26.1 101.8,26.2 101.6,26.2 L101.1,26.4 C100.6,26.8 100.1,27 99.7,27.4 L99.2,28 C99.1,28.1 99.1,28.2 99.1,28.2 C99.1,28.2 99,28.2 99,28.1 L98.6,27.7 C97.7,26.8 96.8,25.5 95.8,24 C95.3,24.5 94.7,25.2 93.8,25.9 C92.9,26.7 91.7,27.4 89.9,27.9 L89.1,28.1 L89,28.1 C89,28.1 89,28.1 89,28 L89,27.9 C89,27.8 89,27.8 89.1,27.7 L89.7,27.3 C91.5,26.2 93.2,24.5 94.9,22 C94.4,20.9 94.1,19.7 93.8,18.6 C93.4,17.3 93.2,16 93,14.6 L92.8,11.8 C92.7,13.7 92.6,15.6 92.4,17.3 C92.3,18.9 91.9,20.6 91.3,22.3 C90.8,23.9 89.9,25.2 89,26.2 C88.1,27.2 87.5,27.8 87.1,28 L86.6,28.4 C86.5,28.5 86.4,28.5 86.4,28.4 C86.4,28.3 86.4,28.3 86.4,28.2 C86.4,28.1 86.4,28.1 86.5,28 L87,27.4 C87.5,26.9 88.1,26 88.8,25 C89.4,24 90.1,22.4 90.4,20.2 C90.8,18.1 91,16.1 91.2,14.1 C91.3,12.3 91.3,10.3 91.3,8.2 C91.3,6.2 91.3,5 91.3,5 L91.3,3.6 L89.4,3.6 L89.4,4.1 L89.9,4.2 L89.9,4.2 Z M97.1,4.2 L93.9,4.2 C93.9,4.3 93.8,4.4 93.8,4.4 C93.8,4.5 93.7,4.5 93.4,4.6 C93.4,5.6 93.4,6.4 93.4,6.8 C93.4,7.3 93.4,8.2 93.4,9.4 C93.4,10.7 93.6,12.2 93.9,14.2 C94.3,16.1 94.8,17.8 95.4,19.3 L96,20.8 C96.2,20.3 96.5,19.7 96.6,19.2 C96.8,18.6 97.1,17.7 97.4,16.5 C97.8,15.3 97.9,14.3 98,13.6 C98.1,12.8 98.2,12.4 98.2,12.2 L96.3,12.2 L95.8,13.1 C95.7,13.3 95.7,13.3 95.6,13.3 C95.6,13.3 95.5,13.3 95.5,13.2 L94.2,11.6 L94.1,11.5 L94.1,11.4 C94.1,11.4 94.1,11.3 94.2,11.3 L94.6,11.1 C94.7,11 94.7,11 94.8,10.9 C94.8,10.8 94.9,10.5 95,10.3 L95.2,9.5 L97.1,4.2 Z" id="Shape_4_"></path>
                <path d="M154.8,5.5 L155.3,3.1 L155.7,0.9 L155.8,0.3 C155.8,0.3 155.9,0.3 156.2,0.4 L158.2,1.4 C158.3,1.5 158.3,1.5 158.4,1.6 C158.4,1.7 158.4,1.8 158.2,2 L157.7,2.4 L156.9,5.6 L159.2,5.6 L159.7,4.5 C159.8,4.3 159.9,4.1 159.9,4.1 C159.9,4.1 160,4.1 160.1,4.2 L161.5,5.8 C161.6,5.9 161.6,6 161.6,6.2 C161.6,6.4 161.5,6.4 161.5,6.4 L156.5,6.4 L154.9,13 L156.8,13 L156.8,10.8 L156.7,8.2 L156.8,8.1 L157.2,8.2 L158.8,8.8 C158.9,8.9 159,8.9 159,9 C159,9.1 158.9,9.2 158.9,9.4 L158.4,9.9 L158.4,12.8 L158.9,12.8 L159.5,11.5 C159.6,11.3 159.7,11.3 159.7,11.1 C159.8,11.1 159.8,11.1 159.9,11.2 L161.2,13 C161.3,13.1 161.3,13.2 161.3,13.4 C161.3,13.6 161.3,13.5 161.2,13.5 L158.3,13.5 L158.3,19.1 C158.8,19 158.9,18.7 159.2,18.7 L161.1,17.9 L161.7,17.7 C161.8,17.7 161.9,17.7 161.9,17.8 C161.9,17.9 161.9,18 161.8,18.2 L161.2,18.6 C161.1,18.7 160.1,19.4 158.2,20.5 L158.2,24.8 L158.3,27.6 C158.1,28 157.8,28.4 157.4,28.4 C156.9,28.4 156.8,28.4 156.6,28.3 C156.5,28.2 156.5,28.1 156.5,27.9 L156.6,25.2 L156.6,21.5 C156.4,21.7 155.7,22.1 154.7,22.8 L153.9,23.3 L153.4,23.7 L153.3,23.7 L153.3,23.7 L153.3,23.6 L152.7,20.7 L152.7,20.8 C152.7,20.8 152.7,20.7 152.8,20.7 L153.3,20.6 L154.1,20.5 C154.7,20.4 155.6,20.1 156.9,19.9 L156.9,13.6 L154.9,13.6 L154.5,14.4 C154.4,14.8 154.3,14.9 154.3,15 C154.3,15 154.3,15.1 154.2,15.1 C154.2,15.1 154.1,15 154,14.9 L152.9,13.6 C152.8,13.5 152.8,13.5 152.8,13.4 C152.8,13.4 152.9,13.3 153,13.2 C153.1,13.1 153.2,12.8 153.4,12.6 C153.6,12.4 153.6,12 153.6,11.8 L154.1,10.2 C154.2,9.8 154.6,8.6 155,6.3 L152.9,6.3 L152.8,6.3 C152.7,6.2 152.6,5.9 152.6,5.8 C152.6,5.6 152.7,5.4 152.8,5.4 L154.8,5.5 L154.8,5.5 L154.8,5.5 Z M164.3,16.6 C164.3,17.4 164.3,18 164.2,18.5 C164.2,19 164.1,19.7 164,20.4 C163.9,21.1 163.6,22.2 163.5,23.2 C163.1,24.3 162.7,25.2 161.9,26 C161.1,26.9 160.5,27.4 160.1,27.6 L159.3,28.1 C159.1,28.2 159.1,28.2 158.9,28.1 C158.9,28 158.9,27.9 159,27.7 L159.6,26.9 C160.2,26.3 160.9,25.3 161.2,24.2 C161.7,23.1 162,21.9 162.1,20.9 C162.2,19.8 162.2,19 162.3,18.3 C162.3,17.7 162.3,17.1 162.3,16.9 C162.3,16.5 162.3,16.4 162.3,16.1 L162.3,15.1 L162.3,14.6 C162.3,14.6 162.3,14.6 162.4,14.5 C162.4,14.5 162.5,14.5 162.8,14.6 L164.7,15.2 C164.8,15.2 164.8,15.3 164.8,15.3 L164.8,15.4 L164.8,15.5 C164.8,15.6 164.8,15.6 164.7,15.6 L164.3,16.6 Z M168.9,8.2 L169.8,6.7 C169.9,6.5 170,6.3 170,6.3 C170,6.3 170.1,6.4 170.2,6.5 L171.6,8.3 C171.7,8.5 171.8,8.7 171.8,8.8 C171.8,8.9 171.7,9 171.6,9 L169.8,9 L166.5,9 C166.6,9.4 166.7,9.8 166.9,9.9 C166.9,10 167.1,10.4 167.5,11.1 C167.9,11.9 168.5,12.5 169.3,13.1 C170.1,13.7 170.8,14.3 171.7,14.5 L172.3,14.7 C172.4,14.7 172.4,14.8 172.4,14.9 C172.4,15 172.4,15.1 172.3,15.1 L171.8,15.3 C171.3,15.5 171.2,15.7 170.9,16.2 L170.5,16.8 C170.4,17 170.3,17.2 170.3,17 C170.2,17 169.8,16.6 169.3,16.2 C168.8,15.7 168.4,15.2 168.2,14.8 C168,14.4 167.7,13.9 167.4,13.3 C167,12.8 166.9,12.1 166.8,11.5 C166.6,11 166.4,10.3 166.3,9.7 C166.2,9.2 166.2,8.7 166.1,8.6 L165.1,8.6 C165,8.8 164.9,9.1 164.7,9.4 L164.1,10.9 C163.6,12 162.8,13.1 162,14.2 C161.1,15.3 160.5,16.1 159.7,16.8 L159.2,17.3 C159.1,17.4 159,17.4 159,17.3 C159,17.2 159,16.9 159.1,16.9 L159.6,16.3 C159.8,15.9 160.1,15.7 160.4,15.2 C160.8,14.8 161,14.1 161.5,13.3 C162,12.4 162.3,11.7 162.4,11.3 C162.6,10.9 162.8,10.3 162.9,10 C163,9.6 163.1,9.2 163.3,9 L159.5,9 C159.4,9 159.3,8.9 159.3,8.6 C159.3,8.2 159.4,8.2 159.5,8.2 L163.7,8.2 C163.7,8.1 163.8,7.8 163.8,7.7 C163.9,7.5 163.9,7.2 164,6.8 C164.1,6.4 164.2,5.7 164.5,4.6 C162.9,5 161.8,5 161.3,5 L160.8,5 C160.7,5 160.6,4.9 160.6,4.8 C160.6,4.7 160.7,4.6 160.7,4.6 L161.5,4.4 C162,4.3 162.4,4.2 162.6,4 C162.8,3.9 163.6,3.6 164.7,3 C165.8,2.4 166.6,2.1 167.1,1.8 L168.1,1.2 C168.2,1.2 168.3,1.1 168.3,1 C168.4,0.9 168.5,0.8 168.5,0.8 C168.5,0.8 168.6,0.9 168.9,1.2 L170.3,3 C170.5,3.2 170.7,3.4 170.5,3.5 C170.5,3.6 170.4,3.6 170.3,3.6 L169.5,3.7 C169,3.8 168.5,3.9 167.9,4.1 C167.3,4.2 166.5,4.3 165.9,4.5 L166.9,5.1 L167,5.2 C167,5.3 167,5.3 166.9,5.4 L166.4,5.8 C166.2,6.4 165.9,7 165.9,7.3 C165.8,7.7 165.7,7.9 165.5,8.3 L168.9,8.2 L168.9,8.2 L168.9,8.2 Z M168.6,17 L168.6,25.5 L168.7,28 C168.7,28.1 168.6,28.4 168.6,28.5 C168.5,28.7 168.2,28.9 167.8,28.9 C167.3,28.9 167.2,28.9 167,28.8 C166.9,28.7 166.9,28.6 166.9,28.4 L167,26.2 L167,18.1 L166.9,15.4 L167,15.3 L167.4,15.4 L169,16 C169.1,16 169.2,16.1 169.1,16.2 C169.1,16.3 169.1,16.4 169,16.6 L168.6,17 Z" id="Shape_3_"></path>
                <path d="M184,20 L184,15.2 L179.4,15.2 L178.6,16.3 C178.5,16.4 178.5,16.4 178.4,16.3 L177.3,14.5 C177.2,14.3 177.1,14.1 177.1,14.1 C177.1,14.1 177.2,14 177.6,13.7 C177.8,13.6 178,13.5 178.1,13.3 C178.2,13.1 178.6,12.4 179,11.4 C179.5,10.3 179.8,9.5 180,8.9 C180.2,8.4 180.5,7.6 180.8,6.7 L175.8,6.7 C175.6,6.7 175.6,6.6 175.4,6.3 C175.4,5.9 175.5,5.9 175.8,5.9 L181.1,5.9 C181.1,5.8 181.3,5.3 181.6,4.3 C182,3.3 182.1,2.5 182.2,1.9 L182.4,0.9 L182.5,0.1 L182.5,0.1 L182.9,0.5 L185,1.9 C185.1,2 185.1,2 185.1,2.1 C185.1,2.2 185,2.3 184.9,2.5 L184.1,2.9 L183,6 L189.7,6 L190.5,4.5 C190.7,4.1 190.9,4 190.9,4 C190.9,4 191,4.1 191.3,4.2 L192.9,6.1 C193,6.3 193.1,6.5 193.1,6.5 C193.1,6.6 193,6.7 192.9,6.7 L192.1,6.7 L192.1,6.7 L182.5,6.7 L179.3,14.5 L183.6,14.5 L183.6,11.2 L183.5,8.5 C183.5,8.4 183.6,8.4 183.6,8.4 L183.8,8.5 L185.9,9.4 C186,9.5 186.1,9.6 186.1,9.8 C186.1,9.9 186,10 185.9,10.2 L185.4,10.6 L185.4,14.6 L188.4,14.6 L189.2,13.1 C189.4,12.7 189.6,12.6 189.7,12.6 C189.8,12.7 189.9,12.8 190.2,13 L191.6,14.8 C191.7,15 191.8,15.2 191.8,15.2 C191.8,15.2 191.7,15.4 191.6,15.4 L185.5,15.4 L185.5,20.2 L190.7,20.2 L191.6,18.6 C191.7,18.4 191.8,18.2 191.8,18.2 C191.8,18.2 191.9,18.2 192,18.3 L193.5,20.2 C193.6,20.3 193.6,20.4 193.7,20.6 C193.7,20.7 193.7,20.8 193.8,21 C193.8,21.1 193.7,21.1 193.6,21.1 L191.1,21.1 L191.1,21.1 L185.5,21.1 L185.5,25.8 L185.6,28.4 C185.6,28.5 185.6,28.6 185.5,28.8 C185.5,28.9 185.4,29 185.1,29.2 C184.9,29.3 184.6,29.4 184.2,29.4 C183.8,29.4 183.7,29.3 183.6,29.2 C183.5,29.1 183.5,28.8 183.5,28.6 L183.6,26 L183.6,21.2 L174.5,21.2 L174.4,21.2 C174.3,21.2 174.3,21.1 174.3,21.1 L174.3,20.6 C174.3,20.2 174.4,20.1 174.5,20.1 L183.9,20.1 L183.9,20 L184,20 Z" id="Path_2_"></path>
                <path d="M78.1,18.5 L79,18.5 C78.9,20.3 78.6,21.9 78.2,23.3 C77.8,24.7 76.9,25.6 76.1,26.4 C75.3,27 74.3,27.4 73.3,27.4 C71.9,27.4 70.8,26.9 69.6,25.6 C68.5,24.4 67.7,22.7 67.2,20.3 C66.8,18.5 66.7,16.7 66.7,14.7 C66.7,11 67.2,7.8 68.5,5.5 C69,4.3 69.9,3.3 70.9,2.7 C71.7,2.2 72.5,1.9 73.6,1.9 C75.1,1.9 76.5,2.7 77.6,4.2 L78.5,2 L79,2 L79,9.3 L78.5,9.3 C77.9,5.2 76.2,3.1 74.1,3.1 C72.5,3.1 71.2,4.2 70.4,6.4 C69.6,8.6 69.3,11.2 69.3,14.7 C69.3,17.9 69.7,20.4 70.3,22.5 C71.1,24.8 72.3,25.9 74.1,25.9 C75.2,25.9 76.1,25.4 76.9,24.4 C77.5,22.8 78,21 78.1,18.5 Z" id="Path_1_"></path>
                <g id="Group_1_" transform="translate(104.400000, 0.200000)">
                    <path d="M3.8,12.6 L0.3,12.6 C0.1,12.6 0,12.4 0,12.2 C0,11.9 0.1,11.8 0.3,11.8 L3.6,11.8 L4.1,11.1 L4.3,10.8 C4.4,10.7 4.4,10.7 4.5,10.8 C4.6,10.8 4.7,11 5,11.2 L5.9,12.1 C6.1,12.2 6.3,12.4 6.3,12.4 C6.3,12.4 6.3,12.5 6.3,12.6 C6.3,12.7 6.2,12.8 6,13 L5.5,13.6 L5.5,23.2 C6.2,23.7 6.9,24.2 7.6,24.5 C8.2,24.8 9,25 9.9,25.1 C10.8,25.2 12,25.3 13.5,25.3 C16.4,25.3 18.6,25 20.1,24.6 L20.9,24.4 C21,24.3 21.1,24.4 21.1,24.5 C21.1,24.6 21,24.8 20.9,24.9 L20.5,25.4 C20.3,25.6 20.2,25.8 20.1,26 C20,26.3 19.9,26.4 19.9,26.5 C19.9,26.7 19.8,26.9 19.8,27.2 C19.8,27.5 19.7,27.7 19.5,27.8 C19.4,27.9 18.6,28 17.1,28 C17,28 16.6,28 16.2,28 C15.7,28 15.1,28 14.3,28 C13.6,28 12.6,28 11.3,27.9 C10.1,27.8 9,27.6 8.2,27.2 C7.4,26.8 6.7,26.3 6.2,25.9 L4.9,24.7 C4.4,24.3 4.1,24.2 3.8,24.2 C3.4,24.2 3,24.5 2.5,24.9 C2,25.3 1.7,25.8 1.5,26.2 L1,27.2 C1.1,27.4 1.1,27.4 1,27.4 C1,27.4 0.9,27.2 0.8,27 L0.2,24.8 L0.1,24.4 C0.1,24.4 0.2,24.3 0.4,24.2 L1.1,23.8 C1.9,23.4 2.7,23.1 3.6,23 L3.6,12.6 L3.8,12.6 Z M2.1,1.3 C2,1.1 1.9,1 1.9,0.9 C1.9,0.8 2,0.7 2.2,0.7 C3.3,1 4.1,1.4 4.9,2.1 C5.6,2.8 6,3.6 5.9,4.7 C5.9,5.1 5.7,5.5 5.5,5.8 C5.2,6.2 5,6.3 4.5,6.3 C4.2,6.3 4,6.2 3.8,5.9 C3.6,5.7 3.5,5.5 3.4,5.2 C3.3,4.9 3.3,4.5 3.2,3.9 C3.2,3.4 3.1,2.9 3,2.5 C2.9,2.2 2.6,1.7 2.1,1.3 Z M12.5,10.8 L13.9,11.7 C14.2,11.9 14.3,12 14.3,12.1 C14.3,12.2 14.4,12.3 14.4,12.4 C14.4,12.5 14.3,12.6 14,12.8 L13.5,13.1 C13,13.9 12.5,14.8 12,15.7 C11.5,16.6 10.5,18 9.1,19.7 C11.8,19.6 14.5,19.5 17.2,19.3 C16.7,17.8 16.1,16.7 15.6,15.9 L15.1,15.1 C15,15 15,14.9 15,14.8 C15,14.7 15.1,14.6 15.2,14.6 C15.3,14.6 15.7,14.9 16.6,15.5 C17.4,16.1 18.1,16.7 18.8,17.4 C19.4,18.1 19.9,18.7 20.1,19.4 C20,19.9 20.1,20.4 20.1,20.8 C20.1,21.2 20,21.7 19.8,22.2 C19.6,22.7 19.3,23 18.7,23 C18.4,23 18.2,22.9 18,22.6 C17.8,22.3 17.6,22 17.6,21.5 L17.5,20.4 L17.3,19.6 L15.4,20.1 C13.3,20.7 11.9,21.2 11.1,21.4 L8.4,22.5 C8.3,22.5 8.2,22.4 8.1,22.1 L7.2,19.8 C7.2,19.7 7.1,19.5 7.1,19.4 L7.2,19.3 L7.7,19 C8,18.8 8.2,18.6 8.5,18.4 C8.8,18.1 9.2,17.4 9.8,16.3 C10.3,15.2 10.8,14.2 11.1,13.3 C11.5,12.5 11.7,11.6 12,10.8 L6.4,10.8 C6.2,10.8 6.1,10.6 6.1,10.4 C6.1,10.1 6.2,10 6.4,10 L18,10 L18.6,8.9 C18.9,8.4 19.1,8.2 19.1,8.2 C19.1,8.2 19.4,8.4 19.7,8.6 L20.8,9.7 C21.2,10.1 21.4,10.4 21.4,10.4 C21.4,10.5 21.5,10.5 21.5,10.6 C21.5,10.7 21.5,10.7 21.4,10.8 C21.4,10.9 21.3,10.9 21.2,10.9 L19.3,10.9 L12.5,10.9 L12.5,10.8 L12.5,10.8 Z M15.8,3.2 L16.6,1.9 C16.8,1.6 17,1.4 17,1.4 C17,1.4 17.3,1.6 17.6,1.9 L19,3.2 C19.3,3.6 19.5,3.7 19.5,3.9 C19.5,4.1 19.3,4.2 19.1,4.2 L16.9,4.2 L7.1,4.2 C6.9,4.2 6.8,4 6.8,3.8 C6.8,3.6 6.9,3.3 7.1,3.3 L15.8,3.2 L15.8,3.2 Z" id="Shape_2_"></path>
                    <path d="M27.9,12.2 L23.5,12.2 C23.3,12.2 23.2,12 23.2,11.8 C23.2,11.6 23.3,11.4 23.5,11.4 L32,11.4 L33,9.7 C33.2,9.4 33.3,9.3 33.3,9.3 C33.4,9.3 33.5,9.4 33.7,9.7 L35.1,11.4 C35.2,11.6 35.3,11.7 35.4,11.8 C35.5,11.9 35.5,12 35.5,12.1 C35.5,12.2 35.5,12.2 35.4,12.3 C35.3,12.4 35.2,12.4 35.1,12.4 L29.1,12.4 L30.5,13.1 C30.8,13.3 30.9,13.4 30.9,13.5 C30.9,13.7 30.8,13.8 30.6,13.9 L30.1,14.1 C29.5,15.5 28.9,16.7 28.5,17.7 C28,18.7 27.3,19.9 26.5,21.4 C28.3,21.2 30.2,21 32.2,20.8 C32.1,20.4 32.1,20.2 32,19.9 C31.9,19.7 31.8,19.3 31.5,18.8 C31.3,18.3 31,17.9 30.9,17.6 L30.4,16.6 C30.4,16.6 30.3,16.5 30.3,16.4 C30.3,16.3 30.3,16.2 30.3,16.2 C30.3,16.1 30.4,16.1 30.5,16.1 C30.7,16.1 31,16.3 31.6,16.6 C32.1,17 32.7,17.4 33.1,17.9 C33.6,18.4 33.9,18.9 34.2,19.3 C34.5,19.7 34.7,20.2 34.7,20.6 C34.8,21 34.8,21.5 34.8,21.8 C34.8,22.2 34.7,22.6 34.5,22.9 C34.2,23.5 33.9,23.8 33.4,23.8 C33,23.8 32.8,23.6 32.6,23.4 C32.4,23 32.3,22.7 32.2,22.3 L32.1,21.3 C29.7,22.4 27.8,23.2 26.6,23.9 L25.7,24.4 L25.2,24.7 C25.1,24.7 25.1,24.7 25.1,24.7 C25.1,24.7 25,24.5 24.9,24.2 L24.2,22.4 C24.1,22.1 24.1,22 24,21.9 C24,21.8 23.9,21.8 23.9,21.8 C23.9,21.8 24,21.7 24.2,21.6 L24.7,21.4 C24.9,21.3 25.2,21 25.6,20.3 C26.1,19.7 26.5,18.5 27,16.7 C27.4,14.8 27.7,13.4 27.9,12.2 Z M31.4,4.7 L32.2,3.2 C32.3,3 32.4,2.9 32.5,2.9 C32.6,2.9 32.7,3 32.9,3.2 L34.3,4.7 C34.4,4.8 34.5,5 34.5,5.1 C34.6,5.2 34.6,5.3 34.6,5.4 C34.6,5.5 34.6,5.5 34.5,5.6 C34.4,5.7 34.3,5.7 34.2,5.7 L32.6,5.7 L32.6,5.7 L24.7,5.7 C24.5,5.6 24.4,5.4 24.3,5.2 C24.2,5 24.4,4.8 24.7,4.8 L31.4,4.7 L31.4,4.7 Z M33.3,8.2 L33.5,8.2 L36.8,8 C36.8,7.1 36.8,6.2 36.8,5.4 C36.8,4.6 36.8,3.9 36.8,3.3 L36.7,1.5 L36.6,0.1 C36.7,0.1 36.7,3.33066907e-16 36.7,3.33066907e-16 C36.7,3.33066907e-16 36.9,3.33066907e-16 37.2,0.1 L39.3,0.6 C39.4,0.6 39.5,0.7 39.6,0.7 C39.7,0.7 39.7,0.8 39.8,0.9 L39.8,1 L39.8,1.1 L39.5,1.5 L38.9,2.3 C38.9,3.8 38.9,4.8 38.9,5 L38.9,7.7 L41.5,7.5 L42,6.4 C42.1,6.2 42.2,6 42.3,6 C42.4,6 42.5,6.1 42.7,6.2 L44.4,7.9 C44.4,7.9 44.5,8 44.6,8.1 C44.7,8.2 44.7,8.3 44.7,8.3 L44.7,8.4 C44.7,8.5 44.7,8.5 44.7,8.6 C44.7,8.7 44.6,8.7 44.5,8.9 L43.8,9.6 C43.8,11.1 43.8,12.3 43.7,13.2 C43.6,14.1 43.6,15.7 43.6,17.9 C43.5,20 43.4,21.7 43.3,22.9 C43.2,24 43,25 42.8,25.8 C42.5,26.6 42.3,27.1 41.9,27.5 C41.5,27.9 41.3,28.1 40.8,28.4 C40.4,28.7 40.2,28.8 40.2,28.8 C40.1,28.8 40.1,28.8 40.1,28.7 C40.1,28.6 40,28.6 40,28.5 L39.8,27.6 C39.6,26.9 39.2,26.5 38.6,26.1 L37.7,25.7 C37.6,25.7 37.6,25.6 37.5,25.5 C37.5,25.4 37.4,25.3 37.4,25.3 C37.4,25.1 37.5,25.1 37.7,25.1 L38.8,25.2 C39.5,25.3 40.1,25.2 40.3,24.9 C40.6,24.6 40.8,24.2 41,23.5 C41.2,22.8 41.4,21.6 41.4,19.7 L41.6,15.2 C41.6,14.5 41.6,13.4 41.7,11.9 C41.8,10.4 41.7,9.7 41.7,9.6 L41.7,8.5 L38.8,8.7 C38.8,8.9 38.8,9 38.8,9.1 L38.7,10.8 C38.6,14.6 38.3,17.4 37.9,19.2 C37.4,21 36.9,22.4 36.4,23.3 C35.8,24.3 35.1,25.2 34.3,26 C33.5,26.8 32.8,27.6 31.9,28.1 L31.2,28.6 C31.1,28.7 31,28.7 30.9,28.7 C30.8,28.7 30.8,28.7 30.8,28.6 C30.8,28.6 30.8,28.5 30.8,28.4 C30.8,28.3 30.8,28.2 30.9,28.1 L31.6,27.2 C33.4,25.2 34.5,23.5 35,22.1 C35.5,20.8 35.8,19.4 36.1,18.1 C36.4,16.8 36.5,15.5 36.6,14.2 C36.7,13 36.8,11.7 36.8,10.5 L36.8,9.5 L36.8,8.5 L33.4,8.7 C33.2,8.7 33.1,8.6 33.1,8.3 C33.1,8.4 33.2,8.3 33.3,8.2 Z" id="Shape_1_"></path>
                </g>
            </g>
        </g>
    </g>
</svg>