<svg width="263" height="114" viewBox="0 0 263 114" fill="none" xmlns="http://www.w3.org/2000/svg">
<path d="M16.5898 20.459H9.08203C9.1224 21.0443 9.15267 21.5186 9.17285 21.8818C9.19303 22.2249 9.20312 22.6992 9.20312 23.3047C9.22331 23.9102 9.13249 24.6266 8.93066 25.4541C8.70866 26.3421 8.36556 27.1191 7.90137 27.7852C7.45736 28.431 6.8418 28.764 6.05469 28.7842C5.26758 28.7842 4.6722 28.4512 4.26855 27.7852C3.86491 27.1191 3.65299 26.4027 3.63281 25.6357C3.63281 24.8486 3.84473 24.1019 4.26855 23.3955C4.3291 23.3148 4.76302 22.7799 5.57031 21.791C6.39779 20.7819 6.91243 19.4297 7.11426 17.7344L7.2959 16.2812C7.33626 15.8171 7.42708 15.5951 7.56836 15.6152C7.70964 15.6152 7.84082 15.7262 7.96191 15.9482C8.10319 16.1501 8.23438 16.5537 8.35547 17.1592C8.49674 17.7646 8.57747 18.0977 8.59766 18.1582L8.80957 18.7939H32.9678L33.876 17.4619C34.2998 16.8564 34.5622 16.5537 34.6631 16.5537C34.7842 16.5335 35.2282 16.9271 35.9951 17.7344L38.8105 20.7314C39.4564 21.4378 39.749 22.013 39.6885 22.457C39.6279 22.8809 39.1436 23.1331 38.2354 23.2139C37.3271 23.2744 36.4593 23.5671 35.6318 24.0918C34.8245 24.6165 33.987 25.4339 33.1191 26.5439L32.332 27.543C32.0091 27.9466 31.7972 28.1182 31.6963 28.0576C31.5954 27.9971 31.5247 27.9163 31.4844 27.8154C31.4642 27.6943 31.5247 27.3411 31.666 26.7559L32.1504 24.6367C32.3926 23.5872 32.665 22.1947 32.9678 20.459H17.0742L20.5859 22.3359C20.9896 22.5781 21.2419 22.7699 21.3428 22.9111C21.4639 23.0322 21.5143 23.1634 21.4941 23.3047C21.4941 23.446 21.3125 23.6175 20.9492 23.8193L20.1016 24.2734L17.5889 27.543H26.7012L27.3975 26.5439C27.8415 25.9183 28.1341 25.5954 28.2754 25.5752C28.4368 25.555 28.7799 25.8174 29.3047 26.3623L31.6055 28.8447C32.1908 29.5107 32.4834 29.9749 32.4834 30.2373C32.5036 30.4997 32.2513 30.7217 31.7266 30.9033L30.6973 31.2666C28.2956 34.2939 26.2067 36.6654 24.4307 38.3809C25.8838 39.4102 27.8112 40.3991 30.2129 41.3477C32.6146 42.2962 35.4805 42.7705 38.8105 42.7705H40.627C40.9499 42.7705 41.1113 42.8916 41.1113 43.1338C41.1315 43.3558 41.0306 43.5475 40.8086 43.709L39.8398 44.4053C39.3353 44.7686 38.861 45.263 38.417 45.8887C37.9932 46.5143 37.6702 47.14 37.4482 47.7656C37.2464 48.3913 37.0951 48.7747 36.9941 48.916C36.8932 49.0371 36.752 49.1077 36.5703 49.1279C36.429 49.1683 36.2171 49.1279 35.9346 49.0068C35.652 48.8656 34.8044 48.5931 33.3916 48.1895C31.9788 47.7656 30.0817 46.8372 27.7002 45.4043C25.3187 43.9714 23.3005 42.498 21.6455 40.9844C19.7686 42.377 18.1035 43.5273 16.6504 44.4355C15.1973 45.3236 13.5726 46.1309 11.7764 46.8574L14.8643 48.5225H28.0029L28.9111 47.2207C29.2139 46.7767 29.4258 46.5648 29.5469 46.585C29.668 46.585 29.9909 46.7969 30.5156 47.2207L32.4229 48.8555C32.8063 49.1986 33.0283 49.4206 33.0889 49.5215C33.1696 49.6224 33.1999 49.7132 33.1797 49.7939C33.1797 49.8747 33.0283 50.1572 32.7256 50.6416L31.999 51.7617V58.543L32.1807 63.5381C32.0596 64.0023 31.8376 64.416 31.5146 64.7793C31.2119 65.1426 30.5156 65.3141 29.4258 65.2939C28.6589 65.2939 28.2754 64.9408 28.2754 64.2344V61.9033H14.3193V64.3555C14.3193 64.6986 14.1377 65.0316 13.7744 65.3545C13.4111 65.6976 12.7956 65.859 11.9277 65.8389C11.3828 65.8389 11.0498 65.7682 10.9287 65.627C10.8278 65.4857 10.7572 65.2939 10.7168 65.0518L10.8682 58.8457V51.1562C10.8682 50.2279 10.8379 48.9665 10.7773 47.3721C10.293 47.5335 9.70768 47.7253 9.02148 47.9473C8.35547 48.1491 7.25553 48.4518 5.72168 48.8555L3.90527 49.3398C2.99707 49.582 2.55306 49.4609 2.57324 48.9766C2.57324 48.7546 2.71452 48.5628 2.99707 48.4014L3.81445 48.0986L5.60059 47.3721C7.67936 46.5244 10.0003 45.2428 12.5635 43.5273C15.1468 41.7917 17.377 39.834 19.2539 37.6543C17.8815 34.9701 16.9935 33.0124 16.5898 31.7812L15.8936 29.7227C15.0055 30.8327 13.7542 32.195 12.1396 33.8096C10.5251 35.4242 9.36458 36.5342 8.6582 37.1396L7.02344 38.5322C6.4987 38.9964 6.12533 39.2285 5.90332 39.2285C5.74186 39.2487 5.64095 39.2184 5.60059 39.1377C5.5804 39.0368 5.56022 38.9661 5.54004 38.9258C5.54004 38.8652 5.56022 38.8047 5.60059 38.7441C5.62077 38.6029 5.72168 38.4414 5.90332 38.2598L6.62988 37.4424L8.50684 35.0811C9.59668 33.6885 10.9085 31.6501 12.4424 28.9658C13.9762 26.2614 15.0661 24.1221 15.7119 22.5479L16.4688 20.7314L16.5898 20.459ZM26.0957 29.1777H16.7109C17.3164 30.6309 17.9723 31.8721 18.6787 32.9014C19.3851 33.9105 20.1924 34.8691 21.1006 35.7773C23.361 33.2344 24.6628 31.6702 25.0059 31.085C25.3691 30.4997 25.7324 29.8639 26.0957 29.1777ZM28.2754 60.2686V50.1875H14.3193V60.2686H28.2754ZM17.8916 10.2266C17.7301 10.0449 17.6494 9.87337 17.6494 9.71191C17.6696 9.53027 17.8512 9.41927 18.1943 9.37891C18.3154 9.37891 19.0521 9.58073 20.4043 9.98438C21.7565 10.388 22.7555 11.1549 23.4014 12.2852C24.0674 13.3952 24.4004 14.3942 24.4004 15.2822C24.3802 16.0693 24.1481 16.8464 23.7041 17.6133C23.2803 18.3802 22.6748 18.7536 21.8877 18.7334C21.2217 18.7334 20.6969 18.471 20.3135 17.9463C19.93 17.4215 19.708 16.9674 19.6475 16.584C19.6071 16.1803 19.5667 15.5547 19.5264 14.707C19.486 13.8594 19.375 13.1631 19.1934 12.6182C19.0319 12.0531 18.8805 11.6696 18.7393 11.4678C18.6182 11.2458 18.3356 10.832 17.8916 10.2266ZM57.4287 20.9434H76.8643L77.9844 18.8242C78.2266 18.3197 78.3678 18.0775 78.4082 18.0977C78.4486 18.0977 78.6908 18.2995 79.1348 18.7031L82.2227 21.6094C82.5456 21.9323 82.7373 22.1543 82.7979 22.2754C82.8584 22.3763 82.8887 22.4671 82.8887 22.5479C82.9089 22.6286 82.7575 22.8506 82.4346 23.2139L81.375 24.3945V31.6602L81.6172 39.5615C81.4961 40.0459 81.3245 40.4294 81.1025 40.7119C80.9007 40.9945 80.5374 41.2165 80.0127 41.3779C79.488 41.5192 79.0641 41.5798 78.7412 41.5596C77.8128 41.5596 77.3486 41.0247 77.3486 39.9551V37.7754H57.2168C57.0755 39.1074 56.8737 41.055 56.6113 43.6182C56.3691 46.1813 55.8545 48.5023 55.0674 50.5811C54.2803 52.6598 53.2611 54.7891 52.0098 56.9688C50.7786 59.1484 49.3356 61.1566 47.6807 62.9932L46.7119 64.0527C46.5303 64.2747 46.3688 64.3757 46.2275 64.3555C46.167 64.3555 46.1266 64.3454 46.1064 64.3252C46.0863 64.305 46.0762 64.2142 46.0762 64.0527C46.0762 63.8913 46.1569 63.6693 46.3184 63.3867L46.9844 62.3271C48.2962 60.208 49.5072 57.887 50.6172 55.3643C51.7272 52.8213 52.484 49.6527 52.8877 45.8584C53.3115 42.0641 53.5133 38.1185 53.4932 34.0215C53.4932 29.9043 53.473 26.8366 53.4326 24.8184L53.3418 21.791L53.1299 17.9766C53.2308 17.8151 53.3115 17.7243 53.3721 17.7041C53.4326 17.6637 53.8464 17.9564 54.6133 18.582L57.4287 20.9434ZM77.3486 36.2012V22.5176H57.4287L57.2168 36.2012H77.3486ZM63.0898 9.16699C63.0697 9.08626 63.0798 8.99544 63.1201 8.89453C63.1807 8.77344 63.2917 8.69271 63.4531 8.65234C63.5742 8.65234 63.9779 8.82389 64.6641 9.16699C65.3503 9.48991 66.3392 10.1559 67.6309 11.165C68.9427 12.154 69.5986 13.7282 69.5986 15.8877C69.5986 16.7354 69.3867 17.6032 68.9629 18.4912C68.5391 19.3792 67.9437 19.8333 67.1768 19.8535C66.43 19.8535 65.8952 19.6517 65.5723 19.248C65.1484 18.804 64.9062 18.2995 64.8457 17.7344C64.7852 17.1491 64.7448 16.2308 64.7246 14.9795C64.7044 13.7282 64.5732 12.709 64.3311 11.9219C64.109 11.1146 63.7962 10.3577 63.3926 9.65137L63.0898 9.16699ZM118.793 14.8887L119.641 13.3447C119.802 13.0622 119.923 12.9209 120.004 12.9209C120.105 12.9007 120.307 13.042 120.609 13.3447L123.395 16.2812C123.617 16.5436 123.738 16.7152 123.758 16.7959C123.798 16.8564 123.818 16.9271 123.818 17.0078C123.839 17.0684 123.697 17.2601 123.395 17.583L122.517 18.5215C122.456 20.6204 122.365 22.5882 122.244 24.4248C122.143 26.2412 121.861 27.6136 121.396 28.542C120.952 29.4502 120.216 30.2575 119.187 30.9639C118.177 31.6501 117.521 31.9629 117.219 31.9023C117.098 31.9023 116.987 31.862 116.886 31.7812C116.785 31.7005 116.664 31.0951 116.522 29.9648C116.401 28.8145 115.766 27.9264 114.615 27.3008L113.919 26.9375C113.818 26.8971 113.737 26.8265 113.677 26.7256C113.616 26.6247 113.576 26.5339 113.556 26.4531C113.556 26.3522 113.606 26.2614 113.707 26.1807C113.808 26.0798 113.909 26.0394 114.01 26.0596L115.009 26.332C115.554 26.4935 116.149 26.5238 116.795 26.4229C117.441 26.3219 117.885 26.0898 118.127 25.7266C118.389 25.3431 118.561 24.556 118.642 23.3652C118.722 22.1745 118.783 20.9938 118.823 19.8232C118.884 18.6325 118.914 17.7646 118.914 17.2197V16.5234H110.952V34.8086H120.458L120.973 33.8701C121.255 33.3656 121.427 33.1234 121.487 33.1436C121.548 33.1436 121.719 33.2848 122.002 33.5674L124.727 36.5947C124.969 36.8773 125.11 37.0791 125.15 37.2002C125.191 37.3011 125.211 37.4121 125.211 37.5332C125.231 37.6543 125.09 37.8158 124.787 38.0176L123.818 38.7139C122.829 42.6898 122.184 45.2327 121.881 46.3428C121.578 47.4326 120.963 49.2389 120.034 51.7617C120.579 52.4277 121.084 52.9928 121.548 53.457C122.012 53.901 122.789 54.5065 123.879 55.2734C124.969 56.0404 125.796 56.555 126.361 56.8174L127.481 57.3623L127.966 57.6348C128.067 57.6953 128.117 57.8265 128.117 58.0283C128.137 58.2503 128.057 58.3916 127.875 58.4521L127.481 58.6035L126.725 58.7852C126.422 58.8861 126.099 59.0879 125.756 59.3906C125.433 59.6934 125.181 59.9658 124.999 60.208C124.817 60.4704 124.636 60.8236 124.454 61.2676C124.293 61.7116 124.172 61.984 124.091 62.085C124.03 62.1859 123.96 62.2363 123.879 62.2363C123.717 62.2565 123.415 61.9941 122.971 61.4492L121.578 60.0264C121.134 59.5824 119.913 58.0384 117.915 55.3945C116.906 56.8275 116.22 57.766 115.856 58.21C115.493 58.6742 114.615 59.7135 113.223 61.3281L112.436 62.2061C112.153 62.529 111.961 62.6904 111.86 62.6904C111.759 62.7106 111.689 62.6904 111.648 62.6299C111.608 62.5895 111.578 62.4785 111.558 62.2969C111.558 62.1354 111.638 61.9134 111.8 61.6309L112.526 60.4805C112.708 60.1777 113.202 59.2796 114.01 57.7861C114.837 56.2926 115.291 55.4551 115.372 55.2734L116.492 52.8818C116.008 51.7516 115.614 50.7627 115.312 49.915C115.009 49.0674 114.686 47.8867 114.343 46.373C114.02 44.8594 113.768 43.4264 113.586 42.0742C113.424 40.722 113.324 39.4707 113.283 38.3203V37.624L113.223 36.4434H110.952V57.8164L111.164 62.3877C110.962 63.2555 110.569 63.8005 109.983 64.0225C109.398 64.2646 108.984 64.3757 108.742 64.3555C108.197 64.3555 107.854 64.2243 107.713 63.9619C107.592 63.6995 107.511 63.4473 107.471 63.2051L107.713 56.4541V21.9121L107.471 12.7393C107.592 12.6182 107.693 12.5475 107.773 12.5273C107.874 12.487 108.197 12.6686 108.742 13.0723L111.104 14.8887H118.793ZM120.367 36.4434H113.798C113.879 37.0892 114 37.8864 114.161 38.835C114.323 39.7835 114.736 41.2367 115.402 43.1943C116.068 45.152 116.906 47.0088 117.915 48.7646C118.177 47.7959 118.399 46.9785 118.581 46.3125C118.763 45.6465 119.035 44.3851 119.398 42.5283C119.782 40.6715 120.024 39.3092 120.125 38.4414C120.226 37.5534 120.307 36.8874 120.367 36.4434ZM95.4219 13.8594H100.266L100.992 12.4971C101.416 11.71 101.648 11.3063 101.688 11.2861C101.749 11.266 101.991 11.4678 102.415 11.8916L104.776 14.2832C105.14 14.6868 105.341 14.929 105.382 15.0098C105.422 15.0905 105.442 15.1712 105.442 15.252C105.442 15.3327 105.321 15.4941 105.079 15.7363L103.959 16.8867V58.543C103.959 59.6328 103.868 60.4401 103.687 60.9648C103.525 61.5098 103.313 61.8831 103.051 62.085C102.788 62.307 102.213 62.6602 101.325 63.1445C100.437 63.6289 99.9023 63.8408 99.7207 63.7803C99.5592 63.7601 99.4382 63.6794 99.3574 63.5381C99.2767 63.417 99.2061 63.0537 99.1455 62.4482C99.1051 61.8428 98.863 61.1768 98.4189 60.4502C97.9749 59.7236 97.4199 59.1283 96.7539 58.6641L96.1787 58.3008C96.0778 58.2402 95.9971 58.1494 95.9365 58.0283C95.876 57.9072 95.8457 57.7962 95.8457 57.6953C95.8659 57.6146 95.9163 57.5339 95.9971 57.4531C96.0778 57.3724 96.1888 57.3421 96.3301 57.3623L97.2686 57.6045C98.6611 57.9678 99.529 58.0586 99.8721 57.877C100.215 57.7155 100.427 57.554 100.508 57.3926C100.589 57.2311 100.629 56.4541 100.629 55.0615V41.499H95.4219C95.2806 42.8512 95.1393 44.2337 94.998 45.6465C94.8568 47.0592 94.6146 48.6536 94.2715 50.4297C93.9284 52.2057 93.5146 53.7799 93.0303 55.1523C92.5661 56.5247 92.0413 57.9072 91.4561 59.2998C90.8708 60.7126 90.457 61.641 90.2148 62.085L89.5488 63.3262C89.2663 63.8509 89.0745 64.0426 88.9736 63.9014C88.8929 63.7601 88.8525 63.6087 88.8525 63.4473C88.8525 63.306 88.8828 63.1546 88.9434 62.9932L89.5488 61.3281C89.6497 61.0052 89.8516 60.2181 90.1543 58.9668C90.4772 57.7155 90.891 55.7477 91.3955 53.0635C91.9001 50.3792 92.1826 47.5033 92.2432 44.4355C92.3037 41.3477 92.3239 38.1992 92.3037 34.9902C92.2432 30.3281 92.1927 26.3018 92.1523 22.9111C92.112 19.5205 92.0918 17.4316 92.0918 16.6445V14.2832L91.9404 11.5889C91.9808 11.4274 92.0312 11.3164 92.0918 11.2559C92.1523 11.1953 92.3743 11.3164 92.7578 11.6191L95.4219 13.8594ZM100.629 39.834V27.9971H95.4219V39.834H100.629ZM100.629 26.332V15.5244H95.4219V26.332H100.629ZM158.724 18.3701L159.571 16.917C159.793 16.5335 159.965 16.3216 160.086 16.2812C160.207 16.2207 160.419 16.3216 160.722 16.584L164.385 20.0049C164.667 20.2874 164.889 20.6104 165.051 20.9736C165.232 21.3369 165.01 21.6094 164.385 21.791L162.75 22.3057C160.126 25.5146 157.513 28.4007 154.909 30.9639C155.918 31.7106 157.038 32.4775 158.27 33.2646C159.521 34.0518 161.065 34.7581 162.901 35.3838C164.758 35.9893 166.009 36.3424 166.655 36.4434C167.321 36.5443 168.33 36.5947 169.683 36.5947H171.136C171.196 36.5947 171.247 36.6452 171.287 36.7461C171.348 36.8268 171.378 36.9681 171.378 37.1699C171.398 37.3516 171.317 37.513 171.136 37.6543L170.288 38.3203C169.884 38.6432 169.501 39.0771 169.138 39.6221C168.795 40.1468 168.512 40.6514 168.29 41.1357C168.088 41.6201 167.927 42.0843 167.806 42.5283C167.685 42.9723 167.594 43.2347 167.533 43.3154C167.493 43.376 167.412 43.4062 167.291 43.4062C166.867 43.4668 165.495 42.9421 163.174 41.832C160.853 40.7018 158.774 39.3799 156.938 37.8662C155.121 36.3525 153.547 34.8187 152.215 33.2646C150.822 34.415 149.41 35.4645 147.977 36.4131L152.79 37.8359C153.274 37.9974 153.507 38.2194 153.486 38.502C153.466 38.7643 153.315 39.0166 153.032 39.2588L151.912 40.1973C151.791 41.1257 151.71 41.8219 151.67 42.2861L151.64 42.8916L151.549 43.7695H159.753L160.419 42.4678C160.621 42.0843 160.782 41.8926 160.903 41.8926C161.045 41.8724 161.287 42.0036 161.63 42.2861L164.809 45.0107C165.01 45.1924 165.152 45.374 165.232 45.5557C165.333 45.7171 165.384 45.8483 165.384 45.9492C165.384 46.0299 165.333 46.1712 165.232 46.373C165.152 46.5547 165.051 46.6859 164.93 46.7666L163.688 47.6748C163.547 49.1279 163.325 51.1663 163.022 53.79C162.72 56.3936 162.145 58.7347 161.297 60.8135C160.449 62.8923 159.097 64.2848 157.24 64.9912L155.151 65.5967C154.889 65.6774 154.697 65.7077 154.576 65.6875C154.435 65.6875 154.334 65.6471 154.273 65.5664C154.213 65.5059 154.162 65.4251 154.122 65.3242C154.082 65.2233 154.011 64.8903 153.91 64.3252C153.829 63.7601 153.638 63.1647 153.335 62.5391C153.032 61.9134 152.689 61.4694 152.306 61.207L150.61 60.1475C150.469 60.0667 150.388 59.9658 150.368 59.8447C150.368 59.7236 150.378 59.6429 150.398 59.6025C150.419 59.3604 150.58 59.2594 150.883 59.2998L153.032 59.6025C154.768 59.8649 155.979 59.8145 156.665 59.4512C157.351 59.1081 157.876 58.4622 158.239 57.5137C158.623 56.5651 158.966 55.1019 159.269 53.124C159.571 51.1462 159.753 49.3802 159.813 47.8262L159.874 46.0703L159.935 45.4043H151.337C150.893 47.6042 150.53 49.2894 150.247 50.46C149.985 51.6104 149.299 53.1947 148.188 55.2129C147.078 57.2109 145.282 59.0173 142.8 60.6318C140.338 62.2666 137.996 63.4271 135.776 64.1133L133.96 64.6885C133.758 64.7692 133.597 64.7692 133.476 64.6885C133.375 64.6077 133.314 64.4766 133.294 64.2949C133.294 64.1133 133.415 63.9518 133.657 63.8105L135.231 62.9932C140.176 60.3695 143.254 57.5742 144.465 54.6074C145.696 51.6406 146.453 49.5013 146.735 48.1895L147.159 46.04L147.311 45.4043H136.927C136.604 45.4043 136.432 45.1318 136.412 44.5869C136.392 44.042 136.563 43.7695 136.927 43.7695H147.522C147.563 43.2448 147.603 42.8411 147.644 42.5586L147.704 40.6816L147.795 38.5322V36.5947C145.413 38.1286 143.214 39.4001 141.195 40.4092C139.177 41.4183 137.028 42.2559 134.747 42.9219L133.112 43.4062C132.628 43.5475 132.376 43.5374 132.355 43.376C132.335 43.2145 132.325 43.1035 132.325 43.043C132.325 42.7604 132.436 42.5687 132.658 42.4678L134.626 41.5596C135.958 40.9541 138.067 39.6624 140.953 37.6846C143.859 35.7067 146.826 33.2041 149.854 30.1768C148.683 27.7751 147.896 26.0394 147.492 24.9697C147.089 23.9001 146.836 23.0726 146.735 22.4873L146.16 20.0049C144.505 22.9111 143.062 25.2321 141.831 26.9678C140.62 28.6833 139.157 30.4694 137.441 32.3262L135.988 33.8701C135.746 34.1325 135.575 34.1829 135.474 34.0215C135.393 33.8398 135.353 33.7087 135.353 33.6279C135.353 33.527 135.423 33.3454 135.564 33.083L136.745 31.085C137.492 29.8135 138.239 28.4814 138.985 27.0889C139.752 25.6963 140.701 23.5973 141.831 20.792C142.981 17.9867 143.859 15.5143 144.465 13.375L145.101 10.9531C145.282 10.3275 145.383 10.0046 145.403 9.98438C145.424 9.94401 145.454 9.91374 145.494 9.89355L146.16 10.2871L150.065 12.4971C150.489 12.7393 150.691 12.9915 150.671 13.2539C150.671 13.5163 150.469 13.7585 150.065 13.9805L149.188 14.4951C148.36 16.1299 147.694 17.4215 147.189 18.3701H158.724ZM157.967 20.0049H147.099C147.744 21.6396 148.38 23.0423 149.006 24.2129C149.652 25.3633 150.54 26.7256 151.67 28.2998C154.475 25.0303 156.574 22.2653 157.967 20.0049Z" fill="white"/>
<path d="M1.296 94.014V95.22H8.352V96.786H2.844V103.914H8.118C7.938 104.85 7.614 105.624 7.182 106.236C6.174 105.714 5.238 105.102 4.392 104.4L3.402 105.084C4.284 105.84 5.256 106.506 6.3 107.082C5.148 107.91 3.312 108.414 0.81 108.612L1.368 109.8C4.23 109.476 6.3 108.792 7.56 107.712C10.242 108.936 13.392 109.638 17.01 109.782L17.334 108.54C13.878 108.432 10.89 107.838 8.37 106.776C8.874 106.056 9.216 105.102 9.432 103.914H15.228V96.786H9.648V95.22H16.722V94.014H1.296ZM13.95 102.78H9.594L9.648 101.502V100.872H13.95V102.78ZM8.298 102.78H4.122V100.872H8.352V101.502C8.352 101.934 8.334 102.366 8.298 102.78ZM4.122 99.792V97.902H8.352V99.792H4.122ZM9.648 97.902H13.95V99.792H9.648V97.902ZM24.192 94.428V95.472H26.694V96.588H27.864V95.472H31.608V96.282H32.796V95.472H35.28V94.428H32.796V93.276H31.608V94.428H27.864V93.294H26.694V94.428H24.192ZM24.75 98.964V99.936H29.142V100.854H25.434V105.534H29.142V106.506H24.624V107.478H29.142V108.432H23.994V109.476H35.244V108.432H30.348V107.478H34.758V106.506H30.348V105.534H34.128V100.854H30.348V99.936H35.118V98.964H30.348V97.92C31.968 97.812 33.408 97.668 34.632 97.47L34.092 96.534C31.68 96.894 28.656 97.092 24.984 97.11L25.308 98.064C26.658 98.064 27.936 98.028 29.142 97.992V98.964H24.75ZM32.94 104.616H30.348V103.626H32.94V104.616ZM29.142 104.616H26.622V103.626H29.142V104.616ZM26.622 102.762V101.772H29.142V102.762H26.622ZM30.348 101.772H32.94V102.762H30.348V101.772ZM19.368 96.768C19.296 98.496 19.044 100.134 18.594 101.7L19.602 101.97C20.034 100.35 20.286 98.64 20.358 96.84L19.368 96.768ZM23.526 96.318L22.662 96.606C23.094 98.118 23.454 99.684 23.742 101.304L24.678 101.088C24.336 99.288 23.958 97.704 23.526 96.318ZM21.096 93.33V109.746H22.356V93.33H21.096ZM38.988 99.81V109.8H40.284V97.812C41.004 96.552 41.598 95.202 42.066 93.78L40.86 93.204C39.978 96.048 38.556 98.586 36.612 100.782L37.026 102.15C37.728 101.412 38.376 100.638 38.988 99.81ZM50.58 100.458L49.428 100.836C50.31 102.852 51.12 105.192 51.84 107.82L52.974 107.316C52.29 104.868 51.498 102.582 50.58 100.458ZM44.388 96.75H51.21C50.94 97.686 50.598 98.514 50.184 99.27L51.426 99.63C51.876 98.55 52.236 97.452 52.524 96.336V95.49H44.856C45.072 94.86 45.288 94.194 45.468 93.492L44.244 93.24C43.632 95.67 42.642 97.884 41.274 99.882L42.39 100.566C43.146 99.414 43.812 98.154 44.388 96.75ZM46.638 109.674C47.628 109.674 48.132 109.17 48.132 108.162V98.262H46.872V107.838C46.872 108.306 46.638 108.54 46.188 108.54C45.504 108.54 44.766 108.504 44.01 108.45L44.28 109.674H46.638ZM43.938 100.602C43.2 103.23 42.336 105.39 41.364 107.082L42.57 107.514C43.614 105.624 44.46 103.428 45.108 100.926L43.938 100.602ZM61.272 96.408H58.374C58.734 95.508 59.004 94.518 59.22 93.456L57.924 93.276C57.762 94.356 57.51 95.4 57.15 96.408H55.476V109.206H56.736V107.658H60.012V108.684H61.272V96.408ZM56.736 106.452V102.51H60.012V106.452H56.736ZM56.736 101.34V97.632H60.012V101.34H56.736ZM64.404 100.584L63.36 101.232C64.602 102.708 65.592 104.04 66.33 105.228L67.356 104.508C66.672 103.392 65.7 102.078 64.404 100.584ZM70.578 96.426H64.836C65.16 95.49 65.412 94.482 65.628 93.42L64.35 93.258C63.882 95.814 63.036 97.974 61.776 99.738L62.55 100.764C63.252 99.846 63.846 98.82 64.35 97.686H69.3C69.264 102.87 69.192 105.984 69.084 106.992C68.94 107.91 68.454 108.378 67.608 108.378C67.05 108.378 66.402 108.36 65.646 108.324L65.952 109.512C66.816 109.548 67.428 109.584 67.788 109.584C69.3 109.584 70.128 108.882 70.308 107.514C70.488 106.11 70.578 102.402 70.578 96.426ZM72.972 96.822V98.064H75.168C74.664 100.314 73.818 102.312 72.648 104.076L73.206 105.462C74.016 104.094 74.682 102.564 75.204 100.89V109.746H76.464V100.566C76.878 101.304 77.364 102.24 77.904 103.392L78.426 102.618V102.852H79.614C79.434 104.31 79.218 105.768 78.966 107.208H86.526C86.49 107.46 86.472 107.64 86.436 107.712C86.274 108.126 86.022 108.396 85.698 108.522C85.374 108.612 84.996 108.666 84.582 108.666C84.114 108.666 83.592 108.63 83.016 108.594L83.394 109.782C83.898 109.782 84.348 109.764 84.744 109.764C85.608 109.764 86.274 109.638 86.706 109.386C87.156 109.098 87.462 108.666 87.642 108.09C87.678 107.946 87.714 107.658 87.768 107.208H89.1V106.092H87.84C87.876 105.264 87.93 104.184 87.984 102.852H89.316V101.646H88.038L88.164 97.398H80.19C80.496 96.948 80.784 96.462 81.072 95.922H88.848V94.716H81.648C81.828 94.32 81.99 93.888 82.152 93.438L80.874 93.168C80.19 95.076 79.308 96.624 78.228 97.848V96.822H76.464V93.294H75.204V96.822H72.972ZM80.838 102.852H86.76C86.706 104.184 86.652 105.264 86.616 106.092H80.388C80.568 105.102 80.712 104.022 80.838 102.852ZM86.796 101.646H80.946C81.018 100.674 81.072 99.63 81.126 98.55H86.904C86.868 99.666 86.832 100.71 86.796 101.646ZM79.722 101.646H78.426V102.06C77.742 101.016 77.094 100.044 76.464 99.18V98.064H78.228V97.992L79.002 98.91C79.326 98.55 79.632 98.172 79.956 97.74C79.92 99.036 79.83 100.332 79.722 101.646ZM83.124 98.91L82.332 99.666C83.232 100.314 83.934 100.926 84.456 101.502L85.266 100.692C84.69 100.098 83.97 99.504 83.124 98.91ZM82.926 103.086L82.134 103.86C82.998 104.544 83.682 105.21 84.186 105.822L84.996 105.012C84.438 104.364 83.754 103.734 82.926 103.086ZM102.672 102.78H95.274C95.796 102.402 96.246 102.006 96.642 101.574H101.304C101.664 101.988 102.114 102.384 102.672 102.78ZM102.636 101.574H106.65V100.53H101.7V99.45H104.04V98.496H101.7V97.416H104.382V96.426H101.7V95.418H105.048V97.236H106.308V94.32H99.756C99.54 93.852 99.306 93.456 99.09 93.096L97.722 93.33C97.956 93.618 98.19 93.96 98.406 94.32H91.692V97.236H92.952V95.418H96.282V96.426H93.618V97.416H96.282V98.496H93.978V99.45H96.282V100.53H91.386V101.574H95.292C94.32 102.33 92.844 102.978 90.9 103.5L91.566 104.58C92.556 104.22 93.438 103.842 94.23 103.428V106.992H95.49V103.824H102.69V106.992H103.95V103.536C104.688 103.896 105.552 104.238 106.524 104.544L107.046 103.446C105.102 102.978 103.626 102.366 102.636 101.574ZM100.44 95.418V96.426H97.56V95.418H100.44ZM97.56 100.53V99.45H100.44V100.53H97.56ZM100.44 98.496H97.56V97.416H100.44V98.496ZM100.17 106.758L99.522 107.694C101.376 108.234 103.194 108.99 104.958 109.926L105.606 108.9C103.968 108.072 102.15 107.352 100.17 106.758ZM98.298 104.4C98.19 105.912 97.776 106.974 97.056 107.604C96.264 108.27 94.662 108.666 92.214 108.792L92.7 109.89C95.508 109.674 97.308 109.152 98.1 108.342C98.82 107.694 99.288 106.416 99.504 104.508L98.298 104.4ZM118.836 93.204C118.8 93.654 118.746 94.104 118.692 94.572H114.318V95.706H118.53C118.458 96.156 118.386 96.606 118.296 97.056H114.75V101.376H124.2V97.056H119.52C119.61 96.624 119.7 96.174 119.79 95.706H124.632V94.572H119.952C119.988 94.194 120.042 93.798 120.078 93.384L118.836 93.204ZM114.354 102.6V103.788H124.578V102.6H114.354ZM123.066 100.296H121.338V98.154H123.066V100.296ZM120.312 100.296H118.638V98.154H120.312V100.296ZM117.612 100.296H115.884V98.154H117.612V100.296ZM112.482 93.204C111.726 94.932 110.484 96.48 108.792 97.812L109.17 99.072C111.222 97.524 112.716 95.742 113.634 93.744L112.482 93.204ZM112.896 97.812C112.068 99.612 110.718 101.232 108.882 102.636L109.26 103.86C109.962 103.338 110.61 102.798 111.204 102.222V109.8H112.464V100.836C113.076 100.044 113.598 99.216 114.012 98.334L112.896 97.812ZM123.696 104.526L122.616 104.886C123.228 105.984 123.804 107.262 124.308 108.72L125.37 108.234C124.902 106.92 124.344 105.678 123.696 104.526ZM114.498 104.94C114.21 106.254 113.76 107.46 113.148 108.558L114.21 109.224C114.84 108.072 115.326 106.722 115.65 105.174L114.498 104.94ZM121.104 109.656C121.662 109.656 122.076 109.548 122.328 109.332C122.616 109.062 122.814 108.324 122.922 107.136L121.788 106.758C121.734 107.604 121.626 108.126 121.482 108.306C121.374 108.432 121.176 108.504 120.888 108.504H118.494C118.026 108.504 117.81 108.27 117.81 107.838V104.832H116.604V108.108C116.604 109.134 117.108 109.656 118.116 109.656H121.104ZM119.754 104.256L118.818 104.85C119.538 105.66 120.114 106.416 120.546 107.1L121.5 106.416C121.086 105.804 120.51 105.084 119.754 104.256ZM142.164 93.528C140.4 94.32 138.438 94.734 136.26 94.806V101.844C136.17 104.796 135.522 107.118 134.298 108.792L135.198 109.746C136.602 107.766 137.358 105.138 137.448 101.844V100.368H139.878V109.728H141.156V100.368H143.046V99.126H137.448V95.868C139.392 95.76 141.174 95.346 142.776 94.662L142.164 93.528ZM128.322 93.384V95.364H127.134V96.534H128.322V104.076H126.99V105.282H135.234V104.076H134.082V96.534H135.27V95.364H134.082V93.42H132.822V95.364H129.582V93.384H128.322ZM129.582 104.076V102.294H132.822V104.076H129.582ZM132.822 96.534V98.334H129.582V96.534H132.822ZM129.582 101.178V99.432H132.822V101.178H129.582ZM132.588 105.822L131.634 106.416C132.282 107.28 132.786 108.09 133.146 108.81L134.136 108.126C133.758 107.46 133.236 106.686 132.588 105.822ZM129.15 105.804C128.484 107.046 127.692 108.108 126.774 108.99L127.836 109.764C128.754 108.792 129.564 107.658 130.248 106.344L129.15 105.804ZM144.9 102.726V103.95H153.99V102.726H144.9ZM159.308 99.846V101.016H163.304V103.23H164.528V101.016H168.704V99.846H164.528V97.686H163.304V99.846H159.308ZM156.5 95.148V96.336H161.432C160.154 97.866 158.3 99.09 155.852 100.026L156.482 101.142C159.362 100.044 161.54 98.442 162.998 96.336H165.086C166.346 98.352 168.488 99.99 171.512 101.232L172.07 100.062C169.514 99.144 167.642 97.902 166.454 96.336H171.422V95.148H163.7C163.952 94.626 164.186 94.068 164.402 93.456L163.088 93.294C162.872 93.942 162.602 94.554 162.26 95.148H156.5ZM155.96 104.292V105.498H159.704C159.596 105.93 159.434 106.344 159.218 106.74C158.678 107.604 157.76 108.306 156.428 108.846L157.094 109.89C158.534 109.314 159.578 108.54 160.208 107.532C160.55 106.956 160.82 106.29 161 105.498H166.562V109.746H167.804V105.498H171.872V104.292H167.804V102.24H166.562V104.292H161.198C161.234 103.95 161.252 103.59 161.252 103.212V102.24H160.01V103.212C160.01 103.572 159.974 103.932 159.938 104.292H155.96ZM189.314 96.318L186.11 97.326V93.366H184.886V97.704L182.996 98.298V94.986H181.79V98.676L180.422 99.108V100.35L181.79 99.936V107.82C181.79 108.954 182.33 109.53 183.428 109.53H188C188.684 109.53 189.17 109.35 189.494 109.008C189.854 108.612 190.088 107.478 190.232 105.606L189.062 105.228C188.99 106.74 188.846 107.64 188.63 107.946C188.45 108.198 188.162 108.342 187.766 108.342H183.806C183.266 108.342 182.996 108.072 182.996 107.55V99.558L184.886 98.982V106.002H186.11V98.604L188.126 97.992C188.126 100.692 188.09 102.258 188.018 102.69C187.946 103.122 187.784 103.356 187.496 103.356C187.298 103.356 187.064 103.338 186.794 103.32L187.154 104.526H187.262C188.324 104.526 188.936 104.112 189.08 103.32C189.224 102.492 189.314 100.17 189.314 96.318ZM178.406 95.31L177.614 101.52H175.508L176.228 96.642L175.022 96.588L174.176 102.708H178.964C178.964 105.426 178.874 107.064 178.694 107.64C178.514 108.18 177.956 108.468 177.056 108.468C176.768 108.468 176.282 108.432 175.58 108.36L175.922 109.512C176.408 109.548 176.876 109.566 177.326 109.566C178.514 109.566 179.288 109.242 179.648 108.63C180.008 108 180.206 105.624 180.206 101.52H178.874L179.72 94.122H173.888V95.31H178.406ZM178.01 104.31C176.696 104.706 175.166 105.012 173.42 105.246L173.582 106.488C175.238 106.236 176.714 105.912 178.01 105.48V104.31ZM205.19 104.22H194.93V109.854H196.19V109.08H203.93V109.854H205.19V104.22ZM196.19 107.91V105.39H203.93V107.91H196.19ZM197.63 96.192C196.478 97.866 195.02 99.216 193.238 100.242L194.066 101.25C194.858 100.746 195.614 100.188 196.316 99.558C197.09 100.242 197.936 100.854 198.854 101.394C196.946 102.15 194.534 102.744 191.636 103.212L192.122 104.364C195.362 103.806 198.044 103.05 200.168 102.078C202.4 103.158 204.938 103.788 207.818 104.004L208.106 102.834C205.676 102.654 203.48 102.186 201.518 101.412C202.904 100.62 203.966 99.72 204.704 98.694V97.65H198.062C198.35 97.272 198.62 96.876 198.89 96.462L197.63 96.192ZM200.186 100.818C199.07 100.26 198.026 99.594 197.072 98.802L197.126 98.748H203.156C202.418 99.504 201.428 100.206 200.186 100.818ZM207.206 94.644H200.564C200.348 94.104 200.15 93.6 199.934 93.168L198.512 93.384C198.746 93.762 198.962 94.176 199.178 94.644H192.59V98.046H193.904V95.814H205.892V98.046H207.206V94.644ZM223.28 96.786V100.296H213.002V96.786H223.28ZM213.002 101.556H224.594V95.508H218.906C218.582 94.644 218.258 93.87 217.934 93.186L216.548 93.402C216.926 94.05 217.268 94.752 217.592 95.508H211.724V101.142C211.688 104.364 210.95 106.992 209.492 109.008L210.446 109.872C212.066 107.55 212.912 104.778 213.002 101.556ZM230.174 99.45H233.072V102.456H230.174V99.45ZM233.072 98.28H230.174V95.238H233.072V98.28ZM230.156 103.626H233.072V107.694C233.072 108.342 232.838 108.666 232.388 108.666C231.956 108.666 231.506 108.63 231.002 108.594L231.308 109.746H232.748C233.756 109.746 234.26 109.188 234.26 108.108V94.068H229.004V102.708C228.986 105.228 228.626 107.316 227.906 108.936L228.878 109.836C229.616 108.216 230.048 106.146 230.156 103.626ZM236.996 101.844H237.428C237.824 103.608 238.598 105.192 239.75 106.596C239.03 107.46 238.166 108.162 237.14 108.72L237.824 109.764C238.904 109.188 239.822 108.45 240.614 107.532C241.442 108.342 242.414 109.08 243.566 109.746L244.214 108.648C243.116 108.018 242.162 107.316 241.352 106.524C242.18 105.228 242.774 103.644 243.116 101.79V100.692H236.996V95.238H241.802C241.766 96.606 241.694 97.488 241.568 97.884C241.46 98.154 241.298 98.334 241.082 98.406C240.866 98.46 240.56 98.496 240.128 98.496C239.624 98.496 239.228 98.478 238.922 98.478L239.264 99.594H240.722C241.856 99.594 242.522 99.216 242.738 98.478C242.954 97.758 243.062 96.282 243.062 94.05H235.772V109.818H236.996V101.844ZM238.544 101.844H241.964C241.64 103.266 241.154 104.508 240.488 105.588C239.57 104.472 238.922 103.23 238.544 101.844ZM251.09 93.24C250.334 95.04 248.858 96.552 246.698 97.794L247.49 98.838C248.318 98.334 249.056 97.776 249.74 97.164C250.604 97.92 251.54 98.604 252.548 99.198C250.568 99.99 248.282 100.566 245.672 100.926L246.266 102.15C249.182 101.7 251.756 100.962 253.952 99.954C256.184 101.07 258.722 101.79 261.566 102.114L262.16 100.908C259.658 100.656 257.39 100.098 255.356 99.234C257.012 98.298 258.416 97.164 259.568 95.832V94.788H251.72C251.972 94.356 252.206 93.906 252.404 93.42L251.09 93.24ZM253.934 98.568C252.728 97.938 251.612 97.182 250.604 96.3L250.838 96.012H257.714C256.652 96.984 255.392 97.848 253.934 98.568ZM252.836 101.25C252.836 101.97 252.764 102.654 252.62 103.302H246.896V104.472H252.26C252.116 104.832 251.918 105.174 251.702 105.498C250.766 106.812 248.804 107.91 245.852 108.774L246.716 109.836C250.028 108.792 252.134 107.442 253.052 105.822C253.286 105.39 253.484 104.94 253.628 104.472H258.956C258.902 106.272 258.74 107.388 258.47 107.82C258.182 108.252 257.516 108.486 256.436 108.504L254.312 108.414L254.636 109.584C255.464 109.62 256.166 109.656 256.742 109.656C258.02 109.656 258.92 109.35 259.442 108.756C259.964 108.162 260.234 106.344 260.27 103.302H253.934C254.042 102.654 254.114 101.97 254.114 101.25H252.836Z" fill="white"/>
</svg>
