<svg width="294" height="114" viewBox="0 0 294 114" fill="none" xmlns="http://www.w3.org/2000/svg">
<path d="M2.36133 28.6631C2.13932 28.6429 1.99805 28.5117 1.9375 28.2695C1.85677 27.4421 2.02832 27.0283 2.45215 27.0283H10.3838V17.2197C7.31608 17.6032 5.63086 17.805 5.32812 17.8252L3.63281 17.9766C3.49154 17.9967 3.37044 17.9665 3.26953 17.8857C3.1888 17.7848 3.15853 17.6839 3.17871 17.583C3.17871 17.4014 3.3099 17.2601 3.57227 17.1592L5.29785 16.5234C6.69043 16.0189 8.33529 15.3024 10.2324 14.374C12.1296 13.4456 13.5524 12.6182 14.501 11.8916L15.8633 10.832L16.5596 10.2871C16.7412 10.4486 16.9128 10.6302 17.0742 10.832L20.3135 15.4033C20.3942 15.5446 20.4245 15.696 20.4043 15.8574C20.3841 16.0189 20.2933 16.0996 20.1318 16.0996L18.6182 16.2207C17.3063 16.3418 16.0146 16.5234 14.7432 16.7656C14.4606 17.2904 14.1478 17.7041 13.8047 18.0068V27.0283H15.5L16.8926 24.5156C17.054 24.2129 17.1953 24.0615 17.3164 24.0615C17.4375 24.0413 17.609 24.1523 17.8311 24.3945L20.4648 27.3008C20.8281 27.7044 21.0098 28.0072 21.0098 28.209C20.9896 28.5117 20.7979 28.6631 20.4346 28.6631H13.8047V34.6875C14.9349 34.9297 16.0954 35.2526 17.2861 35.6562C18.4769 36.0397 19.2842 36.7562 19.708 37.8057C20.152 38.8551 20.374 39.6725 20.374 40.2578C20.374 40.8431 20.2933 41.3779 20.1318 41.8623C19.7282 43.0127 19.0824 43.598 18.1943 43.6182C17.7907 43.6383 17.4274 43.4971 17.1045 43.1943C16.8018 42.8916 16.5798 42.5485 16.4385 42.165C16.2972 41.7614 16.1357 41.0046 15.9541 39.8945C15.7926 38.7643 15.5706 37.9268 15.2881 37.3818C15.0055 36.8167 14.5111 36.292 13.8047 35.8076V56.2119L14.0166 62.7812C13.9964 63.2656 13.8955 63.7399 13.7139 64.2041C13.5524 64.6885 12.9974 64.9508 12.0488 64.9912C11.1003 65.0316 10.5654 64.9307 10.4443 64.6885C10.3434 64.4665 10.2728 64.1335 10.2324 63.6895L10.4746 55.2734V41.3779C8.96094 44.1429 7.861 46.0804 7.1748 47.1904L5.08594 50.46C4.46029 51.4691 4.04655 52.1149 3.84473 52.3975L2.5127 54.2441C2.31087 54.5267 2.15951 54.6074 2.05859 54.4863C1.97786 54.3652 1.9375 54.2643 1.9375 54.1836C1.9375 54.0827 1.97786 53.9414 2.05859 53.7598L3.14844 51.2773C3.28971 50.9141 3.68327 49.9251 4.3291 48.3105C4.99512 46.6758 5.4694 45.485 5.75195 44.7383C6.03451 43.9915 6.65007 42.1045 7.59863 39.0771C8.5472 36.0296 9.27376 33.4463 9.77832 31.3271L10.2324 29.2988L10.3838 28.6631H2.36133ZM30.9697 41.6504V18.7637L30.8184 10.5293C30.9193 10.4889 31.1413 10.5293 31.4844 10.6504L35.1777 12.0732C35.4805 12.2145 35.6621 12.3255 35.7227 12.4062C35.8034 12.487 35.8438 12.5879 35.8438 12.709C35.8438 12.8301 35.7327 13.0117 35.5107 13.2539L34.4814 14.3135L34.5117 40.3789L35.8135 39.8643L36.752 36.3223C36.873 35.7975 36.9639 35.515 37.0244 35.4746C37.085 35.4141 37.3372 35.5352 37.7812 35.8379L40.8086 38.0176C41.1315 38.2598 41.3232 38.4212 41.3838 38.502C41.4443 38.5827 41.4746 38.6634 41.4746 38.7441C41.4948 38.8047 41.4645 38.9056 41.3838 39.0469C41.3031 39.168 41.182 39.2588 41.0205 39.3193L34.5117 42.0137L34.4814 56.8779L34.6328 62.8721C34.4108 63.6592 33.8659 64.2142 32.998 64.5371C32.1302 64.86 31.555 64.8499 31.2725 64.5068C31.0101 64.1839 30.8285 63.8711 30.7275 63.5684L30.9697 55.1826V43.2852L16.8926 48.5225C16.7715 48.5628 16.7008 48.5931 16.6807 48.6133C16.6605 48.6133 16.5999 48.583 16.499 48.5225C16.3981 48.4619 16.3275 48.3812 16.2871 48.2803C16.2467 48.1794 16.2467 47.9473 16.2871 47.584C16.3275 47.2207 16.4587 46.9987 16.6807 46.918L30.9697 41.6504ZM23.0381 18.7031L22.3721 17.8857C22.251 17.7646 22.1803 17.6738 22.1602 17.6133C22.1602 17.5527 22.1702 17.5023 22.1904 17.4619C22.2106 17.1995 22.3418 17.0785 22.584 17.0986C23.7546 17.2197 25.016 17.7041 26.3682 18.5518C27.7406 19.3994 28.4268 20.4792 28.4268 21.791C28.4469 23.0827 28.2754 24.0514 27.9121 24.6973C27.4479 25.5046 26.8727 25.8981 26.1865 25.8779C25.6214 25.8779 25.1774 25.6357 24.8545 25.1514C24.5518 24.6468 24.36 24.1322 24.2793 23.6074C24.2188 23.0827 24.1683 22.5176 24.1279 21.9121C24.0876 21.3066 24.0169 20.7819 23.916 20.3379C23.8353 19.8737 23.5426 19.3288 23.0381 18.7031ZM22.4932 31.6904L21.7969 30.9033C21.6556 30.7822 21.585 30.6309 21.585 30.4492C21.6051 30.2676 21.7363 30.1465 21.9785 30.0859C22.1602 30.0456 23.1995 30.3786 25.0967 31.085C26.9938 31.7712 27.9323 33.2546 27.9121 35.5352C27.8919 36.3626 27.6699 37.1296 27.2461 37.8359C26.8424 38.5423 26.3177 38.8955 25.6719 38.8955C25.0866 38.9157 24.6325 38.6735 24.3096 38.1689C24.0068 37.6442 23.8151 37.1296 23.7344 36.625C23.6536 36.1003 23.5931 35.5352 23.5527 34.9297C23.5124 34.3242 23.4619 33.86 23.4014 33.5371C23.3408 33.2142 23.2096 32.8711 23.0078 32.5078C22.806 32.1445 22.6344 31.8721 22.4932 31.6904ZM72.5654 33.9912H75.8652L76.7432 32.2656C77.0863 31.5996 77.3083 31.307 77.4092 31.3877C77.5101 31.4684 77.6312 31.5693 77.7725 31.6904L80.9512 34.96C80.9915 35.0205 81.042 35.1214 81.1025 35.2627C81.1631 35.404 81.2035 35.5352 81.2236 35.6562C81.2438 35.7773 81.153 35.9186 80.9512 36.0801L79.6797 37.0791C78.3275 41.4183 77.2376 44.5566 76.4102 46.4941C75.5827 48.4115 74.5332 50.4297 73.2617 52.5488C74.7754 53.8607 76.0166 54.8092 76.9854 55.3945C77.9743 55.9596 79.0641 56.4844 80.2549 56.9688C81.4658 57.4733 82.4951 57.8063 83.3428 57.9678L84.6445 58.2402C84.8464 58.3008 84.9372 58.4219 84.917 58.6035C84.917 58.8053 84.8262 58.9668 84.6445 59.0879L84.1299 59.4209L83.2822 59.9053C82.9795 60.1071 82.5254 60.5107 81.9199 61.1162C81.3145 61.7217 80.8604 62.3776 80.5576 63.084C80.2549 63.8105 80.043 64.1536 79.9219 64.1133C79.8815 64.1133 79.7806 64.0527 79.6191 63.9316C79.4779 63.8105 78.9329 63.3968 77.9844 62.6904C77.056 62.0042 75.8451 60.985 74.3516 59.6328C72.8783 58.3008 71.6471 57.0192 70.6582 55.7881C68.2565 58.2705 65.9658 60.1273 63.7861 61.3584C61.6266 62.6097 59.8708 63.4271 58.5186 63.8105L57.0654 64.2344C56.8636 64.2949 56.7425 64.2546 56.7021 64.1133C56.6618 63.9922 56.6517 63.9014 56.6719 63.8408C56.6719 63.6592 56.7122 63.5381 56.793 63.4775L58.5186 62.5693C61.1826 61.1566 63.3118 59.5521 64.9062 57.7559C66.5208 55.9798 67.873 54.3249 68.9629 52.791C67.6712 50.3691 66.7832 48.0482 66.2988 45.8281C65.8145 43.6081 65.4512 41.8018 65.209 40.4092C64.987 39.0166 64.8356 37.9873 64.7549 37.3213C64.6742 36.6351 64.6035 36.07 64.543 35.626H62.0303C61.667 35.626 61.4551 35.3535 61.3945 34.8086C61.3542 34.2637 61.5661 33.9912 62.0303 33.9912H68.8721V24.7275H62.8174C62.4743 24.7275 62.2926 24.4551 62.2725 23.9102C62.2523 23.3652 62.4339 23.0928 62.8174 23.0928H68.8721V15.8574L68.751 11.4678C68.7913 11.3669 68.8317 11.2962 68.8721 11.2559L69.4473 11.4375L73.8369 12.6182C74.0387 12.6787 74.1497 12.8099 74.1699 13.0117C74.1901 13.1934 74.0791 13.4154 73.8369 13.6777L72.5654 14.9189V23.0928H77.0762L78.832 19.7021C78.9733 19.46 79.0742 19.349 79.1348 19.3691C79.2155 19.3691 79.3568 19.4801 79.5586 19.7021L82.5557 23.335C82.6768 23.4964 82.7878 23.6882 82.8887 23.9102C82.9896 24.1322 83.0299 24.3239 83.0098 24.4854C83.0098 24.6468 82.9189 24.7275 82.7373 24.7275H80.9512H72.5654V33.9912ZM75.5322 35.626H65.3301C65.3906 35.9287 65.4714 36.3525 65.5723 36.8975C65.6934 37.4222 65.9355 38.3405 66.2988 39.6523C66.6621 40.944 67.1465 42.4476 67.752 44.1631C68.3574 45.8584 69.3665 47.6849 70.7793 49.6426C71.7279 47.8464 72.4443 46.262 72.9287 44.8896C73.4333 43.4971 73.9076 41.9935 74.3516 40.3789C74.7956 38.7643 75.0781 37.6543 75.1992 37.0488C75.3405 36.4232 75.4515 35.9489 75.5322 35.626ZM52.252 24.1523V16.7354L52.04 11.5283C52.1006 11.3265 52.151 11.2155 52.1914 11.1953C52.2318 11.1549 52.4941 11.2155 52.9785 11.377L56.793 12.6787C56.9544 12.7393 57.0553 12.82 57.0957 12.9209C57.1361 13.0016 57.1562 13.0622 57.1562 13.1025C57.1562 13.1227 57.0856 13.2741 56.9443 13.5566L55.7637 15.04V24.1523H56.9443L57.9434 22.0938C58.2663 21.3874 58.4782 21.014 58.5791 20.9736C58.68 20.9333 58.8516 21.0544 59.0938 21.3369L61.0918 23.8193C61.6973 24.6064 61.9798 25.1413 61.9395 25.4238C61.8991 25.7064 61.7477 25.8477 61.4854 25.8477H55.7637V35.3232C57.7214 34.3343 59.1038 33.5876 59.9111 33.083L61.1826 32.2959C61.2633 32.2555 61.3643 32.2454 61.4854 32.2656C61.6266 32.2656 61.6973 32.3665 61.6973 32.5684C61.7174 32.75 61.6468 32.9215 61.4854 33.083L60.6982 33.8701C60.0928 34.4958 58.4479 35.9993 55.7637 38.3809V60.6318C55.7637 61.2171 55.4609 61.8226 54.8555 62.4482C54.2702 63.0739 53.5033 63.5684 52.5547 63.9316C51.6263 64.3151 51.1016 64.416 50.9805 64.2344C50.9401 64.194 50.9098 63.9922 50.8896 63.6289C50.8896 63.2858 50.7585 62.6904 50.4961 61.8428C50.2337 61.0153 49.6484 60.3493 48.7402 59.8447L47.7109 59.2998C47.5898 59.2393 47.499 59.1383 47.4385 58.9971C47.3779 58.876 47.3477 58.7246 47.3477 58.543C47.3678 58.3613 47.4889 58.2806 47.7109 58.3008L48.7402 58.4219C49.265 58.5026 50.1025 58.5228 51.2529 58.4824C51.9189 58.4824 52.252 58.0788 52.252 57.2715V41.5596C51.9089 41.8825 51.6566 42.1146 51.4951 42.2559L50.0117 43.5576C49.9512 43.6383 49.5273 44.0521 48.7402 44.7988L47.8926 45.6162L47.2568 46.3125C47.1761 46.373 47.0954 46.3529 47.0146 46.252L46.6514 45.0107L45.5312 41.166C45.3294 40.5202 45.2285 40.167 45.2285 40.1064C45.2285 40.0459 45.4001 39.945 45.7432 39.8037L46.9238 39.3799C48.1348 38.9561 49.9108 38.1891 52.252 37.0791V25.8477H45.6523C45.3092 25.8477 45.1074 25.5651 45.0469 25C44.9863 24.4349 45.1882 24.1523 45.6523 24.1523H52.252ZM101.81 30.54H106.018L107.047 28.7842C107.249 28.4209 107.41 28.2393 107.531 28.2393C107.652 28.2191 107.864 28.3604 108.167 28.6631L110.892 31.4482C111.235 31.8115 111.406 32.1143 111.406 32.3564C111.386 32.4977 111.245 32.7096 110.982 32.9922L110.074 33.9307C110.014 35.5251 109.953 36.958 109.893 38.2295C109.852 39.4808 109.771 40.8532 109.65 42.3467C109.529 43.8402 109.247 45.1217 108.803 46.1914C108.359 47.2409 107.632 48.028 106.623 48.5527C105.634 49.0573 104.797 49.2995 104.11 49.2793C103.969 49.2793 103.868 49.2591 103.808 49.2188C103.767 49.1582 103.727 49.0775 103.687 48.9766C103.666 48.8555 103.606 48.5326 103.505 48.0078C103.424 47.4629 103.243 46.8877 102.96 46.2822C102.698 45.6768 102.365 45.2126 101.961 44.8896L100.78 44.0117C100.498 43.8099 100.367 43.598 100.387 43.376C100.387 43.2549 100.437 43.1641 100.538 43.1035C100.659 43.0228 100.79 42.9925 100.932 43.0127L102.536 43.4668C103.162 43.6484 103.757 43.7393 104.322 43.7393C104.988 43.7594 105.422 43.5677 105.624 43.1641C105.826 42.7402 105.967 42.2357 106.048 41.6504C106.129 41.0449 106.209 40.0459 106.29 38.6533C106.371 37.2406 106.421 36.0397 106.441 35.0508C106.482 34.0417 106.502 33.305 106.502 32.8408V32.1748H97.9951V53.79C97.9951 54.8193 98.0052 55.445 98.0254 55.667C98.0456 55.889 98.1465 56.111 98.3281 56.333C98.5098 56.555 99.0345 56.7568 99.9023 56.9385C100.77 57.1403 101.86 57.2311 103.172 57.2109C105.775 57.1908 107.36 56.8376 107.925 56.1514C108.49 55.4652 108.924 54.779 109.227 54.0928C109.529 53.3864 109.771 52.7103 109.953 52.0645L110.952 48.3408C111.053 47.9372 111.174 47.7454 111.315 47.7656C111.457 47.7656 111.558 47.8262 111.618 47.9473C111.699 48.0482 111.739 48.1592 111.739 48.2803L111.709 48.4014L111.164 52.7607C111.083 53.2653 111.043 53.7699 111.043 54.2744C111.063 54.7588 111.144 55.1423 111.285 55.4248C111.426 55.6872 111.638 56.0605 111.921 56.5449C112.224 57.0495 112.375 57.5036 112.375 57.9072C112.355 58.4521 112.103 59.0879 111.618 59.8145C111.134 60.5612 110.205 61.1263 108.833 61.5098C107.481 61.9134 105.584 62.0951 103.142 62.0547C101.386 62.0345 99.8418 61.8226 98.5098 61.4189C97.1777 61.0153 96.2695 60.5814 95.7852 60.1172C95.3008 59.653 94.988 59.209 94.8467 58.7852C94.7256 58.3613 94.6247 57.8971 94.5439 57.3926C94.4834 56.888 94.4531 56.2926 94.4531 55.6064V29.1475C92.0312 31.7106 90.8001 33.0124 90.7598 33.0527L89.3975 34.3545C89.2562 34.4958 89.1149 34.5664 88.9736 34.5664C88.8525 34.5462 88.7819 34.5059 88.7617 34.4453C88.7617 34.3848 88.7617 34.3141 88.7617 34.2334V34.082C88.7617 33.9811 88.8324 33.8298 88.9736 33.6279L90.124 31.9326C91.4762 29.9346 92.9395 27.3815 94.5137 24.2734C96.1081 21.1654 97.1475 19.0563 97.6318 17.9463C98.1364 16.8161 98.641 15.5547 99.1455 14.1621L100.084 11.4375L100.447 10.2568C100.528 10.1559 100.599 10.1055 100.659 10.1055C100.74 10.0853 100.942 10.1559 101.265 10.3174L105.442 12.5576C105.785 12.7594 105.957 13.0117 105.957 13.3145C105.977 13.597 105.846 13.819 105.563 13.9805L104.353 14.7373L103.323 16.0088C105.099 16.7555 106.774 17.6133 108.349 18.582C109.943 19.5306 111.215 20.7314 112.163 22.1846C113.112 23.6377 113.566 25.0908 113.525 26.5439C113.505 27.2705 113.324 28.0072 112.98 28.7539C112.637 29.5007 112.123 29.8639 111.437 29.8438C110.972 29.8438 110.538 29.5713 110.135 29.0264C109.731 28.4613 109.307 27.5228 108.863 26.2109C108.419 24.8789 108.026 23.8395 107.683 23.0928C107.36 22.346 106.805 21.4176 106.018 20.3076C105.251 19.1976 104.191 18.0068 102.839 16.7354C102.637 16.9977 101.749 18.3499 100.175 20.792C98.6006 23.234 96.9154 25.6963 95.1191 28.1787C96.1484 28.8851 97.1878 29.6621 98.2373 30.5098L101.81 30.54ZM118.581 21.4277V42.1348L118.854 50.0664C118.793 50.4701 118.702 50.7829 118.581 51.0049C118.48 51.2067 118.137 51.4287 117.552 51.6709C116.966 51.9131 116.512 52.014 116.189 51.9736C115.624 51.9535 115.241 51.6406 115.039 51.0352L115.312 42.377V23.668L114.979 17.2197C115.079 17.1794 115.16 17.1693 115.221 17.1895C115.281 17.1895 115.574 17.2803 116.099 17.4619L119.641 18.7939C119.903 18.915 120.034 19.1068 120.034 19.3691C120.014 19.5508 119.893 19.7829 119.671 20.0654L118.581 21.4277ZM123.364 57.0898V19.9443C123.364 14.5355 123.334 11.8311 123.273 11.8311C123.213 11.8109 123.435 11.8916 123.939 12.0732L128.026 13.6777C128.188 13.7585 128.309 13.8594 128.39 13.9805C128.491 14.1016 128.541 14.2428 128.541 14.4043C128.541 14.5658 128.349 14.8685 127.966 15.3125L126.846 16.6143V61.2979C126.846 61.7015 126.735 62.2363 126.513 62.9023C126.291 63.5684 125.655 64.1637 124.605 64.6885C123.556 65.2132 122.829 65.5059 122.426 65.5664C122.042 65.6471 121.82 65.637 121.76 65.5361C121.74 65.516 121.719 65.4554 121.699 65.3545C121.679 65.2738 121.629 64.9307 121.548 64.3252C121.487 63.7197 121.316 63.1647 121.033 62.6602C120.771 62.1556 120.418 61.7116 119.974 61.3281C119.55 60.9447 119.156 60.6722 118.793 60.5107L117.37 59.9053C117.088 59.8044 116.956 59.6227 116.977 59.3604C116.977 59.2594 117.017 59.1585 117.098 59.0576C117.199 58.9567 117.34 58.9062 117.521 58.9062L119.156 59.0273C120.71 59.1484 121.598 59.209 121.82 59.209C122.224 59.2292 122.577 59.1283 122.88 58.9062C123.203 58.6842 123.364 58.0788 123.364 57.0898ZM147.855 19.1572L148.945 17.0381C149.349 16.251 149.581 15.8675 149.642 15.8877C149.722 15.8877 150.025 16.2106 150.55 16.8564L152.457 19.2783C152.84 19.8031 153.032 20.1361 153.032 20.2773C153.032 20.3984 152.972 20.5094 152.851 20.6104C152.75 20.7113 152.618 20.7617 152.457 20.7617H148.643V20.8223H146.584L150.005 23.4258C150.328 23.668 150.509 23.8395 150.55 23.9404C150.59 24.0212 150.6 24.1423 150.58 24.3037C150.58 24.445 150.429 24.5863 150.126 24.7275L148.945 25.333C147.654 28.2796 146.655 30.5501 145.948 32.1445H148.491L149.581 30.1162C149.924 29.4906 150.126 29.1576 150.187 29.1172C150.247 29.0566 150.318 29.0667 150.398 29.1475C150.479 29.2282 150.681 29.4603 151.004 29.8438L152.851 32.2051C153.295 32.7904 153.517 33.1637 153.517 33.3252C153.517 33.4463 153.456 33.5674 153.335 33.6885C153.214 33.7894 153.052 33.8398 152.851 33.8398H145.888C145.787 33.9609 145.706 34.0719 145.646 34.1729C145.585 34.2738 145.403 34.4453 145.101 34.6875V41.0146H147.068L148.431 38.6533C148.673 38.2295 148.844 38.0176 148.945 38.0176C149.046 37.9974 149.329 38.2699 149.793 38.835L152.033 41.6807C152.215 41.9229 152.306 42.1247 152.306 42.2861C152.306 42.4072 152.255 42.5182 152.154 42.6191C152.074 42.6999 151.983 42.7402 151.882 42.7402H145.101V58.7549C145.101 59.6227 144.969 60.319 144.707 60.8438C144.465 61.3887 144.152 61.7721 143.769 61.9941C143.385 62.2363 142.83 62.5189 142.104 62.8418C141.377 63.1647 140.893 63.306 140.65 63.2656C140.57 63.2656 140.499 63.2454 140.438 63.2051C140.398 63.1647 140.368 63.084 140.348 62.9629C140.327 62.8418 140.307 62.6097 140.287 62.2666C140.267 61.9235 140.186 61.4189 140.045 60.7529C139.924 60.1071 139.47 59.5218 138.683 58.9971L137.532 58.2402C137.27 58.0788 137.139 57.8669 137.139 57.6045C137.139 57.3219 137.3 57.1908 137.623 57.2109L138.955 57.3926C139.258 57.4531 139.52 57.4935 139.742 57.5137C139.984 57.554 140.156 57.5742 140.257 57.5742H140.923C141.448 57.6348 141.71 57.4329 141.71 56.9688V42.7402H133.839L133.536 42.6191C133.294 42.3971 133.143 42.0742 133.082 41.6504C133.042 41.2266 133.254 41.0146 133.718 41.0146H141.71V33.8398H133.264L133.021 33.7793C132.9 33.7188 132.799 33.6481 132.719 33.5674C132.638 33.4665 132.588 33.2041 132.567 32.7803C132.547 32.3564 132.749 32.1445 133.173 32.1445H144.344C144.667 30.7721 145.02 29.0062 145.403 26.8467C145.787 24.667 146.019 23.1937 146.1 22.4268L146.281 20.8223H134.021C133.677 20.8223 133.476 20.5498 133.415 20.0049C133.354 19.4398 133.556 19.1572 134.021 19.1572H147.855ZM157.452 31.0547H165.808L166.867 28.875C167.271 28.0475 167.503 27.6136 167.563 27.5732C167.624 27.5127 167.705 27.5228 167.806 27.6035C167.907 27.6842 168.219 28.0475 168.744 28.6934L170.833 31.418C171.035 31.7005 171.156 31.8923 171.196 31.9932C171.237 32.0739 171.257 32.1546 171.257 32.2354C171.237 32.5583 171.095 32.7197 170.833 32.7197H166.05C165.888 33.0426 165.757 33.2546 165.656 33.3555C165.555 33.4362 165.414 33.5169 165.232 33.5977V59.542L165.354 63.3262C165.192 64.0527 164.839 64.5573 164.294 64.8398C163.749 65.1426 163.244 65.2839 162.78 65.2637C162.235 65.2637 161.882 65.1426 161.721 64.9004C161.579 64.6582 161.489 64.3656 161.448 64.0225L161.63 57.8164V32.7197H157.452C157.371 35.3636 157.291 37.6947 157.21 39.7129C157.149 41.7109 157.008 43.5273 156.786 45.1621C156.584 46.7969 156.14 48.7646 155.454 51.0654C154.768 53.3662 153.749 55.4046 152.396 57.1807C151.064 58.9769 149.985 60.3291 149.157 61.2373C148.35 62.1657 147.734 62.8014 147.311 63.1445L146.372 63.9014C146.19 64.0426 146.039 64.1032 145.918 64.083C145.817 64.083 145.746 64.0527 145.706 63.9922C145.686 63.9316 145.676 63.8711 145.676 63.8105C145.676 63.75 145.676 63.6693 145.676 63.5684C145.696 63.4876 145.787 63.3464 145.948 63.1445L146.735 62.2061C148.632 59.9255 150.136 57.5036 151.246 54.9404C152.376 52.3773 153.083 49.7031 153.365 46.918C153.648 44.1126 153.829 41.5293 153.91 39.168C153.991 36.7865 154.041 33.9206 154.062 30.5703C154.062 28.4108 154.021 26.2715 153.94 24.1523C153.88 22.0332 153.85 20.8626 153.85 20.6406V19.3994L153.577 15.1309C153.638 15.0905 153.678 15.0602 153.698 15.04C153.739 15.0199 154.072 15.2318 154.697 15.6758L157.725 17.8555C160.207 16.4831 162.205 15.1309 163.719 13.7988L164.748 12.8906L165.444 12.0732C165.545 12.0329 165.646 12.0329 165.747 12.0732L166.504 13.0723L168.926 15.8574C169.35 16.362 169.562 16.695 169.562 16.8564C169.562 17.0986 169.42 17.2399 169.138 17.2803L167.836 17.4922L162.114 18.6426L157.543 19.3994C157.523 21.6396 157.513 23.3047 157.513 24.3945L157.482 27.7246L157.452 31.0547ZM139.349 48.0078C138.642 49.7233 138.138 50.904 137.835 51.5498C137.552 52.1755 136.927 53.4167 135.958 55.2734C135.009 57.11 134.384 58.2503 134.081 58.6943L133.173 60.0566C132.991 60.319 132.85 60.4502 132.749 60.4502C132.709 60.4704 132.668 60.4603 132.628 60.4199C132.608 60.3796 132.598 60.2786 132.598 60.1172C132.598 59.9759 132.638 59.764 132.719 59.4814L133.173 58.1797C133.254 57.9779 133.455 57.3219 133.778 56.2119C134.121 55.1019 134.333 54.3854 134.414 54.0625C134.495 53.7396 134.727 52.791 135.11 51.2168C135.494 49.6224 135.746 48.4316 135.867 47.6445L136.109 45.7676L136.23 44.3447C136.271 44.264 136.311 44.2035 136.352 44.1631L136.927 44.5566L139.894 46.4639C140.216 46.6859 140.378 46.8675 140.378 47.0088C140.378 47.0693 140.348 47.1602 140.287 47.2812C140.227 47.4023 140.166 47.4831 140.105 47.5234L139.349 48.0078ZM137.229 24.2129L136.836 23.1836C136.796 23.1432 136.775 23.0625 136.775 22.9414C136.775 22.8001 136.775 22.7093 136.775 22.6689C136.816 22.4671 136.907 22.3662 137.048 22.3662C137.229 22.3864 138.007 23.012 139.379 24.2432C140.751 25.4743 141.417 27.0081 141.377 28.8447C141.337 29.6117 141.125 30.3281 140.741 30.9941C140.358 31.64 139.843 31.9629 139.197 31.9629C138.35 31.9831 137.875 31.6299 137.774 30.9033C137.674 30.1768 137.623 29.5007 137.623 28.875C137.643 28.2292 137.653 27.7145 137.653 27.3311C137.633 25.9183 137.492 24.8789 137.229 24.2129ZM139.53 11.6494L139.046 10.9229C138.985 10.8219 138.945 10.721 138.925 10.6201C138.925 10.5192 138.935 10.4385 138.955 10.3779C139.016 10.2367 139.127 10.1559 139.288 10.1357C139.409 10.1357 139.853 10.2568 140.62 10.499C141.407 10.7412 142.275 11.1549 143.224 11.7402C144.172 12.3053 144.717 13.0924 144.858 14.1016C145.02 15.0905 145.101 15.6859 145.101 15.8877C145.101 16.0693 145.07 16.3115 145.01 16.6143C144.889 17.139 144.657 17.6839 144.313 18.249C143.97 18.7939 143.456 19.0563 142.77 19.0361C142.063 19.0361 141.569 18.7939 141.286 18.3096C141.004 17.805 140.832 17.2399 140.771 16.6143L140.59 14.6768C140.549 14.1924 140.469 13.7383 140.348 13.3145C140.227 12.8906 139.954 12.3356 139.53 11.6494ZM146.796 47.2812L146.463 46.585C146.261 46.2217 146.18 45.9593 146.221 45.7979C146.281 45.6364 146.312 45.5456 146.312 45.5254C146.332 45.5052 146.382 45.485 146.463 45.4648C146.745 45.4648 147.371 45.9089 148.34 46.7969C149.329 47.6647 150.065 48.5326 150.55 49.4004C151.054 50.248 151.297 51.1361 151.276 52.0645C151.256 52.7708 151.064 53.4368 150.701 54.0625C150.358 54.6882 149.884 55.001 149.278 55.001C148.612 55.0212 148.188 54.7487 148.007 54.1836C147.825 53.5983 147.734 53.0029 147.734 52.3975L147.674 50.5508C147.593 49.3398 147.3 48.25 146.796 47.2812Z" fill="white"/>
<path d="M5.94 94.338V99.936H4.788V94.338H5.94ZM2.754 95.004V99.522H1.692V95.004H2.754ZM9.63 96.606C9.138 97.47 8.586 98.208 7.974 98.82L7.146 98.064C7.686 97.536 8.148 96.948 8.532 96.3C8.916 95.64 9.24 94.92 9.504 94.14L10.512 94.392C10.452 94.608 10.386 94.812 10.314 95.004C10.254 95.196 10.188 95.388 10.116 95.58H14.814V96.606H9.63ZM11.214 97.164C11.682 97.452 12.126 97.77 12.546 98.118C12.966 98.466 13.374 98.844 13.77 99.252L13.068 100.044C12.684 99.6 12.27 99.198 11.826 98.838C11.382 98.478 10.926 98.142 10.458 97.83L11.214 97.164ZM4.14 102.024C3.708 102.192 3.276 102.354 2.844 102.51C2.412 102.654 1.956 102.798 1.476 102.942L0.882 101.988C3.738 101.184 5.958 100.14 7.542 98.856H8.478C9.786 100.032 11.994 101.058 15.102 101.934L14.49 102.942C14.01 102.786 13.554 102.636 13.122 102.492C12.702 102.348 12.288 102.192 11.88 102.024V102.708H8.568V104.004H14.076V105.012H8.568V107.352H10.458C10.638 107.016 10.8 106.674 10.944 106.326C11.088 105.978 11.226 105.606 11.358 105.21L12.51 105.624C12.234 106.26 11.94 106.836 11.628 107.352H14.562V108.378H1.386V107.352H4.266C4.158 107.064 4.038 106.782 3.906 106.506C3.786 106.23 3.648 105.954 3.492 105.678L4.59 105.282C4.734 105.558 4.872 105.876 5.004 106.236C5.136 106.584 5.274 106.956 5.418 107.352H7.398V105.012H1.836V104.004H7.398V102.708H4.14V102.024ZM11.25 101.754C9.918 101.166 8.838 100.512 8.01 99.792C7.53 100.164 7.026 100.518 6.498 100.854C5.97 101.178 5.394 101.478 4.77 101.754H11.25ZM27.9849 98.154V101.088H19.8849V98.154H27.9849ZM26.8509 99H21.0369V100.242H26.8509V99ZM24.5469 94.158V96.066H26.4189C26.5989 95.778 26.7669 95.49 26.9229 95.202C27.0789 94.902 27.2229 94.596 27.3549 94.284L28.4889 94.68C28.3569 94.932 28.2189 95.178 28.0749 95.418C27.9429 95.646 27.8049 95.862 27.6609 96.066H30.5769V99.252H29.4249V97.074H18.4089V99.306H17.2749V96.066H20.2449C20.1249 95.826 19.9869 95.592 19.8309 95.364C19.6869 95.136 19.5309 94.914 19.3629 94.698L20.4609 94.302C20.6409 94.554 20.8149 94.83 20.9829 95.13C21.1509 95.418 21.3129 95.73 21.4689 96.066H23.3409V94.158H24.5469ZM28.9209 106.272H27.7509V103.032H20.1189V106.452H18.9849V102.006H28.9209V106.272ZM24.8529 106.146C25.9209 106.386 26.9349 106.662 27.8949 106.974C28.8549 107.274 29.7609 107.598 30.6129 107.946L29.9649 108.936C28.1409 108.12 26.2569 107.484 24.3129 107.028L24.8529 106.146ZM24.6549 103.752C24.4269 105.552 23.9349 106.758 23.1789 107.37C22.3509 108.15 20.5029 108.636 17.6349 108.828L17.1669 107.802C19.7229 107.682 21.4029 107.31 22.2069 106.686C22.9509 106.086 23.3829 105.072 23.5029 103.644L24.6549 103.752ZM34.7659 97.308V94.176H35.8639V97.308H37.4479V98.208C37.9159 97.668 38.3479 97.056 38.7439 96.372C39.1399 95.688 39.4879 94.92 39.7879 94.068L40.9219 94.302C40.8499 94.494 40.7779 94.686 40.7059 94.878C40.6339 95.07 40.5559 95.256 40.4719 95.436H46.8619V96.516H39.9679C39.8359 96.744 39.7039 96.966 39.5719 97.182C39.4519 97.398 39.3259 97.614 39.1939 97.83H46.2679L46.1419 101.574H47.2939V102.636H46.0879C46.0639 103.248 46.0399 103.794 46.0159 104.274C46.0039 104.742 45.9859 105.156 45.9619 105.516H47.0779V106.506H45.9079C45.8719 106.902 45.8299 107.166 45.7819 107.298C45.6379 107.814 45.3619 108.198 44.9539 108.45C44.6059 108.666 44.0299 108.774 43.2259 108.774C43.0579 108.774 42.8719 108.774 42.6679 108.774C42.4639 108.786 42.2539 108.792 42.0379 108.792L41.6779 107.748C41.9419 107.76 42.1879 107.772 42.4159 107.784C42.6559 107.796 42.8779 107.802 43.0819 107.802C43.2739 107.802 43.4479 107.79 43.6039 107.766C43.7599 107.742 43.9159 107.712 44.0719 107.676C44.3599 107.556 44.5759 107.316 44.7199 106.956C44.7319 106.908 44.7499 106.758 44.7739 106.506H38.0959C38.2159 105.858 38.3179 105.216 38.4019 104.58C38.4979 103.944 38.5879 103.296 38.6719 102.636H37.6279V102.42L37.1419 103.14C36.9139 102.612 36.6919 102.144 36.4759 101.736C36.2719 101.328 36.0679 100.956 35.8639 100.62V108.756H34.7659V100.908C34.5259 101.652 34.2559 102.36 33.9559 103.032C33.6679 103.704 33.3439 104.352 32.9839 104.976L32.4979 103.734C33.0259 102.954 33.4699 102.12 33.8299 101.232C34.2019 100.344 34.5019 99.402 34.7299 98.406H32.7859V97.308H34.7659ZM39.7699 102.636C39.7099 103.164 39.6439 103.668 39.5719 104.148C39.5119 104.628 39.4399 105.084 39.3559 105.516H44.8819C44.9059 105.156 44.9239 104.742 44.9359 104.274C44.9479 103.794 44.9659 103.248 44.9899 102.636H39.7699ZM45.0439 101.574C45.0679 101.154 45.0799 100.716 45.0799 100.26C45.0919 99.792 45.1099 99.318 45.1339 98.838H40.0039C39.9799 99.306 39.9559 99.774 39.9319 100.242C39.9079 100.698 39.8839 101.142 39.8599 101.574H45.0439ZM38.7619 101.574C38.8219 100.998 38.8639 100.422 38.8879 99.846C38.9239 99.27 38.9539 98.688 38.9779 98.1C38.8339 98.304 38.6899 98.49 38.5459 98.658C38.4139 98.826 38.2699 98.988 38.1139 99.144L37.4479 98.334V98.406H35.8639V99.378C36.1399 99.762 36.4219 100.17 36.7099 100.602C36.9979 101.022 37.3039 101.466 37.6279 101.934V101.574H38.7619ZM41.7859 99.144C42.1579 99.408 42.4999 99.672 42.8119 99.936C43.1239 100.2 43.4119 100.464 43.6759 100.728L42.9739 101.43C42.5059 100.938 41.8819 100.404 41.1019 99.828L41.7859 99.144ZM41.6059 102.834C41.9779 103.122 42.3139 103.41 42.6139 103.698C42.9259 103.974 43.2079 104.262 43.4599 104.562L42.7219 105.282C42.4939 105.006 42.2299 104.724 41.9299 104.436C41.6419 104.148 41.2999 103.854 40.9039 103.554L41.6059 102.834ZM59.1328 102.582C58.6048 102.21 58.1968 101.856 57.9088 101.52H53.7868C53.4148 101.916 53.0068 102.27 52.5628 102.582H59.1328ZM59.0788 101.52C59.9788 102.216 61.2808 102.768 62.9848 103.176L62.5168 104.148C62.0968 104.016 61.6888 103.872 61.2928 103.716C60.9088 103.56 60.5608 103.404 60.2488 103.248V106.326H59.1328V103.518H52.7428V106.326H51.6268V103.158C51.2788 103.35 50.9068 103.53 50.5108 103.698C50.1148 103.866 49.7008 104.028 49.2688 104.184L48.6928 103.212C50.4208 102.768 51.7168 102.204 52.5808 101.52H49.1248V100.584H53.4448V99.648H51.4108V98.802H53.4448V97.83H51.1048V96.966H53.4448V96.048H50.5108V97.668H49.3768V95.094H55.3348C55.2508 94.926 55.1548 94.77 55.0468 94.626C54.9388 94.47 54.8308 94.326 54.7228 94.194L55.9288 93.978C56.0488 94.146 56.1508 94.32 56.2348 94.5C56.3308 94.68 56.4268 94.878 56.5228 95.094H62.3368V97.668H61.2388V96.048H58.2508V96.966H60.6268V97.83H58.2508V98.802H60.3208V99.648H58.2508V100.584H62.6608V101.52H59.0788ZM54.5788 96.048V96.966H57.1348V96.048H54.5788ZM57.1348 100.584V99.648H54.5788V100.584H57.1348ZM57.1348 97.83H54.5788V98.802H57.1348V97.83ZM56.9008 106.11C58.6168 106.626 60.2248 107.256 61.7248 108L61.1308 108.918C60.3628 108.51 59.5768 108.138 58.7728 107.802C57.9688 107.466 57.1528 107.178 56.3248 106.938L56.9008 106.11ZM56.3068 104.112C56.1148 105.816 55.7008 106.95 55.0648 107.514C54.3688 108.234 52.7728 108.69 50.2768 108.882L49.8448 107.91C52.0048 107.814 53.4328 107.466 54.1288 106.866C54.7768 106.302 55.1488 105.354 55.2448 104.022L56.3068 104.112ZM74.5538 94.266C74.5298 94.458 74.5118 94.638 74.4998 94.806C74.4878 94.974 74.4698 95.142 74.4458 95.31H78.6038V96.318H74.3018C74.2538 96.522 74.2118 96.726 74.1758 96.93C74.1398 97.122 74.1038 97.314 74.0678 97.506H78.2078V101.34H69.8378V97.506H72.9518C73.0118 97.302 73.0538 97.104 73.0778 96.912C73.1138 96.708 73.1438 96.51 73.1678 96.318H69.4418V95.31H73.3118C73.3358 95.106 73.3598 94.902 73.3838 94.698C73.4078 94.482 73.4378 94.284 73.4738 94.104L74.5538 94.266ZM78.5318 102.42V103.482H69.4778V102.42H78.5318ZM77.2178 98.478H75.6518V100.368H77.2178V98.478ZM74.7518 98.478H73.2758V100.368H74.7518V98.478ZM72.3578 98.478H70.8278V100.368H72.3578V98.478ZM68.8478 94.572C68.0078 96.348 66.6818 97.926 64.8698 99.306L64.5278 98.172C66.0158 97.008 67.1078 95.652 67.8038 94.104L68.8478 94.572ZM69.1718 98.64C68.8118 99.396 68.3498 100.14 67.7858 100.872V108.81H66.6878V102.096C66.4118 102.36 66.1298 102.612 65.8418 102.852C65.5658 103.08 65.2658 103.314 64.9418 103.554L64.6358 102.456C66.2678 101.22 67.4498 99.792 68.1818 98.172L69.1718 98.64ZM77.7758 104.112C78.0638 104.64 78.3278 105.18 78.5678 105.732C78.8078 106.272 79.0358 106.836 79.2518 107.424L78.2978 107.856C78.0698 107.196 77.8298 106.584 77.5778 106.02C77.3378 105.456 77.0798 104.934 76.8038 104.454L77.7758 104.112ZM70.6118 104.688C70.3358 106.044 69.9158 107.25 69.3518 108.306L68.4158 107.712C68.9318 106.764 69.3278 105.69 69.6038 104.49L70.6118 104.688ZM72.8258 108.684C71.9138 108.684 71.4578 108.228 71.4578 107.316V104.418H72.5378V107.064C72.5378 107.472 72.7418 107.676 73.1498 107.676H75.2558C75.5198 107.676 75.6998 107.61 75.7958 107.478C75.9158 107.334 76.0058 106.878 76.0658 106.11L77.0558 106.452C76.9838 107.508 76.8158 108.15 76.5518 108.378C76.3358 108.582 75.9698 108.684 75.4538 108.684H72.8258ZM74.2658 103.896C74.6018 104.256 74.8958 104.598 75.1478 104.922C75.3998 105.246 75.6218 105.546 75.8138 105.822L74.9678 106.416C74.5838 105.792 74.0798 105.126 73.4558 104.418L74.2658 103.896ZM94.6727 95.382C93.9527 95.682 93.2027 95.928 92.4227 96.12C91.6427 96.3 90.8207 96.414 89.9567 96.462V99.342H94.9067V100.44H93.2507V108.738H92.1167V100.44H89.9567V101.754C89.8727 104.646 89.2067 106.98 87.9587 108.756L87.1667 107.91C88.2467 106.434 88.8227 104.382 88.8947 101.754V95.526C90.8387 95.442 92.5907 95.058 94.1507 94.374L94.6727 95.382ZM82.9727 94.266V96.012H85.8527V94.284H86.9687V96.012H88.0307V97.038H86.9687V103.734H88.0127V104.814H80.6867V103.734H81.8567V97.038H80.8127V96.012H81.8567V94.266H82.9727ZM85.8527 103.734V102.15H82.9727V103.734H85.8527ZM82.9727 97.038V98.64H85.8527V97.038H82.9727ZM85.8527 101.16V99.612H82.9727V101.16H85.8527ZM85.6367 105.282C85.9247 105.666 86.1827 106.032 86.4107 106.38C86.6507 106.716 86.8487 107.028 87.0047 107.316L86.1587 107.928C85.7987 107.268 85.3487 106.566 84.8087 105.822L85.6367 105.282ZM83.5667 105.75C83.2547 106.326 82.9247 106.866 82.5767 107.37C82.2287 107.874 81.8447 108.342 81.4247 108.774L80.4707 108.108C81.2867 107.328 82.0007 106.38 82.6127 105.264L83.5667 105.75ZM96.4856 103.878V102.474H100.842V103.878H96.4856ZM109.018 99.972V98.064H110.116V99.972H113.788V100.998H110.116V102.996H109.018V100.998H105.472V99.972H109.018ZM108.1 95.814C108.244 95.538 108.376 95.268 108.496 95.004C108.616 94.74 108.73 94.464 108.838 94.176L109.99 94.32C109.81 94.836 109.606 95.334 109.378 95.814H116.2V96.876H111.826C112.894 98.28 114.55 99.378 116.794 100.17L116.29 101.214C113.614 100.098 111.718 98.652 110.602 96.876H108.748C107.452 98.736 105.526 100.158 102.97 101.142L102.412 100.152C104.596 99.3 106.24 98.208 107.344 96.876H102.988V95.814H108.1ZM106.048 103.932C106.084 103.62 106.102 103.302 106.102 102.978V102.114H107.2V102.978C107.2 103.314 107.182 103.632 107.146 103.932H111.898V102.114H113.014V103.932H116.614V104.994H113.014V108.756H111.898V104.994H106.984C106.9 105.342 106.798 105.666 106.678 105.966C106.57 106.266 106.438 106.542 106.282 106.794C105.694 107.706 104.776 108.402 103.528 108.882L102.934 107.946C104.098 107.49 104.92 106.872 105.4 106.092C105.58 105.756 105.724 105.39 105.832 104.994H102.52V103.932H106.048ZM132.089 96.858C132.089 98.574 132.071 99.948 132.035 100.98C131.999 102.012 131.951 102.708 131.891 103.068C131.759 103.764 131.213 104.112 130.253 104.112H130.163L129.839 103.068C129.971 103.068 130.085 103.074 130.181 103.086C130.277 103.098 130.379 103.104 130.487 103.104C130.715 103.104 130.865 102.906 130.937 102.51C130.961 102.306 130.985 101.862 131.009 101.178C131.033 100.494 131.045 99.546 131.045 98.334L129.245 98.874V105.444H128.165V99.234L126.491 99.738V106.83C126.491 107.286 126.731 107.514 127.211 107.514H130.703C131.063 107.514 131.321 107.4 131.477 107.172C131.657 106.908 131.789 106.104 131.873 104.76L132.899 105.084C132.767 106.74 132.551 107.748 132.251 108.108C131.963 108.42 131.519 108.576 130.919 108.576H126.851C125.891 108.576 125.411 108.066 125.411 107.046V100.062L124.187 100.44V99.324L125.411 98.946V95.688H126.491V98.604L128.165 98.082V94.23H129.245V97.74L132.089 96.858ZM118.409 95.976V94.896H123.575L122.819 101.466H124.007C124.007 103.302 123.959 104.742 123.863 105.786C123.779 106.83 123.665 107.49 123.521 107.766C123.185 108.318 122.495 108.594 121.451 108.594C121.259 108.594 121.055 108.594 120.839 108.594C120.635 108.594 120.425 108.582 120.209 108.558L119.903 107.532C120.215 107.556 120.479 107.58 120.695 107.604C120.911 107.616 121.085 107.622 121.217 107.622C122.021 107.622 122.507 107.382 122.675 106.902C122.819 106.362 122.891 104.904 122.891 102.528H118.661L119.399 97.092L120.461 97.146L119.831 101.466H121.703L122.405 95.976H118.409ZM122.063 104.994C120.935 105.342 119.621 105.636 118.121 105.876L117.977 104.76C118.757 104.652 119.489 104.532 120.173 104.4C120.857 104.268 121.487 104.118 122.063 103.95V104.994ZM139.932 107.802H138.816V106.902H135.918V108.288H134.802V96.948H136.296C136.596 96.06 136.818 95.13 136.962 94.158L138.132 94.32C138.024 94.8 137.91 95.256 137.79 95.688C137.67 96.12 137.526 96.54 137.358 96.948H139.932V107.802ZM138.816 105.84V102.348H135.918V105.84H138.816ZM138.816 101.304V98.028H135.918V101.304H138.816ZM142.722 100.656C143.298 101.304 143.796 101.922 144.216 102.51C144.648 103.098 145.014 103.632 145.314 104.112L144.414 104.76C143.742 103.692 142.866 102.51 141.786 101.214L142.722 100.656ZM148.176 96.966C148.176 102.27 148.098 105.54 147.942 106.776C147.774 108 147.03 108.612 145.71 108.612C145.386 108.612 144.846 108.594 144.09 108.558L143.802 107.496C144.15 107.52 144.468 107.532 144.756 107.532C145.044 107.532 145.314 107.532 145.566 107.532C146.298 107.532 146.73 107.13 146.862 106.326C146.91 105.87 146.946 104.958 146.97 103.59C147.006 102.222 147.036 100.38 147.06 98.064H142.686C142.218 99.072 141.678 99.978 141.066 100.782L140.4 99.882C140.964 99.102 141.426 98.232 141.786 97.272C142.158 96.312 142.458 95.268 142.686 94.14L143.802 94.284C143.694 94.764 143.586 95.226 143.478 95.67C143.37 96.102 143.25 96.534 143.118 96.966H148.176ZM154.615 95.778C154.375 95.214 154.117 94.722 153.841 94.302L155.065 94.122C155.185 94.374 155.305 94.638 155.425 94.914C155.557 95.178 155.683 95.466 155.803 95.778H159.133C159.421 95.238 159.625 94.674 159.745 94.086L160.987 94.23C160.807 94.806 160.591 95.322 160.339 95.778H163.885V96.84H158.017V98.37H163.039V99.36H158.017V100.926H164.407V101.988H150.457V100.926H156.847V99.36H151.879V98.37H156.847V96.84H150.961V95.778H154.615ZM158.143 102.528C158.095 102.72 158.053 102.918 158.017 103.122C157.981 103.326 157.933 103.512 157.873 103.68H164.047V104.76H158.467C159.571 106.248 161.695 107.25 164.839 107.766L164.245 108.864C160.717 108.156 158.431 106.842 157.387 104.922C157.039 105.594 156.583 106.182 156.019 106.686C154.987 107.634 153.163 108.372 150.547 108.9L150.079 107.784C152.407 107.352 154.075 106.728 155.083 105.912C155.467 105.6 155.803 105.216 156.091 104.76H150.835V103.68H156.631C156.775 103.272 156.877 102.84 156.937 102.384L158.143 102.528ZM180.134 100.98H179V98.514H167.786V100.98H166.652V97.416H175.796C176.156 96.9 176.48 96.366 176.768 95.814C177.068 95.262 177.35 94.686 177.614 94.086L178.784 94.518C178.508 95.082 178.226 95.604 177.938 96.084C177.65 96.564 177.35 97.008 177.038 97.416H180.134V100.98ZM177.704 99.882V100.89C177.188 101.226 176.63 101.556 176.03 101.88C175.442 102.204 174.824 102.522 174.176 102.834V103.662H180.26V104.76H174.176V107.46C174.176 108.312 173.726 108.738 172.826 108.738H170.774L170.522 107.694C170.81 107.706 171.11 107.718 171.422 107.73C171.734 107.73 172.064 107.73 172.412 107.73C172.808 107.73 173.006 107.502 173.006 107.046V104.76H166.544V103.662H173.006V102.348C173.678 102.048 174.266 101.778 174.77 101.538C175.274 101.298 175.706 101.082 176.066 100.89H169.1V99.882H177.704ZM168.902 94.32C169.19 94.704 169.472 95.106 169.748 95.526C170.036 95.934 170.306 96.36 170.558 96.804L169.568 97.344C169.292 96.864 169.016 96.414 168.74 95.994C168.464 95.574 168.176 95.184 167.876 94.824L168.902 94.32ZM172.79 93.996C173.066 94.404 173.324 94.83 173.564 95.274C173.804 95.718 174.05 96.174 174.302 96.642L173.276 97.164C172.808 96.192 172.304 95.316 171.764 94.536L172.79 93.996ZM183.189 96.138V95.148H188.643C188.571 94.968 188.499 94.8 188.427 94.644C188.355 94.488 188.277 94.344 188.193 94.212L189.417 94.032C189.489 94.2 189.567 94.374 189.651 94.554C189.747 94.734 189.837 94.932 189.921 95.148H195.519V96.138H192.927L192.297 97.398H196.275V98.406H182.415V97.398H186.249L185.727 96.138H183.189ZM191.109 97.398L191.721 96.138H186.933L187.437 97.398H191.109ZM194.439 99.342V104.058H184.233V99.342H194.439ZM193.341 102.132H185.367V103.176H193.341V102.132ZM193.341 101.286V100.26H185.367V101.286H193.341ZM184.719 105.048C184.323 106.32 183.807 107.418 183.171 108.342L182.181 107.73C182.841 106.854 183.315 105.888 183.603 104.832L184.719 105.048ZM187.635 108.558C186.567 108.558 186.033 108.06 186.033 107.064V104.976H187.203V106.83C187.203 107.286 187.461 107.514 187.977 107.514H191.325C191.673 107.514 191.913 107.448 192.045 107.316C192.225 107.172 192.357 106.692 192.441 105.876L193.521 106.236C193.401 107.328 193.185 107.994 192.873 108.234C192.585 108.45 192.141 108.558 191.541 108.558H187.635ZM189.525 104.382C190.221 105.066 190.737 105.672 191.073 106.2L190.137 106.848C189.933 106.56 189.699 106.26 189.435 105.948C189.171 105.636 188.877 105.318 188.553 104.994L189.525 104.382ZM194.529 104.67C195.465 105.774 196.161 106.704 196.617 107.46L195.663 108.144C195.159 107.28 194.469 106.32 193.593 105.264L194.529 104.67ZM208.654 104.166C208.534 104.214 208.408 104.268 208.276 104.328C208.144 104.376 208.024 104.424 207.916 104.472V106.992H206.872V104.85C205.744 105.258 204.544 105.624 203.272 105.948L203.038 104.976C203.23 104.928 203.422 104.886 203.614 104.85C203.806 104.814 203.998 104.76 204.19 104.688V95.778H203.326V94.77H208.636V95.778H207.916V103.482L208.654 103.14V104.166ZM206.872 101.844H205.216V104.436C205.504 104.34 205.786 104.25 206.062 104.166C206.338 104.07 206.608 103.974 206.872 103.878V101.844ZM206.872 100.926V98.892H205.216V100.926H206.872ZM206.872 97.974V95.778H205.216V97.974H206.872ZM200.428 96.318V94.176H201.526V96.318H203.29V97.38H201.526V99.702H203.578V100.746H201.94V102.996H203.524V103.986H201.94V106.92C202.012 106.944 202.084 106.974 202.156 107.01C202.228 107.046 202.294 107.076 202.354 107.1C203.302 107.412 205.42 107.568 208.708 107.568C210.412 107.556 211.672 107.538 212.488 107.514L212.29 108.63H208.996C205.096 108.63 202.666 108.402 201.706 107.946C200.866 107.55 200.134 106.866 199.51 105.894C199.294 106.938 199.03 107.94 198.718 108.9L197.872 108.18C198.508 106.26 198.856 104.13 198.916 101.79L199.852 101.898C199.828 102.834 199.768 103.722 199.672 104.562C200.056 105.246 200.464 105.774 200.896 106.146V100.746H198.322V99.702H200.428V97.38H198.574V96.318H200.428ZM212.308 95.94V96.714C212.2 98.874 211.846 100.776 211.246 102.42C211.462 103.032 211.684 103.644 211.912 104.256C212.152 104.868 212.374 105.486 212.578 106.11L211.714 106.506C211.546 106.026 211.378 105.546 211.21 105.066C211.042 104.574 210.874 104.106 210.706 103.662C210.43 104.226 210.112 104.748 209.752 105.228C209.404 105.708 209.032 106.17 208.636 106.614L207.988 105.858C208.9 104.862 209.62 103.692 210.148 102.348C209.86 101.652 209.572 100.992 209.284 100.368C209.008 99.732 208.714 99.114 208.402 98.514L209.284 98.208C209.524 98.664 209.752 99.126 209.968 99.594C210.196 100.062 210.418 100.53 210.634 100.998C210.814 100.374 210.952 99.726 211.048 99.054C211.156 98.382 211.24 97.68 211.3 96.948H208.546V95.94H212.308ZM218.657 94.194L218.441 96.3H227.225V97.398H218.333L218.045 99.99H227.207C227.207 104.358 226.919 106.902 226.343 107.622C225.767 108.282 224.573 108.612 222.761 108.612C222.473 108.612 222.179 108.606 221.879 108.594C221.579 108.594 221.267 108.588 220.943 108.576L220.655 107.514C221.099 107.538 221.471 107.562 221.771 107.586C222.071 107.598 222.317 107.604 222.509 107.604C224.189 107.604 225.191 107.298 225.515 106.686C225.863 106.05 226.037 104.184 226.037 101.088H216.731L217.523 94.122L218.657 94.194ZM224.183 103.662V104.796H214.877V103.662H224.183ZM241.134 94.428C240.966 94.752 240.792 95.058 240.612 95.346C240.444 95.634 240.258 95.91 240.054 96.174H244.356V97.272H230.082V96.174H234.456C234.3 95.826 234.138 95.508 233.97 95.22C233.802 94.92 233.616 94.632 233.412 94.356L234.618 94.158C234.798 94.458 234.972 94.776 235.14 95.112C235.32 95.436 235.5 95.79 235.68 96.174H238.776C239.268 95.478 239.682 94.776 240.018 94.068L241.134 94.428ZM234.366 108.72L234.042 107.568L235.248 107.622C235.668 107.622 235.878 107.358 235.878 106.83V105.336H232.332V108.828H231.216V98.586H237.012V107.082C237.012 108.174 236.55 108.72 235.626 108.72H234.366ZM235.878 104.328V102.51H232.332V104.328H235.878ZM235.878 101.484V99.666H232.332V101.484H235.878ZM239.712 108.684L239.478 107.55C239.814 107.586 240.144 107.616 240.468 107.64C240.792 107.652 241.11 107.658 241.422 107.658C241.866 107.658 242.088 107.406 242.088 106.902V98.118H243.258V107.19C243.258 108.186 242.784 108.684 241.836 108.684H239.712ZM239.91 99.324V106.218H238.776V99.324H239.91ZM259.003 108.774H257.869V108.09H252.649V108.774H251.515V102.006H259.003V108.774ZM257.869 106.956V103.104H252.649V106.956H257.869ZM258.121 94.914V99.144C258.121 99.564 258.349 99.774 258.805 99.774H260.479V100.872H258.463C257.479 100.872 256.987 100.392 256.987 99.432V96.012H253.441C253.441 97.188 253.291 98.19 252.991 99.018C252.595 99.894 251.971 100.71 251.119 101.466L250.219 100.71C251.083 99.882 251.653 99.114 251.929 98.406C252.205 97.65 252.343 96.486 252.343 94.914H258.121ZM247.429 94.518C248.617 95.346 249.595 96.168 250.363 96.984L249.535 97.812C249.175 97.404 248.749 96.996 248.257 96.588C247.777 96.18 247.225 95.754 246.601 95.31L247.429 94.518ZM246.781 98.334C247.897 99.114 248.851 99.918 249.643 100.746L248.851 101.574C248.491 101.178 248.071 100.782 247.591 100.386C247.123 99.99 246.583 99.57 245.971 99.126L246.781 98.334ZM249.949 103.068C249.181 105.072 248.329 106.956 247.393 108.72L246.241 108.216C246.757 107.316 247.237 106.404 247.681 105.48C248.125 104.544 248.545 103.602 248.941 102.654L249.949 103.068ZM276.53 103.95L274.892 104.202V108.756H273.74V104.4L268.754 105.192L268.592 104.076L273.74 103.248V94.23H274.892V103.068L276.332 102.816L276.53 103.95ZM270.104 95.058C270.692 95.478 271.22 95.892 271.688 96.3C272.156 96.696 272.588 97.11 272.984 97.542L272.228 98.316C271.496 97.524 270.512 96.696 269.276 95.832L270.104 95.058ZM269.636 98.73C270.212 99.162 270.746 99.594 271.238 100.026C271.73 100.446 272.174 100.872 272.57 101.304L271.778 102.132C271.07 101.316 270.08 100.44 268.808 99.504L269.636 98.73ZM264.812 98.478V96.12C264.428 96.18 264.038 96.234 263.642 96.282C263.246 96.318 262.838 96.36 262.418 96.408L262.202 95.328C264.278 95.172 266.12 94.842 267.728 94.338L268.124 95.436C267.44 95.628 266.714 95.796 265.946 95.94V98.478H268.16V99.576H265.946V100.368C266.39 100.728 266.84 101.112 267.296 101.52C267.764 101.928 268.232 102.348 268.7 102.78L268.034 103.77C267.614 103.278 267.23 102.84 266.882 102.456C266.546 102.072 266.234 101.742 265.946 101.466V108.756H264.812V101.304C264.164 102.888 263.3 104.31 262.22 105.57L261.734 104.274C262.418 103.59 263 102.858 263.48 102.078C263.96 101.298 264.356 100.464 264.668 99.576H262.184V98.478H264.812ZM278.325 108.63L278.091 107.532C278.295 107.556 278.493 107.58 278.685 107.604C278.889 107.616 279.087 107.622 279.279 107.622C279.723 107.622 279.945 107.382 279.945 106.902V103.104C279.621 103.212 279.297 103.332 278.973 103.464C278.661 103.584 278.331 103.698 277.983 103.806L277.695 102.69C278.079 102.594 278.457 102.486 278.829 102.366C279.201 102.246 279.573 102.12 279.945 101.988V98.208H278.001V97.092H279.945V94.194H281.043V97.092H282.735V98.208H281.043V101.52C281.343 101.364 281.631 101.214 281.907 101.07C282.195 100.926 282.483 100.776 282.771 100.62V101.736C282.483 101.904 282.195 102.06 281.907 102.204C281.619 102.336 281.331 102.474 281.043 102.618V107.19C281.043 108.15 280.575 108.63 279.639 108.63H278.325ZM287.145 96.48V94.212H288.261V96.48H292.113V97.596H288.261V100.188H291.501V101.214C290.937 102.978 290.007 104.472 288.711 105.696C289.743 106.512 291.027 107.238 292.563 107.874L291.969 108.81C290.373 108.114 289.023 107.316 287.919 106.416C287.295 106.908 286.605 107.358 285.849 107.766C285.105 108.174 284.277 108.54 283.365 108.864L282.843 107.892C283.695 107.616 284.475 107.298 285.183 106.938C285.891 106.566 286.533 106.146 287.109 105.678C285.777 104.382 284.901 102.918 284.481 101.286H283.617V100.188H287.145V97.596H283.311V96.48H287.145ZM285.543 101.286C285.747 101.982 286.041 102.642 286.425 103.266C286.821 103.878 287.307 104.466 287.883 105.03C288.447 104.49 288.927 103.908 289.323 103.284C289.719 102.66 290.055 101.994 290.331 101.286H285.543Z" fill="white"/>
</svg>
