<?xml version="1.0" encoding="UTF-8"?>
<svg width="299px" height="58px" viewBox="0 0 299 58" version="1.1" xmlns="http://www.w3.org/2000/svg" xmlns:xlink="http://www.w3.org/1999/xlink">
    <title>限时购车新方案</title>
    <g id="页面-1" stroke="none" stroke-width="1" fill="none" fill-rule="evenodd">
        <g id="pc" transform="translate(-3.000000, 0.348633)" fill="#FFFFFF" fill-rule="nonzero">
            <g id="编组" transform="translate(0.000000, 0.000000)">
                <path d="M4.45019531,55.0976562 C4.91438802,55.1178385 5.33821615,54.9967448 5.72167969,54.734375 C6.10514323,54.4720052 6.36246745,54.2298177 6.49365234,54.0078125 C6.62483724,53.7858073 6.74088542,53.4527995 6.84179688,53.0087891 L6.84179688,53.0087891 L6.69042969,45.6826172 L6.69042969,6.08496094 L11.140625,6.08496094 C10.9186198,7.65917969 10.65625,9.42513021 10.3535156,11.3828125 C10.0507812,13.3404948 9.61686198,16.2265625 9.05175781,20.0410156 L9.05175781,20.0410156 L9.9296875,21.9179688 C10.4140625,22.9876302 10.9135742,24.5164388 11.4282227,26.5043945 C11.9428711,28.4923503 12.2102865,30.4651693 12.2304688,32.4228516 C12.2304688,33.2301432 12.1346029,34.1080729 11.9428711,35.0566406 C11.7511393,36.0052083 11.3020833,36.6056315 10.5957031,36.8579102 C9.88932292,37.1101888 9.43522135,37.2363281 9.23339844,37.2363281 L9.23339844,37.2363281 L8.17382812,37.2363281 C8.03255208,37.2363281 7.91650391,37.2918294 7.82568359,37.402832 C7.73486328,37.5138346 7.68945312,37.6298828 7.68945312,37.7509766 C7.68945312,37.851888 7.72477214,37.9679362 7.79541016,38.0991211 C7.86604818,38.230306 7.97200521,38.3261719 8.11328125,38.3867188 L8.11328125,38.3867188 L9.23339844,38.9316406 C9.63704427,39.1334635 9.95491536,39.5320638 10.1870117,40.1274414 C10.4191081,40.722819 10.5704753,41.2475586 10.6411133,41.7016602 C10.7117513,42.1557617 10.7874349,42.4383138 10.8681641,42.5493164 C10.9488932,42.660319 11.0397135,42.7259115 11.140625,42.7460938 C11.281901,42.7864583 11.8015951,42.4786784 12.699707,41.8227539 C13.597819,41.1668294 14.3496094,40.273763 14.9550781,39.1435547 C15.5605469,38.0133464 15.8733724,36.5400391 15.8935547,34.7236328 C15.8935547,33.7750651 15.7320964,32.3673503 15.4091797,30.5004883 C15.086263,28.6336263 14.2587891,26.5094401 12.9267578,24.1279297 L12.9267578,24.1279297 L10.9589844,20.9794922 C10.797526,20.7373047 10.5654297,20.34375 10.2626953,19.7988281 L10.2626953,19.7988281 L11.4433594,16.1357422 C11.5846354,15.6715495 12.59375,12.8460286 14.4707031,7.65917969 L14.4707031,7.65917969 L15.7421875,6.5390625 C15.9238281,6.35742187 16.0146484,6.21614583 16.0146484,6.11523437 C16.0146484,6.01432292 15.984375,5.90836589 15.9238281,5.79736328 C15.8632812,5.68636068 15.7119141,5.48958333 15.4697266,5.20703125 L15.4697266,5.20703125 L13.1992188,2.6640625 C12.8359375,2.26041667 12.6038411,2.05354818 12.5029297,2.04345703 C12.4020182,2.03336589 12.2304688,2.24023437 11.9882812,2.6640625 L11.9882812,2.6640625 L11.0800781,4.38964844 L6.69042969,4.38964844 L4.45019531,2.20996094 C3.72363281,1.50358073 3.34016927,1.16552734 3.29980469,1.19580078 C3.2594401,1.22607422 3.20898438,1.27148437 3.1484375,1.33203125 L3.1484375,1.33203125 L3.33007812,9.71777344 L3.33007812,43.7753906 L3.1484375,53.9775391 C3.24934896,54.2802734 3.38053385,54.5426432 3.54199219,54.7646484 C3.70345052,54.9866536 4.0061849,55.0976562 4.45019531,55.0976562 Z M18.2700195,54.5073242 C18.3406576,54.5577799 18.4667969,54.5325521 18.6484375,54.4316406 L18.6484375,54.4316406 L19.8291016,52.8271484 L21.3427734,51.2226562 L23.5224609,49.0126953 L23.5224609,49.0126953 L23.9074195,48.6277368 C24.0295099,48.5056464 24.1453712,48.3897851 24.2550034,48.2801529 L25.6416016,46.8935547 L27.8818359,44.8652344 C28.1442057,44.6230469 28.2804362,44.3354492 28.2905273,44.0024414 C28.3006185,43.6694336 28.1240234,43.5735677 27.7607422,43.7148438 L27.7607422,43.7148438 L20.8886719,46.5605469 L20.8886719,26.7314453 L24.5820312,26.7314453 C24.6425781,27.7405599 24.7233073,28.7244466 24.8242188,29.6831055 C24.9251302,30.6417643 25.2430013,32.4733073 25.777832,35.1777344 C26.3126628,37.8821615 27.0089518,40.1577148 27.8666992,42.0043945 C28.7244466,43.8510742 29.6023763,45.4707031 30.5004883,46.8632812 C31.3986003,48.2558594 32.4480794,49.6484375 33.6489258,51.0410156 C34.8497721,52.4335938 35.6015625,53.1197917 35.9042969,53.0996094 C36.0657552,53.0996094 36.292806,52.867513 36.5854492,52.4033203 C36.8780924,51.9391276 37.2464193,51.4597982 37.6904297,50.965332 C38.1344401,50.4708659 38.7600911,50.0924479 39.5673828,49.8300781 L39.5673828,49.8300781 L40.6572266,49.4970703 C40.8388672,49.4567057 40.9397786,49.2851562 40.9599609,48.9824219 C40.9599609,48.7402344 40.8893229,48.578776 40.7480469,48.4980469 L40.7480469,48.4980469 L39.6582031,47.953125 C38.5683594,47.4283854 37.190918,46.4747721 35.5258789,45.0922852 C33.8608398,43.7097982 32.6347656,42.4988607 31.8476562,41.4594727 C31.0605469,40.4200846 30.374349,39.4361979 29.7890625,38.5078125 L29.7890625,38.5078125 L31.9990234,37.2060547 L34.875,35.5410156 C35.3391927,35.2786458 36.0253906,34.8447266 36.9335938,34.2392578 L36.9335938,34.2392578 L38.3261719,34.4208984 C38.7096354,34.4814453 38.9114583,34.2998047 38.9316406,33.8759766 C38.9316406,33.5732422 38.7701823,33.2200521 38.4472656,32.8164062 L38.4472656,32.8164062 L35.6621094,29.4560547 C35.3391927,29.0927734 35.1625977,28.9060872 35.1323242,28.8959961 C35.1020508,28.8859049 34.9960938,29.0322266 34.8144531,29.3349609 L34.8144531,29.3349609 L33.6035156,31.2724609 C32.5540365,32.9677734 31.1009115,35.0667318 29.2441406,37.5693359 L29.2441406,37.5693359 L28.09375,35.0566406 C27.8515625,34.5924479 27.5236003,33.6791992 27.1098633,32.3168945 C26.6961263,30.9545898 26.4388021,30.0413411 26.3378906,29.5771484 C26.2369792,29.1129557 26.0452474,28.164388 25.7626953,26.7314453 L25.7626953,26.7314453 L31.5751953,26.7314453 L31.5751953,27.9121094 C31.5751953,28.0533854 31.6508789,28.2249349 31.8022461,28.4267578 C31.9536133,28.6285807 32.2412109,28.7294922 32.6650391,28.7294922 C33.0686849,28.7496745 33.5883789,28.6336263 34.2241211,28.3813477 C34.8598633,28.129069 35.288737,27.5589193 35.5107422,26.6708984 L35.5107422,26.6708984 L35.3291016,21.9482422 L35.3291016,8.44628906 L36.2373047,7.35644531 C36.5198568,6.99316406 36.6611328,6.74593099 36.6611328,6.61474609 C36.6611328,6.4835612 36.6359049,6.36246745 36.5854492,6.25146484 C36.5349935,6.14046224 36.4189453,5.99414062 36.2373047,5.8125 L36.2373047,5.8125 L33.1796875,3.26953125 C32.8567708,3.00716146 32.6549479,2.87093099 32.5742188,2.86083984 C32.4934896,2.8507487 32.382487,2.98697917 32.2412109,3.26953125 L32.2412109,3.26953125 L31.1210938,5.50976562 L21.3427734,5.50976562 L17.921875,2.84570312 C17.6393229,2.62369792 17.472819,2.51774089 17.4223633,2.52783203 C17.3719076,2.53792318 17.296224,2.60351562 17.1953125,2.72460937 L17.1953125,2.72460937 L17.3466797,14.1074219 L17.3466797,44.8652344 C17.3466797,45.5917969 17.3164062,46.1871745 17.2558594,46.6513672 C17.1953125,47.1155599 17.0843099,47.4586589 16.9228516,47.6806641 L16.9228516,47.6806641 L16.2568359,48.4072266 C16.2164714,48.4879557 16.1861979,48.5686849 16.1660156,48.6494141 C16.1458333,48.7301432 16.2871094,49.1842448 16.5898438,50.0117188 L16.5898438,50.0117188 L17.8613281,53.5537109 C18.063151,54.1389974 18.1993815,54.4568685 18.2700195,54.5073242 Z M31.5751953,15.1669922 L20.8886719,15.1669922 L20.8886719,7.20507812 L31.5751953,7.20507812 L31.5751953,15.1669922 Z M31.5751953,25.0664062 L20.8886719,25.0664062 L20.8886719,16.8320312 L31.5751953,16.8320312 L31.5751953,25.0664062 Z M71.203125,54.9160156 C71.3040365,55.0976563 71.4554036,55.1279297 71.6572266,55.0068359 C71.8590495,54.8857422 72.1920573,54.7898763 72.65625,54.7192383 C73.1204427,54.6486003 73.8823242,54.3811849 74.9418945,53.9169922 C76.0014648,53.4527995 76.53125,52.6253255 76.53125,51.4345703 L76.53125,51.4345703 L76.53125,18.4970703 L84.0087891,18.4970703 C84.210612,18.4970703 84.3216146,18.4213867 84.3417969,18.2700195 C84.3619792,18.1186523 84.3468424,17.9824219 84.2963867,17.8613281 C84.245931,17.7402344 84.1904297,17.6292318 84.1298828,17.5283203 L84.1298828,17.5283203 L80.7392578,13.5019531 C80.4970703,13.2395833 80.3204753,13.078125 80.2094727,13.0175781 C80.0984701,12.9570312 79.8310547,13.3203125 79.4072266,14.1074219 L79.4072266,14.1074219 L77.9238281,16.9228516 L76.53125,16.9228516 L76.53125,4.51074219 L77.7119141,3.08789062 C77.8733724,2.88606771 77.9591471,2.70442708 77.9692383,2.54296875 C77.9793294,2.38151042 77.8330078,2.24023438 77.5302734,2.11914062 L77.5302734,2.11914062 L73.2011719,0.666015625 C72.797526,0.544921875 72.5553385,0.504557292 72.4746094,0.544921875 L72.4746094,0.544921875 L72.6865234,6.69042969 L72.6865234,16.9228516 L60.7285156,16.9228516 C60.405599,16.9228516 60.2491862,17.1145833 60.2592773,17.4980469 C60.2693685,17.8815104 60.3854167,18.2145182 60.6074219,18.4970703 L60.6074219,18.4970703 L72.6865234,18.4970703 L72.6865234,47.5898438 C72.6865234,48.0338542 72.6310221,48.3819987 72.5200195,48.6342773 C72.4090169,48.886556 71.9145508,48.9975586 71.0366211,48.9672852 C70.1586914,48.9370117 69.336263,48.8310547 68.5693359,48.6494141 L68.5693359,48.6494141 L67.4794922,48.4072266 C67.2373047,48.366862 67.0909831,48.4122721 67.0405273,48.543457 C66.9900716,48.6746419 66.9698893,48.7705078 66.9799805,48.8310547 C66.9900716,48.8916016 67.0152995,48.9773763 67.0556641,49.0883789 C67.0960286,49.1993815 67.1666667,49.2750651 67.2675781,49.3154297 L67.2675781,49.3154297 L68.296875,49.890625 C70.1132812,50.8997396 71.0366211,51.9744466 71.0668945,53.1147461 C71.097168,54.2550456 71.1425781,54.8554688 71.203125,54.9160156 Z M47.7109375,48.815918 C48.3365885,48.8058268 48.815918,48.7049154 49.1489258,48.5131836 C49.4819336,48.3214518 49.6938477,48.1246745 49.784668,47.9228516 C49.8754883,47.7210286 49.9208984,47.4485677 49.9208984,47.1054688 L49.9208984,47.1054688 L49.9208984,41.9287109 L55.9150391,41.9287109 L55.9150391,44.4414062 C55.9150391,44.8248698 55.9604492,45.1477865 56.0512695,45.4101562 C56.1420898,45.672526 56.5406901,45.7986654 57.2470703,45.7885742 C57.9534505,45.7784831 58.4832357,45.6220703 58.8364258,45.3193359 C59.1896159,45.0166016 59.4015299,44.7744141 59.472168,44.5927734 C59.542806,44.4111328 59.5983073,44.1588542 59.6386719,43.8359375 L59.6386719,43.8359375 L59.4267578,36.8427734 L59.4267578,10.2324219 L60.4863281,8.87011719 C60.6679688,8.66829427 60.7739258,8.48665365 60.8041992,8.32519531 C60.8344727,8.16373698 60.6780599,7.89127604 60.3349609,7.5078125 L60.3349609,7.5078125 L57.7314453,4.81347656 C57.569987,4.67220052 57.4337565,4.56624349 57.3227539,4.49560547 C57.2117513,4.42496745 56.9746094,4.76302083 56.6113281,5.50976562 L56.6113281,5.50976562 L55.703125,7.38671875 L50.0419922,7.38671875 L47.3476562,5.69140625 C46.9036458,5.40885417 46.6765951,5.26253255 46.6665039,5.25244141 C46.6613054,5.24724294 46.657446,5.74416932 46.6549255,6.74322056 L46.6540915,7.11667635 C46.6539618,7.1823939 46.6538367,7.2498489 46.6537162,7.31904135 L46.653049,7.75504557 C46.6529471,7.83118786 46.6528498,7.90906759 46.6527572,7.98868479 L46.6520483,8.75215086 C46.6519834,8.84219279 46.6519232,8.93397218 46.6518676,9.02748902 L46.6513672,41.1113281 L46.4697266,47.6503906 C46.4899089,47.8723958 46.5454102,48.1246745 46.6362305,48.4072266 C46.7270508,48.6897786 47.0852865,48.8260091 47.7109375,48.815918 Z M55.9150391,23.734375 L49.9208984,23.734375 L49.9208984,9.02148438 L55.9150391,9.02148438 L55.9150391,23.734375 Z M65.7236328,36.1767578 C66.6722005,36.1969401 67.328125,35.7529297 67.6914062,34.8447266 C68.0546875,33.9365234 68.2312826,32.8517253 68.2211914,31.590332 C68.2111003,30.3289388 67.8982747,29.1129557 67.2827148,27.9423828 C66.6671549,26.7718099 65.8245443,25.6920573 64.7548828,24.703125 C63.6852214,23.7141927 63.0797526,23.2096354 62.9384766,23.1894531 C62.7366536,23.1894531 62.6458333,23.3307292 62.6660156,23.6132812 C62.6660156,23.734375 62.6811523,23.8554688 62.7114258,23.9765625 C62.7416992,24.0976562 62.862793,24.3499349 63.074707,24.7333984 C63.2866211,25.116862 63.4632161,25.6516927 63.6044922,26.3378906 C63.7457682,27.0240885 63.8264974,27.680013 63.8466797,28.3056641 C63.866862,28.9313151 63.8870443,29.3450521 63.9072266,29.546875 C63.9072266,30.0110677 63.866862,30.7073568 63.7861328,31.6357422 C63.7054036,32.5641276 63.6650391,33.1494141 63.6650391,33.3916016 C63.7054036,34.0374349 63.8769531,34.6630859 64.1796875,35.2685547 C64.4824219,35.8740234 64.9970703,36.1767578 65.7236328,36.1767578 Z M55.9150391,40.2939453 L49.9208984,40.2939453 L49.9208984,25.3691406 L55.9150391,25.3691406 L55.9150391,40.2939453 Z M119.610352,55.7939453 C120.013997,55.8141276 120.659831,55.597168 121.547852,55.1430664 C122.435872,54.6889648 123.157389,54.1137695 123.712402,53.4174805 C124.267415,52.7211914 124.721517,51.7978516 125.074707,50.6474609 C125.427897,49.4970703 125.685221,47.8219401 125.84668,45.6220703 C126.008138,43.4222005 126.114095,41.4342448 126.164551,39.6582031 C126.215007,37.8821615 126.260417,35.4754232 126.300781,32.4379883 C126.341146,29.4005534 126.371419,26.7213542 126.391602,24.4003906 L126.391602,24.4003906 L126.391181,24.2010905 C126.38978,23.8226725 126.384874,23.2129991 126.376465,22.3720703 C126.373942,22.1197917 126.372365,21.8315633 126.371735,21.5073853 L126.371912,20.7173195 C126.373686,19.8665886 126.380249,18.8338623 126.391602,17.6191406 L126.391602,17.6191406 L127.299805,16.4990234 C127.481445,16.2770182 127.592448,16.0802409 127.632812,15.9086914 C127.673177,15.7371419 127.531901,15.4798177 127.208984,15.1367188 L127.208984,15.1367188 L124.333008,12.0791016 C124.131185,11.8974609 123.994954,11.8217773 123.924316,11.8520508 C123.853678,11.8823242 123.73763,12.0791016 123.576172,12.4423828 L123.576172,12.4423828 L122.425781,14.8037109 L112.163086,14.8037109 L112.405273,14.2285156 L113.010742,12.7753906 C113.293294,12.0286458 114.120768,9.61686198 115.493164,5.54003906 L115.493164,5.54003906 L116.583008,4.359375 C116.744466,4.17773438 116.835286,4.0061849 116.855469,3.84472656 C116.875651,3.68326823 116.77474,3.54199219 116.552734,3.42089844 L116.552734,3.42089844 L112.163086,1.33203125 L111.678711,1.05957031 C111.618164,1.0797526 111.567708,1.12011719 111.527344,1.18066406 L111.527344,1.18066406 L111.436523,2.36132812 L111.224609,4.29882812 C111.164062,4.78320312 110.982422,5.85286458 110.679688,7.5078125 C110.376953,9.16276042 110.134766,10.4746094 109.953125,11.4433594 C109.771484,12.4121094 109.483887,13.6432292 109.090332,15.1367188 C108.696777,16.6302083 108.277995,18.0732422 107.833984,19.4658203 C107.389974,20.8583984 106.996419,21.9684245 106.65332,22.7958984 L106.65332,22.7958984 L105.926758,24.6425781 C105.866211,24.7838542 105.846029,24.9554036 105.866211,25.1572266 C105.886393,25.3590495 105.967122,25.4700521 106.108398,25.4902344 C106.249674,25.5104167 106.380859,25.4195964 106.501953,25.2177734 L106.501953,25.2177734 L107.107422,24.2792969 C108.600911,22.0188802 109.640299,20.2529297 110.225586,18.9814453 C110.810872,17.7099609 111.204427,16.8723958 111.40625,16.46875 L111.40625,16.46875 L122.789062,16.46875 L122.819336,21.9179688 L122.819336,21.9179688 L122.819336,27.3974609 C122.799154,31.3330078 122.753743,35.0263672 122.683105,38.4775391 C122.612467,41.9287109 122.425781,44.3808594 122.123047,45.8339844 C121.820312,47.2871094 121.527669,48.1953125 121.245117,48.5585938 C120.962565,48.921875 120.47819,49.2246094 119.791992,49.4667969 C119.105794,49.7089844 118.1875,49.6888021 117.037109,49.40625 L117.037109,49.40625 L115.493164,49.0429688 C115.37207,49.0227865 115.271159,49.0581055 115.19043,49.1489258 C115.109701,49.2397461 115.069336,49.3457031 115.069336,49.4667969 C115.069336,49.7291667 115.170247,49.9108073 115.37207,50.0117188 L115.37207,50.0117188 L116.583008,50.7080078 C117.067383,50.9905599 117.516439,51.3538411 117.930176,51.7978516 C118.343913,52.241862 118.681966,52.8372396 118.944336,53.5839844 C119.206706,54.3307292 119.347982,54.875651 119.368164,55.21875 C119.388346,55.561849 119.41862,55.7434896 119.458984,55.7636719 C119.499349,55.7838542 119.549805,55.7939453 119.610352,55.7939453 Z M92.0917969,39.6733398 C92.5559896,39.6632487 93.0151367,39.5825195 93.4692383,39.4311523 C93.9233398,39.2797852 94.1857096,39.0981445 94.2563477,38.8862305 C94.3269857,38.6743164 94.3723958,38.4573568 94.3925781,38.2353516 C94.4078888,38.0669338 94.417392,37.0564274 94.4210877,35.2038322 L94.4219516,34.6777007 C94.4220716,34.5865324 94.4221796,34.4936243 94.4222756,34.3989763 L94.4228516,7.5078125 L102.112305,7.5078125 L102.112305,34.3300781 L102.021484,37.5996094 C102.041667,38.0234375 102.11735,38.3665365 102.248535,38.6289062 C102.37972,38.891276 102.748047,39.0224609 103.353516,39.0224609 C103.938802,39.0426432 104.423177,38.9114583 104.806641,38.6289062 C105.190104,38.3463542 105.417155,38.1142578 105.487793,37.9326172 C105.558431,37.7509766 105.624023,37.5188802 105.68457,37.2363281 L105.68457,37.2363281 L105.50293,30.9091797 L105.50293,8.83984375 L106.501953,7.68945313 C106.643229,7.52799479 106.708822,7.36653646 106.69873,7.20507813 C106.688639,7.04361979 106.633138,6.90234375 106.532227,6.78125 L106.532227,6.78125 L103.928711,3.90527344 C103.646159,3.62272135 103.464518,3.49153646 103.383789,3.51171875 C103.30306,3.53190104 103.081055,3.86490885 102.717773,4.51074219 L102.717773,4.51074219 L101.991211,5.84277344 L94.5136719,5.84277344 L91.6074219,3.90527344 C91.3046875,3.70345052 91.1482747,3.60758464 91.1381836,3.61767578 C91.1280924,3.62776693 91.1028646,3.64290365 91.0625,3.66308594 L91.0625,3.66308594 L91.1835938,9.50585938 L91.1835938,33.3310547 L91.0625,38.5986328 C91.1028646,38.8811849 91.168457,39.1334635 91.2592773,39.3554688 C91.3500977,39.577474 91.6276042,39.683431 92.0917969,39.6733398 Z M89.2612305,54.3256836 C89.2915039,54.6586914 89.5286458,54.593099 89.9726562,54.1289062 L89.9726562,54.1289062 L91.1230469,52.9179688 C93,50.9199219 94.4783529,49.0530599 95.5581055,47.3173828 C96.6378581,45.5817057 97.3442383,44.1437174 97.6772461,43.003418 C98.0102539,41.8631185 98.2776693,40.8893229 98.4794922,40.0820312 C100.033529,41.65625 101.037598,43.1043294 101.491699,44.4262695 C101.945801,45.7482096 102.298991,46.8683268 102.55127,47.7866211 C102.803548,48.7049154 103.005371,49.3608398 103.156738,49.7543945 C103.308105,50.1479492 103.464518,50.445638 103.625977,50.6474609 C103.948893,51.0712891 104.40804,51.2781576 105.003418,51.2680664 C105.598796,51.2579753 106.032715,50.9199219 106.305176,50.2539062 C106.577637,49.5878906 106.723958,48.992513 106.744141,48.4677734 C106.784505,47.4182943 106.547363,46.3990885 106.032715,45.4101562 C105.518066,44.421224 104.826823,43.4777018 103.958984,42.5795898 C103.091146,41.6814779 101.335286,40.5664062 98.6914062,39.234375 L98.6914062,39.234375 L98.9638672,37.5996094 C99.0647786,36.9739583 99.190918,35.5511068 99.3422852,33.3310547 C99.4936523,31.1110026 99.5844727,29.3299154 99.6147461,27.987793 C99.6450195,26.6456706 99.6652018,24.8191732 99.675293,22.5083008 C99.6853841,20.1974284 99.7207031,17.7503255 99.78125,15.1669922 L99.78125,15.1669922 L100.507812,14.2587891 C100.608724,14.1376953 100.669271,14.0266927 100.689453,13.9257812 L100.689453,13.9257812 L100.689453,13.8046875 C100.689453,13.7441406 100.684408,13.6835937 100.674316,13.6230469 C100.664225,13.5625 100.588542,13.5019531 100.447266,13.4414062 L100.447266,13.4414062 L96.9052734,12.3818359 C96.6227214,12.3011068 96.461263,12.2708333 96.4208984,12.2910156 C96.3805339,12.3111979 96.3401693,12.3515625 96.2998047,12.4121094 L96.2998047,12.4121094 L96.390625,13.8349609 L96.5419922,16.5595703 C96.5722656,17.3164062 96.5883484,18.8821106 96.5902405,21.2566833 L96.5901826,22.3238799 C96.5897707,22.8201996 96.5888439,23.3458659 96.5874023,23.9008789 C96.5773112,27.7859701 96.5520833,30.4399414 96.5117187,31.862793 C96.4713542,33.2856445 96.3098958,35.4451497 96.0273437,38.3413086 C95.7447917,41.2374674 95.0585937,43.8561198 93.96875,46.1972656 C92.8789062,48.5384115 91.7285156,50.5061849 90.5175781,52.1005859 L90.5175781,52.1005859 L89.4277344,53.5537109 C89.2864583,53.7353516 89.230957,53.9926758 89.2612305,54.3256836 Z M118.671875,42.4284358 C119.176432,42.4181315 119.610352,42.2566732 119.973633,41.9438477 C120.336914,41.6310221 120.594238,41.207194 120.745605,40.6723633 C120.896973,40.1375326 120.982747,39.6178385 121.00293,39.1132812 C121.00293,36.4088542 120.054362,34.2291667 118.157227,32.5742188 C116.260091,30.9192708 115.200521,30.0817057 114.978516,30.0615234 C114.817057,30.0615234 114.741374,30.1271159 114.751465,30.2583008 C114.761556,30.3894857 114.776693,30.4954427 114.796875,30.5761719 C114.817057,30.656901 114.938151,30.894043 115.160156,31.2875977 C115.382161,31.6811523 115.659668,32.2967122 115.992676,33.1342773 C116.325684,33.9718424 116.633464,35.0364583 116.916016,36.328125 L116.916016,36.328125 L109.499023,37.0546875 C111.416341,32.9375 113.273112,28.8304036 115.069336,24.7333984 L115.069336,24.7333984 L116.189453,24.0371094 C116.371094,23.9361979 116.477051,23.7898763 116.507324,23.5981445 C116.537598,23.4064128 116.421549,23.2197266 116.15918,23.0380859 L116.15918,23.0380859 L112.798828,20.9189453 L112.041992,20.4648438 C112.001628,20.4446615 111.9764,20.4295247 111.966309,20.4192467 C111.956217,20.4093424 111.880534,20.8079427 111.739258,21.6152344 L111.739258,21.6152344 L111.466797,23.0380859 C111.365885,23.6233724 111.103516,24.8292643 110.679688,26.6557617 C110.255859,28.4822591 109.771484,30.3440755 109.226562,32.2412109 C108.681641,34.1383464 108.28304,35.3391927 108.030762,35.84375 C107.778483,36.3483073 107.561523,36.671224 107.379883,36.8125 L107.379883,36.8125 L106.65332,37.296875 C106.532227,37.4179688 106.461589,37.5289714 106.441406,37.6298828 L106.441406,37.6298828 L106.713867,38.4169922 L107.833984,41.8984375 C107.894531,42.1608073 107.995443,42.2263997 108.136719,42.0952148 C108.277995,41.9640299 108.449544,41.8277995 108.651367,41.6865234 L108.651367,41.6865234 L109.832031,40.8994141 C111.164062,40.0517578 113.575846,38.9518229 117.067383,37.5996094 L117.067383,37.5996094 L117.067383,39.3857422 C117.067383,40.2939453 117.178385,40.9599609 117.400391,41.3837891 C117.74349,42.0901693 118.167318,42.4383138 118.671875,42.4284358 Z M152.457031,56.7177582 C153.163411,56.707194 153.72347,56.5558268 154.137207,56.2631836 C154.550944,55.9705404 154.793132,55.7333984 154.86377,55.5517578 C154.934408,55.3701172 154.989909,55.148112 155.030273,54.8857422 L155.030273,54.8857422 L154.878906,49.7392578 L154.878906,40.6269531 L165.807617,40.6269531 L165.807617,40.5664062 L170.802734,40.5664062 C171.085286,40.5664062 171.221517,40.4806315 171.211426,40.309082 C171.201335,40.1375326 171.16097,39.9558919 171.090332,39.7641602 C171.019694,39.5724284 170.903646,39.3655599 170.742188,39.1435547 L170.742188,39.1435547 L167.654297,35.2988281 C167.492839,35.1171875 167.366699,35.0314128 167.275879,35.0415039 C167.185059,35.0515951 167.008464,35.288737 166.746094,35.7529297 L166.746094,35.7529297 L164.959961,38.9619141 L154.878906,38.9619141 L154.878906,29.4863281 L166.746094,29.4257813 C167.008464,29.4257813 167.134603,29.2794596 167.124512,28.9868164 C167.114421,28.6941732 166.988281,28.3863932 166.746094,28.0634766 L166.746094,28.0634766 L164.021484,24.7333984 C163.678385,24.3095703 163.416016,24.0421549 163.234375,23.9311523 C163.052734,23.8201497 162.760091,24.1582031 162.356445,24.9453125 L162.356445,24.9453125 L160.873047,27.8515625 L154.878906,27.8515625 L154.878906,20.0712891 L155.847656,19.3447266 C156.089844,19.1630859 156.221029,18.9511719 156.241211,18.7089844 C156.261393,18.4667969 156.130208,18.2750651 155.847656,18.1337891 L155.847656,18.1337891 L151.669922,16.3476562 L151.185547,16.1357422 C151.084635,16.1761068 150.993815,16.2568359 150.913086,16.3779297 L150.913086,16.3779297 L151.03418,21.5546875 L151.03418,27.8515625 L142.557617,27.8515625 L148.703125,12.7148438 L167.321289,12.7148438 L167.321289,12.6845703 L168.865234,12.6845703 C169.107422,12.6845703 169.233561,12.5432943 169.243652,12.2607422 C169.253743,11.9781901 169.137695,11.6754557 168.895508,11.3525391 L168.895508,11.3525391 L165.56543,7.5078125 C165.222331,7.14453125 165.010417,6.98307292 164.929688,7.0234375 C164.848958,7.06380208 164.616862,7.42708333 164.233398,8.11328125 L164.233398,8.11328125 L162.628906,11.0800781 L149.338867,11.0800781 L151.669922,5.26757812 L153.092773,4.32910156 C153.355143,4.16764323 153.491374,3.98095703 153.501465,3.76904297 C153.511556,3.55712891 153.435872,3.390625 153.274414,3.26953125 L153.274414,3.26953125 L149.066406,0.544921875 L148.279297,0 C148.238932,0.0201822917 148.21875,0.0403645833 148.21875,0.060546875 L148.21875,0.060546875 L147.946289,1.453125 L147.492188,3.26953125 C147.209635,4.33919271 146.750488,5.87304688 146.114746,7.87109375 C145.479004,9.86914062 145.140951,10.9388021 145.100586,11.0800781 L145.100586,11.0800781 L134.504883,11.0800781 C134.121419,11.0800781 133.939779,11.3525391 133.959961,11.8974609 C133.980143,12.4423828 134.161784,12.7148438 134.504883,12.7148438 L134.504883,12.7148438 L144.495117,12.7148438 C143.889648,14.4505208 143.364909,15.8834635 142.920898,17.0136719 C142.476888,18.1438802 141.826009,19.753418 140.968262,21.8422852 C140.110514,23.9311523 139.550456,25.2076823 139.288086,25.671875 C139.025716,26.1360677 138.722982,26.4488932 138.379883,26.6103516 C137.774414,26.9130859 137.476725,27.0997721 137.486816,27.1704102 C137.496908,27.2410482 137.623047,27.468099 137.865234,27.8515625 L137.865234,27.8515625 L140.075195,31.5146484 C140.176107,31.7366536 140.317383,31.7366536 140.499023,31.5146484 L140.499023,31.5146484 L142.042969,29.4863281 L151.03418,29.4863281 L151.03418,38.9619141 L133.021484,38.9619141 C132.678385,38.9619141 132.506836,39.3251953 132.506836,40.0517578 L132.506836,40.0517578 L132.597656,40.3847656 C132.597656,40.4251302 132.668294,40.4755859 132.80957,40.5361328 L132.80957,40.5361328 L133.021484,40.6269531 L151.03418,40.6269531 L151.03418,49.9511719 L150.913086,55.0371094 C150.933268,55.5416667 151.019043,55.9503581 151.17041,56.2631836 C151.321777,56.5760091 151.750651,56.7273763 152.457031,56.7177582 Z M186.181641,9.6875 C186.888021,9.70768229 187.407715,9.44026693 187.740723,8.88525391 C188.07373,8.33024089 188.310872,7.79036458 188.452148,7.265625 C188.512695,6.96289062 188.537923,6.71565755 188.527832,6.52392578 C188.517741,6.33219401 188.442057,5.73681641 188.300781,4.73779297 C188.159505,3.73876953 187.609538,2.95166016 186.650879,2.37646484 C185.69222,1.80126953 184.829427,1.39257812 184.0625,1.15039062 C183.295573,0.908203125 182.851562,0.787109375 182.730469,0.787109375 C182.548828,0.807291667 182.437826,0.888020833 182.397461,1.02929688 C182.377279,1.08984375 182.367188,1.17057292 182.367188,1.27148438 C182.367188,1.37239583 182.407552,1.47330729 182.488281,1.57421875 L182.488281,1.57421875 L182.942383,2.30078125 C183.366211,2.98697917 183.638672,3.54199219 183.759766,3.96582031 C183.880859,4.38964844 183.97168,4.84375 184.032227,5.328125 L184.032227,5.328125 L184.213867,7.265625 C184.274414,7.89127604 184.440918,8.45133464 184.713379,8.94580078 C184.98584,9.44026693 185.47526,9.6875 186.181641,9.6875 Z M206.222656,55.9150391 C206.666667,55.9352214 207.161133,55.7989909 207.706055,55.5063477 C208.250977,55.2137044 208.614258,54.7041016 208.795898,53.9775391 L208.795898,53.9775391 L208.644531,50.1933594 L208.644531,24.2490234 C208.826172,24.1682943 208.967448,24.0825195 209.068359,23.9916992 C209.169271,23.9008789 209.310547,23.6940104 209.492188,23.3710938 L209.492188,23.3710938 L214.275391,23.3710938 C214.517578,23.3710938 214.648763,23.2096354 214.668945,22.8867188 C214.668945,22.8059896 214.653809,22.7202148 214.623535,22.6293945 C214.593262,22.5385742 214.477214,22.351888 214.275391,22.0693359 L214.275391,22.0693359 L212.186523,19.3447266 C211.661784,18.6988932 211.348958,18.335612 211.248047,18.2548828 C211.147135,18.1741536 211.066406,18.1590169 211.005859,18.2094727 C210.945313,18.2599284 210.713216,18.6988932 210.30957,19.5263672 L210.30957,19.5263672 L209.25,21.7060547 L200.864258,21.7060547 L200.894531,18.3759766 L200.955078,15.0458984 L200.955078,15.0458984 L200.955551,14.6102448 C200.957759,13.5308075 200.967692,12.0109863 200.985352,10.0507812 L200.985352,10.0507812 L205.526367,9.29394531 L211.248047,8.14355469 L212.580078,7.93164062 C212.842448,7.89127604 212.983724,7.75 213.003906,7.5078125 C213.003906,7.34635417 212.791992,7.01334635 212.368164,6.50878906 L212.368164,6.50878906 L209.916016,3.72363281 L209.189453,2.72460938 C209.068359,2.68424479 208.957357,2.68424479 208.856445,2.72460938 L208.856445,2.72460938 L208.19043,3.54199219 L207.161133,4.45019531 C205.647461,5.78222656 203.649414,7.1344401 201.166992,8.50683594 L201.166992,8.50683594 L198.109375,6.32714844 C197.503906,5.88313802 197.186035,5.67122396 197.155762,5.69140625 C197.125488,5.71158854 197.080078,5.74186198 197.019531,5.78222656 L197.019531,5.78222656 L197.261719,10.0507812 L197.261938,11.3281452 C197.265003,11.622373 197.300249,12.7808949 197.367676,14.8037109 C197.438314,16.9228516 197.473633,19.0621745 197.473633,21.2216797 C197.473633,24.5719401 197.433268,27.4327799 197.352539,29.8041992 C197.27181,32.1756185 197.085124,34.7589518 196.79248,37.5541992 C196.499837,40.3494466 195.798503,43.0286458 194.688477,45.5917969 C193.578451,48.1549479 192.064779,50.5768229 190.147461,52.8574219 L190.147461,52.8574219 L189.360352,53.7958984 C189.219076,53.9977214 189.138346,54.144043 189.118164,54.2348633 C189.097982,54.3256836 189.092936,54.4013672 189.103027,54.4619141 C189.113118,54.5224609 189.133301,54.5830078 189.163574,54.6435547 C189.193848,54.7041016 189.25944,54.7394206 189.360352,54.7495117 C189.461263,54.7596029 189.602539,54.6940104 189.78418,54.5527344 L189.78418,54.5527344 L190.722656,53.7958984 C191.166667,53.4527995 191.797363,52.8221029 192.614746,51.9038086 C193.432129,50.9855143 194.511882,49.6333008 195.854004,47.847168 C197.196126,46.0610352 198.210286,44.0175781 198.896484,41.7167969 C199.582682,39.4160156 200.031738,37.4482422 200.243652,35.8134766 C200.455566,34.1787109 200.596842,32.3572591 200.66748,30.3491211 C200.738118,28.3409831 200.803711,26.014974 200.864258,23.3710938 L200.864258,23.3710938 L205.041992,23.3710938 L205.041992,48.4677734 L204.890625,54.6738281 C204.93099,55.0169271 205.026855,55.3095703 205.178223,55.5517578 C205.32959,55.7939453 205.677734,55.9150391 206.222656,55.9150391 Z M184.0625,53.9169922 C184.32487,53.9573568 184.81429,53.8160807 185.530762,53.4931641 C186.247233,53.1702474 186.797201,52.8927409 187.180664,52.6606445 C187.564128,52.4285482 187.887044,52.0450846 188.149414,51.5102539 C188.411784,50.9754232 188.542969,50.2740885 188.542969,49.40625 L188.542969,49.40625 L188.542969,33.3916016 L195.293945,33.3916016 C195.415039,33.3916016 195.515951,33.3461914 195.59668,33.2553711 C195.677409,33.1645508 195.727865,33.0585938 195.748047,32.9375 C195.748047,32.7760417 195.657227,32.5742188 195.475586,32.3320312 L195.475586,32.3320312 L193.235352,29.4863281 C192.771159,28.921224 192.483561,28.6437174 192.372559,28.6538086 C192.261556,28.6638997 192.084961,28.8808594 191.842773,29.3046875 L191.842773,29.3046875 L190.480469,31.6660156 L188.542969,31.6660156 L188.542969,25.3388672 C188.845703,25.0966797 189.027344,24.9251302 189.087891,24.8242188 C189.148438,24.7233073 189.229167,24.6123047 189.330078,24.4912109 L189.330078,24.4912109 L196.292969,24.4912109 C196.494792,24.4912109 196.651204,24.4357096 196.762207,24.324707 C196.87321,24.2137044 196.938802,24.0976562 196.958984,23.9765625 C196.958984,23.8151042 196.736979,23.4417318 196.292969,22.8564453 L196.292969,22.8564453 L194.446289,20.4951172 C194.123372,20.1116536 193.916504,19.8795573 193.825684,19.7988281 C193.734863,19.718099 193.664225,19.7029622 193.61377,19.753418 C193.563314,19.8038737 193.366536,20.1419271 193.023438,20.7675781 L193.023438,20.7675781 L191.90332,22.7958984 L189.360352,22.7958984 C190.086914,21.2014974 191.096029,18.9309896 192.387695,15.984375 L192.387695,15.984375 L193.568359,15.3789062 C193.871094,15.2376302 194.027507,15.0913086 194.037598,14.9399414 C194.047689,14.7885742 194.027507,14.6674805 193.977051,14.5766602 C193.926595,14.4858398 193.75,14.3193359 193.447266,14.0771484 L193.447266,14.0771484 L190.026367,11.4736328 L192.054688,11.4736328 L192.054688,11.4130859 L195.869141,11.4130859 C196.050781,11.4130859 196.192057,11.3626302 196.292969,11.2617188 C196.39388,11.1608073 196.454427,11.0498047 196.474609,10.9287109 C196.474609,10.7874349 196.272786,10.4544271 195.869141,9.9296875 L195.869141,9.9296875 L193.961914,7.5078125 C193.437174,6.86197917 193.139486,6.53401693 193.068848,6.52373418 C192.99821,6.51383464 192.771159,6.90234375 192.387695,7.68945312 L192.387695,7.68945312 L191.297852,9.80859375 L177.432617,9.80859375 C176.968424,9.80859375 176.766602,10.0861003 176.827148,10.6411133 C176.887695,11.1961263 177.089518,11.4736328 177.432617,11.4736328 L177.432617,11.4736328 L189.723633,11.4736328 L189.541992,13.078125 C189.461263,13.8450521 189.224121,15.3133138 188.830566,17.4829102 C188.437012,19.6525065 188.078776,21.4235026 187.755859,22.7958984 L187.755859,22.7958984 L176.584961,22.7958984 C176.181315,22.7958984 175.984538,23.0078125 175.994629,23.4316406 C176.00472,23.8554688 176.055176,24.112793 176.145996,24.2036133 C176.236816,24.2944336 176.342773,24.3701172 176.463867,24.4306641 L176.463867,24.4306641 L176.706055,24.4912109 L185.12207,24.4912109 L185.12207,31.6660156 L177.129883,31.6660156 C176.66569,31.6660156 176.458822,31.8779297 176.509277,32.3017578 C176.559733,32.7255859 176.716146,33.0485026 176.978516,33.2705078 L176.978516,33.2705078 L177.28125,33.3916016 L185.12207,33.3916016 L185.12207,47.6201172 C185.12207,48.0843099 184.859701,48.2861328 184.334961,48.2255859 L184.334961,48.2255859 L183.699219,48.2255859 C183.598307,48.2255859 183.431803,48.2104492 183.199707,48.1801758 C182.967611,48.1499023 182.700195,48.1044922 182.397461,48.0439453 L182.397461,48.0439453 L181.035156,47.8623047 C180.732422,47.8421224 180.581055,47.9733073 180.581055,48.2558594 C180.560872,48.5182292 180.681966,48.7301432 180.944336,48.8916016 L180.944336,48.8916016 L182.125,49.6484375 C182.891927,50.1731771 183.346029,50.7635091 183.487305,51.4194336 C183.628581,52.0753581 183.704264,52.5748698 183.714355,52.9179688 C183.724447,53.2610677 183.744629,53.4931641 183.774902,53.6142578 C183.805176,53.7353516 183.840495,53.8160807 183.880859,53.8564453 C183.921224,53.8968099 183.981771,53.9169922 184.0625,53.9169922 Z M182.639648,22.6142578 C183.285482,22.6142578 183.80013,22.2862956 184.183594,21.6303711 C184.567057,20.9744466 184.76888,20.2630208 184.789063,19.4960938 C184.829427,17.6595052 184.163411,16.125651 182.791016,14.8945313 C181.41862,13.6634115 180.651693,13.0377604 180.490234,13.0175781 C180.328776,13.0175781 180.237956,13.1184896 180.217773,13.3203125 C180.197591,13.3606771 180.192546,13.4464518 180.202637,13.5776367 C180.212728,13.7088216 180.227865,13.7945964 180.248047,13.8349609 L180.248047,13.8349609 L180.671875,14.8642578 C180.914063,15.5302734 181.055339,16.5696615 181.095703,17.9824219 C181.095703,18.3658854 181.090658,18.8754883 181.080566,19.5112305 C181.070475,20.1469727 181.115885,20.828125 181.216797,21.5546875 C181.317708,22.28125 181.791992,22.6344401 182.639648,22.6142578 Z M176.151042,51.1116536 L176.191406,51.1015625 C176.292318,51.1015625 176.433594,50.9703776 176.615234,50.7080078 L176.615234,50.7080078 L177.523438,49.3457031 C177.826172,48.9016927 178.451823,47.7563477 179.400391,45.909668 C180.348958,44.0629883 180.974609,42.8217773 181.277344,42.1860352 C181.580078,41.550293 182.084635,40.3746745 182.791016,38.6591797 L182.791016,38.6591797 L183.517578,38.1748047 C183.598307,38.1344401 183.6639,38.0537109 183.714355,37.9326172 C183.764811,37.8115234 183.80013,37.7207031 183.820312,37.6601562 C183.820312,37.5188802 183.658854,37.3372396 183.335938,37.1152344 L183.335938,37.1152344 L180.338867,35.2080078 L179.793945,34.8144531 C179.733398,34.8548177 179.693034,34.9153646 179.672852,34.9960938 L179.672852,34.9960938 L179.551758,36.4189453 L179.279297,38.2958984 C179.178385,39.0830078 178.936198,40.2687174 178.552734,41.8530273 C178.169271,43.4373372 177.932129,44.3909505 177.841309,44.7138672 C177.750488,45.0367839 177.538574,45.7532552 177.205566,46.8632812 C176.872559,47.9733073 176.675781,48.6292318 176.615234,48.8310547 L176.615234,48.8310547 L176.161133,50.1328125 C176.060221,50.4153646 176.009766,50.6323242 176.009766,50.7836914 C176.009766,50.9350586 176.029948,51.0309245 176.070312,51.0712891 C176.110677,51.1116536 176.151042,51.1217448 176.191406,51.1015625 L176.151042,51.1116536 Z M192.720703,45.6523438 C193.30599,45.6523438 193.780273,45.3395182 194.143555,44.7138672 C194.506836,44.0882161 194.698568,43.4222005 194.71875,42.7158203 C194.71875,41.7874349 194.471517,40.8943685 193.977051,40.0366211 C193.482585,39.1788737 192.745931,38.3110352 191.76709,37.4331055 C190.788249,36.5551758 190.157552,36.1162109 189.875,36.1162109 C189.814453,36.1363932 189.774089,36.1565755 189.753906,36.1767578 C189.733724,36.1969401 189.698405,36.2877604 189.647949,36.4492188 C189.597493,36.6106771 189.673177,36.8730469 189.875,37.2363281 L189.875,37.2363281 L190.238281,37.9326172 C190.742839,38.9013672 191.035482,39.9912109 191.116211,41.2021484 L191.116211,41.2021484 L191.146484,43.0488281 C191.166667,43.6542969 191.262533,44.2446289 191.434082,44.8198242 C191.605632,45.3950195 192.034505,45.672526 192.720703,45.6523438 Z M238.070313,12.1396484 C238.817057,12.1598307 239.457845,11.7915039 239.992676,11.034668 C240.527507,10.277832 240.799967,9.38476562 240.810059,8.35546875 C240.82015,7.32617188 240.542643,6.21614583 239.977539,5.02539062 C239.412435,3.83463542 238.428548,2.91634115 237.025879,2.27050781 C235.62321,1.62467448 234.649414,1.29166667 234.104492,1.27148438 C233.801758,1.27148438 233.645345,1.36230469 233.635254,1.54394531 C233.625163,1.72558594 233.660482,1.86686198 233.741211,1.96777344 L233.741211,1.96777344 L234.316406,2.72460938 C234.800781,3.41080729 235.14388,4.0616862 235.345703,4.67724609 C235.547526,5.29280599 235.658529,5.88313802 235.678711,6.44824219 L235.678711,6.44824219 L235.587891,9.38476562 C235.66862,10.0709635 235.910807,10.7016602 236.314453,11.2768555 C236.718099,11.8520508 237.303385,12.1396484 238.070313,12.1396484 Z M241.824219,55.7333984 C241.945312,55.7535807 242.288411,55.6728516 242.853516,55.4912109 C243.41862,55.3095703 244.104818,55.0169271 244.912109,54.6132812 C245.719401,54.2096354 246.486328,53.4527995 247.212891,52.3427734 C247.939453,51.2327474 248.494466,49.9410807 248.87793,48.4677734 C249.261393,46.9944661 249.609538,45.2436523 249.922363,43.215332 C250.235189,41.1870117 250.46224,39.5572917 250.603516,38.3261719 C250.744792,37.0950521 250.896159,35.5712891 251.057617,33.7548828 C251.219076,31.9384766 251.370443,30.3037109 251.511719,28.8505859 L251.511719,28.8505859 L252.692383,27.9121094 C252.974935,27.6901042 253.111165,27.5135091 253.101074,27.3823242 C253.090983,27.2511393 253.070801,27.1502279 253.040527,27.0795898 C253.010254,27.0089518 252.853841,26.8121745 252.571289,26.4892578 L252.571289,26.4892578 L249.543945,23.1591797 C249.241211,22.8564453 249.074707,22.7000326 249.044434,22.6899414 C249.01416,22.6798503 248.978841,22.6798503 248.938477,22.6899414 C248.898112,22.7000326 248.726562,22.9775391 248.423828,23.5224609 L248.423828,23.5224609 L247.455078,25.2480469 L236.798828,25.2480469 L237.010742,23.2802734 C237.232747,20.8180339 237.464844,18.4567057 237.707031,16.1962891 C238.090495,15.6311849 238.3125,15.3082682 238.373047,15.2275391 C238.433594,15.1468099 238.595052,14.9752604 238.857422,14.7128906 L238.857422,14.7128906 L256.900391,14.7128906 C257.526042,14.7128906 257.869141,14.5514323 257.929688,14.2285156 C257.929688,14.0266927 257.808594,13.7744141 257.566406,13.4716797 L257.566406,13.4716797 L254.629883,10.0810547 C253.943685,9.29394531 253.580404,8.9054362 253.540039,8.91533574 C253.499674,8.92561849 253.297852,9.27376302 252.93457,9.95996094 L252.93457,9.95996094 L251.330078,13.1083984 L220.96582,13.1083984 C220.582357,13.1083984 220.395671,13.3758138 220.405762,13.9106445 C220.415853,14.4454753 220.602539,14.7128906 220.96582,14.7128906 L220.96582,14.7128906 L233.529297,14.7128906 C233.46875,16.125651 233.398112,17.5030924 233.317383,18.8452148 C233.236654,20.1873372 233.095378,21.9230143 232.893555,24.0522461 C232.691732,26.1814779 232.479818,28.0180664 232.257812,29.5620117 C232.035807,31.105957 231.697754,32.866862 231.243652,34.8447266 C230.789551,36.8225911 230.234538,38.6339518 229.578613,40.2788086 C228.922689,41.9236654 227.888346,43.9318034 226.475586,46.3032227 C225.062826,48.6746419 223.634928,50.4860026 222.191895,51.7373047 C220.748861,52.9886068 219.99707,53.6445312 219.936523,53.7050781 L219.936523,53.7050781 L219.421875,54.2197266 C219.300781,54.3408203 219.240234,54.4215495 219.240234,54.4619141 L219.240234,54.4619141 L219.240234,54.7797852 C219.240234,54.8302409 219.285645,54.8806966 219.376465,54.9311523 C219.467285,54.9816081 219.573242,54.9664714 219.694336,54.8857422 L219.694336,54.8857422 L220.602539,54.3408203 C221.894206,53.5738932 223.25651,52.5799154 224.689453,51.3588867 C226.122396,50.1378581 227.625977,48.6040039 229.200195,46.7573242 C230.774414,44.9106445 232.010579,42.9378255 232.908691,40.8388672 C233.806803,38.7399089 234.52832,36.671224 235.073242,34.6328125 C235.618164,32.594401 236.142904,30.0110677 236.647461,26.8828125 L236.647461,26.8828125 L247.606445,26.8828125 C247.424805,29.688151 247.283529,31.7770182 247.182617,33.1494141 C247.081706,34.5218099 246.910156,36.1313477 246.667969,37.9780273 C246.425781,39.824707 246.037272,42.0195312 245.502441,44.5625 C244.967611,47.1054688 244.402507,48.5686849 243.807129,48.9521484 C243.211751,49.335612 242.550781,49.5273438 241.824219,49.5273438 C241.037109,49.547526 240.280273,49.4365234 239.553711,49.1943359 L239.553711,49.1943359 L238.282227,48.7402344 L237.585938,48.4980469 C237.464844,48.4778646 237.353841,48.5131836 237.25293,48.6040039 C237.152018,48.6948242 237.101562,48.8209635 237.101562,48.9824219 C237.08138,49.1640625 237.141927,49.2952474 237.283203,49.3759766 L237.283203,49.3759766 L237.979492,49.8603516 L238.887695,50.4355469 C239.694987,50.9602865 240.310547,51.5708008 240.734375,52.2670898 C241.158203,52.9633789 241.380208,53.6748047 241.400391,54.4013672 C241.420573,55.1279297 241.471029,55.5315755 241.551758,55.6123047 C241.632487,55.6930339 241.723307,55.7333984 241.824219,55.7333984 Z M281.891113,9.15771484 C282.56722,9.1476237 283.117188,8.80452474 283.541016,8.12841797 C283.964844,7.4523112 284.19694,6.75097656 284.237305,6.02441406 C284.338216,3.42089844 283.44515,1.8264974 281.558105,1.24121094 C279.671061,0.655924479 278.636719,0.36328125 278.455078,0.36328125 C277.970703,0.403645833 277.728516,0.504557292 277.728516,0.666015625 C277.728516,0.827473958 277.809245,1.00911458 277.970703,1.2109375 C278.394531,1.77604167 278.687174,2.18473307 278.848633,2.43701172 C279.010091,2.68929036 279.161458,3.04752604 279.302734,3.51171875 C279.44401,3.97591146 279.544922,4.60660807 279.605469,5.40380859 C279.666016,6.20100911 279.736654,6.79638672 279.817383,7.18994141 C279.898112,7.58349609 280.049479,7.94173177 280.271484,8.26464844 C280.67513,8.87011719 281.215007,9.16780599 281.891113,9.15771484 Z M290.912598,17.3466797 C290.983236,17.4475911 291.190104,17.2760417 291.533203,16.8320312 L291.533203,16.8320312 L292.290039,15.8632812 C293.056966,14.8945312 293.788574,14.2739258 294.484863,14.0014648 C295.181152,13.7290039 295.887533,13.5372721 296.604004,13.4262695 C297.320475,13.3152669 297.80485,13.2395833 298.057129,13.1992188 C298.309408,13.1588542 298.455729,13.0024414 298.496094,12.7299805 C298.536458,12.4575195 298.354818,12.0589193 297.951172,11.5341797 L297.951172,11.5341797 L295.166016,8.20410156 C294.459635,7.3766276 294.040853,6.95784505 293.909668,6.94775391 C293.778483,6.93766276 293.511068,7.28580729 293.107422,7.9921875 L293.107422,7.9921875 L292.320312,9.35449219 L270.19043,9.35449219 C270.049154,8.78938802 269.933105,8.25960286 269.842285,7.76513672 C269.751465,7.27067057 269.675781,6.90234375 269.615234,6.66015625 C269.453776,6.23632812 269.307454,6.03955078 269.17627,6.06982422 C269.045085,6.10009766 268.939128,6.25651042 268.858398,6.5390625 L268.858398,6.5390625 L268.495117,7.9921875 C268.25293,8.9609375 267.72819,9.77832031 266.920898,10.4443359 L266.920898,10.4443359 L265.619141,11.4736328 C264.973307,12.1396484 264.640299,12.9772135 264.620117,13.9863281 C264.599935,15.0559896 264.852214,15.8481445 265.376953,16.362793 C265.901693,16.8774414 266.436523,17.1347656 266.981445,17.1347656 C267.72819,17.1549479 268.439616,16.7361654 269.115723,15.878418 C269.791829,15.0206706 270.14502,14.2184245 270.175293,13.4716797 C270.205566,12.7249349 270.215658,12.2254232 270.205566,11.9731445 C270.195475,11.7208659 270.200521,11.3929036 270.220703,10.9892578 L270.220703,10.9892578 L292.411133,10.9892578 L290.897461,16.2265625 C290.816732,16.5091146 290.781413,16.7412109 290.791504,16.9228516 C290.801595,17.1044922 290.84196,17.2457682 290.912598,17.3466797 Z M281.603516,56.7626953 C282.875,56.7828776 283.606608,56.565918 283.79834,56.1118164 C283.990072,55.6577148 284.116211,55.2994792 284.176758,55.0371094 L284.176758,55.0371094 L284.025391,48.8916016 L284.025391,39.1435547 L284.297852,39.1435547 C284.842773,40.9599609 285.251465,42.2516276 285.523926,43.0185547 C285.796387,43.7854818 286.184896,44.5927734 286.689453,45.4404297 C287.19401,46.2880859 288.24349,47.6352539 289.837891,49.4819336 C291.432292,51.3286133 292.971191,52.6404622 294.45459,53.4174805 C295.937988,54.1944987 296.750326,54.5729167 296.891602,54.5527344 C297.012695,54.5527344 297.123698,54.4770508 297.224609,54.3256836 C297.325521,54.1743164 297.54248,53.7706706 297.875488,53.1147461 C298.208496,52.4588216 298.501139,51.9643555 298.753418,51.6313477 C299.005697,51.2983398 299.303385,51.0208333 299.646484,50.7988281 L299.646484,50.7988281 L300.827148,50.0117188 C301.109701,49.8300781 301.245931,49.6383464 301.23584,49.4365234 C301.225749,49.2347005 301.049154,49.1035156 300.706055,49.0429688 L300.706055,49.0429688 L299.495117,48.8916016 C299.051107,48.851237 298.02181,48.5989583 296.407227,48.1347656 C294.792643,47.6705729 292.91569,46.7573242 290.776367,45.3950195 C288.637044,44.0327148 287.284831,42.8570964 286.719727,41.8681641 C286.154622,40.8792318 285.650065,39.9710286 285.206055,39.1435547 L285.206055,39.1435547 L300.282227,39.1435547 C300.383138,39.1435547 300.468913,39.093099 300.539551,38.9921875 C300.610189,38.891276 300.640462,38.7954102 300.630371,38.7045898 C300.62028,38.6137695 300.579915,38.4977214 300.509277,38.3564453 C300.438639,38.2151693 300.272135,37.9830729 300.009766,37.6601562 L300.009766,37.6601562 L297.618164,35.0263672 C297.153971,34.5419922 296.866374,34.3048503 296.755371,34.3149414 C296.644368,34.3250326 296.467773,34.5621745 296.225586,35.0263672 L296.225586,35.0263672 L294.802734,37.5087891 L284.025391,37.5087891 L284.025391,35.1474609 L284.8125,34.1181641 C284.893229,34.0172526 284.999186,33.8507487 285.130371,33.6186523 C285.261556,33.386556 285.332194,33.2452799 285.342285,33.1948242 C285.352376,33.1443685 285.306966,33.0686849 285.206055,32.9677734 C285.105143,32.866862 284.852865,32.7457682 284.449219,32.6044922 L284.449219,32.6044922 L280.816406,31.4238281 L283.329102,29.6679688 C285.105143,30.5559896 286.371582,31.2623698 287.128418,31.7871094 C287.885254,32.311849 288.6875,32.9677734 289.535156,33.7548828 L289.535156,33.7548828 L291.412109,35.5712891 C292.845052,36.9638672 293.894531,36.8629557 294.560547,35.2685547 C294.742188,34.8447266 294.833008,34.355306 294.833008,33.800293 C294.833008,33.2452799 294.605957,32.559082 294.151855,31.7416992 C293.697754,30.9243164 292.855143,30.1523438 291.624023,29.4257812 C290.392904,28.6992188 288.505859,27.952474 285.962891,27.1855469 C287.294922,25.5911458 288.626953,23.8958333 289.958984,22.0996094 L289.958984,22.0996094 L290.53418,21.9482422 C290.958008,21.8473307 291.164876,21.7161458 291.154785,21.5546875 C291.144694,21.3932292 291.109375,21.2620443 291.048828,21.1611328 C290.988281,21.0602214 290.897461,20.9492188 290.776367,20.828125 L290.776367,20.828125 L290.080078,20.2529297 L297.164062,20.2529297 L297.164062,20.2226562 L299.797852,20.2226562 C300.342773,20.2226562 300.544596,20.0712891 300.40332,19.7685547 C300.262044,19.4658203 300.060221,19.1630859 299.797852,18.8603516 L299.797852,18.8603516 L297.860352,16.5898438 C297.254883,15.8834635 296.891602,15.5252279 296.770508,15.5151367 C296.649414,15.5050456 296.366862,15.8632812 295.922852,16.5898438 L295.922852,16.5898438 L294.681641,18.6181641 L278.666992,18.6181641 L280.543945,15.2578125 L281.633789,14.6826172 C281.81543,14.5817057 281.966797,14.4505208 282.087891,14.2890625 C282.208984,14.1276042 282.269531,14.011556 282.269531,13.940918 C282.269531,13.8702799 282.234212,13.7744141 282.163574,13.6533203 C282.092936,13.5322266 281.886068,13.3707682 281.542969,13.1689453 L281.542969,13.1689453 L278.394531,11.4130859 C277.950521,11.1910807 277.708333,11.0750326 277.667969,11.0649414 C277.627604,11.0548503 277.567057,11.1708984 277.486328,11.4130859 L277.486328,11.4130859 L276.517578,14.0771484 C276.09375,15.2275391 275.397461,16.7412109 274.428711,18.6181641 L274.428711,18.6181641 L263.227539,18.6181641 C262.783529,18.6181641 262.586751,18.890625 262.637207,19.4355469 C262.687663,19.9804688 262.88444,20.2529297 263.227539,20.2529297 L263.227539,20.2529297 L273.671875,20.2529297 L272.703125,21.9482422 L270.856445,24.8544922 C270.755534,25.0764974 270.710124,25.3590495 270.720215,25.7021484 C270.730306,26.0452474 270.972493,26.2521159 271.446777,26.3227539 C271.921061,26.3933919 272.339844,26.4388021 272.703125,26.4589844 C273.066406,26.4791667 273.490234,26.499349 273.974609,26.5195312 C276.679036,27.2460938 278.535807,27.8212891 279.544922,28.2451172 C277.183594,30.2229818 274.842448,31.6660156 272.521484,32.5742188 C270.200521,33.4824219 268.616211,34.0374349 267.768555,34.2392578 L267.768555,34.2392578 L266.012695,34.6933594 L264.771484,34.9658203 C264.549479,35.1070964 264.438477,35.2685547 264.438477,35.4501953 C264.418294,35.7529297 264.660482,35.914388 265.165039,35.9345703 L265.165039,35.9345703 L265.740234,35.8740234 L267.375,35.7226562 C268.141927,35.6621094 269.307454,35.465332 270.871582,35.1323242 C272.43571,34.7993164 273.964518,34.3956706 275.458008,33.9213867 C276.951497,33.4471029 278.586263,32.6953125 280.362305,31.6660156 L280.362305,31.6660156 L280.362305,31.9384766 L280.543945,35.3291016 L280.543945,37.5087891 L263.711914,37.5087891 C263.267904,37.5087891 263.071126,37.78125 263.121582,38.3261719 C263.172038,38.8710938 263.368815,39.1435547 263.711914,39.1435547 L263.711914,39.1435547 L278.273438,39.1435547 C277.445964,40.5159505 276.018066,42.4736328 273.989746,45.0166016 C271.961426,47.5595703 269.040039,50.2034505 265.225586,52.9482422 L265.225586,52.9482422 L263.863281,53.9472656 L263.045898,54.4316406 C262.88444,54.5527344 262.79362,54.6536458 262.773438,54.734375 C262.753255,54.8151042 262.743164,54.9160156 262.743164,55.0371094 C262.722982,55.0976562 262.722982,55.1682943 262.743164,55.2490234 C262.763346,55.3297526 262.874349,55.360026 263.076172,55.3398438 C263.23763,55.3398438 263.5,55.2591146 263.863281,55.0976562 L263.863281,55.0976562 L265.498047,54.3710938 C267.011719,53.7050781 269.090495,52.4991862 271.734375,50.753418 C274.378255,49.0076497 277.314779,46.4899089 280.543945,43.2001953 L280.543945,43.2001953 L280.543945,49.5878906 L280.362305,55.7636719 C280.503581,56.1673177 280.654948,56.4347331 280.816406,56.565918 C280.977865,56.6971029 281.240234,56.7626953 281.603516,56.7626953 Z M281.694336,26.15625 C281.270508,26.1158854 278.888997,25.8333333 274.549805,25.3085938 L274.549805,25.3085938 L277.728516,20.2529297 L286.023438,20.2529297 C284.953776,22.3317057 283.510742,24.2994792 281.694336,26.15625 Z" id="限时购车新方案"></path>
            </g>
        </g>
    </g>
</svg>