<svg width="227" height="114" viewBox="0 0 227 114" fill="none" xmlns="http://www.w3.org/2000/svg">
<path d="M13.3203 33.2949L13.1084 33.8398V60.3594C13.1084 61.0658 12.8561 61.7015 12.3516 62.2666C11.847 62.8317 11.181 63.2858 10.3535 63.6289C9.54622 63.9922 9.01139 64.1536 8.74902 64.1133C8.62793 64.1133 8.55729 64.083 8.53711 64.0225C8.51693 63.9821 8.50684 63.9316 8.50684 63.8711C8.50684 63.8307 8.49674 63.3363 8.47656 62.3877C8.45638 61.4391 7.861 60.652 6.69043 60.0264L5.50977 59.4209C5.42904 59.3805 5.3584 59.3099 5.29785 59.209C5.2373 59.1081 5.19694 59.0173 5.17676 58.9365C5.17676 58.8558 5.21712 58.765 5.29785 58.6641C5.37858 58.5833 5.47949 58.543 5.60059 58.543L7.14453 58.7246C8.05273 58.8457 8.56738 58.8962 8.68848 58.876C9.37467 58.8558 9.71777 58.543 9.71777 57.9375V33.2949H2.66406C2.24023 33.2949 2.0485 33.0729 2.08887 32.6289V32.2656C2.10905 32.0436 2.13932 31.9225 2.17969 31.9023L2.3916 31.751L2.66406 31.6602H15.6816L16.5596 30.0557C16.7816 29.652 16.9531 29.4502 17.0742 29.4502C17.2155 29.43 17.4678 29.6318 17.8311 30.0557L20.041 32.6289C20.4043 33.0931 20.5859 33.5068 20.5859 33.8701C20.5658 34.1123 20.4749 34.304 20.3135 34.4453C20.152 34.5664 19.8594 34.6774 19.4355 34.7783C19.0117 34.859 18.6585 35.0104 18.376 35.2324C18.0934 35.4342 17.7402 35.8682 17.3164 36.5342C16.9128 37.2002 16.6201 37.735 16.4385 38.1387L15.4395 40.1973C15.2982 40.4596 15.1468 40.5605 14.9854 40.5C14.9046 40.4798 14.8542 40.4294 14.834 40.3486C14.8138 40.2679 14.8037 40.1468 14.8037 39.9854C14.8037 39.8239 14.8037 39.723 14.8037 39.6826L15.833 33.2949H13.3203ZM34.7236 27.9668H24.1885V51.6709C24.1885 51.8929 24.1178 52.1351 23.9766 52.3975C23.8353 52.6598 23.4922 52.9222 22.9473 53.1846C22.4225 53.4268 22.0189 53.5277 21.7363 53.4873C21.3327 53.4469 21.0703 53.3258 20.9492 53.124C20.8483 52.902 20.7777 52.6296 20.7373 52.3066L20.9492 44.9199V31.0547L20.6465 24.1826C20.7474 24.1019 20.8382 24.0817 20.9189 24.1221L21.8574 24.8789L24.1279 26.332H26.5801C26.6608 25.3229 26.7617 24.1523 26.8828 22.8203C27.0241 21.4883 27.1855 19.6416 27.3672 17.2803H20.4346L20.1016 17.0684C19.9603 16.8867 19.8695 16.6042 19.8291 16.2207C19.8089 15.8171 20.0107 15.6152 20.4346 15.6152H35.0566L36.54 12.8906C36.7822 12.4668 36.9437 12.2246 37.0244 12.1641C37.1253 12.0833 37.3978 12.2751 37.8418 12.7393L40.5059 15.7363C40.748 16.0189 40.8994 16.2409 40.96 16.4023C41.0407 16.5436 41.0811 16.7253 41.0811 16.9473C41.0811 17.1693 40.8187 17.2803 40.2939 17.2803H32.0596L30.9395 18.7031C30.4551 20.3783 30.0817 21.6195 29.8193 22.4268L28.7598 25.7266L28.5781 26.332H34.5723L35.4199 24.5459C35.6217 24.1624 35.763 23.9707 35.8438 23.9707C35.9245 23.9505 36.1364 24.0817 36.4795 24.3643L39.2344 26.8467C39.4766 27.0687 39.5977 27.2705 39.5977 27.4521C39.5977 27.6136 39.4766 27.8255 39.2344 28.0879L38.2959 29.208V45.041L38.4775 49.7637C38.3968 50.1875 38.2253 50.6214 37.9629 51.0654C37.7207 51.5094 37.196 51.7415 36.3887 51.7617C35.6016 51.7819 35.1273 51.6608 34.9658 51.3984C34.8044 51.1361 34.7236 50.904 34.7236 50.7021V27.9668ZM13.8652 17.6738H3.57227C3.24935 17.6738 3.04753 17.4014 2.9668 16.8564C2.90625 16.2913 3.10807 16.0088 3.57227 16.0088H13.9561L14.8037 14.4346C15.0257 14.0309 15.1872 13.8291 15.2881 13.8291C15.389 13.8089 15.6009 13.9704 15.9238 14.3135L19.0723 17.6738C19.2943 17.9362 19.4053 18.2188 19.4053 18.5215C19.4053 18.8848 19.2236 19.137 18.8604 19.2783L17.8311 19.5508C17.387 19.7122 16.7412 20.2168 15.8936 21.0645C15.0661 21.8919 13.835 23.2038 12.2002 25C12.4827 25.4036 12.7653 25.8678 13.0479 26.3926C13.3304 26.8971 13.4717 27.5632 13.4717 28.3906C13.4717 29.1172 13.29 29.8135 12.9268 30.4795C12.5635 31.1253 12.0589 31.4482 11.4131 31.4482C10.7874 31.4684 10.3434 31.196 10.0811 30.6309C9.83887 30.0658 9.64714 29.3796 9.50586 28.5723C9.36458 27.765 9.22331 27.0889 9.08203 26.5439C8.96094 25.999 8.79948 25.555 8.59766 25.2119C8.39583 24.8688 8.11328 24.4551 7.75 23.9707L6.93262 22.9111C6.85189 22.8506 6.81152 22.7295 6.81152 22.5479C6.83171 22.3662 6.9528 22.2754 7.1748 22.2754C7.2959 22.2956 7.73991 22.4469 8.50684 22.7295C9.27376 23.012 10.2223 23.5469 11.3525 24.334C12.7048 20.8626 13.5423 18.6426 13.8652 17.6738ZM30.9697 34.7178C30.9294 36.6755 30.8991 38.1992 30.8789 39.2891C30.8789 40.3789 30.8688 41.4385 30.8486 42.4678C30.8285 43.4971 30.7881 44.8392 30.7275 46.4941C30.6872 48.1289 30.6367 49.2087 30.5762 49.7334L30.2734 52.458C33.8659 53.5479 36.3584 54.668 37.751 55.8184C39.1637 56.9688 40.0114 58.0283 40.2939 58.9971C40.5765 59.9658 40.7178 60.7025 40.7178 61.207C40.6976 61.752 40.5361 62.4079 40.2334 63.1748C39.9508 63.9417 39.4564 64.3151 38.75 64.2949C38.3464 64.2949 37.9932 64.1234 37.6904 63.7803C37.4079 63.4574 37.1455 63.0133 36.9033 62.4482L36.2676 60.7832C35.4603 58.8053 34.6732 57.4027 33.9062 56.5752C33.1595 55.7679 31.8981 54.7184 30.1221 53.4268C29.9001 54.0928 29.6175 54.8092 29.2744 55.5762C28.9515 56.3229 28.0332 57.5339 26.5195 59.209C25.026 60.8841 22.584 62.418 19.1934 63.8105L17.7402 64.416C17.5788 64.4766 17.4678 64.5068 17.4072 64.5068C17.3669 64.527 17.3063 64.5169 17.2256 64.4766C17.165 64.4362 17.1348 64.3353 17.1348 64.1738C17.1348 64.0124 17.2962 63.8307 17.6191 63.6289L19.1934 62.6299C21.3327 61.2979 23.0078 59.764 24.2188 58.0283C25.4297 56.2926 26.237 54.7487 26.6406 53.3965C27.0443 52.0241 27.2865 50.6618 27.3672 49.3096C27.4681 47.9372 27.5286 46.4336 27.5488 44.7988C27.5892 43.1641 27.6094 41.8724 27.6094 40.9238L27.5791 36.6855V33.8398L27.458 31.8721C27.4984 31.6904 27.569 31.5895 27.6699 31.5693L27.9424 31.6602L31.4238 32.5986C31.6458 32.6794 31.7972 32.7601 31.8779 32.8408C31.9788 32.9014 32.0192 33.0326 31.999 33.2344C31.999 33.416 31.8981 33.6178 31.6963 33.8398L30.9697 34.7178ZM78.5898 25.5146H66.3291C65.6227 27.5127 64.7852 29.5814 63.8164 31.7207C62.8678 33.86 62.2321 35.2324 61.9092 35.8379L61.001 37.5332C60.9202 37.6947 60.8193 37.7754 60.6982 37.7754C60.557 37.7956 60.4762 37.7552 60.4561 37.6543C60.4359 37.5332 60.4258 37.4323 60.4258 37.3516C60.446 37.2708 60.4661 37.1901 60.4863 37.1094L61.0918 35.293C61.4753 34.1022 61.778 33.0931 62 32.2656L63.0293 27.7549L63.877 24.3037C63.9577 23.8799 64.2402 22.2754 64.7246 19.4902C65.209 16.7051 65.4613 15.2116 65.4814 15.0098L65.9355 11.8916L66.0566 10.5898C66.097 10.5293 66.1475 10.4889 66.208 10.4688L66.7227 10.7715L71.0518 13.1328C71.3141 13.2943 71.4655 13.4154 71.5059 13.4961C71.5462 13.5768 71.5563 13.6475 71.5361 13.708C71.5361 13.7484 71.4958 13.8392 71.415 13.9805C71.3545 14.1217 71.2637 14.2327 71.1426 14.3135L69.9619 15.0098L66.9648 23.8496H78.4688L79.5889 21.791C79.7503 21.5085 79.8613 21.3571 79.9219 21.3369C79.9824 21.2965 80.0732 21.3268 80.1943 21.4277L83.6152 24.4551C83.7969 24.6367 83.918 24.7679 83.9785 24.8486C84.0391 24.9294 84.0592 25.0101 84.0391 25.0908C84.0391 25.1715 83.8978 25.3532 83.6152 25.6357L82.4951 26.7559C82.4144 29.8438 82.3236 33.3252 82.2227 37.2002C82.1217 41.0752 81.9704 44.3447 81.7686 47.0088C81.5869 49.6729 81.3649 52.2057 81.1025 54.6074C80.8604 57.0091 80.2751 59.098 79.3467 60.874C78.4385 62.6702 76.7432 63.8812 74.2607 64.5068L73.292 64.749C73.0296 64.8298 72.8783 64.8096 72.8379 64.6885L72.7471 64.2949L72.3838 62.9932C71.9801 61.6006 71.2738 60.6117 70.2646 60.0264L68.5693 59.0879C68.3675 58.987 68.2767 58.8255 68.2969 58.6035C68.2969 58.5632 68.3171 58.4723 68.3574 58.3311C68.3978 58.1898 68.5592 58.1393 68.8418 58.1797L70.9307 58.543C73.4736 59.0072 75.0983 58.7246 75.8047 57.6953C76.5111 56.6862 77.0156 55.4147 77.3184 53.8809C77.6211 52.347 77.8936 49.6224 78.1357 45.707C78.3981 41.7917 78.5495 37.6846 78.5898 33.3857L78.6201 29.9346C78.6201 27.9769 78.6201 26.7357 78.6201 26.2109L78.5898 25.5146ZM69.7197 47.7354C69.1143 47.8766 68.6198 47.584 68.2363 46.8574C67.873 46.1309 67.7015 44.9906 67.7217 43.4365C67.762 41.8623 67.6914 40.5303 67.5098 39.4404C67.2878 38.3506 67.0254 37.4727 66.7227 36.8066C66.4401 36.1204 66.1979 35.6361 65.9961 35.3535C65.7943 35.0508 65.6934 34.8086 65.6934 34.627C65.6934 34.4251 65.7741 34.3141 65.9355 34.2939C66.1172 34.2536 66.2887 34.2939 66.4502 34.415C70.6683 38.0277 72.5755 41.0853 72.1719 43.5879C71.7884 46.0703 70.971 47.4528 69.7197 47.7354ZM49.0732 30.0254L55.1885 30.6611C56.0967 28.4411 56.7021 26.8669 57.0049 25.9385L58.0645 22.79L58.2158 22.1846C58.3167 22.0635 58.5488 22.1442 58.9121 22.4268L62.3936 25.333C62.6963 25.5954 62.8073 25.8073 62.7266 25.9688C62.6458 26.1302 62.5348 26.2513 62.3936 26.332L61.1221 26.998C57.9131 32.7904 54.6536 38.5625 51.3438 44.3145C52.8171 44.1126 54.4821 43.9007 56.3389 43.6787C58.1956 43.4567 59.4167 43.2852 60.002 43.1641L61.667 42.8613C61.889 42.821 62.0101 42.932 62.0303 43.1943C62.0505 43.4567 61.9495 43.6283 61.7275 43.709L60.335 44.3145C56.8434 45.8483 53.8766 47.3014 51.4346 48.6738L49.1943 49.915L48.5283 50.3389C48.4476 50.2985 48.377 50.1572 48.3164 49.915L47.1963 45.5859L47.0146 44.8594C47.0146 44.7988 47.0348 44.7484 47.0752 44.708L47.4082 44.5869L48.0742 44.3145C48.4375 44.1732 48.9622 43.5072 49.6484 42.3164C50.3346 41.1055 51.374 38.9964 52.7666 35.9893L54.7041 31.7812C52.6253 32.2858 50.9805 32.7702 49.7695 33.2344L47.7412 34.0518L47.1055 34.3545C47.0651 34.3545 47.0449 34.3545 47.0449 34.3545C47.0449 34.3343 46.9642 34.0114 46.8027 33.3857L45.9248 29.9043C45.8643 29.6621 45.834 29.5208 45.834 29.4805C45.834 29.4199 45.8441 29.3796 45.8643 29.3594L46.0762 29.2383L46.8027 28.4512C47.6302 27.543 48.6191 25.4945 49.7695 22.3057C50.9199 19.0967 51.7575 16.4528 52.2822 14.374L52.8877 11.8916L53.0693 11.1348C53.1501 11.0742 53.3115 11.1146 53.5537 11.2559L57.2773 13.7988C57.3783 13.8796 57.459 13.9805 57.5195 14.1016C57.6003 14.2227 57.6406 14.3639 57.6406 14.5254C57.6608 14.6868 57.5094 14.8483 57.1865 15.0098L56.1572 15.5547L49.0732 30.0254ZM49.1641 56.7266C54.5124 54.9909 58.2865 53.7093 60.4863 52.8818L62.0908 52.2764C62.2321 52.236 62.3734 52.2562 62.5146 52.3369C62.6559 52.3975 62.6862 52.5286 62.6055 52.7305C62.5449 52.9323 62.4743 53.0635 62.3936 53.124L60.9404 54.1533L55.8242 57.9375C53.4427 59.7135 51.9492 60.8438 51.3438 61.3281L49.4668 62.8721C49.1237 63.1546 48.932 63.2858 48.8916 63.2656C48.8512 63.2454 48.8008 63.1143 48.7402 62.8721L47.3779 58.4219L47.0449 57.4229C47.0651 57.3623 47.0954 57.3118 47.1357 57.2715L47.4688 57.2109L49.1641 56.7266ZM94.998 58.6943V61.752C94.998 62.1354 94.7861 62.4886 94.3623 62.8115C93.9385 63.1344 93.444 63.2858 92.8789 63.2656C92.3945 63.2656 92.0918 63.1748 91.9707 62.9932C91.8496 62.8115 91.7689 62.5895 91.7285 62.3271L91.8799 56.7568V44.0723L91.6982 38.9863C91.779 38.8249 91.8597 38.734 91.9404 38.7139L92.3643 38.9863L95.2705 40.5908H96.542H101.355L102.173 39.2588C102.576 38.5928 102.839 38.2699 102.96 38.29C103.081 38.29 103.384 38.5221 103.868 38.9863L105.654 40.7422C105.896 41.0046 106.068 41.2266 106.169 41.4082C106.29 41.5898 106.34 41.7614 106.32 41.9229C106.3 42.0843 106.149 42.3467 105.866 42.71L104.988 43.7695V54.7588L105.14 60.4805C105.039 60.7832 104.908 61.0355 104.746 61.2373C104.585 61.4593 104.201 61.641 103.596 61.7822C102.99 61.9235 102.587 61.984 102.385 61.9639C101.9 61.9639 101.658 61.6712 101.658 61.0859V58.6943H94.998ZM101.658 57.0596V42.2861H94.998V57.0596H101.658ZM114.312 31.2363H101.537V34.0518C101.537 34.3949 101.406 34.6673 101.144 34.8691C100.901 35.071 100.558 35.2425 100.114 35.3838C99.6702 35.5049 99.2767 35.5452 98.9336 35.5049C98.6107 35.4847 98.3887 35.404 98.2676 35.2627C98.1465 35.1012 98.0658 34.8691 98.0254 34.5664L98.1768 28.1787V17.7344L98.0254 12.3154C98.1061 12.1742 98.1667 12.1035 98.207 12.1035C98.2676 12.0833 98.4694 12.1943 98.8125 12.4365L101.537 14.4346H114.01L114.979 12.7393C115.241 12.2549 115.443 12.0228 115.584 12.043C115.745 12.043 116.129 12.3255 116.734 12.8906L118.248 14.3135C118.652 14.7171 118.924 15.0199 119.065 15.2217C119.207 15.4033 119.267 15.585 119.247 15.7666C119.247 15.9281 119.096 16.2005 118.793 16.584L117.885 17.7344V27.3008L118.006 32.9316C117.743 33.5371 117.299 33.9508 116.674 34.1729C116.068 34.3747 115.574 34.4655 115.19 34.4453C114.605 34.4251 114.312 34.0921 114.312 33.4463V31.2363ZM114.312 29.5713V16.1602H101.537V29.5713H114.312ZM120.64 58.6943H113.071V61.1465C113.071 61.4492 112.89 61.7923 112.526 62.1758C112.183 62.5794 111.548 62.7712 110.619 62.751C110.236 62.751 109.993 62.6702 109.893 62.5088C109.792 62.3675 109.721 62.1455 109.681 61.8428L109.802 55.2734V43.6182L109.681 38.4111C109.741 38.2295 109.782 38.1286 109.802 38.1084C109.842 38.0882 110.034 38.1992 110.377 38.4414L113.223 40.5908H120.337L121.245 38.9863C121.548 38.4212 121.78 38.1488 121.941 38.1689C122.103 38.1689 122.466 38.4414 123.031 38.9863L124.666 40.5908C124.989 40.9137 125.191 41.166 125.271 41.3477C125.372 41.5091 125.423 41.6605 125.423 41.8018C125.443 41.943 125.302 42.2054 124.999 42.5889L124.212 43.6182V54.8193L124.333 60.2686C124.212 60.5915 124.02 60.9144 123.758 61.2373C123.495 61.5602 122.799 61.7015 121.669 61.6611C120.983 61.6611 120.64 61.3887 120.64 60.8438V58.6943ZM120.64 57.0596V42.1953H113.071V57.0596H120.64ZM152.548 61.6611H155.545C156.736 58.21 157.482 55.9495 157.785 54.8799L158.209 53.2754C158.249 53.0938 158.28 52.9928 158.3 52.9727C158.32 52.9525 158.441 53.013 158.663 53.1543L162.023 55.5459C162.225 55.7074 162.326 55.8587 162.326 56C162.346 56.1413 162.266 56.2523 162.084 56.333L161.055 56.8477L157.301 61.6611H163.719L165.596 58.5127C165.737 58.2705 165.838 58.1393 165.898 58.1191C165.959 58.099 166.07 58.1999 166.231 58.4219L169.198 62.5996C169.299 62.7812 169.35 62.9124 169.35 62.9932C169.35 63.2152 169.239 63.3262 169.017 63.3262H167.019H134.202C134.021 63.2656 133.879 63.1849 133.778 63.084C133.698 62.9831 133.657 62.7207 133.657 62.2969C133.657 61.873 133.839 61.6611 134.202 61.6611H143.647C143.264 61.5602 142.971 61.3584 142.77 61.0557C142.568 60.7529 142.416 60.2786 142.315 59.6328L142.043 57.4531C141.801 56.2624 141.438 55.445 140.953 55.001C140.489 54.557 140.267 54.234 140.287 54.0322C140.287 53.7497 140.388 53.5882 140.59 53.5479C140.671 53.5479 140.782 53.5781 140.923 53.6387C141.084 53.679 141.609 53.8001 142.497 54.002C143.385 54.2038 144.192 54.7588 144.919 55.667C145.666 56.5752 146.019 57.665 145.979 58.9365C145.938 60.3493 145.424 61.2575 144.435 61.6611H149.097L149.066 52.2158H137.653H137.562L137.29 52.0039C137.189 51.7819 137.139 51.4893 137.139 51.126C137.139 50.7627 137.31 50.5811 137.653 50.5811H149.097L149.066 45.1621H143.103C142.739 45.1621 142.548 44.8896 142.527 44.3447C142.507 43.7796 142.699 43.4971 143.103 43.4971H154.031L155.454 41.0752C155.575 40.8734 155.656 40.7725 155.696 40.7725C155.757 40.7523 155.878 40.8532 156.06 41.0752L158.542 44.4658C158.663 44.6475 158.703 44.7988 158.663 44.9199C158.643 45.041 158.542 45.1016 158.36 45.1016H154.939V45.1621H153.365C153.264 45.485 153.153 45.7171 153.032 45.8584C152.931 45.9795 152.77 46.0905 152.548 46.1914V50.5811H160.298L161.721 48.25C161.902 47.9473 162.023 47.7959 162.084 47.7959C162.145 47.7757 162.276 47.8867 162.478 48.1289L165.172 51.5195C165.293 51.7012 165.354 51.8424 165.354 51.9434C165.333 52.125 165.162 52.2158 164.839 52.2158H161.206H152.548V61.6611ZM155.575 19.0967H164.597L166.171 16.3721C166.312 16.1097 166.423 15.9886 166.504 16.0088C166.585 16.029 166.706 16.1299 166.867 16.3115L169.773 20.0049C169.854 20.1462 169.895 20.2975 169.895 20.459C169.915 20.6204 169.804 20.7012 169.562 20.7012H164.809V20.7314H154.637C154.173 21.4782 153.557 22.4671 152.79 23.6982C152.043 24.9092 151.357 25.999 150.731 26.9678L149.823 28.3301C149.743 28.4512 149.642 28.5218 149.521 28.542C149.42 28.542 149.349 28.5218 149.309 28.4814C149.288 28.4209 149.268 28.3402 149.248 28.2393C149.248 28.1182 149.278 27.9971 149.339 27.876L149.944 26.332C151.095 23.4056 151.942 21.0039 152.487 19.127C153.052 17.25 153.618 15.151 154.183 12.8301L154.546 11.3467L154.637 10.9229C154.697 10.8623 154.849 10.9027 155.091 11.0439L159.117 13.5869C159.339 13.7282 159.45 13.8695 159.45 14.0107C159.43 14.1924 159.319 14.3135 159.117 14.374L158.088 14.7373L155.575 19.0967ZM153.093 33.6279C155.595 36.8571 158.34 39.1377 161.327 40.4697C164.334 41.7816 166.938 42.4375 169.138 42.4375H170.803C171.045 42.4375 171.166 42.5485 171.166 42.7705C171.166 42.9723 171.085 43.1237 170.924 43.2246L169.652 44.1631C169.107 44.5667 168.512 45.6667 167.866 47.4629L167.503 48.3711C167.402 48.6335 167.331 48.7747 167.291 48.7949C167.251 48.8151 167.089 48.7546 166.807 48.6133L165.596 48.0078C163.335 46.918 161.105 45.3236 158.905 43.2246C156.726 41.1257 155.071 38.9661 153.94 36.7461L152.457 33.9912C150.56 35.9691 149.076 37.4626 148.007 38.4717C146.937 39.4606 145.07 41.0651 142.406 43.2852C139.742 45.5052 137.28 47.1803 135.02 48.3105L133.415 49.1279C133.213 49.2288 133.102 49.2188 133.082 49.0977C133.082 48.9766 133.082 48.8857 133.082 48.8252C133.102 48.6234 133.173 48.472 133.294 48.3711L134.898 47.2812C135.443 46.918 136.886 45.6364 139.228 43.4365C141.569 41.2165 143.637 38.7946 145.434 36.1709C147.25 33.527 148.34 31.8721 148.703 31.2061L149.763 29.3594L150.035 28.875C150.055 28.8548 150.065 28.8447 150.065 28.8447C150.065 28.8245 150.176 28.9154 150.398 29.1172L153.85 32.2656C154.112 32.528 154.243 32.7197 154.243 32.8408C154.223 33.0023 154.132 33.1234 153.971 33.2041L153.093 33.6279ZM139.409 16.3721V28.5117L139.5 31.7207C139.298 32.4674 138.884 32.9417 138.259 33.1436C137.633 33.3252 137.139 33.4059 136.775 33.3857C136.372 33.3857 136.13 33.3151 136.049 33.1738C135.968 33.0326 135.918 32.8408 135.897 32.5986L136.019 27.5732V18.0977L135.897 13.3145C135.958 13.2539 135.998 13.2135 136.019 13.1934C136.059 13.1732 136.241 13.2135 136.563 13.3145L140.196 14.5254C140.378 14.6061 140.469 14.7373 140.469 14.9189C140.489 15.0804 140.378 15.2923 140.136 15.5547L139.409 16.3721ZM146.735 13.7988V28.2393L146.856 32.3867C146.776 32.7096 146.655 32.9922 146.493 33.2344C146.332 33.4766 145.968 33.6986 145.403 33.9004C144.838 34.1022 144.313 34.1829 143.829 34.1426C143.607 34.1426 143.456 34.1022 143.375 34.0215C143.294 33.9206 143.234 33.7087 143.193 33.3857L143.314 27.7549V15.6152L143.193 10.7412C143.254 10.5596 143.314 10.4587 143.375 10.4385L143.647 10.5293L147.825 11.8311C148.027 11.9118 148.138 12.043 148.158 12.2246C148.178 12.4062 148.077 12.5879 147.855 12.7695L146.735 13.7988ZM157.422 22.2451C157.462 22.2048 157.513 22.1846 157.573 22.1846C157.634 22.1644 158.017 22.4167 158.724 22.9414C159.43 23.4661 160.076 24.0212 160.661 24.6064C161.267 25.1917 161.812 25.9788 162.296 26.9678C162.8 27.9365 163.002 29.2686 162.901 30.9639C162.821 32.639 162.215 33.4362 161.085 33.3555C159.955 33.2747 159.258 32.7298 158.996 31.7207C158.895 31.418 158.845 30.9538 158.845 30.3281C158.865 29.6823 158.875 29.0566 158.875 28.4512C158.855 27.8861 158.814 27.2402 158.754 26.5137C158.693 25.7669 158.522 25.111 158.239 24.5459C157.957 23.9808 157.735 23.5469 157.573 23.2441C157.412 22.9212 157.311 22.7093 157.271 22.6084C157.25 22.4873 157.301 22.3662 157.422 22.2451Z" fill="white"/>
<path d="M4.446 97.542V98.604H10.368V97.542H4.446ZM4.932 99.756V103.428H9.954V99.756H4.932ZM8.748 102.42H6.156V100.764H8.748V102.42ZM16.452 94.914H15.246C15.066 94.32 14.868 93.78 14.67 93.312L13.518 93.51C13.734 93.942 13.932 94.41 14.112 94.914H12.15C12.114 94.374 12.114 93.816 12.114 93.222H10.872C10.872 93.798 10.872 94.374 10.908 94.914H2.358V98.46C2.304 100.548 1.8 102.168 0.828 103.338L1.8 104.22C2.952 102.762 3.564 100.836 3.618 98.46V96.102H10.962C11.052 97.596 11.232 98.838 11.52 99.846C11.736 100.584 11.988 101.25 12.276 101.826C11.7 102.474 11.052 103.014 10.35 103.428L11.016 104.436C11.664 104.04 12.294 103.536 12.888 102.906C12.96 103.014 13.068 103.14 13.176 103.266C13.842 103.986 14.526 104.364 15.246 104.364C16.002 104.364 16.65 103.41 17.19 101.52L16.146 100.908C15.786 102.402 15.444 103.158 15.12 103.158C14.724 103.158 14.292 102.834 13.824 102.204L13.662 101.952C14.49 100.8 15.174 99.36 15.732 97.596L14.724 97.074C14.292 98.478 13.734 99.684 13.086 100.728C12.906 100.278 12.762 99.774 12.636 99.216C12.42 98.406 12.276 97.362 12.204 96.102H16.452V94.914ZM2.916 104.562C2.484 106.002 1.818 107.316 0.918 108.504L2.016 109.206C2.916 107.964 3.6 106.506 4.104 104.814L2.916 104.562ZM11.358 109.512C12.024 109.512 12.51 109.386 12.834 109.134C13.194 108.81 13.428 107.964 13.536 106.56L12.312 106.146C12.24 107.19 12.096 107.802 11.916 108.018C11.754 108.198 11.484 108.288 11.124 108.288H7.29C6.84 108.288 6.624 108.036 6.624 107.532V104.364H5.31V107.802C5.31 108.936 5.832 109.512 6.894 109.512H11.358ZM14.76 104.94L13.716 105.588C14.76 106.758 15.57 107.838 16.182 108.81L17.208 108.072C16.65 107.172 15.84 106.128 14.76 104.94ZM9 104.058L8.028 104.652C8.856 105.552 9.504 106.38 9.972 107.136L10.944 106.452C10.494 105.768 9.846 104.958 9 104.058ZM33.426 93.438C29.808 93.942 25.254 94.194 19.764 94.194L20.142 95.364C25.92 95.364 30.564 95.076 34.056 94.536L33.426 93.438ZM34.524 98.838H31.104C31.698 98.064 32.274 97.11 32.85 95.958L31.554 95.472C31.05 96.66 30.438 97.794 29.718 98.838H19.476V102.942H20.736V100.062H33.264V102.942H34.524V98.838ZM22.014 95.814L20.88 96.39C21.51 97.092 22.104 97.902 22.662 98.802L23.778 98.244C23.238 97.362 22.644 96.552 22.014 95.814ZM26.298 95.616L25.128 96.174C25.74 96.894 26.298 97.722 26.838 98.658L27.99 98.064C27.45 97.164 26.874 96.354 26.298 95.616ZM21.672 101.826V103.014H22.392C23.094 104.4 24.264 105.624 25.902 106.668C24.048 107.478 21.762 108.126 19.044 108.63L19.728 109.854C22.698 109.242 25.182 108.432 27.198 107.424C29.07 108.396 31.428 109.206 34.272 109.836L35.028 108.684C32.454 108.162 30.276 107.496 28.494 106.686C30.186 105.642 31.428 104.382 32.22 102.942V101.826H21.672ZM23.724 103.014H30.78C29.952 104.166 28.764 105.174 27.18 106.038C25.614 105.174 24.462 104.166 23.724 103.014ZM36.972 96.822V98.064H39.168C38.664 100.314 37.818 102.312 36.648 104.076L37.206 105.462C38.016 104.094 38.682 102.564 39.204 100.89V109.746H40.464V100.566C40.878 101.304 41.364 102.24 41.904 103.392L42.426 102.618V102.852H43.614C43.434 104.31 43.218 105.768 42.966 107.208H50.526C50.49 107.46 50.472 107.64 50.436 107.712C50.274 108.126 50.022 108.396 49.698 108.522C49.374 108.612 48.996 108.666 48.582 108.666C48.114 108.666 47.592 108.63 47.016 108.594L47.394 109.782C47.898 109.782 48.348 109.764 48.744 109.764C49.608 109.764 50.274 109.638 50.706 109.386C51.156 109.098 51.462 108.666 51.642 108.09C51.678 107.946 51.714 107.658 51.768 107.208H53.1V106.092H51.84C51.876 105.264 51.93 104.184 51.984 102.852H53.316V101.646H52.038L52.164 97.398H44.19C44.496 96.948 44.784 96.462 45.072 95.922H52.848V94.716H45.648C45.828 94.32 45.99 93.888 46.152 93.438L44.874 93.168C44.19 95.076 43.308 96.624 42.228 97.848V96.822H40.464V93.294H39.204V96.822H36.972ZM44.838 102.852H50.76C50.706 104.184 50.652 105.264 50.616 106.092H44.388C44.568 105.102 44.712 104.022 44.838 102.852ZM50.796 101.646H44.946C45.018 100.674 45.072 99.63 45.126 98.55H50.904C50.868 99.666 50.832 100.71 50.796 101.646ZM43.722 101.646H42.426V102.06C41.742 101.016 41.094 100.044 40.464 99.18V98.064H42.228V97.992L43.002 98.91C43.326 98.55 43.632 98.172 43.956 97.74C43.92 99.036 43.83 100.332 43.722 101.646ZM47.124 98.91L46.332 99.666C47.232 100.314 47.934 100.926 48.456 101.502L49.266 100.692C48.69 100.098 47.97 99.504 47.124 98.91ZM46.926 103.086L46.134 103.86C46.998 104.544 47.682 105.21 48.186 105.822L48.996 105.012C48.438 104.364 47.754 103.734 46.926 103.086ZM66.672 102.78H59.274C59.796 102.402 60.246 102.006 60.642 101.574H65.304C65.664 101.988 66.114 102.384 66.672 102.78ZM66.636 101.574H70.65V100.53H65.7V99.45H68.04V98.496H65.7V97.416H68.382V96.426H65.7V95.418H69.048V97.236H70.308V94.32H63.756C63.54 93.852 63.306 93.456 63.09 93.096L61.722 93.33C61.956 93.618 62.19 93.96 62.406 94.32H55.692V97.236H56.952V95.418H60.282V96.426H57.618V97.416H60.282V98.496H57.978V99.45H60.282V100.53H55.386V101.574H59.292C58.32 102.33 56.844 102.978 54.9 103.5L55.566 104.58C56.556 104.22 57.438 103.842 58.23 103.428V106.992H59.49V103.824H66.69V106.992H67.95V103.536C68.688 103.896 69.552 104.238 70.524 104.544L71.046 103.446C69.102 102.978 67.626 102.366 66.636 101.574ZM64.44 95.418V96.426H61.56V95.418H64.44ZM61.56 100.53V99.45H64.44V100.53H61.56ZM64.44 98.496H61.56V97.416H64.44V98.496ZM64.17 106.758L63.522 107.694C65.376 108.234 67.194 108.99 68.958 109.926L69.606 108.9C67.968 108.072 66.15 107.352 64.17 106.758ZM62.298 104.4C62.19 105.912 61.776 106.974 61.056 107.604C60.264 108.27 58.662 108.666 56.214 108.792L56.7 109.89C59.508 109.674 61.308 109.152 62.1 108.342C62.82 107.694 63.288 106.416 63.504 104.508L62.298 104.4ZM82.836 93.204C82.8 93.654 82.746 94.104 82.692 94.572H78.318V95.706H82.53C82.458 96.156 82.386 96.606 82.296 97.056H78.75V101.376H88.2V97.056H83.52C83.61 96.624 83.7 96.174 83.79 95.706H88.632V94.572H83.952C83.988 94.194 84.042 93.798 84.078 93.384L82.836 93.204ZM78.354 102.6V103.788H88.578V102.6H78.354ZM87.066 100.296H85.338V98.154H87.066V100.296ZM84.312 100.296H82.638V98.154H84.312V100.296ZM81.612 100.296H79.884V98.154H81.612V100.296ZM76.482 93.204C75.726 94.932 74.484 96.48 72.792 97.812L73.17 99.072C75.222 97.524 76.716 95.742 77.634 93.744L76.482 93.204ZM76.896 97.812C76.068 99.612 74.718 101.232 72.882 102.636L73.26 103.86C73.962 103.338 74.61 102.798 75.204 102.222V109.8H76.464V100.836C77.076 100.044 77.598 99.216 78.012 98.334L76.896 97.812ZM87.696 104.526L86.616 104.886C87.228 105.984 87.804 107.262 88.308 108.72L89.37 108.234C88.902 106.92 88.344 105.678 87.696 104.526ZM78.498 104.94C78.21 106.254 77.76 107.46 77.148 108.558L78.21 109.224C78.84 108.072 79.326 106.722 79.65 105.174L78.498 104.94ZM85.104 109.656C85.662 109.656 86.076 109.548 86.328 109.332C86.616 109.062 86.814 108.324 86.922 107.136L85.788 106.758C85.734 107.604 85.626 108.126 85.482 108.306C85.374 108.432 85.176 108.504 84.888 108.504H82.494C82.026 108.504 81.81 108.27 81.81 107.838V104.832H80.604V108.108C80.604 109.134 81.108 109.656 82.116 109.656H85.104ZM83.754 104.256L82.818 104.85C83.538 105.66 84.114 106.416 84.546 107.1L85.5 106.416C85.086 105.804 84.51 105.084 83.754 104.256ZM106.164 93.528C104.4 94.32 102.438 94.734 100.26 94.806V101.844C100.17 104.796 99.522 107.118 98.298 108.792L99.198 109.746C100.602 107.766 101.358 105.138 101.448 101.844V100.368H103.878V109.728H105.156V100.368H107.046V99.126H101.448V95.868C103.392 95.76 105.174 95.346 106.776 94.662L106.164 93.528ZM92.322 93.384V95.364H91.134V96.534H92.322V104.076H90.99V105.282H99.234V104.076H98.082V96.534H99.27V95.364H98.082V93.42H96.822V95.364H93.582V93.384H92.322ZM93.582 104.076V102.294H96.822V104.076H93.582ZM96.822 96.534V98.334H93.582V96.534H96.822ZM93.582 101.178V99.432H96.822V101.178H93.582ZM96.588 105.822L95.634 106.416C96.282 107.28 96.786 108.09 97.146 108.81L98.136 108.126C97.758 107.46 97.236 106.686 96.588 105.822ZM93.15 105.804C92.484 107.046 91.692 108.108 90.774 108.99L91.836 109.764C92.754 108.792 93.564 107.658 94.248 106.344L93.15 105.804ZM108.9 102.726V103.95H117.99V102.726H108.9ZM123.308 99.846V101.016H127.304V103.23H128.528V101.016H132.704V99.846H128.528V97.686H127.304V99.846H123.308ZM120.5 95.148V96.336H125.432C124.154 97.866 122.3 99.09 119.852 100.026L120.482 101.142C123.362 100.044 125.54 98.442 126.998 96.336H129.086C130.346 98.352 132.488 99.99 135.512 101.232L136.07 100.062C133.514 99.144 131.642 97.902 130.454 96.336H135.422V95.148H127.7C127.952 94.626 128.186 94.068 128.402 93.456L127.088 93.294C126.872 93.942 126.602 94.554 126.26 95.148H120.5ZM119.96 104.292V105.498H123.704C123.596 105.93 123.434 106.344 123.218 106.74C122.678 107.604 121.76 108.306 120.428 108.846L121.094 109.89C122.534 109.314 123.578 108.54 124.208 107.532C124.55 106.956 124.82 106.29 125 105.498H130.562V109.746H131.804V105.498H135.872V104.292H131.804V102.24H130.562V104.292H125.198C125.234 103.95 125.252 103.59 125.252 103.212V102.24H124.01V103.212C124.01 103.572 123.974 103.932 123.938 104.292H119.96ZM153.314 96.318L150.11 97.326V93.366H148.886V97.704L146.996 98.298V94.986H145.79V98.676L144.422 99.108V100.35L145.79 99.936V107.82C145.79 108.954 146.33 109.53 147.428 109.53H152C152.684 109.53 153.17 109.35 153.494 109.008C153.854 108.612 154.088 107.478 154.232 105.606L153.062 105.228C152.99 106.74 152.846 107.64 152.63 107.946C152.45 108.198 152.162 108.342 151.766 108.342H147.806C147.266 108.342 146.996 108.072 146.996 107.55V99.558L148.886 98.982V106.002H150.11V98.604L152.126 97.992C152.126 100.692 152.09 102.258 152.018 102.69C151.946 103.122 151.784 103.356 151.496 103.356C151.298 103.356 151.064 103.338 150.794 103.32L151.154 104.526H151.262C152.324 104.526 152.936 104.112 153.08 103.32C153.224 102.492 153.314 100.17 153.314 96.318ZM142.406 95.31L141.614 101.52H139.508L140.228 96.642L139.022 96.588L138.176 102.708H142.964C142.964 105.426 142.874 107.064 142.694 107.64C142.514 108.18 141.956 108.468 141.056 108.468C140.768 108.468 140.282 108.432 139.58 108.36L139.922 109.512C140.408 109.548 140.876 109.566 141.326 109.566C142.514 109.566 143.288 109.242 143.648 108.63C144.008 108 144.206 105.624 144.206 101.52H142.874L143.72 94.122H137.888V95.31H142.406ZM142.01 104.31C140.696 104.706 139.166 105.012 137.42 105.246L137.582 106.488C139.238 106.236 140.714 105.912 142.01 105.48V104.31ZM162.962 93.312V97.074H158.246V103.716H163.232V105.336H156.086V106.524H163.232V109.818H164.528V106.524H171.656V105.336H164.528V103.716H169.784V97.074H164.204V95.76H170.846V94.626H164.204V93.312H162.962ZM168.524 102.582H159.506V100.926H168.524V102.582ZM159.506 99.846V98.208H168.524V99.846H159.506ZM188.666 107.1C189.278 107.1 189.8 106.182 190.232 104.346L189.242 103.77C188.99 105.102 188.756 105.786 188.54 105.786C188.252 105.786 187.91 105.39 187.55 104.598L187.388 104.184C188.27 102.708 188.954 100.944 189.44 98.856L188.414 98.388C188.036 99.972 187.55 101.358 186.956 102.582C186.83 102.06 186.722 101.484 186.632 100.836C186.47 99.864 186.362 98.64 186.308 97.146H189.836V96.048H186.272C186.236 95.202 186.236 94.284 186.236 93.294H185.012C185.012 94.266 185.012 95.184 185.048 96.048H181.754V104.256C181.754 104.58 181.61 104.814 181.358 104.958L181.664 106.11C182.834 105.534 183.968 104.868 185.084 104.13L184.85 102.996C184.166 103.482 183.518 103.896 182.906 104.256V97.146H185.102C185.174 98.874 185.336 100.332 185.552 101.502C185.732 102.402 185.93 103.212 186.164 103.932C185.462 104.976 184.652 105.84 183.716 106.524L184.382 107.532C185.228 106.902 186.002 106.128 186.686 105.228C186.758 105.39 186.848 105.552 186.938 105.714C187.496 106.632 188.072 107.1 188.666 107.1ZM187.82 93.33L186.956 93.87C187.694 94.608 188.27 95.274 188.702 95.886L189.566 95.292C189.152 94.734 188.576 94.086 187.82 93.33ZM174.374 95.706V96.858H177.164V99.306H173.906V100.494H177.38V106.74C176.822 106.218 176.318 105.498 175.868 104.58C175.976 103.716 176.03 102.816 176.066 101.898L174.932 101.754C174.842 104.418 174.392 106.83 173.564 108.99L174.554 109.872C174.986 108.756 175.346 107.568 175.598 106.29C176.3 107.442 177.128 108.27 178.064 108.738C179.126 109.278 181.826 109.548 186.164 109.548H189.89L190.106 108.252C189.17 108.288 187.766 108.324 185.858 108.324C182.204 108.324 179.864 108.126 178.838 107.73C178.766 107.694 178.712 107.676 178.64 107.64V104.058H180.584V102.888H178.64V100.494H181.07V99.306H178.406V96.858H180.944V95.706H178.406V93.294H177.164V95.706H174.374ZM194.93 94.05V99.936H204.848V94.05H194.93ZM203.552 98.712H196.226V95.274H203.552V98.712ZM198.872 101.718H192.536V109.53H193.814V108.612H197.612V109.53H198.872V101.718ZM193.814 107.388V102.96H197.612V107.388H193.814ZM207.242 101.718H200.726V109.53H202.004V108.612H205.946V109.53H207.242V101.718ZM202.004 107.388V102.96H205.946V107.388H202.004ZM212.804 98.55H218.618C218.51 99.126 218.384 99.684 218.24 100.26H214.586V106.452H215.828V101.448H222.938V106.38H224.18V100.26H219.554C219.698 99.72 219.824 99.162 219.932 98.55H225.836V97.362H220.13C220.202 96.894 220.274 96.39 220.328 95.886L219.032 95.724C218.978 96.264 218.906 96.822 218.816 97.362H212.804V95.598C217.322 95.526 221.408 95.184 225.044 94.572L224.396 93.402C220.598 94.086 216.314 94.464 211.562 94.5V100.134C211.454 103.77 210.788 106.632 209.564 108.684L210.464 109.638C211.94 107.262 212.714 104.094 212.804 100.134V98.55ZM220.418 105.966L219.77 106.938C221.606 107.64 223.406 108.594 225.152 109.782L225.872 108.684C224.234 107.622 222.416 106.722 220.418 105.966ZM219.086 102.168C218.888 103.986 218.294 105.39 217.286 106.362C216.278 107.334 214.712 108.072 212.588 108.612L213.29 109.8C215.576 109.152 217.286 108.252 218.402 107.136C219.482 106.02 220.13 104.382 220.346 102.258L219.086 102.168Z" fill="white"/>
</svg>
